<svg width="1880" height="706" viewBox="0 0 1880 706" fill="none" xmlns="http://www.w3.org/2000/svg">
<g clip-path="url(#clip0_706:1281)">
<path d="M1880 0H0V706H1880V0Z" fill="#F1F2F6"/>
<path opacity="0.5" d="M-179.708 197.679C-181.76 162.39 -152.585 133.201 -117.295 135.236L51.1111 144.949C80.6651 146.653 104.4 169.958 106.645 199.476L119.612 369.922C122.357 406.01 92.3178 436.069 56.2277 433.346L-115.421 420.397C-144.943 418.169 -168.264 394.444 -169.983 364.887L-179.708 197.679Z" fill="#FF9838"/>
<path opacity="0.5" d="M-180.514 279.002C-199.929 249.463 -189.248 209.6 -157.664 193.725L-7.6067 118.302C18.8447 105.007 51.0521 113.331 67.7489 137.778L164.412 279.31C184.825 309.197 173.826 350.245 141.205 365.922L-13.2741 440.16C-39.9576 452.984 -72.012 444.089 -88.2721 419.349L-180.514 279.002Z" fill="#FF9838"/>
<path opacity="0.5" d="M1773.9 317.108C1771.18 263.975 1815.41 220.36 1868.5 223.834L1986.69 231.568C2031.17 234.478 2066.61 269.87 2069.6 314.342L2080.28 473.719C2083.93 528.079 2038.27 572.901 1983.99 568.255L1863.15 557.912C1818.89 554.123 1784.21 518.243 1781.94 473.875L1773.9 317.108Z" fill="#FF9838"/>
<path opacity="0.5" d="M1783.36 410.983C1756.88 365.231 1773.91 302.079 1819.78 275.896L1930.07 212.949C1968.5 191.009 2014.23 202.92 2037.02 240.808L2114.06 368.909C2141.91 415.208 2124.31 480.224 2076.93 506.078L1963.23 568.13C1924.52 589.252 1879.14 576.46 1856.99 538.189L1783.36 410.983Z" fill="#FFC738"/>
</g>
<defs>
<clipPath id="clip0_706:1281">
<rect width="1880" height="706" fill="white"/>
</clipPath>
</defs>
</svg>
