<svg width="267" height="208" viewBox="0 0 267 208" fill="none" xmlns="http://www.w3.org/2000/svg">
<g clip-path="url(#clip0_717:1685)">
<path d="M124.573 112.198C122.991 113.37 121.081 115.254 120.387 117.945C119.885 119.944 120.368 121.117 120.194 123.692C120.078 125.48 119.615 127.998 118.13 130.996C114.754 130.304 109.082 129.632 102.388 131.169C98.395 132.092 95.1926 133.534 92.8391 134.841C93.2056 135.071 93.7072 135.341 94.3438 135.514C97.9513 136.494 101.752 133.476 101.867 133.687C101.983 133.88 97.6233 135.917 97.8548 137.686C98.0091 138.877 100.15 139.512 102.369 140.184C104.24 140.742 106.015 141.28 108.388 141.011C111.648 140.646 113.905 139.012 114.908 138.166C115.873 138.647 117.3 139.281 119.094 139.838C122.393 140.838 126.946 142.222 129.975 140.338C131.942 139.108 132.54 136.225 133.659 130.497C135.01 123.519 135.646 120.021 133.833 117.157C131.46 113.332 126.579 112.448 124.573 112.198Z" fill="white" stroke="#161616" stroke-width="3" stroke-miterlimit="10"/>
<path d="M117.512 131.208C119.847 132.073 121.776 133.649 123.107 135.744C123.3 136.052 123.801 135.763 123.608 135.456C122.2 133.226 120.136 131.573 117.667 130.65C117.3 130.516 117.165 131.073 117.512 131.208Z" fill="#161616"/>
<path d="M105.089 134.994C102.793 135.379 100.941 136.917 100.112 139.069C99.9769 139.415 100.536 139.569 100.671 139.223C101.424 137.263 103.16 135.898 105.243 135.552C105.61 135.494 105.456 134.937 105.089 134.994Z" fill="#161616"/>
<path d="M107.79 136.917C106.96 137.416 106.189 137.993 105.456 138.608C104.973 139.031 104.433 139.531 104.549 140.223C104.838 142.049 107.038 141.645 108.234 141.184C108.581 141.049 108.427 140.492 108.079 140.626C107.558 140.819 106.98 141.068 106.42 141.049C105.514 141.011 104.703 140.146 105.475 139.358C106.208 138.589 107.173 137.974 108.079 137.397C108.388 137.205 108.099 136.705 107.79 136.917Z" fill="#161616"/>
<path d="M142.572 88.5359C141.588 88.8627 140.334 89.3624 138.926 90.0544C138.521 90.2466 137.498 90.7656 136.399 91.4768C134.701 92.5532 133.467 93.6873 132.058 95.1097C130.264 96.9357 128.451 98.7617 126.29 101.683C124.477 104.144 121.66 108.007 119.635 113.678C118.825 115.927 118.362 117.868 118.092 119.252C119.153 118.637 120.117 118.329 120.869 118.156C125.21 117.176 129.377 119.367 133.332 121.424C134.817 122.193 135.994 122.942 136.804 123.461C137.228 121.385 137.653 119.29 138.077 117.214C138.444 115.465 138.791 113.697 139.158 111.948C139.717 111.467 140.469 110.756 141.299 109.833C142.861 108.065 145.967 104.547 146.392 99.6652C146.913 94.0332 143.556 89.7276 142.572 88.5359Z" fill="#EC615B"/>
<path d="M141.434 88.7666C139.37 89.0742 137.595 90.1698 135.994 91.4384C134.142 92.88 132.406 94.4754 130.785 96.1669C127.621 99.4346 124.863 103.087 122.586 107.027C122.393 107.354 122.895 107.642 123.088 107.315C125.287 103.51 127.911 99.9728 130.959 96.8012C132.444 95.2635 134.007 93.8027 135.647 92.4379C137.402 90.9963 139.273 89.6508 141.588 89.3048C141.955 89.2664 141.8 88.709 141.434 88.7666Z" fill="#161616"/>
<path d="M140.624 109.756C139.196 111.198 137.73 112.601 136.245 113.966C135.975 114.216 136.38 114.62 136.65 114.37C138.135 113.005 139.601 111.602 141.029 110.16C141.28 109.891 140.875 109.487 140.624 109.756Z" fill="#161616"/>
<path d="M138.618 112.39C137.942 116.081 137.286 119.79 136.611 123.481C136.746 123.423 136.901 123.365 137.036 123.308C133.968 121.174 130.554 119.579 126.927 118.579C124.091 117.81 120.484 117.061 118.053 119.194C117.783 119.444 118.188 119.848 118.458 119.598C120.928 117.407 124.921 118.56 127.718 119.406C130.94 120.386 133.968 121.885 136.727 123.788C136.881 123.884 137.113 123.788 137.151 123.615C137.827 119.925 138.483 116.215 139.158 112.525C139.235 112.179 138.675 112.025 138.618 112.39Z" fill="#161616"/>
<path d="M122.721 106.758C120.715 110.66 118.207 114.677 118.033 119.194C118.014 119.56 118.593 119.56 118.612 119.194C118.786 114.793 121.255 110.871 123.223 107.046C123.377 106.72 122.875 106.431 122.721 106.758Z" fill="#161616"/>
<path opacity="0.4" d="M139.871 99.4922C136.418 106.335 134.547 112.102 133.447 116.138C131.846 122.058 131.286 126.729 127.139 130.612C126.464 131.246 124.477 133.072 121.351 134.206C114.792 136.571 109.931 133.38 105.803 136.763C105.34 137.147 103.97 138.108 104.124 139.204C104.279 140.242 105.706 140.78 105.918 140.876C107.616 141.53 109.372 140.857 111.571 139.973C114.059 138.973 113.789 138.627 114.908 138.435C117.262 138.031 118.342 139.511 121.467 140.492C122.798 140.895 126.734 142.126 129.569 140.492C131.653 139.281 132.29 137.013 133.293 133.188C133.987 130.593 134.701 126.806 134.585 122.039C135.357 122.635 136.128 123.231 136.9 123.827C137.903 115.715 138.887 107.604 139.871 99.4922Z" fill="#3D3D3D"/>
<path opacity="0.38" d="M138.714 107.815C136.071 112.794 134.778 117.003 134.084 119.848C132.695 125.557 133.138 128.248 131.248 132.265C129.222 136.628 125.943 139.396 123.667 140.972C124.94 141.261 128.007 141.799 130.226 140.069C131.788 138.858 132.193 137.128 132.791 134.302C133.544 130.823 134.335 126.864 135.106 122.52C135.704 122.904 136.302 123.289 136.9 123.673C137.518 118.406 138.116 113.101 138.714 107.815Z" fill="#3D3D3D"/>
<path d="M142.166 88.1516C141.472 92.6686 140.796 97.2241 140.141 101.799C137.594 119.54 135.395 136.974 133.543 154.12C133.582 154.697 133.736 155.619 134.315 156.542C134.893 157.484 135.665 157.964 136.032 158.214C139.543 160.713 141.298 161.982 143.073 162.827C151.58 166.922 160.994 166.441 160.994 166.441C162.981 166.345 166.936 166.095 171.18 164.404C171.412 164.307 173.032 163.558 176.273 162.039C179.205 160.675 179.726 160.405 180.44 159.752C182.138 158.195 182.794 156.273 183.237 154.908C184.182 152.006 184.086 149.545 184.047 148.949C184.047 148.949 183.855 144.163 183.719 116.215C183.7 110.525 184.26 102.164 187.269 91.8421C184.144 90.3236 181.212 88.9204 177.681 87.2289C175.251 86.0564 172.994 84.98 169.753 84.5956C168.827 84.4802 167.997 84.4418 166.762 84.461C161.747 84.4995 157.618 85.2683 155.844 85.5759C152.391 86.1333 147.722 86.979 142.166 88.1516Z" fill="#EC615B"/>
<path d="M142.012 88.8243C147.992 87.5556 154.031 86.5369 160.088 85.7873C160.358 85.7488 160.513 85.4028 160.242 85.2491C160.165 85.2106 160.088 85.153 159.992 85.1145C159.664 84.9223 159.374 85.4221 159.702 85.6143C159.779 85.6527 159.857 85.7104 159.953 85.7488C160.011 85.5758 160.05 85.3836 160.107 85.2106C153.992 85.9603 147.896 86.979 141.877 88.2668C141.491 88.3437 141.646 88.9011 142.012 88.8243Z" fill="#161616"/>
<path d="M140.218 98.8963C138.096 113.966 136.167 129.055 134.431 144.182C134.218 146.085 134.006 147.969 133.794 149.872C133.62 151.525 133.138 153.389 133.35 155.043C133.543 156.503 134.701 157.426 135.762 158.31C136.919 159.271 138.135 160.175 139.408 161.001C144.636 164.365 150.751 166.383 156.963 166.748C164.351 167.171 171.778 165.288 178.087 161.443C178.395 161.251 178.106 160.751 177.797 160.944C166.763 167.652 152.719 167.921 141.472 161.559C140.179 160.828 138.925 160.021 137.729 159.137C136.514 158.233 134.546 157.003 134.045 155.523C133.813 154.812 133.929 154.024 134.006 153.274C134.103 152.332 134.218 151.371 134.315 150.429C134.508 148.661 134.701 146.893 134.913 145.124C135.742 137.916 136.591 130.727 137.517 123.538C138.559 115.369 139.639 107.2 140.797 99.0501C140.835 98.6849 140.276 98.5311 140.218 98.8963Z" fill="#161616"/>
<path d="M168.634 84.4226C172.029 85.0953 175.212 86.6523 178.376 87.9786C181.482 89.2857 184.935 90.3428 187.674 92.3419C187.983 92.5533 188.272 92.0536 187.964 91.8421C185.282 89.8815 181.906 88.8436 178.878 87.5749C175.598 86.2102 172.299 84.5764 168.788 83.8652C168.422 83.7883 168.267 84.3457 168.634 84.4226Z" fill="#161616"/>
<path d="M183.759 117.022C183.45 125.114 183.141 133.207 183.431 141.28C183.566 145.201 184.183 149.276 183.45 153.178C182.833 156.388 181.019 159.598 177.798 160.79C177.45 160.924 177.605 161.482 177.952 161.347C183.083 159.444 184.414 153.62 184.337 148.738C184.299 145.432 184.009 142.126 183.932 138.8C183.855 135.417 183.894 132.053 183.951 128.67C184.029 124.788 184.183 120.905 184.318 117.022C184.357 116.638 183.778 116.638 183.759 117.022Z" fill="#161616"/>
<path opacity="0.38" d="M180.98 112.467C179.958 115.965 178.357 119.79 175.887 123.596C164.833 140.53 144.597 143.913 139.427 144.624C146.372 145.355 153.394 146.143 160.493 146.989C168.325 147.911 176.061 148.891 183.681 149.891C183.199 141.299 183.199 134.225 183.314 129.17C183.527 118.714 184.279 110.256 182.909 109.987C182.581 109.91 182.003 110.275 180.98 112.467Z" fill="#3D3D3D"/>
<path opacity="0.42" d="M183.353 118.752C182.659 120.79 181.598 123.673 180.035 126.998C177.836 131.708 175.733 136.244 173.013 139.031C165.412 146.816 150.558 143.452 150.52 143.99C150.5 144.298 155.94 145.163 183.411 147.681C183.411 138.031 183.392 128.401 183.353 118.752Z" fill="#3D3D3D"/>
<path d="M217.961 198.003C147.162 188.584 76.3444 179.165 5.54565 169.766C26.438 157.695 47.3497 145.624 68.2421 133.553C132.115 139.819 196.008 146.104 259.881 152.371C245.895 167.575 231.928 182.798 217.961 198.003Z" fill="white" stroke="#161616" stroke-width="3" stroke-miterlimit="10"/>
<path d="M4.85132 171.4C75.8237 180.78 146.796 190.16 217.749 199.541" stroke="#161616" stroke-width="16" stroke-miterlimit="10"/>
<path d="M216.399 199.963C231.272 184.298 246.146 168.613 261 152.947" stroke="#161616" stroke-width="16" stroke-miterlimit="10"/>
<path d="M192.709 158.791C185.475 164.422 178.395 170.227 171.431 176.186C171.141 176.436 171.566 176.84 171.836 176.59C178.8 170.631 185.899 164.826 193.114 159.194C193.404 158.983 192.998 158.56 192.709 158.791Z" fill="#161616"/>
<path d="M171.701 176.494C173.977 176.974 176.292 176.974 178.627 176.994C181.25 177.032 183.72 177.301 186.227 178.032C190.934 179.396 195.545 180.3 200.464 180.184C200.831 180.184 200.831 179.608 200.464 179.608C197.937 179.665 195.41 179.512 192.902 179.108C190.549 178.724 188.311 178.032 186.015 177.397C183.816 176.782 181.617 176.494 179.321 176.455C176.813 176.398 174.305 176.475 171.836 175.956C171.489 175.86 171.335 176.417 171.701 176.494Z" fill="#161616"/>
<path d="M193.134 159.213C200.773 159.829 208.355 161.04 215.801 162.846C216.167 162.942 216.322 162.385 215.955 162.289C208.47 160.463 200.831 159.252 193.134 158.637C192.767 158.598 192.767 159.175 193.134 159.213Z" fill="#161616"/>
<path d="M200.908 179.838C206.29 174.533 211.46 168.997 216.36 163.231C216.592 162.943 216.187 162.539 215.955 162.827C211.055 168.574 205.885 174.11 200.503 179.435C200.233 179.704 200.638 180.107 200.908 179.838Z" fill="#161616"/>
<path d="M178.434 174.206C185.07 173.399 191.783 174.226 198.014 176.648C198.362 176.782 198.516 176.225 198.169 176.09C191.899 173.668 185.109 172.823 178.434 173.63C178.067 173.668 178.067 174.245 178.434 174.206Z" fill="#161616"/>
<path d="M188.485 172.092C192.574 172.4 196.606 173.034 200.599 173.976C200.966 174.072 201.12 173.515 200.754 173.418C196.722 172.457 192.632 171.823 188.485 171.515C188.099 171.496 188.118 172.073 188.485 172.092Z" fill="#161616"/>
<path d="M185.417 167.844C191.571 167.979 197.667 168.863 203.609 170.497C203.975 170.593 204.13 170.036 203.763 169.939C197.783 168.306 191.629 167.402 185.417 167.268C185.05 167.268 185.05 167.844 185.417 167.844Z" fill="#161616"/>
<path d="M193.056 166.076C196.374 166.537 199.654 167.114 202.933 167.806C203.3 167.883 203.454 167.325 203.088 167.248C199.808 166.556 196.529 165.98 193.211 165.518C192.844 165.461 192.69 166.018 193.056 166.076Z" fill="#161616"/>
<path d="M188.832 178.973C187.655 180.78 186.478 182.587 185.282 184.375C185.166 184.548 185.321 184.836 185.533 184.817C195.043 183.74 204.689 184.355 213.987 186.624C214.354 186.72 214.508 186.162 214.142 186.066C204.785 183.779 195.101 183.164 185.533 184.221C185.61 184.375 185.706 184.509 185.784 184.663C186.96 182.856 188.137 181.049 189.333 179.262C189.545 178.954 189.044 178.666 188.832 178.973Z" fill="#161616"/>
<path d="M212.155 168.055C215.878 167.978 219.582 167.902 223.305 167.825C223.208 167.709 223.112 167.575 223.035 167.459C220.469 173.553 217.884 179.627 215.318 185.72C215.183 186.066 215.743 186.22 215.878 185.874C218.444 179.78 221.029 173.706 223.594 167.613C223.671 167.44 223.479 167.248 223.324 167.248C219.601 167.325 215.897 167.402 212.174 167.479C211.788 167.498 211.788 168.075 212.155 168.055Z" fill="#161616"/>
<path d="M198.053 182.376C199.037 182.183 200.021 182.145 201.024 182.222C201.39 182.241 201.39 181.664 201.024 181.645C199.963 181.568 198.94 181.626 197.899 181.818C197.532 181.876 197.686 182.433 198.053 182.376Z" fill="#161616"/>
<path d="M203.531 182.433C206.56 182.549 209.589 182.837 212.598 183.298C212.965 183.356 213.119 182.799 212.753 182.741C209.705 182.26 206.618 181.972 203.531 181.857C203.165 181.837 203.165 182.414 203.531 182.433Z" fill="#161616"/>
<path d="M203.705 178.82C204.419 178.82 205.133 178.82 205.866 178.82C206.232 178.82 206.232 178.243 205.866 178.243C205.152 178.243 204.438 178.243 203.705 178.243C203.339 178.243 203.339 178.82 203.705 178.82Z" fill="#161616"/>
<path d="M208.2 178.762C210.573 178.82 212.927 179.05 215.28 179.435C215.647 179.492 215.801 178.935 215.435 178.877C213.043 178.493 210.631 178.262 208.2 178.185C207.834 178.185 207.834 178.762 208.2 178.762Z" fill="#161616"/>
<path d="M207.834 175.475C210.535 175.514 213.216 175.667 215.898 175.975C216.264 176.013 216.264 175.437 215.898 175.398C213.216 175.091 210.535 174.918 207.834 174.898C207.467 174.879 207.467 175.456 207.834 175.475Z" fill="#161616"/>
<path d="M189.719 181.857C191.012 181.895 192.285 181.741 193.558 181.434C193.925 181.338 193.77 180.78 193.404 180.876C192.188 181.184 190.973 181.318 189.719 181.28C189.352 181.28 189.352 181.857 189.719 181.857Z" fill="#161616"/>
<path d="M198.882 151.736C198.381 152.351 197.802 153.601 198.4 154.351C198.767 154.812 199.461 154.716 199.982 154.735C200.927 154.773 201.873 154.831 202.818 154.869C206.657 155.042 210.476 155.235 214.315 155.408C214.682 155.427 214.682 154.85 214.315 154.831C211.48 154.697 208.663 154.562 205.827 154.427C204.438 154.37 203.069 154.293 201.68 154.235C201.004 154.197 200.291 154.235 199.615 154.139C199.114 154.062 198.747 154.043 198.767 153.428C198.786 152.947 198.998 152.505 199.288 152.14C199.519 151.852 199.114 151.429 198.882 151.736Z" fill="#161616"/>
<path d="M199.403 152.467C202.644 152.582 205.885 152.678 209.126 152.794C210.708 152.851 212.309 152.89 213.891 152.948C215.318 153.005 216.823 153.101 217.846 154.197C218.096 154.466 218.501 154.062 218.251 153.793C217.479 152.948 216.437 152.621 215.318 152.467C213.659 152.256 211.942 152.294 210.264 152.236C206.637 152.121 203.011 151.986 199.403 151.871C199.037 151.89 199.037 152.467 199.403 152.467Z" fill="#161616"/>
<path d="M214.122 155.427C215.608 155.446 217.016 154.985 218.212 154.101C218.501 153.889 218.212 153.389 217.923 153.601C216.804 154.427 215.531 154.87 214.122 154.85C213.737 154.85 213.737 155.427 214.122 155.427Z" fill="#161616"/>
<path d="M214.585 152.467C213.775 153.005 213.409 154.004 213.679 154.927C213.775 155.273 214.335 155.139 214.238 154.773C214.045 154.101 214.277 153.351 214.875 152.947C215.183 152.755 214.894 152.255 214.585 152.467Z" fill="#161616"/>
<path d="M73.8172 83.3653C73.335 82.3657 71.9653 82.2889 71.2322 83.0385C70.4413 83.8458 70.0748 85.4028 70.1519 86.4984C70.3255 88.7089 72.4862 89.7468 73.0649 91.7267C73.335 92.6301 74.7239 92.9184 75.1869 91.9958C75.9586 90.4773 77.0389 89.1702 78.0034 87.7862C78.8522 86.5561 80.1447 84.6531 79.6817 83.0769C79.4888 82.4042 78.8908 81.8275 78.1577 81.7507C77.2703 81.6546 76.653 82.1928 76.1322 82.8463C75.6113 83.519 75.1483 84.211 74.7625 84.9607C74.4153 85.6142 74.1452 86.3831 73.47 86.7483C74.0294 86.9789 74.6082 87.2096 75.1676 87.4402C74.9168 86.6137 74.666 85.7872 74.4346 84.9799C73.7979 85.3451 73.142 85.7295 72.5054 86.0947C73.3735 87.075 74.859 87.2096 75.9007 86.3831C76.383 85.9986 76.653 85.4796 76.981 84.9799C77.1353 84.7492 77.2704 84.5378 77.5018 84.384C77.6562 84.2687 77.8491 84.1918 78.042 84.1341C78.4278 84.1149 78.4085 84.0765 78.0034 84.0188C77.8105 83.692 77.6176 83.346 77.4247 83.0193C77.4247 83.0577 77.4247 83.1154 77.4247 83.1538C77.714 82.7886 77.9841 82.4042 78.2735 82.039C78.2349 82.0582 78.1963 82.0582 78.1577 82.0774C76.7495 82.5195 77.3475 84.7492 78.7751 84.3071C78.8136 84.2879 78.8522 84.2879 78.8908 84.2687C79.4117 84.1149 79.701 83.6728 79.7396 83.1538C79.7396 83.1154 79.7396 83.0577 79.7396 83.0193C79.7589 82.6156 79.4888 82.2312 79.1609 82.0198C78.1963 81.4047 76.7688 82.0005 75.9778 82.6348C75.5341 83.0001 75.2255 83.4229 74.9168 83.9035C74.7239 84.211 74.5117 84.8646 74.1452 84.4417C73.3735 83.5767 71.8881 84.4993 72.2161 85.5565C72.4669 86.3831 72.7176 87.2096 72.9491 88.0169C73.1613 88.7473 73.9909 89.0741 74.6468 88.7089C75.6306 88.1899 76.1708 87.2865 76.653 86.3254C76.9424 85.768 77.2318 85.2298 77.5983 84.73C77.6562 84.6339 78.177 84.0957 78.1577 83.9996C77.6562 83.5767 77.4054 83.5959 77.3668 84.0573C77.3282 84.211 77.2704 84.3456 77.2125 84.4801C76.2479 86.8059 74.3188 88.5743 73.1806 90.804C73.8944 90.9001 74.5889 90.9962 75.3027 91.0731C74.9361 89.8237 74.1066 88.9203 73.3157 87.9208C72.9877 87.4979 72.6212 87.0366 72.5054 86.5176C72.4283 86.1524 72.4669 85.8256 72.5633 85.4796C72.6212 85.249 72.6983 85.0376 72.7948 84.8261C73.1228 84.3648 72.7948 84.2495 71.8302 84.4993C72.4669 85.8641 74.4538 84.6916 73.8172 83.3653Z" fill="#EC615B"/>
<path d="M75.0712 89.67C76.7688 87.6325 78.2543 85.4605 79.4889 83.1347C80.1834 81.8276 78.1771 80.6551 77.4826 81.9622C76.3444 84.1342 75.0133 86.1717 73.4315 88.0362C72.4862 89.1703 74.1066 90.8041 75.0712 89.67Z" fill="#EC615B"/>
<path d="M79.6439 57.051C79.3352 59.0693 79.4124 61.0491 79.9526 63.0289C80.242 64.1053 81.9203 63.644 81.6309 62.5676C81.1872 60.9146 81.0522 59.2038 81.3223 57.5123C81.4766 56.4167 79.7982 55.9554 79.6439 57.051Z" fill="#29739D"/>
<path d="M80.2994 57.9352C82.4214 58.8387 84.1191 57.0703 84.1962 54.9943C84.1962 54.8021 84.0805 54.2831 84.1576 54.1101C84.1191 54.1101 84.0805 54.1101 84.0612 54.1101C84.2348 54.1678 84.3698 54.2639 84.447 54.4369C84.7557 54.8213 84.91 55.3211 85.2379 55.7055C85.9131 56.4936 86.8391 56.609 87.823 56.6666C88.3053 56.6858 88.884 56.6282 89.1734 57.0895C89.4627 57.5316 89.3084 58.2812 89.2698 58.781C89.2312 59.473 89.1734 60.1842 89.1155 60.8761C89.0962 61.0491 88.9226 61.7027 89.1734 61.4528C89.019 61.6258 88.3824 61.6642 88.1702 61.7219C86.897 62.0102 85.5852 62.1255 84.2927 62.0487C83.6175 62.0102 82.595 62.0871 82.2092 61.4912C81.862 60.9338 81.8427 60.0881 81.9391 59.4537C81.4183 59.5306 80.8781 59.5883 80.3573 59.6652C80.8202 60.6839 81.2639 61.7027 81.7269 62.7406C82.0356 63.4134 83.1545 63.2212 83.3088 62.5292C83.7718 60.4533 83.1352 58.2812 83.7911 56.2437C83.3088 56.3783 82.8265 56.4936 82.3443 56.6282C82.9037 57.3009 82.7687 58.7425 82.9037 59.5691C83.058 60.5302 83.3281 61.4143 83.7718 62.2601C84.1769 62.9905 85.4501 62.683 85.3923 61.818C85.2379 59.5114 85.0836 57.1856 84.9486 54.879C84.3891 54.9559 83.8104 55.0328 83.2509 55.1097C84.0612 57.2817 84.1769 59.5498 83.5403 61.7796C83.9647 61.6066 84.3891 61.4336 84.8135 61.2606C83.7332 60.434 82.923 59.3576 82.3636 58.1275C81.997 57.3394 80.7045 57.743 80.7431 58.5696C80.7817 59.3384 80.801 60.1073 80.8395 60.8761C81.4183 60.8761 81.997 60.8761 82.5758 60.8761C82.5372 59.9151 82.5758 58.9732 82.7687 58.0313C82.8458 57.7046 82.923 57.3586 83.0195 57.0318C83.0773 56.8204 83.1545 56.5897 83.2317 56.3783C83.4824 56.0707 83.4439 55.9554 83.1159 56.0323C84.0419 57.3394 84.1576 59.3 84.0033 60.8185C84.5435 60.6647 85.0836 60.5302 85.6238 60.3764C85.1801 59.473 84.8907 58.5119 84.775 57.5124C84.7171 56.9934 84.6978 56.4744 84.7364 55.9554C84.7364 55.8785 84.8328 55.3403 84.7942 55.3019C84.6592 55.3211 84.5242 55.3211 84.3891 55.3403C84.4663 55.4941 84.5435 55.6287 84.6206 55.7824C85.508 57.5893 85.7781 59.6267 85.5659 61.6258C86.1061 61.472 86.6462 61.3375 87.1864 61.1837C86.8391 60.434 86.5691 59.646 86.4147 58.8387C86.3568 58.4927 86.3183 58.1467 86.3568 57.8007C86.3761 57.6085 86.4147 57.4163 86.4726 57.224C86.6848 56.9934 86.7041 56.8973 86.5305 56.9549C86.299 56.9165 86.0868 56.8973 85.8553 56.8588C86.1639 57.0126 86.3568 58.5311 86.4147 58.8771C86.5305 59.7036 86.5112 60.5686 86.3954 61.3951C86.9549 61.3951 87.5143 61.3951 88.0738 61.3951C87.8616 60.78 87.7072 60.1457 87.6108 59.5114C87.5143 58.8963 87.5722 58.262 87.3793 57.6661C87.8037 58.9924 87.7265 60.3956 87.3407 61.7027C87.8616 61.6258 88.4017 61.5681 88.9226 61.4912C88.6911 60.9915 88.4982 60.4533 88.4017 59.8958C88.3438 59.6267 88.3246 59.3576 88.3053 59.0885C88.3053 58.9732 88.286 58.8579 88.3053 58.7425C88.3631 58.4734 88.2281 58.4542 87.9194 58.6657C87.7458 58.5311 87.5722 58.3966 87.3986 58.262C88.4982 60.1457 86.299 62.2409 84.4277 61.9718C84.6399 62.2409 84.8521 62.5292 85.0643 62.7983C85.045 62.4523 84.9293 61.9526 85.045 61.6258C84.91 61.7988 84.775 61.9718 84.6399 62.1448C84.312 62.3562 86.0675 62.1063 85.3344 62.0294C84.3313 61.9333 84.1769 63.4711 85.1029 63.7209C86.0289 63.9708 86.8777 64.4706 87.8616 64.3553C88.7104 64.2591 89.347 63.7594 89.6942 63.0097C90.0608 62.2217 90.1379 61.299 90.0222 60.434C89.9643 59.9535 89.8486 59.5114 89.6557 59.0885C89.5785 58.8963 89.482 58.7041 89.3856 58.5119C89.3277 58.3966 89.2505 58.2812 89.1734 58.1659C89.0962 57.9929 89.0576 58.0313 89.0962 58.2812C89.6364 58.435 90.1765 58.5696 90.7167 58.7233C90.736 58.3581 90.7745 58.0121 90.7938 57.6469C90.2344 57.7238 89.6556 57.8007 89.0962 57.8776C89.4242 58.8387 89.3663 59.7228 88.9805 60.6647C88.556 61.7027 90.2344 62.1448 90.6588 61.126C91.1411 59.9151 91.1797 58.6464 90.7745 57.4163C90.4659 56.4744 89.1348 56.6666 89.0769 57.6469C89.0576 58.0121 89.019 58.3581 88.9997 58.7233C88.9419 59.5691 90.2537 59.9343 90.6202 59.1654C91.0446 58.2428 90.9289 57.051 89.945 56.5321C89.0962 56.09 87.958 56.4744 87.5529 57.3394C86.9935 58.5311 88.2474 59.5883 88.3631 60.7416C88.421 61.2798 88.421 62.3562 87.823 62.6253C87.2442 62.8752 86.1446 62.2024 85.6045 62.0487C85.5273 62.6061 85.4502 63.1827 85.373 63.7402C87.1285 63.8939 87.1671 61.5873 85.9517 60.8377C85.3537 60.4725 84.5435 60.1842 83.9069 60.5686C83.1159 61.0491 83.3474 62.0102 83.3667 62.7791C83.386 63.1251 83.6175 63.5672 84.0033 63.6056C87.0899 64.0477 89.9064 61.5873 89.3084 58.3773C89.1927 57.743 88.9419 57.0318 88.2281 56.8973C87.6301 56.7819 87.032 57.1279 86.7812 57.6661C86.1446 59.0309 86.897 61.0491 87.4757 62.2985C87.8037 63.0097 88.8647 62.7599 89.0576 62.0871C89.4434 60.7993 89.5592 59.473 89.3277 58.1467C89.1541 57.1472 88.8454 55.8401 87.5915 55.8016C84.7942 55.744 85.9517 60.3187 86.434 61.7603C86.6848 62.4908 87.958 62.6638 88.1123 61.7603C88.3438 60.2803 88.3245 58.8002 87.9387 57.3394C87.7072 56.4744 87.2442 54.7829 85.9903 55.225C84.9872 55.5902 84.6785 57.0318 84.6785 57.9737C84.6785 59.3576 85.1801 60.7224 85.7588 61.9333C86.1639 62.7983 87.3021 62.2601 87.3793 61.4912C87.5529 59.8766 87.4179 58.2428 86.9549 56.6858C86.6269 55.5902 86.0289 53.3797 84.5628 53.4374C83.1352 53.4758 83.058 55.3019 83.058 56.3398C83.058 58.0121 83.4824 59.6267 84.2155 61.1452C84.6206 61.991 85.7588 61.472 85.836 60.7031C85.9903 59.3384 85.8553 57.9545 85.4309 56.6474C85.1222 55.6863 84.6206 54.3024 83.4631 54.1678C82.1899 54.0333 81.7462 55.4941 81.4569 56.436C81.0325 57.8199 80.8974 59.2807 80.9553 60.7416C81.0132 61.8564 82.7301 61.8564 82.6915 60.7416C82.6529 59.9727 82.6336 59.2039 82.595 58.435C82.0549 58.5888 81.5147 58.7233 80.9746 58.8771C81.6691 60.3956 82.7301 61.6258 84.0419 62.6253C84.5049 62.9713 85.1801 62.5869 85.3151 62.1063C86.0482 59.6075 85.9517 56.9549 85.0257 54.5138C84.6978 53.668 83.251 53.7065 83.3281 54.7445C83.4824 57.051 83.6368 59.3769 83.7718 61.6834C84.312 61.5297 84.8521 61.3951 85.3923 61.2414C84.3891 59.3769 85.0643 56.8973 83.6946 55.2442C83.2509 54.706 82.4214 55.052 82.2478 55.6286C81.5726 57.6854 82.2285 59.8382 81.7655 61.9141C82.2864 61.8372 82.8265 61.7796 83.3474 61.7027C82.8844 60.6839 82.4407 59.6652 81.9777 58.6272C81.6884 57.9737 80.5116 58.1275 80.3958 58.8387C80.1836 60.1842 80.2801 62.0679 81.4569 62.9905C81.997 63.4134 82.7108 63.4518 83.386 63.5287C84.2927 63.6248 85.2187 63.6633 86.1446 63.6056C87.032 63.5479 87.9001 63.4134 88.7682 63.2212C89.347 63.0866 90.1186 62.9905 90.5238 62.5292C91.0446 61.9718 90.9482 61.0684 91.006 60.3572C91.0639 59.5114 91.1604 58.6849 91.1797 57.8391C91.1989 56.4552 90.6395 55.2442 89.212 54.8982C88.6332 54.7637 88.0352 54.8406 87.4372 54.7445C86.5112 54.6099 86.4147 53.8218 85.9131 53.1683C85.2765 52.3225 83.9069 51.7843 83.0387 52.6109C82.4793 53.1491 82.595 53.841 82.6143 54.533C82.6336 55.1481 82.325 56.7051 81.3411 56.2822C80.1643 56.0131 79.2769 57.5124 80.2994 57.9352Z" fill="#29739D"/>
<path d="M29.1775 67.5075C30.5279 68.7377 31.8011 70.064 32.9007 71.5248C33.6338 72.4859 34.3861 74.408 35.6979 74.6771C36.4696 74.8309 37.0869 74.4273 37.6656 73.9659C38.4566 73.3316 39.2282 72.6781 40.0191 72.0246C40.8101 71.371 41.5817 70.7367 42.3727 70.0832C42.9321 69.6219 43.5687 69.199 43.6073 68.4109C43.6459 67.6613 43.1636 67.1038 42.7199 66.5464C42.1026 65.7583 41.466 64.9702 40.8487 64.1822C40.2313 63.3941 39.5947 62.606 38.9774 61.8179C38.5144 61.2413 38.09 60.4724 37.3184 60.2994C36.6239 60.1456 35.9873 60.5493 35.4085 60.8568C34.6369 61.2605 33.8845 61.7218 33.1708 62.2023C31.7625 63.1634 30.4507 64.2591 29.2547 65.4892C28.8881 65.8737 28.9267 66.5849 29.4283 66.854C30.6822 67.4883 31.8782 68.2379 32.9586 69.1606C33.4408 69.5642 33.9038 70.0063 34.3475 70.4676C34.5597 70.6983 34.7719 70.9289 34.9841 71.1788C35.1192 71.3326 35.2542 71.5056 35.3892 71.6594C35.5629 72.1207 35.8137 72.1015 36.1223 71.5633C36.1995 72.0822 36.2573 72.6204 36.3345 73.1394C38.3408 71.9285 40.1735 70.4292 41.7553 68.6992C42.4112 67.9688 41.5817 66.854 40.6943 67.3345C39.3439 68.0649 37.955 68.6608 36.5081 69.1221C36.8361 69.545 37.164 69.9679 37.492 70.3907C38.3022 69.1029 39.3054 67.988 40.4821 67.0077C40.0191 66.6617 39.5754 66.3158 39.1125 65.9505C38.0514 67.5267 36.7203 68.9107 35.1963 70.0447C35.6207 70.3715 36.0451 70.6983 36.4696 71.025C36.9711 69.2182 37.9936 67.6228 39.5176 66.4887C39.1124 66.0851 38.7266 65.7007 38.3215 65.297C37.4534 67.0077 36.2381 68.4686 34.6755 69.5834C34.9648 69.5834 35.2542 69.5834 35.5436 69.5834C35.6015 69.6411 35.64 69.718 35.6979 69.7756C35.7365 69.6219 35.7751 69.4681 35.8137 69.3335C35.8715 69.1413 35.9294 68.9491 36.0066 68.7377C36.1802 68.2187 36.4117 67.7382 36.6625 67.2576C37.1447 66.3542 37.7428 65.5661 38.4565 64.8357C37.9936 64.4897 37.5499 64.1437 37.0869 63.7785C36.0644 65.8737 34.6562 67.6997 32.8814 69.2374C33.383 69.4489 33.8652 69.6411 34.3668 69.8525C34.579 67.5844 35.5629 65.5085 37.164 63.8746C36.7011 63.5286 36.2574 63.1826 35.7944 62.8174C35.0034 64.3552 33.846 65.5661 32.3412 66.4311C32.7849 66.681 33.2093 66.9308 33.653 67.1807C33.6337 66.4888 33.7302 65.816 34.0582 65.2009C34.1932 64.9318 34.3668 64.6819 34.5597 64.4705C34.8684 64.1053 35.4471 64.0092 34.907 63.6632C34.6562 63.3556 34.5211 63.3749 34.5019 63.7593C34.4054 63.9515 34.3282 64.1437 34.2318 64.3359C34.0774 64.6243 33.9231 64.8934 33.7688 65.1625C33.5952 65.4316 33.4215 65.7007 33.2286 65.9505C33.0743 66.1428 32.9393 66.335 32.7656 66.5272C32.4956 66.681 32.4763 66.7963 32.7078 66.854C32.8428 67.027 32.9779 67.1999 33.1129 67.3729C32.92 66.7579 33.5566 65.6046 33.846 65.0856C34.0196 64.7973 35.0227 63.1442 35.4664 63.2403C35.6786 63.2787 35.968 64.3552 36.0451 64.5474C36.1995 64.9702 36.3345 65.4123 36.431 65.8544C36.5274 66.2965 36.6432 66.7579 36.6432 67.2C36.6432 67.7189 36.6432 67.7382 36.2188 67.3729C35.0034 66.335 34.8684 63.7016 36.6625 63.1058C37.5692 62.7982 37.8392 63.9515 38.0514 64.605C38.3601 65.5469 38.6495 66.508 38.9581 67.4691C39.4404 67.1807 39.9227 66.9116 40.405 66.6233C39.3247 65.5661 38.7459 64.2206 38.7073 62.7021C38.3408 62.9712 37.9743 63.2595 37.6077 63.5286C39.6333 64.2975 39.9613 66.8347 40.2313 68.68C40.3857 69.7756 42.064 69.3143 41.9097 68.2187C41.5239 65.6046 40.8101 62.8751 38.0707 61.8564C37.5499 61.6641 36.9518 62.1639 36.9711 62.6829C37.0097 64.6435 37.7814 66.4311 39.1703 67.815C39.7683 68.4109 40.8872 67.815 40.6172 66.9693C40.2699 65.8737 39.9613 64.778 39.5754 63.7016C39.3054 62.9328 38.9581 62.1255 38.2443 61.6641C36.7011 60.6454 34.8877 61.7987 34.0967 63.2019C33.1901 64.8357 33.4215 66.8732 34.6562 68.2571C35.6786 69.3912 37.6656 70.0063 38.2251 68.1034C38.7266 66.4119 37.8585 63.9131 37.0097 62.4522C35.8522 60.4916 33.9424 61.9717 32.9586 63.2403C32.4377 63.9131 32.0326 64.6435 31.7432 65.4316C31.4731 66.162 31.0294 67.3537 31.5696 68.0649C32.8428 69.718 34.6755 66.9116 35.2349 65.989C35.7172 65.2201 36.4117 64.1629 36.2959 63.2019C36.1802 62.2985 35.3314 61.8756 34.5211 62.2216C32.7464 62.9904 31.8397 65.3547 31.9168 67.1423C31.9361 67.7958 32.6306 68.2187 33.2286 67.8919C34.9648 66.8924 36.3731 65.4316 37.2991 63.6632C37.7428 62.8174 36.6432 61.8948 35.9294 62.606C34.0003 64.5666 32.8814 67.0654 32.6306 69.7949C32.5534 70.6022 33.5952 70.8521 34.116 70.41C35.9873 68.7953 37.5113 66.8155 38.5916 64.605C38.9967 63.7593 37.955 62.8174 37.2219 63.5479C36.103 64.7011 35.2156 66.0274 34.5983 67.5075C34.1932 68.4878 33.3444 70.3523 34.6562 71.025C34.9263 71.1596 35.2735 71.198 35.5243 71.025C37.3377 69.7372 38.8038 68.1034 39.8069 66.1235C40.1542 65.4316 39.3825 64.3744 38.6109 64.9318C36.7203 66.3542 35.3893 68.2379 34.7719 70.5061C34.579 71.1788 35.4085 71.9477 36.0451 71.4864C37.8392 70.1793 39.3439 68.6223 40.5979 66.7771C41.1766 65.9121 39.942 65.1432 39.2282 65.7199C37.9357 66.7771 36.8554 68.0265 35.968 69.4489C35.5629 70.0832 36.2381 70.9482 36.9518 70.7175C38.553 70.2177 40.0963 69.5642 41.5624 68.7569C41.2152 68.2956 40.8679 67.8535 40.5014 67.3922C39.016 69.026 37.3184 70.4292 35.4278 71.5633C34.7333 71.9861 34.9648 72.8703 35.64 73.1394C36.4503 73.4662 37.3184 72.8127 37.357 71.9861C37.4148 70.9866 36.3731 70.0447 35.7558 69.3912C34.1932 67.6997 32.3219 66.3158 30.2771 65.297C30.335 65.7583 30.3928 66.2004 30.4507 66.6617C31.3574 65.7391 32.3219 64.8934 33.3444 64.1245C34.2704 63.4325 35.4278 62.5099 36.5274 62.1447C36.8554 62.0293 36.8361 61.9717 37.1062 62.2408C37.3762 62.5099 37.5884 62.8366 37.8006 63.125C38.2251 63.6632 38.6688 64.2206 39.0932 64.7588C39.5561 65.3547 40.0384 65.9505 40.5014 66.5464C40.7522 66.8732 41.7746 67.8535 41.6975 68.2187C41.6203 68.6416 40.5593 69.2567 40.212 69.545C39.6719 69.9871 39.1317 70.4292 38.5916 70.8713C38.0514 71.3134 37.5113 71.7555 36.9711 72.1976C36.7396 72.3898 36.2381 72.9472 35.8329 72.7358C35.6786 72.6589 35.4085 72.0822 35.3121 71.9477C33.9038 69.8333 32.2255 67.9304 30.3542 66.2196C29.5826 65.5469 28.348 66.7579 29.1775 67.5075Z" fill="#29739D"/>
<path d="M30.1036 65.9698C30.7981 67.3153 35.1579 74.8117 37.0099 72.2553C37.6658 71.3518 36.1611 70.4869 35.5052 71.3903C35.4666 71.4287 35.4473 71.4864 35.4087 71.5248C35.6595 71.3903 35.9103 71.2365 36.1611 71.102C35.8331 71.1404 35.0422 70.0448 34.83 69.7949C34.4056 69.3143 33.9812 68.8338 33.5954 68.3148C32.843 67.2961 32.1871 66.2196 31.6084 65.1048C31.1068 64.1053 29.6021 64.9895 30.1036 65.9698Z" fill="#29739D"/>
<path d="M64.6155 42.2312C62.5514 40.7319 61.7604 37.6564 63.0529 35.4075C63.6895 34.2927 64.847 33.3892 66.1974 33.543C67.5864 33.6968 68.2615 34.6963 68.358 36.0034C68.4159 36.7338 68.3387 37.4834 68.3194 38.2139C68.2808 38.9058 68.358 39.7131 68.1651 40.3859C67.9722 41.0586 67.2777 41.4239 67.0076 42.0966C66.7761 42.6733 67.0269 43.173 66.3517 43.3652C66.1588 43.4229 65.8887 43.4037 65.7151 43.4613C65.4064 43.4229 65.4064 43.4806 65.7151 43.6151C65.6379 43.3652 65.5801 43.1346 65.5029 42.8847C65.2521 42.0389 65.0013 41.174 64.7505 40.3282C64.3261 38.9058 63.4387 36.8107 64.5576 35.4844C64.0946 35.5421 63.6317 35.5997 63.1494 35.6574C63.8246 36.1571 63.5738 38.1946 63.6124 38.8866C63.6702 40.3282 63.7281 41.7698 63.786 43.2115C63.8439 44.73 65.9466 44.6723 66.1009 43.2115C66.2553 41.693 66.0431 40.1937 65.9852 38.6559C65.9466 38.0024 65.9466 37.3297 66.0431 36.6761C66.0816 36.3494 66.1588 36.0418 66.2553 35.7343C66.3131 35.5228 66.4096 35.3114 66.506 35.1192C66.7182 34.7924 66.7182 34.754 66.5253 35.0039C66.236 35.0423 65.9273 35.0807 65.6379 35.1192C65.5801 35.1 65.8501 35.8112 65.8887 35.9649C65.9659 36.2533 66.0045 36.5608 66.0431 36.8491C66.1202 37.6564 66.1202 38.483 66.0816 39.2903C66.0623 39.6555 66.0238 40.0207 65.9659 40.4051C65.9273 40.6358 65.8887 40.8664 65.8501 41.0971C65.6572 41.5584 65.9852 41.6737 66.834 41.3854C66.9112 41.2316 66.699 40.6165 66.6797 40.4436C66.6411 40.0399 66.6218 39.617 66.6411 39.2134C66.6604 38.4253 66.7568 37.6756 66.9497 36.9068C67.0076 36.6761 67.0655 36.4647 67.1427 36.234C67.432 35.7343 67.1234 35.5613 66.2167 35.7343C66.1395 35.8688 66.4482 36.5992 66.4868 36.7338C66.6604 37.5411 66.699 38.3676 66.6218 39.1941C66.5832 39.5786 66.5446 40.828 66.1009 40.9241C64.6541 41.2701 65.2714 43.4998 66.7182 43.1538C68.2422 42.7886 68.6667 41.2509 68.8596 39.8861C69.0718 38.2715 68.9946 36.4455 68.3773 34.927C67.7793 33.4661 66.0238 33.4469 65.2521 34.7924C64.4805 36.1379 64.3068 38.0409 64.3261 39.5594C64.3454 40.7895 64.3647 42.9039 65.8501 43.346C67.4899 43.8265 68.0686 42.0582 68.2423 40.828C68.4737 39.2134 68.5316 37.5603 68.2615 35.9457C68.0686 34.754 67.297 32.4666 65.6572 32.9087C64.0754 33.3124 63.7667 36.061 63.6895 37.3681C63.5931 39.3287 64.0175 41.2701 63.8246 43.2307C64.5962 43.2307 65.3679 43.2307 66.1395 43.2307C66.0623 41.2893 65.9852 39.3479 65.8887 37.4065C65.8309 35.9265 65.5994 34.6194 64.3454 33.6968C63.9789 33.4085 63.2458 33.5238 62.9372 33.8698C61.664 35.3691 61.5675 37.2143 62.0112 39.0596C62.2427 40.0591 62.5706 41.0586 62.86 42.0389C63.1301 42.9616 63.2844 44.0764 63.786 44.8837C64.5769 46.1908 66.7761 45.8833 67.9143 45.2105C68.5123 44.8645 68.9174 44.2879 69.0718 43.6151C69.1682 43.1922 69.1296 43.0192 69.3997 42.6733C69.7084 42.2888 70.017 41.9813 70.2099 41.52C70.5379 40.7895 70.5572 39.9822 70.5958 39.2134C70.6344 38.2523 70.7308 37.272 70.7115 36.2917C70.6729 34.581 70.1135 32.9664 68.6281 31.9861C65.773 30.1024 62.1848 31.8515 60.8344 34.6963C59.2526 38.0601 60.5258 42.0389 63.4773 44.1918C64.6541 45.0952 65.8116 43.0961 64.6155 42.2312Z" fill="#EC615B"/>
<path d="M64.4998 47.3248C64.8856 47.9399 65.5801 48.1705 66.2746 47.9591C66.5832 47.863 66.8533 47.69 67.0848 47.4786C67.1427 47.4209 67.2199 47.3632 67.2777 47.2864C67.3356 47.2287 67.3163 47.2287 67.2391 47.3056C67.6057 47.1134 67.3163 47.0557 66.3903 47.0941C66.8533 47.4786 67.5864 47.5747 68.0301 47.0941C68.4352 46.6713 68.5124 45.8832 68.0301 45.4603C67.4706 44.9798 66.7569 44.9029 66.101 45.2873C65.8888 45.4027 65.6766 45.5757 65.5222 45.7679C65.3872 45.9409 65.6958 45.6525 65.4836 45.8063C65.5222 45.7871 65.5608 45.7679 65.5994 45.7679C65.1943 45.864 65.4836 45.9985 66.4675 46.1715C66.1395 45.6525 65.4258 45.4027 64.8856 45.7486C64.4033 46.0754 64.1525 46.7866 64.4998 47.3248Z" fill="#EC615B"/>
<path d="M65.0403 48.8435C65.0403 48.9011 65.0403 48.9588 65.0403 49.0165C65.0403 49.3048 65.1753 49.6316 65.3875 49.8238C65.5804 50.016 65.9084 50.1698 66.1978 50.1698C66.5064 50.1505 66.8151 50.0544 67.008 49.8238C67.2202 49.5931 67.3552 49.324 67.3552 49.0165C67.3552 48.9588 67.3552 48.9011 67.3552 48.8435C67.3552 48.5552 67.2202 48.2284 67.008 48.0362C66.8151 47.844 66.4871 47.6902 66.1978 47.6902C65.8891 47.7094 65.5804 47.8055 65.3875 48.0362C65.1753 48.2476 65.0403 48.5167 65.0403 48.8435Z" fill="#EC615B"/>
<path d="M53.581 27.5844C58.6546 21.568 63.516 15.3787 68.1844 9.01635C67.7407 9.18934 67.3163 9.36234 66.8726 9.55456C67.3163 9.68911 67.6443 9.91976 67.9722 10.2465C67.9144 9.78521 67.8565 9.32389 67.7986 8.84335C63.3423 15.1865 58.9054 21.5104 54.4491 27.8535C54.97 27.7189 55.5101 27.5844 56.031 27.4306C55.6451 27.2 55.2593 26.9693 54.8735 26.7194C55.0085 27.2384 55.1436 27.7766 55.2979 28.2956C57.3235 25.6622 59.1754 22.9328 60.8538 20.0688C61.6061 18.7809 59.5998 17.6276 58.8475 18.8962C57.1692 21.741 55.3172 24.4897 53.2916 27.1231C52.9058 27.6228 53.2337 28.4109 53.716 28.6993C54.1018 28.9299 54.4877 29.1606 54.8735 29.4104C55.4329 29.7564 56.1081 29.5066 56.4554 28.9876C60.9117 22.6445 65.3486 16.3206 69.8049 9.97743C70.0943 9.55455 69.9592 8.92024 69.6313 8.57425C69.0333 7.95916 68.3195 7.53629 67.5092 7.28641C66.9884 7.11341 66.5061 7.40174 66.1974 7.82461C61.664 14.014 56.9184 20.0495 51.9605 25.9121C50.996 27.0846 52.6357 28.7377 53.581 27.5844Z" fill="#EC615B"/>
<path d="M40.5981 92.9378C40.5981 92.8802 40.5981 92.8225 40.5981 92.7648C40.5981 91.2848 38.2832 91.2848 38.2832 92.7648C38.2832 92.8225 38.2832 92.8802 38.2832 92.9378C38.2832 94.4371 40.5981 94.4371 40.5981 92.9378C40.5981 92.8802 40.5981 92.8225 40.5981 92.7648C40.5981 91.2848 38.2832 91.2848 38.2832 92.7648C38.2832 92.8225 38.2832 92.8802 38.2832 92.9378C38.2832 94.4371 40.5981 94.4371 40.5981 92.9378Z" fill="#EC615B"/>
<path d="M22.117 76.8493C23.6024 76.8493 23.6024 74.5427 22.117 74.5427C20.6316 74.5427 20.6316 76.8493 22.117 76.8493Z" fill="#EC615B"/>
<path d="M27.345 77.8679C28.4639 77.8679 28.4639 76.1379 27.345 76.1379C26.2261 76.1379 26.2261 77.8679 27.345 77.8679Z" fill="#29739D"/>
<path d="M98.2403 33.9274C99.3592 33.9274 99.3592 32.1975 98.2403 32.1975C97.1214 32.1975 97.1214 33.9274 98.2403 33.9274Z" fill="#29739D"/>
<path d="M109.121 60.069C109.121 60.1843 109.121 60.2804 109.121 60.3957C109.121 60.6264 109.217 60.857 109.371 61.0108C109.526 61.1646 109.777 61.2799 109.989 61.2607C110.22 61.2415 110.452 61.1838 110.606 61.0108C110.76 60.8378 110.857 60.6264 110.857 60.3957C110.857 60.2804 110.857 60.1843 110.857 60.069C110.857 59.8383 110.76 59.6077 110.606 59.4539C110.452 59.3001 110.201 59.1848 109.989 59.204C109.757 59.2232 109.526 59.2809 109.371 59.4539C109.217 59.6269 109.121 59.8383 109.121 60.069Z" fill="#29739D"/>
<path d="M102.118 46.3445C105.397 46.8635 109.988 48.382 108.773 52.6492C108.214 54.6098 106.67 56.013 105.146 57.2624C103.642 58.4734 102.156 59.6651 100.787 61.0298C99.4747 62.3369 98.2787 63.7593 97.1791 65.2586C96.311 66.4503 95.1149 67.9304 95.25 69.5258C95.3657 70.9482 96.6197 71.2942 97.7578 71.7363C99.3976 72.3706 101.134 73.4854 101.77 75.1961C102.619 77.5027 100.844 79.5402 99.1661 80.9049C97.6614 82.1351 96.0216 83.1923 94.9992 84.8838C94.8063 85.2106 95.3079 85.4989 95.5008 85.1721C97.3334 82.0967 102.002 80.8665 102.523 76.9838C102.735 75.4652 102.04 74.0428 100.941 73.0241C100.401 72.5051 99.7641 72.0822 99.1082 71.717C98.3173 71.2942 97.3913 71.1212 96.6196 70.6791C94.459 69.4297 97.1598 66.2389 98.0858 65.0279C99.4169 63.2788 100.902 61.6641 102.542 60.2033C105.166 57.8198 109.275 55.7055 109.564 51.7266C109.853 47.6901 105.513 46.3253 102.311 45.8256C101.905 45.7295 101.751 46.2869 102.118 46.3445Z" fill="#161616"/>
<path d="M45.1317 45.7296C41.6979 49.9391 37.8204 53.7642 33.5377 57.1088C29.3322 60.3957 24.7602 63.0098 20.111 65.6047C15.8284 68.0074 11.5072 70.4678 7.84183 73.7931C6.20208 75.2732 4.38871 77.0031 3.46273 79.0599C2.74895 80.6552 2.69108 82.7312 4.52374 83.5577C5.52689 83.9998 6.70365 83.846 7.74538 83.673C9.443 83.3847 11.1213 83.0195 12.7997 82.6927C14.5166 82.366 16.2335 82.02 17.9504 81.6932C19.5902 81.3857 22.6575 81.0973 22.7346 83.5385C22.7539 83.9037 23.3327 83.9037 23.3134 83.5385C23.2362 81.2703 20.8055 80.6937 18.9343 80.9243C16.0792 81.2896 13.2627 82.0008 10.4269 82.539C8.43986 82.9234 3.13478 84.5188 3.5206 80.7321C3.77139 78.291 6.08633 76.1766 7.76467 74.5812C11.3142 71.2367 15.5776 68.7571 19.8217 66.3736C24.2779 63.8748 28.7149 61.4144 32.8047 58.339C37.5117 54.783 41.7751 50.6695 45.4983 46.114C45.7683 45.8449 45.3632 45.4413 45.1317 45.7296Z" fill="#161616"/>
<path d="M14.4397 85.2106C12.742 87.248 10.755 89.6507 11.0637 92.4763C11.2952 94.6483 12.8578 96.6858 15.2113 96.532C16.716 96.4359 18.0471 95.6094 19.3589 94.9751C20.9987 94.187 22.677 93.4758 24.4132 92.9568C26.1301 92.4571 27.9242 92.1303 29.7183 92.0919C31.1459 92.0726 32.7663 92.1687 33.9624 93.0529C35.7757 94.36 34.6569 96.3206 33.6923 97.7814C32.747 99.1846 31.9175 100.626 31.1844 102.145C30.5285 103.529 29.9498 104.97 29.4868 106.431C29.1396 107.527 28.7344 108.815 29.5833 109.776C31.3966 111.871 34.1553 110.083 35.6793 108.661C38.0135 106.489 40.5407 104.682 43.4536 103.336C46.7139 101.837 50.2634 100.953 53.8323 100.761C55.6457 100.665 57.4784 100.722 59.2724 101.011C60.8736 101.261 62.6677 101.76 63.4201 103.356C63.5744 103.682 64.076 103.394 63.9216 103.067C62.8799 100.818 60.0248 100.472 57.8256 100.261C54.9512 99.9919 52.0189 100.203 49.2024 100.818C46.3859 101.434 43.6273 102.472 41.1194 103.894C39.8848 104.586 38.7273 105.374 37.6084 106.239C36.3545 107.219 35.2935 108.43 34.0202 109.334C32.8821 110.141 30.4514 110.737 29.7762 108.968C29.4482 108.103 29.8726 107.104 30.1427 106.258C30.4321 105.374 30.76 104.509 31.1266 103.663C31.7632 102.164 32.5155 100.722 33.3643 99.3384C34.1167 98.1274 35.2356 96.8972 35.5057 95.4556C35.9494 93.1106 33.6344 91.8996 31.6474 91.6113C28.6959 91.2077 25.5707 91.8804 22.7928 92.8799C21.0951 93.495 19.494 94.2831 17.8735 95.0712C16.1952 95.8977 14.1117 96.532 12.6842 94.8982C10.022 91.8612 12.8192 88.0361 14.8448 85.595C15.0956 85.3259 14.6904 84.9222 14.4397 85.2106Z" fill="#161616"/>
<path d="M25.5319 94.9367C27.3452 94.3601 28.9464 96.1285 28.985 97.8392C29.0236 99.646 27.8275 101.203 26.6315 102.433C26.3614 102.702 26.7858 103.106 27.0366 102.837C28.5027 101.338 30.0267 99.2039 29.448 96.9742C28.985 95.2251 27.2102 93.8027 25.3775 94.3793C25.0303 94.4946 25.1653 95.0521 25.5319 94.9367Z" fill="#161616"/>
<path d="M92.9162 45.3451C93.8036 46.0755 94.8453 46.2293 95.9449 46.4599C97.141 46.7098 98.1827 47.1711 99.0122 48.0938C100.575 49.8429 101.057 52.4763 99.8996 54.5522C99.726 54.879 100.208 55.1673 100.401 54.8406C101.52 52.8415 101.289 50.3811 100.054 48.4974C99.4752 47.6132 98.665 46.8444 97.6811 46.3831C96.2922 45.7295 94.556 45.941 93.3213 44.9414C93.032 44.7108 92.6268 45.1144 92.9162 45.3451Z" fill="#161616"/>
<path d="M22.1752 86.287C23.2748 89.2278 26.7665 88.4782 28.9078 87.3249C30.2775 86.5945 31.5507 85.6527 32.6696 84.5762C33.8656 83.4037 34.8302 82.0198 36.007 80.8281C37.2995 79.521 39.1128 78.3293 41.0613 78.656C42.8168 78.9443 43.8778 80.5013 44.9967 81.693C46.4628 83.2307 49.4143 84.8069 50.8998 82.3658C51.0927 82.039 50.5911 81.7507 50.3982 82.0775C49.4529 83.6152 47.4466 83.077 46.2892 82.1543C45.2474 81.3086 44.4951 80.1553 43.4727 79.2903C41.5435 77.6373 39.1321 77.7911 37.0873 79.175C34.8302 80.6935 33.4605 83.2115 31.3964 84.9607C30.181 85.9794 28.7728 86.9213 27.268 87.4787C25.6669 88.0746 23.4291 88.0361 22.7346 86.1524C22.5996 85.7872 22.0401 85.941 22.1752 86.287Z" fill="#161616"/>
<path d="M26.9984 68.3725C29.4677 70.5061 31.5318 73.0433 33.133 75.8881C33.3066 76.2149 33.8082 75.9265 33.6346 75.5998C32.0141 72.6973 29.9307 70.1408 27.4035 67.9688C27.1334 67.7189 26.709 68.1418 26.9984 68.3725Z" fill="#161616"/>
<path d="M27.4995 67.7573C29.5829 65.0086 32.5345 62.2023 35.814 60.9529C36.3349 60.7607 36.9329 60.5877 37.4923 60.7222C38.1868 60.876 38.5919 61.4719 38.9971 62.0101C39.5758 62.7597 40.1352 63.5286 40.6947 64.2974C41.7943 65.8352 42.836 67.4306 43.8199 69.0452C44.0128 69.3527 44.5144 69.0644 44.3215 68.7569C43.0868 66.7386 41.7557 64.7588 40.3475 62.8558C39.2864 61.4142 38.3219 59.7227 36.2577 60.2032C34.4636 60.6261 32.7467 61.9332 31.3384 63.0288C29.6987 64.3167 28.2518 65.8159 26.9786 67.469C26.7857 67.7573 27.2873 68.0457 27.4995 67.7573Z" fill="#161616"/>
<path d="M33.4797 76.1379C37.4151 74.4848 40.9261 72.0629 43.8391 68.9489C44.0899 68.6798 43.6848 68.2762 43.434 68.5453C40.5982 71.5823 37.1643 73.985 33.3254 75.5804C32.9781 75.7342 33.1325 76.2916 33.4797 76.1379Z" fill="#161616"/>
<path d="M29.7375 68.1418C31.9367 66.162 34.3867 64.5282 37.0874 63.2788C37.4154 63.125 37.126 62.6253 36.7981 62.779C34.0587 64.0477 31.5701 65.7199 29.3324 67.7382C29.043 67.9689 29.4674 68.3917 29.7375 68.1418Z" fill="#161616"/>
<path d="M31.3383 69.1029C32.5344 68.2379 33.7304 67.3921 34.9265 66.5272C35.2351 66.3157 34.9458 65.816 34.6371 66.0274C33.4411 66.8924 32.245 67.7381 31.049 68.6031C30.7403 68.8338 31.0297 69.3335 31.3383 69.1029Z" fill="#161616"/>
<path d="M32.1489 70.4292C34.1551 69.0261 36.1614 67.6037 38.1677 66.2005C38.4764 65.9891 38.187 65.4893 37.8783 65.7007C35.8721 67.1039 33.8658 68.5263 31.8595 69.9295C31.5508 70.1409 31.8402 70.6407 32.1489 70.4292Z" fill="#161616"/>
<path d="M33.8465 72.0054C35.0811 71.0059 36.3736 70.1217 37.724 69.2952C38.0519 69.103 37.7433 68.6032 37.4346 68.7954C36.0264 69.622 34.6953 70.5638 33.4413 71.5826C33.152 71.8324 33.5571 72.2361 33.8465 72.0054Z" fill="#161616"/>
<path d="M34.7334 73.5815C36.5468 72.1014 38.5145 70.8713 40.6172 69.8525C40.9452 69.6987 40.6558 69.199 40.3279 69.3528C38.1673 70.3907 36.1803 71.6786 34.3283 73.1778C34.0389 73.4085 34.4441 73.8121 34.7334 73.5815Z" fill="#161616"/>
<path d="M74.3969 85.6527C75.3422 84.461 74.2233 83.0002 72.9694 82.6542C71.4647 82.2313 69.7477 82.9425 68.9954 84.288C68.1465 85.7873 68.4938 87.7479 69.5934 89.0165C71.0017 90.6695 74.667 91.6691 74.0111 94.3985C73.9147 94.7637 74.4741 94.9175 74.5706 94.5523C75.3229 91.4384 71.5611 90.4773 69.9985 88.6129C68.8989 87.2866 68.706 85.0569 70.095 83.8459C70.6544 83.3654 71.4454 83.0771 72.1784 83.1155C73.0465 83.1539 74.9178 84.0958 74.0111 85.2683C73.7603 85.5374 74.1654 85.9411 74.3969 85.6527Z" fill="#161616"/>
<path d="M74.7055 85.5373C74.8598 84.4993 75.3421 83.5767 76.1137 82.8655C76.4803 82.5195 76.9047 82.2504 77.3677 82.0389C77.5992 81.9428 77.85 81.8467 78.1008 81.7891C78.6409 81.6737 78.7567 81.6737 79.2004 82.0582C79.6441 82.4618 79.6633 82.5771 79.6441 83.1346C79.6441 83.346 79.6055 83.5574 79.5862 83.7497C79.5283 84.1341 79.4126 84.4993 79.2775 84.8645C78.9882 85.6526 78.5445 86.383 78.0815 87.075C76.4224 89.5354 74.0496 91.7843 73.9145 94.9174C73.8952 95.2826 74.474 95.2826 74.4933 94.9174C74.6669 90.7079 79.046 88.2859 80.0492 84.3647C80.2421 83.6151 80.3964 82.654 80.0685 81.9236C79.6634 81.0779 78.7759 81.0394 77.9657 81.2316C75.998 81.6929 74.4933 83.4037 74.1846 85.3835C74.0882 85.7487 74.6476 85.9217 74.7055 85.5373Z" fill="#161616"/>
<path d="M77.9849 56.5128C77.6377 58.3773 77.5605 60.3379 77.9849 62.2024C78.39 63.99 79.6825 63.6056 81.168 63.7017C84.5439 63.9323 89.0195 66.0659 91.238 62.2601C91.4309 61.9333 90.9293 61.645 90.7364 61.9717C88.8459 65.2202 84.8719 63.6248 81.9782 63.2211C81.303 63.125 80.6664 63.125 79.9912 63.1442C78.9495 63.1442 78.6408 62.6445 78.4865 61.7218C78.1971 60.0496 78.2357 58.3581 78.5636 56.6858C78.6022 56.3014 78.0428 56.1476 77.9849 56.5128Z" fill="#161616"/>
<path d="M78.062 57.4354C79.1037 56.8011 80.0104 56.6858 81.1871 56.4935C81.6887 56.4167 82.0166 56.2244 82.0938 55.7055C82.306 54.3984 81.7466 53.0529 82.7883 51.938C83.9458 50.6886 85.5084 51.8035 85.9906 53.0721C86.2221 53.668 86.3572 54.3599 86.8202 54.8405C87.4182 55.4748 88.2091 55.3018 88.9615 55.5132C91.8744 56.3013 91.0063 60.0495 90.389 62.0678C90.2733 62.4138 90.8327 62.5676 90.9485 62.2216C91.6044 60.1264 92.2603 57.5123 90.5048 55.7631C90.2154 55.4748 89.8874 55.2441 89.5209 55.0904C88.9615 54.8597 88.3442 54.975 87.7654 54.7636C86.6465 54.3599 86.6658 52.7069 85.9906 51.8611C84.7753 50.3619 82.6918 50.5733 81.8623 52.3225C81.6308 52.803 81.5537 53.3028 81.5151 53.8217C81.4765 54.4368 81.7659 55.667 81.11 55.9169C80.647 56.1091 79.9332 56.0322 79.4316 56.186C78.8336 56.359 78.2934 56.6281 77.7726 56.9356C77.4639 57.1471 77.7533 57.6468 78.062 57.4354Z" fill="#161616"/>
<path d="M80.357 56.8396C80.0677 59.1077 80.4535 61.3566 81.4566 63.4133C81.6109 63.7401 82.1124 63.4518 81.9581 63.125C80.9936 61.1644 80.6464 59.0116 80.9357 56.8396C80.9936 56.4744 80.4149 56.4744 80.357 56.8396Z" fill="#161616"/>
<path d="M61.799 44.0572C59.3104 42.9039 57.825 40.2321 57.96 37.5026C58.1144 34.7155 60.0049 32.1782 62.4163 30.8519C63.921 30.0254 65.5222 29.7755 67.0462 30.6597C68.4352 31.4478 69.419 32.8125 69.9785 34.2734C70.9816 36.926 70.6151 39.9437 69.0332 42.308C68.821 42.6155 69.3226 42.9039 69.5348 42.5963C72.1584 38.6943 71.5604 31.9091 66.7568 29.8909C64.3454 28.8721 61.7797 30.2368 60.0435 31.9283C58.3459 33.5814 57.2463 35.9456 57.3813 38.3291C57.5356 40.9625 59.0789 43.4421 61.4903 44.5761C61.8376 44.7107 62.1269 44.2109 61.799 44.0572Z" fill="#161616"/>
<path d="M61.5292 44.7494C61.0277 45.2876 61.1627 46.1141 61.78 46.5178C62.7831 47.1713 64.5193 46.5754 65.5804 46.3255C66.7185 46.0564 68.4355 45.8066 69.2071 44.807C69.6701 44.1919 69.6701 43.3462 69.0721 42.8272C68.7827 42.5965 68.3776 43.0002 68.6669 43.2308C69.5543 43.9805 68.3969 44.8455 67.7024 45.1146C67.1236 45.326 66.5256 45.499 65.9276 45.6528C65.3682 45.7873 64.8087 45.9219 64.2493 46.018C63.902 46.0757 63.5162 46.1718 63.169 46.191C62.6674 46.2102 61.2206 45.9411 61.9536 45.1722C62.2044 44.8839 61.7993 44.4802 61.5292 44.7494Z" fill="#161616"/>
<path d="M62.6482 46.8058C62.7253 47.9398 63.6899 48.6703 64.8088 48.7472C66.3521 48.8433 67.5096 47.5554 68.4162 46.4982C68.6477 46.2099 68.2426 45.8062 68.0111 46.0946C67.3745 46.8442 66.6607 47.7092 65.7155 48.036C64.7509 48.3819 63.3234 47.9975 63.2462 46.8058C63.2076 46.4405 62.6289 46.4405 62.6482 46.8058Z" fill="#161616"/>
<path d="M64.211 48.9586C64.0566 49.7467 64.5389 50.5732 65.3684 50.7077C66.2172 50.8423 66.9503 50.0927 66.9696 49.2853C66.9696 48.9201 66.3909 48.9201 66.3909 49.2853C66.3909 49.7659 65.9279 50.2464 65.407 50.1311C64.9633 50.035 64.674 49.5352 64.7704 49.1124C64.8476 48.7471 64.2881 48.5934 64.211 48.9586Z" fill="#161616"/>
<path d="M60.2558 36.7915C61.9149 37.8487 63.1881 39.3287 63.9983 41.1163C64.1527 41.4623 64.6542 41.1548 64.4999 40.828C63.6511 38.9443 62.3007 37.4066 60.5452 36.2918C60.2173 36.0996 59.9279 36.5993 60.2558 36.7915Z" fill="#161616"/>
<path d="M63.2266 35.3882C63.5931 38.1561 63.9789 40.924 64.3455 43.6727C64.4034 44.0379 64.9435 43.8841 64.9049 43.5189C64.5384 40.751 64.1526 37.9831 63.786 35.2345C63.7282 34.8693 63.188 35.023 63.2266 35.3882Z" fill="#161616"/>
<path d="M64.23 40.0975C64.7316 38.2907 65.889 36.8298 67.5288 35.9072C67.8568 35.7342 67.5674 35.2345 67.2394 35.4074C65.4839 36.3877 64.2107 38.0024 63.6706 39.9437C63.5741 40.3089 64.1335 40.4627 64.23 40.0975Z" fill="#161616"/>
<path d="M43.2025 89.5163C43.9741 91.1886 44.8036 92.8416 45.7296 94.437C46.1926 95.2251 46.8099 96.7244 47.9481 96.2438C48.2953 96.0901 47.9867 95.6095 47.6587 95.7441C46.9257 96.0516 45.6139 93.0723 45.3631 92.5917C44.7651 91.4961 44.2249 90.362 43.704 89.228C43.5497 88.882 43.0481 89.1703 43.2025 89.5163Z" fill="#161616"/>
<path d="M43.7237 89.8622C45.3634 88.5935 46.9646 87.2865 48.6237 86.0563C50.0705 84.9607 51.6331 83.9035 53.4079 83.4037C55.3177 82.8463 56.9768 83.2884 58.25 84.8261C59.3303 86.1332 59.9862 87.7478 60.7193 89.2471C60.8736 89.5738 61.3752 89.2855 61.2208 88.9587C59.8126 86.0755 58.1535 82.0005 54.1988 82.6349C52.2311 82.9424 50.4563 84.0188 48.8552 85.1721C46.9646 86.556 45.1512 88.0361 43.2993 89.4777C43.0292 89.6892 43.4343 90.0928 43.7237 89.8622Z" fill="#161616"/>
<path d="M47.1574 96.3015C52.1924 95.2058 56.8609 92.8608 60.777 89.5162C61.0663 89.2663 60.6419 88.8627 60.3719 89.1126C56.5329 92.3995 51.9416 94.6676 47.003 95.7632C46.6365 95.8401 46.7908 96.3976 47.1574 96.3015Z" fill="#161616"/>
<path d="M51.8449 90.8808C50.8225 90.631 49.9737 89.6314 50.2244 88.5358C50.4559 87.4786 51.7485 86.7098 52.7709 87.2095C54.8351 88.2475 53.4268 91.2076 51.3048 90.458C50.9575 90.3426 50.8032 90.9001 51.1504 91.0154C52.3465 91.4383 53.7933 90.8616 54.2563 89.6507C54.7193 88.4589 53.967 87.0173 52.7902 86.5944C51.517 86.1331 50.0701 86.9981 49.7036 88.2667C49.2792 89.6891 50.3209 91.0923 51.6906 91.4383C52.0571 91.5344 52.2115 90.9769 51.8449 90.8808Z" fill="#161616"/>
<path d="M62.1272 76.2919C61.8957 74.2352 61.8764 71.8901 64.3264 71.3327C65.5611 71.0444 66.5835 70.6792 67.2973 69.5451C68.0303 68.3918 67.9339 67.3154 67.6445 66.0468C67.4323 65.0472 67.4516 64.1823 68.2618 63.4326C68.9177 62.8367 69.7858 62.6061 70.6346 62.8752C70.9819 62.9905 71.1362 62.4331 70.789 62.3178C69.5543 61.9333 68.2618 62.4139 67.4709 63.4326C66.2555 65.028 67.6831 66.6426 67.2008 68.3533C66.9114 69.3721 66.1205 70.2371 65.0981 70.5831C64.2686 70.8522 63.3812 70.8329 62.6867 71.4096C61.2205 72.6013 61.3556 74.6196 61.5485 76.2919C61.5871 76.6571 62.1658 76.6571 62.1272 76.2919Z" fill="#161616"/>
<path d="M57.4204 65.5277C56.8224 65.0471 57.3047 63.9707 58.0763 64.3744C58.385 64.5282 58.5779 64.8934 58.4043 65.2201C58.2306 65.5469 57.7869 65.7199 57.459 65.5469C57.131 65.3739 56.8417 65.8737 57.1696 66.0467C57.7676 66.335 58.5007 66.1236 58.8673 65.5854C59.2531 65.0087 59.0023 64.2783 58.4428 63.9323C57.8834 63.5863 57.131 63.6824 56.7645 64.2591C56.4366 64.7973 56.5137 65.5469 57.0153 65.9506C57.3047 66.162 57.7098 65.7583 57.4204 65.5277Z" fill="#161616"/>
<path d="M83.8113 35.7342C83.464 35.1768 83.2518 34.4656 83.464 33.8313C83.6376 33.2931 84.1778 32.9663 84.7372 33.024C85.3546 33.0817 85.6825 33.6583 85.3546 34.1965C85.0652 34.6963 84.4672 34.9461 83.9077 34.8693C83.5412 34.8308 83.5412 35.4075 83.9077 35.4459C84.7372 35.542 85.6439 35.0423 85.9526 34.2542C86.242 33.543 85.8754 32.7549 85.1423 32.5242C84.4479 32.2936 83.599 32.5627 83.1746 33.1586C82.538 34.0235 82.7888 35.196 83.3097 36.061C83.5026 36.3301 84.0042 36.0418 83.8113 35.7342Z" fill="#161616"/>
<path d="M52.6939 59.2999C53.7356 61.1836 55.8576 62.2408 57.999 61.9332C60.6226 61.5488 62.0308 59.5498 63.0726 57.3201C64.2879 54.7444 65.9662 52.63 68.6477 51.4959C71.0784 50.4772 74.2229 50.9961 76.2292 49.0932C77.0008 48.3628 77.5217 47.344 77.3481 46.2676C77.213 45.4411 76.7115 44.7491 76.9044 43.8842C77.1359 42.9423 77.8689 42.2503 78.7949 42.0581C79.1614 41.9812 79.0071 41.4238 78.6406 41.5007C77.5217 41.7505 76.615 42.5963 76.3449 43.7304C76.1906 44.3455 76.3063 44.9029 76.4993 45.4988C76.8079 46.4598 76.9237 47.2479 76.2871 48.1321C75.1682 49.6891 73.2005 49.9005 71.445 50.1504C69.8824 50.381 68.4162 50.8039 67.0658 51.6112C65.8698 52.3224 64.8088 53.2835 63.9793 54.3984C63.0726 55.6285 62.571 57.0702 61.8379 58.3965C60.9119 60.0303 59.3879 61.2797 57.4395 61.395C55.6647 61.4911 54.0057 60.5493 53.1376 58.9923C53.0218 58.6848 52.5203 58.9731 52.6939 59.2999Z" fill="#161616"/>
<path d="M48.6626 27.7767C48.3347 30.1794 48.0067 32.5821 47.698 34.9848C47.6402 35.35 48.1996 35.5038 48.2575 35.1386C48.5854 32.7359 48.9134 30.3331 49.2221 27.9304C49.2799 27.5652 48.7205 27.4115 48.6626 27.7767Z" fill="#161616"/>
<path d="M48.5654 35.3112C50.8417 33.6774 53.1181 32.0436 55.3944 30.4097C55.7031 30.1983 55.4137 29.6985 55.1051 29.91C52.8287 31.5438 50.5524 33.1776 48.276 34.8115C47.9673 35.0229 48.2567 35.5227 48.5654 35.3112Z" fill="#161616"/>
<path d="M49.0284 28.1033C54.7386 20.4723 60.3524 12.7837 65.8697 5.01819C66.0819 4.71065 65.5803 4.42233 65.3681 4.72987C59.8508 12.4954 54.2371 20.2032 48.5269 27.815C48.3147 28.1033 48.8162 28.3916 49.0284 28.1033Z" fill="#161616"/>
<path d="M56.1085 29.5449C61.3557 22.6251 66.4486 15.59 71.3872 8.43958C71.5994 8.13204 71.0978 7.84371 70.8856 8.15126C65.9471 15.2825 60.8542 22.3368 55.607 29.2566C55.3755 29.5449 55.877 29.8332 56.1085 29.5449Z" fill="#161616"/>
<path d="M65.6963 5.01818C66.603 3.32668 67.664 1.26998 69.6703 0.712554C71.6573 0.15513 73.6057 1.65441 73.6443 3.71111C73.6443 4.07632 74.223 4.07632 74.223 3.71111C74.2037 1.73129 72.5254 -0.0563067 70.4805 0.00135789C67.799 0.078244 66.2943 2.63471 65.1947 4.72985C65.0211 5.05662 65.5226 5.34494 65.6963 5.01818Z" fill="#161616"/>
<path d="M71.5025 8.38217C72.4864 6.92133 73.3738 5.42205 74.1647 3.84588C74.3383 3.51912 73.8368 3.23079 73.6631 3.55756C72.8722 5.13373 71.9848 6.63301 71.0009 8.09385C70.808 8.38217 71.3096 8.68971 71.5025 8.38217Z" fill="#161616"/>
<path d="M65.2719 5.96015C67.4904 4.46087 70.3648 5.26818 71.4643 7.69009C71.6187 8.03608 72.1202 7.72854 71.9659 7.40177C70.7313 4.69153 67.4325 3.78812 64.9825 5.4604C64.6739 5.67183 64.9633 6.17159 65.2719 5.96015Z" fill="#161616"/>
<path d="M64.2495 7.69005C66.1786 6.45987 69.0144 7.26718 69.9018 9.42C70.0368 9.76598 70.5963 9.61221 70.4612 9.26623C69.4195 6.80586 66.2365 5.74868 63.9601 7.19029C63.6514 7.40173 63.9408 7.90149 64.2495 7.69005Z" fill="#161616"/>
<path d="M48.6817 28.3724C49.7427 29.0067 50.8037 27.6228 51.9033 27.642C52.7329 27.6612 53.5045 28.0456 53.9868 28.7376C54.334 29.2374 54.5076 29.7179 55.0671 30.0062C55.395 30.1792 55.6844 29.6795 55.3564 29.5065C54.7006 29.1605 54.5076 28.3147 53.9482 27.8342C53.5624 27.5074 53.0994 27.2768 52.5978 27.1614C52.0963 27.0461 51.5754 27.0461 51.0931 27.1614C50.4758 27.3152 49.5691 28.2186 48.9904 27.8726C48.6624 27.6804 48.3731 28.1802 48.6817 28.3724Z" fill="#161616"/>
<path d="M51.8451 27.3344C55.7419 22.2215 59.658 17.0893 63.5548 11.9764C63.7863 11.688 63.2847 11.3997 63.0532 11.688C59.1564 16.801 55.2403 21.9331 51.3435 27.0461C51.1313 27.3344 51.6329 27.6227 51.8451 27.3344Z" fill="#161616"/>
<path d="M57.9602 23.4903C61.587 18.1851 65.4259 13.053 69.4964 8.07462C69.7279 7.78629 69.3228 7.38264 69.0913 7.67097C65.0015 12.6878 61.1047 17.8584 57.4587 23.202C57.2658 23.5095 57.7673 23.7978 57.9602 23.4903Z" fill="#161616"/>
<path d="M48.45 33.4853C48.8165 33.1777 49.3567 33.4853 49.2602 33.9658C49.1831 34.331 49.7425 34.4848 49.8197 34.1196C49.9161 33.6583 49.7425 33.1777 49.3181 32.9279C48.8937 32.678 48.3921 32.7741 48.0256 33.0816C47.7555 33.3123 48.1606 33.7159 48.45 33.4853Z" fill="#161616"/>
<path d="M48.6234 33.4085C48.527 33.8121 48.3534 34.1773 48.1026 34.5041C48.2569 34.6002 48.4305 34.6963 48.5848 34.7924C48.7006 34.3695 48.9321 34.0043 49.26 33.6968C49.1057 33.6776 48.9514 33.6583 48.7971 33.6391C48.8935 33.8506 48.8163 34.0812 48.6234 34.1965C48.7585 34.2542 48.9128 34.3119 49.0478 34.3695C48.9707 34.1004 49.0286 33.8506 49.2022 33.6391C49.0864 33.6583 48.9707 33.6776 48.8549 33.6776C49.0093 33.7544 48.99 33.9659 48.8356 34.0428C48.9514 34.062 49.0671 34.0812 49.1829 34.0812C49.0671 33.9851 48.9707 33.8698 48.9128 33.7352C48.8935 33.6776 48.8742 33.6199 48.8549 33.543C48.8549 33.5046 48.8163 33.1009 48.7585 33.2162C48.5849 33.543 49.0864 33.8313 49.26 33.5046C49.5301 33.0048 48.8356 32.5627 48.4498 32.9664C48.0447 33.4085 48.4112 34.1389 48.7971 34.4656C48.8935 34.5618 49.0286 34.581 49.1443 34.5041C49.6845 34.235 49.6845 33.4277 49.1636 33.1394C49.0671 33.0817 48.8935 33.0817 48.8163 33.1778C48.5077 33.543 48.3919 34.0043 48.5077 34.4656C48.5463 34.6386 48.7778 34.7347 48.9321 34.6386C49.4144 34.3503 49.5494 33.7737 49.3179 33.2931C49.2408 33.1201 48.99 33.1201 48.8549 33.2355C48.4498 33.6007 48.1797 34.062 48.0447 34.581C47.9675 34.8308 48.3341 35.0999 48.527 34.8693C48.8356 34.4656 49.0671 34.0235 49.2022 33.5238C49.2793 33.197 48.7199 33.0433 48.6234 33.4085Z" fill="#161616"/>
<path d="M47.5431 36.4264C47.1572 38.5023 46.2891 40.4052 44.9195 42.0198C44.688 42.3081 45.0931 42.7118 45.3246 42.4235C46.7521 40.7128 47.6974 38.7522 48.1025 36.5609C48.1604 36.2149 47.6009 36.0612 47.5431 36.4264Z" fill="#161616"/>
<path d="M43.5116 38.8289C41.5053 40.309 39.3833 41.6353 37.1841 42.8078C36.8561 42.9808 37.1455 43.4805 37.4734 43.3075C39.6726 42.135 41.7947 40.8087 43.8009 39.3287C44.1096 39.098 43.8202 38.5983 43.5116 38.8289Z" fill="#161616"/>
<path d="M90.6009 82.7695C90.08 81.9622 89.2119 82.3851 88.7489 83.0002C88.2473 83.6345 87.8422 84.3841 87.4178 85.0761C87.0899 85.6143 86.704 86.2102 86.6462 86.883C86.5304 88.2285 87.5529 88.3822 88.5753 88.709C89.7906 89.1127 89.7135 90.5351 88.9418 91.3231C88.3245 91.9575 87.4178 92.2266 86.6076 92.4957C86.2604 92.611 86.4147 93.1684 86.7619 93.0531C88.3824 92.5341 90.7938 91.3616 89.9643 89.2088C89.8292 88.8628 89.5977 88.5745 89.2891 88.3822C89.1154 88.2861 88.9225 88.2092 88.7296 88.1516C88.1702 87.9786 88.0159 88.0363 87.5722 87.5557C87.2056 87.3443 87.0899 87.0559 87.2635 86.6715C87.3407 86.4024 87.4371 86.1525 87.5722 85.9219C87.7265 85.6143 87.9194 85.326 88.1123 85.0377C88.3052 84.7493 89.6556 82.3274 90.0993 83.0386C90.2922 83.3654 90.7938 83.0771 90.6009 82.7695Z" fill="#161616"/>
<path d="M57.478 105.393C59.0599 104.99 60.4103 106.546 59.7158 108.046C59.5615 108.372 60.063 108.68 60.2174 108.334C61.1241 106.393 59.4457 104.298 57.3429 104.836C56.9571 104.932 57.1114 105.489 57.478 105.393Z" fill="#161616"/>
<path d="M87.0324 73.7353C86.2993 73.1971 86.2993 71.7939 87.4182 71.7554C87.8233 71.7362 88.2477 71.9669 88.2285 72.409C88.2285 72.7742 87.9005 73.2163 87.4954 73.1586C87.1289 73.101 86.9745 73.6584 87.3411 73.716C88.0548 73.8314 88.6722 73.3124 88.7879 72.6204C88.9229 71.9092 88.4021 71.2941 87.7076 71.198C86.9938 71.0827 86.2607 71.4863 86.01 72.1783C85.7592 72.9472 86.1064 73.7737 86.743 74.235C87.0324 74.4465 87.3218 73.9467 87.0324 73.7353Z" fill="#161616"/>
<path d="M6.3948 71.3518C6.66488 70.2754 7.59085 69.6603 8.45896 69.0644C9.36565 68.4301 10.2916 67.7765 11.2176 67.1422C13.0503 65.8544 14.8829 64.5858 16.7156 63.2979C17.0243 63.0865 16.7349 62.5867 16.4262 62.7982C14.2849 64.2974 12.1436 65.7775 10.0023 67.2768C8.55542 68.2763 6.29834 69.3335 5.83535 71.198C5.73889 71.5632 6.29834 71.717 6.3948 71.3518Z" fill="#161616"/>
<path d="M135.82 172.4C112.381 168.402 88.9422 164.403 65.5034 160.405C79.7403 154.677 93.9773 148.969 108.214 143.24C130.476 148.18 152.738 153.12 174.981 158.06C161.94 162.846 148.88 167.613 135.82 172.4Z" fill="white" stroke="#161616" stroke-width="3" stroke-miterlimit="10"/>
<path d="M134.855 172.688C134.933 172.919 134.99 173.169 135.068 173.399C135.164 173.707 135.627 173.649 135.627 173.322C135.627 173.13 135.627 172.957 135.627 172.765C135.627 172.4 135.048 172.4 135.048 172.765C135.048 172.996 135.01 173.207 134.913 173.418C135.106 173.418 135.28 173.418 135.473 173.418C135.396 173.169 135.376 172.938 135.434 172.669C135.261 172.688 135.087 172.707 134.913 172.746C134.971 172.803 134.971 172.842 134.933 172.899C135.106 172.919 135.28 172.938 135.453 172.976C135.415 172.842 135.434 172.726 135.511 172.611C135.338 172.553 135.145 172.515 134.971 172.457C134.933 172.765 134.894 173.053 134.855 173.361C134.836 173.515 135.01 173.649 135.145 173.649C135.318 173.649 135.415 173.515 135.434 173.361C135.473 173.053 135.511 172.765 135.55 172.457C135.588 172.169 135.145 172.092 135.01 172.304C134.855 172.553 134.817 172.842 134.894 173.13C134.952 173.38 135.299 173.399 135.415 173.207C135.569 172.976 135.569 172.688 135.396 172.477C135.261 172.304 134.913 172.284 134.875 172.553C134.798 172.899 134.817 173.265 134.913 173.611C135.01 173.899 135.376 173.861 135.473 173.611C135.569 173.342 135.627 173.072 135.627 172.803C135.434 172.803 135.241 172.803 135.048 172.803C135.048 172.996 135.048 173.169 135.048 173.361C135.241 173.342 135.434 173.303 135.608 173.284C135.531 173.053 135.473 172.803 135.396 172.573C135.318 172.169 134.759 172.323 134.855 172.688Z" fill="#161616"/>
<path d="M135.299 174.072C138.405 172.476 141.8 171.631 145.138 170.689C146.777 170.228 148.398 169.728 149.96 169.074C151.465 168.459 152.912 167.69 154.397 166.998C157.696 165.461 161.265 164.461 164.718 163.327C168.306 162.135 171.875 160.944 175.463 159.771C175.811 159.656 175.656 159.098 175.309 159.214C171.721 160.405 168.152 161.597 164.564 162.77C161.169 163.884 157.677 164.884 154.417 166.364C152.719 167.133 151.06 168.036 149.324 168.709C147.742 169.324 146.121 169.805 144.482 170.266C141.26 171.189 138 172.034 134.99 173.572C134.682 173.745 134.971 174.245 135.299 174.072Z" fill="#161616"/>
<path d="M135.569 173.957C148.899 169.363 162.19 164.711 175.482 159.982C176.524 159.617 176.08 157.945 175.019 158.31C161.747 163.039 148.436 167.69 135.106 172.284C134.064 172.649 134.508 174.322 135.569 173.957Z" fill="#161616"/>
<path d="M134.064 155.389C136.572 155.639 138.713 157.157 141.183 157.638C141.549 157.714 141.704 157.157 141.337 157.08C138.829 156.58 136.649 155.062 134.064 154.812C133.698 154.793 133.698 155.369 134.064 155.389Z" fill="#161616"/>
<path d="M141.356 157.368C142.881 156.542 144.308 155.561 145.601 154.408C145.871 154.158 145.466 153.755 145.196 154.004C143.922 155.119 142.553 156.08 141.067 156.868C140.739 157.061 141.029 157.56 141.356 157.368Z" fill="#161616"/>
<path d="M134.662 154.293C135.878 153.428 137.132 152.601 138.424 151.833C138.752 151.64 138.443 151.141 138.135 151.333C136.842 152.102 135.588 152.909 134.373 153.793C134.064 154.024 134.354 154.524 134.662 154.293Z" fill="#161616"/>
<path d="M138.52 151.929C140.72 152.755 142.919 153.563 145.137 154.389C145.485 154.524 145.639 153.966 145.292 153.832C143.092 153.005 140.893 152.198 138.675 151.371C138.328 151.256 138.173 151.813 138.52 151.929Z" fill="#161616"/>
<path d="M132.328 157.58C138.135 159.367 143.864 161.424 149.478 163.75C149.825 163.885 149.98 163.327 149.632 163.193C144.019 160.867 138.289 158.81 132.483 157.022C132.116 156.907 131.962 157.465 132.328 157.58Z" fill="#161616"/>
<path d="M132.887 162.058C136.495 163.788 140.141 165.422 143.826 167.017C144.173 167.171 144.462 166.671 144.115 166.518C140.43 164.942 136.784 163.289 133.177 161.559C132.849 161.405 132.559 161.905 132.887 162.058Z" fill="#161616"/>
<path d="M133.408 166.998C135.376 167.998 137.344 169.017 139.311 170.016C139.639 170.189 139.929 169.689 139.601 169.516C137.633 168.517 135.665 167.498 133.698 166.499C133.37 166.326 133.08 166.825 133.408 166.998Z" fill="#161616"/>
<path d="M134.527 167.171C137.247 164.865 140.102 162.75 143.073 160.79C143.382 160.578 143.092 160.079 142.784 160.29C139.774 162.27 136.88 164.442 134.122 166.768C133.832 167.018 134.238 167.421 134.527 167.171Z" fill="#161616"/>
<path d="M133.814 163.231C135.357 162.154 136.9 161.078 138.443 159.982C138.752 159.771 138.463 159.271 138.154 159.482C136.611 160.559 135.067 161.635 133.524 162.731C133.235 162.942 133.524 163.442 133.814 163.231Z" fill="#161616"/>
<path d="M134.778 173.726C110.529 169.612 86.28 165.499 62.031 161.386C59.7546 144.221 57.459 127.075 55.1826 109.91C81.2836 113.408 107.365 116.907 133.466 120.424C133.91 138.185 134.354 155.946 134.778 173.726Z" fill="white" stroke="#161616" stroke-width="3" stroke-miterlimit="10"/>
<path d="M91.5658 144.029C89.463 143.375 88.3249 141.607 88.1513 139.473C87.9776 137.301 88.402 135.206 90.4276 134.072C92.2217 133.072 94.363 133.361 95.9642 134.572C97.5653 135.783 98.9929 138.262 97.7004 140.165C97.4882 140.473 97.9897 140.761 98.2019 140.453C99.5909 138.416 98.2791 135.725 96.5815 134.322C94.826 132.88 92.4532 132.438 90.389 133.457C87.9969 134.629 87.3796 137.013 87.5725 139.492C87.7654 141.895 89.0386 143.875 91.4115 144.605C91.7587 144.701 91.913 144.144 91.5658 144.029Z" fill="#161616"/>
<path d="M92.1056 144.24C91.2182 142.779 91.5076 140.742 92.9351 139.723C94.3627 138.704 96.4075 139.127 97.4878 140.434C97.7193 140.722 98.1245 140.319 97.893 140.031C96.6197 138.512 94.2276 138.089 92.5686 139.262C90.9095 140.453 90.5623 142.837 91.604 144.528C91.7969 144.836 92.2985 144.548 92.1056 144.24Z" fill="#161616"/>
<path d="M94.0931 145.047C93.1864 144.086 93.3215 142.299 94.5368 141.607C95.7329 140.915 97.3533 141.703 97.7392 142.971C97.8549 143.317 98.4144 143.183 98.2986 142.818C97.797 141.203 95.7715 140.242 94.2474 141.126C92.7234 142.01 92.5305 144.24 93.688 145.47C93.9388 145.72 94.3439 145.317 94.0931 145.047Z" fill="#161616"/>
<path d="M95.5783 146.393C96.3307 146.662 97.1988 146.22 97.4881 145.509C97.7968 144.798 97.3917 144.029 96.7165 143.721C96.0413 143.414 95.2311 143.587 94.8645 144.24C94.5173 144.874 94.633 145.739 95.2118 146.201C95.5011 146.431 95.9062 146.028 95.6169 145.797C94.8452 145.201 95.3854 143.798 96.4078 144.221C96.8515 144.394 97.1602 144.855 96.948 145.336C96.7358 145.797 96.1956 146.028 95.7326 145.855C95.3854 145.72 95.2311 146.278 95.5783 146.393Z" fill="#161616"/>
<path d="M133.466 120.405L135.164 173.361" stroke="#161616" stroke-width="3" stroke-miterlimit="10"/>
<path d="M133.582 120.367C134.103 137.782 134.624 155.196 135.144 172.611" stroke="#161616" stroke-width="3" stroke-miterlimit="10"/>
<path opacity="0.37" d="M100.188 116.83C101.442 117.484 112.207 123.327 112.959 133.707C113.384 139.435 110.567 143.779 108.792 146.431C99.2239 160.771 80.2992 163.308 75.1677 163.846C82.6334 168.786 108.715 185.067 137.228 184.106C143.574 183.894 153.413 183.452 164.081 177.609C172.087 173.226 177.276 167.594 180.247 163.846C178.414 162.712 176.601 161.597 174.768 160.463C161.303 165.057 147.818 169.651 134.353 174.226C133.659 156.465 132.964 138.723 132.27 120.963C121.563 119.617 110.876 118.233 100.188 116.83Z" fill="#3D3D3D"/>
<path opacity="0.5" d="M84.8523 165.095C87.3602 166.748 91.2377 169.113 96.2534 171.381C102.504 174.226 121.004 182.645 141.048 177.974C155.613 174.572 166.879 165.249 166.146 163.711C165.683 162.75 160.03 163.75 134.855 173.726C134.45 165.595 134.045 157.445 133.659 149.314C132.965 156.157 132.251 163 131.556 169.824C115.988 168.267 100.42 166.672 84.8523 165.095Z" fill="#3D3D3D"/>
<path d="M90.0417 143.183C88.6334 141.645 88.1704 139.492 88.8649 137.608C89.5787 135.706 91.4692 134.072 93.7263 134.149C95.7133 134.225 97.3144 135.609 97.8932 136.917C98.3176 137.916 98.2211 138.839 98.2211 138.839C98.1632 139.358 97.9896 139.761 97.8546 140.011C96.8707 138.877 95.366 138.358 93.9578 138.685C92.2216 139.089 91.4692 140.569 91.392 140.703C90.6011 142.318 91.2956 143.817 91.392 143.99C90.929 143.702 90.4854 143.433 90.0417 143.183Z" fill="#29739D"/>
<path d="M187.655 118.848C186.613 119.617 185.495 120.655 184.472 122.02C180.672 127.114 181.193 133.092 181.463 135.033C178.087 134.341 172.415 133.668 165.721 135.206C161.728 136.129 158.525 137.57 156.172 138.877C156.538 139.108 157.04 139.377 157.677 139.55C161.284 140.53 165.084 137.512 165.2 137.724C165.316 137.916 160.956 139.954 161.188 141.722C161.342 142.914 163.483 143.548 165.702 144.221C167.573 144.778 169.348 145.316 171.721 145.047C174.981 144.682 177.238 143.048 178.241 142.203C179.206 142.683 180.633 143.317 182.427 143.875C185.726 144.874 190.279 146.258 193.307 144.375C195.275 143.144 195.873 140.261 196.992 134.533C198.42 127.191 199.133 123.519 197.166 121.193C194.561 118.099 189.333 118.618 187.655 118.848Z" fill="white" stroke="#161616" stroke-width="3" stroke-miterlimit="10"/>
<path d="M180.807 135.225C183.141 136.09 185.07 137.666 186.401 139.761C186.594 140.069 187.096 139.781 186.903 139.473C185.494 137.243 183.43 135.59 180.961 134.668C180.614 134.552 180.459 135.11 180.807 135.225Z" fill="#161616"/>
<path d="M168.403 139.031C166.107 139.415 164.255 140.953 163.426 143.106C163.291 143.452 163.85 143.606 163.985 143.26C164.737 141.299 166.474 139.934 168.557 139.588C168.924 139.531 168.769 138.973 168.403 139.031Z" fill="#161616"/>
<path d="M163.696 143.471C164.892 144.605 166.551 144.99 168.113 144.49C168.46 144.375 168.306 143.817 167.959 143.932C166.589 144.375 165.142 144.067 164.101 143.068C163.831 142.798 163.425 143.202 163.696 143.471Z" fill="#161616"/>
<path d="M171.084 140.934C170.254 141.434 169.483 142.01 168.75 142.625C168.267 143.048 167.727 143.548 167.843 144.24C168.132 146.066 170.332 145.663 171.528 145.201C171.875 145.067 171.72 144.509 171.373 144.644C170.852 144.836 170.274 145.086 169.714 145.067C168.808 145.028 167.997 144.163 168.769 143.375C169.502 142.606 170.467 141.991 171.373 141.414C171.701 141.241 171.412 140.742 171.084 140.934Z" fill="#161616"/>
<path d="M186.691 91.4192C187.482 92.0343 188.504 92.88 189.584 93.9757C189.893 94.2832 190.684 95.0905 191.475 96.09C192.709 97.6278 193.5 99.0886 194.368 100.876C195.487 103.164 196.606 105.451 197.725 108.872C198.67 111.756 200.117 116.292 200.291 122.327C200.368 124.711 200.214 126.71 200.059 128.113C199.268 127.21 198.478 126.614 197.822 126.229C194.137 123.981 189.661 124.788 185.437 125.557C183.855 125.845 182.543 126.191 181.636 126.441C181.868 124.327 182.08 122.212 182.311 120.098C182.504 118.329 182.678 116.542 182.871 114.754C182.504 114.12 182.003 113.216 181.54 112.082C180.633 109.91 178.82 105.643 179.862 100.857C181.096 95.3596 185.437 92.2457 186.691 91.4192Z" fill="#EC615B"/>
<path d="M187.366 92.4762C189.295 93.4757 190.587 95.2057 191.706 96.9933C192.864 98.8386 193.905 100.742 194.831 102.702C196.722 106.7 198.111 110.929 199.018 115.254C199.095 115.619 199.654 115.465 199.577 115.1C198.651 110.602 197.185 106.239 195.179 102.087C194.195 100.05 193.114 98.0697 191.88 96.1668C190.78 94.4753 189.488 92.8991 187.674 91.9572C187.327 91.8034 187.038 92.3032 187.366 92.4762Z" fill="#161616"/>
<path d="M181.347 112.025C182.234 113.831 183.16 115.6 184.125 117.368C184.298 117.695 184.8 117.407 184.626 117.08C183.662 115.311 182.736 113.543 181.848 111.736C181.675 111.39 181.173 111.679 181.347 112.025Z" fill="#161616"/>
<path d="M182.717 115.331C182.234 119.06 181.752 122.789 181.289 126.518C181.27 126.71 181.501 126.845 181.656 126.787C184.935 125.749 188.35 125.249 191.784 125.364C194.504 125.461 198.111 125.71 199.635 128.363C199.828 128.69 200.31 128.401 200.137 128.075C198.69 125.537 195.526 125.018 192.864 124.845C189.025 124.576 185.167 125.076 181.521 126.229C181.636 126.326 181.772 126.422 181.887 126.499C182.37 122.77 182.852 119.041 183.315 115.312C183.353 114.966 182.775 114.966 182.717 115.331Z" fill="#161616"/>
<path d="M198.979 114.966C199.654 119.194 200.754 123.673 199.616 127.921C199.519 128.286 200.079 128.44 200.175 128.075C201.333 123.731 200.233 119.156 199.538 114.812C199.481 114.447 198.921 114.6 198.979 114.966Z" fill="#161616"/>
<path opacity="0.32" d="M185.225 90.708C186.98 93.9757 188.736 97.8777 190.221 102.356C193.134 111.198 193.906 119.137 193.964 125.076C191.996 125.192 190.028 125.307 188.061 125.422C188.697 129.978 189.353 134.552 189.99 139.108C188.755 138.397 186.865 137.493 184.434 136.955C183.643 136.782 180.73 136.205 177.624 136.724C171.104 137.82 167.168 143.144 166.281 144.413C167.168 144.778 168.306 145.124 169.676 145.201C173.882 145.451 176.949 143.029 177.856 142.26C180.73 143.702 183.238 144.394 185.013 144.74C188.118 145.374 191.745 146.105 193.752 144.182C193.906 144.029 194.253 143.663 195.005 141.799C196.182 138.839 196.8 136.071 197.61 131.054C197.783 129.939 198.034 128.44 198.285 126.652C198.767 127.133 199.269 127.633 199.751 128.113C199.983 127.248 200.272 125.96 200.426 124.384C200.831 120.29 200.04 117.061 199.288 114.427C196.259 103.779 194.446 97.3587 188.389 92.7071C187.135 91.7844 185.977 91.1117 185.225 90.708Z" fill="#3D3D3D"/>
<path opacity="0.29" d="M195.43 103.875C196.722 110.141 196.896 115.465 196.799 119.31C196.703 122.885 196.336 125.499 195.95 128.132C194.812 136.071 194.234 140.031 192.034 141.876C187.867 145.374 180.44 142.722 178.666 142.049C180.344 143.164 186.382 146.95 192.285 144.855C192.902 144.625 193.578 144.336 194.234 143.913C194.928 142.741 195.854 140.934 196.452 138.57C196.799 137.167 196.896 136.148 197.031 134.956C197.243 133.034 197.61 130.228 198.227 126.71C198.786 127.191 199.365 127.671 199.925 128.152C200.117 127.171 200.368 125.672 200.426 123.827C200.6 119.367 199.616 115.984 198.478 112.121C197.86 110.006 196.896 107.162 195.43 103.875Z" fill="#3D3D3D"/>
<path d="M142.398 53.4182C142.591 55.4749 142.938 58.3582 143.71 61.7604C144.212 63.9709 144.52 65.3741 145.176 67.1232C146.16 69.7566 148.031 74.7926 152.912 78.0795C154.089 78.8868 156.037 79.9632 158.776 80.5976C159.22 80.636 159.664 80.6937 160.108 80.7321C160.262 81.5394 160.455 82.7311 160.648 84.1728C161.111 87.8825 160.879 89.0166 161.844 90.0161C163.02 91.2271 164.892 91.1118 165.297 91.0733C168.518 90.8619 170.139 87.6711 170.216 87.4981C169.695 86.5562 169.174 85.403 168.75 84.0574C167.824 81.0781 167.805 78.4255 167.959 76.6187C169.444 74.4851 171.084 72.8513 172.743 71.5826C173.38 71.1021 173.92 70.4486 174.865 70.1218C176.216 69.6605 176.91 70.1218 177.913 69.8142C179.572 69.2953 180.286 67.1617 180.595 66.2775C181.771 62.7792 180.325 59.3193 179.399 57.2626C178.569 55.3788 176.409 50.708 171.142 47.0559C165.721 43.2885 154.88 39.0982 147.703 44.5379C146.469 45.4797 143.652 47.9978 142.398 53.4182Z" fill="white"/>
<path d="M143.209 61.3375C141.974 61.1261 138.849 60.3957 136.823 57.7239C133.737 53.6681 135.396 47.9978 137.112 44.9992C139.813 40.2899 144.733 38.6561 150.906 36.5994C154.571 35.3884 158.063 34.2351 162.808 34.4273C165.432 34.5427 174.325 34.9271 179.65 41.5201C182.813 45.4221 183.161 49.6124 183.855 57.8776C184.183 61.6643 183.932 63.721 183.276 65.6816C182.794 67.104 181.232 71.6595 176.737 73.4855C174.383 74.4466 172.203 74.2544 171.007 74.0622C172.087 72.4668 173.168 70.8906 174.267 69.2952C174.885 69.3337 177.084 69.3721 178.762 67.8536C181.058 65.7585 181.463 61.5874 179.785 60.4725C178.55 59.646 176.1 60.4533 173.978 62.3563C173.785 61.1453 173.476 59.819 172.956 58.4543C170.525 51.9382 165.239 48.363 162.654 46.8829C161.632 48.19 158.391 52.0151 152.642 53.5336C148.089 54.7253 144.308 53.8795 142.63 53.3798C142.823 56.0324 143.016 58.6849 143.209 61.3375Z" fill="#29739D"/>
<path d="M142.244 53.918C143.035 59.8574 143.864 66.0275 146.777 71.3711C149.169 75.7537 153.028 79.5019 157.986 80.7513C158.352 80.8474 158.506 80.2899 158.14 80.1938C153.24 78.9444 149.459 75.177 147.144 70.8137C144.385 65.6239 143.594 59.6652 142.823 53.918C142.765 53.5527 142.186 53.5527 142.244 53.918Z" fill="#161616"/>
<path d="M157.985 80.828C161.477 80.828 165.142 78.9635 167.882 76.9645C170.64 74.9462 172.897 72.3513 174.518 69.3527C174.691 69.026 174.19 68.7376 174.016 69.0644C172.454 71.9861 170.274 74.5233 167.592 76.4647C164.911 78.4253 161.361 80.2514 157.985 80.2514C157.599 80.2514 157.599 80.828 157.985 80.828Z" fill="#161616"/>
<path d="M167.863 76.5032C167.477 80.3859 168.229 84.2687 170.004 87.7478C170.178 88.0746 170.679 87.7863 170.506 87.4595C168.769 84.0573 168.075 80.2898 168.442 76.5032C168.48 76.1379 167.901 76.1379 167.863 76.5032Z" fill="#161616"/>
<path d="M159.471 80.7321C160.107 82.9233 160.628 85.153 161.014 87.4019C161.265 88.9012 161.361 90.5927 163.04 91.1501C165.548 91.9959 169.252 90.4966 170.216 88.017C170.351 87.671 169.792 87.5173 169.657 87.8633C169.116 89.2664 167.766 90.0353 166.377 90.4389C165.22 90.7657 163.464 91.1117 162.48 90.1698C161.902 89.6124 161.824 88.7282 161.709 87.9786C161.574 87.1905 161.439 86.4024 161.284 85.6143C160.937 83.9229 160.532 82.2314 160.05 80.5783C159.934 80.2323 159.374 80.3861 159.471 80.7321Z" fill="#161616"/>
<path d="M160.301 83.1155C163.735 82.6734 165.992 80.0592 167.651 77.2529C167.844 76.9261 167.342 76.6378 167.149 76.9645C165.625 79.5787 163.503 82.1352 160.301 82.5388C159.934 82.5965 159.934 83.1731 160.301 83.1155Z" fill="#161616"/>
<path d="M160.165 81.1548C162.847 80.8473 165.258 79.5979 167.052 77.5797C167.303 77.3106 166.898 76.8877 166.647 77.176C164.969 79.0789 162.693 80.2899 160.165 80.5782C159.818 80.6166 159.799 81.1933 160.165 81.1548Z" fill="#161616"/>
<path d="M160.262 80.732C162.422 80.4244 164.371 79.5403 166.03 78.1371C166.319 77.8872 165.895 77.4835 165.625 77.7334C164.043 79.0789 162.172 79.9055 160.107 80.1938C159.741 80.2322 159.895 80.7897 160.262 80.732Z" fill="#161616"/>
<path d="M160.146 81.2125C160.243 81.6739 160.224 82.5965 160.802 82.7503C161.362 82.9041 162.211 82.2505 162.654 81.9814C164.178 81.0588 165.452 79.8094 166.455 78.3485C166.667 78.041 166.165 77.7526 165.953 78.0602C165.239 79.1174 164.371 80.0592 163.349 80.8281C162.867 81.1933 162.365 81.5009 161.844 81.7892C161.632 81.9045 161.15 82.2313 160.937 82.0967C160.802 82.0199 160.744 81.1933 160.725 81.0588C160.629 80.6936 160.069 80.8473 160.146 81.2125Z" fill="#161616"/>
<path d="M160.416 81.7507C162.075 81.078 163.638 80.2322 165.104 79.2134C165.412 79.002 165.123 78.5022 164.814 78.7137C163.387 79.7132 161.882 80.5397 160.262 81.1933C159.914 81.3278 160.069 81.8853 160.416 81.7507Z" fill="#161616"/>
<path d="M160.706 82.3273C162.557 81.6738 164.178 80.655 165.528 79.2326C165.779 78.9635 165.374 78.5599 165.123 78.829C163.831 80.1553 162.307 81.1548 160.551 81.7699C160.204 81.9044 160.358 82.4618 160.706 82.3273Z" fill="#161616"/>
<path d="M161.014 82.0198C162.384 81.424 163.638 80.6167 164.718 79.5787C164.988 79.3288 164.583 78.9252 164.313 79.1751C163.252 80.1746 162.056 80.9434 160.725 81.5201C160.377 81.6739 160.667 82.1736 161.014 82.0198Z" fill="#161616"/>
<path d="M145.253 68.5263C142.109 67.4115 141.067 63.3173 141.376 60.3572C141.704 57.1087 144.636 53.5719 148.224 55.0904C149.941 55.8209 150.578 57.7046 151.041 59.3769C151.523 61.1452 151.735 63.1058 151.272 64.9127C150.867 66.5081 149.883 68.0266 148.34 68.7185C146.797 69.4105 144.964 69.0261 143.922 67.6998C143.691 67.4115 143.286 67.8151 143.517 68.1034C145.273 70.3524 148.571 69.9103 150.346 67.9305C152.603 65.4124 152.372 61.5873 151.407 58.5696C150.963 57.1664 150.385 55.7055 149.092 54.8982C147.973 54.187 146.546 54.014 145.292 54.3408C142.36 55.1289 140.836 58.2236 140.778 61.0491C140.72 64.1438 141.935 67.9689 145.138 69.0837C145.446 69.1991 145.601 68.6416 145.253 68.5263Z" fill="#161616"/>
<path d="M151.928 62.7789C153.819 61.6449 156.114 61.5296 158.082 62.5098C158.41 62.6828 158.699 62.1831 158.371 62.0101C156.211 60.9337 153.703 61.0298 151.62 62.2792C151.33 62.4714 151.62 62.9712 151.928 62.7789Z" fill="#161616"/>
<path d="M161.15 66.8731C158.97 64.778 158.063 61.5295 158.912 58.6079C159.799 55.5709 162.847 52.9567 166.127 54.0331C169.753 55.2249 169.946 60.3955 169.001 63.4325C168.442 65.2201 167.323 67.0077 165.471 67.6612C163.619 68.3147 162.018 67.3344 160.532 66.2965C160.224 66.085 159.934 66.5848 160.243 66.7962C161.458 67.6612 162.77 68.5262 164.313 68.4685C165.779 68.4108 167.11 67.6035 168.017 66.5079C170.062 64.0476 170.467 60.2994 169.618 57.3008C168.847 54.5713 166.57 52.803 163.657 53.2835C160.879 53.7256 158.835 56.2244 158.217 58.8385C157.504 61.8563 158.468 65.124 160.706 67.2768C161.015 67.5459 161.42 67.123 161.15 66.8731Z" fill="#161616"/>
<path d="M147.009 60.5493C146.816 61.7603 147.028 62.9328 147.684 63.9707C147.819 64.1822 148.127 64.1437 148.205 63.8939C148.668 62.5676 148.012 61.2605 147.356 60.1265C147.221 59.8766 146.816 59.9919 146.816 60.2802C146.835 61.299 147.047 62.2985 147.433 63.2403C147.568 63.5863 148.127 63.4325 147.992 63.0866C147.626 62.1832 147.414 61.2605 147.394 60.2802C147.221 60.3379 147.028 60.3763 146.854 60.434C147.452 61.4527 148.07 62.5676 147.645 63.7593C147.819 63.7401 147.992 63.7209 148.166 63.6824C147.587 62.779 147.375 61.7603 147.549 60.7031C147.626 60.3379 147.066 60.1841 147.009 60.5493Z" fill="#161616"/>
<path d="M164.082 60.0111C164.082 59.7613 164.062 59.7036 163.946 59.4922C163.811 59.2423 163.406 59.3576 163.406 59.6459C163.426 60.8377 163.522 62.1255 164.448 62.9713C164.641 63.1442 164.911 63.0097 164.95 62.7598C165.104 61.3374 164.68 60.0111 163.792 58.8963C163.599 58.6656 163.252 58.9155 163.31 59.1846C163.541 60.1265 163.831 61.0491 164.178 61.9333C164.313 62.2793 164.872 62.1255 164.737 61.7795C164.371 60.8761 164.082 59.9727 163.869 59.0308C163.715 59.1269 163.541 59.2231 163.387 59.3192C164.178 60.3187 164.506 61.5104 164.371 62.779C164.544 62.7022 164.699 62.6445 164.872 62.5676C164.043 61.818 164.004 60.6839 163.985 59.6459C163.811 59.7036 163.619 59.742 163.445 59.7997C163.464 59.8766 163.484 59.9535 163.503 60.0304C163.503 60.3764 164.082 60.3763 164.082 60.0111Z" fill="#161616"/>
<path d="M153.857 63.7978C153.471 64.9511 153.143 66.1236 152.931 67.3153C152.815 67.9496 152.41 69.1414 152.7 69.7757C153.278 71.0635 155.844 70.2755 156.731 69.8526C157.059 69.6988 156.77 69.199 156.442 69.3528C155.728 69.6988 154.957 69.8718 154.166 69.8141C153.703 69.7757 153.336 69.6988 153.24 69.1798C153.182 68.8915 153.375 68.1419 153.433 67.8151C153.664 66.4888 154.011 65.201 154.436 63.9323C154.532 63.6056 153.973 63.4518 153.857 63.7978Z" fill="#161616"/>
<path d="M156.77 74.8886C158.217 74.6963 159.471 73.7737 160.107 72.4474C160.262 72.1207 159.76 71.8131 159.606 72.1591C159.027 73.3701 157.947 74.1581 156.616 74.3311C156.249 74.3888 156.423 74.9462 156.77 74.8886Z" fill="#161616"/>
<path d="M145.793 58.8963C146.16 58.4542 146.835 58.3773 147.298 58.7617C147.587 59.0116 147.992 58.5888 147.703 58.3581C147.028 57.7814 145.986 57.8199 145.388 58.4926C145.137 58.7617 145.542 59.1654 145.793 58.8963Z" fill="#161616"/>
<path d="M162.345 57.8198C162.943 57.3008 163.85 57.3008 164.448 57.8006C164.737 58.0313 165.143 57.6276 164.853 57.397C164.004 56.6665 162.77 56.6857 161.921 57.4162C161.651 57.6661 162.075 58.0697 162.345 57.8198Z" fill="#161616"/>
<path d="M169.946 60.4724C172.03 59.742 174.171 59.2999 176.39 59.1845C176.756 59.1653 176.756 58.5887 176.39 58.6079C174.132 58.7232 171.933 59.1653 169.792 59.915C169.445 60.0495 169.58 60.607 169.946 60.4724Z" fill="#161616"/>
<path opacity="0.4" d="M172.82 36.5225C173.978 38.0025 178.434 44.0765 177.604 52.4187C177.141 57.0703 175.212 60.4918 173.997 62.2986C174.691 61.7604 175.289 61.3952 175.733 61.1453C176.91 60.4918 177.662 60.0881 178.627 60.1458C178.916 60.165 179.611 60.2226 180.112 60.6263C181.578 61.8565 181.077 66.2198 178.472 68.2573C177.045 69.3721 175.367 69.4874 174.518 69.4682C173.418 71.0252 172.299 72.5821 171.2 74.1583C171.933 74.2736 173.052 74.3697 174.344 74.1775C174.904 74.1006 177.141 73.697 179.263 72.0055C181.347 70.3332 182.196 68.2957 182.755 66.9118C184.298 63.0674 183.99 59.6845 183.45 53.5912C183.218 50.881 183.083 49.497 182.543 47.671C181.964 45.6911 181.057 42.7695 178.472 40.1553C176.621 38.2332 174.537 37.1568 172.82 36.5225Z" fill="#3D3D3D"/>
<path opacity="0.48" d="M154.185 52.9569C156.114 51.2462 158.275 49.055 160.359 46.3255C161.651 44.634 162.731 43.0002 163.619 41.4817C163.291 43.2116 162.963 44.9416 162.654 46.6715C161.902 47.7479 160.648 49.2856 158.699 50.6888C156.983 51.8997 155.362 52.5725 154.185 52.9569Z" fill="#3D3D3D"/>
<path opacity="0.27" d="M167.901 50.7654C169.367 55.6284 169.483 59.7034 169.348 62.3944C169.252 64.3935 168.712 74.8692 163.175 78.4829C162.635 78.8289 161.265 79.6362 161.323 79.7515C161.4 79.8861 163.966 78.752 165.374 77.9831C167.593 76.7914 171.007 74.3887 174.171 69.3142C174.692 69.3719 177.238 69.5449 179.071 67.7957C181.289 65.7005 181.675 61.5871 179.92 60.3762C178.666 59.5112 176.274 60.2416 174.171 61.9716C173.959 61.0874 173.689 60.1647 173.322 59.1844C171.875 55.3786 169.695 52.6107 167.901 50.7654Z" fill="#3D3D3D"/>
<path opacity="0.36" d="M163.252 79.5978C163.754 81.1356 164.255 82.6733 164.757 84.2302C165.451 86.3446 166.126 88.4782 166.802 90.5926C167.187 90.5157 168.133 90.2466 168.962 89.4008C169.792 88.5551 170.062 87.6325 170.158 87.248C169.406 85.768 168.518 83.519 168.21 80.6743C168.055 79.1942 168.094 77.8871 168.21 76.7915C166.57 77.7334 164.911 78.6752 163.252 79.5978Z" fill="#3D3D3D"/>
<path opacity="0.43" d="M153.626 64.4705C152.661 66.5272 151.697 68.5647 150.732 70.6214C152.314 70.5829 153.877 70.5637 155.459 70.5253C154.533 70.2369 153.587 69.9486 152.661 69.6603C152.97 67.9303 153.298 66.2004 153.626 64.4705Z" fill="#3D3D3D"/>
</g>
<defs>
<clipPath id="clip0_717:1685">
<rect width="267" height="208" fill="white"/>
</clipPath>
</defs>
</svg>
