<svg width="30" height="22" viewBox="0 0 30 22" fill="none" xmlns="http://www.w3.org/2000/svg">
<path fill-rule="evenodd" clip-rule="evenodd" d="M7.0801 0.817579C7.38005 1.11762 7.54856 1.52452 7.54856 1.94878C7.54856 2.37304 7.38005 2.77994 7.0801 3.07998C6.03996 4.12001 5.21487 5.35474 4.65195 6.71366C4.08903 8.07258 3.79929 9.52908 3.79929 11C3.79929 12.4709 4.08903 13.9274 4.65195 15.2863C5.21487 16.6452 6.03996 17.8799 7.0801 18.92C7.23292 19.0676 7.35481 19.2441 7.43866 19.4393C7.52252 19.6345 7.56665 19.8445 7.5685 20.0569C7.57035 20.2694 7.52986 20.4801 7.44942 20.6767C7.36897 20.8733 7.25016 21.052 7.09993 21.2022C6.9497 21.3524 6.77106 21.4712 6.57443 21.5517C6.37779 21.6321 6.1671 21.6726 5.95466 21.6708C5.74221 21.6689 5.53226 21.6248 5.33705 21.5409C5.14185 21.4571 4.96529 21.3352 4.8177 21.1824C3.48052 19.8452 2.41981 18.2578 1.69613 16.5107C0.972449 14.7636 0.599976 12.891 0.599976 11C0.599976 9.10893 0.972449 7.2364 1.69613 5.4893C2.41981 3.7422 3.48052 2.15475 4.8177 0.817579C5.11774 0.517626 5.52464 0.349121 5.9489 0.349121C6.37316 0.349121 6.78006 0.517626 7.0801 0.817579ZM22.9201 0.817579C23.2201 0.517626 23.627 0.349121 24.0513 0.349121C24.4756 0.349121 24.8825 0.517626 25.1825 0.817579C26.5197 2.15475 27.5804 3.7422 28.3041 5.4893C29.0278 7.2364 29.4002 9.10893 29.4002 11C29.4002 12.891 29.0278 14.7636 28.3041 16.5107C27.5804 18.2578 26.5197 19.8452 25.1825 21.1824C25.0349 21.3352 24.8584 21.4571 24.6631 21.5409C24.4679 21.6248 24.258 21.6689 24.0455 21.6708C23.8331 21.6726 23.6224 21.6321 23.4258 21.5517C23.2291 21.4712 23.0505 21.3524 22.9003 21.2022C22.75 21.052 22.6312 20.8733 22.5508 20.6767C22.4703 20.4801 22.4299 20.2694 22.4317 20.0569C22.4335 19.8445 22.4777 19.6345 22.5615 19.4393C22.6454 19.2441 22.7673 19.0676 22.9201 18.92C23.9602 17.8799 24.7853 16.6452 25.3482 15.2863C25.9112 13.9274 26.2009 12.4709 26.2009 11C26.2009 9.52908 25.9112 8.07258 25.3482 6.71366C24.7853 5.35474 23.9602 4.12001 22.9201 3.07998C22.6201 2.77994 22.4516 2.37304 22.4516 1.94878C22.4516 1.52452 22.6201 1.11762 22.9201 0.817579ZM11.6065 5.34238C11.9065 5.64242 12.075 6.04932 12.075 6.47358C12.075 6.89784 11.9065 7.30473 11.6065 7.60478C11.1607 8.05051 10.8071 8.5797 10.5658 9.16211C10.3245 9.74453 10.2003 10.3688 10.2003 10.9992C10.2003 11.6296 10.3245 12.2538 10.5658 12.8362C10.8071 13.4187 11.1607 13.9478 11.6065 14.3936C11.7551 14.5422 11.8729 14.7187 11.9532 14.9129C12.0336 15.1071 12.0749 15.3152 12.0748 15.5253C12.0747 15.7355 12.0333 15.9436 11.9528 16.1377C11.8723 16.3319 11.7544 16.5082 11.6057 16.6568C11.457 16.8053 11.2806 16.9231 11.0864 17.0035C10.8922 17.0839 10.6841 17.1252 10.4739 17.1251C10.2638 17.125 10.0557 17.0836 9.86156 17.0031C9.66743 16.9226 9.49105 16.8046 9.3425 16.656C7.84273 15.1558 7.00021 13.1213 7.00021 11C7.00021 8.87867 7.84273 6.8442 9.3425 5.34398C9.4911 5.19522 9.66756 5.0772 9.86179 4.99668C10.056 4.91616 10.2642 4.87472 10.4745 4.87472C10.6848 4.87472 10.893 4.91616 11.0872 4.99668C11.2814 5.0772 11.4579 5.19522 11.6065 5.34398V5.34238ZM18.3937 5.34238C18.5423 5.19362 18.7188 5.0756 18.913 4.99508C19.1072 4.91456 19.3154 4.87312 19.5257 4.87312C19.736 4.87312 19.9442 4.91456 20.1384 4.99508C20.3326 5.0756 20.5091 5.19362 20.6577 5.34238C21.4008 6.08528 21.9903 6.96728 22.3924 7.93802C22.7946 8.90877 23.0016 9.94923 23.0016 11C23.0016 12.0507 22.7946 13.0912 22.3924 14.0619C21.9903 15.0327 21.4008 15.9147 20.6577 16.6576C20.3575 16.9578 19.9503 17.1265 19.5257 17.1265C19.1011 17.1265 18.6939 16.9578 18.3937 16.6576C18.0935 16.3574 17.9248 15.9502 17.9248 15.5256C17.9248 15.101 18.0935 14.6938 18.3937 14.3936C19.2936 13.4934 19.7991 12.2728 19.7991 11C19.7991 9.72719 19.2936 8.50651 18.3937 7.60638C18.2449 7.45778 18.1269 7.28132 18.0464 7.08708C17.9659 6.89285 17.9244 6.68464 17.9244 6.47438C17.9244 6.26411 17.9659 6.05591 18.0464 5.86167C18.1269 5.66744 18.2449 5.49098 18.3937 5.34238ZM15.0001 9.39998C15.4244 9.39998 15.8314 9.56855 16.1315 9.86861C16.4315 10.1687 16.6001 10.5756 16.6001 11V11.016C16.6001 11.4403 16.4315 11.8473 16.1315 12.1474C15.8314 12.4474 15.4244 12.616 15.0001 12.616C14.5758 12.616 14.1688 12.4474 13.8687 12.1474C13.5687 11.8473 13.4001 11.4403 13.4001 11.016V11C13.4001 10.5756 13.5687 10.1687 13.8687 9.86861C14.1688 9.56855 14.5758 9.39998 15.0001 9.39998Z" fill="#F2F2F2"/>
</svg>
