<svg width="28" height="28" viewBox="0 0 28 28" fill="none" xmlns="http://www.w3.org/2000/svg">
<path d="M14 0.666626C11.3629 0.666626 8.78502 1.44861 6.59236 2.9137C4.39971 4.37878 2.69074 6.46116 1.68157 8.89751C0.672403 11.3339 0.408359 14.0148 0.922828 16.6012C1.4373 19.1876 2.70717 21.5634 4.57188 23.4281C6.43658 25.2928 8.81235 26.5626 11.3988 27.0771C13.9852 27.5916 16.6661 27.3275 19.1024 26.3184C21.5388 25.3092 23.6211 23.6002 25.0862 21.4076C26.5513 19.2149 27.3333 16.637 27.3333 14C27.3333 12.249 26.9884 10.5152 26.3184 8.89751C25.6483 7.27984 24.6662 5.80998 23.4281 4.57187C22.1899 3.33375 20.7201 2.35163 19.1024 1.68157C17.4847 1.0115 15.7509 0.666626 14 0.666626ZM14 24.6666C11.8903 24.6666 9.82801 24.041 8.07388 22.869C6.31976 21.6969 4.95259 20.031 4.14525 18.0819C3.33792 16.1328 3.12668 13.9881 3.53826 11.919C3.94983 9.84987 4.96573 7.94925 6.45749 6.45749C7.94925 4.96573 9.84987 3.94983 11.919 3.53825C13.9881 3.12667 16.1328 3.33791 18.0819 4.14524C20.031 4.95258 21.6969 6.31975 22.869 8.07388C24.041 9.828 24.6666 11.8903 24.6666 14C24.6666 16.8289 23.5428 19.542 21.5424 21.5424C19.5421 23.5428 16.8289 24.6666 14 24.6666Z" fill="#F2F2F2"/>
<path d="M19.3333 12.6666H15.3333V8.66659C15.3333 8.31296 15.1928 7.97383 14.9428 7.72378C14.6927 7.47373 14.3536 7.33325 14 7.33325C13.6463 7.33325 13.3072 7.47373 13.0572 7.72378C12.8071 7.97383 12.6666 8.31296 12.6666 8.66659V13.9999C12.6666 14.3535 12.8071 14.6927 13.0572 14.9427C13.3072 15.1928 13.6463 15.3333 14 15.3333H19.3333C19.6869 15.3333 20.0261 15.1928 20.2761 14.9427C20.5262 14.6927 20.6666 14.3535 20.6666 13.9999C20.6666 13.6463 20.5262 13.3072 20.2761 13.0571C20.0261 12.8071 19.6869 12.6666 19.3333 12.6666Z" fill="#F2F2F2"/>
</svg>
