<svg width="22" height="32" viewBox="0 0 22 32" fill="none" xmlns="http://www.w3.org/2000/svg">
<path d="M20.2971 17.984C20.0945 17.5021 19.8541 17.037 19.5781 16.593V8.55204C19.5792 7.42828 19.3579 6.3154 18.9269 5.27757C18.496 4.23973 17.8639 3.29745 17.0671 2.50504C16.2749 1.70823 15.3326 1.07653 14.2946 0.64653C13.2566 0.216534 12.1436 -0.00320815 11.0201 3.53903e-05C9.89586 -0.00265596 8.78226 0.217319 7.74352 0.647264C6.70479 1.07721 5.76149 1.70861 4.96805 2.50504C4.1716 3.29741 3.54014 4.23981 3.11017 5.27775C2.68019 6.31569 2.46025 7.42857 2.46305 8.55204V9.72404H5.89005V8.55204C5.89005 7.18804 6.42105 5.89604 7.39505 4.92704C7.87011 4.44978 8.4351 4.07147 9.05733 3.81399C9.67955 3.55652 10.3467 3.425 11.0201 3.42704C12.3789 3.42941 13.6815 3.97 14.6428 4.9305C15.604 5.89099 16.1456 7.19316 16.1491 8.55204V13.235C14.5916 12.3066 12.8112 11.8186 10.9981 11.823C9.67264 11.8204 8.35978 12.0799 7.13508 12.5867C5.91038 13.0935 4.79802 13.8376 3.86205 14.776C2.92395 15.7122 2.18021 16.8246 1.67359 18.0493C1.16697 19.274 0.907484 20.5867 0.910053 21.912C0.907859 23.2363 1.16754 24.5478 1.67417 25.7713C2.18079 26.9948 2.92435 28.106 3.86205 29.041C4.79818 29.9796 5.91022 30.7244 7.13453 31.2328C8.35884 31.7411 9.67138 32.003 10.997 32.0034C12.3227 32.0039 13.6354 31.7429 14.86 31.2355C16.0847 30.728 17.1973 29.984 18.1341 29.046C19.0721 28.11 19.8158 26.9978 20.3224 25.7733C20.829 24.5488 21.0885 23.2362 21.0861 21.911C21.0861 20.551 20.8211 19.228 20.2951 17.983L20.2971 17.984ZM11.0001 28.573C7.32805 28.573 4.33905 25.584 4.33905 21.912C4.33905 18.24 7.32805 15.251 11.0001 15.251C12.7663 15.2524 14.4597 15.9546 15.7086 17.2035C16.9575 18.4524 17.6597 20.1458 17.6611 21.912C17.6587 23.6779 16.9561 25.3708 15.7075 26.6194C14.4588 27.8681 12.7659 28.5707 11.0001 28.573ZM13.8601 21.943C13.8601 25.708 8.20805 25.708 8.20805 21.943C8.20805 18.172 13.8601 18.172 13.8601 21.943Z" fill="#F2F2F2"/>
</svg>
