<svg width="50" height="50" viewBox="0 0 50 50" fill="none" xmlns="http://www.w3.org/2000/svg">
<circle cx="25" cy="25" r="25" fill="#F1F2F6"/>
<path fill-rule="evenodd" clip-rule="evenodd" d="M36.6568 38.9044C37.6525 39.9038 38.2675 39.1932 39.085 38.3776C39.9025 37.5619 40.6112 36.9451 39.6156 35.9476C39.6156 35.9476 25.7368 22.0819 22.3093 18.6638L19.3506 21.6207L36.6568 38.9044Z" fill="url(#paint0_linear)"/>
<path fill-rule="evenodd" clip-rule="evenodd" d="M13.84 24.0281L14.9912 22.8956C14.9912 22.8956 14.4831 21.5025 15.2275 20.835C15.9719 20.1675 17.2281 20.58 17.2281 20.58L21.2687 16.6744C21.2687 16.6744 20.9856 14.6437 21.3606 14.2687C21.7356 13.8937 25.9262 11.8519 26.3312 11.4431L25.4706 10.5825C25.4706 10.5825 19.6056 11.2875 18.97 11.9212C18.5969 12.2962 15.805 15.1162 13.8137 17.1075C13.8137 17.1075 14.3125 18.5306 13.6562 19.1869C12.9981 19.845 11.5169 19.3744 11.5169 19.3744L10.3487 20.5406C9.85561 21.0375 10.1462 21.735 10.7519 22.3406L12.0381 23.6269C12.6475 24.2344 13.3469 24.5212 13.84 24.0281V24.0281Z" fill="url(#paint1_linear)"/>
<path fill-rule="evenodd" clip-rule="evenodd" d="M31.9994 21.2157C34.0188 22.1738 36.5519 21.8794 38.2282 20.2032C39.5219 18.9094 40.0357 17.1301 39.76 15.4576L36.9082 18.3057L34.4819 18.9076L31.7407 16.2038L32.3838 13.6969L35.2094 10.9069C33.535 10.6332 31.6432 11.0288 30.3494 12.3244C28.6713 14.0026 28.4425 16.5976 29.4007 18.6188L27.5369 20.4807L30.1394 23.0776L31.9994 21.2157V21.2157Z" fill="url(#paint2_linear)"/>
<path fill-rule="evenodd" clip-rule="evenodd" d="M23.935 29.8481L21.1131 27.0281L18.6606 29.4825C18.5157 29.6248 18.4004 29.7943 18.3212 29.9813C18.1769 29.925 18.0962 29.9231 18.0456 29.9438C17.5685 29.7777 17.0677 29.6896 16.5625 29.6831C13.9731 29.6831 11.875 31.755 11.875 34.3125C11.875 36.87 13.9731 38.9419 16.5625 38.9419C19.1519 38.9419 21.25 36.87 21.25 34.3125C21.25 33.7819 21.1394 33.2794 20.9762 32.805C20.9669 32.76 20.965 32.7188 20.9387 32.6531C21.1408 32.5735 21.3245 32.4536 21.4787 32.3006L23.935 29.8481ZM16.5625 37.0088C15.04 37.0088 13.8081 35.8031 13.8081 34.3125C13.8081 32.8219 15.0381 31.6163 16.5625 31.6163C18.0869 31.6163 19.3169 32.8219 19.3169 34.3125C19.3169 35.8031 18.085 37.0088 16.5625 37.0088Z" fill="url(#paint3_linear)"/>
<defs>
<linearGradient id="paint0_linear" x1="29.7268" y1="18.6638" x2="29.7268" y2="39.3942" gradientUnits="userSpaceOnUse">
<stop stop-color="#F83600"/>
<stop offset="1" stop-color="#F9D423"/>
</linearGradient>
<linearGradient id="paint1_linear" x1="18.2151" y1="10.5825" x2="18.2151" y2="24.279" gradientUnits="userSpaceOnUse">
<stop stop-color="#F83600"/>
<stop offset="1" stop-color="#F9D423"/>
</linearGradient>
<linearGradient id="paint2_linear" x1="33.6846" y1="10.8248" x2="33.6846" y2="23.0776" gradientUnits="userSpaceOnUse">
<stop stop-color="#F83600"/>
<stop offset="1" stop-color="#F9D423"/>
</linearGradient>
<linearGradient id="paint3_linear" x1="17.905" y1="27.0281" x2="17.905" y2="38.9419" gradientUnits="userSpaceOnUse">
<stop stop-color="#F83600"/>
<stop offset="1" stop-color="#F9D423"/>
</linearGradient>
</defs>
</svg>
