<svg width="50" height="50" viewBox="0 0 50 50" fill="none" xmlns="http://www.w3.org/2000/svg">
<circle cx="25" cy="25" r="25" fill="#F1F2F6"/>
<path d="M25.6299 10C25.4349 10 25.2352 10.0103 25.029 10.0253C19.7462 10.4444 21.1477 16.0356 21.069 17.9003C20.9715 19.2625 20.694 20.3416 19.7565 21.6756C18.6474 22.9891 17.0949 25.1134 16.358 27.3241C16.0121 28.3638 15.8452 29.4344 16.0018 30.4403C15.9428 30.484 15.8944 30.5404 15.8602 30.6053C15.5377 30.9428 15.2977 31.3581 15.0343 31.6553C14.7858 31.9038 14.4296 31.9881 14.0377 32.1541C13.6477 32.3238 13.2127 32.4906 12.9587 33.0081C12.8462 33.2434 12.7871 33.4966 12.7927 33.7609C12.7927 34.0047 12.8274 34.2588 12.8612 34.4294C12.9352 34.9272 13.0074 35.3378 12.9099 35.6406C12.5977 36.4891 12.564 37.0703 12.7787 37.4959C12.9971 37.9159 13.4471 38.0819 13.9496 38.2487C14.9658 38.4972 16.3374 38.4184 17.4221 38.995C18.578 39.5809 19.7555 39.835 20.693 39.5866C21.0164 39.514 21.3196 39.3704 21.5805 39.1661C21.8414 38.9618 22.0535 38.7019 22.2015 38.4053C22.9337 38.4006 23.739 38.0678 25.0243 37.9853C25.898 37.9112 26.9921 38.3219 28.2465 38.2337C28.2802 38.4053 28.3243 38.4822 28.3927 38.6537V38.6584C28.8802 39.6297 29.784 40.0694 30.7515 39.9963C31.7124 39.9184 32.738 39.3278 33.5677 38.3613C34.359 37.4088 35.6724 37.0075 36.5415 36.4863C36.9765 36.2359 37.328 35.9003 37.3524 35.4166C37.3815 34.9188 37.104 34.4012 36.4637 33.6981V33.5753L36.459 33.5706C36.2443 33.3222 36.1468 32.9022 36.0343 32.4147C35.9265 31.9113 35.8093 31.4331 35.4193 31.1059C35.3405 31.0375 35.2627 31.0225 35.1802 30.94C35.111 30.8912 35.0295 30.8626 34.9449 30.8575C35.4821 29.26 35.2721 27.6738 34.7246 26.2422C34.0608 24.4797 32.8937 22.9422 32.0096 21.8875C31.013 20.6322 30.0371 19.4416 30.0568 17.6791C30.0905 14.9875 30.354 10.0131 25.628 10.0028L25.6299 10ZM26.289 14.2572H26.3087C26.5721 14.2572 26.8008 14.3359 27.0362 14.5019C27.2752 14.6716 27.4515 14.9172 27.5827 15.1703C27.7149 15.4928 27.7843 15.7413 27.7927 16.0731C27.7927 16.0497 27.7974 16.0244 27.7974 16.0009V16.1322C27.7974 16.1219 27.7927 16.1134 27.7927 16.1031L27.788 16.0731C27.788 16.3769 27.7252 16.6797 27.6033 16.9572C27.5454 17.1152 27.4536 17.2585 27.3343 17.3772C27.3005 17.3584 27.2658 17.3387 27.2265 17.3237C27.0952 17.2647 26.978 17.2459 26.8702 17.1588C26.7815 17.1232 26.6899 17.0953 26.5965 17.0753C26.6555 17.0031 26.7774 16.9094 26.8262 16.8269C26.8899 16.6703 26.9237 16.4997 26.934 16.3244V16.2991C26.9366 16.1298 26.91 15.9614 26.8552 15.8013C26.8018 15.6353 26.7343 15.5509 26.6312 15.3859C26.5233 15.3025 26.4212 15.22 26.2937 15.22H26.2749C26.1577 15.22 26.0546 15.2537 25.9477 15.3859C25.8304 15.5016 25.7432 15.6442 25.6937 15.8013C25.6256 15.9588 25.5874 16.1276 25.5812 16.2991V16.3244C25.5812 16.4359 25.5915 16.5484 25.6046 16.6609C25.3608 16.5784 25.058 16.4894 24.8433 16.4069C24.8317 16.3245 24.8251 16.2416 24.8237 16.1584V16.1331C24.8142 15.803 24.8779 15.4748 25.0102 15.1722C25.1124 14.8984 25.298 14.6631 25.5474 14.5075C25.7612 14.3472 26.0199 14.2591 26.289 14.2591V14.2572ZM22.5877 14.3312H22.6318C22.808 14.3312 22.9693 14.3903 23.1305 14.4972C23.3152 14.6584 23.4633 14.8581 23.5608 15.0775C23.6733 15.3278 23.7362 15.5809 23.7558 15.9128V15.9175C23.7605 16.0834 23.7605 16.1725 23.7512 16.2503V16.3525L23.649 16.3816C23.4587 16.45 23.3077 16.5475 23.1549 16.6319C23.1699 16.5194 23.1699 16.4069 23.1596 16.2991V16.2794C23.1455 16.1144 23.1108 16.0309 23.0574 15.8641C23.0174 15.7357 22.9451 15.6198 22.8474 15.5275C22.786 15.4728 22.7055 15.4445 22.6233 15.4487H22.5933C22.5062 15.4534 22.4321 15.4975 22.3646 15.6147C22.282 15.7097 22.2294 15.8272 22.2137 15.9522C22.179 16.0834 22.1687 16.225 22.1837 16.3675V16.3816C22.1987 16.5531 22.2277 16.6366 22.2858 16.8016C22.3236 16.9287 22.3944 17.0436 22.4912 17.1344C22.5062 17.1494 22.5165 17.1597 22.5352 17.1634C22.448 17.2375 22.389 17.2525 22.3168 17.335C22.2671 17.3697 22.2146 17.4138 22.1508 17.4241C22.0208 17.2677 21.9062 17.0991 21.8087 16.9206C21.689 16.6578 21.6228 16.3739 21.6137 16.0853C21.5947 15.8033 21.6278 15.5201 21.7112 15.25C21.7852 15.0062 21.9024 14.7766 22.0674 14.5816C22.2287 14.4156 22.3899 14.3331 22.5896 14.3331L22.5877 14.3312ZM24.3015 16.465C24.7168 16.465 25.2155 16.5428 25.8202 16.9628C26.1868 17.2131 26.4755 17.3003 27.1393 17.5441C27.4618 17.7156 27.6465 17.8816 27.7393 18.0475V17.8816C27.7838 17.9721 27.8086 18.0711 27.812 18.1719C27.8154 18.2728 27.7973 18.3732 27.759 18.4666C27.6024 18.8575 27.114 19.2728 26.4268 19.5213V19.5259C26.094 19.6919 25.8015 19.9413 25.4593 20.1072C25.1133 20.2731 24.7215 20.4737 24.1946 20.44C24.0038 20.4484 23.8132 20.42 23.633 20.3566C23.4942 20.2828 23.3604 20.1998 23.2327 20.1081C22.989 19.9422 22.779 19.6928 22.4668 19.5269V19.5222H22.4621C21.9587 19.2147 21.6905 18.8819 21.6024 18.6334C21.5199 18.2969 21.5977 18.0484 21.8471 17.8825C22.1246 17.7166 22.3196 17.545 22.4471 17.4625C22.5783 17.3697 22.628 17.335 22.6674 17.3013H22.6721V17.2966C22.8821 17.0425 23.213 16.7106 23.7221 16.5438C23.8918 16.4997 24.0887 16.4659 24.3024 16.4659L24.3015 16.465ZM27.7974 19.1397C28.2474 20.9125 29.2974 23.4859 29.9715 24.7309C30.3277 25.3994 31.0402 26.8056 31.3477 28.5109C31.5427 28.5063 31.7574 28.5344 31.988 28.5934C32.798 26.5038 31.3093 24.2575 30.6305 23.6322C30.3521 23.3838 30.338 23.2169 30.474 23.2169C31.2118 23.8806 32.1774 25.1809 32.529 26.6594C32.6902 27.3278 32.7305 28.0422 32.559 28.7491C32.6415 28.7828 32.7249 28.8269 32.813 28.8316C34.1021 29.5019 34.5802 30.0044 34.3505 30.7553V30.7019C34.2783 30.6981 34.1996 30.7019 34.1265 30.7019H34.1068C34.298 30.1169 33.878 29.6669 32.7746 29.1691C31.6318 28.6713 30.7187 28.7491 30.5621 29.7503C30.551 29.8069 30.5448 29.8643 30.5433 29.9219C30.4543 29.9509 30.3671 29.9847 30.2799 29.9997C29.7427 30.3372 29.454 30.8397 29.289 31.4847C29.1277 32.1531 29.079 32.9294 29.0349 33.8238C29.0049 34.2438 28.8202 34.8728 28.6337 35.5122C26.7587 36.8547 24.1562 37.4359 21.9502 35.9322C21.8077 35.6884 21.6418 35.4634 21.4468 35.2637C21.3532 35.1086 21.2365 34.9686 21.1008 34.8484C21.3296 34.8484 21.5255 34.81 21.6821 34.765C21.8609 34.6789 22.0015 34.5296 22.0768 34.3459C22.209 34.0131 22.0768 33.4759 21.6418 32.89C21.2133 32.3097 20.4802 31.6497 19.4105 30.9916C18.6202 30.4938 18.1758 29.9031 17.9705 29.2478C17.7652 28.5794 17.7943 27.8903 17.9508 27.1928C18.2583 25.855 19.0449 24.5519 19.5483 23.7353C19.6796 23.6575 19.5924 23.9069 19.0355 24.9569C18.5415 25.8944 17.6096 28.0769 18.8827 29.7709C18.9317 28.5337 19.2065 27.3158 19.6937 26.1775C20.3958 24.5809 21.8715 21.7984 21.9887 19.5916C22.0477 19.6403 22.2577 19.7631 22.3496 19.8456C22.6187 20.0116 22.823 20.2609 23.0874 20.4269C23.3508 20.6753 23.6827 20.8469 24.1815 20.8469C24.2302 20.8516 24.2743 20.8516 24.3174 20.8516C24.8302 20.8516 25.2315 20.6856 25.5624 20.5188C25.9233 20.3472 26.2177 20.0988 26.4896 20.0163H26.4943C27.0755 19.8503 27.5396 19.5128 27.7983 19.1416L27.7974 19.1397ZM30.5321 30.3372C30.5808 31.0881 30.9624 31.8944 31.6355 32.0594C32.3677 32.2253 33.4271 31.6441 33.8715 31.1031L34.1349 31.0928C34.5296 31.0825 34.8577 31.1031 35.1933 31.4256L35.198 31.4303C35.4568 31.6787 35.5796 32.0941 35.6865 32.5244C35.7943 33.0269 35.8768 33.5003 36.1993 33.8566C36.804 34.5156 37.0046 34.9891 36.9952 35.2825C36.9755 35.6088 36.7599 35.7747 36.3699 36.0241C35.5833 36.5275 34.1874 36.9128 33.2987 37.9881C32.5262 38.9106 31.5849 39.4131 30.7533 39.4769C29.9237 39.5453 29.2055 39.2284 28.7855 38.3547L28.7808 38.35C28.5174 37.8512 28.6299 37.0703 28.8493 36.2397C29.0696 35.4044 29.3865 34.5559 29.4305 33.8669C29.4746 32.9734 29.5233 32.1972 29.6696 31.5953C29.8205 31.0141 30.0558 30.5988 30.4758 30.37L30.5293 30.34L30.5321 30.3372ZM17.0115 30.4H17.0265C17.0949 30.4 17.1587 30.4047 17.2215 30.4197C17.6902 30.4881 18.1055 30.835 18.5012 31.3572L19.6383 33.4375L19.643 33.4422C19.9458 34.1059 20.5852 34.7697 21.1271 35.4887C21.6699 36.235 22.0899 36.9034 22.0412 37.4509V37.4612C21.9671 38.3884 21.4402 38.8909 20.6349 39.0775C19.8287 39.2434 18.7346 39.0775 17.6415 38.4962C16.4312 37.8278 14.9902 37.9103 14.0677 37.7434C13.6093 37.6609 13.3065 37.4894 13.164 37.2409C13.028 36.9925 13.0224 36.4881 13.3205 35.7025V35.6988C13.4668 35.2788 13.3608 34.7566 13.2868 34.2972C13.2183 33.7984 13.1846 33.4122 13.3402 33.1244C13.5399 32.7044 13.838 32.6266 14.2037 32.4559C14.5702 32.29 15.0052 32.2075 15.3465 31.87H15.3512V31.8653C15.669 31.5344 15.909 31.1191 16.1865 30.82C16.4218 30.5659 16.6599 30.4 17.0115 30.4V30.4ZM25.9627 19.0572C25.4199 19.3056 24.7805 19.7256 24.1018 19.7256C23.423 19.7256 22.8905 19.3947 22.5052 19.1444C22.3102 18.9747 22.1537 18.8078 22.0365 18.7244C21.8312 18.5594 21.8555 18.3053 21.9437 18.3053C22.0796 18.3241 22.1049 18.475 22.1921 18.5594C22.3149 18.6419 22.4612 18.8078 22.6412 18.9747C23.0077 19.2231 23.4962 19.5597 24.1008 19.5597C24.7074 19.5597 25.4199 19.2231 25.8493 18.9747C26.093 18.8087 26.4052 18.5594 26.6593 18.3934C26.8543 18.2219 26.8458 18.0559 27.0052 18.0559C27.1665 18.0756 27.0502 18.2219 26.8252 18.4713C26.5955 18.6428 26.244 18.8913 25.9618 19.0572H25.9627ZM24.6099 17.0753V17.0519C24.6052 17.0266 24.624 16.9984 24.6483 16.9881C24.7355 16.9347 24.8724 16.9534 24.9708 16.9928C25.0487 16.9928 25.1705 17.0753 25.1612 17.1625C25.1508 17.2216 25.0533 17.2459 24.9896 17.2459C24.9221 17.2459 24.8724 17.1925 24.8143 17.1588C24.7505 17.1391 24.6277 17.1484 24.609 17.0753H24.6099ZM23.9208 17.0753C23.8955 17.1494 23.7783 17.1391 23.7155 17.1588C23.6565 17.1925 23.6077 17.2459 23.5393 17.2459C23.4755 17.2459 23.3733 17.2206 23.3677 17.1588C23.3593 17.0753 23.4755 16.9928 23.5543 16.9928C23.6565 16.9525 23.783 16.9337 23.8805 16.9881C23.9002 16.9984 23.9255 17.0266 23.9152 17.0519V17.0753H23.9208Z" fill="black"/>
</svg>
