<svg width="50" height="50" viewBox="0 0 50 50" fill="none" xmlns="http://www.w3.org/2000/svg">
<circle cx="25" cy="25" r="25" fill="#F1F2F6"/>
<path d="M35.3125 33.4375C35.313 34.1264 35.1616 34.8069 34.8692 35.4306C34.5767 36.0543 34.1504 36.6059 33.6206 37.0462C33.0907 37.4864 32.4704 37.8044 31.8036 37.9776C31.1369 38.1508 30.4402 38.175 29.763 38.0483C29.0859 37.9216 28.445 37.6473 27.886 37.2448C27.327 36.8422 26.8635 36.3214 26.5286 35.7194C26.1938 35.1174 25.9957 34.449 25.9485 33.7618C25.9013 33.0745 26.0062 32.3853 26.2557 31.7432L20.8536 28.2705C20.203 28.9384 19.3681 29.3972 18.4555 29.5882C17.5429 29.7791 16.594 29.6936 15.7303 29.3425C14.8666 28.9914 14.1271 28.3906 13.6066 27.6171C13.086 26.8436 12.808 25.9324 12.808 25C12.808 24.0676 13.086 23.1564 13.6066 22.3829C14.1271 21.6094 14.8666 21.0087 15.7303 20.6576C16.594 20.3065 17.5429 20.2209 18.4555 20.4119C19.3681 20.6028 20.203 21.0616 20.8536 21.7295L26.2557 18.2568C25.8327 17.1714 25.8279 15.9676 26.2422 14.8789C26.6565 13.7901 27.4603 12.8941 28.4978 12.3644C29.5354 11.8348 30.7326 11.7093 31.8574 12.0124C32.9822 12.3154 33.9544 13.0254 34.5853 14.0046C35.2163 14.9838 35.4612 16.1625 35.2724 17.312C35.0836 18.4615 34.4747 19.4999 33.5637 20.2259C32.6526 20.9518 31.5045 21.3136 30.3418 21.241C29.1792 21.1684 28.085 20.6666 27.2713 19.833L21.8693 23.3056C22.2936 24.3954 22.2936 25.6047 21.8693 26.6944L27.2713 30.1672C27.9215 29.4992 28.7561 29.0404 29.6685 28.8494C30.5809 28.6584 31.5295 28.744 32.3929 29.0952C33.2564 29.4463 33.9954 30.0471 34.5155 30.8207C35.0356 31.5942 35.3131 32.5054 35.3125 33.4375V33.4375Z" fill="url(#paint0_linear)"/>
<ellipse cx="17.1739" cy="25" rx="2.6087" ry="2.6087" fill="#F2F2F2"/>
<circle cx="30.8696" cy="33.4783" r="2.6087" fill="#F2F2F2"/>
<ellipse cx="30.8696" cy="16.5217" rx="2.6087" ry="2.6087" fill="#F2F2F2"/>
<defs>
<linearGradient id="paint0_linear" x1="24.0713" y1="11.8505" x2="24.0713" y2="38.1282" gradientUnits="userSpaceOnUse">
<stop stop-color="#00C6FB"/>
<stop offset="1" stop-color="#005BEA"/>
</linearGradient>
</defs>
</svg>
