<svg width="42" height="45" viewBox="0 0 42 45" fill="none" xmlns="http://www.w3.org/2000/svg">
<path d="M33.7459 4.83305L34.9151 12.2314L41.6425 15.6622L38.25 22.3706L41.6617 29.0789L34.8767 32.5097L33.7075 39.9081L26.2517 38.7389L20.9425 44.0289L15.6142 38.6622L8.21588 39.8889L7.02755 32.4331L0.338379 29.0214L3.75005 22.3131L0.357546 15.6622L7.08505 12.1931L8.25421 4.85222L15.6717 6.07889L21 0.693054L26.3092 6.00222L33.7459 4.83305ZM16.2084 12.7872C15.4459 12.7872 14.7146 13.0901 14.1754 13.6293C13.6363 14.1685 13.3334 14.8997 13.3334 15.6622C13.3334 16.4247 13.6363 17.156 14.1754 17.6952C14.7146 18.2343 15.4459 18.5372 16.2084 18.5372C16.9709 18.5372 17.7021 18.2343 18.2413 17.6952C18.7805 17.156 19.0834 16.4247 19.0834 15.6622C19.0834 14.8997 18.7805 14.1685 18.2413 13.6293C17.7021 13.0901 16.9709 12.7872 16.2084 12.7872ZM25.7917 26.2039C25.0292 26.2039 24.2979 26.5068 23.7588 27.046C23.2196 27.5851 22.9167 28.3164 22.9167 29.0789C22.9167 29.8414 23.2196 30.5727 23.7588 31.1118C24.2979 31.651 25.0292 31.9539 25.7917 31.9539C26.5542 31.9539 27.2855 31.651 27.8246 31.1118C28.3638 30.5727 28.6667 29.8414 28.6667 29.0789C28.6667 28.3164 28.3638 27.5851 27.8246 27.046C27.2855 26.5068 26.5542 26.2039 25.7917 26.2039ZM14.1192 31.9539L30.5834 15.4897L27.8809 12.7872L11.4167 29.2514L14.1192 31.9539Z" fill="url(#paint0_linear)"/>
<defs>
<linearGradient id="paint0_linear" x1="21" y1="0.693054" x2="21" y2="44.0289" gradientUnits="userSpaceOnUse">
<stop stop-color="#FA709A"/>
<stop offset="1" stop-color="#FEE140"/>
</linearGradient>
</defs>
</svg>
