<svg width="50" height="50" viewBox="0 0 50 50" fill="none" xmlns="http://www.w3.org/2000/svg">
<circle cx="25" cy="25" r="25" fill="#F1F2F6"/>
<path fill-rule="evenodd" clip-rule="evenodd" d="M39.8575 17.0856C39.8575 9.93056 28.3507 10.1687 24.3194 10.1687C20.2844 10.1687 10.0713 10.2549 10.0713 17.4118H17.4007L17.4082 15.6174C17.4082 14.7962 18.3063 13.6918 20.32 13.6918H29.7194C31.6807 13.6918 32.6013 14.7962 32.6013 15.6174C32.6013 15.9062 32.6163 17.3556 32.6163 17.4118H39.8538L39.8575 17.0856Z" fill="url(#paint0_linear)"/>
<path fill-rule="evenodd" clip-rule="evenodd" d="M19.3507 27.5086C19.3452 27.8206 19.2162 28.1177 18.9919 28.3346C18.7676 28.5515 18.4664 28.6705 18.1544 28.6655H16.8475C16.6929 28.6682 16.5392 28.6405 16.3953 28.5838C16.2514 28.5271 16.1201 28.4427 16.0088 28.3352C15.8976 28.2278 15.8086 28.0995 15.7469 27.9577C15.6852 27.8158 15.6521 27.6632 15.6494 27.5086V26.2411C15.6494 25.6017 16.1857 25.0842 16.8475 25.0842H18.1544C18.8144 25.0842 19.3507 25.6017 19.3507 26.2411V27.5086Z" fill="url(#paint1_linear)"/>
<path fill-rule="evenodd" clip-rule="evenodd" d="M34.3283 27.5219C34.3285 27.6792 34.2977 27.835 34.2375 27.9804C34.1774 28.1257 34.0891 28.2578 33.9778 28.369C33.8665 28.4801 33.7343 28.5682 33.5888 28.6281C33.4433 28.688 33.2875 28.7186 33.1302 28.7181H31.8252C31.668 28.7184 31.5123 28.6876 31.3671 28.6276C31.2218 28.5675 31.0899 28.4794 30.9787 28.3683C30.8676 28.2572 30.7795 28.1252 30.7195 27.9799C30.6594 27.8347 30.6287 27.679 30.6289 27.5219V26.215C30.6289 25.5531 31.1633 25.0187 31.8252 25.0187H33.1302C33.7939 25.0187 34.3283 25.5531 34.3283 26.215V27.5219Z" fill="url(#paint2_linear)"/>
<path fill-rule="evenodd" clip-rule="evenodd" d="M26.8488 27.5292C26.849 27.6864 26.8183 27.8421 26.7582 27.9873C26.6982 28.1326 26.6101 28.2645 26.499 28.3757C26.3878 28.4868 26.2559 28.5749 26.1106 28.6349C25.9654 28.695 25.8097 28.7257 25.6525 28.7255H24.3438C24.1868 28.7255 24.0313 28.6945 23.8863 28.6344C23.7413 28.5743 23.6095 28.4861 23.4986 28.375C23.3876 28.2639 23.2997 28.132 23.2398 27.9869C23.1799 27.8418 23.1492 27.6863 23.1494 27.5292V26.2224C23.1494 25.5605 23.6838 25.0261 24.3438 25.0261H25.6525C26.3144 25.0261 26.8488 25.5605 26.8488 26.2224V27.5292Z" fill="url(#paint3_linear)"/>
<path fill-rule="evenodd" clip-rule="evenodd" d="M19.3038 33.13C19.305 33.2859 19.2756 33.4404 19.2171 33.5849C19.1586 33.7294 19.0722 33.8609 18.9628 33.972C18.8535 34.0831 18.7233 34.1715 18.5798 34.2323C18.4363 34.2931 18.2822 34.325 18.1263 34.3263H16.8401C16.684 34.3253 16.5297 34.2935 16.386 34.2329C16.2422 34.1722 16.1119 34.0838 16.0023 33.9727C15.8928 33.8616 15.8062 33.7299 15.7476 33.5853C15.689 33.4408 15.6595 33.286 15.6607 33.13V31.8231C15.6607 31.1594 16.1876 30.625 16.8401 30.625H18.1263C18.7769 30.625 19.3038 31.1594 19.3038 31.8231V33.13Z" fill="url(#paint4_linear)"/>
<path fill-rule="evenodd" clip-rule="evenodd" d="M34.2681 33.1487C34.2698 33.3021 34.2412 33.4543 34.184 33.5966C34.1267 33.7389 34.0419 33.8685 33.9344 33.9779C33.8269 34.0873 33.6988 34.1744 33.5575 34.2342C33.4163 34.2939 33.2646 34.3252 33.1112 34.3262H31.8437C31.6903 34.3252 31.5386 34.2939 31.3974 34.2342C31.2561 34.1744 31.1281 34.0873 31.0206 33.9779C30.9131 33.8685 30.8282 33.7389 30.771 33.5966C30.7137 33.4543 30.6851 33.3021 30.6868 33.1487V31.8624C30.6868 31.2081 31.2025 30.6831 31.8437 30.6831H33.1112C33.7525 30.6831 34.2681 31.2081 34.2681 31.8624V33.1487Z" fill="url(#paint5_linear)"/>
<path fill-rule="evenodd" clip-rule="evenodd" d="M26.8413 33.1487C26.8406 33.3045 26.809 33.4587 26.7486 33.6023C26.6881 33.746 26.5998 33.8762 26.4888 33.9857C26.3778 34.0951 26.2463 34.1815 26.1018 34.2399C25.9574 34.2984 25.8028 34.3277 25.6469 34.3262H24.34C24.1841 34.3277 24.0294 34.2984 23.8848 34.24C23.7403 34.1815 23.6086 34.0952 23.4975 33.9858C23.3864 33.8764 23.2979 33.7461 23.2372 33.6025C23.1765 33.4588 23.1448 33.3046 23.1438 33.1487V31.8624C23.1438 31.2081 23.6782 30.6831 24.34 30.6831H25.6469C26.3088 30.6831 26.8413 31.2081 26.8413 31.8624V33.1487Z" fill="url(#paint6_linear)"/>
<path fill-rule="evenodd" clip-rule="evenodd" d="M19.3619 38.7755C19.3594 38.9302 19.3266 39.0828 19.2651 39.2247C19.2037 39.3667 19.1149 39.4951 19.0038 39.6027C18.8927 39.7103 18.7615 39.795 18.6177 39.8519C18.4739 39.9088 18.3203 39.9368 18.1656 39.9343H16.8588C16.704 39.937 16.5502 39.9092 16.4061 39.8524C16.2621 39.7956 16.1307 39.711 16.0194 39.6034C15.9081 39.4958 15.8191 39.3672 15.7576 39.2252C15.696 39.0831 15.6631 38.9303 15.6606 38.7755V37.508C15.6606 36.8687 16.1969 36.3512 16.8588 36.3512H18.1656C18.8256 36.3512 19.3619 36.8687 19.3619 37.508V38.7755Z" fill="url(#paint7_linear)"/>
<path fill-rule="evenodd" clip-rule="evenodd" d="M34.3283 38.7943C34.3285 38.9517 34.2977 39.1076 34.2376 39.2531C34.1775 39.3986 34.0892 39.5308 33.9779 39.6421C33.8666 39.7534 33.7344 39.8416 33.589 39.9017C33.4435 39.9619 33.2876 39.9927 33.1302 39.9924H31.8252C31.6678 39.9927 31.512 39.9619 31.3667 39.9017C31.2213 39.8416 31.0892 39.7533 30.9781 39.642C30.8669 39.5306 30.7788 39.3984 30.7189 39.253C30.659 39.1075 30.6284 38.9516 30.6289 38.7943V37.4874C30.6289 36.8256 31.1633 36.2912 31.8252 36.2912H33.1302C33.7939 36.2912 34.3283 36.8256 34.3283 37.4874V38.7943Z" fill="url(#paint8_linear)"/>
<path fill-rule="evenodd" clip-rule="evenodd" d="M26.8412 38.7943C26.8432 38.9503 26.8143 39.1052 26.7562 39.25C26.6981 39.3947 26.6119 39.5266 26.5027 39.638C26.3934 39.7493 26.2632 39.838 26.1195 39.8988C25.9759 39.9596 25.8216 39.9915 25.6656 39.9924H24.3793C24.2233 39.9915 24.0691 39.9596 23.9254 39.8988C23.7817 39.838 23.6515 39.7493 23.5423 39.638C23.433 39.5266 23.3468 39.3947 23.2887 39.25C23.2306 39.1052 23.2017 38.9503 23.2037 38.7943V37.4874C23.2037 36.8256 23.7268 36.2912 24.3793 36.2912H25.6656C26.3181 36.2912 26.8412 36.8256 26.8412 37.4874V38.7943Z" fill="url(#paint9_linear)"/>
<path fill-rule="evenodd" clip-rule="evenodd" d="M11.8601 21.1994H15.6982C15.6982 21.1994 17.0239 21.6269 17.3614 19.375H10.1257C10.4389 21.4619 11.8601 21.1994 11.8601 21.1994Z" fill="url(#paint10_linear)"/>
<path fill-rule="evenodd" clip-rule="evenodd" d="M32.7156 19.375C33.1075 21.3494 34.5212 21.1994 34.5212 21.1994H38.0668C38.0668 21.1994 39.4881 21.22 39.835 19.375H32.7156Z" fill="url(#paint11_linear)"/>
<defs>
<linearGradient id="paint0_linear" x1="24.9644" y1="10.1678" x2="24.9644" y2="17.4118" gradientUnits="userSpaceOnUse">
<stop stop-color="#CBBACC"/>
<stop offset="1" stop-color="#2580B3"/>
</linearGradient>
<linearGradient id="paint1_linear" x1="17.5" y1="25.0842" x2="17.5" y2="28.6657" gradientUnits="userSpaceOnUse">
<stop stop-color="#CBBACC"/>
<stop offset="1" stop-color="#2580B3"/>
</linearGradient>
<linearGradient id="paint2_linear" x1="32.4786" y1="25.0187" x2="32.4786" y2="28.7181" gradientUnits="userSpaceOnUse">
<stop stop-color="#CBBACC"/>
<stop offset="1" stop-color="#2580B3"/>
</linearGradient>
<linearGradient id="paint3_linear" x1="24.9991" y1="25.0261" x2="24.9991" y2="28.7255" gradientUnits="userSpaceOnUse">
<stop stop-color="#CBBACC"/>
<stop offset="1" stop-color="#2580B3"/>
</linearGradient>
<linearGradient id="paint4_linear" x1="17.4822" y1="30.625" x2="17.4822" y2="34.3263" gradientUnits="userSpaceOnUse">
<stop stop-color="#CBBACC"/>
<stop offset="1" stop-color="#2580B3"/>
</linearGradient>
<linearGradient id="paint5_linear" x1="32.4775" y1="30.6831" x2="32.4775" y2="34.3262" gradientUnits="userSpaceOnUse">
<stop stop-color="#CBBACC"/>
<stop offset="1" stop-color="#2580B3"/>
</linearGradient>
<linearGradient id="paint6_linear" x1="24.9925" y1="30.6831" x2="24.9925" y2="34.3263" gradientUnits="userSpaceOnUse">
<stop stop-color="#CBBACC"/>
<stop offset="1" stop-color="#2580B3"/>
</linearGradient>
<linearGradient id="paint7_linear" x1="17.5113" y1="36.3512" x2="17.5113" y2="39.9345" gradientUnits="userSpaceOnUse">
<stop stop-color="#CBBACC"/>
<stop offset="1" stop-color="#2580B3"/>
</linearGradient>
<linearGradient id="paint8_linear" x1="32.4786" y1="36.2912" x2="32.4786" y2="39.9924" gradientUnits="userSpaceOnUse">
<stop stop-color="#CBBACC"/>
<stop offset="1" stop-color="#2580B3"/>
</linearGradient>
<linearGradient id="paint9_linear" x1="25.0225" y1="36.2912" x2="25.0225" y2="39.9924" gradientUnits="userSpaceOnUse">
<stop stop-color="#CBBACC"/>
<stop offset="1" stop-color="#2580B3"/>
</linearGradient>
<linearGradient id="paint10_linear" x1="13.7436" y1="19.375" x2="13.7436" y2="21.2318" gradientUnits="userSpaceOnUse">
<stop stop-color="#CBBACC"/>
<stop offset="1" stop-color="#2580B3"/>
</linearGradient>
<linearGradient id="paint11_linear" x1="36.2753" y1="19.375" x2="36.2753" y2="21.202" gradientUnits="userSpaceOnUse">
<stop stop-color="#CBBACC"/>
<stop offset="1" stop-color="#2580B3"/>
</linearGradient>
</defs>
</svg>
