<svg width="50" height="50" viewBox="0 0 50 50" fill="none" xmlns="http://www.w3.org/2000/svg">
<circle cx="25" cy="25" r="25" fill="#F1F2F6"/>
<g clip-path="url(#clip0)">
<path d="M29.6875 25H20.3125C19.8154 25.0005 19.3387 25.1982 18.9872 25.5497C18.6357 25.9012 18.438 26.3779 18.4375 26.875V32.5C18.438 32.9971 18.6357 33.4738 18.9872 33.8253C19.3387 34.1768 19.8154 34.3745 20.3125 34.375H24.0625V36.25H21.25V38.125H28.75V36.25H25.9375V34.375H29.6875C30.1846 34.3745 30.6613 34.1768 31.0128 33.8253C31.3643 33.4738 31.562 32.9971 31.5625 32.5V26.875C31.562 26.3779 31.3643 25.9012 31.0128 25.5497C30.6613 25.1982 30.1846 25.0005 29.6875 25V25ZM20.3125 32.5V26.875H29.6875L29.6894 32.5H20.3125Z" fill="url(#paint0_linear)"/>
<path d="M34.2081 19.4913C33.7984 17.3493 32.6548 15.4171 30.9741 14.0273C29.2934 12.6376 27.1808 11.8773 24.9999 11.8773C22.8191 11.8773 20.7065 12.6376 19.0258 14.0273C17.3451 15.4171 16.2015 17.3493 15.7918 19.4913C14.1024 19.792 12.5816 20.7008 11.5164 22.0462C10.4513 23.3915 9.91554 25.0803 10.0104 26.7936C10.1052 28.5069 10.8241 30.1262 12.0312 31.3458C13.2383 32.5654 14.8502 33.3008 16.5624 33.4132V31.5382C15.273 31.42 14.0753 30.8205 13.2079 29.8592C12.3405 28.8978 11.8669 27.6451 11.8815 26.3503C11.896 25.0555 12.3976 23.8137 13.2864 22.8721C14.1752 21.9304 15.386 21.358 16.6778 21.2688L17.4624 21.2163L17.5468 20.4344C17.7488 18.5989 18.6211 16.9025 19.9964 15.6702C21.3717 14.438 23.1533 13.7566 24.9999 13.7566C26.8465 13.7566 28.6282 14.438 30.0035 15.6702C31.3788 16.9025 32.2511 18.5989 32.4531 20.4344L32.5374 21.2163L33.3221 21.2688C34.615 21.3566 35.8273 21.9285 36.7174 22.8703C37.6074 23.8122 38.1098 25.0549 38.1243 26.3507C38.1389 27.6465 37.6645 28.9002 36.7959 29.8618C35.9272 30.8234 34.728 31.4223 33.4374 31.5391V33.4141C35.1504 33.3026 36.7633 32.5676 37.9712 31.3479C39.1791 30.1281 39.8985 28.5083 39.9934 26.7943C40.0882 25.0803 39.552 23.3909 38.4861 22.0453C37.4202 20.6997 35.8983 19.7912 34.2081 19.4913V19.4913Z" fill="url(#paint1_linear)"/>
</g>
<defs>
<linearGradient id="paint0_linear" x1="25" y1="25" x2="25" y2="38.125" gradientUnits="userSpaceOnUse">
<stop stop-color="#16A085"/>
<stop offset="1" stop-color="#F4D03F"/>
</linearGradient>
<linearGradient id="paint1_linear" x1="25.0019" y1="11.8773" x2="25.0019" y2="33.4141" gradientUnits="userSpaceOnUse">
<stop stop-color="#16A085"/>
<stop offset="1" stop-color="#F4D03F"/>
</linearGradient>
<clipPath id="clip0">
<rect width="30" height="30" fill="white" transform="translate(10 10)"/>
</clipPath>
</defs>
</svg>
