<svg width="164" height="142" viewBox="0 0 164 142" fill="none" xmlns="http://www.w3.org/2000/svg">
<path d="M159.341 45H4.65909C3.42386 44.999 2.23966 44.6395 1.36622 44.0003C0.49278 43.3612 0.00143038 42.4947 0 41.5909V3.40909C0.00143284 2.50527 0.492781 1.63877 1.36622 0.999673C2.23966 0.360571 3.42386 0.00104842 4.65909 0H159.341C160.576 0.00103401 161.76 0.360547 162.634 0.999652C163.507 1.63876 163.999 2.50526 164 3.40909V41.5909C163.999 42.4947 163.507 43.3613 162.634 44.0004C161.76 44.6395 160.576 44.999 159.341 45Z" fill="#3F3D56"/>
<path d="M65.2273 13.9773H24.2273V18.6364H65.2273V13.9773Z" fill="white"/>
<path d="M119.273 19.5682C120.817 19.5682 122.068 18.3166 122.068 16.7727C122.068 15.2289 120.817 13.9773 119.273 13.9773C117.729 13.9773 116.477 15.2289 116.477 16.7727C116.477 18.3166 117.729 19.5682 119.273 19.5682Z" fill="url(#paint0_linear)"/>
<path d="M128.591 19.5682C130.135 19.5682 131.386 18.3166 131.386 16.7727C131.386 15.2289 130.135 13.9773 128.591 13.9773C127.047 13.9773 125.795 15.2289 125.795 16.7727C125.795 18.3166 127.047 19.5682 128.591 19.5682Z" fill="url(#paint1_linear)"/>
<path d="M137.909 19.5682C139.453 19.5682 140.705 18.3166 140.705 16.7727C140.705 15.2289 139.453 13.9773 137.909 13.9773C136.365 13.9773 135.114 15.2289 135.114 16.7727C135.114 18.3166 136.365 19.5682 137.909 19.5682Z" fill="url(#paint2_linear)"/>
<path d="M159.341 93H4.65909C3.42386 92.999 2.23966 92.6475 1.36622 92.0226C0.49278 91.3977 0.00143038 90.5504 0 89.6667V52.3333C0.00143284 51.4496 0.492781 50.6024 1.36622 49.9775C2.23966 49.3526 3.42386 49.001 4.65909 49H159.341C160.576 49.001 161.76 49.3525 162.634 49.9774C163.507 50.6023 163.999 51.4496 164 52.3333V89.6667C163.999 90.5504 163.507 91.3977 162.634 92.0226C161.76 92.6475 160.576 92.999 159.341 93Z" fill="#3F3D56"/>
<path d="M65.2271 62.1364H24.2271V66.7954H65.2271V62.1364Z" fill="white"/>
<path d="M119.273 67.5909C120.816 67.5909 122.068 66.3393 122.068 64.7955C122.068 63.2516 120.816 62 119.273 62C117.729 62 116.477 63.2516 116.477 64.7955C116.477 66.3393 117.729 67.5909 119.273 67.5909Z" fill="url(#paint3_linear)"/>
<path d="M128.591 67.5909C130.135 67.5909 131.386 66.3393 131.386 64.7955C131.386 63.2516 130.135 62 128.591 62C127.047 62 125.795 63.2516 125.795 64.7955C125.795 66.3393 127.047 67.5909 128.591 67.5909Z" fill="url(#paint4_linear)"/>
<path d="M137.909 67.5909C139.453 67.5909 140.705 66.3393 140.705 64.7955C140.705 63.2516 139.453 62 137.909 62C136.365 62 135.114 63.2516 135.114 64.7955C135.114 66.3393 136.365 67.5909 137.909 67.5909Z" fill="url(#paint5_linear)"/>
<path d="M159.341 142H4.65909C3.42386 141.999 2.23966 141.639 1.36622 141C0.49278 140.361 0.00143038 139.495 0 138.591V100.409C0.00143284 99.5053 0.492781 98.6388 1.36622 97.9997C2.23966 97.3606 3.42386 97.001 4.65909 97H159.341C160.576 97.001 161.76 97.3605 162.634 97.9997C163.507 98.6388 163.999 99.5053 164 100.409V138.591C163.999 139.495 163.507 140.361 162.634 141C161.76 141.639 160.576 141.999 159.341 142Z" fill="#3F3D56"/>
<path d="M65.2271 110H24.2271V114.659H65.2271V110Z" fill="white"/>
<path d="M119.273 115.591C120.816 115.591 122.068 114.339 122.068 112.795C122.068 111.252 120.816 110 119.273 110C117.729 110 116.477 111.252 116.477 112.795C116.477 114.339 117.729 115.591 119.273 115.591Z" fill="url(#paint6_linear)"/>
<path d="M128.591 115.591C130.135 115.591 131.386 114.339 131.386 112.795C131.386 111.252 130.135 110 128.591 110C127.047 110 125.795 111.252 125.795 112.795C125.795 114.339 127.047 115.591 128.591 115.591Z" fill="url(#paint7_linear)"/>
<path d="M137.909 115.591C139.453 115.591 140.705 114.339 140.705 112.795C140.705 111.252 139.453 110 137.909 110C136.365 110 135.114 111.252 135.114 112.795C135.114 114.339 136.365 115.591 137.909 115.591Z" fill="url(#paint8_linear)"/>
<defs>
<linearGradient id="paint0_linear" x1="119.273" y1="13.9773" x2="119.273" y2="19.5682" gradientUnits="userSpaceOnUse">
<stop stop-color="#CBBACC"/>
<stop offset="1" stop-color="#2580B3"/>
</linearGradient>
<linearGradient id="paint1_linear" x1="128.591" y1="13.9773" x2="128.591" y2="19.5682" gradientUnits="userSpaceOnUse">
<stop stop-color="#CBBACC"/>
<stop offset="1" stop-color="#2580B3"/>
</linearGradient>
<linearGradient id="paint2_linear" x1="137.909" y1="13.9773" x2="137.909" y2="19.5682" gradientUnits="userSpaceOnUse">
<stop stop-color="#CBBACC"/>
<stop offset="1" stop-color="#2580B3"/>
</linearGradient>
<linearGradient id="paint3_linear" x1="119.273" y1="62" x2="119.273" y2="67.5909" gradientUnits="userSpaceOnUse">
<stop stop-color="#CBBACC"/>
<stop offset="1" stop-color="#2580B3"/>
</linearGradient>
<linearGradient id="paint4_linear" x1="128.591" y1="62" x2="128.591" y2="67.5909" gradientUnits="userSpaceOnUse">
<stop stop-color="#CBBACC"/>
<stop offset="1" stop-color="#2580B3"/>
</linearGradient>
<linearGradient id="paint5_linear" x1="137.909" y1="62" x2="137.909" y2="67.5909" gradientUnits="userSpaceOnUse">
<stop stop-color="#CBBACC"/>
<stop offset="1" stop-color="#2580B3"/>
</linearGradient>
<linearGradient id="paint6_linear" x1="119.273" y1="110" x2="119.273" y2="115.591" gradientUnits="userSpaceOnUse">
<stop stop-color="#CBBACC"/>
<stop offset="1" stop-color="#2580B3"/>
</linearGradient>
<linearGradient id="paint7_linear" x1="128.591" y1="110" x2="128.591" y2="115.591" gradientUnits="userSpaceOnUse">
<stop stop-color="#CBBACC"/>
<stop offset="1" stop-color="#2580B3"/>
</linearGradient>
<linearGradient id="paint8_linear" x1="137.909" y1="110" x2="137.909" y2="115.591" gradientUnits="userSpaceOnUse">
<stop stop-color="#CBBACC"/>
<stop offset="1" stop-color="#2580B3"/>
</linearGradient>
</defs>
</svg>
