<svg width="164" height="114" viewBox="0 0 164 114" fill="none" xmlns="http://www.w3.org/2000/svg">
<path d="M81.8115 113.261C112.972 113.261 138.232 88.0009 138.232 56.8405C138.232 25.6801 112.972 0.419647 81.8115 0.419647C50.6511 0.419647 25.3906 25.6801 25.3906 56.8405C25.3906 88.0009 50.6511 113.261 81.8115 113.261Z" fill="white"/>
<path d="M24.9709 56.8405C24.9709 25.4986 50.4694 0 81.8114 0C113.153 0 138.652 25.4986 138.652 56.8405C138.652 88.1825 113.153 113.681 81.8114 113.681C50.4694 113.681 24.9709 88.1825 24.9709 56.8405ZM25.8102 56.8405C25.8102 87.7197 50.9323 112.842 81.8114 112.842C112.691 112.842 137.813 87.7196 137.813 56.8405C137.813 25.9614 112.691 0.839309 81.8114 0.839309C50.9322 0.839309 25.8102 25.9614 25.8102 56.8405H25.8102Z" fill="#3F3D56"/>
<path d="M71.7539 57.0859C71.7539 55.0966 72.3438 53.1521 73.4489 51.4981C74.5541 49.8442 76.1249 48.555 77.9626 47.7938C79.8004 47.0326 81.8227 46.8334 83.7737 47.2215C85.7247 47.6095 87.5168 48.5674 88.9234 49.974C90.33 51.3806 91.2879 53.1727 91.6759 55.1237C92.064 57.0747 91.8648 59.097 91.1036 60.9347C90.3424 62.7725 89.0532 64.3433 87.3993 65.4485C85.7453 66.5536 83.8008 67.1435 81.8116 67.1435C79.1441 67.1435 76.5859 66.0838 74.6997 64.1977C72.8135 62.3115 71.7539 59.7533 71.7539 57.0859V57.0859ZM81.8116 47.5188C79.2751 47.5217 76.8433 48.5306 75.0498 50.3241C73.2562 52.1177 72.2474 54.5494 72.2445 57.0859C72.2445 58.9781 72.8056 60.8277 73.8569 62.401C74.9081 63.9743 76.4023 65.2005 78.1504 65.9246C79.8985 66.6488 81.8222 66.8382 83.678 66.4691C85.5338 66.0999 87.2385 65.1887 88.5765 63.8508C89.9144 62.5128 90.8256 60.8081 91.1947 58.9523C91.5639 57.0965 91.3744 55.1729 90.6503 53.4247C89.9262 51.6766 88.7 50.1824 87.1267 49.1312C85.5534 48.0799 83.7037 47.5188 81.8116 47.5188Z" fill="#3F3D56"/>
<path d="M62.6774 57.0858C62.6774 53.3015 63.7996 49.6021 65.902 46.4555C68.0045 43.3089 70.9929 40.8565 74.4891 39.4083C77.9854 37.9601 81.8326 37.5812 85.5443 38.3194C89.2559 39.0577 92.6653 40.8801 95.3412 43.556C98.0172 46.232 99.8395 49.6413 100.578 53.353C101.316 57.0646 100.937 60.9118 99.489 64.4081C98.0407 67.9044 95.5883 70.8927 92.4417 72.9952C89.2951 75.0977 85.5958 76.2199 81.8114 76.2199C79.2987 76.2199 76.8106 75.725 74.4891 74.7634C72.1677 73.8018 70.0583 72.3924 68.2816 70.6156C66.5048 68.8389 65.0954 66.7296 64.1338 64.4081C63.1723 62.0867 62.6774 59.5985 62.6774 57.0858V57.0858ZM81.8114 38.4424C78.1241 38.4424 74.5196 39.5358 71.4537 41.5844C68.3878 43.6329 65.9982 46.5447 64.5871 49.9513C63.176 53.3579 62.8068 57.1065 63.5262 60.723C64.2456 64.3395 66.0212 67.6614 68.6285 70.2687C71.2358 72.876 74.5578 74.6517 78.1742 75.371C81.7907 76.0904 85.5393 75.7212 88.9459 74.3101C92.3526 72.899 95.2643 70.5095 97.3128 67.4436C99.3614 64.3777 100.455 60.7732 100.455 57.0858C100.449 52.143 98.4833 47.4042 94.9881 43.9091C91.493 40.414 86.7542 38.448 81.8114 38.4424Z" fill="#CCCCCC"/>
<path d="M44.5247 57.0858C44.5247 49.7112 46.7115 42.5021 50.8086 36.3704C54.9058 30.2386 60.7292 25.4594 67.5425 22.6373C74.3558 19.8151 81.8529 19.0767 89.0858 20.5154C96.3188 21.9541 102.963 25.5054 108.177 30.72C113.392 35.9347 116.943 42.5786 118.382 49.8115C119.821 57.0445 119.082 64.5416 116.26 71.3549C113.438 78.1682 108.659 83.9916 102.527 88.0887C96.3952 92.1859 89.1862 94.3727 81.8115 94.3727C71.9259 94.3615 62.4483 90.4295 55.4581 83.4393C48.4678 76.4491 44.5358 66.9715 44.5247 57.0858ZM81.8115 20.2896C74.5339 20.2896 67.4197 22.4477 61.3686 26.4909C55.3175 30.5341 50.6012 36.2809 47.8162 43.0045C45.0312 49.7282 44.3025 57.1267 45.7223 64.2644C47.1421 71.4022 50.6466 77.9587 55.7927 83.1047C60.9387 88.2508 67.4952 91.7553 74.6329 93.175C81.7707 94.5948 89.1692 93.8661 95.8928 91.0811C102.616 88.2961 108.363 83.5798 112.406 77.5287C116.45 71.4776 118.608 64.3635 118.608 57.0858C118.597 47.3303 114.716 37.9774 107.818 31.0792C100.92 24.1809 91.5671 20.3006 81.8115 20.2896Z" fill="#CCCCCC"/>
<path d="M81.8114 61.5014C84.3855 61.5014 86.4723 59.4147 86.4723 56.8405C86.4723 54.2664 84.3855 52.1797 81.8114 52.1797C79.2373 52.1797 77.1506 54.2664 77.1506 56.8405C77.1506 59.4147 79.2373 61.5014 81.8114 61.5014Z" fill="url(#paint0_linear)"/>
<path d="M69.7913 74.9933C72.3655 74.9933 74.4522 72.9066 74.4522 70.3325C74.4522 67.7584 72.3655 65.6716 69.7913 65.6716C67.2172 65.6716 65.1305 67.7584 65.1305 70.3325C65.1305 72.9066 67.2172 74.9933 69.7913 74.9933Z" fill="url(#paint1_linear)"/>
<path d="M116.686 73.0309C119.26 73.0309 121.346 70.9442 121.346 68.3701C121.346 65.7959 119.26 63.7092 116.686 63.7092C114.112 63.7092 112.025 65.7959 112.025 68.3701C112.025 70.9442 114.112 73.0309 116.686 73.0309Z" fill="url(#paint2_linear)"/>
<path d="M81.8115 59.0483C83.0308 59.0483 84.0192 58.0598 84.0192 56.8405C84.0192 55.6212 83.0308 54.6328 81.8115 54.6328C80.5922 54.6328 79.6037 55.6212 79.6037 56.8405C79.6037 58.0598 80.5922 59.0483 81.8115 59.0483Z" fill="#2F2E41"/>
<path d="M116.686 70.5778C117.905 70.5778 118.893 69.5894 118.893 68.37C118.893 67.1507 117.905 66.1623 116.686 66.1623C115.466 66.1623 114.478 67.1507 114.478 68.37C114.478 69.5894 115.466 70.5778 116.686 70.5778Z" fill="#2F2E41"/>
<path d="M69.7913 72.7856C71.0106 72.7856 71.9991 71.7971 71.9991 70.5778C71.9991 69.3585 71.0106 68.37 69.7913 68.37C68.572 68.37 67.5836 69.3585 67.5836 70.5778C67.5836 71.7971 68.572 72.7856 69.7913 72.7856Z" fill="#2F2E41"/>
<path d="M6.37806 34.2722C7.59738 34.2722 8.58583 33.2837 8.58583 32.0644C8.58583 30.8451 7.59738 29.8566 6.37806 29.8566C5.15874 29.8566 4.17029 30.8451 4.17029 32.0644C4.17029 33.2837 5.15874 34.2722 6.37806 34.2722Z" fill="url(#paint3_linear)"/>
<path d="M81.7536 32.1203H12.6313V31.6298H82.1039V56.8925H81.7536V32.1203Z" fill="#2F2E41"/>
<path d="M0 32.0644C-1.31486e-06 30.8029 0.374062 29.5698 1.07489 28.5209C1.77571 27.4721 2.77182 26.6546 3.93725 26.1718C5.10268 25.6891 6.38509 25.5628 7.6223 25.8089C8.85952 26.055 9.99597 26.6624 10.888 27.5544C11.7799 28.4464 12.3874 29.5829 12.6335 30.8201C12.8796 32.0573 12.7533 33.3397 12.2705 34.5051C11.7878 35.6705 10.9703 36.6667 9.92146 37.3675C8.8726 38.0683 7.63948 38.4424 6.37803 38.4424C5.54045 38.4424 4.71108 38.2774 3.93726 37.9569C3.16344 37.6364 2.46034 37.1666 1.86808 36.5743C1.27583 35.9821 0.806021 35.279 0.485495 34.5051C0.164969 33.7313 -4.3652e-07 32.9019 0 32.0644ZM6.37803 26.177C5.21361 26.177 4.07534 26.5223 3.10716 27.1692C2.13898 27.8161 1.38438 28.7356 0.938772 29.8114C0.493168 30.8871 0.376575 32.0709 0.603741 33.2129C0.830906 34.355 1.39163 35.404 2.215 36.2274C3.03836 37.0508 4.08739 37.6115 5.22944 37.8386C6.37148 38.0658 7.55524 37.9492 8.63102 37.5036C9.70681 37.058 10.6263 36.3034 11.2732 35.3352C11.9201 34.3671 12.2654 33.2288 12.2654 32.0644C12.2636 30.5035 11.6428 29.007 10.5391 27.9033C9.43536 26.7996 7.93891 26.1788 6.37803 26.177Z" fill="#2F2E41"/>
<path d="M16.3502 97.807C17.5695 97.807 18.558 96.8185 18.558 95.5992C18.558 94.3799 17.5695 93.3914 16.3502 93.3914C15.1309 93.3914 14.1425 94.3799 14.1425 95.5992C14.1425 96.8185 15.1309 97.807 16.3502 97.807Z" fill="url(#paint4_linear)"/>
<path d="M9.97211 95.5992C9.97211 94.3378 10.3462 93.1047 11.047 92.0558C11.7478 91.0069 12.7439 90.1895 13.9094 89.7067C15.0748 89.224 16.3572 89.0977 17.5944 89.3438C18.8316 89.5899 19.9681 90.1973 20.8601 91.0893C21.752 91.9813 22.3595 93.1177 22.6056 94.3549C22.8517 95.5922 22.7254 96.8746 22.2426 98.04C21.7599 99.2054 20.9424 100.202 19.8936 100.902C18.8447 101.603 17.6116 101.977 16.3501 101.977C14.6586 101.977 13.0363 101.305 11.8402 100.109C10.6441 98.9131 9.97211 97.2908 9.97211 95.5992ZM16.3501 89.7118C15.1857 89.7118 14.0474 90.0571 13.0793 90.704C12.1111 91.351 11.3565 92.2704 10.9109 93.3462C10.4653 94.422 10.3487 95.6058 10.5758 96.7478C10.803 97.8898 11.3637 98.9389 12.1871 99.7622C13.0105 100.586 14.0595 101.146 15.2015 101.374C16.3436 101.601 17.5273 101.484 18.6031 101.038C19.6789 100.593 20.5984 99.8383 21.2453 98.8701C21.8922 97.9019 22.2375 96.7637 22.2375 95.5992C22.2357 94.0384 21.6149 92.5419 20.5112 91.4382C19.4074 90.3345 17.911 89.7136 16.3501 89.7118Z" fill="#2F2E41"/>
<path d="M157.622 44.5751C158.841 44.5751 159.83 43.5867 159.83 42.3673C159.83 41.148 158.841 40.1596 157.622 40.1596C156.403 40.1596 155.414 41.148 155.414 42.3673C155.414 43.5867 156.403 44.5751 157.622 44.5751Z" fill="url(#paint5_linear)"/>
<path d="M151.244 42.3674C151.244 41.1059 151.618 39.8728 152.319 38.8239C153.02 37.7751 154.016 36.9576 155.181 36.4749C156.347 35.9921 157.629 35.8658 158.866 36.1119C160.103 36.358 161.24 36.9655 162.132 37.8574C163.024 38.7494 163.631 39.8859 163.877 41.1231C164.123 42.3603 163.997 43.6427 163.514 44.8081C163.032 45.9736 162.214 46.9697 161.165 47.6705C160.116 48.3713 158.883 48.7454 157.622 48.7454C156.784 48.7454 155.955 48.5804 155.181 48.2599C154.407 47.9394 153.704 47.4696 153.112 46.8773C152.52 46.2851 152.05 45.5819 151.729 44.8081C151.409 44.0343 151.244 43.2049 151.244 42.3674ZM157.622 36.48C156.061 36.4818 154.565 37.1026 153.461 38.2063C152.357 39.31 151.736 40.8065 151.735 42.3674C151.735 43.5318 152.08 44.67 152.727 45.6382C153.374 46.6064 154.293 47.361 155.369 47.8066C156.445 48.2522 157.628 48.3688 158.771 48.1416C159.913 47.9145 160.962 47.3537 161.785 46.5304C162.608 45.707 163.169 44.658 163.396 43.5159C163.623 42.3739 163.507 41.1901 163.061 40.1143C162.616 39.0386 161.861 38.1191 160.893 37.4722C159.925 36.8253 158.786 36.48 157.622 36.48V36.48Z" fill="#2F2E41"/>
<path d="M116.341 43.2521L151.24 42.2667L151.244 42.7572L116.615 43.7353V68.5267H116.341V43.2521Z" fill="#2F2E41"/>
<path d="M22.6035 95.2936H69.8061V70.5211H70.1373V95.7838H22.6035V95.2936Z" fill="#2F2E41"/>
<defs>
<linearGradient id="paint0_linear" x1="81.8114" y1="52.1797" x2="81.8114" y2="61.5014" gradientUnits="userSpaceOnUse">
<stop stop-color="#CBBACC"/>
<stop offset="1" stop-color="#2580B3"/>
</linearGradient>
<linearGradient id="paint1_linear" x1="69.7913" y1="65.6716" x2="69.7913" y2="74.9933" gradientUnits="userSpaceOnUse">
<stop stop-color="#CBBACC"/>
<stop offset="1" stop-color="#2580B3"/>
</linearGradient>
<linearGradient id="paint2_linear" x1="116.686" y1="63.7092" x2="116.686" y2="73.0309" gradientUnits="userSpaceOnUse">
<stop stop-color="#CBBACC"/>
<stop offset="1" stop-color="#2580B3"/>
</linearGradient>
<linearGradient id="paint3_linear" x1="6.37806" y1="29.8566" x2="6.37806" y2="34.2722" gradientUnits="userSpaceOnUse">
<stop stop-color="#CBBACC"/>
<stop offset="1" stop-color="#2580B3"/>
</linearGradient>
<linearGradient id="paint4_linear" x1="16.3502" y1="93.3914" x2="16.3502" y2="97.807" gradientUnits="userSpaceOnUse">
<stop stop-color="#CBBACC"/>
<stop offset="1" stop-color="#2580B3"/>
</linearGradient>
<linearGradient id="paint5_linear" x1="157.622" y1="40.1596" x2="157.622" y2="44.5751" gradientUnits="userSpaceOnUse">
<stop stop-color="#CBBACC"/>
<stop offset="1" stop-color="#2580B3"/>
</linearGradient>
</defs>
</svg>
