<svg width="143" height="164" viewBox="0 0 143 164" fill="none" xmlns="http://www.w3.org/2000/svg">
<path d="M-5.3765e-06 41L-1.79217e-06 123L71.0142 164L142.028 123L142.028 41L71.0142 1.21547e-05L-5.3765e-06 41Z" fill="url(#paint0_linear)"/>
<path d="M130.14 116.136L130.14 47.8639L71.0143 13.7276L11.8887 47.8639L11.8887 116.136L71.0143 150.272L130.14 116.136Z" fill="#F8F8F8"/>
<path d="M11.8003 107.475L11.8003 108.363L48.4664 108.363L48.4664 107.475L11.8003 107.475Z" fill="#3F3D56"/>
<path d="M53.1033 107.919C53.1033 106.523 51.9712 105.391 50.5746 105.391C49.178 105.391 48.0459 106.523 48.0459 107.919C48.0459 109.316 49.178 110.448 50.5746 110.448C51.9712 110.448 53.1033 109.316 53.1033 107.919Z" fill="url(#paint1_linear)"/>
<path d="M11.8003 88.5099L11.8003 89.3982L48.4664 89.3982L48.4664 88.5099L11.8003 88.5099Z" fill="#3F3D56"/>
<path d="M53.1033 88.9542C53.1033 87.5577 51.9712 86.4255 50.5746 86.4255C49.178 86.4255 48.0459 87.5577 48.0459 88.9542C48.0459 90.3508 49.178 91.4829 50.5746 91.4829C51.9712 91.4829 53.1033 90.3508 53.1033 88.9542Z" fill="#3F3D56"/>
<path d="M11.8003 55.2155L11.8003 56.1038L48.4664 56.1038L48.4664 55.2155L11.8003 55.2155Z" fill="#3F3D56"/>
<path d="M53.1033 55.6593C53.1033 54.2627 51.9712 53.1306 50.5746 53.1306C49.178 53.1306 48.0459 54.2627 48.0459 55.6593C48.0459 57.0558 49.178 58.188 50.5746 58.188C51.9712 58.188 53.1033 57.0558 53.1033 55.6593Z" fill="#3F3D56"/>
<path d="M89.3469 69.5673C89.3469 68.1707 88.2148 67.0386 86.8182 67.0386C85.4217 67.0386 84.2896 68.1707 84.2896 69.5673C84.2896 70.9638 85.4217 72.0959 86.8182 72.0959C88.2148 72.0959 89.3469 70.9638 89.3469 69.5673Z" fill="#3F3D56"/>
<path d="M66.1673 120.984C66.1673 119.588 65.0351 118.456 63.6386 118.456C62.242 118.456 61.1099 119.588 61.1099 120.984C61.1099 122.381 62.242 123.513 63.6386 123.513C65.0351 123.513 66.1673 122.381 66.1673 120.984Z" fill="#3F3D56"/>
<path d="M84.7111 69.1229L84.7111 70.0112L40.5284 70.0112L40.5284 88.9539L39.6401 88.9539L39.6401 69.1229L84.7111 69.1229Z" fill="#3F3D56"/>
<path d="M105.363 102.019C105.363 100.622 104.23 99.4902 102.834 99.4902C101.437 99.4902 100.305 100.622 100.305 102.019C100.305 103.415 101.437 104.548 102.834 104.548C104.23 104.548 105.363 103.415 105.363 102.019Z" fill="url(#paint2_linear)"/>
<path d="M100.726 101.575L100.726 102.463L56.5431 102.463L56.5431 121.406L55.6548 121.406L55.6548 101.575L100.726 101.575Z" fill="#3F3D56"/>
<path d="M85.554 43.4376C85.554 42.0411 84.4218 40.9089 83.0253 40.9089C81.6287 40.9089 80.4966 42.0411 80.4966 43.4376C80.4966 44.8342 81.6287 45.9663 83.0253 45.9663C84.4218 45.9663 85.554 44.8342 85.554 43.4376Z" fill="url(#paint3_linear)"/>
<path d="M80.9182 42.9933L80.9182 43.8816L36.7354 43.8816L36.7355 56.0808L35.8472 56.0808L35.8472 42.9933L80.9182 42.9933Z" fill="#3F3D56"/>
<path d="M61.1098 120.54L61.1098 121.428L39.1421 121.428L39.1421 107.919L40.0304 107.919L40.0304 120.54L61.1098 120.54Z" fill="#3F3D56"/>
<path d="M115.266 88.7433C115.266 87.3467 114.134 86.2146 112.738 86.2146C111.341 86.2146 110.209 87.3467 110.209 88.7433C110.209 90.1398 111.341 91.272 112.738 91.272C114.134 91.272 115.266 90.1398 115.266 88.7433Z" fill="#3F3D56"/>
<path d="M110.209 88.2996L110.209 89.1879L89.1295 89.1879L89.1295 101.809L88.2412 101.809L88.2412 88.2996L110.209 88.2996Z" fill="#3F3D56"/>
<path d="M96.5115 56.5026C96.5115 55.106 95.3794 53.9739 93.9828 53.9739C92.5862 53.9739 91.4541 55.106 91.4541 56.5026C91.4541 57.8991 92.5862 59.0312 93.9828 59.0312C95.3794 59.0312 96.5115 57.8991 96.5115 56.5026Z" fill="#3F3D56"/>
<path d="M91.4545 56.058L91.4545 56.9463L69.4868 56.9463L69.4868 43.4373L70.3751 43.4373L70.3751 56.058L91.4545 56.058Z" fill="#3F3D56"/>
<defs>
<linearGradient id="paint0_linear" x1="-3.58433e-06" y1="82" x2="142.028" y2="82" gradientUnits="userSpaceOnUse">
<stop stop-color="#00C6FB"/>
<stop offset="1" stop-color="#005BEA"/>
</linearGradient>
<linearGradient id="paint1_linear" x1="48.0459" y1="107.919" x2="53.1033" y2="107.919" gradientUnits="userSpaceOnUse">
<stop stop-color="#00C6FB"/>
<stop offset="1" stop-color="#005BEA"/>
</linearGradient>
<linearGradient id="paint2_linear" x1="100.305" y1="102.019" x2="105.363" y2="102.019" gradientUnits="userSpaceOnUse">
<stop stop-color="#00C6FB"/>
<stop offset="1" stop-color="#005BEA"/>
</linearGradient>
<linearGradient id="paint3_linear" x1="80.4966" y1="43.4376" x2="85.554" y2="43.4376" gradientUnits="userSpaceOnUse">
<stop stop-color="#00C6FB"/>
<stop offset="1" stop-color="#005BEA"/>
</linearGradient>
</defs>
</svg>
