<svg width="1233" height="706" viewBox="0 0 1233 706" fill="none" xmlns="http://www.w3.org/2000/svg">
<g clip-path="url(#clip0_706:1288)">
<path d="M1233 0H0V706H1233V0Z" fill="#F1F2F6"/>
<path opacity="0.5" d="M-216.395 291.228C-218.89 248.338 -183.432 212.863 -140.541 215.337L64.1369 227.141C100.056 229.213 128.904 257.536 131.633 293.412L147.392 500.569C150.729 544.43 114.219 580.963 70.3556 577.654L-138.263 561.915C-174.144 559.208 -202.487 530.373 -204.576 494.45L-216.395 291.228Z" fill="#0095F3"/>
<path opacity="0.5" d="M-217.376 390.067C-240.972 354.165 -227.991 305.717 -189.605 286.423L-7.22794 194.755C24.9207 178.596 64.065 188.713 84.3581 218.426L201.841 390.441C226.65 426.765 213.282 476.654 173.635 495.708L-14.1159 585.936C-46.5464 601.521 -85.5049 590.711 -105.267 560.642L-217.376 390.067Z" fill="#0095F3"/>
<path opacity="0.5" d="M1141.37 404.221C1139.31 364.069 1172.74 331.11 1212.86 333.735L1302.17 339.579C1335.78 341.779 1362.57 368.524 1364.82 402.13L1372.89 522.57C1375.65 563.649 1341.15 597.521 1300.13 594.01L1208.81 586.193C1175.36 583.33 1149.16 556.216 1147.44 522.688L1141.37 404.221Z" fill="#0095F3"/>
<path opacity="0.5" d="M1148.52 475.161C1128.51 440.587 1141.37 392.864 1176.04 373.077L1259.38 325.509C1288.43 308.93 1322.98 317.93 1340.2 346.562L1398.42 443.366C1419.46 478.354 1406.17 527.485 1370.36 547.023L1284.44 593.915C1255.19 609.876 1220.89 600.21 1204.15 571.289L1148.52 475.161Z" fill="#0095F3"/>
</g>
<defs>
<clipPath id="clip0_706:1288">
<rect width="1233" height="706" fill="white"/>
</clipPath>
</defs>
</svg>
