<svg width="1880" height="900" viewBox="0 0 1880 900" fill="none" xmlns="http://www.w3.org/2000/svg">
<g clip-path="url(#clip0_706:1295)">
<path d="M1880 0H0V900H1880V0Z" fill="#F1F2F6"/>
<path opacity="0.5" d="M221.724 702.771C276.021 732.885 271.06 773.208 211.112 789.034L9.94669 842.138C-40.2457 855.388 -112.235 846.683 -158.508 821.769L-340.433 723.817C-397.02 693.349 -391.944 651.821 -329.723 636.194L-121.7 583.947C-70.7933 571.161 1.17056 580.449 46.6552 605.676L221.724 702.771Z" fill="#A738FF"/>
<path opacity="0.5" d="M148.205 654.607C208.352 667.641 222.557 719.935 178.315 765.449L132.671 812.405C96.632 849.479 33.5269 869.323 -15.7432 859.073L-313.328 797.167C-375.53 784.227 -389.243 729.773 -341.912 683.661L-292.01 635.043C-255.199 599.18 -193.228 580.615 -145.123 591.04L148.205 654.607Z" fill="#A738FF"/>
</g>
<defs>
<clipPath id="clip0_706:1295">
<rect width="1880" height="900" fill="white"/>
</clipPath>
</defs>
</svg>
