<svg width="442" height="771" viewBox="0 0 442 771" fill="none" xmlns="http://www.w3.org/2000/svg">
<path opacity="0.5" d="M405.824 513.037C416.497 572.767 371.948 628.161 311.319 630.55L228.639 633.806C179.112 635.757 135.629 601.134 126.438 552.428L66.6476 235.609C55.0808 174.319 101.831 117.511 164.202 117.067L250.534 116.454C299.244 116.108 341.117 150.909 349.686 198.861L405.824 513.037Z" fill="#A738FF"/>
<path opacity="0.5" d="M389.275 358.711C416.878 410.503 409.177 495.59 372.827 540.427L277.57 657.926C247.221 695.361 207.09 691.462 183.671 648.803L54.7493 413.968C26.006 361.611 34.199 273.929 71.9976 229.375L171.272 112.358C201.839 76.3279 241.497 81.4396 264.371 124.357L389.275 358.711Z" fill="#A738FF"/>
</svg>
