<svg width="343" height="300" viewBox="0 0 343 300" fill="none" xmlns="http://www.w3.org/2000/svg">
<path d="M244.864 176.944C256.242 176.944 265.466 167.721 265.466 156.343C265.466 144.965 256.242 135.741 244.864 135.741C233.486 135.741 224.263 144.965 224.263 156.343C224.263 167.721 233.486 176.944 244.864 176.944Z" fill="#87BFC1"/>
<path d="M244.864 157.875C249.127 157.875 252.583 154.419 252.583 150.156C252.583 145.894 249.127 142.438 244.864 142.438C240.601 142.438 237.146 145.894 237.146 150.156C237.146 154.419 240.601 157.875 244.864 157.875Z" fill="white"/>
<path d="M258.887 166.586C257.276 168.794 255.167 170.591 252.73 171.83C250.293 173.068 247.598 173.714 244.864 173.714C242.131 173.714 239.436 173.068 236.999 171.83C234.562 170.591 232.452 168.794 230.842 166.586C231.993 162.984 234.484 159.961 237.799 158.143C239.75 159.87 242.265 160.824 244.871 160.824C247.476 160.824 249.992 159.87 251.942 158.143C255.253 159.964 257.739 162.986 258.887 166.586Z" fill="white"/>
<path d="M274.489 97.5193C282.224 97.5193 288.495 91.2487 288.495 83.5136C288.495 75.7784 282.224 69.5079 274.489 69.5079C266.754 69.5079 260.484 75.7784 260.484 83.5136C260.484 91.2487 266.754 97.5193 274.489 97.5193Z" fill="#605DEC"/>
<path d="M274.489 84.555C277.388 84.555 279.737 82.2055 279.737 79.3072C279.737 76.4088 277.388 74.0593 274.489 74.0593C271.591 74.0593 269.241 76.4088 269.241 79.3072C269.241 82.2055 271.591 84.555 274.489 84.555Z" fill="white"/>
<path d="M284.023 90.4778C282.927 91.9793 281.492 93.2007 279.835 94.0428C278.178 94.8849 276.346 95.3238 274.487 95.3238C272.628 95.3238 270.796 94.8849 269.139 94.0428C267.482 93.2007 266.047 91.9793 264.951 90.4778C265.734 88.0304 267.427 85.977 269.68 84.7414C271.006 85.914 272.715 86.5613 274.485 86.5613C276.255 86.5613 277.963 85.914 279.289 84.7414C281.544 85.9762 283.238 88.0297 284.023 90.4778Z" fill="white"/>
<path d="M224.263 53.8457C235.641 53.8457 244.864 44.6221 244.864 33.2443C244.864 21.8664 235.641 12.6429 224.263 12.6429C212.885 12.6429 203.661 21.8664 203.661 33.2443C203.661 44.6221 212.885 53.8457 224.263 53.8457Z" fill="#87BFC1"/>
<path d="M224.263 34.7764C228.526 34.7764 231.982 31.3207 231.982 27.0579C231.982 22.795 228.526 19.3393 224.263 19.3393C220 19.3393 216.544 22.795 216.544 27.0579C216.544 31.3207 220 34.7764 224.263 34.7764Z" fill="white"/>
<path d="M238.286 43.4893C236.675 45.6978 234.565 47.4945 232.128 48.7332C229.691 49.9719 226.996 50.6176 224.263 50.6176C221.529 50.6176 218.834 49.9719 216.398 48.7332C213.961 47.4945 211.851 45.6978 210.24 43.4893C211.393 39.8895 213.883 36.8696 217.198 35.0529C219.148 36.7805 221.664 37.7343 224.269 37.7343C226.875 37.7343 229.39 36.7805 231.341 35.0529C234.65 36.8721 237.136 39.8917 238.286 43.4893Z" fill="white"/>
<path d="M220.232 134.946C221.862 134.946 223.183 133.625 223.183 131.996C223.183 130.366 221.862 129.045 220.232 129.045C218.603 129.045 217.281 130.366 217.281 131.996C217.281 133.625 218.603 134.946 220.232 134.946Z" fill="#87BFC1"/>
<path d="M235.001 70.0586C235.976 70.0586 236.766 69.268 236.766 68.2929C236.766 67.3177 235.976 66.5271 235.001 66.5271C234.025 66.5271 233.235 67.3177 233.235 68.2929C233.235 69.268 234.025 70.0586 235.001 70.0586Z" fill="#605DEC"/>
<path d="M268.759 46.86L269.421 48.675C269.627 49.2395 269.954 49.7522 270.379 50.1772C270.804 50.6021 271.317 50.929 271.881 51.135L273.696 51.7971L271.881 52.4593C271.317 52.6652 270.804 52.9922 270.379 53.4171C269.954 53.842 269.627 54.3547 269.421 54.9193L268.759 56.7343L268.097 54.9193C267.891 54.3547 267.564 53.842 267.139 53.4171C266.714 52.9922 266.202 52.6652 265.637 52.4593L263.822 51.7971L265.637 51.135C266.202 50.929 266.714 50.6021 267.139 50.1772C267.564 49.7522 267.891 49.2395 268.097 48.675L268.759 46.86Z" fill="#87BFC1"/>
<path d="M272.477 111.643L273.442 114.289C273.741 115.112 274.217 115.86 274.837 116.479C275.456 117.098 276.204 117.575 277.027 117.874L279.673 118.839L277.027 119.803C276.204 120.103 275.456 120.579 274.837 121.198C274.217 121.817 273.741 122.565 273.442 123.388L272.477 126.034L271.513 123.388C271.213 122.565 270.737 121.817 270.118 121.198C269.498 120.579 268.751 120.103 267.928 119.803L265.281 118.839L267.928 117.874C268.751 117.575 269.498 117.098 270.118 116.479C270.737 115.86 271.213 115.112 271.513 114.289L272.477 111.643Z" fill="#605DEC"/>
<path d="M198.677 150.722C198.32 153.148 197.765 155.54 197.019 157.875C197.019 157.875 194.434 159.041 190.376 160.616C181.929 163.896 167.083 168.943 155.814 168.943C139.127 168.943 144.724 142.309 162.529 143.871L180.504 143.229L188.904 123.591L197.702 122.541C197.702 122.541 200.764 137.068 198.677 150.722Z" fill="#605DEC"/>
<path d="M191.091 151.974C190.961 151.974 190.834 151.93 190.731 151.849L181.761 144.812C181.701 144.765 181.651 144.706 181.613 144.639C181.576 144.573 181.552 144.499 181.543 144.423C181.533 144.347 181.539 144.27 181.56 144.196C181.581 144.123 181.615 144.054 181.663 143.994C181.71 143.933 181.769 143.883 181.835 143.845C181.902 143.808 181.976 143.784 182.052 143.775C182.128 143.766 182.205 143.772 182.278 143.792C182.352 143.813 182.421 143.848 182.481 143.895L191.451 150.932C191.547 151.007 191.616 151.11 191.651 151.226C191.685 151.342 191.682 151.467 191.642 151.581C191.603 151.696 191.528 151.795 191.43 151.866C191.331 151.936 191.213 151.974 191.091 151.974Z" fill="#262424"/>
<path d="M198.677 150.722C198.319 153.148 197.765 155.54 197.018 157.875C197.018 157.875 194.434 159.041 190.376 160.616C190.264 158.456 191.053 156.077 192.733 154.101C194.413 152.126 196.556 150.988 198.677 150.722Z" fill="white"/>
<path d="M78.7971 120.246C78.7971 120.246 82.77 110.541 83.6207 109.577C84.4714 108.613 89.58 106.059 91.9071 106.513C94.2343 106.967 93.6664 111.621 93.6107 112.869C93.555 114.116 90.8871 115.479 90.8871 115.479C90.8871 115.479 94.0093 114.57 94.2364 115.706C94.4635 116.841 88.2193 119.224 88.2193 119.224C88.2193 119.224 91.5107 118.884 91.8621 119.621C92.2135 120.358 87.2078 122.856 85.2793 123.264C83.3507 123.671 78.7971 120.246 78.7971 120.246Z" fill="white"/>
<path d="M84.9515 123.857C82.7208 123.857 78.9022 121.046 78.4479 120.703C78.3452 120.625 78.271 120.516 78.2369 120.392C78.2028 120.268 78.2107 120.136 78.2593 120.017C78.9301 118.382 82.3136 110.16 83.1879 109.183C84.1801 108.06 89.4643 105.433 92.0229 105.932C94.6286 106.44 94.3436 110.646 94.2236 112.446C94.2129 112.62 94.2022 112.77 94.1958 112.888C94.1679 113.49 93.7672 114.064 93.2443 114.555C93.599 114.559 93.9473 114.649 94.2601 114.816C94.4009 114.898 94.5227 115.009 94.6173 115.142C94.7119 115.275 94.7771 115.426 94.8086 115.586C94.9479 116.278 94.4486 117.021 91.5665 118.41L91.0715 118.648C91.7143 118.759 92.1965 118.982 92.3786 119.379C92.43 119.495 92.4536 119.622 92.4477 119.749C92.4417 119.876 92.4064 120 92.3443 120.111C91.7315 121.326 87.0751 123.478 85.3822 123.827C85.24 123.852 85.0957 123.862 84.9515 123.857ZM79.5001 120.045C81.2293 121.284 84.0001 122.916 85.1401 122.683C86.7858 122.344 90.1501 120.639 91.0779 119.829C90.5272 119.709 89.3636 119.691 88.2686 119.803C88.1287 119.816 87.9887 119.778 87.8745 119.697C87.7602 119.615 87.6793 119.495 87.6467 119.358C87.6141 119.221 87.6319 119.077 87.697 118.953C87.7621 118.828 87.87 118.731 88.0008 118.68C90.7265 117.643 93.2143 116.357 93.6193 115.789C93.3193 115.624 92.1001 115.734 91.0479 116.038C90.9116 116.071 90.7679 116.054 90.6432 115.99C90.5185 115.925 90.4212 115.818 90.3691 115.688C90.317 115.558 90.3136 115.413 90.3596 115.28C90.4056 115.148 90.4978 115.036 90.6193 114.966C91.6115 114.459 93.0001 113.441 93.0279 112.847C93.0279 112.723 93.0451 112.564 93.0558 112.38C93.1479 111.017 93.3922 107.4 91.7958 107.089C89.7686 106.695 84.8401 109.08 84.0579 109.967C83.5051 110.586 81.0493 116.304 79.5001 120.045Z" fill="#262424"/>
<path d="M133.804 153.962C122.113 153.968 110.753 150.078 101.518 142.909C92.2832 135.739 85.7001 125.697 82.8084 114.368C79.9166 103.04 80.881 91.0717 85.5492 80.3527C90.2174 69.6337 98.3234 60.7753 108.587 55.1764L159.945 27.1457C161.28 26.4161 162.851 26.2468 164.312 26.6752C165.772 27.1036 167.002 28.0945 167.732 29.43L176.786 46.005C177.511 47.3404 177.678 48.9088 177.25 50.3669C176.822 51.8251 175.833 53.0543 174.501 53.7857L123.353 81.7114C112.5 87.6429 108.428 101.203 114.257 111.951C115.654 114.523 117.544 116.793 119.819 118.633C122.094 120.473 124.71 121.846 127.516 122.674C130.322 123.501 133.264 123.768 136.174 123.457C139.083 123.146 141.903 122.265 144.471 120.864L195.827 92.8329C196.488 92.4713 197.214 92.2435 197.964 92.1627C198.713 92.0818 199.471 92.1493 200.194 92.3615C200.917 92.5736 201.591 92.9262 202.178 93.399C202.765 93.8718 203.253 94.4557 203.614 95.1171L212.67 111.692C213.4 113.028 213.568 114.6 213.14 116.06C212.711 117.521 211.719 118.752 210.383 119.481L159.026 147.514C152.858 150.897 146.071 153 139.071 153.699C137.321 153.872 135.548 153.962 133.804 153.962Z" fill="#87BFC1"/>
<path d="M140.063 38.0057L159.945 27.1457C161.28 26.4161 162.851 26.2468 164.312 26.6752C165.772 27.1036 167.002 28.0945 167.732 29.43L176.786 46.005C177.511 47.3404 177.678 48.9088 177.25 50.3669C176.822 51.8251 175.833 53.0543 174.501 53.7857L154.62 64.6457L140.063 38.0057Z" fill="#605DEC"/>
<path d="M175.946 103.693L195.827 92.8329C196.488 92.4713 197.214 92.2435 197.964 92.1627C198.713 92.0818 199.471 92.1493 200.194 92.3615C200.917 92.5736 201.592 92.9262 202.178 93.399C202.765 93.8718 203.253 94.4557 203.614 95.1171L212.67 111.692C213.4 113.028 213.569 114.6 213.14 116.06C212.711 117.521 211.72 118.752 210.384 119.481L190.5 130.341L175.946 103.693Z" fill="#605DEC"/>
<path d="M113.081 144.214C113.081 144.214 134.064 141.491 162.529 143.882C162.529 143.882 168.816 150.6 161.089 170.529C153.362 190.457 143.882 221.314 143.882 221.314H82.5C82.5 221.314 90.6643 177.48 113.081 144.214Z" fill="#605DEC"/>
<path d="M162.544 167.016C162.452 167.016 162.362 166.995 162.28 166.953C162.198 166.912 162.128 166.851 162.073 166.777C162.019 166.703 161.984 166.617 161.969 166.526C161.954 166.436 161.961 166.343 161.989 166.256C165.829 154.335 164.181 148.123 162.859 145.47C162.799 145.333 162.793 145.178 162.844 145.037C162.895 144.896 162.998 144.78 163.132 144.713C163.266 144.647 163.42 144.634 163.563 144.678C163.707 144.721 163.827 144.819 163.901 144.949C165.304 147.75 167.066 154.29 163.099 166.605C163.063 166.724 162.989 166.828 162.889 166.902C162.789 166.976 162.669 167.016 162.544 167.016Z" fill="#262424"/>
<path d="M141.457 217.603L87.8851 216.804C87.7305 216.804 87.5823 216.742 87.473 216.633C87.3637 216.524 87.3022 216.375 87.3022 216.221C87.3022 216.066 87.3637 215.918 87.473 215.809C87.5823 215.699 87.7305 215.638 87.8851 215.638L141.457 216.437C141.611 216.437 141.759 216.499 141.869 216.608C141.978 216.717 142.039 216.865 142.039 217.02C142.039 217.175 141.978 217.323 141.869 217.432C141.759 217.541 141.611 217.603 141.457 217.603Z" fill="#262424"/>
<path d="M137.876 156.459C138.411 156.735 138.913 156.975 139.341 157.206C140.627 154.224 143.098 150.63 143.098 150.63C144.279 153.33 144.463 156.63 144.356 158.115L144.673 158.085C150.12 157.485 153.476 151.716 151.361 146.846C150.075 143.899 147.636 141.741 145.061 141.345C140.929 140.702 137.968 142.556 135.977 144.714C132.551 148.434 133.528 154.206 137.876 156.459Z" fill="white"/>
<path d="M144.356 158.698C144.276 158.698 144.196 158.681 144.123 158.649C144.05 158.617 143.984 158.57 143.929 158.512C143.875 158.453 143.833 158.383 143.806 158.308C143.78 158.232 143.769 158.152 143.775 158.072C143.867 155.982 143.591 153.893 142.959 151.899C142.149 153.152 140.734 155.447 139.877 157.436C139.845 157.509 139.798 157.574 139.739 157.629C139.68 157.683 139.61 157.724 139.535 157.75C139.459 157.776 139.379 157.787 139.299 157.78C139.22 157.774 139.142 157.752 139.071 157.714C138.831 157.586 138.568 157.453 138.289 157.314C138.075 157.204 137.848 157.099 137.614 156.971C136.531 156.414 135.591 155.614 134.87 154.632C134.149 153.65 133.666 152.514 133.459 151.314C133.242 150.064 133.319 148.782 133.682 147.567C134.046 146.353 134.687 145.239 135.555 144.315C138.208 141.435 141.527 140.207 145.155 140.764C147.894 141.193 150.542 143.479 151.901 146.608C152.431 147.838 152.661 149.177 152.573 150.514C152.485 151.851 152.082 153.148 151.395 154.299C150.711 155.499 149.753 156.52 148.598 157.278C147.443 158.036 146.125 158.509 144.752 158.659L144.418 158.691H144.371L144.356 158.698ZM143.098 150.047H143.143C143.246 150.057 143.345 150.095 143.429 150.156C143.513 150.217 143.579 150.299 143.621 150.394C144.714 152.895 144.969 155.794 144.951 157.466C146.077 157.289 147.149 156.862 148.087 156.214C149.025 155.567 149.804 154.717 150.369 153.726C150.963 152.733 151.313 151.613 151.391 150.459C151.468 149.304 151.271 148.147 150.814 147.084C149.612 144.313 147.313 142.288 144.96 141.928C141.688 141.426 138.806 142.498 136.389 145.116C135.644 145.909 135.094 146.863 134.78 147.904C134.467 148.945 134.4 150.045 134.584 151.116C134.761 152.14 135.173 153.109 135.788 153.946C136.403 154.783 137.204 155.466 138.129 155.94C138.356 156.058 138.576 156.169 138.789 156.274L139.071 156.407C140.404 153.546 142.532 150.441 142.626 150.302C142.679 150.225 142.749 150.162 142.831 150.118C142.913 150.074 143.005 150.051 143.098 150.049V150.047Z" fill="#262424"/>
<path d="M146.25 130.414L144.107 135.514L139.928 144.872C141.911 148.211 145.131 149.064 148.776 148.251L150.188 144.066L152.331 137.728L146.25 130.414Z" fill="white"/>
<path d="M146.321 149.121C143.338 149.121 140.985 147.782 139.433 145.168C139.386 145.088 139.358 144.998 139.353 144.905C139.347 144.812 139.364 144.719 139.401 144.634L143.571 135.276L145.714 130.187C145.753 130.095 145.815 130.014 145.894 129.953C145.973 129.892 146.067 129.852 146.166 129.837C146.265 129.822 146.366 129.833 146.46 129.869C146.553 129.905 146.636 129.964 146.7 130.041L152.786 137.357C152.849 137.434 152.893 137.525 152.911 137.623C152.929 137.721 152.922 137.822 152.891 137.916L149.338 148.438C149.305 148.533 149.249 148.618 149.174 148.685C149.099 148.752 149.007 148.798 148.909 148.819C148.06 149.014 147.192 149.116 146.321 149.121ZM140.591 144.836C142.268 147.459 144.876 148.44 148.335 147.759L151.678 137.861L146.413 131.533L144.643 135.739L140.591 144.836Z" fill="#262424"/>
<path d="M153.94 251.949L154.68 269.061H161.404L162.711 251.949H153.94Z" fill="white"/>
<path d="M161.404 269.644H154.68C154.53 269.644 154.385 269.587 154.277 269.483C154.168 269.379 154.104 269.237 154.097 269.087L153.36 251.974C153.357 251.896 153.369 251.817 153.397 251.743C153.425 251.67 153.467 251.602 153.522 251.545C153.576 251.489 153.641 251.443 153.714 251.412C153.786 251.382 153.864 251.366 153.943 251.366H162.712C162.792 251.367 162.871 251.384 162.945 251.417C163.018 251.45 163.083 251.498 163.137 251.557C163.191 251.617 163.232 251.687 163.258 251.763C163.283 251.839 163.293 251.92 163.286 252L161.981 269.113C161.968 269.257 161.902 269.392 161.795 269.49C161.689 269.588 161.549 269.643 161.404 269.644ZM155.237 268.479H160.864L162.082 252.531H154.549L155.237 268.479Z" fill="#262424"/>
<path d="M149.856 285.407C149.642 287.841 149.556 289.438 149.556 289.438H182.717C184.986 277.348 173.921 279.279 173.921 279.279C172.31 280.957 171.277 283.104 170.97 285.409H149.856V285.407Z" fill="white"/>
<path d="M182.717 290.019H149.556C149.477 290.018 149.399 290.002 149.326 289.971C149.253 289.939 149.187 289.893 149.133 289.835C149.079 289.777 149.037 289.709 149.01 289.635C148.983 289.56 148.971 289.481 148.976 289.401C148.976 289.384 149.072 287.769 149.278 285.356C149.29 285.21 149.357 285.075 149.464 284.976C149.572 284.877 149.712 284.822 149.858 284.822H170.464C170.87 282.581 171.927 280.51 173.505 278.867C173.59 278.779 173.701 278.721 173.822 278.7C174.023 278.666 178.776 277.875 181.616 280.751C183.469 282.63 184.035 285.587 183.291 289.536C183.268 289.672 183.197 289.794 183.092 289.882C182.987 289.97 182.854 290.019 182.717 290.019ZM150.178 288.857H182.228C182.768 285.546 182.284 283.099 180.788 281.571C178.665 279.416 175.05 279.716 174.201 279.821C172.767 281.385 171.842 283.348 171.548 285.45C171.536 285.596 171.47 285.731 171.362 285.83C171.255 285.929 171.114 285.984 170.968 285.984H150.396C150.289 287.256 150.214 288.257 150.178 288.857Z" fill="#262424"/>
<path d="M163.194 266.786H152.636C151.136 272.31 150.279 280.534 149.85 285.401H170.962C171.268 283.095 172.302 280.948 173.912 279.27C167.053 274.339 163.194 266.786 163.194 266.786Z" fill="#87BFC1"/>
<path d="M169.776 282.371C169.672 282.371 169.569 282.343 169.479 282.289C162.261 278.004 157.573 268.526 157.378 268.125C157.318 267.987 157.314 267.832 157.366 267.692C157.418 267.551 157.522 267.436 157.657 267.37C157.791 267.305 157.946 267.293 158.089 267.338C158.231 267.383 158.351 267.482 158.424 267.613C158.471 267.707 163.159 277.172 170.074 281.289C170.183 281.354 170.268 281.454 170.315 281.572C170.362 281.69 170.369 281.82 170.336 281.943C170.302 282.065 170.229 282.173 170.128 282.251C170.027 282.328 169.904 282.37 169.776 282.371Z" fill="#262424"/>
<path d="M155.537 281.788C156.96 281.788 158.113 279.787 158.113 277.318C158.113 274.849 156.96 272.848 155.537 272.848C154.115 272.848 152.961 274.849 152.961 277.318C152.961 279.787 154.115 281.788 155.537 281.788Z" fill="white"/>
<path d="M155.537 282.371C153.767 282.371 152.378 280.151 152.378 277.318C152.378 274.485 153.765 272.265 155.537 272.265C157.309 272.265 158.696 274.485 158.696 277.318C158.696 280.151 157.309 282.371 155.537 282.371ZM155.537 273.431C154.594 273.431 153.544 275.027 153.544 277.318C153.544 279.609 154.594 281.205 155.537 281.205C156.48 281.205 157.53 279.609 157.53 277.318C157.53 275.027 156.48 273.429 155.537 273.429V273.431Z" fill="#262424"/>
<path d="M174.373 213.999C174.343 214.404 174.309 214.821 174.274 215.25C173.091 229.899 170.117 257.994 170.117 257.994H152.068L150.536 232.453L106.436 257.481L114.664 221.31C114.664 221.31 156.326 197.207 161.094 197.548C161.419 197.571 161.762 197.61 162.12 197.668C162.478 197.726 162.879 197.801 163.275 197.882C168.111 198.992 174.572 202.528 174.744 207.073C174.78 208.099 174.643 210.609 174.373 213.999Z" fill="#87BFC1"/>
<path d="M174.373 213.999C170.113 214.817 165.411 211.453 163.528 206.038C162.536 203.181 162.51 200.284 163.275 197.895C168.111 199.005 174.572 202.541 174.743 207.086C174.78 208.099 174.643 210.609 174.373 213.999Z" fill="white"/>
<path d="M159.163 251.653C159.014 251.653 158.872 251.596 158.764 251.494C158.656 251.392 158.591 251.252 158.582 251.104L156.701 217.929L117.075 236.957C117.006 236.994 116.929 237.017 116.851 237.024C116.773 237.031 116.693 237.022 116.619 236.998C116.544 236.973 116.475 236.934 116.415 236.882C116.356 236.83 116.308 236.767 116.274 236.696C116.24 236.625 116.22 236.547 116.217 236.469C116.214 236.39 116.226 236.311 116.254 236.238C116.282 236.164 116.324 236.097 116.379 236.04C116.433 235.983 116.499 235.938 116.572 235.907L156.982 216.501C157.068 216.46 157.163 216.441 157.259 216.445C157.354 216.449 157.447 216.477 157.53 216.525C157.612 216.574 157.681 216.642 157.731 216.724C157.781 216.806 157.81 216.899 157.815 216.994L159.744 251.044C159.752 251.199 159.7 251.35 159.597 251.465C159.494 251.581 159.349 251.65 159.195 251.659H159.161L159.163 251.653Z" fill="#262424"/>
<path d="M168.131 254.659H154.68C154.525 254.659 154.377 254.598 154.268 254.489C154.159 254.379 154.097 254.231 154.097 254.076C154.097 253.922 154.159 253.774 154.268 253.664C154.377 253.555 154.525 253.494 154.68 253.494H168.131C168.285 253.494 168.434 253.555 168.543 253.664C168.652 253.774 168.714 253.922 168.714 254.076C168.714 254.231 168.652 254.379 168.543 254.489C168.434 254.598 168.285 254.659 168.131 254.659Z" fill="#262424"/>
<path d="M151.5 229.631C151.402 229.631 151.305 229.605 151.219 229.558C151.133 229.51 151.06 229.442 151.008 229.358C150.955 229.275 150.925 229.18 150.919 229.082C150.913 228.984 150.933 228.886 150.975 228.797L158.873 212.224C158.942 212.088 159.061 211.983 159.205 211.934C159.35 211.884 159.508 211.893 159.646 211.958C159.784 212.024 159.89 212.141 159.943 212.285C159.995 212.428 159.989 212.587 159.926 212.726L152.027 229.299C151.98 229.398 151.905 229.482 151.812 229.541C151.718 229.6 151.61 229.631 151.5 229.631Z" fill="#262424"/>
<path d="M82.7142 287.025C79.9285 287.128 63.1328 287.621 62.5714 285.18C62.01 282.739 65.1642 258.917 70.4999 258.589C71.3938 258.525 72.2922 258.612 73.1571 258.846C74.0435 259.088 74.8698 259.511 75.5834 260.09C76.2969 260.668 76.8821 261.389 77.3014 262.206L76.7999 275.531C84.0749 275.927 85.4999 286.929 82.7142 287.025Z" fill="#87BFC1"/>
<path d="M82.7142 287.025C79.9285 287.128 63.1328 287.621 62.5714 285.18C62.01 282.739 65.1642 258.917 70.4999 258.589C71.3938 258.525 72.2922 258.612 73.1571 258.846C65.7128 264.099 66.6985 281.661 66.6985 281.661C69.4221 276.043 76.7999 275.531 76.7999 275.531C84.0749 275.927 85.4999 286.929 82.7142 287.025Z" fill="white"/>
<path d="M76.4893 287.717C74.9893 287.717 73.3778 287.696 71.7878 287.638C63.5678 287.338 62.2264 286.294 61.9971 285.313C61.4443 282.93 63.7907 265.187 67.8321 259.768C68.6593 258.658 69.5464 258.066 70.4764 258.009C71.4353 257.94 72.3989 258.034 73.3264 258.287C73.4324 258.317 73.5277 258.376 73.6014 258.458C73.6751 258.54 73.724 258.641 73.7426 258.75C73.7612 258.858 73.7487 258.97 73.7065 259.071C73.6644 259.173 73.5942 259.261 73.5043 259.324C67.845 263.319 67.2557 275.029 67.2536 279.681C70.5493 275.428 76.4914 274.967 76.7721 274.946H76.845C82.2021 275.239 84.6579 280.798 84.6257 284.464C84.6086 286.393 83.9036 287.561 82.7378 287.604C82.0714 287.631 79.5493 287.717 76.4893 287.717ZM71.0764 259.155C70.9021 259.155 70.725 259.161 70.545 259.172C69.9771 259.206 69.3771 259.641 68.7643 260.458C64.8128 265.759 62.7043 283.206 63.1307 285.043C63.1436 285.088 63.5593 286.17 71.8821 286.47C76.6736 286.641 81.7264 286.47 82.6907 286.436C83.1321 286.419 83.4471 285.602 83.4578 284.451C83.4814 281.679 81.5571 276.396 76.815 276.109C76.2878 276.156 69.6814 276.853 67.23 281.91C67.1739 282.025 67.0812 282.119 66.9663 282.177C66.8515 282.234 66.7209 282.252 66.5948 282.227C66.4688 282.203 66.3543 282.138 66.2692 282.042C66.1841 281.945 66.1332 281.824 66.1243 281.696C66.0857 280.999 65.2886 265.307 71.8243 259.196C71.5814 259.169 71.3321 259.155 71.0764 259.155Z" fill="#262424"/>
<path d="M119.16 221.31C117.066 228.204 112.768 242.184 108.763 254.076C105.092 264.973 100.509 275.833 95.3679 281.961C92.7193 285.122 89.9207 287.023 87.0257 287.023C84.2872 287.023 81.7672 286.018 79.6115 284.655C75.0643 281.784 72.1286 277.318 72.1286 277.318C68.2115 266.591 75.7886 261.823 75.7886 261.823L78.5122 262.504L85.5 221.31H119.143H119.16Z" fill="#87BFC1"/>
<path d="M71.9572 277.419C71.8355 277.418 71.717 277.38 71.6182 277.309C71.5195 277.238 71.4454 277.137 71.4065 277.022C69.5208 271.451 70.7144 267.489 72.0494 265.146C72.8881 263.631 74.0605 262.327 75.478 261.332C75.6085 261.255 75.7641 261.232 75.9116 261.267C76.0591 261.303 76.1869 261.395 76.2678 261.523C76.3487 261.651 76.3764 261.806 76.3449 261.955C76.3135 262.103 76.2254 262.233 76.0994 262.318C75.8165 262.498 69.1887 266.846 72.5101 276.649C72.5397 276.737 72.548 276.831 72.5343 276.922C72.5205 277.014 72.4852 277.101 72.4312 277.176C72.3771 277.251 72.306 277.312 72.2235 277.355C72.1411 277.397 72.0498 277.419 71.9572 277.419Z" fill="#262424"/>
<path d="M109.044 253.826C108.951 253.826 108.86 253.804 108.778 253.762C108.696 253.72 108.625 253.659 108.571 253.584C108.517 253.509 108.482 253.422 108.468 253.331C108.454 253.239 108.462 253.146 108.491 253.059C112.149 242.143 116.04 229.549 118.033 223.014C118.054 222.938 118.089 222.868 118.137 222.807C118.186 222.746 118.246 222.695 118.314 222.657C118.382 222.619 118.457 222.596 118.535 222.588C118.613 222.58 118.691 222.587 118.766 222.61C118.84 222.633 118.909 222.671 118.969 222.721C119.029 222.771 119.078 222.832 119.114 222.902C119.149 222.971 119.171 223.047 119.176 223.124C119.182 223.202 119.172 223.28 119.147 223.354C117.152 229.896 113.259 242.501 109.597 253.431C109.557 253.547 109.483 253.647 109.383 253.717C109.284 253.788 109.165 253.826 109.044 253.826Z" fill="#262424"/>
<path d="M95.37 281.961C92.7214 285.122 89.9228 287.023 87.0278 287.023C84.2892 287.023 81.7692 286.018 79.6135 284.655C80.2028 281.717 82.92 279.176 86.5521 278.501C90.2828 277.809 93.825 279.3 95.37 281.961Z" fill="white"/>
<path d="M74.8521 277.434C74.7215 277.433 74.5948 277.389 74.4922 277.309C74.3896 277.228 74.3171 277.115 74.2864 276.988C72.4564 269.361 76.185 264.246 76.3435 264.032C76.4375 263.913 76.5744 263.835 76.7249 263.815C76.8755 263.795 77.0279 263.835 77.1496 263.926C77.2714 264.016 77.3529 264.151 77.3769 264.301C77.4008 264.451 77.3653 264.604 77.2778 264.729C77.2307 264.791 73.7228 269.657 75.4178 276.718C75.4378 276.803 75.4383 276.892 75.4192 276.978C75.4001 277.063 75.3619 277.143 75.3076 277.212C75.2532 277.281 75.184 277.337 75.1051 277.375C75.0263 277.413 74.9398 277.433 74.8521 277.434Z" fill="#262424"/>
<path d="M80.1728 272.357C80.1033 272.357 80.0344 272.345 79.9693 272.321L76.1807 270.915C76.1075 270.89 76.0401 270.85 75.9825 270.798C75.9249 270.746 75.8782 270.683 75.8452 270.613C75.8121 270.543 75.7934 270.467 75.7901 270.389C75.7868 270.312 75.7989 270.235 75.8259 270.162C75.8528 270.089 75.894 270.023 75.9469 269.966C75.9999 269.91 76.0636 269.864 76.1344 269.833C76.2052 269.801 76.2815 269.784 76.359 269.782C76.4365 269.78 76.5135 269.794 76.5857 269.822L79.7228 270.986L88.6671 221.961C88.6812 221.886 88.7099 221.814 88.7517 221.75C88.7935 221.686 88.8476 221.631 88.9108 221.587C88.9739 221.544 89.045 221.514 89.1199 221.498C89.1949 221.482 89.2722 221.481 89.3475 221.495C89.4227 221.509 89.4945 221.538 89.5587 221.58C89.6228 221.622 89.6781 221.676 89.7214 221.739C89.7647 221.802 89.7951 221.873 89.8109 221.948C89.8267 222.023 89.8276 222.1 89.8135 222.176L80.745 271.89C80.7182 272.022 80.6466 272.141 80.5423 272.226C80.438 272.311 80.3075 272.357 80.1728 272.357Z" fill="#262424"/>
<path d="M87.8763 230.143C87.7313 230.143 87.5916 230.089 87.4843 229.992C87.377 229.894 87.3098 229.76 87.2959 229.616C87.282 229.472 87.3223 229.327 87.409 229.211C87.4957 229.095 87.6226 229.016 87.7648 228.988L90.137 228.525C90.9542 228.366 91.7066 227.97 92.3 227.386C92.8934 226.803 93.3016 226.057 93.4734 225.242L94.1677 221.961C94.2026 221.813 94.2942 221.684 94.4229 221.603C94.5516 221.521 94.7071 221.493 94.8561 221.525C95.0052 221.557 95.1359 221.645 95.2203 221.772C95.3047 221.899 95.336 222.054 95.3077 222.204L94.6134 225.484C94.3946 226.523 93.8744 227.474 93.1178 228.218C92.3612 228.963 91.4018 229.467 90.3598 229.669L87.9877 230.132C87.951 230.139 87.9137 230.143 87.8763 230.143Z" fill="#262424"/>
<path d="M163.331 135.681C162.759 140.814 161.203 146.942 155.049 145.92C147.733 144.705 143.049 139.474 143.049 132.499C143.049 125.524 146.312 121.626 154.654 122.514C155.364 122.587 156.067 122.72 156.754 122.91C161.546 124.256 163.92 128.267 163.571 132.932C163.513 133.779 163.44 134.713 163.331 135.681Z" fill="white"/>
<path d="M156.345 146.614C155.878 146.613 155.412 146.572 154.952 146.494C151.965 145.999 149.295 144.816 147.238 143.066C147.176 143.018 147.125 142.957 147.087 142.889C147.049 142.82 147.025 142.745 147.017 142.667C147.009 142.589 147.017 142.51 147.04 142.436C147.063 142.361 147.1 142.291 147.151 142.231C147.201 142.171 147.263 142.122 147.333 142.087C147.403 142.051 147.479 142.03 147.557 142.025C147.635 142.02 147.714 142.03 147.788 142.056C147.862 142.081 147.93 142.122 147.988 142.174C149.886 143.786 152.357 144.885 155.143 145.346C156.829 145.626 158.19 145.346 159.302 144.514C161.706 142.695 162.422 138.566 162.752 135.617C162.861 134.655 162.934 133.744 162.996 132.894C163.341 128.289 160.89 124.68 156.602 123.465C156.461 123.417 156.343 123.317 156.273 123.185C156.203 123.053 156.187 122.899 156.228 122.755C156.268 122.611 156.362 122.489 156.49 122.412C156.619 122.336 156.771 122.311 156.917 122.344C161.771 123.707 164.546 127.779 164.158 132.971C164.096 133.796 164.021 134.758 163.909 135.739C163.556 138.9 162.767 143.344 160.005 145.436C158.95 146.226 157.662 146.641 156.345 146.614Z" fill="#262424"/>
<path d="M140.861 133.789C141.555 134.819 142.338 135.786 143.201 136.68L146.895 136.948L147.711 134.34C147.711 134.34 150.069 134.261 150.559 132.684C150.572 132.647 150.583 132.61 150.591 132.572C150.72 132.056 151.234 129.748 150.913 126.144C150.913 126.144 156.525 128.691 159.589 129.049C160.691 129.178 161.985 128.766 163.191 128.192C165.606 127.031 167.747 123.139 167.355 120.478V120.426C166.736 116.541 164.687 119.207 164.687 119.207C164.687 119.207 164.143 116.079 162.189 115.832C160.234 115.586 158.959 118.459 158.959 118.459C155.213 117.544 151.329 117.341 147.508 117.859C139.933 118.931 141.761 124.164 141.761 124.164C141.761 124.164 136.172 125.901 140.861 133.789Z" fill="#262424"/>
<path d="M146.096 136.541C146.443 133.631 144.424 130.903 141.517 130.541C140.9 130.46 140.274 130.498 139.672 130.652C136.052 131.589 136.912 139.999 145.747 139.453L146.096 136.541Z" fill="white"/>
<path d="M144.953 140.057C140.173 140.057 137.595 137.37 137.151 134.576C136.808 132.418 137.807 130.53 139.526 130.076C140.199 129.903 140.9 129.86 141.589 129.949C144.782 130.35 147.064 133.335 146.674 136.592C146.653 136.743 146.573 136.88 146.452 136.973C146.331 137.066 146.179 137.108 146.027 137.09C145.876 137.072 145.737 136.995 145.642 136.876C145.547 136.757 145.502 136.605 145.517 136.453C145.832 133.821 144.004 131.419 141.446 131.096C140.902 131.025 140.35 131.058 139.819 131.194C138.694 131.486 138.058 132.823 138.304 134.374C138.662 136.629 140.816 139.153 145.714 138.849C145.791 138.844 145.867 138.854 145.94 138.879C146.012 138.904 146.079 138.943 146.136 138.993C146.194 139.044 146.24 139.105 146.274 139.174C146.308 139.243 146.328 139.318 146.332 139.394C146.337 139.47 146.327 139.547 146.302 139.619C146.277 139.692 146.238 139.759 146.188 139.816C146.137 139.873 146.076 139.92 146.007 139.954C145.938 139.988 145.863 140.007 145.787 140.012C145.501 140.042 145.223 140.057 144.953 140.057Z" fill="#262424"/>
<path d="M102.521 168.887C95.8189 166.335 89.3517 163.206 83.1921 159.534C78.9192 156.962 76.185 155.034 76.185 155.034C75.7992 152.541 75.5228 150.024 75.3278 147.534C74.2564 133.296 76.065 120.289 76.065 120.289C82.5342 116.432 87.1885 121.425 87.1885 121.425C87.4157 126.996 91.0457 140.381 91.0457 140.381L113.081 144.214C131.702 147.799 119.661 175.356 102.521 168.887Z" fill="#605DEC"/>
<path d="M78.3707 121.836C78.8098 121.836 79.1657 121.48 79.1657 121.041C79.1657 120.602 78.8098 120.246 78.3707 120.246C77.9316 120.246 77.5757 120.602 77.5757 121.041C77.5757 121.48 77.9316 121.836 78.3707 121.836Z" fill="white"/>
<path d="M78.3705 122.417C78.098 122.417 77.8316 122.336 77.605 122.185C77.3784 122.034 77.2018 121.818 77.0976 121.567C76.9933 121.315 76.966 121.038 77.0192 120.77C77.0723 120.503 77.2035 120.258 77.3962 120.065C77.5889 119.872 77.8344 119.741 78.1017 119.688C78.369 119.635 78.646 119.662 78.8978 119.766C79.1496 119.871 79.3648 120.047 79.5162 120.274C79.6676 120.5 79.7484 120.767 79.7484 121.039C79.7484 121.405 79.6032 121.755 79.3448 122.014C79.0864 122.272 78.736 122.417 78.3705 122.417ZM78.3705 120.827C78.3281 120.827 78.2867 120.84 78.2515 120.863C78.2162 120.887 78.1888 120.92 78.1726 120.959C78.1563 120.999 78.1521 121.042 78.1604 121.083C78.1686 121.125 78.189 121.163 78.219 121.193C78.249 121.223 78.2872 121.243 78.3287 121.252C78.3703 121.26 78.4134 121.256 78.4525 121.239C78.4917 121.223 78.5252 121.196 78.5487 121.16C78.5722 121.125 78.5848 121.084 78.5848 121.041C78.5843 120.985 78.5614 120.931 78.5213 120.891C78.4812 120.852 78.427 120.829 78.3705 120.829V120.827Z" fill="#262424"/>
<path d="M86.518 125.001C86.423 125.001 86.3296 124.978 86.2458 124.933C80.7108 122.006 77.1708 124.446 77.0315 124.551C76.906 124.636 76.7526 124.668 76.6038 124.641C76.455 124.615 76.3223 124.531 76.2339 124.408C76.1454 124.286 76.1081 124.134 76.1298 123.984C76.1515 123.834 76.2305 123.699 76.3501 123.606C76.5194 123.482 80.5951 120.621 86.8008 123.904C86.9162 123.966 87.0076 124.064 87.0602 124.184C87.1128 124.304 87.1237 124.438 87.0911 124.564C87.0584 124.691 86.9842 124.803 86.8802 124.882C86.7763 124.961 86.6487 125.003 86.518 125.001Z" fill="#262424"/>
<path d="M107.691 170.454C105.852 170.442 104.03 170.096 102.315 169.431C102.243 169.404 102.178 169.364 102.122 169.311C102.066 169.259 102.021 169.196 101.99 169.126C101.958 169.056 101.94 168.981 101.938 168.905C101.936 168.828 101.948 168.752 101.975 168.68C102.002 168.609 102.043 168.543 102.095 168.487C102.148 168.431 102.211 168.387 102.28 168.355C102.35 168.323 102.425 168.306 102.502 168.303C102.578 168.301 102.655 168.314 102.726 168.341C110.981 171.456 118.217 166.219 120.836 159.707C122.878 154.629 122.171 148.324 115.991 145.684C115.919 145.655 115.853 145.612 115.798 145.558C115.743 145.503 115.699 145.438 115.67 145.366C115.64 145.294 115.625 145.218 115.625 145.14C115.626 145.062 115.642 144.986 115.672 144.914C115.703 144.843 115.747 144.778 115.803 144.724C115.859 144.671 115.925 144.628 115.997 144.6C116.07 144.572 116.147 144.559 116.225 144.561C116.302 144.563 116.379 144.581 116.449 144.613C123.353 147.561 124.163 154.539 121.918 160.142C120.463 163.759 117.758 166.866 114.499 168.669C112.418 169.832 110.075 170.446 107.691 170.454Z" fill="#262424"/>
<path d="M83.2799 149.548C83.1668 149.548 83.0562 149.515 82.9615 149.453C82.8669 149.391 82.7923 149.303 82.7468 149.199C82.7014 149.096 82.6871 148.981 82.7057 148.869C82.7242 148.758 82.7748 148.654 82.8514 148.571L89.7749 141.071C89.8268 141.014 89.8893 140.969 89.9588 140.937C90.0283 140.905 90.1035 140.887 90.18 140.883C90.2565 140.88 90.3329 140.892 90.4048 140.919C90.4766 140.945 90.5426 140.986 90.5989 141.037C90.6551 141.089 90.7006 141.152 90.7328 141.221C90.7649 141.291 90.783 141.366 90.7861 141.443C90.7892 141.519 90.7772 141.595 90.7507 141.667C90.7243 141.739 90.684 141.805 90.6321 141.861L83.7085 149.361C83.6539 149.421 83.5876 149.468 83.5138 149.5C83.44 149.532 83.3604 149.548 83.2799 149.548Z" fill="#262424"/>
<path d="M83.7858 156.287C83.7871 157.396 83.5837 158.496 83.1858 159.531C78.913 156.96 76.1787 155.031 76.1787 155.031C75.793 152.539 75.5165 150.021 75.3215 147.531H75.3772C80.0294 147.546 83.7858 151.459 83.7858 156.287Z" fill="white"/>
</svg>
