<svg width="343" height="300" viewBox="0 0 343 300" fill="none" xmlns="http://www.w3.org/2000/svg">
<path d="M213.037 138.334C208.706 143.464 193.798 149.404 193.798 149.404C192.761 149.102 191.715 148.761 190.687 148.414C186.317 146.868 182.049 145.045 177.911 142.956C177.911 142.956 174.847 140.599 175.554 136.839C175.554 136.839 177.125 132.021 180.894 132.169C184.663 132.317 201.945 130.007 201.945 130.007C201.945 130.007 206.377 124.864 210.157 125.672C213.937 126.48 217.368 133.202 213.037 138.334Z" fill="#88C0C2"/>
<path d="M189.284 144.479C189.801 143.313 188.92 141.791 187.315 141.079C185.711 140.367 183.991 140.736 183.474 141.902C182.957 143.068 183.838 144.591 185.442 145.302C187.046 146.014 188.766 145.645 189.284 144.479Z" fill="white"/>
<path d="M187.072 146.091C186.448 146.087 185.832 145.953 185.264 145.697C184.441 145.347 183.749 144.747 183.286 143.983C182.844 143.218 182.769 142.416 183.071 141.724C183.374 141.032 184.023 140.548 184.886 140.364C185.763 140.196 186.67 140.308 187.479 140.683C189.296 141.489 190.278 143.269 189.665 144.649C189.266 145.577 188.249 146.091 187.072 146.091ZM185.669 141.146C185.468 141.145 185.269 141.166 185.073 141.208C184.811 141.232 184.561 141.326 184.348 141.479C184.134 141.633 183.966 141.84 183.859 142.08C183.753 142.321 183.713 142.585 183.743 142.846C183.772 143.107 183.871 143.355 184.029 143.565C184.403 144.17 184.955 144.642 185.611 144.917C186.997 145.532 188.467 145.26 188.887 144.311C189.307 143.361 188.523 142.091 187.136 141.476C186.677 141.266 186.178 141.153 185.673 141.146H185.669Z" fill="#262424"/>
<path d="M180.166 137.861C180.052 137.861 179.943 137.816 179.863 137.735C179.782 137.655 179.737 137.546 179.737 137.432C179.737 137.318 179.782 137.209 179.863 137.129C179.943 137.049 180.052 137.004 180.166 137.004C180.312 137.004 194.737 136.946 202.831 133.738C202.883 133.717 202.939 133.706 202.996 133.707C203.052 133.707 203.108 133.719 203.16 133.742C203.212 133.764 203.259 133.796 203.298 133.837C203.338 133.877 203.369 133.925 203.39 133.978C203.41 134.03 203.421 134.087 203.42 134.143C203.418 134.2 203.406 134.255 203.384 134.307C203.361 134.359 203.328 134.406 203.288 134.445C203.247 134.484 203.199 134.515 203.146 134.535C194.902 137.803 180.766 137.861 180.168 137.861H180.166Z" fill="#262424"/>
<path d="M213.037 138.334C208.707 143.464 193.799 149.404 193.799 149.404C192.762 149.102 191.716 148.761 190.687 148.414C197.51 146.134 207.252 139.393 207.252 139.393C200.242 136.663 201.942 130.007 201.942 130.007C201.942 130.007 206.373 124.864 210.153 125.672C213.933 126.48 217.368 133.202 213.037 138.334Z" fill="white"/>
<path d="M193.798 149.835C193.757 149.835 193.717 149.829 193.678 149.818C192.667 149.524 191.612 149.188 190.545 148.821C190.46 148.793 190.386 148.738 190.334 148.665C190.282 148.592 190.254 148.505 190.254 148.415C190.254 148.326 190.282 148.238 190.334 148.165C190.386 148.093 190.46 148.038 190.545 148.009C196.23 146.109 204.073 141.009 206.355 139.481C199.927 136.481 201.502 129.971 201.521 129.902C201.537 129.838 201.568 129.779 201.611 129.729C201.799 129.514 206.252 124.404 210.236 125.254C212.261 125.683 214.129 127.594 214.995 130.119C216.011 133.08 215.424 136.176 213.358 138.613C209.008 143.756 194.563 149.561 193.95 149.805C193.902 149.824 193.85 149.834 193.798 149.835ZM192 148.401C192.604 148.599 193.202 148.783 193.785 148.954C195.285 148.344 208.725 142.791 212.719 138.06C213.622 137.028 214.234 135.775 214.494 134.428C214.754 133.082 214.653 131.691 214.2 130.397C213.442 128.188 211.785 126.459 210.075 126.094C206.824 125.4 202.907 129.589 202.346 130.213C202.166 131.044 201.229 136.586 207.418 138.999C207.491 139.027 207.554 139.074 207.602 139.136C207.649 139.198 207.679 139.271 207.688 139.348C207.697 139.426 207.685 139.504 207.653 139.575C207.621 139.646 207.57 139.707 207.506 139.751C207.403 139.811 198.688 145.815 192 148.401Z" fill="#262424"/>
<path d="M170.879 137.07L177.817 139.603C177.817 139.603 181.734 138.392 180.618 133.856L173.714 130.101L170.879 137.07Z" fill="white"/>
<path d="M177.817 140.031C177.767 140.032 177.717 140.023 177.669 140.006L170.731 137.473C170.677 137.453 170.627 137.423 170.585 137.384C170.543 137.344 170.509 137.297 170.486 137.244C170.462 137.192 170.45 137.135 170.449 137.077C170.448 137.02 170.459 136.963 170.48 136.909L173.315 129.941C173.338 129.885 173.372 129.834 173.416 129.793C173.46 129.751 173.511 129.719 173.568 129.699C173.625 129.679 173.686 129.671 173.746 129.675C173.806 129.68 173.864 129.698 173.917 129.726L180.822 133.481C180.875 133.509 180.921 133.548 180.958 133.595C180.995 133.642 181.021 133.697 181.036 133.755C182.238 138.628 177.991 140.001 177.946 140.014C177.904 140.027 177.861 140.032 177.817 140.031ZM171.442 136.817L177.819 139.146C178.443 138.904 181.019 137.674 180.243 134.139L173.93 130.71L171.442 136.817Z" fill="#262424"/>
<path d="M176.603 126.285C176.603 126.285 176.033 134.998 169.317 139.427L138.175 124.427C138.175 124.427 103.889 139.142 92.174 143.998C80.459 148.854 50.174 132.427 72.8883 119.998C72.8883 119.998 114.674 107.46 132.445 102.679C136.713 101.529 139.593 100.828 140.174 100.856C140.93 100.892 143.624 102.529 147.23 104.957C157.913 112.149 176.603 126.285 176.603 126.285Z" fill="#88C0C2"/>
<path d="M147.23 104.957C145.627 106.125 143.347 106.856 140.817 106.856C136.897 106.856 133.576 105.101 132.444 102.679C136.713 101.529 139.593 100.828 140.174 100.856C140.93 100.892 143.624 102.529 147.23 104.957Z" fill="white"/>
<path d="M169.747 131.706C169.673 131.708 169.599 131.689 169.533 131.653L139.274 114.894L89.8402 131.179C89.7323 131.215 89.6146 131.206 89.5131 131.155C89.4117 131.103 89.3347 131.014 89.2992 130.906C89.2637 130.798 89.2725 130.68 89.3237 130.579C89.375 130.477 89.4644 130.401 89.5724 130.365L139.184 114.021C139.24 114.003 139.299 113.996 139.358 114.002C139.416 114.008 139.473 114.025 139.525 114.054L169.953 130.905C170.035 130.951 170.099 131.024 170.136 131.11C170.173 131.197 170.18 131.293 170.157 131.384C170.134 131.476 170.081 131.557 170.007 131.615C169.933 131.673 169.842 131.705 169.747 131.706Z" fill="#262424"/>
<path d="M138.508 123.291H138.465C138.352 123.281 138.248 123.225 138.176 123.138C138.103 123.05 138.069 122.937 138.08 122.824L139.382 109.442C139.388 109.386 139.404 109.331 139.431 109.281C139.458 109.231 139.494 109.187 139.537 109.151C139.581 109.115 139.631 109.088 139.686 109.072C139.74 109.056 139.796 109.05 139.853 109.055C139.909 109.061 139.964 109.077 140.014 109.104C140.063 109.131 140.108 109.167 140.144 109.21C140.179 109.254 140.206 109.304 140.223 109.359C140.239 109.413 140.245 109.469 140.24 109.526L138.937 122.908C138.926 123.014 138.876 123.111 138.796 123.182C138.717 123.253 138.614 123.292 138.508 123.291Z" fill="#262424"/>
<path d="M167.889 136.356C167.796 136.357 167.706 136.327 167.632 136.273C167.558 136.218 167.503 136.14 167.476 136.052C167.45 135.964 167.452 135.869 167.484 135.782C167.515 135.695 167.574 135.621 167.651 135.57C172.076 132.643 173.096 126.141 173.107 126.079C173.123 125.966 173.185 125.863 173.277 125.795C173.369 125.726 173.485 125.697 173.598 125.714C173.712 125.731 173.814 125.792 173.883 125.884C173.951 125.976 173.981 126.092 173.964 126.206C173.921 126.489 172.882 133.144 168.133 136.277C168.062 136.328 167.976 136.356 167.889 136.356Z" fill="#262424"/>
<path d="M145.53 268.142C138.817 268.069 124.745 260.355 124.745 260.355C124.316 259.363 123.909 258.345 123.528 257.325C121.937 252.971 120.626 248.52 119.602 243.999C119.602 243.999 119.461 240.141 122.816 238.284C122.816 238.284 127.53 236.428 129.817 239.428C132.103 242.428 144.888 254.284 144.888 254.284C144.888 254.284 151.674 254.428 153.459 257.856C155.244 261.285 152.246 268.213 145.53 268.142Z" fill="#88C0C2"/>
<path d="M125.659 253.748C126.887 253.405 127.5 251.756 127.028 250.066C126.555 248.375 125.176 247.284 123.947 247.627C122.719 247.971 122.106 249.619 122.578 251.31C123.051 253 124.43 254.092 125.659 253.748Z" fill="white"/>
<path d="M125.217 254.229C123.931 254.229 122.645 253.082 122.176 251.415C121.922 250.56 121.942 249.646 122.234 248.803C122.542 247.976 123.112 247.408 123.843 247.204C124.574 247.001 125.356 247.189 126.048 247.738C126.723 248.317 127.211 249.084 127.45 249.94C127.69 250.797 127.67 251.705 127.394 252.551C127.085 253.378 126.515 253.946 125.784 254.151C125.6 254.203 125.409 254.229 125.217 254.229ZM124.424 247.982C124.306 247.982 124.19 247.998 124.077 248.029C123.831 248.112 123.608 248.253 123.428 248.439C123.247 248.625 123.114 248.852 123.039 249.101C122.81 249.773 122.798 250.501 123.003 251.181C123.41 252.641 124.557 253.601 125.555 253.324C125.801 253.241 126.024 253.101 126.204 252.915C126.384 252.728 126.518 252.501 126.592 252.253C126.807 251.578 126.82 250.854 126.629 250.172C126.439 249.49 126.054 248.878 125.521 248.411C125.214 248.148 124.826 247.996 124.422 247.982H124.424Z" fill="#262424"/>
<path d="M140.818 258.857C140.743 258.858 140.669 258.84 140.604 258.804C132.836 254.518 123.791 243.662 123.41 243.201C123.341 243.114 123.309 243.002 123.321 242.891C123.333 242.78 123.387 242.678 123.473 242.607C123.56 242.536 123.67 242.501 123.781 242.51C123.893 242.519 123.996 242.571 124.07 242.655C124.162 242.766 133.393 253.856 141.017 258.054C141.1 258.099 141.165 258.171 141.203 258.257C141.241 258.344 141.249 258.44 141.226 258.532C141.203 258.623 141.151 258.705 141.077 258.764C141.004 258.823 140.912 258.855 140.818 258.857Z" fill="#262424"/>
<path d="M144.388 255.499C144.308 255.499 144.229 255.477 144.161 255.435C136.766 250.813 127.661 240.746 127.569 240.649C127.531 240.607 127.502 240.558 127.483 240.504C127.465 240.451 127.457 240.394 127.46 240.338C127.463 240.281 127.477 240.226 127.502 240.175C127.526 240.124 127.561 240.078 127.603 240.041C127.645 240.003 127.694 239.974 127.748 239.955C127.801 239.937 127.858 239.929 127.914 239.932C127.971 239.935 128.026 239.949 128.077 239.974C128.128 239.998 128.174 240.033 128.212 240.075C128.302 240.176 137.329 250.146 144.619 254.713C144.696 254.763 144.754 254.837 144.786 254.923C144.818 255.01 144.821 255.104 144.795 255.192C144.769 255.28 144.715 255.357 144.642 255.413C144.569 255.468 144.48 255.498 144.388 255.499Z" fill="#262424"/>
<path d="M145.53 268.142C138.817 268.069 124.745 260.355 124.745 260.355C124.316 259.363 123.909 258.345 123.528 257.325C129.63 261.135 141.03 264.356 141.03 264.356C138.673 257.214 144.888 254.284 144.888 254.284C144.888 254.284 151.674 254.428 153.459 257.856C155.244 261.285 152.246 268.213 145.53 268.142Z" fill="white"/>
<path d="M145.631 268.571H145.529C138.785 268.498 125.12 261.047 124.541 260.73C124.457 260.682 124.391 260.606 124.355 260.516C123.926 259.545 123.524 258.521 123.129 257.467C123.098 257.383 123.093 257.291 123.117 257.205C123.14 257.118 123.19 257.041 123.259 256.984C123.328 256.928 123.413 256.894 123.503 256.888C123.592 256.883 123.681 256.905 123.757 256.952C128.842 260.128 137.769 262.927 140.401 263.715C138.624 256.858 144.646 253.918 144.708 253.888C144.768 253.86 144.834 253.846 144.901 253.847C145.188 253.847 151.972 254.038 153.843 257.651C154.801 259.487 154.518 262.151 153.123 264.416C152.347 265.704 151.247 266.765 149.932 267.494C148.618 268.223 147.135 268.595 145.631 268.571ZM145.537 267.714C146.909 267.755 148.267 267.431 149.472 266.774C150.677 266.117 151.685 265.152 152.394 263.977C153.616 261.986 153.894 259.605 153.086 258.056C151.552 255.109 145.829 254.754 144.989 254.717C144.232 255.109 139.364 257.914 141.444 264.223C141.468 264.297 141.472 264.376 141.455 264.451C141.438 264.527 141.4 264.597 141.347 264.653C141.293 264.709 141.225 264.75 141.15 264.77C141.075 264.791 140.996 264.79 140.921 264.769C140.814 264.739 130.636 261.842 124.376 258.322C124.61 258.913 124.848 259.492 125.088 260.051C126.517 260.82 139.351 267.647 145.544 267.716L145.537 267.714Z" fill="#262424"/>
<path d="M119.424 235.32L121.888 242.284C121.888 242.284 125.317 244.534 128.103 240.784L126.603 233.07L119.424 235.32Z" fill="white"/>
<path d="M124.308 243.375C123.375 243.366 122.46 243.113 121.655 242.642C121.577 242.591 121.517 242.516 121.486 242.428L119.021 235.464C119.002 235.409 118.994 235.351 118.997 235.294C119.001 235.236 119.016 235.18 119.042 235.128C119.068 235.077 119.103 235.031 119.147 234.993C119.191 234.956 119.243 234.928 119.298 234.911L126.476 232.661C126.534 232.643 126.595 232.637 126.654 232.644C126.714 232.651 126.772 232.671 126.824 232.702C126.876 232.733 126.92 232.774 126.955 232.824C126.99 232.873 127.013 232.929 127.025 232.989L128.525 240.703C128.536 240.761 128.535 240.821 128.522 240.879C128.508 240.937 128.483 240.992 128.448 241.039C127.085 242.874 125.572 243.375 124.308 243.375ZM122.242 241.995C122.827 242.323 125.413 243.525 127.646 240.677L126.275 233.623L119.977 235.596L122.242 241.995Z" fill="#262424"/>
<path d="M129.459 231.714C123.888 239.998 114.603 236.141 114.603 236.141C109.316 224.284 97.175 187.712 97.175 187.712L57.7465 143.569C57.7465 143.569 49.6036 126.714 61.8886 119.713C74.1736 112.712 84.4593 127.571 84.4593 127.571L111.189 169.903L116.032 177.57L118.653 188.143L129.459 231.714Z" fill="#88C0C2"/>
<path d="M93.4098 142.172C93.3375 142.172 93.2664 142.154 93.2031 142.119C93.1398 142.084 93.0863 142.034 93.0476 141.973L84.0969 127.8C84.0798 127.776 81.4012 123.943 77.2398 121.168C77.1929 121.137 77.1527 121.096 77.1213 121.05C77.09 121.003 77.0682 120.95 77.0572 120.895C77.0461 120.84 77.0461 120.783 77.057 120.728C77.0679 120.673 77.0896 120.62 77.1208 120.573C77.1521 120.526 77.1922 120.486 77.239 120.455C77.2858 120.423 77.3383 120.402 77.3935 120.391C77.4488 120.38 77.5056 120.379 77.5608 120.39C77.6161 120.401 77.6686 120.423 77.7155 120.454C80.4529 122.326 82.8521 124.65 84.8105 127.326L93.7698 141.514C93.8107 141.579 93.8336 141.653 93.836 141.73C93.8385 141.806 93.8204 141.882 93.7836 141.949C93.7469 142.016 93.6928 142.073 93.6271 142.112C93.5613 142.151 93.4863 142.172 93.4098 142.172Z" fill="#262424"/>
<path d="M88.9029 135.036C88.8384 135.038 88.7745 135.025 88.7158 134.998C88.6571 134.971 88.6052 134.931 88.564 134.882C88.5228 134.832 88.4934 134.774 88.4778 134.711C88.4623 134.648 88.4611 134.583 88.4744 134.52L89.2779 130.682C89.4662 129.79 89.3043 128.859 88.8258 128.083L82.9522 118.5C82.8949 118.403 82.878 118.288 82.9051 118.178C82.9322 118.069 83.0011 117.975 83.0971 117.916C83.193 117.857 83.3082 117.839 83.4178 117.864C83.5274 117.89 83.6227 117.957 83.6829 118.052L89.5715 127.633C90.1629 128.593 90.3639 129.743 90.1329 130.847L89.3294 134.685C89.3112 134.784 89.2584 134.874 89.1803 134.939C89.1023 135.003 89.0041 135.038 88.9029 135.036Z" fill="#262424"/>
<path d="M118.653 188.143C118.546 188.19 118.439 188.235 118.325 188.276C114.438 189.705 109.754 186.722 107.885 181.614C106.064 176.655 107.544 171.512 111.189 169.911L116.032 177.579L118.653 188.143Z" fill="white"/>
<path d="M116.818 230.499C116.729 230.498 116.643 230.471 116.571 230.42C116.499 230.369 116.444 230.297 116.415 230.214C111.321 215.897 102.058 187.785 101.509 186.086L61.7034 138.559C61.6293 138.473 61.5926 138.36 61.6014 138.246C61.6102 138.133 61.6639 138.027 61.7506 137.953C61.8372 137.879 61.9498 137.842 62.0635 137.851C62.1773 137.86 62.2828 137.913 62.357 138L102.214 185.599C102.249 185.641 102.276 185.689 102.293 185.741C102.39 186.034 111.994 215.246 117.218 229.926C117.241 229.991 117.248 230.06 117.239 230.128C117.23 230.195 117.205 230.26 117.166 230.316C117.126 230.372 117.074 230.418 117.014 230.449C116.953 230.481 116.886 230.498 116.818 230.499Z" fill="#262424"/>
<path d="M98.0316 187.999C97.9338 187.999 97.8388 187.966 97.7626 187.904C97.6864 187.843 97.6335 187.757 97.6127 187.662C97.5919 187.566 97.6045 187.466 97.6483 187.379C97.6922 187.291 97.7647 187.221 97.8538 187.181L105.283 183.789C105.387 183.741 105.504 183.737 105.611 183.777C105.717 183.817 105.804 183.897 105.851 184.001C105.898 184.104 105.902 184.222 105.862 184.329C105.823 184.435 105.742 184.521 105.639 184.569L98.2095 187.961C98.1537 187.986 98.093 187.999 98.0316 187.999Z" fill="#262424"/>
<path d="M118.461 233.764C117.197 233.771 115.937 233.627 114.707 233.336C114.601 233.304 114.511 233.232 114.457 233.136C114.402 233.039 114.387 232.925 114.415 232.818C114.443 232.711 114.511 232.618 114.605 232.56C114.7 232.502 114.813 232.483 114.921 232.506C114.994 232.526 122.327 234.381 127.301 229.611C127.383 229.533 127.493 229.49 127.606 229.492C127.72 229.495 127.828 229.542 127.907 229.624C127.986 229.706 128.029 229.816 128.026 229.93C128.024 230.044 127.976 230.152 127.894 230.231C124.894 233.119 121.183 233.764 118.461 233.764Z" fill="#262424"/>
<path d="M65.745 61.5343C65.745 61.5343 97.3929 77.6893 99.3215 86.0464C101.25 94.4035 88.7807 96.8914 77.2093 86.7128C65.6379 76.5343 65.745 61.5343 65.745 61.5343Z" fill="#605DEC"/>
<path d="M90.3176 83.4643C88.9633 84.0408 88.9247 86.5008 89.604 89.4643C90.2833 92.4279 96.819 92.3936 97.5326 91.3222C98.2462 90.2508 97.9247 86.2158 97.1404 85.1079C96.3562 84.0001 91.9954 82.7486 90.3176 83.4643Z" fill="white"/>
<path d="M94.8457 92.4129C94.209 92.413 93.5737 92.3563 92.9471 92.2436C90.8299 91.8558 89.4928 90.9022 89.1864 89.5565C88.6078 87.03 88.3057 83.8522 90.1507 83.0658C91.9807 82.2879 96.5899 83.5886 97.4899 84.855C98.3471 86.0722 98.7392 90.2829 97.8907 91.5558C97.5007 92.1429 96.2278 92.4129 94.8457 92.4129ZM90.4871 83.8565C89.5035 84.285 89.3278 86.3358 90.0221 89.3658C90.3392 90.75 92.2807 91.2493 93.1014 91.3993C95.0878 91.7636 96.9585 91.3993 97.1728 91.08C97.7557 90.2058 97.4964 86.3508 96.7871 85.3522C96.1442 84.4458 92.0385 83.1943 90.4828 83.8522L90.4871 83.8565Z" fill="#262424"/>
<path d="M87.2142 83.6058C85.4164 83.9058 86.2864 88.0693 86.7856 90.0343C87.2849 91.9993 90.2142 92.7129 90.1071 90.0343C89.9999 87.3557 89.3571 83.25 87.2142 83.6058Z" fill="white"/>
<path d="M88.8494 92.2135C87.8615 92.2135 86.7065 91.44 86.3658 90.1393C85.5579 86.97 85.4808 84.8528 86.1365 83.85C86.2467 83.6738 86.3931 83.5231 86.566 83.4078C86.7389 83.2926 86.9344 83.2154 87.1394 83.1814C87.4038 83.1341 87.6754 83.1459 87.9347 83.2159C88.194 83.286 88.4347 83.4125 88.6394 83.5864C90.1586 84.8228 90.4651 88.4957 90.5251 90.015C90.5979 91.8321 89.4536 92.1428 89.1001 92.1943C89.0171 92.2066 88.9333 92.2131 88.8494 92.2135ZM87.2808 84.0278C87.1923 84.0417 87.1079 84.0751 87.0338 84.1255C86.9597 84.1759 86.8977 84.242 86.8522 84.3193C86.3572 85.08 86.4815 87.1243 87.1951 89.9271C87.4308 90.8528 88.3329 91.44 88.9801 91.3457C89.6272 91.2514 89.6915 90.4885 89.6722 90.06C89.5822 87.8014 89.1215 85.0907 88.1015 84.2614C87.9896 84.1656 87.8574 84.0965 87.7148 84.0594C87.5722 84.0223 87.4231 84.0181 87.2786 84.0471L87.2808 84.0278Z" fill="#262424"/>
<path d="M59.032 150.285C59.032 150.285 70.8884 129.714 99.8898 111L82.747 98.4278C82.747 98.4278 78.7463 79.1057 65.7477 61.5343C65.7477 61.5343 54.6048 58.7121 48.1763 59.2843C41.7477 59.8564 32.6041 73.5707 32.6041 73.5707C32.6041 73.5707 38.6041 111.431 42.3177 124.003C46.0313 136.575 59.032 150.285 59.032 150.285Z" fill="#605DEC"/>
<path d="M56.6873 81.1543C56.5149 81.1607 56.3429 81.1323 56.1816 81.0707C55.9202 80.955 55.6952 80.8565 54.1288 75.2508C53.3788 72.5722 52.6802 69.8936 52.6738 69.8593C52.6572 69.8041 52.652 69.7461 52.6584 69.6888C52.6648 69.6315 52.6827 69.5761 52.711 69.5259C52.7394 69.4757 52.7775 69.4317 52.8232 69.3965C52.869 69.3614 52.9213 69.3359 52.9771 69.3215C53.0329 69.307 53.0911 69.304 53.1481 69.3126C53.2051 69.3212 53.2598 69.3412 53.3089 69.3714C53.358 69.4016 53.4005 69.4414 53.4339 69.4884C53.4672 69.5354 53.4908 69.5887 53.503 69.645C54.7116 74.2907 56.173 79.47 56.6038 80.3015C57.2404 80.2801 57.8634 80.1106 58.4231 79.8065C58.7745 79.6093 58.9952 79.3886 59.0466 79.185C59.1816 78.5422 57.793 73.4293 56.3745 68.8629C56.3407 68.7543 56.3514 68.6368 56.4042 68.5361C56.457 68.4355 56.5477 68.3599 56.6563 68.3261C56.7648 68.2923 56.8823 68.303 56.983 68.3558C57.0837 68.4087 57.1592 68.4993 57.193 68.6079C57.8916 70.86 60.1545 78.2893 59.878 79.3929C59.7538 79.8879 59.3273 80.325 58.6416 80.6593C58.0305 80.9552 57.3656 81.1236 56.6873 81.1543Z" fill="#262424"/>
<path d="M57.7459 144C57.6655 144 57.5868 143.978 57.5186 143.935C57.4504 143.893 57.3955 143.832 57.3602 143.76C57.3249 143.688 57.3106 143.607 57.319 143.527C57.3273 143.447 57.3579 143.371 57.4073 143.308C57.5916 143.072 76.0073 119.571 94.7337 110.029C94.784 110.002 94.8393 109.984 94.8963 109.979C94.9534 109.973 95.011 109.978 95.0658 109.995C95.1207 110.012 95.1715 110.04 95.2155 110.077C95.2594 110.113 95.2955 110.159 95.3216 110.21C95.3477 110.261 95.3633 110.317 95.3674 110.374C95.3716 110.431 95.3642 110.489 95.3458 110.543C95.3273 110.597 95.2982 110.647 95.26 110.69C95.2219 110.733 95.1755 110.768 95.1237 110.792C76.5666 120.246 58.2666 143.597 58.0866 143.833C58.0464 143.885 57.9948 143.927 57.9357 143.956C57.8766 143.985 57.8117 144 57.7459 144Z" fill="#262424"/>
<path d="M79.5297 88.1142C79.4416 88.1142 79.3557 88.087 79.2836 88.0364C79.2115 87.9858 79.1568 87.9142 79.1268 87.8314C76.9433 81.7885 73.0518 72.7328 66.9126 63.9064C66.8478 63.8129 66.8228 63.6975 66.8431 63.5856C66.8634 63.4736 66.9273 63.3744 67.0208 63.3096C67.1143 63.2448 67.2297 63.2198 67.3416 63.2401C67.4535 63.2604 67.5528 63.3243 67.6176 63.4178C73.804 72.3192 77.7276 81.4499 79.9283 87.5399C79.9515 87.6043 79.9591 87.6733 79.9502 87.7412C79.9413 87.809 79.9163 87.8738 79.8773 87.93C79.8383 87.9863 79.7864 88.0323 79.7259 88.0644C79.6654 88.0964 79.5981 88.1135 79.5297 88.1142Z" fill="#262424"/>
<path d="M58.5667 63.0878C58.4081 65.5007 56.3231 67.3735 56.3231 67.3735C55.8945 66.0493 54.5017 63.8528 53.0724 62.0421C53.0724 62.0421 52.481 65.2564 52.0974 67.9757C50.5181 68.3078 44.1495 68.2693 42.3752 64.5471C42.3752 64.5471 42.6688 56.5478 50.3038 55.9757C53.5867 55.7443 57.5188 58.7785 58.5667 63.0878Z" fill="white"/>
<path d="M50.3574 68.535C47.7109 68.535 43.4574 67.8257 41.9809 64.7357C41.9512 64.6729 41.9372 64.6037 41.9402 64.5343C41.9402 64.4507 42.3388 56.145 50.2631 55.56C53.9402 55.2879 57.9302 58.6864 58.9759 62.985C58.986 63.0271 58.9896 63.0704 58.9866 63.1136C58.8195 65.6722 56.6916 67.6136 56.6016 67.6864C56.5487 67.7338 56.4848 67.7672 56.4157 67.7837C56.3466 67.8002 56.2745 67.7992 56.2059 67.781C56.1372 67.7627 56.0742 67.7276 56.0225 67.679C55.9707 67.6303 55.9319 67.5695 55.9095 67.5022C55.5645 66.4586 54.5573 64.7486 53.3166 63.0707C53.1023 64.23 52.7681 66.2507 52.5152 68.0314C52.503 68.1188 52.4641 68.2002 52.4039 68.2646C52.3437 68.329 52.2651 68.3733 52.1788 68.3914C51.5776 68.497 50.9677 68.5451 50.3574 68.535ZM42.8016 64.4636C44.4174 67.6179 49.8945 67.8343 51.7095 67.6007C52.0888 64.98 52.6374 61.9929 52.6416 61.9607C52.6564 61.8795 52.6942 61.8042 52.7507 61.744C52.8072 61.6838 52.8798 61.6411 52.96 61.6212C53.0401 61.6013 53.1243 61.6049 53.2024 61.6317C53.2805 61.6585 53.3492 61.7073 53.4002 61.7722C54.5231 63.195 55.8216 65.13 56.4688 66.5914C57.0473 65.9336 58.0009 64.635 58.1252 63.1243C57.0538 58.8386 53.2352 56.1986 50.3252 56.415C47.3252 56.6293 45.1438 58.0693 43.8516 60.6707C43.2763 61.861 42.9233 63.1464 42.8102 64.4636H42.8016Z" fill="#262424"/>
<path d="M68.2833 97.9628L71.6048 96.3192C71.6048 96.3192 75.8905 90.7114 76.7112 89.7128C77.5319 88.7142 84.9247 91.9992 85.3533 92.5692C85.7819 93.1392 85.4605 94.1057 84.8176 94.3543C85.3798 95.1198 85.7591 96.004 85.9263 96.939C86.0934 97.874 86.044 98.8349 85.7819 99.7478C84.8883 102.891 79.3898 100.14 79.3898 100.14C79.3898 100.14 77.9262 104.282 76.319 104.711C74.7119 105.139 70.4626 104.175 70.4626 104.175L68.2833 97.9628Z" fill="white"/>
<path d="M75.2153 105.249C73.2675 105.249 70.5011 104.627 70.3596 104.595C70.289 104.579 70.2237 104.545 70.1697 104.497C70.1158 104.448 70.0749 104.387 70.0511 104.319L67.8718 98.1043C67.8374 98.0057 67.8402 97.898 67.8797 97.8013C67.9191 97.7046 67.9925 97.6257 68.0861 97.5793L71.3175 95.9807C71.8639 95.2672 75.6032 90.3836 76.3725 89.4407C76.5718 89.1986 76.9082 89.085 77.3968 89.0979C79.5589 89.145 85.2096 91.6693 85.6896 92.3122C85.8281 92.5062 85.9196 92.7297 85.9568 92.9651C85.9939 93.2005 85.9759 93.4414 85.9039 93.6686C85.8186 93.976 85.6503 94.254 85.4175 94.4722C85.92 95.2656 86.2486 96.1565 86.3816 97.0862C86.5146 98.0159 86.4489 98.9633 86.1889 99.8657C86.1037 100.209 85.9404 100.528 85.7119 100.798C85.4833 101.067 85.1956 101.281 84.8711 101.421C83.2253 102.146 80.6432 101.171 79.6232 100.725C79.1732 101.878 77.9089 104.73 76.4218 105.129C76.0262 105.219 75.6209 105.259 75.2153 105.249ZM70.7796 103.811C72.0889 104.091 75.0418 104.608 76.2011 104.299C77.2125 104.029 78.4425 101.514 78.9868 99.9986C79.0071 99.9414 79.0393 99.8891 79.0813 99.8453C79.1234 99.8014 79.1742 99.767 79.2305 99.7443C79.2869 99.7217 79.3474 99.7112 79.4081 99.7136C79.4687 99.7161 79.5282 99.7314 79.5825 99.7586C80.4889 100.211 83.1439 101.259 84.5346 100.637C84.7429 100.546 84.9271 100.408 85.0725 100.234C85.218 100.059 85.3207 99.8533 85.3725 99.6322C85.619 98.7863 85.6676 97.8951 85.5145 97.0274C85.3614 96.1598 85.0107 95.339 84.4896 94.6286C84.4468 94.5763 84.417 94.5146 84.4025 94.4485C84.3881 94.3824 84.3895 94.3139 84.4067 94.2485C84.4238 94.1831 84.4562 94.1226 84.5011 94.0721C84.5461 94.0216 84.6024 93.9825 84.6653 93.9579C84.7714 93.9085 84.865 93.8358 84.9392 93.7453C85.0134 93.6548 85.0663 93.5488 85.0939 93.435C85.1282 93.3349 85.1392 93.2282 85.1262 93.1232C85.1132 93.0181 85.0766 92.9174 85.0189 92.8286C84.3589 92.1622 77.8103 89.4857 77.0368 90C76.2439 90.9686 71.9946 96.525 71.9518 96.5829C71.912 96.6353 71.8607 96.6778 71.8018 96.7072L68.8211 98.1815L70.7796 103.811Z" fill="#262424"/>
<path d="M84.8169 94.785C84.7595 94.7848 84.7026 94.7732 84.6498 94.7507L78.7569 92.25C78.703 92.2295 78.6537 92.1984 78.6121 92.1585C78.5705 92.1186 78.5374 92.0706 78.5147 92.0176C78.492 91.9646 78.4803 91.9075 78.4802 91.8498C78.4801 91.7921 78.4917 91.735 78.5142 91.6819C78.5367 91.6288 78.5697 91.5808 78.6112 91.5408C78.6527 91.5007 78.7019 91.4695 78.7558 91.4489C78.8097 91.4283 78.8671 91.4188 78.9248 91.4209C78.9824 91.4231 79.039 91.4368 79.0912 91.4614L84.9841 93.9621C85.0749 94.0008 85.1496 94.0696 85.1955 94.157C85.2414 94.2444 85.2558 94.345 85.2361 94.4417C85.2165 94.5384 85.164 94.6254 85.0876 94.688C85.0113 94.7505 84.9157 94.7848 84.8169 94.785Z" fill="#262424"/>
<path d="M72.8882 105.285C72.8882 105.285 57.8432 121.239 50.7396 125.955C50.3882 126.188 50.0567 126.393 49.7453 126.57C45.6439 128.889 41.4846 129.429 37.7903 123.973C35.5724 120.694 33.5174 115.245 31.7453 106.714C27.031 84 32.6024 73.5729 32.6024 73.5729C36.6032 71.5007 46.3896 74.5008 47.3174 83.9293C48.2453 93.3579 51.2453 104.001 51.2453 104.001L69.3182 96.7158L72.8882 105.285Z" fill="#605DEC"/>
<path d="M51.7931 125.646C51.703 125.646 51.6153 125.617 51.5424 125.564C51.4695 125.511 51.4152 125.437 51.3872 125.351C51.3592 125.265 51.3589 125.173 51.3864 125.087C51.4139 125.001 51.4677 124.926 51.5403 124.873C58.3824 119.861 70.706 106.963 72.386 105.193L69.086 97.2643L51.4053 104.391C51.3495 104.414 51.2897 104.424 51.2296 104.422C51.1696 104.42 51.1106 104.405 51.0567 104.379C51.0027 104.352 50.9549 104.315 50.9164 104.268C50.8779 104.222 50.8495 104.169 50.8331 104.111C50.8031 104.004 47.8117 93.3214 46.8903 83.9679C46.4853 79.8493 44.3767 77.3571 42.6817 75.9921C40.3653 74.1279 37.2024 73.1207 34.6246 73.4207C34.5683 73.4273 34.5113 73.4228 34.4567 73.4074C34.4022 73.3919 34.3513 73.3659 34.3068 73.3308C34.217 73.2599 34.159 73.1562 34.1457 73.0425C34.1323 72.9288 34.1646 72.8145 34.2356 72.7247C34.3065 72.6349 34.4102 72.5769 34.5239 72.5636C37.361 72.2271 40.6931 73.2814 43.2196 75.3129C45.0431 76.7807 47.3103 79.4571 47.7453 83.8714C48.551 92.0529 50.9596 101.265 51.5339 103.408L69.161 96.3021C69.2656 96.2603 69.3826 96.2613 69.4864 96.305C69.5903 96.3488 69.6728 96.4316 69.716 96.5357L73.286 105.107C73.3178 105.183 73.3268 105.267 73.312 105.349C73.2972 105.43 73.2591 105.505 73.2024 105.566C73.0653 105.711 59.426 120.137 52.0481 125.55C51.9759 125.609 51.8864 125.643 51.7931 125.646Z" fill="#262424"/>
<path d="M45.0327 117.285C44.9679 117.285 44.904 117.27 44.8458 117.242C44.7876 117.213 44.7365 117.172 44.6965 117.121C44.6565 117.07 44.6286 117.011 44.6148 116.948C44.601 116.884 44.6018 116.819 44.617 116.756C44.6791 116.501 46.1834 110.464 50.1884 105.24C50.2597 105.157 50.3603 105.104 50.4693 105.092C50.5784 105.081 50.6877 105.112 50.7748 105.178C50.8618 105.245 50.92 105.343 50.9373 105.451C50.9545 105.559 50.9296 105.67 50.8677 105.761C46.972 110.839 45.4591 116.904 45.4441 116.959C45.4213 117.051 45.3686 117.133 45.2941 117.192C45.2196 117.251 45.1277 117.284 45.0327 117.285Z" fill="#262424"/>
<path d="M50.7447 125.713C50.7447 125.794 50.7447 125.874 50.7447 125.955C50.3932 126.188 50.0618 126.393 49.7504 126.57C45.6425 128.889 41.4832 129.429 37.7889 123.973C38.6611 121.749 41.1575 120.142 44.1018 120.142C47.7704 120.142 50.7447 122.636 50.7447 125.713Z" fill="white"/>
<path d="M67.6036 107.713C67.5328 107.713 67.4631 107.696 67.4006 107.662C67.3382 107.629 67.285 107.581 67.2457 107.522C64.9143 104.025 64.8885 99.8185 64.8885 99.6406C64.8885 99.527 64.9337 99.418 65.0141 99.3376C65.0944 99.2572 65.2035 99.2121 65.3171 99.2121C65.4308 99.2121 65.5398 99.2572 65.6202 99.3376C65.7005 99.418 65.7457 99.527 65.7457 99.6406C65.7457 99.6814 65.7757 103.772 67.9593 107.046C68.0023 107.111 68.027 107.186 68.0308 107.263C68.0346 107.341 68.0173 107.418 67.9808 107.486C67.9443 107.554 67.89 107.612 67.8235 107.652C67.7571 107.691 67.6811 107.713 67.6036 107.713Z" fill="#262424"/>
<path d="M69.4953 105.429C70.1462 105.429 70.6739 104.901 70.6739 104.25C70.6739 103.599 70.1462 103.071 69.4953 103.071C68.8444 103.071 68.3168 103.599 68.3168 104.25C68.3168 104.901 68.8444 105.429 69.4953 105.429Z" fill="white"/>
<path d="M69.4953 105.857C69.1775 105.857 68.8667 105.763 68.6024 105.586C68.3382 105.41 68.1322 105.159 68.0105 104.865C67.8889 104.571 67.8571 104.248 67.9191 103.936C67.9811 103.625 68.1341 103.338 68.3589 103.114C68.5837 102.889 68.87 102.736 69.1818 102.674C69.4935 102.612 69.8167 102.643 70.1103 102.765C70.404 102.887 70.655 103.093 70.8316 103.357C71.0082 103.621 71.1025 103.932 71.1025 104.25C71.1019 104.676 70.9324 105.084 70.6311 105.386C70.3298 105.687 69.9214 105.857 69.4953 105.857ZM69.4953 103.5C69.347 103.5 69.202 103.544 69.0786 103.626C68.9553 103.709 68.8592 103.826 68.8024 103.963C68.7457 104.1 68.7308 104.251 68.7597 104.396C68.7887 104.542 68.8601 104.675 68.965 104.78C69.0699 104.885 69.2035 104.957 69.349 104.986C69.4945 105.014 69.6453 105 69.7823 104.943C69.9194 104.886 70.0365 104.79 70.1189 104.667C70.2013 104.543 70.2453 104.398 70.2453 104.25C70.2453 104.051 70.1663 103.86 70.0257 103.72C69.885 103.579 69.6942 103.5 69.4953 103.5Z" fill="#262424"/>
<path d="M45.4504 46.7143L45.7633 51.4093L46.2862 59.445C49.0719 61.2278 51.7033 61.3221 54.1654 59.3164L53.6447 55.5964L52.8562 49.9628L45.4504 46.7143Z" fill="white"/>
<path d="M50.3389 61.2299C48.9717 61.2299 47.5467 60.7557 46.0639 59.8071C46.0073 59.771 45.96 59.7222 45.9257 59.6645C45.8915 59.6068 45.8713 59.5419 45.8667 59.4749L45.0224 46.7507C45.0161 46.6765 45.0292 46.602 45.0604 46.5345C45.0916 46.467 45.1398 46.4087 45.2003 46.3655C45.2609 46.3222 45.3316 46.2955 45.4056 46.2879C45.4796 46.2803 45.5544 46.2921 45.6224 46.3221L53.0367 49.5642C53.104 49.5936 53.1625 49.6398 53.2068 49.6984C53.2511 49.7569 53.2796 49.8258 53.2896 49.8985L54.5989 59.2521C54.6091 59.3252 54.6003 59.3997 54.5732 59.4684C54.5462 59.5371 54.5019 59.5977 54.4446 59.6442C53.1439 60.7028 51.7789 61.2299 50.3389 61.2299ZM46.7153 59.1985C49.2867 60.7864 51.5924 60.765 53.7224 59.1321L52.4817 50.2585L45.9331 47.3935L46.7153 59.1985Z" fill="#262424"/>
<path d="M59.7158 46.7615C59.4222 50.6401 58.4172 55.2943 53.7587 54.6901C48.2194 53.9722 44.5551 50.1622 44.3729 44.9143C44.1908 39.6665 46.5351 36.6451 52.8372 37.0865C53.3738 37.1227 53.9063 37.2037 54.4294 37.3286C58.0722 38.2115 59.9665 41.1643 59.8294 44.6872C59.8037 45.3258 59.7737 46.0286 59.7158 46.7615Z" fill="white"/>
<path d="M54.5467 55.1722C54.2644 55.1718 53.9824 55.1531 53.7024 55.1164C51.5605 54.8729 49.5232 54.0589 47.8032 52.7593C47.7136 52.6891 47.6557 52.5862 47.642 52.4733C47.6284 52.3604 47.6601 52.2467 47.7303 52.1572C47.8005 52.0676 47.9034 52.0097 48.0163 51.996C48.1292 51.9824 48.2429 52.0141 48.3324 52.0843C49.9308 53.2912 51.8238 54.0467 53.8139 54.2722C55.0996 54.4372 56.1132 54.195 56.9296 53.5307C58.6932 52.095 59.1217 48.9643 59.2867 46.7357C59.3424 46.0093 59.3724 45.3214 59.3982 44.6786C59.5332 41.1986 57.5896 38.5457 54.326 37.7529C54.2155 37.7262 54.1201 37.6566 54.0608 37.5596C54.0015 37.4625 53.9832 37.3459 54.0099 37.2354C54.0367 37.1248 54.1062 37.0294 54.2032 36.9702C54.3003 36.9109 54.4169 36.8926 54.5274 36.9193C58.2132 37.8129 60.4074 40.8 60.2553 44.7107C60.2317 45.3322 60.1996 46.0586 60.1417 46.8C59.9617 49.185 59.4989 52.5493 57.4674 54.195C56.6391 54.8541 55.6049 55.2001 54.5467 55.1722Z" fill="#262424"/>
<path d="M42.7546 45.9429C43.3051 46.6991 43.9202 47.4061 44.5932 48.0557L47.3789 48.1586L47.9232 46.1743C47.9232 46.1743 49.6868 46.0522 50.0211 44.85C50.0299 44.8226 50.0371 44.7947 50.0425 44.7664C50.1261 44.3743 50.4432 42.6236 50.1111 39.9257C50.1111 39.9257 54.3968 41.6936 56.7196 41.8779C57.5532 41.9443 58.5153 41.6014 59.4068 41.1322C61.1918 40.1936 62.6982 37.2064 62.3339 35.2222V35.1836C61.7639 32.2757 60.2939 34.3372 60.2939 34.3372C60.2939 34.3372 59.7989 31.9972 58.3225 31.8643C56.8461 31.7314 55.9653 33.9279 55.9653 33.9279C53.1217 33.3409 50.1931 33.2929 47.3318 33.7864C41.6596 34.8 43.1768 38.685 43.1768 38.685C43.1768 38.685 39.0132 40.1336 42.7546 45.9429Z" fill="#262424"/>
<path d="M46.7686 47.8714C46.9529 45.6728 45.3586 43.6735 43.16 43.4764C42.6937 43.4319 42.2231 43.477 41.7736 43.6092C39.0758 44.4107 39.9479 50.7192 46.5843 50.0678L46.7686 47.8714Z" fill="white"/>
<path d="M45.6711 50.5457C42.2897 50.5457 40.3911 48.6536 39.9968 46.6328C39.6818 45.0236 40.3782 43.5793 41.6554 43.2043C42.1562 43.0568 42.6805 43.0059 43.2004 43.0543C44.372 43.1746 45.4488 43.7523 46.197 44.6618C46.9453 45.5713 47.3045 46.7393 47.1968 47.9121C47.1874 48.0258 47.1333 48.1311 47.0463 48.2048C46.9593 48.2786 46.8465 48.3147 46.7329 48.3053C46.6192 48.296 46.5139 48.2418 46.4402 48.1548C46.3664 48.0678 46.3303 47.9551 46.3397 47.8414C46.429 46.8949 46.1417 45.9513 45.54 45.2153C44.9383 44.4792 44.0707 44.0099 43.1254 43.9093C42.713 43.8704 42.297 43.9104 41.8997 44.0271C41.0554 44.2778 40.6139 45.3128 40.8282 46.4743C41.1582 48.165 42.8532 50.01 46.5347 49.65C46.6483 49.6389 46.7617 49.6734 46.8499 49.746C46.9382 49.8185 46.9939 49.9231 47.005 50.0368C47.0161 50.1504 46.9816 50.2638 46.909 50.3521C46.8365 50.4403 46.7319 50.496 46.6182 50.5071C46.2925 50.5328 45.9768 50.5457 45.6711 50.5457Z" fill="#262424"/>
<path d="M126.256 71.774L105.585 86.1428C104.362 86.9928 104.06 88.6731 104.91 89.8958L104.911 89.8976C105.761 91.1203 107.441 91.4226 108.664 90.5726L129.335 76.2037C130.558 75.3537 130.86 73.6735 130.01 72.4507L130.009 72.449C129.159 71.2262 127.479 70.924 126.256 71.774Z" fill="white"/>
<path d="M107.272 92.2028C107.078 92.2026 106.886 92.1847 106.695 92.1492C106.086 92.037 105.524 91.7465 105.08 91.3145C104.637 90.8826 104.331 90.3286 104.202 89.7228C104.073 89.1169 104.127 88.4865 104.357 87.9114C104.587 87.3363 104.982 86.8423 105.493 86.4921L126.268 72.2142C126.952 71.7442 127.795 71.5652 128.611 71.7165C129.427 71.8678 130.149 72.3371 130.619 73.021C131.089 73.705 131.268 74.5477 131.117 75.3637C130.966 76.1796 130.497 76.9021 129.813 77.3721L109.038 91.65C108.519 92.0093 107.903 92.2021 107.272 92.2028ZM128.034 72.5207C127.575 72.5203 127.126 72.66 126.748 72.9214L105.973 87.1992C105.727 87.3681 105.517 87.5837 105.354 87.8338C105.192 88.0839 105.08 88.3636 105.026 88.6569C104.971 88.9502 104.975 89.2514 105.037 89.5432C105.099 89.8351 105.217 90.1119 105.386 90.3578C105.555 90.6038 105.771 90.814 106.021 90.9767C106.271 91.1393 106.551 91.251 106.844 91.3055C107.137 91.3601 107.438 91.3563 107.73 91.2944C108.022 91.2325 108.299 91.1138 108.545 90.945L129.32 76.6671L129.562 77.0207L129.32 76.6671C129.691 76.4129 129.978 76.0543 130.145 75.6367C130.312 75.2191 130.351 74.7613 130.258 74.3214C130.165 73.8814 129.943 73.4791 129.62 73.1654C129.298 72.8517 128.89 72.6407 128.448 72.5592C128.312 72.5347 128.174 72.5226 128.036 72.5228L128.034 72.5207Z" fill="#262424"/>
<path d="M107.42 85.6913L75.4014 107.697C74.1725 108.542 73.861 110.223 74.7056 111.452L74.7068 111.454C75.5514 112.683 77.2323 112.994 78.4612 112.149L110.48 90.1434C111.709 89.2988 112.021 87.6178 111.176 86.3889L111.175 86.3872C110.33 85.1583 108.649 84.8467 107.42 85.6913Z" fill="white"/>
<path d="M76.9288 113.051C76.7355 113.051 76.5425 113.033 76.3524 112.997C75.7433 112.885 75.1812 112.594 74.7374 112.162C74.2935 111.73 73.9878 111.176 73.8591 110.571C73.7304 109.965 73.7843 109.334 74.0142 108.759C74.244 108.184 74.6394 107.69 75.1503 107.34L107.177 85.3371C107.861 84.8671 108.704 84.6881 109.52 84.8394C110.336 84.9907 111.058 85.4599 111.528 86.1439C111.998 86.8279 112.178 87.6706 112.026 88.4865C111.875 89.3025 111.406 90.025 110.722 90.495L78.7031 112.5C78.1817 112.86 77.5626 113.052 76.9288 113.051ZM108.945 85.6436C108.486 85.6431 108.037 85.7829 107.66 86.0443L75.6431 108.049C75.3972 108.218 75.1869 108.434 75.0243 108.684C74.8617 108.934 74.7499 109.214 74.6954 109.507C74.6409 109.8 74.6446 110.101 74.7065 110.393C74.7684 110.685 74.8871 110.962 75.056 111.208C75.2248 111.454 75.4405 111.664 75.6906 111.827C75.9407 111.989 76.2204 112.101 76.5137 112.156C76.807 112.21 77.1081 112.206 77.4 112.144C77.6918 112.083 77.9686 111.964 78.2145 111.795L110.235 89.7857C110.606 89.5315 110.894 89.1729 111.061 88.7553C111.228 88.3377 111.267 87.8799 111.174 87.44C111.08 87 110.858 86.5977 110.536 86.284C110.214 85.9703 109.805 85.7593 109.363 85.6778C109.225 85.6537 109.085 85.6422 108.945 85.6436Z" fill="#262424"/>
<path d="M115.61 40.1036L98.1774 52.0843C97.6107 52.4745 97.1793 53.0311 96.9428 53.6772C96.7064 54.3233 96.6765 55.0269 96.8574 55.6907L104.771 84.81C104.84 85.0693 104.971 85.3081 105.153 85.5062C105.334 85.7043 105.56 85.8558 105.812 85.9481C106.065 86.0403 106.335 86.0706 106.601 86.0362C106.868 86.0019 107.122 85.9039 107.342 85.7507L124.775 73.77C125.341 73.3802 125.773 72.8241 126.01 72.1784C126.246 71.5327 126.277 70.8294 126.097 70.1657L118.172 41.0443C118.102 40.7863 117.971 40.5489 117.791 40.3519C117.61 40.1548 117.385 40.0039 117.134 39.9118C116.883 39.8197 116.614 39.7891 116.348 39.8224C116.083 39.8558 115.83 39.9522 115.61 40.1036Z" fill="white"/>
<path d="M106.389 86.4771C106.139 86.4769 105.892 86.4326 105.658 86.3464C105.342 86.2317 105.059 86.0421 104.832 85.7939C104.606 85.5458 104.443 85.2464 104.357 84.9214L96.4415 55.8021C96.2391 55.0517 96.2747 54.2569 96.5434 53.5276C96.8121 52.7982 97.3006 52.1704 97.9415 51.7307L115.374 39.75L115.616 40.1035L115.374 39.75C115.65 39.5608 115.968 39.4405 116.301 39.3991C116.633 39.3577 116.971 39.3964 117.285 39.5119C117.6 39.6275 117.882 39.8165 118.109 40.0633C118.335 40.3101 118.5 40.6075 118.588 40.9307L126.502 70.05C126.704 70.8004 126.668 71.5951 126.4 72.3245C126.131 73.0538 125.642 73.6817 125.002 74.1214L107.572 86.1042C107.224 86.3456 106.812 86.4757 106.389 86.4771ZM116.552 40.2364C116.302 40.2352 116.058 40.31 115.852 40.4507L98.4194 52.4314C97.9259 52.7709 97.5499 53.2552 97.3434 53.8176C97.1369 54.3799 97.11 54.9924 97.2665 55.5707L105.18 84.69C105.232 84.882 105.329 85.0589 105.464 85.2056C105.598 85.3524 105.766 85.4648 105.953 85.5334C106.139 85.602 106.34 85.6249 106.537 85.6C106.735 85.5752 106.923 85.5034 107.087 85.3907L124.519 73.41C125.01 73.0714 125.384 72.5896 125.59 72.0303C125.797 71.4711 125.825 70.8618 125.672 70.2857L117.759 41.1557C117.708 40.9631 117.61 40.7859 117.476 40.6392C117.341 40.4925 117.173 40.3808 116.985 40.3135C116.847 40.2628 116.701 40.2366 116.554 40.2364H116.552Z" fill="#262424"/>
<path d="M117.644 38.7065L100.212 50.6872C99.6451 51.077 99.2136 51.6331 98.9767 52.2788C98.7399 52.9245 98.7094 53.6278 98.8896 54.2915L106.801 83.4129C106.871 83.6722 107.002 83.911 107.183 84.1091C107.364 84.3072 107.59 84.4587 107.842 84.551C108.095 84.6432 108.365 84.6734 108.632 84.6391C108.898 84.6047 109.152 84.5068 109.372 84.3536L126.805 72.3729C127.371 71.9831 127.803 71.427 128.04 70.7813C128.276 70.1356 128.307 69.4323 128.127 68.7686L120.215 39.6429C120.145 39.3839 120.014 39.1456 119.832 38.948C119.651 38.7504 119.425 38.5994 119.173 38.5076C118.92 38.4158 118.65 38.3859 118.384 38.4205C118.118 38.4552 117.864 38.5532 117.644 38.7065Z" fill="white"/>
<path d="M108.429 85.0714C108.18 85.0712 107.933 85.0269 107.699 84.9407C107.382 84.8268 107.098 84.6378 106.871 84.39C106.644 84.1422 106.48 83.8429 106.394 83.5178L98.4737 54.405C98.2712 53.6546 98.3068 52.8598 98.5755 52.1305C98.8442 51.4011 99.3327 50.7732 99.9737 50.3335L117.399 38.3571C117.676 38.168 117.994 38.0477 118.326 38.0063C118.659 37.9649 118.996 38.0036 119.311 38.1191C119.625 38.2346 119.908 38.4237 120.134 38.6705C120.361 38.9173 120.525 39.2146 120.614 39.5378L128.527 68.6571C128.73 69.4075 128.694 70.2023 128.425 70.9316C128.157 71.661 127.668 72.2889 127.027 72.7285L109.608 84.7071C109.261 84.9446 108.85 85.0716 108.429 85.0714ZM118.587 38.8393C118.337 38.8381 118.092 38.9128 117.886 39.0535L100.454 51.0343C99.9601 51.3738 99.5841 51.8581 99.3776 52.4204C99.1711 52.9828 99.1443 53.5953 99.3008 54.1735L107.214 83.2928C107.266 83.4849 107.364 83.6617 107.498 83.8085C107.632 83.9552 107.8 84.0676 107.987 84.1363C108.174 84.2049 108.374 84.2277 108.572 84.2029C108.769 84.1781 108.958 84.1063 109.122 83.9936L126.554 72.0128C127.048 71.6749 127.424 71.1921 127.632 70.631C127.84 70.07 127.869 69.4582 127.715 68.88L119.787 39.7607C119.735 39.5682 119.638 39.391 119.504 39.2443C119.369 39.0976 119.2 38.9858 119.013 38.9185C118.876 38.8675 118.732 38.8407 118.587 38.8393Z" fill="#262424"/>
<path d="M305.522 165.733C305.408 165.733 305.299 165.688 305.219 165.607C305.139 165.527 305.094 165.418 305.094 165.304V163.11C305.094 162.996 305.139 162.887 305.219 162.807C305.299 162.727 305.408 162.681 305.522 162.681C305.636 162.681 305.745 162.727 305.825 162.807C305.905 162.887 305.951 162.996 305.951 163.11V165.304C305.951 165.418 305.905 165.527 305.825 165.607C305.745 165.688 305.636 165.733 305.522 165.733Z" fill="#262424"/>
<path d="M308.832 166.847H306.644C306.53 166.847 306.421 166.802 306.341 166.722C306.26 166.641 306.215 166.532 306.215 166.419C306.215 166.305 306.26 166.196 306.341 166.116C306.421 166.035 306.53 165.99 306.644 165.99H308.838C308.952 165.991 309.061 166.037 309.14 166.118C309.22 166.199 309.264 166.308 309.264 166.422C309.263 166.535 309.217 166.644 309.136 166.724C309.055 166.804 308.945 166.848 308.832 166.847Z" fill="#262424"/>
<path d="M305.522 170.158C305.408 170.158 305.299 170.113 305.219 170.032C305.139 169.952 305.094 169.843 305.094 169.729V167.535C305.094 167.421 305.139 167.312 305.219 167.232C305.299 167.152 305.408 167.106 305.522 167.106C305.636 167.106 305.745 167.152 305.825 167.232C305.905 167.312 305.951 167.421 305.951 167.535V169.729C305.951 169.843 305.905 169.952 305.825 170.032C305.745 170.113 305.636 170.158 305.522 170.158Z" fill="#262424"/>
<path d="M304.406 166.847H302.212C302.098 166.847 301.989 166.802 301.909 166.722C301.829 166.641 301.783 166.532 301.783 166.419C301.783 166.305 301.829 166.196 301.909 166.116C301.989 166.035 302.098 165.99 302.212 165.99H304.406C304.52 165.99 304.629 166.035 304.709 166.116C304.79 166.196 304.835 166.305 304.835 166.419C304.835 166.532 304.79 166.641 304.709 166.722C304.629 166.802 304.52 166.847 304.406 166.847Z" fill="#262424"/>
<path d="M157.89 67.7143C157.777 67.7143 157.668 67.6691 157.587 67.5887C157.507 67.5084 157.462 67.3994 157.462 67.2857V64.2857C157.462 64.172 157.507 64.063 157.587 63.9826C157.668 63.9023 157.777 63.8571 157.89 63.8571C158.004 63.8571 158.113 63.9023 158.194 63.9826C158.274 64.063 158.319 64.172 158.319 64.2857V67.2857C158.319 67.3994 158.274 67.5084 158.194 67.5887C158.113 67.6691 158.004 67.7143 157.89 67.7143Z" fill="#262424"/>
<path d="M162.429 69.2442H159.429C159.315 69.2442 159.206 69.1991 159.126 69.1187C159.046 69.0383 159 68.9293 159 68.8156C159 68.702 159.046 68.593 159.126 68.5126C159.206 68.4322 159.315 68.3871 159.429 68.3871H162.429C162.543 68.3871 162.652 68.4322 162.732 68.5126C162.812 68.593 162.858 68.702 162.858 68.8156C162.858 68.9293 162.812 69.0383 162.732 69.1187C162.652 69.1991 162.543 69.2442 162.429 69.2442Z" fill="#262424"/>
<path d="M157.89 73.7829C157.777 73.7829 157.668 73.7378 157.587 73.6574C157.507 73.577 157.462 73.468 157.462 73.3543V70.3543C157.462 70.2407 157.507 70.1317 157.587 70.0513C157.668 69.9709 157.777 69.9258 157.89 69.9258C158.004 69.9258 158.113 69.9709 158.194 70.0513C158.274 70.1317 158.319 70.2407 158.319 70.3543V73.3543C158.319 73.468 158.274 73.577 158.194 73.6574C158.113 73.7378 158.004 73.7829 157.89 73.7829Z" fill="#262424"/>
<path d="M156.36 69.2442H153.36C153.247 69.2442 153.138 69.1991 153.057 69.1187C152.977 69.0383 152.932 68.9293 152.932 68.8156C152.932 68.702 152.977 68.593 153.057 68.5126C153.138 68.4322 153.247 68.3871 153.36 68.3871H156.36C156.474 68.3871 156.583 68.4322 156.663 68.5126C156.744 68.593 156.789 68.702 156.789 68.8156C156.789 68.9293 156.744 69.0383 156.663 69.1187C156.583 69.1991 156.474 69.2442 156.36 69.2442Z" fill="#262424"/>
<path d="M279.429 54.1994C279.316 54.1994 279.207 54.1542 279.126 54.0738C279.046 53.9935 279.001 53.8845 279.001 53.7708V51.2894C279.001 51.1757 279.046 51.0667 279.126 50.9863C279.207 50.9059 279.316 50.8608 279.429 50.8608C279.543 50.8608 279.652 50.9059 279.732 50.9863C279.813 51.0667 279.858 51.1757 279.858 51.2894V53.7708C279.858 53.8845 279.813 53.9935 279.732 54.0738C279.652 54.1542 279.543 54.1994 279.429 54.1994Z" fill="#262424"/>
<path d="M283.169 55.4593H280.688C280.574 55.4593 280.465 55.4142 280.385 55.3338C280.304 55.2534 280.259 55.1444 280.259 55.0307C280.259 54.9171 280.304 54.8081 280.385 54.7277C280.465 54.6473 280.574 54.6022 280.688 54.6022H283.169C283.283 54.6022 283.392 54.6473 283.472 54.7277C283.552 54.8081 283.598 54.9171 283.598 55.0307C283.598 55.1444 283.552 55.2534 283.472 55.3338C283.392 55.4142 283.283 55.4593 283.169 55.4593Z" fill="#262424"/>
<path d="M279.429 59.2007C279.316 59.2007 279.207 59.1555 279.126 59.0751C279.046 58.9948 279.001 58.8858 279.001 58.7721V56.2928C279.001 56.1792 279.046 56.0701 279.126 55.9898C279.207 55.9094 279.316 55.8643 279.429 55.8643C279.543 55.8643 279.652 55.9094 279.732 55.9898C279.813 56.0701 279.858 56.1792 279.858 56.2928V58.7742C279.857 58.8875 279.812 58.996 279.731 59.0759C279.651 59.1558 279.542 59.2007 279.429 59.2007Z" fill="#262424"/>
<path d="M278.167 55.4593H275.686C275.572 55.4593 275.463 55.4142 275.382 55.3338C275.302 55.2534 275.257 55.1444 275.257 55.0307C275.257 54.9171 275.302 54.8081 275.382 54.7277C275.463 54.6473 275.572 54.6022 275.686 54.6022H278.167C278.281 54.6022 278.39 54.6473 278.47 54.7277C278.55 54.8081 278.595 54.9171 278.595 55.0307C278.595 55.1444 278.55 55.2534 278.47 55.3338C278.39 55.4142 278.281 55.4593 278.167 55.4593Z" fill="#262424"/>
<path d="M77.4191 43.5921C78.4381 43.5921 79.2641 42.7661 79.2641 41.7471C79.2641 40.7282 78.4381 39.9021 77.4191 39.9021C76.4001 39.9021 75.5741 40.7282 75.5741 41.7471C75.5741 42.7661 76.4001 43.5921 77.4191 43.5921Z" fill="#88C0C2"/>
<path d="M275.529 107.089C277.683 107.089 279.429 105.343 279.429 103.189C279.429 101.035 277.683 99.2894 275.529 99.2894C273.375 99.2894 271.629 101.035 271.629 103.189C271.629 105.343 273.375 107.089 275.529 107.089Z" fill="#605DEC"/>
<path d="M65.3173 247.451C66.8783 247.451 68.1437 246.185 68.1437 244.624C68.1437 243.063 66.8783 241.798 65.3173 241.798C63.7563 241.798 62.4908 243.063 62.4908 244.624C62.4908 246.185 63.7563 247.451 65.3173 247.451Z" fill="#605DEC"/>
<path d="M73.4082 198.857C74.2366 198.857 74.9082 198.186 74.9082 197.357C74.9082 196.529 74.2366 195.857 73.4082 195.857C72.5798 195.857 71.9082 196.529 71.9082 197.357C71.9082 198.186 72.5798 198.857 73.4082 198.857Z" fill="#88C0C2"/>
<path d="M165.251 228.923C165.157 228.923 165.065 228.892 164.991 228.835C164.916 228.777 164.862 228.697 164.838 228.606C164.814 228.515 164.82 228.418 164.856 228.331C164.892 228.244 164.955 228.171 165.037 228.124L176.949 221.203L168.163 216.137C168.098 216.099 168.044 216.045 168.007 215.98C167.97 215.915 167.95 215.841 167.95 215.766C167.95 215.691 167.97 215.617 168.007 215.552C168.044 215.487 168.098 215.433 168.163 215.396L181.162 207.842C181.26 207.791 181.374 207.779 181.48 207.81C181.586 207.841 181.676 207.912 181.732 208.007C181.787 208.103 181.803 208.216 181.777 208.324C181.751 208.431 181.684 208.524 181.59 208.583L169.233 215.766L178.018 220.832C178.083 220.87 178.137 220.924 178.175 220.989C178.212 221.054 178.232 221.128 178.232 221.203C178.232 221.278 178.212 221.352 178.175 221.417C178.137 221.482 178.083 221.536 178.018 221.573L165.468 228.859C165.403 228.9 165.328 228.922 165.251 228.923Z" fill="#272525"/>
<path d="M137.896 222.994C137.802 222.993 137.711 222.962 137.638 222.905C137.564 222.847 137.51 222.767 137.486 222.677C137.462 222.587 137.468 222.491 137.503 222.404C137.538 222.318 137.601 222.245 137.681 222.197L152.919 213.234L137.555 204.364C137.49 204.327 137.436 204.273 137.399 204.207C137.361 204.142 137.341 204.069 137.341 203.994C137.341 203.918 137.361 203.845 137.399 203.78C137.436 203.715 137.49 203.661 137.555 203.623L154.929 193.524C155.027 193.472 155.141 193.461 155.247 193.492C155.353 193.523 155.444 193.593 155.499 193.689C155.554 193.785 155.57 193.898 155.544 194.005C155.518 194.113 155.451 194.206 155.358 194.265L138.624 204L153.98 212.865C154.045 212.903 154.099 212.957 154.136 213.022C154.174 213.087 154.193 213.161 154.193 213.236C154.193 213.311 154.174 213.385 154.136 213.45C154.099 213.515 154.045 213.569 153.98 213.606L138.108 222.943C138.043 222.978 137.97 222.996 137.896 222.994Z" fill="#272525"/>
<path d="M136.773 226.731C134.435 226.731 132.603 225.703 132.603 224.389C132.603 223.076 134.435 222.047 136.773 222.047C139.111 222.047 140.943 223.076 140.943 224.389C140.943 225.703 139.111 226.731 136.773 226.731ZM136.773 222.906C134.821 222.906 133.46 223.689 133.46 224.391C133.46 225.094 134.821 225.876 136.773 225.876C138.725 225.876 140.086 225.094 140.086 224.391C140.086 223.689 138.725 222.906 136.773 222.906Z" fill="#272525"/>
<path d="M143.233 184.059H131.257C131.143 184.059 131.034 184.013 130.954 183.933C130.873 183.853 130.828 183.744 130.828 183.63C130.828 183.516 130.873 183.407 130.954 183.327C131.034 183.247 131.143 183.201 131.257 183.201H143.231C143.345 183.201 143.454 183.246 143.534 183.326C143.615 183.406 143.66 183.515 143.661 183.629C143.661 183.743 143.616 183.852 143.536 183.932C143.456 184.013 143.347 184.058 143.233 184.059Z" fill="#272525"/>
<path d="M127.516 185.972C125.178 185.972 123.346 184.944 123.346 183.63C123.346 182.316 125.176 181.286 127.516 181.286C129.856 181.286 131.686 182.314 131.686 183.628C131.686 184.941 129.858 185.972 127.516 185.972ZM127.516 182.147C125.564 182.147 124.203 182.929 124.203 183.632C124.203 184.335 125.564 185.117 127.516 185.117C129.468 185.117 130.829 184.335 130.829 183.632C130.829 182.929 129.468 182.143 127.516 182.143V182.147Z" fill="#272525"/>
<path d="M271.529 228.924C271.453 228.923 271.379 228.904 271.314 228.866L258.764 221.58C258.699 221.542 258.645 221.488 258.607 221.423C258.57 221.358 258.55 221.284 258.55 221.209C258.55 221.134 258.57 221.06 258.607 220.995C258.645 220.93 258.699 220.876 258.764 220.839L267.549 215.773L255.191 208.59C255.14 208.563 255.095 208.526 255.058 208.482C255.022 208.437 254.994 208.385 254.978 208.33C254.962 208.274 254.958 208.216 254.965 208.159C254.972 208.101 254.99 208.046 255.019 207.996C255.048 207.946 255.087 207.902 255.133 207.867C255.179 207.833 255.232 207.808 255.288 207.794C255.344 207.78 255.403 207.778 255.46 207.787C255.517 207.797 255.571 207.818 255.62 207.849L268.619 215.402C268.683 215.44 268.737 215.494 268.775 215.559C268.812 215.624 268.832 215.698 268.832 215.773C268.832 215.848 268.812 215.922 268.775 215.987C268.737 216.052 268.683 216.106 268.619 216.144L259.833 221.209L271.745 228.131C271.824 228.179 271.884 228.252 271.918 228.338C271.952 228.424 271.957 228.519 271.933 228.608C271.908 228.697 271.856 228.776 271.783 228.833C271.71 228.89 271.621 228.922 271.529 228.924Z" fill="#272525"/>
<path d="M303.749 225.707C303.673 225.707 303.599 225.687 303.534 225.649L282.798 213.6C282.733 213.562 282.679 213.508 282.642 213.443C282.604 213.378 282.584 213.304 282.584 213.229C282.584 213.154 282.604 213.08 282.642 213.015C282.679 212.95 282.733 212.896 282.798 212.859L298.156 204L281.418 194.274C281.367 194.247 281.321 194.21 281.285 194.165C281.248 194.12 281.221 194.069 281.205 194.013C281.189 193.958 281.184 193.9 281.191 193.842C281.198 193.785 281.217 193.729 281.245 193.679C281.274 193.629 281.313 193.586 281.359 193.551C281.406 193.516 281.458 193.491 281.515 193.478C281.571 193.464 281.629 193.462 281.686 193.471C281.743 193.48 281.798 193.501 281.846 193.532L299.223 203.631C299.288 203.669 299.342 203.723 299.379 203.788C299.417 203.853 299.436 203.927 299.436 204.002C299.436 204.077 299.417 204.151 299.379 204.216C299.342 204.281 299.288 204.335 299.223 204.373L283.867 213.238L303.963 224.916C304.04 224.965 304.1 225.038 304.133 225.123C304.167 225.209 304.172 225.303 304.148 225.391C304.124 225.479 304.072 225.558 304 225.615C303.928 225.672 303.84 225.704 303.749 225.707Z" fill="#272525"/>
<path d="M304.871 229.444C302.533 229.444 300.701 228.416 300.701 227.102C300.701 225.789 302.533 224.76 304.871 224.76C307.209 224.76 309.041 225.789 309.041 227.102C309.041 228.416 307.209 229.444 304.871 229.444ZM304.871 225.619C302.919 225.619 301.558 226.401 301.558 227.104C301.558 227.807 302.919 228.589 304.871 228.589C306.823 228.589 308.184 227.807 308.184 227.104C308.184 226.401 306.823 225.619 304.871 225.619Z" fill="#272525"/>
<path d="M255.399 140.179C255.305 140.179 255.213 140.148 255.139 140.09C255.064 140.033 255.01 139.953 254.986 139.862C254.962 139.771 254.968 139.674 255.004 139.587C255.04 139.5 255.103 139.427 255.185 139.38L267.543 132.197L258.757 127.131C258.692 127.094 258.638 127.04 258.601 126.975C258.563 126.91 258.543 126.836 258.543 126.761C258.543 126.686 258.563 126.612 258.601 126.547C258.638 126.482 258.692 126.428 258.757 126.39L271.308 119.104C271.356 119.073 271.411 119.052 271.468 119.043C271.525 119.034 271.583 119.036 271.64 119.05C271.696 119.063 271.748 119.088 271.795 119.123C271.841 119.158 271.88 119.201 271.909 119.251C271.938 119.302 271.956 119.357 271.963 119.414C271.97 119.472 271.965 119.53 271.949 119.585C271.933 119.641 271.906 119.693 271.869 119.737C271.833 119.782 271.787 119.819 271.736 119.846L259.824 126.767L268.61 131.833C268.675 131.87 268.729 131.925 268.766 131.99C268.804 132.055 268.823 132.128 268.823 132.204C268.823 132.279 268.804 132.352 268.766 132.417C268.729 132.483 268.675 132.537 268.61 132.574L255.611 140.128C255.546 140.163 255.473 140.181 255.399 140.179Z" fill="#272525"/>
<path d="M277.676 161.531C277.582 161.531 277.49 161.499 277.416 161.442C277.341 161.385 277.287 161.304 277.263 161.213C277.238 161.122 277.245 161.026 277.281 160.939C277.317 160.852 277.38 160.779 277.462 160.732L291.632 152.494L276.277 143.629C276.212 143.592 276.158 143.538 276.12 143.473C276.083 143.407 276.063 143.334 276.063 143.259C276.063 143.184 276.083 143.11 276.12 143.045C276.158 142.98 276.212 142.926 276.277 142.888L297 130.837C297.049 130.806 297.104 130.785 297.161 130.775C297.218 130.766 297.276 130.768 297.332 130.782C297.388 130.796 297.441 130.821 297.487 130.855C297.533 130.89 297.572 130.934 297.601 130.984C297.63 131.034 297.649 131.089 297.656 131.147C297.663 131.204 297.658 131.262 297.642 131.318C297.626 131.373 297.598 131.425 297.562 131.47C297.525 131.514 297.48 131.551 297.429 131.578L277.333 143.257L292.689 152.122C292.754 152.159 292.808 152.213 292.845 152.278C292.883 152.343 292.902 152.417 292.902 152.492C292.902 152.567 292.883 152.641 292.845 152.706C292.808 152.771 292.754 152.825 292.689 152.863L277.877 161.471C277.816 161.507 277.747 161.528 277.676 161.531Z" fill="#272525"/>
<path d="M298.348 131.723C296.01 131.723 294.178 130.695 294.178 129.381C294.178 128.068 296.01 127.039 298.348 127.039C300.686 127.039 302.518 128.068 302.518 129.381C302.518 130.695 300.686 131.723 298.348 131.723ZM298.348 127.898C296.396 127.898 295.035 128.681 295.035 129.383C295.035 130.086 296.396 130.868 298.348 130.868C300.3 130.868 301.661 130.086 301.661 129.383C301.661 128.681 300.3 127.898 298.348 127.898Z" fill="#272525"/>
<path d="M159.815 158.689C159.74 158.689 159.666 158.669 159.601 158.631L145.158 150.238C145.093 150.2 145.039 150.146 145.002 150.081C144.965 150.016 144.945 149.942 144.945 149.867C144.945 149.792 144.965 149.718 145.002 149.653C145.039 149.588 145.093 149.534 145.158 149.496L157.816 142.189L151.287 138.358C151.234 138.332 151.186 138.296 151.148 138.251C151.109 138.206 151.08 138.154 151.063 138.098C151.045 138.041 151.04 137.982 151.046 137.923C151.053 137.864 151.072 137.808 151.101 137.756C151.131 137.705 151.171 137.661 151.219 137.626C151.266 137.591 151.321 137.566 151.378 137.553C151.436 137.54 151.496 137.539 151.554 137.551C151.612 137.562 151.667 137.585 151.715 137.619L158.87 141.821C158.935 141.858 158.989 141.912 159.027 141.977C159.064 142.043 159.084 142.116 159.084 142.191C159.084 142.266 159.064 142.34 159.027 142.405C158.989 142.47 158.935 142.524 158.87 142.562L146.217 149.869L160.019 157.89C160.1 157.937 160.163 158.009 160.199 158.095C160.236 158.181 160.243 158.276 160.22 158.367C160.197 158.457 160.145 158.537 160.072 158.596C159.999 158.654 159.909 158.687 159.815 158.689Z" fill="#272525"/>
<path d="M150.582 138.491C148.565 138.491 147.044 137.634 147.044 136.472C147.044 135.311 148.565 134.454 150.582 134.454C152.598 134.454 154.12 135.311 154.12 136.472C154.12 137.634 152.598 138.491 150.582 138.491ZM150.582 135.311C149.047 135.311 147.901 135.924 147.901 136.472C147.901 137.021 149.047 137.634 150.582 137.634C152.116 137.634 153.262 137.021 153.262 136.472C153.262 135.924 152.116 135.311 150.582 135.311Z" fill="#272525"/>
<path d="M305.523 184.059H293.549C293.435 184.059 293.326 184.013 293.246 183.933C293.165 183.853 293.12 183.744 293.12 183.63C293.12 183.516 293.165 183.407 293.246 183.327C293.326 183.247 293.435 183.201 293.549 183.201H305.523C305.637 183.201 305.746 183.247 305.826 183.327C305.907 183.407 305.952 183.516 305.952 183.63C305.952 183.744 305.907 183.853 305.826 183.933C305.746 184.013 305.637 184.059 305.523 184.059Z" fill="#272525"/>
<path d="M309.264 185.972C306.926 185.972 305.094 184.944 305.094 183.63C305.094 182.316 306.926 181.288 309.264 181.288C311.601 181.288 313.434 182.316 313.434 183.63C313.434 184.944 311.601 185.972 309.264 185.972ZM309.264 182.147C307.311 182.147 305.951 182.929 305.951 183.632C305.951 184.335 307.311 185.117 309.264 185.117C311.216 185.117 312.576 184.335 312.576 183.632C312.576 182.929 311.216 182.143 309.264 182.143V182.147Z" fill="#272525"/>
<path d="M218.162 246.326C218.049 246.326 217.94 246.281 217.859 246.2C217.779 246.12 217.734 246.011 217.734 245.897V230.762C217.734 230.648 217.779 230.539 217.859 230.459C217.94 230.379 218.049 230.334 218.162 230.334C218.276 230.334 218.385 230.379 218.465 230.459C218.546 230.539 218.591 230.648 218.591 230.762V245.897C218.591 246.011 218.546 246.12 218.465 246.2C218.385 246.281 218.276 246.326 218.162 246.326Z" fill="#272525"/>
<path d="M218.163 252.126C215.825 252.126 213.993 251.098 213.993 249.784C213.993 248.471 215.825 247.442 218.163 247.442C220.501 247.442 222.333 248.471 222.333 249.784C222.333 251.098 220.501 252.126 218.163 252.126ZM218.163 248.302C216.211 248.302 214.85 249.084 214.85 249.787C214.85 250.489 216.211 251.271 218.163 251.271C220.115 251.271 221.476 250.489 221.476 249.787C221.476 249.084 220.115 248.302 218.163 248.302Z" fill="#272525"/>
<path d="M288.532 173.979L218.39 214.742L147.791 173.981L217.934 133.219L288.532 173.979Z" fill="#88C0C2"/>
<path d="M218.39 215.169C218.314 215.168 218.241 215.148 218.175 215.111L147.577 174.351C147.512 174.314 147.458 174.26 147.42 174.195C147.383 174.13 147.363 174.056 147.363 173.981C147.363 173.906 147.383 173.832 147.42 173.767C147.458 173.702 147.512 173.648 147.577 173.61L217.715 132.857C217.78 132.82 217.854 132.8 217.929 132.8C218.004 132.8 218.078 132.82 218.143 132.857L288.742 173.616C288.807 173.654 288.861 173.708 288.898 173.773C288.936 173.838 288.955 173.912 288.955 173.987C288.955 174.062 288.936 174.136 288.898 174.201C288.861 174.266 288.807 174.32 288.742 174.358L218.6 215.119C218.535 215.153 218.463 215.17 218.39 215.169ZM148.646 173.981L218.388 214.247L287.677 173.981L217.929 133.714L148.646 173.981Z" fill="#88C0C2"/>
<path d="M202.127 188.186L190.657 181.562C190.581 181.518 190.495 181.495 190.407 181.495C190.319 181.495 190.233 181.518 190.157 181.562L175.586 190.031L176.582 190.605L190.406 182.571L200.882 188.619L194.025 192.598L187.055 196.65L188.051 197.227L194.533 193.459L202.13 189.049C202.204 189.005 202.266 188.942 202.309 188.867C202.352 188.792 202.375 188.707 202.376 188.621C202.377 188.533 202.354 188.446 202.311 188.37C202.267 188.293 202.204 188.23 202.127 188.186Z" fill="white"/>
<path d="M230.33 194.079L218.774 200.786L230.621 207.643L229.625 208.222L217.777 201.382L206.542 207.9L205.546 207.326L217.529 200.357L230.077 193.072C230.153 193.028 230.24 193.004 230.328 193.004C230.416 193.004 230.502 193.028 230.579 193.072L243.17 200.342L242.178 200.919L230.33 194.079Z" fill="white"/>
<path d="M281.621 177.994L280.629 178.573L259.942 166.631L242.182 176.955L233.572 181.954L254.257 193.896L253.26 194.475L232.327 182.387C232.251 182.344 232.189 182.281 232.145 182.206C232.102 182.131 232.078 182.046 232.078 181.959C232.079 181.872 232.102 181.787 232.145 181.712C232.188 181.637 232.25 181.574 232.325 181.53L240.939 176.522L205.53 156.079L161.304 181.794L160.307 181.217L205.286 155.07H205.299L205.35 155.049L205.391 155.034L205.44 155.021H205.485H205.58H205.631H205.676C205.691 155.025 205.706 155.03 205.721 155.036L205.768 155.057H205.783L241.929 175.944L259.687 165.622C259.762 165.577 259.849 165.554 259.936 165.554C260.024 165.554 260.11 165.577 260.186 165.622L281.621 177.994Z" fill="white"/>
<path d="M248.235 150.711L241.44 154.661L239.955 153.804L227.514 146.621L234.309 142.671L233.312 142.097L226.517 146.046L211.138 137.166L210.142 137.745L226.267 147.054L241.187 155.668C241.226 155.69 241.267 155.707 241.309 155.717C241.351 155.729 241.393 155.735 241.436 155.734H241.479C241.508 155.733 241.536 155.728 241.564 155.721C241.579 155.718 241.593 155.713 241.607 155.706C241.634 155.697 241.66 155.686 241.684 155.672L249.227 151.288L248.235 150.711Z" fill="white"/>
<path d="M191.461 156.069L185.017 152.357L184.021 152.936L190.216 156.51L173.855 166.018L167.66 162.429L166.668 163.005L173.607 167.012C173.682 167.056 173.768 167.079 173.855 167.079C173.944 167.079 174.031 167.056 174.108 167.012L191.465 156.926C191.54 156.882 191.602 156.819 191.645 156.744C191.688 156.669 191.711 156.584 191.712 156.497C191.712 156.41 191.688 156.324 191.644 156.249C191.6 156.174 191.537 156.111 191.461 156.069Z" fill="white"/>
<path d="M218.39 214.742L218.321 224.389L147.723 183.63L147.791 173.981L218.39 214.742Z" fill="white"/>
<path d="M218.321 224.818C218.246 224.818 218.172 224.798 218.107 224.76L147.508 184.001C147.443 183.963 147.388 183.908 147.35 183.842C147.313 183.776 147.293 183.702 147.294 183.626L147.363 173.983C147.363 173.908 147.383 173.834 147.421 173.77C147.459 173.705 147.513 173.651 147.578 173.614C147.643 173.576 147.717 173.557 147.792 173.557C147.867 173.557 147.94 173.577 148.005 173.614L218.604 214.374C218.67 214.412 218.724 214.466 218.762 214.532C218.799 214.598 218.819 214.673 218.818 214.749L218.75 224.392C218.749 224.505 218.704 224.613 218.623 224.693C218.543 224.773 218.434 224.818 218.321 224.818ZM148.153 183.384L217.897 223.65L217.959 214.987L148.215 174.72L148.153 183.384Z" fill="#262424"/>
<path d="M218.252 214.742L218.321 224.389L288.6 183.63L288.532 173.981L218.252 214.742Z" fill="white"/>
<path d="M218.321 224.818C218.207 224.818 218.098 224.773 218.018 224.692C217.937 224.612 217.892 224.503 217.892 224.389L217.824 214.747C217.823 214.671 217.843 214.597 217.881 214.531C217.918 214.466 217.973 214.411 218.038 214.374L288.324 173.614C288.389 173.577 288.462 173.557 288.537 173.557C288.612 173.557 288.686 173.576 288.751 173.614C288.816 173.651 288.87 173.705 288.908 173.77C288.946 173.834 288.966 173.908 288.967 173.983L289.035 183.626C289.035 183.701 289.016 183.776 288.978 183.841C288.941 183.907 288.886 183.961 288.821 183.999L218.535 224.758C218.47 224.796 218.396 224.817 218.321 224.818ZM218.683 214.987L218.745 223.648L288.174 183.384L288.112 174.722L218.683 214.987Z" fill="#262424"/>
<path d="M251.733 162.78L218.283 182.218L184.614 162.78L218.064 143.342L251.733 162.78Z" fill="white"/>
<path d="M218.282 182.646C218.207 182.646 218.133 182.626 218.068 182.589L184.402 163.153C184.337 163.115 184.283 163.061 184.245 162.996C184.208 162.931 184.188 162.857 184.188 162.782C184.188 162.707 184.208 162.633 184.245 162.568C184.283 162.503 184.337 162.449 184.402 162.411L217.852 142.974C217.917 142.936 217.991 142.916 218.066 142.916C218.141 142.916 218.215 142.936 218.28 142.974L251.947 162.411C252.011 162.449 252.065 162.503 252.103 162.568C252.14 162.633 252.16 162.707 252.16 162.782C252.16 162.857 252.14 162.931 252.103 162.996C252.065 163.061 252.011 163.115 251.947 163.153L218.497 182.593C218.431 182.629 218.357 182.648 218.282 182.646ZM185.471 162.78L218.282 181.714L250.877 162.771L218.066 143.829L185.471 162.78Z" fill="#262424"/>
<path d="M218.287 155.865L218.25 187.511L179.366 165.062L179.405 133.414L218.287 155.865Z" fill="#605DEC"/>
<path d="M183.834 145.564L197.025 153.178V165.647L183.819 158.023L183.834 145.564Z" fill="white"/>
<path d="M197.025 166.071C196.95 166.071 196.876 166.051 196.811 166.014L183.604 158.389C183.539 158.352 183.485 158.297 183.447 158.232C183.409 158.166 183.39 158.092 183.39 158.016L183.407 145.558C183.407 145.483 183.427 145.409 183.465 145.344C183.503 145.279 183.557 145.225 183.622 145.187C183.687 145.149 183.761 145.13 183.836 145.13C183.911 145.13 183.985 145.15 184.05 145.187L197.242 152.801C197.307 152.838 197.361 152.892 197.398 152.957C197.436 153.022 197.456 153.096 197.456 153.171V165.643C197.456 165.699 197.445 165.755 197.423 165.807C197.401 165.859 197.37 165.907 197.33 165.947C197.29 165.986 197.242 166.018 197.19 166.039C197.138 166.061 197.082 166.072 197.025 166.071ZM184.247 157.772L196.597 164.901V153.429L184.262 146.308L184.247 157.772Z" fill="#262424"/>
<path d="M213.835 162.885L213.823 175.348L200.629 167.73V155.261L213.835 162.885Z" fill="white"/>
<path d="M213.823 175.777C213.747 175.776 213.673 175.756 213.608 175.719L200.415 168.101C200.35 168.063 200.296 168.009 200.258 167.944C200.22 167.879 200.201 167.805 200.2 167.73V155.261C200.201 155.186 200.22 155.112 200.258 155.047C200.296 154.982 200.35 154.928 200.415 154.89C200.48 154.852 200.554 154.833 200.629 154.833C200.704 154.833 200.778 154.853 200.843 154.89L214.05 162.514C214.115 162.552 214.169 162.606 214.206 162.671C214.244 162.736 214.264 162.81 214.264 162.885L214.251 175.348C214.251 175.462 214.206 175.571 214.126 175.651C214.045 175.731 213.936 175.777 213.823 175.777ZM201.058 167.484L213.396 174.607L213.409 163.134L201.058 156V167.479V167.484Z" fill="#262424"/>
<path d="M218.211 155.865L218.25 187.511L256.956 165.062L256.918 133.414L218.211 155.865Z" fill="white"/>
<path d="M218.25 187.939C218.137 187.939 218.028 187.894 217.947 187.814C217.867 187.733 217.822 187.624 217.822 187.511L217.785 155.863C217.785 155.788 217.805 155.714 217.843 155.649C217.881 155.584 217.935 155.53 218 155.492L256.715 133.044C256.78 133.006 256.854 132.986 256.929 132.986C257.004 132.986 257.078 133.006 257.143 133.044C257.208 133.081 257.262 133.135 257.3 133.2C257.338 133.265 257.357 133.339 257.358 133.414L257.394 165.062C257.394 165.137 257.374 165.211 257.336 165.276C257.299 165.341 257.245 165.395 257.18 165.433L218.465 187.882C218.4 187.919 218.326 187.939 218.25 187.939ZM218.643 156.109L218.679 186.767L256.528 164.816L256.5 134.158L218.643 156.109Z" fill="#262424"/>
<path d="M252.664 145.564L239.475 153.178V165.647L252.681 158.023L252.664 145.564Z" fill="#88C0C2"/>
<path d="M222.662 162.885L222.674 175.348L235.87 167.73V155.261L222.662 162.885Z" fill="#88C0C2"/>
<path d="M256.918 133.414L218.287 155.865L179.405 133.414L218.036 110.966L256.918 133.414Z" fill="white"/>
<path d="M218.287 156.294C218.212 156.293 218.138 156.273 218.073 156.236L179.191 133.787C179.126 133.749 179.072 133.695 179.035 133.63C178.997 133.565 178.977 133.491 178.977 133.416C178.977 133.341 178.997 133.268 179.035 133.203C179.072 133.137 179.126 133.083 179.191 133.046L217.822 110.595C217.888 110.557 217.961 110.538 218.037 110.538C218.112 110.538 218.186 110.557 218.251 110.595L257.144 133.044C257.209 133.081 257.263 133.135 257.3 133.2C257.338 133.265 257.357 133.339 257.357 133.414C257.357 133.489 257.338 133.563 257.3 133.628C257.263 133.693 257.209 133.747 257.144 133.785L218.504 156.234C218.438 156.272 218.364 156.293 218.287 156.294ZM180.26 133.414L218.287 155.37L256.072 133.414L218.037 111.461L180.26 133.414Z" fill="#262424"/>
<path d="M238.217 133.414L218.227 145.031L198.105 133.414L218.096 121.798L238.217 133.414Z" fill="white"/>
<path d="M218.226 145.459C218.151 145.459 218.077 145.439 218.012 145.401L197.89 133.785C197.825 133.747 197.771 133.693 197.734 133.628C197.696 133.563 197.677 133.489 197.677 133.414C197.677 133.339 197.696 133.265 197.734 133.2C197.771 133.135 197.825 133.081 197.89 133.044L217.881 121.427C217.946 121.39 218.02 121.37 218.095 121.37C218.171 121.37 218.244 121.39 218.31 121.427L238.431 133.044C238.496 133.081 238.55 133.135 238.587 133.2C238.625 133.265 238.645 133.339 238.645 133.414C238.645 133.489 238.625 133.563 238.587 133.628C238.55 133.693 238.496 133.747 238.431 133.785L218.44 145.401C218.375 145.439 218.301 145.459 218.226 145.459ZM198.96 133.414L218.224 144.538L237.36 133.416L218.095 122.293L198.96 133.414Z" fill="#262424"/>
<path d="M218.283 143.027L218.25 152.745L184.582 133.307L184.614 123.589L218.283 143.027Z" fill="white"/>
<path d="M218.25 153.173C218.175 153.173 218.101 153.153 218.036 153.116L184.368 133.68C184.302 133.642 184.248 133.588 184.21 133.522C184.173 133.457 184.153 133.383 184.153 133.307L184.185 123.589C184.186 123.514 184.205 123.44 184.243 123.375C184.281 123.31 184.335 123.256 184.4 123.218C184.465 123.181 184.539 123.161 184.614 123.161C184.689 123.161 184.763 123.181 184.828 123.218L218.495 142.656C218.56 142.694 218.614 142.748 218.652 142.814C218.69 142.879 218.709 142.954 218.709 143.029L218.677 152.747C218.676 152.86 218.631 152.968 218.551 153.048C218.472 153.128 218.363 153.173 218.25 153.173ZM185.013 133.071L217.824 152.014L217.854 143.282L185.043 124.339L185.013 133.071Z" fill="#262424"/>
<path d="M218.218 143.027L218.25 152.745L251.917 133.307L251.885 123.589L218.218 143.027Z" fill="white"/>
<path d="M218.25 153.174C218.137 153.174 218.028 153.128 217.947 153.048C217.867 152.968 217.822 152.859 217.822 152.745L217.79 143.027C217.789 142.952 217.809 142.877 217.847 142.812C217.884 142.746 217.939 142.692 218.004 142.654L251.67 123.214C251.735 123.177 251.809 123.157 251.885 123.157C251.96 123.157 252.034 123.177 252.099 123.214C252.164 123.252 252.218 123.306 252.256 123.371C252.293 123.436 252.313 123.51 252.313 123.585L252.345 133.303C252.346 133.378 252.326 133.453 252.288 133.518C252.251 133.584 252.196 133.638 252.131 133.676L218.465 153.118C218.399 153.155 218.325 153.174 218.25 153.174ZM218.647 143.274L218.677 152.006L251.488 133.071L251.458 124.339L218.647 143.274Z" fill="#262424"/>
<path d="M251.733 123.587L218.283 143.027L184.614 123.589L218.064 104.149L251.733 123.587Z" fill="white"/>
<path d="M218.283 143.456C218.208 143.456 218.134 143.436 218.069 143.398L184.402 123.96C184.338 123.922 184.284 123.868 184.246 123.803C184.209 123.738 184.189 123.664 184.189 123.589C184.189 123.514 184.209 123.44 184.246 123.375C184.284 123.31 184.338 123.256 184.402 123.219L217.852 103.779C217.918 103.741 217.992 103.721 218.067 103.721C218.142 103.721 218.216 103.741 218.281 103.779L251.947 123.214C252.012 123.252 252.066 123.306 252.104 123.371C252.141 123.436 252.161 123.51 252.161 123.585C252.161 123.66 252.141 123.734 252.104 123.799C252.066 123.864 252.012 123.918 251.947 123.956L218.497 143.396C218.433 143.434 218.359 143.455 218.283 143.456ZM185.472 123.587L218.283 142.53L250.878 123.587L218.067 104.644L185.472 123.587Z" fill="#262424"/>
<path d="M218.287 116.672L218.25 148.32L179.366 125.871L179.405 94.2236L218.287 116.672Z" fill="#605DEC"/>
<path d="M183.834 106.371L197.025 113.985V126.454L183.819 118.832L183.834 106.371Z" fill="white"/>
<path d="M197.025 126.883C196.95 126.883 196.876 126.863 196.811 126.825L183.604 119.201C183.539 119.163 183.485 119.109 183.448 119.044C183.41 118.979 183.39 118.905 183.39 118.83L183.407 106.371C183.407 106.296 183.427 106.222 183.465 106.157C183.503 106.092 183.557 106.038 183.622 106.001C183.687 105.963 183.761 105.943 183.836 105.943C183.911 105.943 183.985 105.963 184.05 106.001L197.242 113.614C197.307 113.652 197.361 113.706 197.398 113.771C197.436 113.836 197.456 113.91 197.456 113.985V126.454C197.456 126.511 197.445 126.567 197.423 126.619C197.401 126.671 197.37 126.718 197.33 126.758C197.29 126.798 197.242 126.829 197.19 126.851C197.138 126.872 197.082 126.883 197.025 126.883ZM184.247 118.583L196.597 125.713V114.233L184.262 107.113L184.247 118.583Z" fill="#262424"/>
<path d="M213.835 123.692L213.823 136.155L200.629 128.539V116.068L213.835 123.692Z" fill="white"/>
<path d="M213.823 136.583C213.747 136.583 213.673 136.563 213.608 136.526L200.415 128.908C200.35 128.87 200.296 128.816 200.258 128.751C200.22 128.686 200.201 128.612 200.2 128.537V116.07C200.201 115.995 200.22 115.921 200.258 115.856C200.296 115.791 200.35 115.737 200.415 115.699C200.48 115.662 200.554 115.642 200.629 115.642C200.704 115.642 200.778 115.662 200.843 115.699L214.05 123.321C214.115 123.359 214.169 123.413 214.206 123.478C214.244 123.543 214.264 123.617 214.264 123.692L214.251 136.155C214.251 136.269 214.206 136.378 214.126 136.458C214.045 136.538 213.936 136.583 213.823 136.583ZM201.058 128.291L213.396 135.413L213.409 123.941L201.06 116.811V128.291H201.058Z" fill="#262424"/>
<path d="M218.211 116.672L218.25 148.32L256.956 125.871L256.918 94.2236L218.211 116.672Z" fill="white"/>
<path d="M218.25 148.749C218.137 148.749 218.028 148.703 217.947 148.623C217.867 148.543 217.822 148.434 217.822 148.32L217.785 116.672C217.785 116.597 217.805 116.523 217.843 116.458C217.881 116.393 217.935 116.339 218 116.301L256.715 93.8572C256.78 93.8196 256.854 93.7998 256.929 93.7997C257.004 93.7997 257.078 93.8195 257.143 93.857C257.208 93.8946 257.262 93.9487 257.3 94.0137C257.338 94.0788 257.357 94.1527 257.358 94.2279L257.394 125.876C257.394 125.951 257.374 126.025 257.336 126.09C257.299 126.155 257.245 126.209 257.18 126.246L218.465 148.691C218.4 148.729 218.326 148.748 218.25 148.749ZM218.643 116.919L218.679 147.576L256.528 125.625L256.5 94.9672L218.643 116.919Z" fill="#262424"/>
<path d="M252.664 106.371L239.475 113.985V126.454L252.681 118.832L252.664 106.371Z" fill="#88C0C2"/>
<path d="M222.662 123.692L222.674 136.155L235.87 128.539V116.068L222.662 123.692Z" fill="#88C0C2"/>
<path d="M256.918 94.2215L218.287 116.672L179.405 94.2236L218.036 71.7729L256.918 94.2215Z" fill="white"/>
<path d="M218.287 117.101C218.212 117.101 218.138 117.081 218.073 117.043L179.191 94.5943C179.126 94.5567 179.072 94.5026 179.035 94.4375C178.997 94.3725 178.977 94.2987 178.977 94.2236C178.977 94.1485 178.997 94.0748 179.035 94.0097C179.072 93.9447 179.126 93.8906 179.191 93.8529L217.822 71.4022C217.888 71.3646 217.961 71.3448 218.037 71.3448C218.112 71.3448 218.186 71.3646 218.251 71.4022L257.144 93.8572C257.209 93.8949 257.263 93.9489 257.3 94.014C257.338 94.0791 257.357 94.1528 257.357 94.2279C257.357 94.303 257.338 94.3768 257.3 94.4418C257.263 94.5069 257.209 94.5609 257.144 94.5986L218.504 117.043C218.438 117.081 218.363 117.101 218.287 117.101ZM180.26 94.2215L218.287 116.177L256.072 94.2236L218.037 72.2679L180.26 94.2215Z" fill="#262424"/>
<path d="M238.217 94.2214L218.227 105.84L198.105 94.2236L218.096 82.605L238.217 94.2214Z" fill="white"/>
<path d="M218.226 106.269C218.151 106.268 218.077 106.248 218.012 106.211L197.89 94.5943C197.825 94.5566 197.771 94.5025 197.734 94.4375C197.696 94.3724 197.677 94.2986 197.677 94.2235C197.677 94.1485 197.696 94.0747 197.734 94.0096C197.771 93.9446 197.825 93.8905 197.89 93.8528L217.881 82.2343C217.946 82.1967 218.02 82.1768 218.095 82.1768C218.171 82.1768 218.244 82.1967 218.31 82.2343L238.431 93.8507C238.496 93.8884 238.55 93.9424 238.587 94.0075C238.625 94.0726 238.645 94.1463 238.645 94.2214C238.645 94.2965 238.625 94.3702 238.587 94.4353C238.55 94.5004 238.496 94.5544 238.431 94.5921L218.44 106.211C218.375 106.248 218.301 106.268 218.226 106.269ZM198.96 94.2214L218.224 105.345L237.36 94.2235L218.095 83.1L198.96 94.2214Z" fill="#262424"/>
<path d="M218.283 103.834L218.25 113.554L184.582 94.1165L184.614 84.3965L218.283 103.834Z" fill="white"/>
<path d="M218.25 113.983C218.175 113.983 218.101 113.963 218.036 113.925L184.368 94.4872C184.302 94.4494 184.248 94.3951 184.21 94.3296C184.173 94.2641 184.153 94.1898 184.153 94.1143L184.185 84.3965C184.186 84.3213 184.205 84.2474 184.243 84.1823C184.281 84.1172 184.335 84.0632 184.4 84.0256C184.465 83.9881 184.539 83.9683 184.614 83.9683C184.689 83.9684 184.763 83.9882 184.828 84.0258L218.495 103.464C218.56 103.501 218.614 103.556 218.652 103.621C218.69 103.687 218.709 103.761 218.709 103.836L218.677 113.554C218.677 113.668 218.632 113.776 218.552 113.857C218.472 113.937 218.364 113.982 218.25 113.983ZM185.013 93.87L217.824 112.813L217.854 104.083L185.043 85.14L185.013 93.87Z" fill="#262424"/>
<path d="M218.218 103.834L218.25 113.554L251.917 94.1165L251.885 84.3965L218.218 103.834Z" fill="white"/>
<path d="M218.25 113.983C218.137 113.983 218.028 113.938 217.947 113.857C217.867 113.777 217.822 113.668 217.822 113.554L217.79 103.836C217.789 103.761 217.809 103.687 217.847 103.621C217.884 103.556 217.939 103.501 218.004 103.464L251.67 84.0258C251.735 83.9882 251.809 83.9684 251.885 83.9683C251.96 83.9683 252.034 83.9881 252.099 84.0256C252.164 84.0632 252.218 84.1172 252.256 84.1823C252.293 84.2474 252.313 84.3213 252.313 84.3965L252.345 94.1143C252.346 94.1898 252.326 94.2641 252.288 94.3296C252.251 94.3951 252.196 94.4494 252.131 94.4872L218.465 113.925C218.4 113.963 218.326 113.983 218.25 113.983ZM218.647 104.083L218.677 112.813L251.488 93.87L251.458 85.14L218.647 104.083Z" fill="#262424"/>
<path d="M251.733 84.3964L218.283 103.834L184.614 84.3964L218.064 64.9586L251.733 84.3964Z" fill="white"/>
<path d="M218.283 104.263C218.208 104.263 218.134 104.243 218.069 104.205L184.402 84.7694C184.338 84.7317 184.284 84.6776 184.246 84.6126C184.209 84.5475 184.189 84.4738 184.189 84.3987C184.189 84.3236 184.209 84.2498 184.246 84.1848C184.284 84.1197 184.338 84.0656 184.402 84.028L217.852 64.588C217.918 64.5503 217.992 64.5305 218.067 64.5305C218.142 64.5305 218.216 64.5503 218.281 64.588L251.947 84.0258C252.012 84.0635 252.066 84.1176 252.104 84.1826C252.141 84.2477 252.161 84.3215 252.161 84.3965C252.161 84.4716 252.141 84.5454 252.104 84.6104C252.066 84.6755 252.012 84.7296 251.947 84.7672L218.497 104.207C218.432 104.244 218.358 104.263 218.283 104.263ZM185.472 84.3965L218.283 103.339L250.878 84.3965L218.067 65.4537L185.472 84.3965Z" fill="#262424"/>
<path d="M218.287 77.4793L218.25 109.127L179.366 86.6786L179.405 55.0307L218.287 77.4793Z" fill="#605DEC"/>
<path d="M183.834 67.1808L197.025 74.7944V87.2637L183.819 79.6394L183.834 67.1808Z" fill="white"/>
<path d="M197.025 87.6921C196.95 87.692 196.876 87.672 196.811 87.6343L183.604 80.01C183.539 79.9724 183.485 79.9184 183.448 79.8533C183.41 79.7882 183.39 79.7144 183.39 79.6393L183.407 67.1807C183.407 67.1055 183.427 67.0317 183.465 66.9666C183.503 66.9015 183.557 66.8474 183.622 66.8099C183.687 66.7723 183.761 66.7526 183.836 66.7526C183.911 66.7526 183.985 66.7724 184.05 66.81L197.242 74.4236C197.307 74.4611 197.361 74.5152 197.398 74.5802C197.436 74.6453 197.456 74.7191 197.456 74.7943V87.2635C197.456 87.32 197.445 87.3759 197.423 87.428C197.401 87.4802 197.37 87.5275 197.33 87.5674C197.29 87.6072 197.242 87.6387 197.19 87.6601C197.138 87.6815 197.082 87.6924 197.025 87.6921ZM184.247 79.3928L196.597 86.5221V75.0407L184.262 67.9286L184.247 79.3928Z" fill="#262424"/>
<path d="M213.835 84.5015L213.823 96.9643L200.629 89.3465V76.8772L213.835 84.5015Z" fill="white"/>
<path d="M213.823 97.3929C213.747 97.3927 213.673 97.3728 213.608 97.335L200.415 89.7172C200.35 89.6796 200.296 89.6256 200.258 89.5605C200.22 89.4954 200.201 89.4216 200.2 89.3465V76.8772C200.201 76.802 200.22 76.7281 200.258 76.663C200.296 76.598 200.35 76.5439 200.415 76.5063C200.48 76.4688 200.554 76.449 200.629 76.449C200.704 76.4491 200.778 76.4689 200.843 76.5065L214.05 84.1307C214.115 84.1683 214.169 84.2224 214.206 84.2874C214.244 84.3525 214.264 84.4263 214.264 84.5015L214.251 96.9643C214.251 97.078 214.206 97.187 214.126 97.2674C214.045 97.3477 213.936 97.3929 213.823 97.3929ZM201.058 89.1L213.394 96.2143L213.407 84.7415L201.058 77.6122V89.0915V89.1Z" fill="#262424"/>
<path d="M218.211 77.4793L218.25 109.127L256.956 86.6786L256.918 55.0307L218.211 77.4793Z" fill="white"/>
<path d="M218.25 109.556C218.137 109.556 218.028 109.511 217.947 109.43C217.867 109.35 217.822 109.241 217.822 109.127L217.785 77.4793C217.785 77.4041 217.805 77.3303 217.843 77.2653C217.881 77.2002 217.935 77.1462 218 77.1086L256.715 54.66C256.78 54.6224 256.854 54.6026 256.929 54.6026C257.004 54.6026 257.078 54.6223 257.143 54.6599C257.208 54.6975 257.262 54.7515 257.3 54.8166C257.338 54.8817 257.357 54.9555 257.358 55.0307L257.394 86.6786C257.394 86.7537 257.374 86.8276 257.336 86.8926C257.299 86.9577 257.245 87.0117 257.18 87.0493L218.465 109.5C218.399 109.537 218.325 109.556 218.25 109.556ZM218.643 77.7257L218.679 108.384L256.528 86.4322L256.5 55.7743L218.643 77.7257Z" fill="#262424"/>
<path d="M252.664 67.1808L239.475 74.7944V87.2637L252.681 79.6394L252.664 67.1808Z" fill="#88C0C2"/>
<path d="M222.662 84.5015L222.674 96.9643L235.87 89.3465V76.8772L222.662 84.5015Z" fill="#88C0C2"/>
<path d="M256.918 55.0308L218.287 77.4793L179.405 55.0308L218.036 32.5801L256.918 55.0308Z" fill="white"/>
<path d="M218.287 77.9079C218.212 77.9078 218.138 77.8878 218.073 77.85L179.191 55.4036C179.126 55.3659 179.072 55.3119 179.035 55.2468C178.997 55.1817 178.977 55.108 178.977 55.0329C178.977 54.9578 178.997 54.8841 179.035 54.819C179.072 54.7539 179.126 54.6999 179.191 54.6622L217.822 32.2115C217.888 32.1739 217.961 32.1541 218.037 32.1541C218.112 32.1541 218.186 32.1739 218.251 32.2115L257.144 54.6579C257.209 54.6956 257.263 54.7496 257.3 54.8147C257.338 54.8798 257.357 54.9535 257.357 55.0286C257.357 55.1037 257.338 55.1775 257.3 55.2425C257.263 55.3076 257.209 55.3617 257.144 55.3993L218.504 77.85C218.438 77.8882 218.363 77.9081 218.287 77.9079ZM180.26 55.0308L218.287 76.9865L256.072 55.0308L218.037 33.0772L180.26 55.0308Z" fill="#262424"/>
<path d="M238.217 55.0307L218.227 66.6471L198.105 55.0307L218.096 43.4142L238.217 55.0307Z" fill="#88C0C2"/>
</svg>
