<svg width="343" height="300" viewBox="0 0 343 300" fill="none" xmlns="http://www.w3.org/2000/svg">
<path d="M137.556 167.786L141.506 185.634L160.77 272.7C161.546 276.208 163.579 278.544 165.859 278.544H263.443C265.534 278.544 266.989 275.145 266.278 271.926L247.185 185.634L243.066 167.014C242.291 163.506 240.257 161.171 237.977 161.171H140.391C138.3 161.16 136.845 164.559 137.556 167.786Z" fill="#88C0C2"/>
<path d="M137.556 167.786L141.506 185.634H247.183L243.064 167.014C242.288 163.506 240.255 161.171 237.975 161.171H140.391C138.3 161.16 136.845 164.559 137.556 167.786Z" fill="#605DEC"/>
<path d="M240.553 167.786L236.604 185.634L217.339 272.7C216.564 276.208 214.53 278.544 212.25 278.544H114.669C112.577 278.544 111.122 275.145 111.834 271.926L130.929 185.623L135.047 167.004C135.823 163.496 137.856 161.16 140.136 161.16H237.72C239.809 161.16 241.264 164.559 240.553 167.786Z" fill="white"/>
<path d="M212.252 279.137H114.669C113.811 279.137 113.019 278.709 112.376 277.914C111.208 276.459 110.754 273.996 111.242 271.785L130.335 185.492L134.454 166.873C135.289 163.093 137.571 160.554 140.134 160.554H237.718C238.575 160.554 239.368 160.982 240.011 161.777C241.179 163.232 241.633 165.694 241.144 167.906L217.929 272.82C217.097 276.598 214.815 279.137 212.252 279.137ZM140.143 161.766C138.163 161.766 136.356 163.924 135.643 167.136L131.524 185.756L112.431 272.049C112.024 273.891 112.391 275.991 113.327 277.157C113.61 277.509 114.073 277.929 114.675 277.929H212.252C214.232 277.929 216.039 275.771 216.752 272.561L239.964 167.649C240.371 165.806 240.004 163.706 239.068 162.54C238.785 162.189 238.322 161.769 237.72 161.769H140.143V161.766Z" fill="#262424"/>
<path d="M240.553 167.786L236.604 185.634H130.929L135.047 167.014C135.823 163.506 137.856 161.171 140.136 161.171H237.72C239.809 161.16 241.264 164.559 240.553 167.786Z" fill="#605DEC"/>
<path d="M236.604 186.229H130.929C130.838 186.229 130.749 186.209 130.667 186.169C130.585 186.13 130.513 186.073 130.456 186.002C130.4 185.932 130.36 185.849 130.339 185.761C130.318 185.672 130.318 185.581 130.337 185.492L134.456 166.873C135.292 163.093 137.574 160.554 140.137 160.554H237.72C238.577 160.554 239.37 160.982 240.013 161.777C241.181 163.232 241.635 165.694 241.147 167.906L237.197 185.754C237.167 185.889 237.092 186.01 236.984 186.096C236.876 186.183 236.742 186.23 236.604 186.229ZM131.681 185.019H236.117L239.962 167.646C240.369 165.804 240.002 163.704 239.066 162.538C238.783 162.186 238.32 161.766 237.718 161.766H140.143C138.163 161.766 136.357 163.924 135.643 167.136L131.681 185.019Z" fill="#605DEC"/>
<path d="M235.813 189.906C235.722 189.906 235.633 189.886 235.551 189.847C235.469 189.807 235.397 189.75 235.341 189.68C235.284 189.609 235.244 189.526 235.223 189.438C235.203 189.35 235.202 189.258 235.222 189.169L239.964 167.644C240.005 167.494 240.102 167.365 240.235 167.285C240.368 167.204 240.528 167.178 240.68 167.212C240.832 167.245 240.965 167.336 241.052 167.465C241.139 167.595 241.173 167.752 241.147 167.906L236.402 189.429C236.373 189.563 236.299 189.684 236.192 189.771C236.084 189.858 235.951 189.906 235.813 189.906Z" fill="#262424"/>
<path d="M181.909 268.929C181.819 268.928 181.729 268.908 181.647 268.869C181.566 268.829 181.494 268.772 181.437 268.702C181.38 268.631 181.34 268.548 181.32 268.46C181.299 268.372 181.298 268.28 181.318 268.191L198.598 190.071C198.612 189.99 198.642 189.913 198.686 189.844C198.731 189.775 198.789 189.716 198.857 189.67C198.925 189.624 199.002 189.593 199.083 189.577C199.164 189.562 199.246 189.563 199.327 189.581C199.407 189.599 199.483 189.633 199.549 189.68C199.616 189.728 199.672 189.789 199.715 189.86C199.757 189.93 199.785 190.008 199.796 190.089C199.808 190.171 199.802 190.254 199.781 190.333L182.499 268.442C182.471 268.579 182.398 268.701 182.29 268.79C182.183 268.878 182.049 268.927 181.909 268.929Z" fill="#262424"/>
<path d="M145.635 268.929C145.544 268.928 145.455 268.908 145.373 268.869C145.291 268.829 145.219 268.772 145.163 268.702C145.106 268.631 145.066 268.548 145.045 268.46C145.025 268.372 145.024 268.28 145.044 268.191L162.326 190.071C162.339 189.99 162.37 189.913 162.414 189.844C162.459 189.775 162.517 189.716 162.585 189.67C162.653 189.624 162.73 189.593 162.811 189.577C162.891 189.562 162.974 189.563 163.054 189.581C163.135 189.599 163.21 189.633 163.277 189.68C163.344 189.728 163.4 189.789 163.443 189.86C163.485 189.93 163.513 190.008 163.524 190.089C163.536 190.171 163.53 190.254 163.509 190.333L146.226 268.442C146.199 268.579 146.125 268.702 146.017 268.791C145.909 268.879 145.774 268.928 145.635 268.929Z" fill="#262424"/>
<path d="M222.626 216.238H132C131.917 216.243 131.835 216.231 131.757 216.203C131.679 216.174 131.608 216.131 131.548 216.074C131.488 216.017 131.44 215.949 131.407 215.873C131.374 215.797 131.358 215.715 131.358 215.633C131.358 215.55 131.374 215.468 131.407 215.392C131.44 215.316 131.488 215.248 131.548 215.191C131.608 215.134 131.679 215.091 131.757 215.062C131.835 215.034 131.917 215.022 132 215.027H222.632C222.715 215.023 222.797 215.035 222.875 215.064C222.952 215.092 223.023 215.137 223.083 215.194C223.143 215.251 223.19 215.319 223.223 215.395C223.255 215.471 223.272 215.553 223.271 215.636C223.271 215.719 223.253 215.8 223.22 215.876C223.187 215.952 223.139 216.02 223.078 216.076C223.018 216.133 222.947 216.176 222.869 216.204C222.791 216.232 222.708 216.243 222.626 216.238Z" fill="#262424"/>
<path d="M215.593 246.784H124.961C124.878 246.789 124.796 246.777 124.718 246.749C124.64 246.721 124.569 246.677 124.509 246.62C124.449 246.564 124.401 246.495 124.368 246.419C124.335 246.343 124.318 246.262 124.318 246.179C124.318 246.096 124.335 246.014 124.368 245.939C124.401 245.863 124.449 245.794 124.509 245.738C124.569 245.681 124.64 245.637 124.718 245.609C124.796 245.581 124.878 245.569 124.961 245.574H215.593C215.675 245.569 215.758 245.581 215.836 245.609C215.914 245.637 215.985 245.681 216.045 245.738C216.105 245.794 216.153 245.863 216.186 245.939C216.219 246.014 216.235 246.096 216.235 246.179C216.235 246.262 216.219 246.343 216.186 246.419C216.153 246.495 216.105 246.564 216.045 246.62C215.985 246.677 215.914 246.721 215.836 246.749C215.758 246.777 215.675 246.789 215.593 246.784Z" fill="#262424"/>
<path d="M277.481 109.333L271.129 108.285C269.827 105.267 267.421 102.861 264.403 101.559L263.357 95.205C263.313 94.9391 263.176 94.6975 262.97 94.5233C262.765 94.3491 262.504 94.2535 262.234 94.2536H256.421C256.151 94.2535 255.89 94.3491 255.685 94.5233C255.479 94.6975 255.342 94.9391 255.298 95.205L254.25 101.559C251.233 102.861 248.826 105.266 247.524 108.283L241.172 109.331C240.906 109.374 240.664 109.511 240.489 109.717C240.314 109.923 240.219 110.184 240.219 110.454V116.267C240.219 116.537 240.314 116.798 240.489 117.004C240.664 117.209 240.906 117.346 241.172 117.39L247.526 118.438C248.828 121.454 251.234 123.859 254.25 125.162L255.298 131.516C255.342 131.782 255.479 132.023 255.685 132.197C255.89 132.372 256.151 132.467 256.421 132.467H262.234C262.504 132.467 262.765 132.372 262.97 132.197C263.176 132.023 263.313 131.782 263.357 131.516L264.405 125.164C267.422 123.861 269.827 121.455 271.129 118.438L277.483 117.39C277.749 117.346 277.991 117.209 278.166 117.004C278.34 116.798 278.436 116.537 278.436 116.267V110.456C278.436 110.186 278.34 109.924 278.165 109.719C277.99 109.513 277.747 109.376 277.481 109.333ZM259.326 117.319C258.543 117.319 257.778 117.087 257.127 116.652C256.475 116.217 255.968 115.599 255.668 114.875C255.368 114.152 255.29 113.356 255.442 112.588C255.595 111.819 255.972 111.114 256.525 110.56C257.079 110.006 257.784 109.629 258.552 109.476C259.321 109.323 260.117 109.401 260.84 109.7C261.564 109.999 262.183 110.507 262.618 111.158C263.053 111.809 263.286 112.574 263.286 113.357C263.287 113.877 263.184 114.393 262.986 114.873C262.787 115.354 262.495 115.791 262.127 116.159C261.76 116.527 261.323 116.818 260.842 117.018C260.362 117.217 259.847 117.319 259.326 117.319Z" fill="#605DEC"/>
<path d="M258.6 55.3136L249.101 54.7436C248.567 52.8722 247.82 51.0688 246.872 49.3693L253.187 42.2464C253.491 41.9028 253.653 41.456 253.639 40.9973C253.625 40.5386 253.437 40.1024 253.112 39.7779L246.609 33.2743C246.284 32.9498 245.848 32.7614 245.389 32.7474C244.93 32.7335 244.484 32.8951 244.14 33.1993L237.017 39.5143C235.318 38.5667 233.514 37.8189 231.643 37.2857L231.073 27.7886C231.045 27.3305 230.843 26.9004 230.509 26.5858C230.175 26.2712 229.734 26.096 229.275 26.0957H220.071C219.613 26.096 219.171 26.2712 218.837 26.5858C218.503 26.9004 218.301 27.3305 218.274 27.7886L217.714 37.2857C215.843 37.8196 214.039 38.5682 212.34 39.5164L205.217 33.2014C204.873 32.8973 204.427 32.7357 203.968 32.7496C203.509 32.7635 203.073 32.952 202.748 33.2764L196.245 39.78C195.92 40.1046 195.732 40.5407 195.718 40.9994C195.704 41.4582 195.866 41.9049 196.17 42.2486L202.485 49.3714C201.537 51.0709 200.788 52.8743 200.254 54.7457L190.757 55.3157C190.299 55.3436 189.869 55.545 189.554 55.8791C189.24 56.2132 189.064 56.6547 189.064 57.1136V66.3107C189.064 66.7696 189.24 67.2111 189.554 67.5452C189.869 67.8792 190.299 68.0808 190.757 68.1086L200.254 68.6786C200.788 70.5508 201.536 72.3549 202.485 74.055L196.17 81.1779C195.866 81.5215 195.704 81.9683 195.718 82.427C195.732 82.8857 195.92 83.3219 196.245 83.6464L202.748 90.15C203.073 90.4745 203.509 90.6629 203.968 90.6769C204.427 90.6908 204.873 90.5292 205.217 90.225L212.338 83.91C214.038 84.8592 215.842 85.6084 217.714 86.1429L218.284 95.64C218.312 96.098 218.514 96.5282 218.848 96.8428C219.182 97.1573 219.623 97.3326 220.082 97.3329H229.279C229.738 97.3326 230.18 97.1573 230.514 96.8428C230.848 96.5282 231.049 96.098 231.077 95.64L231.643 86.1429C233.515 85.6092 235.319 84.8606 237.019 83.9121L244.14 90.2143C244.484 90.5185 244.93 90.6801 245.389 90.6661C245.848 90.6522 246.284 90.4638 246.609 90.1393L253.112 83.6357C253.437 83.3112 253.625 82.875 253.639 82.4163C253.653 81.9576 253.491 81.5108 253.187 81.1672L246.872 74.0443C247.82 72.3448 248.567 70.5414 249.101 68.67L258.6 68.1C259.058 68.0722 259.488 67.8707 259.803 67.5366C260.117 67.2025 260.293 66.761 260.293 66.3021V57.1114C260.293 56.6526 260.117 56.2111 259.803 55.877C259.488 55.5429 259.058 55.3414 258.6 55.3136ZM224.674 71.0636C222.824 71.064 221.015 70.5157 219.477 69.488C217.938 68.4602 216.739 66.9993 216.031 65.29C215.323 63.5806 215.137 61.6996 215.498 59.885C215.859 58.0703 216.75 56.4034 218.059 55.0953C219.367 53.7871 221.034 52.8964 222.849 52.5358C224.664 52.1752 226.545 52.3609 228.254 53.0695C229.963 53.778 231.424 54.9775 232.451 56.5163C233.479 58.0551 234.027 59.8641 234.026 61.7143C234.025 64.1937 233.039 66.5712 231.285 68.324C229.532 70.0768 227.154 71.0614 224.674 71.0614V71.0636Z" fill="#88C0C2"/>
<path d="M197.916 139.378C206.775 139.378 213.956 132.197 213.956 123.339C213.956 114.48 206.775 107.299 197.916 107.299C189.058 107.299 181.877 114.48 181.877 123.339C181.877 132.197 189.058 139.378 197.916 139.378Z" fill="#88C0C2"/>
<path d="M179.532 106.312L180.713 105.132C181.34 104.504 182.192 104.151 183.08 104.151C183.967 104.151 184.819 104.504 185.446 105.132L187.184 106.87C187.441 107.127 187.585 107.475 187.585 107.838C187.585 108.201 187.441 108.549 187.184 108.806L183.205 112.785C182.948 113.042 182.6 113.186 182.237 113.186C181.874 113.186 181.526 113.042 181.269 112.785L179.531 111.047C179.22 110.736 178.973 110.367 178.805 109.961C178.637 109.555 178.55 109.119 178.55 108.679C178.551 108.24 178.637 107.804 178.806 107.398C178.974 106.992 179.221 106.623 179.532 106.312Z" fill="#605DEC"/>
<path d="M212.629 112.785L208.643 108.798C208.386 108.542 208.242 108.193 208.242 107.83C208.242 107.467 208.386 107.119 208.643 106.862L210.381 105.124C211.008 104.496 211.86 104.144 212.747 104.144C213.635 104.144 214.487 104.496 215.114 105.124L216.295 106.304C216.922 106.932 217.275 107.783 217.275 108.671C217.275 109.559 216.922 110.41 216.295 111.038L214.555 112.777C214.298 113.034 213.95 113.178 213.587 113.178C213.224 113.178 212.875 113.034 212.619 112.777L212.629 112.785Z" fill="#605DEC"/>
<path d="M197.916 133.442C203.496 133.442 208.02 128.919 208.02 123.339C208.02 117.759 203.496 113.235 197.916 113.235C192.336 113.235 187.813 117.759 187.813 123.339C187.813 128.919 192.336 133.442 197.916 133.442Z" fill="white"/>
<path d="M197.916 133.978C195.812 133.978 193.755 133.354 192.006 132.185C190.256 131.016 188.892 129.354 188.087 127.41C187.282 125.466 187.071 123.327 187.482 121.263C187.892 119.199 188.905 117.303 190.393 115.815C191.881 114.328 193.777 113.314 195.841 112.904C197.905 112.493 200.044 112.704 201.988 113.509C203.932 114.314 205.594 115.678 206.763 117.428C207.932 119.177 208.556 121.234 208.556 123.339C208.553 126.159 207.431 128.864 205.436 130.859C203.442 132.853 200.737 133.975 197.916 133.978ZM197.916 113.771C196.024 113.771 194.174 114.332 192.601 115.383C191.027 116.435 189.801 117.929 189.077 119.677C188.353 121.425 188.163 123.349 188.532 125.205C188.902 127.061 189.813 128.766 191.151 130.104C192.489 131.442 194.194 132.353 196.05 132.723C197.906 133.092 199.83 132.902 201.578 132.178C203.326 131.454 204.82 130.228 205.872 128.654C206.923 127.081 207.484 125.231 207.484 123.339C207.481 120.802 206.472 118.37 204.679 116.576C202.885 114.782 200.453 113.774 197.916 113.771Z" fill="#262424"/>
<path d="M199.301 123.339C199.301 123.706 199.155 124.058 198.895 124.317C198.636 124.577 198.284 124.723 197.917 124.723C197.549 124.723 197.197 124.577 196.938 124.317C196.678 124.058 196.532 123.706 196.532 123.339C196.532 123.241 196.543 123.144 196.564 123.049L197.917 115.487L199.269 123.049C199.29 123.144 199.301 123.241 199.301 123.339Z" fill="#605DEC"/>
<path d="M196.929 122.357C197.191 122.113 197.538 121.98 197.897 121.986C198.255 121.993 198.597 122.138 198.851 122.391C199.104 122.645 199.25 122.987 199.256 123.346C199.262 123.704 199.129 124.051 198.885 124.314C198.817 124.383 198.74 124.444 198.658 124.496L192.364 128.891L196.755 122.586C196.804 122.504 196.862 122.427 196.929 122.357Z" fill="#605DEC"/>
<path d="M114.825 220.438L124.581 241.727L117.219 244.832L105.253 226.236L114.825 220.438Z" fill="white"/>
<path d="M117.214 245.439C117.113 245.439 117.013 245.413 116.924 245.364C116.835 245.316 116.759 245.245 116.704 245.16L104.743 226.564C104.699 226.496 104.669 226.42 104.655 226.34C104.641 226.261 104.644 226.179 104.662 226.1C104.68 226.021 104.714 225.947 104.761 225.881C104.809 225.815 104.869 225.76 104.938 225.718L114.51 219.919C114.583 219.876 114.664 219.849 114.748 219.839C114.832 219.83 114.917 219.838 114.997 219.863C115.078 219.888 115.153 219.929 115.216 219.985C115.28 220.04 115.331 220.108 115.367 220.185L125.124 241.474C125.157 241.548 125.176 241.628 125.178 241.709C125.18 241.79 125.166 241.87 125.137 241.946C125.108 242.021 125.063 242.09 125.007 242.148C124.951 242.206 124.883 242.253 124.809 242.284L117.446 245.389C117.373 245.421 117.294 245.438 117.214 245.439ZM106.095 226.431L117.452 244.076L123.769 241.41L114.555 221.308L106.095 226.431Z" fill="#262424"/>
<path d="M116.289 275.376L118.324 277.466L144 252.454C144 252.454 143.04 251.469 141.444 249.999C137.625 246.482 130.159 240.186 123.484 237.971L114 247.202C114 247.202 118.714 257.059 114.857 269.274C114.557 270.223 114.494 271.232 114.673 272.212C114.851 273.192 115.267 274.114 115.884 274.896C116.01 275.063 116.146 275.223 116.289 275.376Z" fill="#605DEC"/>
<path d="M116.289 275.376L118.324 277.466L144 252.454C144 252.454 143.04 251.469 141.444 249.999L115.875 274.905C116.005 275.069 116.143 275.226 116.289 275.376Z" fill="white"/>
<path d="M118.324 278.072C118.244 278.072 118.165 278.055 118.092 278.024C118.018 277.993 117.952 277.947 117.896 277.89L115.86 275.801C115.7 275.636 115.548 275.464 115.406 275.284C115.313 275.167 115.267 275.019 115.276 274.869C115.285 274.72 115.35 274.579 115.457 274.474L141.017 249.568C141.128 249.459 141.277 249.398 141.432 249.396C141.587 249.394 141.737 249.452 141.851 249.557C143.441 251.021 144.39 251.996 144.422 252.036C144.534 252.152 144.596 252.306 144.594 252.467C144.592 252.628 144.527 252.781 144.411 252.894L118.746 277.899C118.634 278.009 118.482 278.071 118.324 278.072ZM116.721 274.954L118.335 276.611L143.13 252.45C142.768 252.092 142.191 251.531 141.446 250.836L116.709 274.929L116.721 274.941V274.954Z" fill="#262424"/>
<path d="M146.128 161.381C143.387 165.189 111.45 187.577 104.985 192.09L114.791 217.183L102.979 229.262C102.979 229.262 91.3243 210.146 83.8243 197.704C83.16 196.605 82.5385 195.561 81.9428 194.58C80.6636 192.45 80.1122 189.962 80.3719 187.491C80.6317 185.02 81.6886 182.7 83.3828 180.883C84.3471 179.85 85.3971 178.725 86.5157 177.542C96.8914 166.511 112.674 150.114 112.674 150.114L114.951 136.929C116.057 130.558 120.319 125.111 126.336 122.751C128.776 121.783 131.397 121.356 134.019 121.5C145.528 122.143 146.567 130.791 146.567 130.791C146.567 130.791 149.181 157.142 146.128 161.381Z" fill="#88C0C2"/>
<path d="M108.699 219.176C108.583 219.176 108.469 219.142 108.371 219.08C108.274 219.017 108.196 218.928 108.148 218.822L95.4236 191.201C95.3733 191.091 95.3568 190.969 95.3762 190.85C95.3957 190.731 95.4503 190.62 95.5329 190.532L131.636 152.261C131.689 152.198 131.755 152.147 131.828 152.11C131.902 152.073 131.982 152.052 132.065 152.048C132.147 152.043 132.229 152.055 132.306 152.084C132.384 152.112 132.455 152.156 132.514 152.212C132.574 152.269 132.622 152.337 132.655 152.412C132.687 152.488 132.704 152.569 132.705 152.652C132.705 152.734 132.688 152.816 132.656 152.891C132.624 152.967 132.576 153.035 132.516 153.092L96.6944 191.066L109.247 218.316C109.29 218.409 109.308 218.51 109.301 218.611C109.294 218.712 109.262 218.81 109.207 218.896C109.153 218.981 109.077 219.052 108.989 219.1C108.9 219.149 108.8 219.175 108.699 219.176Z" fill="#262424"/>
<path d="M104.357 192.362H104.289L92.2265 191.014C92.0718 190.99 91.9323 190.908 91.8372 190.783C91.7421 190.659 91.6987 190.503 91.7162 190.347C91.7336 190.192 91.8105 190.049 91.9308 189.949C92.0511 189.849 92.2054 189.799 92.3615 189.81L104.424 191.158C104.572 191.182 104.705 191.26 104.799 191.376C104.893 191.493 104.94 191.64 104.932 191.79C104.924 191.939 104.861 192.081 104.755 192.186C104.648 192.292 104.507 192.355 104.357 192.362Z" fill="#262424"/>
<path d="M90.3021 186.684C90.3021 191.612 87.6364 195.836 83.8178 197.704C83.1535 196.605 82.5321 195.561 81.9364 194.58C80.6571 192.45 80.1057 189.962 80.3655 187.491C80.6253 185.02 81.6821 182.7 83.3764 180.883C84.3407 179.85 85.3907 178.725 86.5092 177.542C88.8299 179.751 90.3021 183.026 90.3021 186.684Z" fill="white"/>
<path d="M98.5222 222.857L110.908 210.789C111.163 210.538 111.472 210.349 111.811 210.236C112.151 210.123 112.512 210.089 112.866 210.137C113.221 210.185 113.56 210.313 113.857 210.512C114.154 210.712 114.402 210.976 114.581 211.286L119.981 220.731C120.239 221.183 120.34 221.707 120.268 222.221C120.196 222.736 119.954 223.212 119.582 223.575L108.021 234.857C107.78 235.093 107.491 235.273 107.173 235.387C106.855 235.5 106.517 235.544 106.181 235.515C105.845 235.485 105.519 235.384 105.226 235.217C104.932 235.05 104.679 234.822 104.481 234.549L98.2672 225.906C97.9374 225.452 97.7818 224.894 97.8286 224.334C97.8754 223.775 98.1215 223.251 98.5222 222.857Z" fill="#605DEC"/>
<path d="M133.052 150.279C132.934 150.279 132.819 150.245 132.72 150.18L129.568 148.114C128.911 147.686 128.385 147.083 128.05 146.373C127.715 145.663 127.584 144.874 127.672 144.094L129.022 131.709C129.046 131.555 129.129 131.416 129.252 131.322C129.376 131.228 129.531 131.184 129.686 131.201C129.841 131.218 129.983 131.293 130.083 131.412C130.184 131.531 130.235 131.684 130.226 131.839L128.876 144.225C128.814 144.783 128.908 145.347 129.147 145.854C129.387 146.361 129.762 146.792 130.232 147.099L133.384 149.164C133.494 149.236 133.577 149.341 133.622 149.463C133.667 149.586 133.672 149.72 133.634 149.845C133.597 149.971 133.52 150.081 133.415 150.159C133.31 150.237 133.183 150.279 133.052 150.279Z" fill="#262424"/>
<path d="M108.876 236.021L101.006 258.077L93.5657 255.163L97.9735 233.494L108.876 236.021Z" fill="white"/>
<path d="M101.006 258.684C100.932 258.683 100.86 258.669 100.791 258.643L93.3514 255.729C93.2185 255.676 93.1082 255.579 93.04 255.454C92.9718 255.328 92.95 255.183 92.9785 255.043L97.3864 233.374C97.4026 233.295 97.4345 233.22 97.4803 233.153C97.5261 233.086 97.5847 233.029 97.6528 232.986C97.7209 232.942 97.7971 232.912 97.8768 232.898C97.9565 232.885 98.0383 232.887 98.1171 232.905L109.02 235.434C109.103 235.454 109.181 235.491 109.248 235.543C109.316 235.595 109.371 235.66 109.412 235.735C109.452 235.81 109.476 235.893 109.483 235.978C109.489 236.063 109.477 236.148 109.449 236.229L101.571 258.281C101.53 258.398 101.453 258.499 101.352 258.571C101.251 258.643 101.13 258.682 101.006 258.684ZM94.2621 254.786L100.648 257.286L108.079 236.46L98.4364 234.227L94.2621 254.786Z" fill="#262424"/>
<path d="M71.7858 275.426V278.533H109.929C109.929 278.533 109.929 277.067 109.804 274.761C109.504 269.244 108.491 258.904 105.047 252.244H90.9686C90.9686 252.244 87.2315 263.269 75.21 269.711C74.275 270.212 73.4767 270.934 72.8847 271.814C72.2928 272.695 71.925 273.706 71.8136 274.761C71.7932 274.982 71.7839 275.204 71.7858 275.426Z" fill="#605DEC"/>
<path d="M71.7858 275.426V278.533H109.929C109.929 278.533 109.929 277.067 109.804 274.761H71.8136C71.7932 274.982 71.7839 275.204 71.7858 275.426Z" fill="white"/>
<path d="M109.929 279.137H71.7857C71.6249 279.137 71.4707 279.073 71.3569 278.96C71.2432 278.846 71.1793 278.692 71.1793 278.531V275.424C71.18 275.181 71.1929 274.939 71.2179 274.697C71.2333 274.548 71.3033 274.41 71.4145 274.309C71.5257 274.209 71.6701 274.153 71.82 274.153H109.811C109.965 274.153 110.114 274.213 110.227 274.319C110.339 274.425 110.406 274.571 110.415 274.725C110.539 277.022 110.539 278.469 110.539 278.531C110.539 278.611 110.523 278.69 110.493 278.764C110.462 278.838 110.417 278.905 110.36 278.961C110.303 279.017 110.236 279.062 110.162 279.092C110.088 279.122 110.009 279.138 109.929 279.137ZM72.3836 277.929H109.322C109.322 277.384 109.29 276.497 109.234 275.357H72.3772C72.3772 275.376 72.3772 275.398 72.3772 275.417V277.929H72.3836Z" fill="#262424"/>
<path d="M162.722 129.804C162.722 129.804 160.753 121.32 149.242 121.926C146.622 122.063 144.062 122.767 141.742 123.99C136.016 126.99 132.369 132.864 131.959 139.316L131.117 152.676L109.633 181.024L106.984 184.519C104.89 187.284 103.51 190.522 102.967 193.948L101.467 200.876L94.2386 234.077L111.129 233.672L126.986 196.157C126.986 196.157 163.026 164.786 165.6 160.251C168.174 155.717 162.722 129.804 162.722 129.804Z" fill="#88C0C2"/>
<path d="M111.281 179.458C111.168 179.458 111.057 179.426 110.962 179.366C110.866 179.307 110.789 179.222 110.738 179.121C110.688 179.02 110.667 178.907 110.678 178.794C110.689 178.682 110.73 178.575 110.799 178.485L130.513 152.458L131.357 139.286C131.358 139.203 131.375 139.122 131.409 139.046C131.442 138.971 131.49 138.903 131.551 138.847C131.611 138.791 131.682 138.748 131.76 138.72C131.837 138.692 131.92 138.681 132.002 138.686C132.084 138.691 132.165 138.713 132.238 138.75C132.312 138.788 132.377 138.84 132.43 138.903C132.482 138.966 132.522 139.04 132.545 139.119C132.568 139.198 132.576 139.281 132.566 139.363L131.724 152.724C131.716 152.842 131.674 152.957 131.601 153.051L111.763 179.218C111.707 179.292 111.634 179.353 111.55 179.395C111.466 179.436 111.374 179.458 111.281 179.458Z" fill="#262424"/>
<path d="M94.2322 234.677C94.1417 234.677 94.0525 234.657 93.9709 234.617C93.8894 234.578 93.8176 234.521 93.7609 234.451C93.7042 234.38 93.664 234.298 93.6432 234.21C93.6224 234.122 93.6216 234.031 93.6407 233.942L100.498 202.41C100.513 202.331 100.544 202.255 100.589 202.188C100.634 202.121 100.692 202.064 100.76 202.019C100.827 201.975 100.903 201.945 100.982 201.93C101.061 201.915 101.143 201.916 101.222 201.933C101.301 201.95 101.375 201.983 101.441 202.029C101.507 202.076 101.564 202.135 101.607 202.203C101.65 202.272 101.678 202.348 101.692 202.428C101.705 202.507 101.702 202.589 101.683 202.667L94.9822 233.445L111.101 233.057H111.116C111.27 233.064 111.416 233.13 111.524 233.241C111.631 233.353 111.692 233.501 111.694 233.655C111.696 233.81 111.639 233.96 111.534 234.074C111.429 234.187 111.285 234.257 111.131 234.268L94.2407 234.673H94.2257L94.2322 234.677Z" fill="#262424"/>
<path d="M107.736 229.476C107.642 229.476 107.548 229.454 107.464 229.412C107.379 229.369 107.306 229.308 107.249 229.232C107.193 229.155 107.155 229.067 107.139 228.974C107.122 228.881 107.128 228.785 107.156 228.694L118.071 192.793C118.096 192.714 118.136 192.641 118.189 192.579L150.611 154.569L151.211 131.304C151.223 131.149 151.294 131.005 151.41 130.901C151.525 130.797 151.676 130.742 151.831 130.746C151.986 130.75 152.134 130.813 152.244 130.923C152.354 131.033 152.417 131.181 152.421 131.336L151.815 154.815C151.811 154.954 151.76 155.087 151.669 155.192L119.186 193.266L108.317 229.052C108.278 229.176 108.201 229.283 108.096 229.36C107.992 229.436 107.866 229.477 107.736 229.476Z" fill="#262424"/>
<path d="M109.633 181.024L106.984 184.519C104.89 187.284 103.51 190.522 102.966 193.948L101.466 200.876C105.375 200.721 109.288 197.979 111.227 193.611C113.263 189 112.5 183.981 109.633 181.024Z" fill="white"/>
<path d="M95.5201 226.369H112.813C113.171 226.369 113.524 226.451 113.845 226.609C114.166 226.767 114.447 226.996 114.666 227.279C114.885 227.562 115.037 227.891 115.109 228.241C115.181 228.592 115.172 228.954 115.082 229.301L112.356 239.833C112.226 240.336 111.933 240.781 111.522 241.099C111.111 241.417 110.607 241.59 110.087 241.59H93.9472C93.61 241.59 93.2767 241.517 92.9702 241.377C92.6637 241.236 92.391 241.031 92.171 240.776C91.9509 240.52 91.7885 240.22 91.6949 239.896C91.6013 239.572 91.5787 239.232 91.6286 238.899L93.2015 228.366C93.2846 227.811 93.5644 227.304 93.99 226.937C94.4155 226.571 94.9584 226.369 95.5201 226.369Z" fill="#605DEC"/>
<path d="M151.333 150.643C151.237 150.643 151.143 150.62 151.059 150.576L147.701 148.862C147 148.508 146.412 147.965 146.002 147.296C145.592 146.627 145.376 145.856 145.378 145.071V132.606C145.378 132.446 145.442 132.291 145.555 132.178C145.669 132.064 145.823 132 145.984 132C146.145 132 146.299 132.064 146.413 132.178C146.527 132.291 146.591 132.446 146.591 132.606V145.071C146.589 145.633 146.744 146.183 147.037 146.662C147.33 147.141 147.751 147.528 148.251 147.782L151.609 149.496C151.731 149.558 151.827 149.659 151.884 149.783C151.941 149.907 151.955 150.046 151.923 150.179C151.891 150.311 151.815 150.429 151.708 150.513C151.601 150.597 151.469 150.643 151.333 150.643Z" fill="#262424"/>
<path d="M106.352 101.951C106.352 101.951 102.469 123.643 102.814 125.739C103.29 128.623 104.557 132.596 105.112 134.173C105.112 134.173 104.606 138.718 105.718 140.434C106.83 142.151 110.162 142.858 112.382 142.858C114.602 142.858 114.806 139.429 114.806 139.429C114.806 139.429 115.26 142.654 116.775 142.654C118.29 142.654 118.644 135.137 117.658 132.866C116.672 130.594 114.262 131.451 114.262 131.451L114.174 123.294L118.387 105.178L106.352 101.951Z" fill="white"/>
<path d="M112.382 143.464C110.505 143.464 106.596 142.901 105.208 140.764C104.091 139.037 104.404 135.139 104.494 134.246C103.982 132.78 102.701 128.781 102.216 125.837C101.865 123.694 105.358 104.074 105.756 101.837C105.771 101.756 105.803 101.678 105.849 101.609C105.895 101.54 105.955 101.481 106.024 101.436C106.094 101.391 106.172 101.361 106.254 101.347C106.336 101.334 106.42 101.337 106.5 101.357L118.534 104.582C118.685 104.624 118.814 104.722 118.894 104.857C118.974 104.992 118.998 105.152 118.963 105.304L114.767 123.349L114.857 130.699C115.961 130.579 117.461 130.892 118.211 132.628C119.1 134.679 119.027 140.781 117.834 142.601C117.474 143.149 117.058 143.263 116.762 143.263C115.841 143.263 115.232 142.536 114.834 141.72C114.394 142.671 113.621 143.464 112.382 143.464ZM106.834 102.705C105.289 111.39 103.179 124.217 103.406 125.634C103.892 128.582 105.21 132.647 105.677 133.965C105.708 134.051 105.719 134.144 105.709 134.235C105.576 135.439 105.407 138.842 106.221 140.1C107.124 141.495 110.066 142.243 112.378 142.243C114 142.243 114.195 139.408 114.197 139.378C114.208 139.229 114.273 139.09 114.381 138.986C114.488 138.883 114.629 138.822 114.778 138.816C114.927 138.81 115.073 138.86 115.188 138.955C115.303 139.049 115.379 139.183 115.401 139.331C115.56 140.441 116.106 141.971 116.732 142.033C116.961 141.846 117.433 140.717 117.57 138.186C117.684 136.089 117.491 133.993 117.101 133.093C116.351 131.361 114.54 131.981 114.465 132.009C114.374 132.041 114.277 132.051 114.181 132.038C114.085 132.026 113.994 131.99 113.915 131.935C113.836 131.88 113.771 131.807 113.726 131.722C113.68 131.636 113.656 131.542 113.655 131.445L113.571 123.298C113.571 123.25 113.576 123.201 113.586 123.154L117.658 105.611L106.834 102.705Z" fill="#262424"/>
<path d="M103.963 107.072L122.724 112.101C126.135 98.8436 127.224 83.9893 122.891 80.1364C111.036 69.5786 105.819 92.49 103.963 107.072Z" fill="#605DEC"/>
<path d="M122.511 110.304C122.457 110.304 122.403 110.296 122.351 110.282L105.851 105.761C105.77 105.743 105.695 105.709 105.628 105.661C105.561 105.613 105.505 105.552 105.462 105.482C105.42 105.411 105.392 105.333 105.381 105.251C105.37 105.17 105.375 105.087 105.397 105.008C105.419 104.928 105.457 104.854 105.508 104.79C105.559 104.726 105.623 104.673 105.696 104.634C105.768 104.595 105.848 104.571 105.93 104.564C106.012 104.557 106.094 104.567 106.172 104.593L122.672 109.114C122.812 109.154 122.933 109.244 123.013 109.366C123.092 109.488 123.125 109.634 123.106 109.778C123.086 109.923 123.016 110.055 122.906 110.152C122.797 110.248 122.657 110.302 122.511 110.304Z" fill="#262424"/>
<path d="M135.581 70.17C128.374 70.17 116.008 77.5093 116.008 77.5093L115.611 82.2471C115.611 82.2471 112.371 91.1957 112.371 94.5686C112.371 97.9414 118.125 105.677 118.125 105.677C118.125 105.677 114.026 132.178 112.371 145.14C112.371 145.14 131.871 157.569 166.8 146.329L158.265 106.022L157.136 78.0171C157.136 78.0171 145.146 70.17 135.581 70.17Z" fill="#605DEC"/>
<path d="M117.36 111.268C117.329 111.27 117.299 111.27 117.268 111.268C117.109 111.244 116.966 111.157 116.871 111.028C116.776 110.899 116.736 110.737 116.76 110.578C117.129 108.161 117.392 106.453 117.486 105.842C116.548 104.556 111.765 97.8321 111.765 94.5771C111.765 91.2664 114.677 83.0657 115.014 82.125L115.286 78.8571C115.291 78.7771 115.313 78.6989 115.349 78.6272C115.385 78.5555 115.435 78.4917 115.496 78.4394C115.557 78.3872 115.628 78.3475 115.704 78.3229C115.78 78.2982 115.861 78.2889 115.941 78.2955C116.021 78.3022 116.099 78.3247 116.17 78.3617C116.241 78.3987 116.305 78.4495 116.356 78.5111C116.408 78.5727 116.446 78.6439 116.47 78.7206C116.494 78.7973 116.502 78.8779 116.494 78.9579L116.216 82.2943C116.211 82.3477 116.2 82.4003 116.181 82.4507C116.149 82.5386 112.967 91.3371 112.967 94.5664C112.967 97.1679 117.039 103.206 118.601 105.313C118.649 105.377 118.684 105.451 118.703 105.529C118.723 105.607 118.726 105.688 118.714 105.767C118.714 105.767 118.416 107.696 117.951 110.749C117.931 110.892 117.86 111.022 117.751 111.117C117.643 111.212 117.504 111.266 117.36 111.268Z" fill="#262424"/>
<path d="M136.952 147.741C129.598 147.741 121.384 146.704 114.666 143.188C114.59 143.155 114.521 143.106 114.464 143.045C114.407 142.984 114.364 142.912 114.336 142.833C114.308 142.755 114.297 142.671 114.303 142.588C114.309 142.505 114.332 142.424 114.371 142.35C114.409 142.276 114.463 142.211 114.528 142.159C114.593 142.107 114.668 142.068 114.748 142.046C114.829 142.025 114.913 142.019 114.995 142.031C115.078 142.044 115.157 142.072 115.228 142.116C124.483 146.955 136.738 146.955 145.391 146.104C151.065 145.55 156.683 144.526 162.188 143.044C162.34 143.007 162.501 143.029 162.637 143.108C162.772 143.186 162.872 143.313 162.916 143.464C162.96 143.614 162.944 143.775 162.871 143.914C162.799 144.053 162.675 144.158 162.527 144.208C156.956 145.709 151.271 146.746 145.53 147.309C142.928 147.561 140.014 147.741 136.952 147.741Z" fill="#262424"/>
<path d="M136.127 67.9993C132.079 68.265 129.78 70.9521 129.514 73.1571C129.249 75.3621 130.837 77.3893 132.337 77.8307C132.337 77.8307 133.837 73.6435 134.981 73.6435C136.125 73.6435 136.965 78.4928 136.965 78.4928C136.965 78.4928 142.387 78.4928 143.842 73.8643C144.844 70.6714 140.844 67.6907 136.127 67.9993Z" fill="white"/>
<path d="M136.965 79.0972C136.822 79.0972 136.684 79.0467 136.574 78.9545C136.465 78.8624 136.391 78.7345 136.367 78.5936C136.014 76.5514 135.364 74.5714 134.951 74.2586C134.522 74.4472 133.558 76.2129 132.907 78.0343C132.854 78.1798 132.748 78.2999 132.611 78.37C132.473 78.4401 132.313 78.4549 132.165 78.4114C130.387 77.8886 128.614 75.5722 128.912 73.0843C129.219 70.5343 131.837 67.6714 136.087 67.395C139.155 67.1936 142.119 68.3121 143.634 70.2407C144.544 71.4022 144.823 72.7522 144.418 74.0443C142.849 79.0393 137.023 79.0972 136.965 79.0972ZM134.981 73.0371C136.252 73.0371 137.023 75.5443 137.464 77.8564C138.765 77.7322 142.194 77.0829 143.263 73.6822C143.625 72.5293 143.147 71.5821 142.682 70.9907C141.427 69.3921 138.808 68.4321 136.166 68.6057C132.568 68.8414 130.363 71.1643 130.117 73.23C129.902 74.9271 130.959 76.4122 131.992 77.0207C132.654 75.3107 133.764 73.0371 134.981 73.0371Z" fill="#262424"/>
<path d="M133.483 70.6436C133.483 70.6436 133.622 72.0343 135.356 72.6943C136.248 72.6905 137.131 72.507 137.95 72.1547C138.77 71.8023 139.511 71.2884 140.128 70.6436L139.646 61.8578L138 62.1943L133.993 63.0343L133.564 69.36L133.483 70.6436Z" fill="white"/>
<path d="M135.45 73.3029H135.326C135.262 73.2999 135.199 73.2869 135.139 73.2643C133.082 72.48 132.887 70.7807 132.881 70.7079C132.878 70.6744 132.878 70.6407 132.881 70.6072L133.386 63C133.395 62.8682 133.447 62.7428 133.534 62.643C133.62 62.5432 133.737 62.4744 133.866 62.4472L139.517 61.2622C139.603 61.2441 139.691 61.2448 139.776 61.2641C139.862 61.2834 139.942 61.3208 140.011 61.374C140.08 61.4271 140.138 61.4946 140.178 61.5718C140.219 61.649 140.243 61.7342 140.248 61.8215L140.73 70.6072C140.735 70.6889 140.722 70.7708 140.694 70.8478C140.666 70.9247 140.623 70.9952 140.567 71.055C139.906 71.75 139.113 72.3065 138.234 72.6924C137.356 73.0783 136.409 73.2858 135.45 73.3029ZM134.091 70.6179C134.13 70.8129 134.359 71.625 135.474 72.0922C136.977 72.044 138.41 71.4454 139.5 70.41L139.071 62.5865L134.571 63.5336L134.091 70.6179Z" fill="#262424"/>
<path d="M133.569 69.36C138.366 68.8864 138.769 62.7686 138.769 62.7686C138.525 62.5608 138.267 62.369 137.998 62.1943L133.991 63.0343L133.569 69.36Z" fill="#262424"/>
<path d="M115.838 139.954C115.95 141.223 117.48 141.152 118.14 140.631C118.14 140.631 117.679 142.144 120.656 143.91C123.632 145.676 126.891 145.123 128.156 142.781C129.42 140.439 130.894 140.169 130.894 140.169C130.894 140.169 164.507 135.3 168.587 129.857C170.488 127.322 170.119 117.78 168.439 107.554C166.219 94.0543 161.713 79.3414 157.136 78.0129C141.891 73.5879 147.206 96.5614 151.384 110.655C153.197 116.766 154.213 120.917 154.213 120.917L127.967 134.691C127.967 134.691 121.474 132.009 120.495 131.989C119.516 131.97 115.727 138.686 115.838 139.954Z" fill="white"/>
<path d="M124.217 145.554C122.85 145.53 121.514 145.142 120.347 144.429C118.496 143.331 117.827 142.273 117.607 141.523C117.146 141.634 116.663 141.6 116.222 141.426C115.941 141.306 115.699 141.109 115.525 140.858C115.35 140.607 115.25 140.311 115.237 140.006C115.114 138.619 118.003 133.521 119.398 132.03C119.827 131.574 120.167 131.387 120.51 131.387C121.474 131.406 126.144 133.29 127.939 134.027L153.512 120.609C153.197 119.368 152.252 115.71 150.806 110.835C145.577 93.1993 144.979 82.6693 148.978 78.6493C150.836 76.7807 153.639 76.3736 157.307 77.4407C162.943 79.0757 167.334 97.0843 169.039 107.466C170.524 116.514 171.315 127.243 169.074 130.23C167.291 132.606 160.316 135.103 148.339 137.653C139.704 139.491 131.441 140.706 131.002 140.771C130.914 140.792 129.752 141.105 128.692 143.074C128.384 143.632 127.965 144.122 127.462 144.513C126.959 144.905 126.381 145.189 125.764 145.35C125.26 145.487 124.74 145.556 124.217 145.554ZM118.725 140.786C118.71 140.91 118.652 142.005 120.964 143.379C122.449 144.259 124.082 144.549 125.441 144.174C125.9 144.059 126.331 143.852 126.707 143.564C127.082 143.276 127.395 142.914 127.624 142.5C128.985 139.974 130.607 139.614 130.787 139.579H130.809C140.089 138.236 164.88 133.806 168.094 129.508C169.727 127.331 169.622 118.554 167.835 107.666C165.244 91.905 160.672 79.6843 156.96 78.6086C153.746 77.6764 151.348 77.9786 149.827 79.5086C146.22 83.1364 146.936 93.5614 151.959 110.496C153.754 116.552 154.785 120.744 154.796 120.782C154.827 120.911 154.816 121.048 154.762 121.17C154.709 121.292 154.617 121.393 154.5 121.457L128.248 135.227C128.169 135.268 128.083 135.292 127.995 135.296C127.906 135.3 127.818 135.284 127.736 135.251C124.714 134.006 121.286 132.709 120.553 132.602C119.606 133.189 116.377 138.898 116.441 139.903C116.437 139.99 116.46 140.077 116.507 140.151C116.553 140.225 116.622 140.282 116.702 140.316C116.881 140.374 117.071 140.39 117.257 140.362C117.443 140.334 117.62 140.263 117.774 140.156C117.878 140.069 118.007 140.019 118.142 140.013C118.277 140.007 118.41 140.045 118.522 140.121C118.623 140.195 118.698 140.3 118.735 140.419C118.771 140.539 118.768 140.668 118.725 140.786Z" fill="#262424"/>
<path d="M150.666 110.297L169.862 107.338C167.642 93.8379 162.647 79.7978 157.134 78.015C142.031 73.1336 146.488 96.2143 150.666 110.297Z" fill="#605DEC"/>
<path d="M150.666 110.863C150.544 110.863 150.426 110.823 150.328 110.75C150.23 110.677 150.159 110.575 150.124 110.458C147.276 100.849 143.327 83.9229 148.884 78.4993C150.797 76.6329 153.63 76.29 157.309 77.4793C163.273 79.4079 168.287 94.2622 170.421 107.248C170.444 107.396 170.406 107.546 170.318 107.666C170.23 107.787 170.097 107.867 169.95 107.891L150.754 110.85C150.725 110.857 150.696 110.861 150.666 110.863ZM153.429 77.9207C151.879 77.9207 150.626 78.3836 149.676 79.3093C144.461 84.3986 148.791 101.867 151.071 109.663L169.213 106.877C167.019 93.9772 162.156 80.2436 156.964 78.5657C155.826 78.1689 154.633 77.9513 153.429 77.9207Z" fill="#605DEC"/>
<path d="M149.775 107.766C149.642 107.766 149.512 107.722 149.407 107.642C149.301 107.561 149.225 107.447 149.19 107.319C146.456 97.2343 144.101 84.1264 148.408 78.9557C149.781 77.3057 151.731 76.5729 154.194 76.7786C154.352 76.7938 154.499 76.871 154.601 76.9934C154.703 77.1159 154.753 77.2736 154.74 77.4326C154.727 77.5916 154.651 77.7389 154.53 77.8427C154.409 77.9465 154.252 77.9984 154.093 77.9872C152.008 77.8136 150.45 78.3857 149.329 79.7336C145.146 84.7564 148.174 98.9743 150.351 107.004C150.375 107.093 150.378 107.186 150.361 107.276C150.343 107.367 150.305 107.452 150.249 107.526C150.194 107.599 150.122 107.659 150.04 107.701C149.958 107.743 149.867 107.765 149.775 107.766Z" fill="#262424"/>
<path d="M151.779 108.341C151.628 108.337 151.483 108.278 151.374 108.174C151.264 108.07 151.198 107.929 151.187 107.779C151.176 107.628 151.221 107.479 151.314 107.36C151.408 107.241 151.542 107.162 151.691 107.136L168.619 104.627C168.774 104.613 168.928 104.658 169.049 104.754C169.171 104.85 169.252 104.989 169.275 105.142C169.298 105.295 169.261 105.451 169.172 105.579C169.083 105.706 168.949 105.794 168.797 105.825L151.869 108.334C151.839 108.339 151.809 108.341 151.779 108.341Z" fill="#262424"/>
<path d="M144.514 39.3235C141.705 41.3507 145.879 47.2007 147.514 48.9814C149.149 50.7621 149.053 57.0193 153.514 58.0028C157.976 58.9864 152.503 68.7171 164.537 74.3807C173.812 78.7393 185.966 70.7378 182.464 64.4057C178.963 58.0735 167.361 57.6043 164.224 51.7628C162.229 48.0514 162.497 41.9057 155.419 41.4514C150.131 41.1171 146.732 37.7143 144.514 39.3235Z" fill="#262424"/>
<path d="M128.248 56.7107C128.248 56.7107 126.347 53.8886 124.307 54.8486C122.267 55.8086 122.953 62.6121 127.978 61.6843L128.248 56.7107Z" fill="white"/>
<path d="M127.071 62.3743C124.787 62.3743 123.429 60.795 122.912 59.16C122.329 57.3493 122.597 54.9728 124.044 54.2914C126.525 53.1257 128.655 56.2307 128.745 56.3636C128.819 56.4727 128.855 56.6028 128.848 56.7343L128.571 61.7143C128.564 61.8501 128.511 61.9795 128.421 62.0818C128.332 62.184 128.21 62.253 128.076 62.2778C127.745 62.3403 127.409 62.3726 127.071 62.3743ZM125.177 55.2578C124.963 55.2576 124.751 55.3051 124.558 55.3971C123.915 55.6971 123.568 57.2464 124.065 58.7978C124.32 59.5928 125.136 61.335 127.393 61.155L127.624 56.8993C127.286 56.4557 126.276 55.2557 125.181 55.2557L125.177 55.2578Z" fill="#262424"/>
<path d="M142.397 43.7807L143.561 43.23C143.743 43.1428 143.945 43.106 144.146 43.1233C144.348 43.1406 144.541 43.2115 144.705 43.3286C145.182 43.6537 145.58 44.0831 145.867 44.5843C146.125 45.1415 146.18 45.7713 146.023 46.365C145.989 46.5095 145.927 46.6459 145.841 46.7662C145.754 46.8865 145.644 46.9883 145.517 47.0657L144.268 47.8436C144.126 47.9324 143.965 47.9885 143.799 48.0079C143.632 48.0273 143.463 48.0095 143.304 47.9558C143.145 47.9022 143 47.8139 142.879 47.6974C142.758 47.5809 142.665 47.4391 142.605 47.2822L141.823 45.2143C141.72 44.947 141.723 44.6507 141.829 44.3849C141.935 44.1191 142.138 43.9033 142.397 43.7807Z" fill="white"/>
<path d="M126.969 57.8314C127.2 62.04 129.071 66.8978 134.162 66.7607C137.906 66.66 142.046 62.1536 142.361 56.475C142.676 50.7964 141.686 45.9236 134.846 46.2643C134.115 46.3117 133.389 46.4076 132.671 46.5514C128.704 47.4279 127.189 47.7836 126.885 55.5879C126.857 56.2714 126.924 57.0364 126.969 57.8314Z" fill="white"/>
<path d="M133.95 67.3693C128.747 67.3693 126.617 62.4857 126.364 57.8657L126.347 57.5614C126.304 56.8564 126.266 56.19 126.289 55.5579C126.587 47.6679 128.128 46.9286 132.54 45.9536C133.291 45.803 134.051 45.7028 134.816 45.6536C137.458 45.5229 139.485 46.1464 140.839 47.5071C143.044 49.725 143.134 53.4793 142.967 56.5072C142.62 62.7793 138.058 67.2664 134.181 67.3714H133.95V67.3693ZM135.516 46.8471C135.308 46.8471 135.094 46.8529 134.874 46.8643C134.177 46.9103 133.484 47.0019 132.799 47.1386C128.942 47.9957 127.776 48.2486 127.498 55.6071C127.476 56.1793 127.515 56.8179 127.554 57.4929L127.571 57.7993C127.68 59.775 128.462 66.1564 133.948 66.1564H134.143C137.486 66.0664 141.45 61.89 141.752 56.4364C141.977 52.365 141.414 49.8086 139.976 48.3621C138.966 47.3443 137.503 46.8471 135.516 46.8471Z" fill="#262424"/>
<path d="M142.53 42.8571L143.683 42.3107C143.863 42.2244 144.064 42.1881 144.263 42.2054C144.463 42.2228 144.654 42.2931 144.817 42.4093C145.289 42.7311 145.683 43.156 145.967 43.6521C146.222 44.2041 146.277 44.8278 146.122 45.4157C146.088 45.5587 146.027 45.6937 145.941 45.8129C145.856 45.932 145.747 46.033 145.622 46.11L144.384 46.8814C144.242 46.9695 144.084 47.0251 143.918 47.0443C143.753 47.0636 143.586 47.0459 143.428 46.9926C143.27 46.9393 143.127 46.8517 143.007 46.7362C142.887 46.6206 142.795 46.4799 142.736 46.3243L141.958 44.2693C141.859 44.005 141.863 43.7132 141.969 43.4516C142.075 43.19 142.275 42.9778 142.53 42.8571Z" fill="white"/>
<path d="M140.706 55.9886C140.028 55.7269 139.433 55.287 138.984 54.7153C138.534 54.1435 138.248 53.4611 138.154 52.74C138.081 52.2514 138.034 51.5936 137.893 51C135.024 54 129.604 55.83 127.245 56.5136C126.876 56.6277 126.48 56.6224 126.113 56.4985C125.747 56.3746 125.429 56.1385 125.205 55.8236C122.449 51.7522 125.734 43.9586 131.014 44.1086C137.014 39.9579 144.011 42.975 145.009 48.0386C146.117 53.6529 142.397 56.6936 140.706 55.9886Z" fill="#262424"/>
<path d="M140.612 56.7107C140.612 56.7107 143.374 53.8586 146.28 54.7822C149.186 55.7057 147.497 62.4836 140.319 61.6393L140.612 56.7107Z" fill="white"/>
<path d="M141.527 62.3164C141.098 62.3162 140.668 62.2904 140.242 62.2393C140.083 62.219 139.939 62.1368 139.84 62.0107C139.742 61.8846 139.697 61.7248 139.716 61.5659C139.735 61.4071 139.816 61.2622 139.941 61.1628C140.067 61.0633 140.226 61.0174 140.385 61.035C144.274 61.4957 146.514 59.5457 146.949 57.54C147.127 56.7193 147.009 55.6585 146.092 55.365C143.572 54.5593 141.069 57.1071 141.043 57.1328C140.989 57.1954 140.923 57.2463 140.849 57.2824C140.774 57.3185 140.694 57.339 140.611 57.3428C140.529 57.3465 140.446 57.3333 140.369 57.3041C140.292 57.2748 140.221 57.2301 140.162 57.1727C140.102 57.1152 140.056 57.0463 140.024 56.97C139.992 56.8938 139.976 56.8119 139.977 56.7293C139.978 56.6467 139.996 56.5652 140.03 56.4898C140.064 56.4144 140.112 56.3466 140.173 56.2907C140.297 56.1621 143.233 53.1793 146.462 54.2121C147.834 54.6407 148.507 56.0914 148.136 57.7993C147.643 60.0793 145.387 62.3164 141.527 62.3164Z" fill="#262424"/>
<path d="M120.621 145.813H76.2515C75.8543 145.813 75.469 145.677 75.1596 145.428C74.8501 145.179 74.6351 144.832 74.5501 144.444L68.5865 117.33C68.5304 117.075 68.5321 116.812 68.5915 116.558C68.651 116.304 68.7666 116.067 68.9298 115.864C69.0931 115.66 69.2999 115.497 69.5349 115.384C69.77 115.271 70.0273 115.213 70.2879 115.213H114.658C115.053 115.213 115.437 115.347 115.746 115.594C116.055 115.841 116.27 116.186 116.357 116.571L122.321 143.685C122.379 143.94 122.378 144.205 122.32 144.46C122.262 144.715 122.146 144.953 121.983 145.158C121.82 145.362 121.613 145.527 121.377 145.641C121.141 145.754 120.883 145.813 120.621 145.813Z" fill="white"/>
<path d="M120.621 146.419H76.2515C75.7163 146.418 75.1975 146.235 74.7804 145.899C74.3633 145.564 74.0728 145.097 73.9565 144.574L67.995 117.461C67.9211 117.118 67.9245 116.763 68.0051 116.422C68.0857 116.081 68.2414 115.762 68.4608 115.488C68.6803 115.215 68.958 114.994 69.2737 114.841C69.5894 114.689 69.9351 114.608 70.2858 114.606H114.658C115.193 114.608 115.712 114.791 116.129 115.126C116.546 115.462 116.837 115.929 116.953 116.451L122.914 143.571C122.987 143.914 122.983 144.268 122.902 144.609C122.82 144.949 122.664 145.268 122.445 145.54C122.225 145.813 121.948 146.034 121.632 146.186C121.317 146.338 120.972 146.417 120.621 146.419ZM70.2858 115.817C70.1157 115.817 69.9479 115.856 69.7945 115.929C69.6412 116.003 69.5064 116.11 69.3999 116.243C69.2934 116.375 69.218 116.53 69.1792 116.695C69.1404 116.861 69.1393 117.033 69.1758 117.199L75.1393 144.313C75.196 144.565 75.3367 144.791 75.5383 144.954C75.7399 145.116 75.9905 145.205 76.2493 145.206H120.621C120.792 145.206 120.959 145.168 121.113 145.094C121.266 145.021 121.401 144.914 121.507 144.781C121.614 144.648 121.689 144.494 121.728 144.328C121.767 144.163 121.768 143.99 121.731 143.824L115.768 116.711C115.711 116.458 115.571 116.232 115.369 116.07C115.167 115.908 114.917 115.819 114.658 115.817H70.2858Z" fill="#262424"/>
<path d="M117.786 145.813H73.4185C73.0213 145.813 72.636 145.677 72.3266 145.428C72.0171 145.179 71.8021 144.832 71.7171 144.444L65.7535 117.33C65.6974 117.075 65.6991 116.812 65.7585 116.558C65.8179 116.304 65.9335 116.067 66.0968 115.864C66.2601 115.66 66.4669 115.497 66.7019 115.384C66.9369 115.271 67.1943 115.213 67.4549 115.213H111.825C112.222 115.213 112.607 115.349 112.917 115.598C113.226 115.847 113.441 116.194 113.526 116.582L119.49 143.696C119.546 143.95 119.544 144.214 119.485 144.468C119.425 144.722 119.309 144.96 119.146 145.163C118.982 145.366 118.775 145.53 118.54 145.642C118.305 145.755 118.047 145.813 117.786 145.813Z" fill="white"/>
<path d="M117.787 146.419H73.4187C72.8835 146.418 72.3647 146.235 71.9476 145.899C71.5305 145.564 71.2399 145.097 71.1237 144.574L65.1601 117.461C65.0861 117.118 65.0896 116.762 65.1704 116.421C65.2512 116.079 65.4073 115.76 65.6272 115.487C65.8472 115.213 66.1254 114.992 66.4416 114.84C66.7579 114.688 67.1041 114.608 67.4551 114.606H111.825C112.36 114.608 112.879 114.791 113.296 115.126C113.713 115.462 114.004 115.929 114.12 116.451L120.082 143.571C120.154 143.914 120.15 144.269 120.069 144.609C119.987 144.95 119.831 145.268 119.611 145.541C119.392 145.814 119.114 146.034 118.798 146.186C118.482 146.338 118.137 146.418 117.787 146.419ZM67.4551 115.817C67.285 115.817 67.1172 115.856 66.9639 115.929C66.8106 116.003 66.6757 116.11 66.5692 116.243C66.4627 116.375 66.3873 116.53 66.3485 116.695C66.3098 116.861 66.3086 117.033 66.3451 117.199L72.3087 144.313C72.3654 144.565 72.506 144.791 72.7076 144.954C72.9092 145.116 73.1598 145.205 73.4187 145.206H117.787C117.957 145.206 118.124 145.168 118.278 145.094C118.431 145.021 118.566 144.914 118.672 144.781C118.779 144.648 118.854 144.494 118.893 144.328C118.932 144.163 118.933 143.99 118.896 143.824L112.929 116.711C112.872 116.458 112.731 116.232 112.53 116.07C112.328 115.908 112.077 115.819 111.819 115.817H67.4551Z" fill="#262424"/>
<path d="M146.638 145.813H117.334C116.517 145.813 115.854 146.476 115.854 147.294V148.519C115.854 149.337 116.517 150 117.334 150H146.638C147.456 150 148.119 149.337 148.119 148.519V147.294C148.119 146.476 147.456 145.813 146.638 145.813Z" fill="white"/>
<path d="M146.638 150.606H117.336C116.783 150.606 116.252 150.386 115.861 149.994C115.47 149.603 115.25 149.073 115.249 148.519V147.294C115.25 146.74 115.47 146.21 115.861 145.818C116.252 145.427 116.783 145.207 117.336 145.206H146.638C147.191 145.207 147.722 145.427 148.113 145.818C148.504 146.21 148.724 146.74 148.725 147.294V148.519C148.724 149.073 148.504 149.603 148.113 149.994C147.722 150.386 147.191 150.606 146.638 150.606ZM117.336 146.419C117.105 146.42 116.883 146.512 116.719 146.676C116.555 146.84 116.463 147.062 116.462 147.294V148.519C116.463 148.751 116.555 148.973 116.719 149.137C116.883 149.301 117.105 149.393 117.336 149.394H146.638C146.87 149.393 147.092 149.301 147.255 149.137C147.419 148.973 147.512 148.751 147.512 148.519V147.294C147.512 147.062 147.419 146.84 147.255 146.676C147.092 146.512 146.87 146.42 146.638 146.419H117.336Z" fill="#262424"/>
<path d="M121.307 145.813H77.7321C76.9143 145.813 76.2513 146.476 76.2513 147.294V148.519C76.2513 149.337 76.9143 150 77.7321 150H121.307C122.125 150 122.788 149.337 122.788 148.519V147.294C122.788 146.476 122.125 145.813 121.307 145.813Z" fill="white"/>
<path d="M121.307 150.606H77.7322C77.1788 150.606 76.6482 150.386 76.257 149.994C75.8657 149.603 75.6456 149.073 75.645 148.519V147.294C75.6456 146.74 75.8657 146.21 76.257 145.818C76.6482 145.427 77.1788 145.207 77.7322 145.206H121.307C121.861 145.207 122.391 145.427 122.782 145.818C123.174 146.21 123.394 146.74 123.394 147.294V148.519C123.394 149.073 123.174 149.603 122.782 149.994C122.391 150.386 121.861 150.606 121.307 150.606ZM77.7322 146.419C77.5005 146.42 77.2784 146.512 77.1146 146.676C76.9507 146.84 76.8584 147.062 76.8579 147.294V148.519C76.8584 148.751 76.9507 148.973 77.1146 149.137C77.2784 149.301 77.5005 149.393 77.7322 149.394H121.307C121.539 149.393 121.761 149.301 121.925 149.137C122.089 148.973 122.181 148.751 122.181 148.519V147.294C122.181 147.062 122.089 146.84 121.925 146.676C121.761 146.512 121.539 146.42 121.307 146.419H77.7322Z" fill="#262424"/>
<path d="M169.427 145.569C165.825 145.712 162.396 147.147 159.766 149.613C157.136 152.078 155.481 155.407 155.105 158.992C154.729 162.577 155.657 166.178 157.718 169.135C159.78 172.092 162.837 174.208 166.331 175.095C166.77 175.201 167.229 175.206 167.67 175.109C168.112 175.012 168.526 174.816 168.881 174.536C169.236 174.255 169.523 173.897 169.719 173.49C169.915 173.082 170.016 172.635 170.014 172.183C170.02 171.522 169.805 170.879 169.404 170.354C169.003 169.829 168.438 169.453 167.798 169.286C166.162 168.871 164.675 168.006 163.507 166.788C162.338 165.57 161.535 164.049 161.189 162.397C160.843 160.745 160.967 159.029 161.548 157.444C162.129 155.86 163.143 154.47 164.474 153.433C165.806 152.396 167.402 151.754 169.081 151.58C170.76 151.406 172.454 151.706 173.97 152.447C175.487 153.188 176.765 154.34 177.659 155.772C178.553 157.203 179.027 158.857 179.027 160.545H185.01C185.008 158.527 184.599 156.53 183.808 154.674C183.017 152.818 181.859 151.141 180.404 149.742C178.949 148.344 177.227 147.254 175.341 146.537C173.455 145.819 171.443 145.49 169.427 145.569Z" fill="white"/>
<path d="M167.049 175.789C166.759 175.788 166.472 175.751 166.191 175.68C162.556 174.758 159.374 172.558 157.228 169.482C155.082 166.406 154.116 162.66 154.506 158.93C154.896 155.2 156.617 151.735 159.353 149.17C162.09 146.605 165.658 145.111 169.406 144.962L169.429 145.569L169.406 144.962C171.504 144.88 173.598 145.223 175.561 145.969C177.524 146.716 179.317 147.851 180.83 149.307C182.344 150.763 183.549 152.51 184.372 154.442C185.194 156.375 185.618 158.453 185.619 160.554C185.619 160.714 185.555 160.869 185.441 160.982C185.327 161.096 185.173 161.16 185.012 161.16H179.025C178.864 161.16 178.71 161.096 178.596 160.982C178.482 160.869 178.419 160.714 178.419 160.554C178.426 158.365 177.579 156.26 176.059 154.686C174.539 153.111 172.464 152.192 170.277 152.123C168.089 152.054 165.961 152.841 164.345 154.317C162.728 155.792 161.751 157.84 161.621 160.024C161.499 161.981 162.065 163.919 163.219 165.504C164.373 167.089 166.044 168.222 167.944 168.707C168.786 168.932 169.518 169.454 170.004 170.177C170.49 170.9 170.698 171.775 170.588 172.639C170.479 173.504 170.06 174.299 169.409 174.878C168.758 175.457 167.92 175.781 167.049 175.789ZM170.019 146.164C169.83 146.164 169.641 146.168 169.451 146.175C165.992 146.309 162.698 147.684 160.171 150.05C157.645 152.415 156.055 155.612 155.694 159.054C155.333 162.496 156.224 165.953 158.205 168.792C160.186 171.63 163.123 173.659 166.479 174.508C166.823 174.595 167.182 174.601 167.529 174.527C167.876 174.453 168.202 174.299 168.48 174.079C168.77 173.855 169.004 173.568 169.165 173.239C169.326 172.91 169.409 172.549 169.408 172.183C169.412 171.659 169.242 171.148 168.924 170.732C168.605 170.315 168.157 170.017 167.651 169.884C165.929 169.448 164.362 168.544 163.123 167.273C161.883 166.001 161.02 164.412 160.628 162.68C160.236 160.948 160.331 159.141 160.902 157.46C161.474 155.779 162.499 154.289 163.865 153.154C165.231 152.02 166.885 151.286 168.642 151.033C170.4 150.78 172.193 151.019 173.824 151.722C175.454 152.426 176.858 153.567 177.88 155.019C178.902 156.471 179.502 158.177 179.614 159.949H184.393C184.236 156.242 182.653 152.738 179.975 150.169C177.296 147.601 173.729 146.166 170.019 146.164Z" fill="#262424"/>
<path d="M204.958 145.569C201.356 145.711 197.926 147.146 195.295 149.611C192.664 152.075 191.009 155.405 190.633 158.99C190.256 162.575 191.183 166.176 193.245 169.134C195.306 172.091 198.363 174.207 201.857 175.095C202.297 175.201 202.755 175.206 203.197 175.109C203.639 175.012 204.053 174.816 204.408 174.536C204.763 174.255 205.049 173.897 205.245 173.49C205.442 173.082 205.543 172.635 205.541 172.183C205.547 171.523 205.333 170.88 204.932 170.355C204.532 169.83 203.968 169.454 203.329 169.286C201.693 168.871 200.206 168.006 199.038 166.788C197.869 165.57 197.066 164.049 196.72 162.397C196.373 160.745 196.498 159.029 197.079 157.444C197.659 155.86 198.673 154.47 200.005 153.433C201.337 152.396 202.933 151.754 204.612 151.58C206.291 151.406 207.985 151.706 209.501 152.447C211.018 153.188 212.296 154.34 213.189 155.772C214.083 157.203 214.558 158.857 214.558 160.545H220.541C220.539 158.527 220.13 156.53 219.339 154.674C218.547 152.818 217.39 151.141 215.935 149.742C214.48 148.344 212.758 147.254 210.872 146.537C208.986 145.819 206.974 145.49 204.958 145.569Z" fill="white"/>
<path d="M202.581 175.789C202.292 175.788 202.005 175.751 201.724 175.68C198.089 174.758 194.907 172.558 192.761 169.482C190.615 166.406 189.649 162.66 190.039 158.93C190.429 155.2 192.15 151.735 194.886 149.17C197.622 146.605 201.191 145.111 204.939 144.962C207.037 144.881 209.129 145.225 211.092 145.972C213.054 146.719 214.845 147.855 216.358 149.31C217.871 150.766 219.074 152.512 219.897 154.444C220.719 156.376 221.143 158.454 221.143 160.554C221.143 160.714 221.079 160.869 220.965 160.982C220.852 161.096 220.697 161.16 220.536 161.16H214.554C214.393 161.16 214.239 161.096 214.125 160.982C214.011 160.869 213.947 160.714 213.947 160.554C213.954 158.365 213.108 156.26 211.588 154.686C210.067 153.111 207.993 152.192 205.806 152.123C203.618 152.054 201.49 152.841 199.874 154.317C198.257 155.792 197.28 157.84 197.149 160.024C197.028 161.981 197.593 163.919 198.748 165.504C199.902 167.089 201.573 168.222 203.473 168.707C204.314 168.932 205.046 169.454 205.532 170.176C206.018 170.899 206.226 171.773 206.118 172.637C206.009 173.501 205.591 174.297 204.94 174.876C204.29 175.456 203.452 175.78 202.581 175.789ZM204.981 146.173C201.523 146.307 198.229 147.683 195.703 150.049C193.177 152.414 191.587 155.611 191.227 159.053C190.866 162.495 191.757 165.952 193.738 168.79C195.719 171.628 198.656 173.657 202.011 174.506C202.355 174.592 202.714 174.599 203.061 174.524C203.408 174.45 203.733 174.297 204.011 174.077C204.3 173.853 204.535 173.566 204.696 173.237C204.856 172.908 204.94 172.547 204.939 172.181C204.943 171.657 204.773 171.146 204.454 170.73C204.136 170.313 203.688 170.015 203.181 169.881C201.46 169.446 199.892 168.543 198.653 167.271C197.413 166 196.549 164.41 196.157 162.679C195.765 160.947 195.859 159.14 196.431 157.459C197.002 155.777 198.027 154.287 199.393 153.152C200.759 152.018 202.413 151.283 204.171 151.03C205.928 150.777 207.722 151.016 209.352 151.719C210.983 152.423 212.387 153.564 213.409 155.016C214.431 156.468 215.031 158.175 215.143 159.947H219.921C219.761 156.141 218.098 152.554 215.297 149.972C212.496 147.39 208.786 146.024 204.979 146.173H204.981Z" fill="#262424"/>
<path d="M65.7108 77.3914C66.686 77.3914 67.4765 76.6009 67.4765 75.6257C67.4765 74.6505 66.686 73.86 65.7108 73.86C64.7356 73.86 63.9451 74.6505 63.9451 75.6257C63.9451 76.6009 64.7356 77.3914 65.7108 77.3914Z" fill="#605DEC"/>
<path d="M68.5457 233.031L69.2143 234.857C69.4203 235.422 69.7472 235.934 70.1721 236.359C70.597 236.784 71.1097 237.111 71.6743 237.317L73.4893 237.979L71.6743 238.641C71.1106 238.846 70.5984 239.172 70.1736 239.595C69.7487 240.019 69.4213 240.53 69.2143 241.093L68.5521 242.908L67.89 241.093C67.684 240.528 67.3571 240.016 66.9322 239.591C66.5072 239.166 65.9945 238.839 65.43 238.633L63.615 237.971L65.43 237.309C65.9925 237.103 66.5034 236.777 66.9271 236.353C67.3508 235.93 67.6772 235.419 67.8836 234.857L68.5457 233.031Z" fill="#87BFC1"/>
<path d="M85.3029 45.0943L85.965 46.9093C86.171 47.4738 86.4979 47.9865 86.9229 48.4115C87.3478 48.8364 87.8605 49.1633 88.425 49.3693L90.24 50.0314L88.425 50.6936C87.8605 50.8995 87.3478 51.2264 86.9229 51.6514C86.4979 52.0763 86.171 52.589 85.965 53.1536L85.3029 54.9686L84.6429 53.1557C84.4369 52.5912 84.11 52.0785 83.6851 51.6535C83.2601 51.2286 82.7474 50.9017 82.1829 50.6957L80.3572 50.0336L82.1722 49.3714C82.7389 49.1665 83.2539 48.8399 83.6807 48.4145C84.1076 47.9891 84.436 47.4753 84.6429 46.9093L85.3029 45.0943Z" fill="#87BFC1"/>
<path d="M268.984 178.427L269.949 181.074C270.248 181.897 270.725 182.644 271.344 183.263C271.963 183.883 272.711 184.359 273.534 184.659L276.18 185.623L273.534 186.587C272.711 186.887 271.963 187.363 271.344 187.982C270.725 188.602 270.248 189.349 269.949 190.172L268.984 192.819L268.02 190.172C267.719 189.349 267.242 188.601 266.622 187.982C266.001 187.363 265.253 186.888 264.429 186.589L261.782 185.625L264.429 184.661C265.253 184.361 266.002 183.885 266.623 183.265C267.243 182.645 267.72 181.896 268.02 181.071L268.984 178.427Z" fill="#605DEC"/>
</svg>
