<svg width="1880" height="900" viewBox="0 0 1880 900" fill="none" xmlns="http://www.w3.org/2000/svg">
<g clip-path="url(#clip0_710:1281)">
<path d="M1880 0H0V900H1880V0Z" fill="#F1F2F6"/>
<path opacity="0.5" d="M2287.73 647.16C2304.28 705.111 2265.74 757.341 2205.34 758.83L1954.03 765.025C1903.45 766.271 1854.76 731.038 1840.16 682.621L1743.04 360.559C1725.18 301.343 1765.05 247.67 1827.1 247.394L2085.02 246.247C2135.54 246.022 2183.42 281.826 2197.21 330.145L2287.73 647.16Z" fill="#13d5b1"/>
<path opacity="0.5" d="M2261.26 500.705C2299.97 546.152 2292.52 618.127 2245.34 654.544L2056.82 800.068C2017.34 830.542 1963.28 825.285 1930.37 787.772L1705.65 531.62C1665.37 485.701 1673.29 411.57 1722.34 375.386L1918.27 230.86C1958.13 201.458 2011.74 207.724 2043.96 245.55L2261.26 500.705Z" fill="#13d5b1"/>
</g>
<defs>
<clipPath id="clip0_710:1281">
<rect width="1880" height="900" fill="white"/>
</clipPath>
</defs>
</svg>
