<svg width="1880" height="900" viewBox="0 0 1880 900" fill="none" xmlns="http://www.w3.org/2000/svg">
<g clip-path="url(#clip0)">
<rect width="1880" height="900" fill="#F1F2F6"/>
<path d="M-365.386 293.228C-368.844 233.525 -319.475 184.156 -259.772 187.614L58.7963 206.064C108.798 208.96 148.945 248.4 152.729 298.342L177.329 623.06C181.954 684.116 131.116 734.954 70.0602 730.329L-254.658 705.729C-304.6 701.945 -344.04 661.798 -346.936 611.796L-365.386 293.228Z" fill="#605DEC" fill-opacity="0.5"/>
<path d="M-372.324 441.841C-405.169 391.866 -387.099 324.426 -333.666 297.569L-48.5531 154.263C-3.80232 131.77 50.6863 145.853 78.9341 187.213L262.597 456.127C297.131 506.69 278.523 576.136 223.334 602.658L-70.1796 743.713C-115.323 765.408 -169.553 750.359 -197.061 708.504L-372.324 441.841Z" fill="#605DEC" fill-opacity="0.5"/>
</g>
<defs>
<clipPath id="clip0">
<rect width="1880" height="900" fill="white"/>
</clipPath>
</defs>
</svg>
