<svg width="1880" height="706" viewBox="0 0 1880 706" fill="none" xmlns="http://www.w3.org/2000/svg">
<g clip-path="url(#clip0)">
<rect width="1880" height="706" fill="#F1F2F6"/>
<path d="M-284.451 258.88C-287.753 202.094 -240.807 155.125 -184.02 158.4L86.9711 174.029C134.528 176.772 172.722 214.273 176.335 261.771L197.2 536.045C201.618 594.117 153.279 642.486 95.2045 638.105L-181.004 617.267C-228.51 613.683 -266.037 575.505 -268.803 527.944L-284.451 258.88Z" fill="#605DEC" fill-opacity="0.5"/>
<path d="M-285.749 389.742C-316.991 342.208 -299.803 278.063 -248.98 252.518L-7.51492 131.151C35.0496 109.756 86.8762 123.151 113.744 162.49L269.29 390.237C302.137 438.33 284.438 504.383 231.946 529.609L-16.6346 649.07C-59.5724 669.705 -111.153 655.392 -137.318 615.582L-285.749 389.742Z" fill="#605DEC" fill-opacity="0.5"/>
<path d="M1773.9 386.169C1771.18 333.036 1815.41 289.421 1868.5 292.895L1986.69 300.629C2031.17 303.539 2066.61 338.931 2069.6 383.403L2080.28 542.78C2083.93 597.14 2038.27 641.962 1983.99 637.316L1863.15 626.973C1818.89 623.184 1784.21 587.304 1781.94 542.936L1773.9 386.169Z" fill="#605DEC" fill-opacity="0.5"/>
<path d="M1783.36 480.044C1756.88 434.292 1773.91 371.14 1819.78 344.957L1930.07 282.01C1968.5 260.07 2014.23 271.981 2037.02 309.869L2114.06 437.97C2141.91 484.269 2124.31 549.285 2076.93 575.139L1963.23 637.191C1924.52 658.313 1879.14 645.521 1856.99 607.25L1783.36 480.044Z" fill="#605DEC" fill-opacity="0.5"/>
</g>
<defs>
<clipPath id="clip0">
<rect width="1880" height="706" fill="white"/>
</clipPath>
</defs>
</svg>
