<svg width="28" height="29" viewBox="0 0 28 29" fill="none" xmlns="http://www.w3.org/2000/svg">
<path d="M19.4188 9.08744C19.4188 8.94994 19.3063 8.83744 19.1688 8.83744L17.1063 8.84682L14 12.5499L10.8969 8.84994L8.83128 8.84057C8.69378 8.84057 8.58128 8.94994 8.58128 9.09057C8.58128 9.14994 8.60315 9.20619 8.64065 9.25307L12.7063 14.0968L8.64065 18.9374C8.60289 18.9832 8.58194 19.0406 8.58128 19.0999C8.58128 19.2374 8.69378 19.3499 8.83128 19.3499L10.8969 19.3406L14 15.6374L17.1031 19.3374L19.1656 19.3468C19.3031 19.3468 19.4156 19.2374 19.4156 19.0968C19.4156 19.0374 19.3938 18.9812 19.3563 18.9343L15.2969 14.0937L19.3625 9.24994C19.4 9.20619 19.4188 9.14682 19.4188 9.08744Z" fill="white"/>
<path d="M14 0.03125C6.26875 0.03125 0 6.3 0 14.0312C0 21.7625 6.26875 28.0312 14 28.0312C21.7312 28.0312 28 21.7625 28 14.0312C28 6.3 21.7312 0.03125 14 0.03125ZM14 25.6562C7.58125 25.6562 2.375 20.45 2.375 14.0312C2.375 7.6125 7.58125 2.40625 14 2.40625C20.4187 2.40625 25.625 7.6125 25.625 14.0312C25.625 20.45 20.4187 25.6562 14 25.6562Z" fill="white"/>
</svg>
