<svg width="91" height="58" viewBox="0 0 91 58" fill="none" xmlns="http://www.w3.org/2000/svg">
<path d="M25.7397 28.8926C25.0837 30.0654 26.0172 31.4292 28.1617 36.5568C31.4414 44.3845 31.29 46.1847 30.7602 47.3847C29.8772 49.3485 27.9851 49.594 28.1617 50.5486C28.4139 51.9396 32.5767 53.0033 34.04 51.285C34.6959 50.5213 34.595 49.4576 34.3932 47.3575C33.485 38.6569 33.3084 38.0296 33.0056 35.384C32.4758 30.6928 32.7533 29.4927 31.618 28.4563C29.9277 27.0107 26.6479 27.3107 25.7397 28.8926Z" fill="#161616" stroke="#161616" stroke-width="3" stroke-miterlimit="10"/>
<path d="M64.9958 27.6925C66.8879 26.2469 70.1929 27.7743 71.9085 29.5744C73.3465 31.0472 73.0186 32.0291 74.6837 33.311C75.0621 33.611 76.8029 34.9475 78.9978 34.8111C80.6881 34.702 81.0161 33.802 82.2775 34.0747C83.1606 34.2383 83.539 34.7838 85.2293 36.5021C87.8784 39.2296 88.8623 39.8569 88.6857 40.2387C88.5091 40.5933 87.6765 40.4024 84.0183 39.8569C81.3441 39.4478 79.9565 39.2569 78.9978 39.2023C76.8029 39.0932 76.702 39.3932 73.4727 39.4751C70.1424 39.5842 68.4521 39.5841 67.2411 38.9023C64.5416 37.3749 63.8353 33.9929 63.7848 33.6656C63.7091 33.2292 62.9775 29.2199 64.9958 27.6925Z" fill="#161616" stroke="#161616" stroke-width="3" stroke-miterlimit="10"/>
<path d="M28.3382 17.3009C29.9781 17.3555 30.6845 19.4284 32.1478 21.2285C35.9574 25.9742 42.5926 26.1379 48.042 26.2742C58.3354 26.5197 61.1105 22.2922 66.0302 25.156C68.7296 26.7379 71.2778 29.9836 71.2273 33.5565C71.1516 38.2205 66.6357 41.5207 63.4568 42.7207C60.6312 43.7844 59.0922 43.1299 51.347 41.6025C38.8839 39.1205 36.4115 39.5024 31.6432 36.5567C28.9185 34.8657 26.4713 32.711 24.9071 29.4654C24.2511 28.1016 23.2168 25.8379 23.6961 23.1104C24.1755 20.2466 26.2947 17.2191 28.3382 17.3009Z" fill="#161616" stroke="#161616" stroke-width="3" stroke-miterlimit="10"/>
<path d="M64.6427 25.3472C65.1725 24.5563 67.2665 26.5473 69.4866 25.5381C71.3788 24.6654 72.2366 22.1288 72.7664 20.4924C73.7503 17.574 73.0943 16.5376 74.154 15.4466C75.1631 14.3829 76.0461 15.0647 78.9979 14.1374C80.991 13.5101 82.6056 13.0192 83.4886 11.5191C84.1951 10.319 83.6905 9.71895 84.1698 6.66421C84.3212 5.73688 84.9015 2.02756 85.734 2.00028C86.3395 1.97301 87.0712 3.93677 87.1216 5.73689C87.1468 6.4733 87.0459 6.9915 86.0872 10.4008C85.4817 12.5282 85.179 13.5919 85.0528 13.7556C83.8166 15.4193 82.1767 14.6011 78.9979 16.183C77.4589 16.9467 75.9704 17.6831 75.1883 19.3468C74.4819 20.8742 75.0874 21.5561 74.3306 23.8199C73.6241 25.8927 72.4889 27.1201 72.2618 27.3655C71.4292 28.2656 69.7389 30.0384 67.771 29.602C65.5509 29.1656 64.1129 26.1382 64.6427 25.3472Z" fill="#161616" stroke="#161616" stroke-width="3" stroke-miterlimit="10"/>
<path d="M58.7642 38.248C58.4614 38.9026 57.6036 40.7846 57.9064 43.1029C58.2091 45.4758 59.5715 47.5213 60.505 48.8851C61.7916 50.8216 62.5485 51.2307 62.3971 52.0489C62.1196 53.849 58.3857 53.9854 58.411 54.8582C58.4614 55.731 62.2457 56.1674 65.1471 55.9764C67.3167 55.8401 67.8213 55.4309 68.0989 55.0491C68.7043 54.1218 68.0232 53.0308 67.7456 50.5761C67.5438 48.8305 67.6952 47.6032 67.9222 45.5303C68.3007 42.121 68.9062 41.9028 69.1332 39.3663C69.3098 37.348 69.6126 33.9932 68.0989 32.8204C66.0301 31.2385 60.7572 33.9932 58.7642 38.248Z" fill="#161616" stroke="#161616" stroke-width="3" stroke-miterlimit="10"/>
<path d="M7.42352 21.0376C7.82718 23.2468 10.0473 24.6378 13.3018 26.0834C16.7582 27.638 26.547 32.0019 28.3383 29.0836C28.7924 28.3472 28.641 27.3107 28.3383 26.6561C27.5814 25.1015 25.5126 25.2651 21.9301 24.6106C18.8017 24.0378 15.9004 23.5196 12.9487 21.8013C10.2239 20.2466 8.60926 18.3647 7.75148 18.992C7.14599 19.4557 7.39829 20.9012 7.42352 21.0376Z" fill="#161616" stroke="#161616" stroke-width="3" stroke-miterlimit="10"/>
<path d="M3.48802 11.41C4.27011 12.8282 5.22879 14.1101 6.36409 15.2556C6.71729 15.6102 7.24712 15.0375 6.89392 14.6829C5.80908 13.5919 4.90083 12.3646 4.14396 11.0008C3.89167 10.5372 3.23573 10.9463 3.48802 11.41Z" fill="#161616"/>
<path d="M0.233464 13.4552C1.01556 14.4916 2.02471 15.228 3.16001 15.6644C3.61413 15.8553 3.81597 15.0644 3.36185 14.8735C2.32747 14.4644 1.44444 13.7825 0.763264 12.8824C0.460518 12.4733 -0.0692828 13.0461 0.233464 13.4552Z" fill="#161616"/>
<path d="M0.359512 18.8287C1.06592 18.9105 1.77233 18.965 2.50397 19.0468C2.98331 19.1014 2.98331 18.2832 2.50397 18.2286C1.79756 18.1468 1.09115 18.0922 0.359512 18.0104C-0.119837 17.9559 -0.119837 18.7741 0.359512 18.8287Z" fill="#161616"/>
<path d="M21.0723 13.3734C20.1893 13.7552 18.8017 14.4644 17.4394 15.8008C16.2788 16.9463 15.1688 18.0373 15.0174 19.5374C14.7399 22.2649 17.8178 24.8559 20.2145 25.8924C20.6434 26.0833 25.7144 28.1562 28.5148 24.965C30.407 22.7831 29.9781 19.6738 29.9024 19.1829C29.3222 15.119 25.9415 13.2098 25.5883 13.0188C24.7305 11.7642 23.8475 10.5369 22.9897 9.28223C22.359 10.6459 21.7283 12.0097 21.0723 13.3734Z" fill="#161616" stroke="#161616" stroke-width="3" stroke-miterlimit="10"/>
<path d="M18.7259 17.0555C19.1043 18.2283 20.1135 19.0192 21.274 18.992C21.7534 18.9647 21.7534 18.1464 21.274 18.1737C20.4667 18.201 19.7098 17.6555 19.4575 16.8373C19.2809 16.3463 18.5493 16.5645 18.7259 17.0555Z" fill="white"/>
<path d="M15.0424 18.9921C15.2695 18.9921 15.3704 19.0739 15.3956 19.2648C15.32 19.3466 15.2695 19.4557 15.1938 19.5375C15.0424 19.5921 15.0172 19.5103 14.9668 19.4557C14.9415 19.4284 14.9667 19.4012 14.9415 19.4285C14.9163 19.4557 14.9163 19.5375 14.8911 19.5921C15.0424 19.5103 15.1938 19.4012 15.3452 19.3194C15.3704 19.3466 15.3704 19.3466 15.3452 19.3194C15.3704 19.3194 15.3704 19.3466 15.3704 19.3466C15.3956 19.3739 15.3704 19.3739 15.3704 19.3194C15.3956 19.3466 15.3956 19.3466 15.3704 19.3194C15.3452 19.1012 15.0929 18.9921 14.9163 19.0466C14.7145 19.1012 14.6135 19.3193 14.664 19.5375C14.7145 19.8103 14.9163 20.0285 15.1686 20.1103C15.3704 20.1921 15.547 20.0285 15.6227 19.8376C15.7236 19.5921 15.7488 19.3194 15.6227 19.1012C15.4966 18.8557 15.219 18.7193 14.9668 18.8011C14.7145 18.883 14.5883 19.183 14.6388 19.4557C14.7145 19.7285 14.9668 19.9194 15.219 19.8376C15.4209 19.783 15.547 19.5648 15.4713 19.3466C15.4461 19.0739 15.2443 18.9375 15.0424 18.9921Z" fill="white"/>
<path d="M14.8913 19.701C15.2697 21.092 16.7834 21.7739 17.944 21.1193C18.3728 20.8738 17.9944 20.1647 17.5655 20.4102C16.8087 20.8193 15.85 20.3283 15.6229 19.4828C15.4968 18.9646 14.7651 19.1828 14.8913 19.701Z" fill="white"/>
</svg>
