<svg width="355" height="327" viewBox="0 0 355 327" fill="none" xmlns="http://www.w3.org/2000/svg">
<path d="M329.923 271.411C301.046 271.411 272.168 271.411 243.291 271.411C214.508 271.411 185.725 271.411 156.974 271.411C140.706 271.411 124.408 271.411 108.14 271.411C107.541 271.411 107.541 270.466 108.14 270.466C137.018 270.466 165.895 270.466 194.773 270.466C223.556 270.466 252.339 270.466 281.09 270.466C297.357 270.466 313.656 270.466 329.923 270.466C330.522 270.466 330.522 271.411 329.923 271.411Z" fill="#E8E8E8"/>
<path d="M102.308 251.818C102.56 260.89 101.646 269.962 99.5654 278.813C99.4394 279.412 98.5254 279.16 98.6514 278.561C100.7 269.804 101.615 260.827 101.331 251.818C101.362 251.219 102.308 251.219 102.308 251.818Z" fill="#E8E8E8"/>
<path d="M64.7607 252.542C63.878 260.921 64.4139 269.395 66.337 277.585C66.4631 278.183 65.5804 278.435 65.4228 277.837C63.4682 269.552 62.9007 261.016 63.815 252.542C63.878 251.944 64.8238 251.944 64.7607 252.542Z" fill="#E8E8E8"/>
<path d="M99.1874 279.695C88.2794 282.467 76.741 282.089 66.0538 278.561C65.4863 278.372 65.7385 277.459 66.306 277.648C76.867 281.113 88.1844 281.522 98.9354 278.782C99.5344 278.656 99.7864 279.569 99.1874 279.695Z" fill="#E8E8E8"/>
<path d="M101.867 252.259C89.6045 254.873 76.8994 254.81 64.6675 252.101C64.0685 251.975 64.3207 251.062 64.9197 251.188C76.994 253.865 89.5415 253.897 101.615 251.345C102.214 251.219 102.466 252.133 101.867 252.259Z" fill="#E8E8E8"/>
<path d="M94.3965 252.605C96.0355 248.92 94.5535 244.416 93.3245 240.793C92.0635 237.045 90.2665 233.485 88.0595 230.209C88.3115 230.241 88.5635 230.272 88.8165 230.303C88.0905 231.122 87.3025 231.69 86.3255 232.162C85.9475 232.32 85.5375 232.068 85.6315 231.627C86.0105 229.926 86.6725 228.256 85.9155 226.555C85.3795 225.358 84.6235 224.161 83.9925 223.027C84.2135 223.09 84.4345 223.153 84.6545 223.185C83.9925 223.594 83.3305 223.972 82.6685 224.382C82.2272 224.665 81.8489 224.13 82.0065 223.72C82.6685 222.271 83.1095 220.822 82.1957 219.373C81.6598 218.491 80.9662 217.704 80.3672 216.885C79.0431 215.121 77.656 213.357 76.2689 211.624C73.6207 208.317 70.878 205.104 68.0407 201.954C68.2929 201.922 68.5451 201.891 68.7973 201.859C64.762 207.151 62.2085 213.483 61.5149 220.098C61.1681 223.279 61.2627 226.555 61.8302 229.705C62.1139 231.312 62.5237 232.887 63.0281 234.43C63.1227 234.745 63.2488 235.06 63.3434 235.343C63.6902 236.225 64.2576 236.604 65.1719 236.793C65.8024 236.919 66.1492 236.824 66.6851 237.233C66.9373 237.422 67.0004 237.737 66.7797 237.99C66.0861 238.714 65.8024 238.84 66.0546 239.816C66.2122 240.446 66.5905 241.108 66.8743 241.738C67.4417 242.998 68.0722 244.226 68.7343 245.423C70.0899 247.88 71.6346 250.211 73.3685 252.416C73.7468 252.889 73.0848 253.55 72.7065 253.078C69.3648 248.794 66.7166 244.101 64.7305 239.061C64.6675 238.903 64.7305 238.714 64.8566 238.588C65.2665 238.179 65.6763 237.738 66.1176 237.328C66.1492 237.58 66.1807 237.832 66.2122 238.084C65.4872 237.58 64.6675 237.926 63.9109 237.611C63.3119 237.391 62.9966 236.95 62.7444 236.383C62.0509 234.903 61.6095 233.201 61.2312 231.627C60.443 228.162 60.1908 224.602 60.443 221.074C60.979 213.955 63.5956 207.057 67.9461 201.387C68.1038 201.166 68.4505 201.04 68.7027 201.292C72.2021 205.167 75.5753 209.167 78.7909 213.262C80.2411 215.089 81.7858 216.916 83.0465 218.901C84.1815 220.696 83.6455 222.397 82.8575 224.224C82.6375 224.004 82.4165 223.783 82.1957 223.563C82.8575 223.153 83.5195 222.775 84.1815 222.366C84.4025 222.24 84.7175 222.303 84.8435 222.523C85.6315 223.972 86.8615 225.579 87.3025 227.185C87.6815 228.603 86.8935 230.461 86.5775 231.847C86.3575 231.658 86.1045 231.501 85.8845 231.312C86.7985 230.902 87.5235 230.367 88.1855 229.611C88.4065 229.359 88.7845 229.453 88.9425 229.705C91.4015 233.359 93.3245 237.36 94.6485 241.581C95.7835 245.235 96.8865 249.392 95.2785 253.046C94.9635 253.613 94.1435 253.141 94.3965 252.605Z" fill="#E8E8E8"/>
<path d="M68.7337 209.104C69.9948 223.373 79.7677 234.808 83.8345 248.227C84.0235 248.825 83.1095 249.046 82.9205 248.479C78.8534 234.965 69.049 223.499 67.788 209.104C67.7249 208.474 68.7022 208.505 68.7337 209.104Z" fill="#E8E8E8"/>
<path d="M80.6505 216.695C79.6417 221.893 78.4752 227.027 77.1511 232.13C76.9935 232.729 76.0793 232.477 76.2369 231.878C77.561 226.775 78.7274 221.609 79.7362 216.443C79.8308 215.845 80.7451 216.097 80.6505 216.695Z" fill="#E8E8E8"/>
<path d="M69.9953 220.034C67.2525 218.05 64.8881 215.687 62.8389 212.947C62.4606 212.474 63.2803 212.002 63.6586 212.474C65.5817 215.057 67.8515 217.325 70.4681 219.215C70.941 219.593 70.4681 220.412 69.9953 220.034Z" fill="#E8E8E8"/>
<path d="M72.9264 206.552C72.0751 209.261 71.5707 212.569 69.49 214.616C69.0486 215.057 68.3865 214.364 68.8279 213.955C70.751 212.033 71.2555 208.789 72.0436 206.3C72.2013 205.733 73.1155 205.985 72.9264 206.552Z" fill="#E8E8E8"/>
<path d="M96.2864 252.353C98.2094 250.841 99.3754 248.731 100.353 246.526C101.456 243.943 102.402 241.297 103.253 238.619C104.861 233.485 106.027 228.193 106.721 222.869C108.14 211.718 107.005 200.441 108.36 189.259C108.644 189.353 108.959 189.416 109.243 189.511C105.712 197.449 97.4524 202.205 90.5804 206.93C90.6434 206.71 90.7064 206.489 90.7374 206.269C91.6834 207.623 92.6294 208.978 93.5754 210.332C93.7954 210.647 93.5124 211.057 93.1654 211.057C91.9354 211.057 90.8634 210.899 89.6974 210.49C89.8864 210.427 90.0444 210.332 90.2334 210.269C89.0674 212.065 87.9004 213.86 86.7344 215.656C86.7024 215.467 86.6714 215.278 86.6714 215.089C87.2384 215.624 87.7114 216.223 88.1844 216.884C88.3414 217.105 88.1844 217.546 87.9004 217.577C85.3154 217.955 84.4014 220.412 83.7394 222.617C83.5504 223.184 82.6354 222.964 82.8244 222.365C83.6134 219.877 84.7484 217.073 87.6484 216.664C87.5534 216.884 87.4594 217.136 87.3644 217.357C86.9544 216.727 86.5444 216.286 86.0094 215.782C85.8514 215.656 85.8194 215.372 85.9454 215.215C87.1124 213.419 88.2784 211.624 89.4454 209.828C89.5394 209.671 89.7604 209.545 89.9814 209.608C91.0534 209.954 92.0934 210.143 93.1964 210.112C93.0704 210.364 92.9134 210.584 92.7874 210.836C91.8414 209.482 90.8954 208.127 89.9494 206.773C89.7924 206.552 89.9184 206.269 90.1074 206.111C96.8534 201.481 104.955 196.85 108.423 189.038C108.612 188.629 109.369 188.818 109.306 189.29C107.919 200.882 109.148 212.6 107.509 224.161C106.721 229.736 105.428 235.217 103.631 240.541C102.181 244.856 100.668 250.117 96.9794 253.046C96.4754 253.393 95.8134 252.731 96.2864 252.353Z" fill="#E8E8E8"/>
<path d="M109.055 190.204C106.501 197.26 104.357 204.694 100.921 211.403C99.2195 214.711 97.3595 217.955 95.7515 221.326C94.0175 224.98 92.4725 228.697 90.8965 232.382C90.6755 232.949 89.8565 232.445 90.0765 231.91C91.5585 228.382 93.0715 224.854 94.6795 221.389C96.2555 217.987 98.0845 214.742 99.8495 211.435C103.38 204.694 105.555 197.134 108.172 189.983C108.361 189.385 109.275 189.637 109.055 190.204Z" fill="#E8E8E8"/>
<path d="M107.857 214.144C104.452 214.554 100.732 214.743 98.1475 217.294C97.7065 217.735 97.0445 217.042 97.4855 216.632C100.259 213.924 104.2 213.672 107.857 213.231C108.456 213.136 108.456 214.081 107.857 214.144Z" fill="#E8E8E8"/>
<path d="M98.7464 201.386C99.3144 203.434 99.6924 205.544 99.8504 207.686C99.9764 209.513 100.196 211.655 99.5664 213.419C99.3774 213.986 98.4624 213.734 98.6524 213.167C99.2514 211.498 99.0304 209.419 98.9044 207.655C98.7464 205.607 98.3684 203.591 97.8324 201.607C97.6744 201.04 98.5884 200.788 98.7464 201.386Z" fill="#E8E8E8"/>
<path d="M105.713 231.311C103.254 231.374 100.889 231.406 98.4934 232.067C96.1294 232.729 93.7964 233.422 91.4324 234.115C90.8334 234.272 90.5804 233.359 91.1794 233.201C93.7024 232.477 96.1924 231.689 98.7464 231.028C101.047 230.429 103.348 230.461 105.713 230.398C106.312 230.335 106.312 231.28 105.713 231.311Z" fill="#E8E8E8"/>
<path d="M71.2244 251.471C69.1122 251.188 67.0315 251.188 64.9193 251.471C65.0139 251.251 65.1085 250.999 65.203 250.778C65.3922 251.062 67.2837 251.093 67.662 251.125C68.5132 251.251 69.3959 251.377 70.2471 251.566C70.3732 251.597 71.2244 251.692 71.256 251.786C71.1929 251.629 69.9319 251.66 69.7427 251.66C68.8285 251.66 67.9142 251.755 67 251.818C67 251.503 67 251.188 67 250.873C67.7881 250.841 68.4817 250.936 69.2698 251.156C69.7742 251.282 69.6797 252.07 69.1437 252.07C67.9142 252.07 66.8108 251.818 65.6129 251.503C65.0139 251.345 65.2661 250.432 65.8651 250.589C66.9369 250.873 68.0088 251.125 69.1437 251.125C69.1122 251.44 69.0491 251.755 69.0176 252.038C68.3556 251.849 67.6936 251.786 67 251.786C66.401 251.786 66.401 250.873 67 250.841C68.3871 250.778 70.4047 250.274 71.6658 251.062C72.1702 251.377 72.8953 252.196 72.2332 252.7C71.9495 252.92 71.6343 252.794 71.2875 252.763C70.3417 252.574 69.4275 252.353 68.4817 252.196C67.3783 252.007 65.1715 252.29 64.4149 251.251C64.2573 251.03 64.4149 250.589 64.6986 250.558C66.9054 250.243 69.0492 250.243 71.256 250.526C71.8234 250.589 71.8234 251.534 71.2244 251.471Z" fill="#E8E8E8"/>
<path d="M101.457 252.07C101.016 251.944 100.575 251.849 100.133 251.818C99.9134 251.818 99.7234 251.786 99.5034 251.818C99.4084 251.818 98.9674 251.786 98.9354 251.818C98.9674 251.66 99.0304 251.503 99.0614 251.345C99.0614 251.377 99.0934 251.408 99.0934 251.408C98.9044 251.314 98.7154 251.188 98.5254 251.093C98.5574 251.093 98.5894 251.093 98.5894 251.093C98.4944 251.188 98.3684 251.314 98.2734 251.408C98.2734 251.377 98.2734 251.345 98.3054 251.345C98.4624 250.747 99.3454 250.999 99.2194 251.597C99.2194 251.629 99.2194 251.66 99.1884 251.66C99.1564 251.818 98.9984 251.944 98.8724 251.975C98.8414 251.975 98.8094 251.975 98.8094 251.975C98.5574 252.038 98.3364 251.912 98.2424 251.66C98.2424 251.629 98.2104 251.597 98.2104 251.597C98.1474 251.44 98.2104 251.251 98.3364 251.125C98.6834 250.778 99.4404 250.841 99.8814 250.841C100.512 250.841 101.174 250.967 101.773 251.125C102.277 251.314 102.025 252.227 101.457 252.07Z" fill="#E8E8E8"/>
<path d="M100.732 258.401C89.2264 260.386 77.2778 261.331 65.9285 257.929C65.3611 257.74 65.5817 256.858 66.1807 257.015C77.3408 260.354 89.1314 259.441 100.48 257.488C101.079 257.393 101.331 258.307 100.732 258.401Z" fill="#E8E8E8"/>
<path d="M61.1046 271.348C40.8967 271.348 20.6573 271.348 0.44925 271.348C-0.14975 271.348 -0.14975 270.403 0.44925 270.403C20.6573 270.403 40.8967 270.403 61.1046 270.403C61.7351 270.403 61.7351 271.348 61.1046 271.348Z" fill="#E8E8E8"/>
<path d="M76.394 291.602C57.3525 291.602 38.2795 291.602 19.2381 291.602C18.6391 291.602 18.6391 290.657 19.2381 290.657C38.2795 290.657 57.3525 290.657 76.394 290.657C76.993 290.657 76.993 291.602 76.394 291.602Z" fill="#E8E8E8"/>
<path d="M67.7249 291.508C69.9948 293.398 72.2646 295.256 74.5029 297.146C74.9758 297.524 74.3138 298.186 73.8409 297.808C71.571 295.918 69.3012 294.059 67.0629 292.169C66.59 291.791 67.2835 291.098 67.7249 291.508Z" fill="#E8E8E8"/>
<path d="M74.2196 298.154C73.6206 298.154 73.6206 297.209 74.2196 297.209C74.8185 297.209 74.8185 298.154 74.2196 298.154Z" fill="#E8E8E8"/>
<path d="M64.6037 297.209C83.8025 297.209 103.001 297.209 122.201 297.209C122.8 297.209 122.8 298.154 122.201 298.154C103.001 298.154 83.8025 298.154 64.6037 298.154C64.0047 298.154 64.0047 297.209 64.6037 297.209Z" fill="#E8E8E8"/>
<path d="M122.296 306.974C118.891 304.139 115.392 301.43 111.798 298.816C111.325 298.469 111.766 297.65 112.271 297.997C115.928 300.643 119.49 303.415 122.958 306.281C123.431 306.691 122.769 307.352 122.296 306.974Z" fill="#E8E8E8"/>
<path d="M353.788 277.018C351.423 277.018 349.027 277.018 346.663 277.018C346.064 277.018 346.064 276.073 346.663 276.073C349.027 276.073 351.423 276.073 353.788 276.073C354.418 276.073 354.418 277.018 353.788 277.018Z" fill="#E8E8E8"/>
<path d="M116.306 97.5307C116.306 98.7907 116.306 100.019 116.306 101.279C116.306 101.878 115.36 101.878 115.36 101.279C115.36 100.019 115.36 98.7907 115.36 97.5307C115.36 96.9317 116.306 96.9317 116.306 97.5307Z" fill="#E8E8E8"/>
<path d="M115.549 98.2867C93.8604 98.2867 72.1706 98.2867 50.481 98.2867C49.882 98.2867 49.882 97.3417 50.481 97.3417C72.1706 97.3417 93.8604 97.3417 115.549 97.3417C116.148 97.3417 116.148 98.2867 115.549 98.2867Z" fill="#E8E8E8"/>
<path d="M114.982 101.752C93.4824 101.752 71.9815 101.752 50.5125 101.752C49.9135 101.752 49.9135 100.807 50.5125 100.807C72.013 100.807 93.5134 100.807 114.982 100.807C115.581 100.807 115.581 101.752 114.982 101.752Z" fill="#E8E8E8"/>
<path d="M50.6382 97.5307C50.7643 98.8217 50.7013 100.114 50.4806 101.405C50.386 102.004 49.4717 101.752 49.5663 101.153C49.787 99.9557 49.8185 98.7277 49.6924 97.5307C49.6293 96.9317 50.5752 96.9317 50.6382 97.5307Z" fill="#E8E8E8"/>
<path d="M111.103 97.5627C111.103 88.7737 111.103 79.9857 111.103 71.1967C111.103 70.5987 112.049 70.5987 112.049 71.1967C112.049 79.9857 112.049 88.7737 112.049 97.5627C112.049 98.1927 111.103 98.1927 111.103 97.5627Z" fill="#E8E8E8"/>
<path d="M111.104 71.3538C108.424 70.2828 105.587 70.4408 103.096 71.9208C102.561 72.2358 102.088 71.4168 102.624 71.1018C105.303 69.5268 108.487 69.2748 111.356 70.4408C111.924 70.6608 111.671 71.5748 111.104 71.3538Z" fill="#E8E8E8"/>
<path d="M103.254 71.7007C103.254 80.1427 103.254 88.6157 103.254 97.0577C103.254 97.6567 102.308 97.6567 102.308 97.0577C102.308 88.6157 102.308 80.1427 102.308 71.7007C102.308 71.1017 103.254 71.1017 103.254 71.7007Z" fill="#E8E8E8"/>
<path d="M102.182 78.7567C100.259 77.9687 98.2414 78.0947 96.4444 79.1977C95.9084 79.5127 95.4364 78.6937 95.9714 78.3787C97.9584 77.1817 100.29 76.9607 102.434 77.8427C103.002 78.0637 102.749 78.9767 102.182 78.7567Z" fill="#E8E8E8"/>
<path d="M96.6345 79.1658C96.6345 85.0878 96.6345 90.9788 96.6345 96.9008C96.6345 97.4988 95.6885 97.4988 95.6885 96.9008C95.6885 90.9788 95.6885 85.0878 95.6885 79.1658C95.6885 78.5678 96.6345 78.5678 96.6345 79.1658Z" fill="#E8E8E8"/>
<path d="M110.978 78.5987C108.299 78.0007 105.651 78.1897 103.065 79.1027C102.498 79.2917 102.246 78.3787 102.813 78.1897C105.556 77.2127 108.393 77.0867 111.231 77.6857C111.798 77.8117 111.546 78.7247 110.978 78.5987Z" fill="#E8E8E8"/>
<path d="M102.844 89.5297C100.826 88.9937 98.8094 88.9307 96.7604 89.3717C96.1614 89.4977 95.9084 88.5847 96.5074 88.4587C98.7144 87.9857 100.89 88.0177 103.096 88.6157C103.664 88.7737 103.443 89.6867 102.844 89.5297Z" fill="#E8E8E8"/>
<path d="M84.7164 97.2467C84.7164 95.4827 84.7164 93.7187 84.7164 91.9547C84.7164 91.3567 85.6624 91.3567 85.6624 91.9547C85.6624 93.7187 85.6624 95.4827 85.6624 97.2467C85.6624 97.8457 84.7164 97.8457 84.7164 97.2467Z" fill="#E8E8E8"/>
<path d="M85.1894 92.2387C74.9438 92.2387 64.7295 92.2387 54.4836 92.2387C53.8847 92.2387 53.8847 91.2937 54.4836 91.2937C64.7295 91.2937 74.9438 91.2937 85.1894 91.2937C85.8204 91.2937 85.8204 92.2387 85.1894 92.2387Z" fill="#E8E8E8"/>
<path d="M54.1693 92.7427C53.5702 92.7427 53.5702 91.7977 54.1693 91.7977C54.7998 91.7977 54.7998 92.7427 54.1693 92.7427Z" fill="#E8E8E8"/>
<path d="M54.6422 92.2697C54.6422 93.8767 54.6422 95.4827 54.6422 97.0897C54.6422 97.6877 53.6964 97.6877 53.6964 97.0897C53.6964 95.4827 53.6964 93.8767 53.6964 92.2697C53.6964 91.6717 54.6422 91.6717 54.6422 92.2697Z" fill="#E8E8E8"/>
<path d="M78.7598 91.6087C78.7598 89.9397 78.7598 88.3017 78.7598 86.6317C78.7598 86.0337 79.7055 86.0337 79.7055 86.6317C79.7055 88.3017 79.7055 89.9397 79.7055 91.6087C79.7055 92.2077 78.7598 92.2077 78.7598 91.6087Z" fill="#E8E8E8"/>
<path d="M79.2311 86.9467C69.1744 86.9467 59.1178 86.9467 49.0296 86.9467C48.4306 86.9467 48.4306 86.0017 49.0296 86.0017C59.0863 86.0017 69.1429 86.0017 79.2311 86.0017C79.8301 86.0017 79.8301 86.9467 79.2311 86.9467Z" fill="#E8E8E8"/>
<path d="M49.3456 86.4737C49.3456 87.8597 49.3456 89.2457 49.3456 90.6317C49.3456 91.2307 48.3998 91.2307 48.3998 90.6317C48.3998 89.2457 48.3998 87.8597 48.3998 86.4737C48.3998 85.8437 49.3456 85.8437 49.3456 86.4737Z" fill="#E8E8E8"/>
<path d="M54.8309 92.3957C53.0025 92.3957 51.174 92.3957 49.3456 92.3957C48.7466 92.3957 48.7466 91.4507 49.3456 91.4507C51.174 91.4507 53.0025 91.4507 54.8309 91.4507C55.4614 91.4507 55.4614 92.3957 54.8309 92.3957Z" fill="#E8E8E8"/>
<path d="M49.4088 90.6637C49.4718 91.0097 49.4718 91.3247 49.3773 91.6397C49.3142 91.8917 49.0305 92.0497 48.8098 91.9547C48.5576 91.8917 48.4 91.6087 48.4945 91.3877C48.5261 91.2307 48.5576 91.0417 48.5261 90.9157C48.4945 90.6637 48.5891 90.3797 48.8413 90.3487C49.062 90.2857 49.3773 90.4117 49.4088 90.6637Z" fill="#E8E8E8"/>
<path d="M72.0443 86.6948C71.6344 88.3008 71.5398 89.9388 71.7605 91.6088C71.8236 92.2068 70.8778 92.2068 70.8147 91.6088C70.5941 89.8758 70.7202 88.1438 71.13 86.4428C71.2876 85.8758 72.2019 86.1278 72.0443 86.6948Z" fill="#E8E8E8"/>
<path d="M64.9182 92.1758C64.6975 93.7508 64.8237 95.2938 65.202 96.8058C65.3596 97.4048 64.4453 97.6568 64.2877 97.0578C63.8463 95.3568 63.7517 93.6558 64.004 91.9238C64.067 91.3248 64.9813 91.5768 64.9182 92.1758Z" fill="#E8E8E8"/>
<path d="M71.0988 130.511C71.0988 133 71.0988 135.457 71.0988 137.945C71.0988 138.544 70.1531 138.544 70.1531 137.945C70.1531 135.457 70.1531 133 70.1531 130.511C70.1531 129.881 71.0988 129.881 71.0988 130.511Z" fill="#E8E8E8"/>
<path d="M78.4127 138.071C72.1075 138.071 65.8024 138.071 59.4973 138.071C58.8983 138.071 58.8983 137.126 59.4973 137.126C65.8024 137.126 72.1075 137.126 78.4127 137.126C79.0117 137.126 79.0117 138.071 78.4127 138.071Z" fill="#E8E8E8"/>
<path d="M89.1624 32.1051C89.1624 37.7751 89.1624 43.4766 89.1624 49.1466C89.1624 49.7451 88.2164 49.7451 88.2164 49.1466C88.2164 43.4766 88.2164 37.7751 88.2164 32.1051C88.2164 31.5066 89.1624 31.5066 89.1624 32.1051Z" fill="#E8E8E8"/>
<path d="M87.9644 32.0737C80.7761 32.0737 73.6198 32.0737 66.4319 32.0737C65.8329 32.0737 65.8329 31.1287 66.4319 31.1287C73.6198 31.1287 80.7761 31.1287 87.9644 31.1287C88.5634 31.1287 88.5634 32.0737 87.9644 32.0737Z" fill="#E8E8E8"/>
<path d="M66.4008 31.9475C66.4008 37.4285 66.4008 42.9095 66.4008 48.359C66.4008 48.9575 65.455 48.9575 65.455 48.359C65.455 42.878 65.455 37.397 65.455 31.9475C65.455 31.349 66.4008 31.349 66.4008 31.9475Z" fill="#E8E8E8"/>
<path d="M88.8154 49.6823C81.1863 49.6823 73.5571 49.6823 65.9279 49.6823C65.3289 49.6823 65.3289 48.7373 65.9279 48.7373C73.5571 48.7373 81.1863 48.7373 88.8154 48.7373C89.4144 48.7373 89.4144 49.6823 88.8154 49.6823Z" fill="#E8E8E8"/>
<path d="M87.0494 34.0581C87.0494 38.3736 87.0494 42.6576 87.0494 46.9731C87.0494 47.5716 86.1034 47.5716 86.1034 46.9731C86.1034 42.6576 86.1034 38.3736 86.1034 34.0581C86.1034 33.4596 87.0494 33.4596 87.0494 34.0581Z" fill="#E8E8E8"/>
<path d="M86.3575 34.4361C80.4618 34.4361 74.535 34.4361 68.6397 34.4361C68.0407 34.4361 68.0407 33.4911 68.6397 33.4911C74.535 33.4911 80.4618 33.4911 86.3575 33.4911C86.9565 33.4911 86.9565 34.4361 86.3575 34.4361Z" fill="#E8E8E8"/>
<path d="M68.9859 34.0581C68.9859 38.0586 68.9859 42.0276 68.9859 46.0281C68.9859 46.6266 68.0402 46.6266 68.0402 46.0281C68.0402 42.0276 68.0402 38.0586 68.0402 34.0581C68.0402 33.4596 68.9859 33.4596 68.9859 34.0581Z" fill="#E8E8E8"/>
<path d="M86.3575 47.4456C80.4933 47.4456 74.6296 47.4456 68.7343 47.4456C68.1353 47.4456 68.1353 46.5006 68.7343 46.5006C74.5981 46.5006 80.4618 46.5006 86.3575 46.5006C86.9565 46.5006 86.9565 47.4456 86.3575 47.4456Z" fill="#E8E8E8"/>
<path d="M75.1961 41.7756C77.6866 39.8856 73.9666 35.9481 72.2327 38.3106C70.6249 40.4526 73.2415 43.0356 75.4798 41.8386C76.0157 41.5551 76.4886 42.3741 75.9527 42.6576C74.5025 43.4451 72.5795 43.2246 71.5391 41.8701C70.4673 40.5156 70.5934 38.3736 71.949 37.2396C73.3676 36.0741 75.3853 36.8616 76.3625 38.1846C77.4029 39.6336 77.0876 41.5236 75.669 42.5946C75.1646 42.9411 74.7232 42.1221 75.1961 41.7756Z" fill="#E8E8E8"/>
<path d="M78.1916 46.4377C78.3177 43.9492 75.2598 43.0042 73.3367 43.0042C70.9723 43.0042 70.2157 45.1147 69.2384 46.9102C68.9547 47.4457 68.135 46.9732 68.4187 46.4377C69.0808 45.2407 69.7113 43.6657 70.8147 42.7837C71.8235 41.9962 73.0845 42.0277 74.2825 42.1537C76.4892 42.4057 79.295 43.7602 79.1374 46.4377C79.1059 47.0362 78.1601 47.0362 78.1916 46.4377Z" fill="#E8E8E8"/>
<path d="M85.9475 44.1697C85.2535 42.8782 82.7005 43.3822 81.7545 43.8862C80.7772 44.4217 80.2097 45.3037 79.9575 46.3747C79.8314 46.9732 78.9171 46.7212 79.0432 46.1227C79.4215 44.4847 80.5565 43.1932 82.1958 42.6577C83.5825 42.2167 85.9475 42.1852 86.7355 43.6657C87.0505 44.2327 86.2315 44.7052 85.9475 44.1697Z" fill="#E8E8E8"/>
<path d="M84.1184 41.8387C85.1594 41.8072 84.9064 40.2637 84.4654 39.7282C83.8974 39.0352 82.7634 38.9407 82.101 39.6022C81.565 40.1062 81.4074 41.0512 81.8488 41.6497C82.164 42.0907 82.6374 42.1852 83.1414 42.1852C83.3304 42.1852 84.1184 42.2167 84.2444 42.0592C84.5914 41.5552 85.4114 42.0277 85.0644 42.5317C84.6864 43.0987 83.8984 43.1302 83.2674 43.1302C82.5104 43.1617 81.7857 42.9727 81.2498 42.4057C80.241 41.3032 80.5877 39.4447 81.7857 38.6257C83.0784 37.7752 84.8754 38.2477 85.5374 39.6337C86.1044 40.8622 85.6944 42.7207 84.1184 42.7522C83.4884 42.8152 83.4884 41.8702 84.1184 41.8387Z" fill="#E8E8E8"/>
<path d="M277.054 115.833C275.572 117.03 273.744 116.526 272.356 115.36C270.402 113.754 269.425 111.013 269.046 108.588C268.069 102.414 270.56 96.5547 271.537 90.5697C273.302 79.4497 268.447 67.5427 259.431 60.8647C255.049 57.5887 247.83 54.0922 249.532 47.3827C249.69 46.7842 250.604 47.0362 250.446 47.6347C248.838 54.0292 256.278 57.2737 260.345 60.3607C264.002 63.1647 266.966 66.7867 269.078 70.8507C271.159 74.7877 272.42 79.1667 272.766 83.6077C273.176 88.9947 271.757 94.0027 270.591 99.2007C269.897 102.351 269.456 105.658 270.055 108.871C270.339 110.352 270.843 111.801 271.631 113.092C272.514 114.478 274.626 116.62 276.392 115.203C276.833 114.793 277.527 115.455 277.054 115.833Z" fill="#E8E8E8"/>
<path d="M249.878 47.0048C253.441 47.1623 256.562 44.3903 256.373 40.7363C256.184 36.9248 251.675 33.3968 247.861 34.4048C244.456 35.3183 241.839 39.0668 242.691 42.5633C243.542 46.0598 247.482 46.8158 250.509 47.3198C251.108 47.4143 250.856 48.3278 250.257 48.2333C246.348 47.6033 241.808 46.2173 241.556 41.4923C241.366 37.6493 244.803 33.4913 248.743 33.3338C252.905 33.1448 257.098 36.5468 257.318 40.7678C257.508 44.9258 253.945 48.1388 249.878 47.9813C249.279 47.9183 249.279 46.9733 249.878 47.0048Z" fill="#E8E8E8"/>
<path d="M254.544 44.5477C253.031 40.7362 244.96 40.1062 244.014 44.6422C243.888 45.2407 242.974 44.9887 243.1 44.3902C244.267 38.8462 253.63 39.6652 255.458 44.2957C255.679 44.8627 254.765 45.0832 254.544 44.5477Z" fill="#E8E8E8"/>
<path d="M249.815 40.2952C250.478 39.8227 250.73 38.9092 250.288 38.2162C249.784 37.3657 248.712 37.2712 247.892 37.7122C247.262 38.0587 247.136 38.8462 247.514 39.4447C247.987 40.1692 248.996 40.2637 249.784 40.0747C250.383 39.9487 250.635 40.8622 250.036 40.9882C248.775 41.2717 247.262 40.9882 246.631 39.7597C246.064 38.6572 246.474 37.3342 247.609 36.7987C248.87 36.2317 250.383 36.4837 251.108 37.7122C251.833 38.8777 251.36 40.3267 250.288 41.0827C249.784 41.4922 249.311 40.6732 249.815 40.2952Z" fill="#E8E8E8"/>
<path d="M236.448 30.5933C233.138 21.8363 223.617 17.3633 214.759 16.7648C208.895 16.3553 203.031 17.2689 197.294 18.3714C191.871 19.4424 186.228 21.1434 180.68 20.9544C176.108 20.7969 171.411 18.9069 169.267 14.6544C168.984 14.1189 169.803 13.6464 170.087 14.1819C172.577 19.0959 178.315 20.3559 183.391 19.9464C189.318 19.4739 195.15 17.7099 200.982 16.7334C210.44 15.1584 220.528 14.9379 228.945 20.2614C232.76 22.6869 235.786 26.0888 237.394 30.3413C237.583 30.9083 236.669 31.1603 236.448 30.5933Z" fill="#E8E8E8"/>
<path d="M165.452 14.1187C157.13 14.1187 148.775 14.1187 140.453 14.1187C139.854 14.1187 139.854 13.1737 140.453 13.1737C148.775 13.1737 157.13 13.1737 165.452 13.1737C166.083 13.1737 166.083 14.1187 165.452 14.1187Z" fill="#E8E8E8"/>
<path d="M165.8 13.1106C167.282 11.6616 165.674 9.20465 164.507 8.10215C163.089 6.71615 161.134 6.18065 159.243 6.93665C159.085 6.99965 158.77 6.90515 158.707 6.71615C157.572 4.07015 154.892 2.14865 151.96 2.27465C148.902 2.40065 146.317 4.70015 145.56 7.59815C145.497 7.88165 145.119 8.03915 144.867 7.88165C143.48 7.03115 142.061 8.03915 141.494 9.33065C140.989 10.5276 141.115 11.8821 141.241 13.1736C141.305 13.7721 140.359 13.7721 140.296 13.1736C140.107 11.2836 139.98 9.04715 141.494 7.59815C142.566 6.59015 144.047 6.27515 145.308 7.06265C145.088 7.15715 144.835 7.25165 144.615 7.34615C145.466 4.19615 148.177 1.67615 151.487 1.36115C154.892 1.01465 158.171 3.12515 159.495 6.24365C159.306 6.18065 159.148 6.08615 158.959 6.02315C161.481 5.01515 164.129 6.08615 165.768 8.16515C166.998 9.70865 168.07 12.1971 166.399 13.8036C166.021 14.2131 165.359 13.5516 165.8 13.1106Z" fill="#E8E8E8"/>
<path d="M147.861 17.7413C143.984 17.3003 141.714 21.3638 141.115 24.6398C140.484 28.0103 141.083 31.3808 141.43 34.7514C141.966 39.8229 141.619 45.9339 136.796 48.8949C136.292 49.2099 135.787 48.3909 136.323 48.0759C142.912 44.0439 140.169 35.0663 139.917 28.8923C139.728 24.1988 141.588 16.1033 147.861 16.7963C148.46 16.8593 148.46 17.8043 147.861 17.7413Z" fill="#E8E8E8"/>
<path d="M131.563 43.5712C134.4 50.7217 137.206 57.8722 140.043 64.9907C140.264 65.5577 139.349 65.8097 139.129 65.2427C136.291 58.0927 133.486 50.9422 130.648 43.8232C130.428 43.2562 131.342 43.0357 131.563 43.5712Z" fill="#E8E8E8"/>
<path d="M131.122 44.1697C126.204 43.9177 121.318 44.0437 116.431 44.6107C116.589 44.4217 116.746 44.2012 116.872 44.0122C119.205 51.4777 121.097 59.0377 122.61 66.6927C122.736 67.2907 121.822 67.5427 121.696 66.9447C120.183 59.2897 118.26 51.7297 115.958 44.2642C115.864 43.9492 116.116 43.6972 116.4 43.6657C121.286 43.0987 126.172 42.9727 131.09 43.2247C131.721 43.2562 131.721 44.2012 131.122 44.1697Z" fill="#E8E8E8"/>
<path d="M139.822 65.9047C136.922 66.0307 134.053 66.1877 131.153 66.3767C128.347 66.5347 125.352 66.4717 122.704 67.5427C122.137 67.7627 121.884 66.8497 122.452 66.6287C124.974 65.5897 127.843 65.6527 130.522 65.4947C133.612 65.3057 136.701 65.1487 139.822 64.9907C140.421 64.9277 140.421 65.8727 139.822 65.9047Z" fill="#E8E8E8"/>
<path d="M130.68 47.3198C127.654 47.3828 124.627 47.6033 121.632 48.0128C121.033 48.1073 120.781 47.1938 121.38 47.0993C124.47 46.6583 127.559 46.4063 130.68 46.3433C131.311 46.3433 131.311 47.2883 130.68 47.3198Z" fill="#E8E8E8"/>
<path d="M131.593 49.4617C129.891 49.3987 128.189 49.4302 126.486 49.5877C125.887 49.6507 125.887 48.7057 126.486 48.6427C128.189 48.4852 129.891 48.4222 131.593 48.5167C132.192 48.5482 132.192 49.4932 131.593 49.4617Z" fill="#E8E8E8"/>
<path d="M133.675 53.7142C130.049 53.4937 126.613 53.1787 123.051 54.0607C122.452 54.2182 122.199 53.3047 122.798 53.1472C126.455 52.2652 129.955 52.5487 133.675 52.7692C134.305 52.8007 134.305 53.7457 133.675 53.7142Z" fill="#E8E8E8"/>
<path d="M133.517 56.4862C131.437 56.3287 129.356 56.3287 127.275 56.5177C126.676 56.5807 126.676 55.6357 127.275 55.5727C129.356 55.3837 131.437 55.3837 133.517 55.5412C134.116 55.6042 134.148 56.5492 133.517 56.4862Z" fill="#E8E8E8"/>
<path d="M135.157 60.1402C132.319 59.9512 129.545 60.0457 126.739 60.4237C126.14 60.5182 126.14 59.5732 126.739 59.4787C129.545 59.1007 132.351 59.0062 135.157 59.1952C135.756 59.2267 135.756 60.1717 135.157 60.1402Z" fill="#E8E8E8"/>
<path d="M292.028 17.8671C290.767 19.5681 288.939 20.2611 287.079 21.1116C284.872 22.1196 282.854 23.4741 281.215 25.2696C277.495 29.2701 276.265 34.6566 276.171 39.9801C275.95 49.9656 279.323 60.4236 274.784 69.8738C274.532 70.4088 273.712 69.9368 273.964 69.4008C278.724 59.4471 274.5 48.2961 275.32 37.8381C275.666 33.3021 276.959 28.8606 279.891 25.3326C281.278 23.6631 282.98 22.2141 284.872 21.1431C286.984 19.9461 289.727 19.4106 291.209 17.3946C291.555 16.9221 292.375 17.3946 292.028 17.8671Z" fill="#E8E8E8"/>
<path d="M302.81 4.54275C303.629 3.50325 303.566 2.77875 302.621 2.36925C302.211 2.14875 301.801 1.99125 301.328 1.89675C300.729 1.77075 300.067 1.73925 299.436 1.77075C297.545 1.86525 295.622 2.36925 295.716 4.66875C295.811 7.37775 296.315 10.0553 296.977 12.6698C297.671 15.3473 298.522 17.9618 299.436 20.5763C299.626 21.1433 299.783 21.8048 300.067 22.3403C300.634 23.3168 301.517 23.2853 302.463 23.2853C303.629 23.2853 305.111 23.4428 306.246 23.1278C307.507 22.7813 307.791 21.5213 306.561 20.7023C305.994 20.3243 305.206 20.2613 304.544 20.2613C303.692 20.2613 302.936 20.4503 302.211 19.8833C300.824 18.8123 300.603 15.9143 300.288 14.3708C299.815 12.1343 299.027 9.39375 299.184 7.12575C299.31 5.39325 301.013 5.33025 302.242 4.60575C302.778 4.29075 303.251 5.10975 302.715 5.42475C301.738 5.99175 300.319 6.05476 300.13 7.34626C299.909 8.85826 300.54 10.9058 300.824 12.4178C301.107 13.8668 301.423 15.3158 301.801 16.7333C302.085 17.8043 302.211 19.0958 303.629 19.3793C304.197 19.5053 304.89 19.3163 305.489 19.4108C307.003 19.6313 308.484 20.7023 308.264 22.4033C307.98 24.5453 305.426 24.1673 303.85 24.2303C301.895 24.2933 299.941 24.5768 299.058 22.4978C297.955 19.9148 297.167 17.0798 296.41 14.4023C295.622 11.6303 295.023 8.76375 294.802 5.89725C294.613 3.66075 294.518 1.86526 297.009 1.26676C299.184 0.731257 302.179 0.479255 303.882 2.24325C305.017 3.40875 304.733 5.70825 302.778 5.55075C302.211 5.42475 302.211 4.47975 302.81 4.54275Z" fill="#E8E8E8"/>
<path d="M306.624 7.91313C306.656 7.88163 306.688 7.85014 306.719 7.81864C306.845 7.69264 307.034 7.66114 307.192 7.69264C308.106 8.00764 308.453 9.48813 308.705 10.3071C309.147 11.8191 309.241 13.3626 309.02 14.9376C308.957 15.5361 308.012 15.5361 308.075 14.9376C308.201 13.8351 308.232 12.7641 308.043 11.6616C307.949 11.0946 306.971 8.88964 307.318 8.57464C306.877 9.01564 306.215 8.35413 306.624 7.91313Z" fill="#E8E8E8"/>
<path d="M309.809 4.44832C312.709 8.13382 314.569 12.5753 313.34 17.3003C313.182 17.8988 312.268 17.6468 312.426 17.0483C313.561 12.7013 311.795 8.51182 309.147 5.10982C308.769 4.63732 309.431 3.97582 309.809 4.44832Z" fill="#E8E8E8"/>
<path d="M313.781 0.195716C318.605 6.52722 320.874 14.5282 320.055 22.4662C319.992 23.0647 319.046 23.0647 319.109 22.4662C319.897 14.6857 317.722 6.90522 312.962 0.668216C312.615 0.195716 313.434 -0.276784 313.781 0.195716Z" fill="#E8E8E8"/>
<path d="M320.496 32.3886C322.924 33.5541 325.194 35.1606 326.991 37.1766C328.819 39.2556 329.387 41.4921 329.67 44.2011C330.301 50.4066 332.602 57.2106 338.844 59.8251C339.412 60.0456 339.16 60.9591 338.592 60.7386C333.611 58.6596 330.711 53.9346 329.481 48.8316C328.756 45.7761 329.103 42.1536 327.495 39.4131C325.856 36.6096 322.892 34.5621 320.024 33.1761C319.456 32.9556 319.929 32.1366 320.496 32.3886Z" fill="#E8E8E8"/>
<path d="M352.337 76.9297C353.125 78.1897 353.881 79.4497 354.67 80.6777C354.922 81.0877 354.417 81.5287 354.008 81.3397C352.084 80.2997 350.004 79.6387 348.049 78.7247C346.977 78.2527 345.937 77.6857 344.928 77.0557C344.581 76.8347 344.172 76.7087 344.077 76.2677C344.014 76.0477 344.14 75.7327 344.392 75.7007C344.424 75.7007 344.455 75.7007 344.487 75.6697C344.708 75.6377 345.023 75.7327 345.054 75.9847C345.054 76.0157 345.054 76.0157 345.054 76.0477C345.18 76.6457 344.266 76.8977 344.14 76.2997C344.14 76.2677 344.14 76.2677 344.14 76.2367C344.329 76.3307 344.518 76.4567 344.708 76.5517C344.676 76.5517 344.644 76.5517 344.613 76.5827C344.708 76.3937 344.834 76.2047 344.928 76.0157C345.023 76.3307 346.788 77.0557 347.166 77.2757C348.112 77.7797 349.09 78.1897 350.098 78.5987C351.58 79.1977 353.03 79.7647 354.417 80.5207C354.197 80.7407 353.976 80.9617 353.755 81.1817C352.967 79.9217 352.211 78.6617 351.422 77.4337C351.202 76.8977 352.021 76.4257 352.337 76.9297Z" fill="#E8E8E8"/>
<path d="M351.297 71.4808C351.328 71.4178 351.328 71.2918 351.234 71.2918C350.981 71.2918 351.265 71.6068 351.297 71.6378C351.454 71.7328 351.99 71.8588 351.959 71.5438C351.927 71.1658 351.202 70.7558 351.076 71.3228C351.045 71.4808 351.171 71.6698 351.328 71.7008C351.423 71.7328 351.486 71.7328 351.549 71.6698C351.58 71.6378 351.644 71.6068 351.58 71.6068C350.982 71.6378 350.982 70.6928 351.58 70.6618C352.211 70.5988 352.684 71.2598 352.526 71.8588C352.369 72.4568 351.675 72.7718 351.108 72.6148C350.54 72.4568 350.099 71.9528 350.099 71.3548C350.099 70.7558 350.572 70.2518 351.108 70.1258C352.274 69.8428 353.504 71.5437 352.495 72.3937C351.675 73.0867 350.036 72.4568 350.13 71.2918C350.193 70.6618 350.887 70.1578 351.517 70.3778C352.148 70.5988 352.4 71.3858 352.085 71.9528C351.833 72.4888 351.013 72.0158 351.297 71.4808Z" fill="#E8E8E8"/>
<path d="M344.33 70.6297C344.361 70.4407 344.456 70.1887 344.267 70.0317C344.172 69.9367 344.014 69.9367 343.888 69.9367C343.573 69.9997 343.636 70.3467 343.857 70.5037C343.983 70.5987 344.109 70.5987 344.204 70.4727C344.298 70.3467 344.267 70.3147 344.172 70.2517C344.109 70.2207 344.298 70.2517 344.141 70.2207C343.762 70.1577 344.393 70.5987 344.298 70.2837C344.487 70.8817 343.573 71.1027 343.384 70.5357C343.226 69.9687 343.762 69.4017 344.33 69.4957C344.992 69.6217 345.149 70.4097 344.74 70.8817C344.361 71.3227 343.668 71.2287 343.384 70.7247C343.1 70.2207 343.289 69.5587 343.857 69.3697C344.424 69.1807 345.055 69.5277 345.181 70.0947C345.339 70.7247 344.897 71.3547 344.267 71.5117C343.132 71.7637 342.186 70.2207 343.006 69.3697C343.416 68.9607 344.078 68.9287 344.582 69.1497C345.275 69.4957 345.307 70.2207 345.181 70.8817C345.149 71.4807 344.235 71.2287 344.33 70.6297Z" fill="#E8E8E8"/>
<path d="M337.331 68.5197C337.204 68.5197 337.078 68.5507 336.921 68.5507V68.5197C336.889 68.4877 336.889 68.4247 336.858 68.3937C336.826 68.3307 336.732 68.2677 336.669 68.2357C336.511 68.1727 336.353 68.1727 336.259 68.3307C336.133 68.5827 336.353 69.0547 336.669 68.8657C336.858 68.7397 336.889 68.4247 336.605 68.4877C336.542 68.4877 336.511 68.5197 336.479 68.5507C336.479 68.5507 336.479 68.6137 336.479 68.5507C336.479 68.4877 336.479 68.5827 336.511 68.5827C336.606 68.6457 336.637 68.7087 336.732 68.6457C336.952 68.4877 337.268 68.6137 337.394 68.8027C337.52 69.0547 337.425 69.3067 337.236 69.4647C336.322 70.1257 335.092 68.8027 335.817 67.9207C336.479 67.1337 337.898 67.6377 337.835 68.6767C337.803 69.2127 337.394 69.6847 336.889 69.8107C336.385 69.9367 335.849 69.6847 335.565 69.2437C334.935 68.2677 335.817 66.9127 336.984 67.2907C337.52 67.4797 337.993 68.0157 337.93 68.6137C337.867 69.2757 336.921 69.6217 336.574 68.9607C336.259 68.4567 337.047 67.9837 337.331 68.5197Z" fill="#E8E8E8"/>
<path d="M318.29 41.0512C314.412 38.9092 311.039 36.0742 308.233 32.6407C307.855 32.1682 308.517 31.5067 308.895 31.9792C311.638 35.3497 314.948 38.1217 318.762 40.2322C319.298 40.5157 318.826 41.3347 318.29 41.0512Z" fill="#E8E8E8"/>
<path d="M271.126 41.8702C271.819 45.8392 272.103 49.8397 271.914 53.8717C271.882 54.4702 270.937 54.4702 270.968 53.8717C271.157 49.9342 270.905 45.9967 270.212 42.1222C270.117 41.5237 271.031 41.2717 271.126 41.8702Z" fill="#E8E8E8"/>
<path d="M275.95 133.945C275.95 129.126 273.68 124.558 269.802 121.66C269.329 121.314 269.802 120.495 270.275 120.841C274.436 123.928 276.864 128.748 276.864 133.945C276.895 134.544 275.95 134.544 275.95 133.945Z" fill="#E8E8E8"/>
<path d="M223.146 261.142C222.641 265.678 221.853 270.655 220.592 276.041C218.89 283.318 216.715 289.681 214.539 295.036C215.138 295.571 216.935 296.989 219.583 297.178C221.254 297.304 222.578 296.894 223.335 296.611C224.47 292.673 225.573 288.578 226.582 284.326C228.663 275.569 230.176 267.221 231.279 259.441C228.537 260.008 225.826 260.575 223.146 261.142Z" fill="#191919"/>
<path d="M152.37 258.181C152.78 262.685 153.473 267.694 154.64 273.08C156.279 280.704 158.454 287.319 160.661 292.894C160.346 293.178 158.549 294.879 155.775 294.753C153.379 294.658 151.834 293.241 151.456 292.894C150.73 289.083 150.037 285.24 149.343 281.396C147.83 272.986 146.475 264.701 145.182 256.511C147.578 257.047 149.974 257.614 152.37 258.181Z" fill="#191919"/>
<path d="M208.739 245.612C208.014 250.432 207.163 255.409 206.186 260.512C204.767 267.914 203.159 274.97 201.457 281.648C202.182 282.089 203.632 282.814 205.618 282.94C207.289 283.034 208.613 282.656 209.37 282.373C210.315 277.9 211.23 273.364 212.144 268.828C213.815 260.417 215.36 252.133 216.841 243.943C214.13 244.478 211.45 245.045 208.739 245.612Z" fill="#191919"/>
<path d="M164.255 244.667C165.106 249.424 165.863 254.401 166.525 259.567C167.439 266.686 168.07 273.49 168.448 279.979C167.912 280.325 166.651 281.05 164.854 281.144C162.931 281.207 161.513 280.451 160.977 280.136C161.292 276.419 161.418 272.293 161.229 267.883C160.851 258.086 159.054 249.644 157.067 242.998C159.463 243.533 161.859 244.1 164.255 244.667Z" fill="#191919"/>
<path d="M108.235 139.268C102.718 149.096 106.974 159.964 117.314 186.959C122.295 199.937 131.406 223.783 144.269 257.771C156.91 262.37 177.843 268.04 203.726 266.245C218.764 265.205 231.374 261.961 240.926 258.622C242.345 256.07 247.263 246.526 243.574 237.265C241.525 232.13 237.395 228.445 228.631 224.098C219.993 219.814 204.766 213.797 182.635 212.695C191.305 169.571 176.456 134.228 153.348 126.07C138.184 120.746 115.833 125.755 108.235 139.268Z" fill="white" stroke="#191919" stroke-width="2" stroke-miterlimit="10"/>
<path d="M110.252 142.828C119.395 154.388 121.475 169.918 124.975 183.809C128.726 198.677 133.045 213.514 139.508 227.468C143.07 235.123 147.263 242.494 152.276 249.298C152.623 249.802 151.803 250.274 151.456 249.77C142.66 237.8 136.45 224.224 131.658 210.238C126.803 196 123.587 181.321 119.804 166.799C117.661 158.546 114.918 150.293 109.559 143.521C109.212 143.017 109.874 142.355 110.252 142.828Z" fill="#191919"/>
<path d="M240.738 251.786C219.71 259.504 196.791 261.772 174.66 258.338C168.323 257.362 162.05 255.913 155.902 254.023C155.335 253.834 155.555 252.92 156.154 253.109C177.592 259.724 200.606 260.732 222.547 256.07C228.632 254.779 234.653 253.015 240.485 250.873C241.053 250.652 241.305 251.566 240.738 251.786Z" fill="#191919"/>
<path d="M166.715 227.028C161.419 228.76 156.911 232.257 153.884 236.982C153.569 237.486 152.75 237.013 153.065 236.509C156.217 231.595 160.915 227.941 166.463 226.114C167.062 225.925 167.314 226.839 166.715 227.028Z" fill="#191919"/>
<path d="M261.543 267.82C259.021 271.6 256.499 275.412 254.009 279.192C270.15 293.682 272.23 297.808 271.032 298.816C268.636 300.801 251.455 291.981 249.69 291.067C243.29 287.791 238.466 284.61 235.251 282.342C236.386 279.255 237.899 275.79 239.98 272.136C242.722 267.316 245.749 263.253 248.618 259.945C252.937 262.528 257.256 265.174 261.543 267.82Z" fill="#191919"/>
<path d="M167.219 193.574C166.084 196.031 164.886 199.528 164.697 203.749C164.413 210.112 166.494 215.183 168.07 218.113C168.921 219.215 170.434 221.042 172.673 223.027C172.673 223.027 177.748 227.5 185.819 230.933C194.047 234.461 217.975 238.714 250.478 239.533C249.532 243.565 247.83 248.51 244.803 253.834C243.132 256.763 241.304 259.346 239.507 261.583C240.705 263.158 244.11 267.158 250.888 269.678C257.413 272.104 263.403 271.82 265.768 271.631C269.172 268.513 272.672 264.796 275.919 260.354C285.471 247.219 287.709 234.524 288.119 226.366C285.755 224.665 282.287 222.334 277.747 219.845C268.29 214.648 259.62 211.813 252.495 209.702C240.232 206.111 228.504 203.623 201.518 199.055C193.07 197.638 181.374 195.685 167.219 193.574Z" fill="white" stroke="#191919" stroke-width="2" stroke-miterlimit="10"/>
<path opacity="0.19" d="M197.168 198.993C198.082 205.009 200.667 212.821 208.675 217.672C216.462 222.397 222.987 220.476 238.593 224.256C249.816 226.965 264.664 230.556 268.794 238.525C273.113 246.904 264.948 258.717 250.667 268.419C249.469 268.261 247.956 267.946 246.348 267.316C242.218 265.678 240.2 263.001 239.444 261.835C241.272 259.63 243.164 257.079 244.898 254.149C248.176 248.668 249.942 243.565 250.951 239.439C234.242 238.746 220.213 237.297 209.557 235.911C196.727 234.241 187.836 232.572 179.356 227.784C172.263 223.783 169.425 219.846 168.417 218.334C165.359 213.703 165.106 209.482 164.98 207.12C164.665 201.355 166.557 196.662 168.133 193.701C177.811 195.465 187.49 197.229 197.168 198.993Z" fill="#6C6D6D"/>
<path opacity="0.19" d="M167.818 194.362C168.448 200.221 170.687 209.482 179.609 216.79C185.094 221.294 190.989 223.31 214.129 229.547C224.343 232.288 236.701 235.532 250.762 239.06C232.887 238.871 218.354 237.391 207.919 235.973C197.105 234.493 191.809 233.201 186.323 230.839C181.122 228.602 170.624 224.066 166.336 214.522C162.206 205.261 166.368 196.945 167.818 194.362Z" fill="#6C6D6D"/>
<path opacity="0.22" d="M250.667 239.533C250.794 243.691 250.604 248.448 249.816 253.677C249.06 258.843 247.83 263.473 246.506 267.505C245.434 266.875 244.205 266.025 243.007 264.985C241.557 263.725 240.485 262.528 239.697 261.489C241.525 259.095 243.385 256.323 245.119 253.204C247.925 248.164 249.596 243.502 250.667 239.533Z" fill="#6C6D6D"/>
<path d="M252.117 285.901C249.69 290.658 247.294 295.414 244.867 300.202C260.377 318.409 262.395 323.575 261.228 324.835C258.927 327.355 242.408 316.236 240.705 315.102C234.558 310.975 229.892 306.975 226.802 304.14C227.906 300.265 229.356 295.918 231.374 291.288C233.99 285.24 236.922 280.137 239.665 275.947C243.826 279.286 247.988 282.594 252.117 285.901Z" fill="#191919"/>
<path d="M161.449 192.598C160.346 195.717 159.211 200.064 159.022 205.387C158.738 213.388 160.756 219.751 162.269 223.437C163.089 224.823 164.539 227.122 166.683 229.642C166.683 229.642 171.538 235.281 179.293 239.596C187.206 244.006 210.22 249.393 241.43 250.401C240.516 255.472 238.908 261.678 235.976 268.356C234.368 272.041 232.603 275.286 230.869 278.089C232.004 280.074 235.282 285.082 241.808 288.264C248.082 291.319 253.819 290.973 256.121 290.689C259.4 286.783 262.773 282.09 265.862 276.514C275.068 260.008 277.211 244.038 277.59 233.8C275.32 231.69 271.978 228.729 267.628 225.61C258.517 219.09 250.226 215.499 243.353 212.853C231.594 208.348 220.276 205.23 194.331 199.465C186.323 197.67 175.037 195.244 161.449 192.598Z" fill="white" stroke="#191919" stroke-width="2" stroke-miterlimit="10"/>
<path opacity="0.19" d="M190.232 199.402C191.115 206.962 193.605 216.759 201.298 222.87C208.769 228.823 215.074 226.398 230.049 231.154C240.831 234.556 255.112 239.092 259.084 249.109C263.245 259.63 255.396 274.498 241.682 286.657C240.515 286.468 239.065 286.059 237.521 285.271C233.548 283.224 231.625 279.853 230.9 278.373C232.666 275.601 234.494 272.388 236.165 268.702C239.318 261.804 241.02 255.409 241.966 250.212C225.888 249.33 212.426 247.534 202.149 245.802C189.791 243.723 181.279 241.612 173.114 235.596C166.304 230.556 163.561 225.61 162.616 223.72C159.684 217.893 159.432 212.601 159.306 209.64C159.022 202.395 160.819 196.504 162.332 192.787C171.632 194.961 180.932 197.166 190.232 199.402Z" fill="#6C6D6D"/>
<path opacity="0.19" d="M162.048 193.575C162.647 200.914 164.791 212.569 173.366 221.767C178.662 227.437 184.305 229.957 206.531 237.801C216.367 241.266 228.22 245.329 241.745 249.771C224.563 249.519 210.566 247.692 200.541 245.896C190.137 244.038 185.03 242.431 179.797 239.47C174.784 236.635 164.728 230.965 160.566 218.932C156.626 207.277 160.629 196.851 162.048 193.575Z" fill="#6C6D6D"/>
<path opacity="0.22" d="M241.65 250.369C241.776 255.598 241.587 261.583 240.831 268.135C240.074 274.656 238.939 280.452 237.646 285.492C236.606 284.673 235.44 283.633 234.273 282.31C232.886 280.735 231.846 279.223 231.089 277.932C232.855 274.908 234.652 271.443 236.291 267.505C239.002 261.205 240.641 255.315 241.65 250.369Z" fill="#6C6D6D"/>
<path d="M253.915 143.647C254.514 143.364 255.712 142.828 255.68 142.23C255.617 141.253 252.37 140.592 249.943 140.623C248.303 140.623 245.277 140.97 241.746 143.427C245.056 144.466 249.943 145.411 253.915 143.647Z" fill="white" stroke="#191919" stroke-width="2" stroke-miterlimit="10"/>
<path d="M178.096 102.792C184.085 102.004 189.476 110.982 189.981 111.801C191.809 114.919 192.03 116.998 193.291 122.7C196.349 136.591 197.988 143.647 202.528 147.9C206.626 151.711 211.418 152.625 212.679 152.814C218.07 153.664 222.957 151.648 232.477 147.585C240.516 144.151 241.494 142.891 245.876 142.387C248.114 142.135 254.64 141.411 258.959 145.6C261.733 148.278 262.963 152.562 261.954 153.444C260.661 154.578 255.365 150.577 255.302 150.672C255.27 150.735 256.878 151.491 258.202 153.129C258.864 153.916 259.999 155.617 259.589 156.058C258.864 156.94 254.419 151.585 249.533 152.53C246.191 153.16 245.56 156.184 241.683 156.751C239.413 157.098 237.427 156.405 236.166 155.806C233.959 158.2 230.365 161.602 225.163 164.374C222.074 166.012 211.166 171.651 197.831 168.375C183.676 164.91 176.551 153.853 174.313 150.388C173.052 148.404 163.783 133.599 168.26 116.998C169.048 114.321 171.917 103.611 178.096 102.792Z" fill="white" stroke="#191919" stroke-width="2" stroke-miterlimit="10"/>
<path opacity="0.25" d="M178.726 102.886C180.775 103.957 176.803 111.391 177.307 122.038C177.78 132.276 182.162 139.836 184.117 143.301C186.765 147.931 190.264 153.979 197.231 157.917C206.594 163.209 218.196 162.421 226.455 158.83C228.914 157.759 231.405 154.294 236.827 152.184C239.192 151.27 241.052 150.892 243.227 150.451C248.555 149.412 253.284 148.467 257.666 150.672C259.746 151.743 261.48 153.381 261.354 153.601C261.228 153.822 258.801 152.593 256.657 151.428C259.242 154.861 259.652 155.838 259.463 156.027C259.242 156.216 258.454 155.491 256.436 154.357C254.261 153.16 252.685 152.31 250.762 152.467C249.784 152.562 249.028 152.877 248.586 153.066C246.853 153.822 246.443 154.704 244.709 155.586C243.637 156.121 242.754 156.342 242.281 156.436C241.272 156.657 239.192 156.94 236.449 155.964C234.053 158.484 223.051 169.635 206.941 169.414C198.65 169.288 192.565 166.201 190.169 164.973C177.023 158.137 171.79 146.01 170.466 142.671C166.368 132.339 164.917 117.03 172.421 107.422C174.217 105.091 177.307 102.162 178.726 102.886Z" fill="#6C6D6D"/>
<path d="M261.386 153.443C260.156 151.616 258.549 150.167 256.626 149.128C256.216 148.907 256.594 148.309 256.972 148.529C258.99 149.632 260.692 151.175 261.985 153.097C262.269 153.475 261.638 153.821 261.386 153.443Z" fill="#191919"/>
<path d="M261.008 149.38C259.778 147.459 257.792 146.451 255.806 145.474C255.396 145.285 255.743 144.655 256.153 144.876C258.265 145.884 260.346 146.986 261.638 149.034C261.859 149.412 261.26 149.758 261.008 149.38Z" fill="#191919"/>
<path opacity="0.29" d="M169.679 114.226C170.152 117.408 171.003 122.007 172.516 127.425C175.48 138.135 178.159 147.774 185.158 155.428C193.827 164.878 205.586 167.461 212.333 168.249C207.32 169.414 203.38 169.194 200.889 168.847C181.974 166.201 171.76 145.884 168.985 137.001C168.513 135.426 167.504 132.181 167.378 127.74C167.157 121.818 168.607 117.061 169.679 114.226Z" fill="#6C6D6D"/>
<path opacity="0.26" d="M248.902 152.152C247.105 153.034 244.646 154.011 241.62 154.578C239.224 155.019 237.08 155.113 235.378 155.05C239.697 157.35 241.935 157.066 243.196 156.31C243.984 155.838 244.867 154.893 247.294 153.223C247.956 152.751 248.524 152.373 248.902 152.152Z" fill="#6C6D6D"/>
<path d="M312.646 203.938C312.646 219.058 312.646 234.21 312.646 249.33C312.646 251.157 309.809 251.157 309.809 249.33C309.809 234.21 309.809 219.058 309.809 203.938C309.809 202.143 312.646 202.111 312.646 203.938Z" fill="#161616"/>
<path d="M261.071 203.339C261.071 205.765 261.071 208.19 261.071 210.616C261.071 212.443 258.233 212.443 258.233 210.616C258.233 208.19 258.233 205.765 258.233 203.339C258.233 201.512 261.071 201.512 261.071 203.339Z" fill="#161616"/>
<path d="M351.801 202.079C336.511 187.684 321.221 173.257 305.9 158.861C281.152 159.302 256.436 159.743 231.689 160.184C235.724 174.17 239.759 188.125 243.794 202.111C279.797 202.079 315.799 202.079 351.801 202.079Z" fill="white" stroke="#191919" stroke-width="2" stroke-miterlimit="10"/>
<path d="M350.887 203.717C323.239 203.717 295.622 203.717 267.974 203.717C260.219 203.717 252.495 203.717 244.74 203.717C242.912 203.717 242.912 200.882 244.74 200.882C272.388 200.882 300.005 200.882 327.652 200.882C335.408 200.882 343.132 200.882 350.887 200.882C352.715 200.882 352.715 203.717 350.887 203.717Z" fill="#161616"/>
<path d="M342.786 203.245C342.786 234.587 342.786 265.93 342.786 297.241C342.786 306.029 342.786 314.786 342.786 323.575C342.786 325.402 339.949 325.402 339.949 323.575C339.949 292.232 339.949 260.89 339.949 229.579C339.949 220.79 339.949 212.033 339.949 203.245C339.949 201.418 342.786 201.418 342.786 203.245Z" fill="#161616"/>
<path d="M256.311 203.245C256.311 234.587 256.311 265.93 256.311 297.241C256.311 306.029 256.311 314.786 256.311 323.575C256.311 325.402 253.474 325.402 253.474 323.575C253.474 292.232 253.474 260.89 253.474 229.579C253.474 220.79 253.474 212.033 253.474 203.245C253.474 201.418 256.311 201.418 256.311 203.245Z" fill="#161616"/>
<path d="M341.367 261.74C319.11 261.74 296.852 261.74 274.595 261.74C268.29 261.74 261.985 261.74 255.68 261.74C253.851 261.74 253.851 258.906 255.68 258.906C277.937 258.906 300.194 258.906 322.451 258.906C328.756 258.906 335.061 258.906 341.367 258.906C343.195 258.906 343.195 261.74 341.367 261.74Z" fill="#161616"/>
<path d="M232.067 160.184C235.661 174.202 239.791 188.093 244.52 201.764C244.93 202.93 243.101 203.402 242.691 202.268C237.962 188.566 233.833 174.706 230.239 160.688C229.955 159.523 231.752 159.019 232.067 160.184Z" fill="#161616"/>
<path d="M325.794 326.032C321.947 326.032 318.07 326.032 314.224 326.032C312.395 326.032 312.395 323.197 314.224 323.197C318.07 323.197 321.947 323.197 325.794 323.197C327.622 323.197 327.622 326.032 325.794 326.032Z" fill="#161616"/>
<path d="M275.604 326.442C260.534 326.442 245.465 326.442 230.364 326.442C228.536 326.442 228.536 323.607 230.364 323.607C245.434 323.607 260.503 323.607 275.604 323.607C277.432 323.607 277.432 326.442 275.604 326.442Z" fill="#161616"/>
<path d="M220.056 325.434C217.377 325.434 214.697 325.434 211.986 325.434C210.157 325.434 210.157 322.599 211.986 322.599C214.665 322.599 217.345 322.599 220.056 322.599C221.885 322.599 221.885 325.434 220.056 325.434Z" fill="#161616"/>
<path d="M260.314 196.126C279.766 195.622 299.249 195.15 318.7 194.646C307.162 183.621 295.655 172.564 284.116 161.539C270.812 162.232 257.477 162.925 244.173 163.618C249.564 174.486 254.924 185.29 260.314 196.126Z" fill="white" stroke="#191919" stroke-width="2" stroke-miterlimit="10"/>
<path d="M284.778 161.319C296.095 172.249 307.413 183.211 318.731 194.142C319.235 176.628 319.771 159.082 320.276 141.568C308.8 134.323 297.325 127.078 285.85 119.833C285.534 133.662 285.156 147.49 284.778 161.319Z" fill="white" stroke="#191919" stroke-width="2" stroke-miterlimit="10"/>
<path d="M319.235 143.238C318.321 158.83 317.722 174.454 317.406 190.078C317.406 190.393 316.933 190.393 316.933 190.078C317.249 174.454 317.848 158.83 318.762 143.238C318.793 142.954 319.266 142.954 319.235 143.238Z" fill="#191919"/>
<path d="M318.983 143.301C308.422 136.434 297.861 129.567 287.3 122.7C287.047 122.542 287.268 122.133 287.552 122.29C298.113 129.157 308.674 136.024 319.235 142.891C319.487 143.08 319.267 143.49 318.983 143.301Z" fill="#191919"/>
<path d="M287.426 122.668C287.457 135.237 287.079 147.837 286.259 160.374C286.228 160.689 285.755 160.689 285.787 160.374C286.575 147.805 286.985 135.237 286.953 122.668C286.953 122.385 287.426 122.385 287.426 122.668Z" fill="#191919"/>
<path d="M317.091 190.74C306.751 180.754 296.379 170.769 286.038 160.815C285.818 160.594 286.165 160.279 286.385 160.468C296.726 170.454 307.098 180.439 317.438 190.393C317.627 190.614 317.312 190.96 317.091 190.74Z" fill="#191919"/>
<path d="M269.204 185.385C267.28 182.329 265.357 179.242 263.497 176.124C263.34 175.872 263.75 175.62 263.907 175.872C265.767 178.99 267.69 182.077 269.613 185.133C269.803 185.385 269.393 185.637 269.204 185.385Z" fill="#191919"/>
<path d="M263.624 176.029C261.134 176.124 258.643 176.124 256.153 175.998C255.837 175.998 255.837 175.525 256.153 175.525C258.643 175.62 261.134 175.62 263.624 175.557C263.939 175.557 263.939 176.029 263.624 176.029Z" fill="#191919"/>
<path d="M256.468 175.872C257.886 178.959 259.336 182.046 260.787 185.133C260.913 185.416 260.503 185.637 260.377 185.385C258.927 182.298 257.476 179.211 256.058 176.124C255.932 175.809 256.342 175.588 256.468 175.872Z" fill="#191919"/>
<path d="M269.362 185.637C266.588 186.046 263.656 185.857 260.85 185.731C260.535 185.731 260.535 185.259 260.85 185.259C263.593 185.385 266.493 185.574 269.236 185.196C269.551 185.133 269.677 185.605 269.362 185.637Z" fill="#191919"/>
<path d="M259.021 175.903C260.282 179.053 261.732 182.109 263.371 185.07C263.529 185.322 263.119 185.574 262.962 185.322C261.322 182.298 259.841 179.211 258.548 176.029C258.453 175.746 258.895 175.62 259.021 175.903Z" fill="#191919"/>
<path d="M304.703 190.173C297.767 181.605 290.579 173.226 283.171 165.036C282.982 164.815 283.297 164.469 283.517 164.689C290.926 172.848 298.114 181.227 305.049 189.826C305.239 190.078 304.892 190.393 304.703 190.173Z" fill="#191919"/>
<path d="M296.316 190.708C290.105 182.046 283.548 173.667 276.675 165.54C276.486 165.319 276.801 164.973 277.022 165.193C283.926 173.352 290.483 181.762 296.725 190.456C296.915 190.708 296.505 190.96 296.316 190.708Z" fill="#191919"/>
<path d="M287.3 192C281.909 182.991 276.014 174.297 269.645 165.949C269.456 165.697 269.866 165.477 270.055 165.697C276.423 174.045 282.319 182.739 287.71 191.748C287.867 192 287.457 192.252 287.3 192Z" fill="#191919"/>
<path d="M279.734 192.787C274.437 182.928 268.164 173.635 260.976 165.067C260.787 164.847 261.102 164.5 261.323 164.721C268.542 173.32 274.847 182.644 280.175 192.535C280.301 192.819 279.891 193.071 279.734 192.787Z" fill="#191919"/>
<path d="M300.667 185.07C292.596 184.219 284.525 185.227 276.486 186.298C276.171 186.33 276.203 185.857 276.486 185.826C284.494 184.755 292.564 183.715 300.667 184.597C300.95 184.629 300.95 185.101 300.667 185.07Z" fill="#191919"/>
<path d="M296.599 180.471C288.97 180.187 281.341 180.754 273.838 182.203C273.554 182.266 273.428 181.794 273.712 181.762C281.246 180.313 288.939 179.746 296.599 180.03C296.883 179.998 296.883 180.471 296.599 180.471Z" fill="#191919"/>
<path d="M292.943 176.029C285.598 175.557 278.252 176.218 271.096 177.982C270.812 178.045 270.686 177.604 270.97 177.541C278.158 175.746 285.535 175.084 292.943 175.557C293.258 175.588 293.258 176.061 292.943 176.029Z" fill="#191919"/>
<path d="M289.16 171.588C282.098 171.619 275.099 172.344 268.195 173.761C267.911 173.824 267.785 173.352 268.069 173.32C275.005 171.903 282.066 171.178 289.16 171.147C289.443 171.115 289.443 171.588 289.16 171.588Z" fill="#191919"/>
<path d="M285.408 167.461C278.693 167.587 272.01 168.375 265.484 169.855C265.2 169.918 265.074 169.477 265.358 169.414C271.947 167.934 278.662 167.115 285.408 167.02C285.724 166.989 285.724 167.461 285.408 167.461Z" fill="#191919"/>
<path d="M263.781 172.249C266.871 176.785 269.929 181.321 273.018 185.857C273.176 186.109 272.766 186.361 272.609 186.109C269.519 181.573 266.461 177.037 263.372 172.501C263.182 172.218 263.592 171.997 263.781 172.249Z" fill="#191919"/>
<path d="M315.988 165.382C312.047 163.713 307.791 164.658 303.63 164.595C300.131 164.563 296.789 163.587 293.794 161.823C293.542 161.665 293.763 161.256 294.046 161.413C297.735 163.587 301.644 164.28 305.868 164.091C309.399 163.933 312.899 163.587 316.24 165.004C316.493 165.099 316.272 165.508 315.988 165.382Z" fill="#191919"/>
<path d="M305.364 163.429C298.618 159.618 295.497 151.585 288.466 148.215C288.183 148.089 288.435 147.679 288.719 147.805C295.78 151.207 298.87 159.208 305.616 163.02C305.869 163.177 305.648 163.587 305.364 163.429Z" fill="#191919"/>
<path d="M296.788 140.97C297.955 140.056 297.766 138.576 297.104 137.41C296.788 136.843 296.315 136.245 295.779 135.898C294.802 135.268 293.888 135.772 293.131 136.434C292.911 136.623 292.564 136.308 292.785 136.087C294.361 134.764 295.843 134.89 297.135 136.591C298.175 137.977 298.711 140.056 297.135 141.316C296.883 141.505 296.536 141.159 296.788 140.97Z" fill="#191919"/>
<path d="M199.69 117.943C208.328 127.519 210.661 138.04 211.922 143.993C214.223 155.018 211.796 159.428 211.638 180.376C211.575 189.29 211.953 196.504 212.237 201.04C210.282 202.552 198.176 211.561 182.004 208.6C170.024 206.426 162.805 198.929 160.535 196.378C159.999 193.385 159.242 188.975 158.36 183.62C153.694 154.735 151.392 140.087 154.293 129.598C156.027 123.235 160.314 113.155 172.483 102.728C177.59 103.799 189.854 107.075 199.69 117.943Z" fill="#605DEC"/>
<path opacity="0.19" d="M190.894 112.147C187.899 121.093 186.291 128.747 185.345 134.354C182.855 149.191 179.103 171.43 189.664 192.976C193.038 199.843 196.978 204.883 199.753 208.001C196.096 208.852 188.845 210.017 180.207 207.781C169.929 205.135 163.498 199.181 160.85 196.472C158.801 184.754 157.161 174.706 155.9 166.862C153.725 153.065 153.221 148.876 153.441 142.985C153.694 135.425 154.04 127.487 158.58 118.919C162.931 110.729 169.047 105.815 172.798 103.295C175.856 103.831 180.175 104.965 184.746 107.611C187.268 109.123 189.318 110.729 190.894 112.147Z" fill="#605DEC"/>
<path opacity="0.18" d="M155.081 127.172C155.648 127.204 154.451 135.929 156.311 147.962C159.747 170.233 170.781 185.668 175.037 191.149C178.599 195.716 184.179 202.016 192.344 208.222C189.413 208.663 185.503 208.852 181.027 208.001C170.403 206.017 163.656 199.496 161.071 196.693C160.409 192.85 159.337 186.833 157.981 179.399C154.797 162.011 154.167 159.932 153.662 154.514C152.275 139.741 154.419 127.172 155.081 127.172Z" fill="#605DEC"/>
<path d="M255.238 150.577C255.837 150.168 257.035 149.412 256.909 148.782C256.657 147.774 253.031 147.616 250.415 148.057C248.649 148.341 245.434 149.254 242.06 152.436C245.843 152.971 251.297 153.129 255.238 150.577Z" fill="white" stroke="#191919" stroke-width="2" stroke-miterlimit="10"/>
<path d="M166.242 120.4C172.578 118.542 179.987 127.078 180.649 127.897C183.171 130.89 183.77 133.032 186.135 138.828C191.872 153.003 194.867 160.153 200.542 163.87C205.617 167.209 210.945 167.335 212.364 167.335C218.322 167.304 223.24 164.343 232.824 158.421C240.894 153.412 241.714 151.9 246.38 150.64C248.744 150.01 255.68 148.12 261.071 151.806C264.507 154.137 266.619 158.484 265.674 159.586C264.476 161.004 258.044 157.665 258.013 157.791C257.981 157.854 259.873 158.389 261.575 159.901C262.426 160.626 263.94 162.201 263.593 162.768C262.962 163.839 257.225 158.925 252.118 160.752C248.65 161.98 248.461 165.288 244.394 166.579C241.998 167.335 239.728 166.926 238.278 166.516C236.323 169.446 233.013 173.635 227.906 177.447C224.848 179.715 214.066 187.527 199.092 186.361C183.203 185.133 173.556 174.643 170.561 171.399C168.827 169.54 156.248 155.46 158.171 137.127C158.455 134.134 159.685 122.353 166.242 120.4Z" fill="white" stroke="#191919" stroke-width="2" stroke-miterlimit="10"/>
<path opacity="0.25" d="M166.935 120.4C169.331 121.188 166.336 129.724 168.763 140.907C171.065 151.648 177.118 158.893 179.86 162.201C183.549 166.642 188.372 172.438 196.6 175.399C207.634 179.368 220.024 176.565 228.315 171.367C230.774 169.792 232.855 165.729 238.372 162.547C240.768 161.161 242.691 160.468 244.992 159.618C250.541 157.602 255.522 155.775 260.597 157.381C263.025 158.137 265.2 159.586 265.074 159.838C264.948 160.122 262.142 159.208 259.62 158.358C262.993 161.539 263.624 162.516 263.466 162.768C263.277 163.02 262.268 162.358 259.904 161.539C257.319 160.626 255.522 160.027 253.441 160.531C252.401 160.783 251.644 161.256 251.171 161.539C249.437 162.61 249.154 163.65 247.451 164.878C246.411 165.634 245.465 166.012 244.961 166.201C243.92 166.611 241.714 167.272 238.593 166.705C236.449 169.792 226.518 183.463 209.085 185.983C200.1 187.275 193.006 185.07 190.201 184.156C174.816 179.179 167.029 167.272 165.012 163.965C158.77 153.759 154.514 137.82 160.945 126.354C162.458 123.487 165.295 119.865 166.935 120.4Z" fill="#6C6D6D"/>
<path d="M265.106 159.681C263.435 157.948 261.48 156.688 259.21 155.932C258.769 155.775 258.958 155.113 259.4 155.239C261.764 156.058 263.876 157.381 265.61 159.177C265.925 159.523 265.421 160.027 265.106 159.681Z" fill="#191919"/>
<path d="M263.971 155.459C262.3 153.601 259.968 152.876 257.635 152.215C257.193 152.089 257.382 151.396 257.824 151.522C260.251 152.246 262.71 153.034 264.444 154.955C264.791 155.302 264.287 155.774 263.971 155.459Z" fill="#191919"/>
<path opacity="0.29" d="M159.148 133.945C160.22 137.221 161.954 141.946 164.508 147.427C169.583 158.232 174.155 167.965 183.076 174.864C194.079 183.369 207.256 184.093 214.665 183.747C209.463 185.857 205.144 186.298 202.401 186.361C181.532 186.802 166.904 167.052 162.364 158.169C161.576 156.594 159.936 153.318 158.991 148.656C157.761 142.387 158.486 137.127 159.148 133.945Z" fill="#6C6D6D"/>
<path opacity="0.26" d="M251.361 160.436C249.595 161.665 247.105 163.114 243.92 164.248C241.398 165.13 239.097 165.571 237.269 165.791C242.344 167.461 244.709 166.799 245.938 165.791C246.695 165.161 247.483 163.996 249.847 161.822C250.446 161.224 250.982 160.751 251.361 160.436Z" fill="#6C6D6D"/>
<path d="M215.107 56.8642C215.453 58.8802 215.8 60.8962 216.084 63.0067C217.313 71.5747 217.818 79.6707 217.849 87.1987C216.115 87.0097 214.413 86.8207 212.679 86.6637C212.868 88.3327 213.404 94.4437 209.495 100.492C205.807 106.193 200.51 108.272 198.871 108.839C199.06 111.926 199.218 114.982 199.407 118.069C196.002 115.045 191.368 111.485 185.472 108.304C180.964 105.878 176.708 104.209 173.083 103.075C177.15 98.0347 178.694 93.2777 179.356 90.5377C180.491 85.8127 180.271 81.7497 180.05 78.1587C179.829 74.4727 179.293 71.4177 178.821 69.2757C177.339 62.5342 181.217 51.8557 188.94 48.0127C196.569 44.2012 207.95 47.4142 215.107 56.8642Z" fill="white" stroke="#161616" stroke-width="2" stroke-miterlimit="10"/>
<path d="M213.403 86.8837C212.52 86.7577 211.606 86.6627 210.723 86.5687C210.408 86.5367 210.408 86.0647 210.723 86.0957C211.669 86.1907 212.583 86.3167 213.529 86.4427C213.813 86.4427 213.687 86.9147 213.403 86.8837Z" fill="#161616"/>
<path d="M184.968 61.7466C188.783 62.7231 189.476 66.0307 194.3 72.9287C199.186 79.9217 202.276 84.3007 207.792 86.8517C211.355 88.4897 213.12 88.0487 214.697 90.1597C217.408 93.8137 215.579 99.8297 213.972 102.917C212.111 106.477 209.274 108.619 206.941 110.383C204.703 112.052 202.654 113.155 201.204 113.816C202.748 111.454 202.843 110.729 202.654 110.509C202.149 110.005 200.006 112.714 197.484 112.367C196.759 112.273 195.466 111.863 192.597 107.359C190.643 104.303 189.318 102.193 188.436 99.1687C186.513 92.6797 189.224 90.9157 188.436 82.3787C188.31 81.0877 187.427 70.9757 183.833 70.3147C182.54 70.0627 181.216 71.1337 180.586 71.9527C179.262 73.6847 179.419 76.4567 181.059 78.8507C180.523 78.4727 175.384 75.0077 175.447 69.3697C175.447 68.4877 175.479 65.2427 177.938 63.1326C180.744 60.7386 184.653 61.6836 184.968 61.7466Z" fill="#161616" stroke="#161616" stroke-width="2" stroke-miterlimit="10"/>
<path d="M210.377 76.0787C209.646 76.0787 209.053 75.0217 209.053 73.7167C209.053 72.4117 209.646 71.3547 210.377 71.3547C211.109 71.3547 211.701 72.4117 211.701 73.7167C211.701 75.0217 211.109 76.0787 210.377 76.0787Z" fill="#161616"/>
<path d="M220.466 77.1818C219.735 77.1818 219.142 76.1238 219.142 74.8198C219.142 73.5148 219.735 72.4568 220.466 72.4568C221.197 72.4568 221.79 73.5148 221.79 74.8198C221.79 76.1238 221.197 77.1818 220.466 77.1818Z" fill="#161616"/>
<path d="M222.452 70.9448C221.601 69.9678 220.276 69.8738 219.331 70.8188C218.889 71.2598 218.227 70.5668 218.669 70.1568C219.961 68.8968 221.947 68.9288 223.145 70.2828C223.492 70.7558 222.83 71.4178 222.452 70.9448Z" fill="#161616"/>
<path d="M212.111 69.3068C211.008 68.3928 209.558 68.5188 208.612 69.5588C208.202 69.9998 207.54 69.3378 207.95 68.8968C209.274 67.4798 211.323 67.4168 212.805 68.6448C213.246 69.0228 212.584 69.6848 212.111 69.3068Z" fill="#161616"/>
<path d="M216.178 60.6126C215.831 58.3447 214.949 54.6276 212.521 50.7846C211.67 49.4301 209.842 46.5637 206.941 44.6107C201.393 40.9252 192.849 41.2087 186.639 45.7447C180.554 50.1862 177.528 58.1242 178.852 65.9988C191.304 64.2348 203.726 62.4396 216.178 60.6126Z" fill="#87BFC1"/>
<path d="M236.544 60.8961C217.408 63.3527 198.24 65.8097 179.104 68.2357C177.307 68.4557 177.307 65.6207 179.104 65.4007C198.24 62.9436 217.408 60.4866 236.544 58.0611C238.341 57.8091 238.341 60.6441 236.544 60.8961Z" fill="#161616"/>
<path d="M199.974 42.311C195.056 43.382 191.336 47.351 190.705 52.1075C190.138 56.2655 191.966 60.4865 195.434 63.0695C189.98 63.7937 184.494 64.5497 179.041 65.2747C178.757 63.8257 178.505 61.6205 178.851 59.0375C179.671 52.9895 183.17 49.115 184.305 47.9495C185.535 46.6895 189.885 42.4685 196.348 42.0905C197.83 42.0275 199.091 42.1535 199.974 42.311Z" fill="#447C7E"/>
</svg>
