<svg width="43" height="35" viewBox="0 0 43 35" fill="none" xmlns="http://www.w3.org/2000/svg">
<path d="M21.307 21.3137C20.8766 14.5807 26.4713 9.13014 32.5674 9.47873C38.4311 9.81011 43.2576 15.4306 42.5303 21.7957C42.5238 21.8523 42.5017 21.9061 42.4666 21.951C42.4315 21.996 42.3846 22.0303 42.3313 22.0503C42.2779 22.0704 42.22 22.0753 42.164 22.0645C42.108 22.0537 42.056 22.0277 42.0138 21.9893C39.3081 19.5161 35.8385 18.0417 32.1801 17.8105C26.2712 17.4705 22.2258 20.5713 21.307 21.3137Z" fill="#177ACB"/>
<path d="M21.3069 21.3136C25.1586 15.7749 32.9417 15.0067 37.4907 19.0671C41.8717 22.9791 42.1472 30.3835 37.6112 34.9087C37.571 34.9493 37.5205 34.9779 37.465 34.9913C37.4096 35.0048 37.3515 35.0026 37.2973 34.9849C37.2431 34.9673 37.1948 34.9349 37.1579 34.8915C37.121 34.848 37.0969 34.7951 37.0883 34.7388C36.5094 31.1215 34.7143 27.8098 31.9992 25.3504C27.5859 21.3997 22.4969 21.305 21.3069 21.3136Z" fill="#EB6300"/>
<path d="M21.3074 21.3136C14.5637 21.5761 9.25731 15.8286 9.76298 9.74979C10.245 3.89687 15.9903 -0.783307 22.3338 0.109693C22.3905 0.117272 22.4439 0.140482 22.4881 0.176719C22.5323 0.212956 22.5656 0.260789 22.5841 0.314856C22.6026 0.368922 22.6058 0.427085 22.5931 0.482824C22.5804 0.538563 22.5525 0.589674 22.5124 0.630429C19.9752 3.27226 18.414 6.69981 18.0862 10.348C17.5913 16.2504 20.5866 20.3754 21.3074 21.3136Z" fill="#EB6300"/>
<path d="M21.3072 21.3136C15.8674 17.3199 15.3015 9.51741 19.4803 5.07608C23.5042 0.798286 30.9129 0.716517 35.3198 5.36657C35.3591 5.40792 35.3863 5.45935 35.3983 5.51518C35.4103 5.571 35.4066 5.62905 35.3877 5.68293C35.3688 5.7368 35.3354 5.78439 35.2911 5.82046C35.2468 5.85653 35.1935 5.87966 35.1369 5.88731C31.5057 6.37064 28.1482 8.07861 25.6194 10.7289C21.5547 15.0389 21.3287 20.1323 21.3072 21.3136Z" fill="#05477C"/>
<path d="M21.307 21.3136C21.705 28.051 16.063 33.4671 9.9777 33.0883C4.11617 32.7247 -0.680205 27.0762 0.0793831 20.7154C0.0855072 20.6586 0.107369 20.6045 0.142513 20.5594C0.177657 20.5142 0.224692 20.4798 0.278335 20.4599C0.331978 20.44 0.390104 20.4354 0.446186 20.4468C0.502268 20.4581 0.554085 20.4848 0.595817 20.5239C3.28714 23.0085 6.74541 24.5008 10.3994 24.7544C16.3191 25.131 20.3817 22.0517 21.307 21.3136Z" fill="#177ACB"/>
<path d="M21.3075 21.3135C17.4214 26.8308 9.63399 27.5538 5.10874 23.4653C0.751334 19.5297 0.518938 12.121 5.08077 7.62373C5.12149 7.5839 5.1724 7.55608 5.22791 7.5433C5.28342 7.53052 5.34137 7.53329 5.3954 7.5513C5.44944 7.56931 5.49747 7.60187 5.53421 7.6454C5.57094 7.68892 5.59497 7.74173 5.60366 7.79803C6.16143 11.4179 7.93681 14.7394 10.6367 17.2143C15.0286 21.193 20.1305 21.3157 21.3075 21.3135Z" fill="#05477C"/>
</svg>
