<svg width="151" height="212" viewBox="0 0 151 212" fill="none" xmlns="http://www.w3.org/2000/svg">
<path d="M114.583 17.9866C109.867 20.7778 108.52 25.5903 107.961 27.5731C107.827 28.0543 106.248 33.9641 108.982 40.1241C109.79 41.9528 110.656 43.8393 112.62 44.744C113.756 45.283 114.776 45.2446 118.78 44.8981C120.647 44.7441 122.668 44.5516 124.824 44.3206C126.345 42.3763 128.963 38.4878 129.733 33.0208C129.868 32.0005 131.446 19.8346 124.824 16.6006C120.493 14.4638 115.276 17.5631 114.583 17.9866Z" fill="#EC615B"/>
<path d="M27.4963 46.6882C29.899 46.6882 31.8468 44.5336 31.8468 41.8757C31.8468 39.2179 29.899 37.0632 27.4963 37.0632C25.0935 37.0632 23.1458 39.2179 23.1458 41.8757C23.1458 44.5336 25.0935 46.6882 27.4963 46.6882Z" fill="#EC615B"/>
<path d="M126.152 123.804C127.938 123.804 129.386 122.408 129.386 120.685C129.386 118.963 127.938 117.567 126.152 117.567C124.366 117.567 122.918 118.963 122.918 120.685C122.918 122.408 124.366 123.804 126.152 123.804Z" fill="#EC615B"/>
<path d="M27.5347 104.977C28.8636 104.977 29.9409 103.9 29.9409 102.571C29.9409 101.242 28.8636 100.165 27.5347 100.165C26.2057 100.165 25.1284 101.242 25.1284 102.571C25.1284 103.9 26.2057 104.977 27.5347 104.977Z" fill="#EC615B"/>
<path d="M23.0495 45.0906C25.1652 45.0906 26.8802 43.2893 26.8802 41.0673C26.8802 38.8453 25.1652 37.0441 23.0495 37.0441C20.9338 37.0441 19.2188 38.8453 19.2188 41.0673C19.2188 43.2893 20.9338 45.0906 23.0495 45.0906Z" fill="#5222D0"/>
<path d="M125.267 118.876C126.575 118.876 127.635 117.773 127.635 116.412C127.635 115.051 126.575 113.948 125.267 113.948C123.959 113.948 122.899 115.051 122.899 116.412C122.899 117.773 123.959 118.876 125.267 118.876Z" fill="#5222D0"/>
<path d="M100.473 68.0558C100.05 67.3821 99.3568 68.0173 99.068 68.4793C98.4713 69.4418 98.0863 70.6353 98.529 71.7326C98.8563 72.5603 99.6648 73.2533 100.608 73.1186C101.474 73.0031 102.129 72.2908 102.11 71.4246C102.11 71.1936 101.782 71.0203 101.609 71.2128C100.589 72.5026 99.3375 74.3313 100.358 75.9868C101.07 77.1226 102.822 77.2766 103.515 76.0446C103.342 76.0253 103.168 76.0061 102.995 75.9676C103.091 76.5066 103.188 77.0456 103.265 77.5846C103.322 77.9503 103.881 77.7963 103.823 77.4306C103.727 76.8916 103.63 76.3526 103.553 75.8136C103.515 75.5633 103.13 75.5441 103.034 75.7366C102.726 76.2756 102.033 76.4681 101.474 76.1986C100.858 75.8906 100.589 75.1976 100.589 74.5238C100.589 73.4073 101.378 72.4256 102.033 71.5978C101.859 71.5208 101.705 71.4631 101.532 71.3861C101.551 72.1176 100.839 72.6566 100.127 72.5026C99.5878 72.3871 99.2413 71.9251 99.0488 71.4246C98.8563 70.9048 98.8755 70.3851 99.0295 69.8653C99.0488 69.8268 99.838 68.1136 99.9535 68.3061C100.165 68.6526 100.666 68.3638 100.473 68.0558Z" fill="#EC615B"/>
<path d="M21.8754 69.7883C22.2989 68.6333 23.7041 69.1338 24.1469 69.9423C24.3009 70.2118 24.3779 70.5198 24.4164 70.8278C24.4934 71.4053 24.4356 71.6363 23.9351 71.9828C23.3961 72.5218 23.2614 72.3101 23.5501 71.3476C23.6849 71.2898 23.8389 71.2321 23.9736 71.1743C24.3394 71.0781 24.7629 71.0973 25.1286 71.2128C26.0526 71.5208 26.5146 72.5026 26.3798 73.4073C26.3413 73.6384 26.5723 73.8693 26.8033 73.7346C28.0546 73.0223 29.7101 73.8116 29.9988 75.2169C30.0758 75.5826 30.6341 75.4286 30.5571 75.0629C30.1913 73.2918 28.0931 72.3678 26.5146 73.2533C26.6493 73.3688 26.8033 73.4651 26.9381 73.5806C27.1883 71.8866 25.8986 70.3081 24.1083 70.5776C23.4924 70.6738 22.5684 71.0588 22.4914 71.7903C22.4336 72.3871 22.9919 72.8298 23.5501 72.8876C25.2056 73.0416 25.1671 70.6353 24.6281 69.6728C23.8966 68.3638 21.8754 68.0366 21.2979 69.6536C21.1824 69.9808 21.7406 70.1348 21.8754 69.7883Z" fill="#EC615B"/>
<path d="M6.80239 164.383C12.9046 164.383 19.0262 164.383 25.1284 164.383C25.4942 164.383 25.4942 163.805 25.1284 163.805C19.0262 163.805 12.9046 163.805 6.80239 163.805C6.43664 163.805 6.43664 164.383 6.80239 164.383Z" fill="#E8E8E8"/>
<path d="M110.098 160.571C113.736 160.571 117.355 160.571 120.993 160.571C121.359 160.571 121.359 159.994 120.993 159.994C117.355 159.994 113.736 159.994 110.098 159.994C109.732 159.994 109.732 160.571 110.098 160.571Z" fill="#E8E8E8"/>
<path d="M119.896 97.7201C118.433 100.742 116.855 103.707 115.18 106.614C115.103 106.768 115.161 107.018 115.353 107.037C123.611 108.288 131.003 112.389 138.126 116.527C138.453 116.72 138.742 116.219 138.415 116.027C131.234 111.869 123.804 107.749 115.488 106.479C115.546 106.614 115.603 106.768 115.661 106.902C117.355 103.996 118.914 101.031 120.377 98.0089C120.551 97.6816 120.069 97.3736 119.896 97.7201Z" fill="#E8E8E8"/>
<path d="M121.167 108.211C121.744 106.556 122.322 104.881 122.899 103.226C123.15 102.533 123.323 101.763 123.65 101.089C123.727 100.685 123.977 100.377 124.362 100.146C124.593 100.203 124.824 100.261 125.055 100.319C125.402 100.415 125.748 100.492 126.076 100.588C126.865 100.781 128.135 100.781 128.001 101.84C127.904 102.59 127.462 103.399 127.211 104.13C126.634 105.767 126.076 107.403 125.498 109.039C125.383 109.386 125.941 109.54 126.056 109.193C126.807 107.037 127.558 104.862 128.309 102.706C128.482 102.205 128.963 101.358 128.578 100.819C128.155 100.242 126.884 100.203 126.23 100.03C125.594 99.8761 124.478 99.2986 123.823 99.6066C123.265 99.8569 123.15 100.819 122.976 101.301C122.187 103.553 121.398 105.824 120.609 108.077C120.493 108.404 121.051 108.558 121.167 108.211Z" fill="#E8E8E8"/>
<path d="M128.597 110.271C129.829 107.672 131.08 105.054 132.312 102.456C132.928 101.147 133.544 99.8568 134.18 98.5478C134.468 97.951 134.699 97.2388 135.065 96.6805C135.373 96.1993 135.45 96.0838 135.989 96.2955C136.278 96.411 136.624 96.6998 136.875 96.873C137.202 97.104 137.722 97.3543 137.953 97.6623C138.241 98.028 138.126 98.413 137.953 98.875C137.722 99.491 137.375 100.088 137.086 100.685C136.451 101.994 135.816 103.303 135.142 104.612C133.872 107.095 132.543 109.559 131.177 112.004C130.984 112.331 131.485 112.62 131.677 112.292C133.352 109.328 134.95 106.325 136.451 103.283C137.202 101.782 138.03 100.242 138.665 98.6825C139.108 97.5468 138.145 97.0848 137.298 96.488C136.624 96.026 135.566 94.9673 134.834 95.8335C134.372 96.3725 134.122 97.2773 133.814 97.9318C133.429 98.721 133.063 99.5103 132.678 100.319C131.138 103.553 129.598 106.787 128.077 110.021C127.943 110.31 128.443 110.618 128.597 110.271Z" fill="#E8E8E8"/>
<path d="M134.988 114.275C136.644 111.676 138.511 109.212 140.571 106.941C140.455 106.96 140.34 106.979 140.224 106.979C140.956 107.48 141.668 107.961 142.4 108.462C142.361 108.327 142.323 108.192 142.303 108.057C140.667 110.618 139.031 113.159 137.395 115.719C137.202 116.027 137.683 116.316 137.895 116.008C139.531 113.447 141.168 110.906 142.804 108.346C142.9 108.211 142.823 108.038 142.708 107.942C141.976 107.441 141.264 106.96 140.532 106.46C140.436 106.383 140.263 106.421 140.186 106.498C138.088 108.827 136.182 111.311 134.507 113.948C134.295 114.314 134.796 114.602 134.988 114.275Z" fill="#E8E8E8"/>
<path d="M103.168 92.6765C102.629 89.404 104.535 85.4578 108.231 85.4963C110.117 85.5155 111.946 86.2855 113.852 86.016C115.199 85.8235 116.354 85.0535 117.163 83.9948C117.971 82.936 118.433 81.6078 118.51 80.2795C118.606 78.316 117.856 76.314 118.395 74.3698C118.664 73.388 119.242 72.4833 120.223 72.1175C121.167 71.7903 122.187 71.9828 123.169 71.9443C124.593 71.8865 125.71 71.2705 126.422 70.0193C127.423 68.2675 127.192 66.1693 127.885 64.3213C128.713 62.0883 131.042 60.1825 133.506 61.2798C133.833 61.4338 134.141 60.9333 133.795 60.7793C130.445 59.2778 127.654 62.3 126.999 65.3415C126.576 67.3243 126.653 70.4043 124.285 71.1935C122.63 71.7518 120.762 70.8855 119.242 72.0213C117.99 72.9453 117.625 74.6393 117.644 76.1215C117.702 78.2968 118.375 80.4143 117.413 82.4933C116.527 84.4568 114.776 85.631 112.6 85.4963C110.675 85.3808 108.77 84.5915 106.825 85.092C103.534 85.9198 102.128 89.8083 102.648 92.8498C102.687 93.177 103.245 93.023 103.168 92.6765Z" fill="#E8E8E8"/>
<path d="M127.5 78.9513C126.788 77.3343 127.77 75.7943 129.329 75.2745C130.465 74.8895 131.716 74.8703 132.698 74.1003C133.468 73.5035 133.718 72.7528 133.622 71.7903C133.525 70.8855 133.525 70.1733 134.238 69.5573C134.834 69.0375 135.624 68.845 136.394 68.8065C138.511 68.7295 141.418 69.8075 142.958 67.7478C143.67 66.7853 143.458 65.5918 143.786 64.5138C144.228 63.0123 145.672 62.0883 147.212 62.1653C147.578 62.1845 147.578 61.607 147.212 61.5878C146.038 61.53 144.902 61.9728 144.094 62.8198C143.093 63.8785 143.227 65.072 142.919 66.4003C142.092 70.0385 137.029 67.4783 134.642 68.614C133.756 69.0375 133.044 69.7883 132.967 70.7893C132.871 71.9635 133.41 72.926 132.216 73.7345C131.581 74.158 130.85 74.2928 130.118 74.466C128.905 74.7548 127.712 75.1205 127.096 76.2948C126.595 77.2188 126.595 78.2775 127.019 79.2208C127.154 79.5865 127.635 79.2785 127.5 78.9513Z" fill="#E8E8E8"/>
<path d="M1.7589 65.3415C3.35665 63.4165 5.62815 61.838 8.24615 62.1075C11.0952 62.3963 12.5004 64.6678 12.7699 67.3242C13.2319 71.7325 12.1539 77.007 15.1377 80.7607C16.3119 82.243 18.0637 83.0322 19.9502 82.5702C22.2217 82.0312 23.9927 80.241 26.0139 79.1822C28.4009 77.931 31.6927 77.2572 33.8487 79.3555C35.4272 80.8955 35.7737 83.244 36.2934 85.2845C36.7747 87.1325 37.6024 89.173 39.2579 90.2702C40.2589 90.9247 41.3562 90.9825 42.5112 90.9055C43.8009 90.8092 46.4382 90.7322 46.1687 92.7535C46.1302 93.1192 46.7077 93.1192 46.7462 92.7535C46.8424 91.9642 46.4767 91.329 45.8414 90.867C44.8404 90.1355 43.6854 90.251 42.5112 90.328C41.1829 90.4242 40.0472 90.3087 39.0269 89.3655C38.1029 88.5185 37.5447 87.325 37.1404 86.1507C36.4667 84.1295 36.2742 81.9157 35.1192 80.0677C33.9834 78.239 32.0199 77.3535 29.9024 77.4305C27.2267 77.5267 24.9744 79.0667 22.8377 80.4912C21.8174 81.165 20.7202 81.8772 19.4689 82.089C17.9674 82.3392 16.6392 81.6847 15.6767 80.5682C13.8672 78.4507 13.5784 75.4285 13.4822 72.772C13.3859 70.2887 13.7132 67.5937 12.8854 65.1875C12.1347 62.993 10.2289 61.6263 7.93815 61.5108C5.28165 61.376 2.9524 62.9738 1.31615 64.9373C1.1044 65.226 1.50865 65.6302 1.7589 65.3415Z" fill="#E8E8E8"/>
<path d="M6.49456 86.4781C8.93931 91.6179 11.5188 96.6806 14.2523 101.666C14.4256 101.994 14.9261 101.705 14.7528 101.378C12.0193 96.3919 9.42056 91.3291 6.99506 86.1894C6.82181 85.8429 6.34056 86.1316 6.49456 86.4781Z" fill="#E8E8E8"/>
<path d="M0.738786 110.675C5.33954 107.903 9.88254 105.054 14.387 102.128C14.695 101.936 14.4063 101.435 14.0983 101.628C9.59379 104.554 5.05079 107.403 0.450036 110.175C0.142036 110.367 0.430786 110.868 0.738786 110.675Z" fill="#E8E8E8"/>
<path d="M9.30502 93.5621C9.92102 93.1771 10.537 92.792 11.1338 92.3878C11.4418 92.1953 11.153 91.6948 10.845 91.8873C10.229 92.2723 9.61302 92.6573 9.01627 93.0615C8.68902 93.2733 8.97777 93.7738 9.30502 93.5621Z" fill="#E8E8E8"/>
<path d="M11.2684 97.5083C11.9229 97.2195 12.5966 96.9308 13.2511 96.642C13.5976 96.488 13.2896 95.9875 12.9624 96.1415C12.3079 96.4303 11.6341 96.719 10.9796 97.0078C10.6331 97.1618 10.9411 97.6623 11.2684 97.5083Z" fill="#E8E8E8"/>
<path d="M12.6738 100.088C13.1935 99.5873 13.771 99.1638 14.4063 98.798C14.7336 98.6248 14.4448 98.1243 14.1175 98.2975C13.4438 98.6825 12.8278 99.1253 12.2695 99.6643C12 99.9338 12.4043 100.338 12.6738 100.088Z" fill="#E8E8E8"/>
<path d="M8.72733 104.092C9.11233 104.785 9.49733 105.478 9.88233 106.171C10.0556 106.498 10.5561 106.209 10.3828 105.882C9.99783 105.189 9.61283 104.496 9.22783 103.803C9.05458 103.476 8.55408 103.765 8.72733 104.092Z" fill="#E8E8E8"/>
<path d="M11.7884 102.263C12.0964 102.995 12.4044 103.726 12.7316 104.438C12.8856 104.785 13.3669 104.477 13.2321 104.15C12.9241 103.418 12.6161 102.687 12.2889 101.974C12.1349 101.647 11.6344 101.936 11.7884 102.263Z" fill="#E8E8E8"/>
<path d="M33.7717 48.4207C31.9044 47.8432 31.8081 45.8605 32.6936 44.3782C33.5599 42.9345 35.2347 42.5495 36.5437 43.743C37.6217 44.744 37.7179 46.4572 36.7169 47.5545C35.7159 48.671 34.0797 48.6517 32.9247 47.8047C32.6359 47.5737 32.3472 48.0742 32.6359 48.3052C34.0989 49.3832 36.2357 49.21 37.3329 47.6892C38.4687 46.1492 38.0644 43.9932 36.4667 42.9537C32.6166 40.4705 29.3056 47.6315 33.6177 48.979C33.9834 49.0945 34.1374 48.5362 33.7717 48.4207Z" fill="#E8E8E8"/>
<path d="M36.871 48.9213C35.4272 49.3641 35.0807 47.6316 35.716 46.7076C36.2358 45.9568 37.256 45.5141 38.18 45.7643C39.0655 45.9953 39.7008 46.9001 39.4698 47.8048C39.181 48.9406 37.9875 49.3448 36.9287 49.1716C36.563 49.1138 36.409 49.6721 36.7748 49.7298C38.1993 49.9801 39.7393 49.3641 40.0473 47.8241C40.3168 46.4958 39.2773 45.2831 37.9875 45.1291C36.563 44.9558 35.0037 45.9953 34.8112 47.4583C34.638 48.7288 35.793 49.8646 37.0635 49.4603C37.3908 49.3641 37.2368 48.8058 36.871 48.9213Z" fill="#E8E8E8"/>
<path d="M24.5895 61.4532C24.1275 62.3964 24.782 63.3397 25.7445 63.5899C26.476 63.7824 27.246 63.6092 27.9967 63.6477C28.8052 63.6862 29.6137 63.8787 30.3452 64.2059C31.9622 64.9374 33.0017 66.2657 33.0595 68.0559C33.1172 69.5574 32.6745 71.1167 33.329 72.5412C34.715 75.5442 38.5265 73.2534 40.49 75.1977C42.1263 76.8339 41.4525 79.8177 43.647 81.0689C43.9743 81.2614 44.263 80.7609 43.9358 80.5684C41.9723 79.4519 42.4343 76.5452 41.0483 74.9282C40.3168 74.0812 39.258 73.8502 38.18 73.7732C36.871 73.6962 35.177 73.9657 34.2145 72.8492C33.098 71.5402 33.6947 69.5767 33.637 68.0367C33.5985 66.8239 33.1942 65.7267 32.3472 64.8604C31.5965 64.1097 30.6147 63.5899 29.5945 63.3204C29.0747 63.1857 28.5357 63.0894 27.9967 63.0702C27.3037 63.0317 24.3007 63.3782 25.1092 61.7419C25.2632 61.4147 24.7627 61.1259 24.5895 61.4532Z" fill="#E8E8E8"/>
<path d="M4.47332 174.797C10.6911 174.797 16.9281 174.797 23.1458 174.797C23.5116 174.797 23.5116 174.219 23.1458 174.219C16.9281 174.219 10.6911 174.219 4.47332 174.219C4.08832 174.219 4.08832 174.797 4.47332 174.797Z" fill="#E8E8E8"/>
<path d="M19.2186 184.48C22.0676 184.749 24.9358 185.019 27.7848 184.692C29.1131 184.538 30.3836 184.249 31.6733 183.864C33.3481 183.363 34.8496 183.229 36.5821 183.537C37.9103 183.768 39.2193 184.095 40.5476 184.21C41.9528 184.326 43.3581 184.249 44.7634 184.114C47.7086 183.825 50.6539 183.325 53.5799 183.979C53.9456 184.056 54.0996 183.498 53.7339 183.421C50.9234 182.805 48.1129 183.209 45.2831 183.498C43.8779 183.633 42.4726 183.768 41.0673 183.691C39.4696 183.614 37.9296 183.19 36.3703 182.94C35.0613 182.728 33.8101 182.728 32.5203 183.036C31.1343 183.383 29.8253 183.845 28.4008 184.056C25.3593 184.499 22.2601 184.191 19.2186 183.922C18.8336 183.864 18.8528 184.441 19.2186 184.48Z" fill="#E8E8E8"/>
<path d="M49.6724 29.1515C48.9216 28.6318 47.9014 27.804 48.2094 26.7645C48.5366 25.6865 49.3451 26.2063 50.0959 25.956C51.0969 25.6288 51.0391 24.416 50.7504 23.6268C50.4616 22.8568 49.8456 20.9895 51.4434 21.6248C51.8091 21.7788 52.0786 22.029 52.5021 21.8943C52.8871 21.7788 53.0796 21.4323 53.1759 21.0665C53.2529 20.7393 53.1951 20.3928 53.1759 20.0463C53.1374 19.8153 53.1181 19.565 53.1181 19.334C53.0411 18.7758 53.3876 18.5448 54.1191 18.641C54.1383 19.0068 54.7158 19.0068 54.6966 18.641C54.6581 18.102 54.2538 17.717 53.6763 17.7363C53.0026 17.7555 52.6369 18.41 52.5599 19.026C52.5021 19.4495 52.8486 20.4313 52.6561 20.7778C52.4251 20.9318 52.1941 21.105 51.9439 21.259C51.8476 21.2013 51.7514 21.1435 51.6551 21.0858C51.4819 21.028 51.3471 20.9125 51.1739 20.874C50.5771 20.7393 50.0959 21.105 49.8841 21.644C49.5184 22.568 50.1729 23.338 50.3654 24.2043C50.6156 25.3978 49.7109 25.263 48.9216 25.3978C48.5751 25.4555 48.2864 25.6288 48.0554 25.879C46.8426 27.2843 48.2479 28.8435 49.4029 29.652C49.6916 29.8638 49.9804 29.3633 49.6724 29.1515Z" fill="#E8E8E8"/>
<path d="M53.4644 28.6125C52.8291 27.881 52.3479 26.88 53.5799 26.495C53.8879 26.3987 54.2344 26.4372 54.5231 26.2447C55.1584 25.802 54.8889 25.2052 54.7734 24.5892C54.7156 24.2427 54.5809 23.7807 54.7926 23.4342C54.9466 23.184 55.5049 23.0877 55.7936 23.03C56.1979 22.9337 56.6214 22.876 56.9679 22.645C57.4876 22.2792 57.6801 21.6247 57.3336 21.0665C57.1411 20.7585 56.6406 21.0472 56.8331 21.3552C57.4106 22.2792 54.7156 22.5295 54.2536 23.2032C53.7146 23.9925 54.8504 25.3785 53.9071 25.879C53.5414 26.0715 53.0794 25.9367 52.7329 26.187C52.4826 26.3602 52.3094 26.6297 52.2324 26.9185C52.0206 27.7462 52.5789 28.4585 53.0794 29.036C53.3104 29.3055 53.7146 28.9012 53.4644 28.6125Z" fill="#E8E8E8"/>
<path d="M30.7301 24.0503C30.2296 23.7038 30.1719 23.0878 30.3259 22.5488C30.4222 22.183 30.8841 21.182 31.3269 21.1435C32.0584 21.0665 32.4241 21.9905 32.6166 22.5295C32.7899 23.0493 32.8476 23.569 32.8669 24.108C32.8669 24.4738 33.4444 24.4738 33.4444 24.108C33.4251 23.03 32.7129 19.719 30.9419 20.6815C30.2681 21.0473 29.7676 22.106 29.6906 22.8375C29.6136 23.5305 29.8831 24.1465 30.4414 24.5508C30.7301 24.7625 31.0189 24.262 30.7301 24.0503Z" fill="#E8E8E8"/>
<path d="M30.4992 24.3582C29.8062 24.5315 29.1132 24.7047 28.4009 24.878C27.9967 24.9742 27.3037 25.0127 26.9764 25.3207C26.4182 25.8405 26.5722 27.4382 26.5722 28.112C26.5722 28.3045 26.7647 28.4392 26.938 28.3815C27.0342 28.3622 27.1305 28.3237 27.246 28.3045C27.7465 28.035 27.9967 28.2082 28.0159 28.7857C28.4009 29.1707 28.4009 29.4017 28.0159 29.4402C27.785 29.5365 27.5539 29.575 27.3037 29.575C27.1497 29.5942 27.015 29.6905 27.015 29.8637C27.0535 31.0957 27.1497 32.3085 27.2844 33.5405C27.3229 33.9062 27.9004 33.9062 27.8619 33.5405C27.7272 32.3085 27.6309 31.0957 27.5924 29.8637C27.4962 29.96 27.3999 30.0562 27.3037 30.1525C28.1122 30.0562 29.4019 29.729 29.2287 28.6317C29.0362 27.4575 27.6117 27.5922 26.8032 27.8232C26.9187 27.9195 27.0534 28.0157 27.1689 28.0927C27.1689 27.65 27.1689 27.2265 27.2074 26.7837C27.2652 26.0907 27.2267 25.8405 27.8619 25.5902C28.7282 25.2437 29.7484 25.1282 30.6532 24.8972C31.0189 24.8395 30.8649 24.2812 30.4992 24.3582Z" fill="#E8E8E8"/>
<path d="M33.2711 24.5315C34.0796 24.493 34.9074 24.493 35.7159 24.5892C36.4859 24.6855 36.4474 24.801 36.5629 25.4747C36.6399 25.8982 36.6592 26.341 36.6977 26.7645C36.8517 28.42 36.9672 30.0755 37.0634 31.731C37.0827 32.0967 37.6602 32.0967 37.6409 31.731C37.5254 29.4787 37.4484 27.1687 37.0827 24.9357C36.9864 24.3775 36.8902 24.2042 36.3126 24.108C35.3116 23.9155 34.2721 23.9155 33.2711 23.9732C32.9054 23.9732 32.9054 24.5507 33.2711 24.5315Z" fill="#E8E8E8"/>
<path d="M27.7079 33.9448C28.8436 33.7523 29.9794 33.5598 31.0959 33.3673C32.3856 33.1555 33.6176 33.2518 34.9074 33.1555C35.5041 33.0978 38.3339 32.809 37.2944 31.6348C37.0441 31.3653 36.6399 31.7695 36.8901 32.039C37.0441 32.2123 34.4261 32.5973 34.3684 32.5973C33.5599 32.6165 32.7514 32.578 31.9429 32.6743C30.4799 32.8475 29.0169 33.1555 27.5539 33.4058C27.1881 33.4443 27.3421 34.0025 27.7079 33.9448Z" fill="#E8E8E8"/>
<path d="M111.542 44.0702C109.116 43.0884 107.653 40.7399 106.768 38.3914C105.824 35.9467 105.42 33.2902 105.555 30.6722C105.786 25.8404 107.846 20.9509 111.657 17.8709C115.257 14.9449 120.589 14.1172 124.593 16.7737C128.77 19.5457 129.521 25.2629 129.56 29.8637C129.598 34.9842 128.405 40.3549 124.612 44.0317C124.343 44.2819 124.747 44.7054 125.017 44.4359C128.616 40.9324 129.983 35.9274 130.118 31.0379C130.253 26.2447 129.675 20.1809 125.729 16.8892C122.033 13.8092 116.547 13.9632 112.6 16.4657C108.231 19.2377 105.651 24.2619 105.093 29.3247C104.746 32.4624 105.131 35.7157 106.286 38.6802C107.268 41.1827 108.827 43.5697 111.407 44.6092C111.734 44.7632 111.869 44.2049 111.542 44.0702Z" fill="#161616"/>
<path d="M111.272 44.4359C110.618 45.3599 110.752 46.7266 111.715 47.4196C112.446 47.9394 113.524 48.0164 114.391 48.1319C115.43 48.2859 116.489 48.3436 117.548 48.3436C119.434 48.3244 121.59 48.1896 123.342 47.4581C124.612 46.9191 125.575 45.6486 124.901 44.2819C124.747 43.9546 124.247 44.2434 124.401 44.5706C125.844 47.5159 119.011 47.7661 117.528 47.7661C116.162 47.7661 114.795 47.6506 113.467 47.4004C112.831 47.2849 112.119 47.1694 111.715 46.6111C111.311 46.0336 111.388 45.2829 111.773 44.7439C111.984 44.4166 111.484 44.1279 111.272 44.4359Z" fill="#161616"/>
<path d="M111.888 47.5544C111.888 48.5169 111.907 49.4986 112.023 50.4611C112.081 50.9039 112.177 51.2889 112.543 51.5584C113.062 51.9434 113.929 51.9241 114.545 51.9819C115.584 52.0589 116.643 52.0589 117.682 52.0204C118.664 51.9819 119.646 51.9049 120.628 51.8086C121.205 51.7509 121.86 51.7701 122.302 51.3274C123.284 50.3649 123.303 48.5361 123.053 47.3234C122.976 46.9576 122.418 47.1116 122.495 47.4774C122.63 48.1319 122.668 48.7864 122.533 49.4601C122.341 50.4034 122.071 51.0194 121.013 51.2119C119.781 51.4429 118.395 51.4429 117.143 51.4621C115.911 51.4814 114.525 51.5391 113.313 51.2504C112.196 50.9809 112.485 48.4784 112.485 47.5544C112.466 47.1886 111.888 47.1886 111.888 47.5544Z" fill="#161616"/>
<path d="M112.081 26.8223C114.391 28.266 116.142 30.3835 117.124 32.9245C117.259 33.271 117.817 33.117 117.682 32.7705C116.643 30.0755 114.814 27.8425 112.389 26.3218C112.061 26.11 111.773 26.6105 112.081 26.8223Z" fill="#161616"/>
<path d="M117.586 32.9245C118.721 30.5375 120.377 28.497 122.495 26.9185C122.783 26.7067 122.495 26.187 122.206 26.418C120.011 28.0542 118.279 30.1717 117.085 32.6357C116.931 32.963 117.432 33.2517 117.586 32.9245Z" fill="#161616"/>
<path d="M117.124 32.2505C117.413 36.216 117.548 40.1815 117.49 44.147C117.49 44.5128 118.067 44.5128 118.067 44.147C118.125 40.1815 117.99 36.1968 117.702 32.2505C117.663 31.8655 117.086 31.8655 117.124 32.2505Z" fill="#161616"/>
<path d="M94.5824 41.9527C97.1426 41.0864 99.6836 40.2202 102.244 39.3539C102.59 39.2384 102.436 38.6802 102.09 38.7957C99.5296 39.6619 96.9886 40.5282 94.4284 41.3944C94.0626 41.5099 94.2166 42.0682 94.5824 41.9527Z" fill="#161616"/>
<path d="M97.5084 38.1025C98.3939 37.8523 99.2794 37.5828 100.165 37.3325C100.511 37.2363 100.377 36.678 100.011 36.7743C99.1254 37.0245 98.2399 37.294 97.3544 37.5443C97.0079 37.6598 97.1426 38.218 97.5084 38.1025Z" fill="#161616"/>
<path d="M91.098 31.6923C94.486 31.6538 97.8548 31.75 101.224 31.9618C101.589 31.981 101.589 31.4035 101.224 31.3843C97.8548 31.1725 94.4668 31.0955 91.098 31.1148C90.7323 31.1148 90.7323 31.6923 91.098 31.6923Z" fill="#161616"/>
<path d="M98.2592 29.0744C99.0677 29.2861 99.8954 29.3824 100.723 29.4016C101.089 29.4016 101.089 28.8241 100.723 28.8241C99.9339 28.8049 99.1639 28.7086 98.4132 28.5161C98.0474 28.4199 97.8934 28.9781 98.2592 29.0744Z" fill="#161616"/>
<path d="M97.0077 11.1526C100.03 13.7513 102.783 16.6003 105.266 19.7188C105.497 20.0076 105.901 19.6033 105.67 19.3145C103.187 16.196 100.434 13.3278 97.412 10.7483C97.1425 10.498 96.719 10.9023 97.0077 11.1526Z" fill="#161616"/>
<path d="M105.459 16.6196C105.978 17.1586 106.479 17.6976 106.999 18.2558C107.249 18.5253 107.653 18.1211 107.403 17.8516C106.883 17.3126 106.383 16.7736 105.863 16.2153C105.613 15.9458 105.208 16.3501 105.459 16.6196Z" fill="#161616"/>
<path d="M93.7353 17.6976C94.6785 18.2559 95.641 18.7756 96.6228 19.2569C96.95 19.4301 97.2388 18.9296 96.9115 18.7564C95.9298 18.2559 94.9673 17.7361 94.024 17.1971C93.6968 17.0046 93.408 17.5051 93.7353 17.6976Z" fill="#161616"/>
<path d="M127.23 13.3087C130.079 10.4597 132.928 7.61068 135.777 4.76168C136.047 4.49218 135.623 4.08793 135.373 4.35743C132.524 7.20643 129.675 10.0554 126.826 12.9044C126.557 13.1739 126.961 13.5782 127.23 13.3087Z" fill="#161616"/>
<path d="M130.099 14.637C130.83 14.098 131.562 13.5782 132.293 13.0392C132.582 12.8275 132.312 12.327 132.004 12.5387C131.273 13.0777 130.541 13.5975 129.81 14.1365C129.502 14.3482 129.791 14.8487 130.099 14.637Z" fill="#161616"/>
<path d="M118.337 9.53565C118.914 6.7444 119.357 3.9339 119.627 1.10415C119.665 0.738396 119.088 0.738396 119.049 1.10415C118.78 3.87615 118.356 6.64815 117.779 9.38165C117.702 9.7474 118.26 9.9014 118.337 9.53565Z" fill="#161616"/>
<path d="M134.526 27.2456C139.762 26.7644 144.979 26.2831 150.215 25.8019C150.581 25.7634 150.581 25.1859 150.215 25.2244C144.979 25.7056 139.762 26.1869 134.526 26.6681C134.16 26.6874 134.141 27.2649 134.526 27.2456Z" fill="#161616"/>
<path d="M112.523 45.1289C115.776 45.8412 119.087 45.8219 122.321 45.0904C122.687 45.0134 122.533 44.4552 122.167 44.5322C119.03 45.2444 115.815 45.2637 112.677 44.5707C112.311 44.4937 112.157 45.0519 112.523 45.1289Z" fill="#161616"/>
<path d="M113.005 50.0183C115.488 50.3456 117.971 50.4226 120.474 50.2493C120.839 50.2301 120.839 49.6526 120.474 49.6718C117.971 49.8451 115.488 49.7681 113.005 49.4408C112.639 49.4023 112.639 49.9798 113.005 50.0183Z" fill="#161616"/>
<path d="M130.888 43.1846C134.795 45.9373 138.78 48.5938 142.823 51.1541C143.131 51.3466 143.419 50.8461 143.111 50.6536C139.069 48.0933 135.084 45.4368 131.176 42.6841C130.868 42.4723 130.58 42.9728 130.888 43.1846Z" fill="#161616"/>
<path d="M81.704 178.589C78.0465 183.075 74.4082 187.541 70.7507 192.026C75.0435 207.118 77.469 211.083 78.9127 210.872C79.9522 210.718 80.4527 208.465 81.011 205.944C82.397 199.649 81.5692 194.24 80.7222 190.871C83.0322 188.291 85.323 185.693 87.633 183.113C85.6502 181.612 83.6867 180.11 81.704 178.589Z" fill="#161616" stroke="#161616" stroke-width="2" stroke-miterlimit="10"/>
<path d="M68.2098 155.489C70.5006 157.26 72.6951 156.625 77.2381 157.395C81.1073 158.05 85.4578 159.493 90.0778 162.381C85.1498 168.156 80.2218 174.258 75.3323 180.688C74.1581 182.247 72.9838 183.806 71.8481 185.365C73.7346 185.808 76.0061 186.501 78.4701 187.618C80.8763 188.696 82.8398 189.908 84.3991 191.006C91.7333 184.615 98.2783 178.435 104.111 172.603C106.806 169.908 110.618 165.788 111.214 159.955C111.253 159.628 111.253 159.339 111.253 159.051C111.118 149.368 98.9328 142.361 91.5216 139.781C83.4173 136.971 69.4803 135.45 65.5918 142.168C63.3011 146.134 64.6486 152.737 68.2098 155.489Z" fill="#EC615B"/>
<path opacity="0.26" d="M82.4354 145.807C82.3007 147.635 81.9734 149.811 81.2997 152.217C80.8184 153.93 80.2409 155.451 79.6634 156.741C79.0282 156.991 78.4122 157.241 77.7769 157.491C81.9157 159.128 86.0737 160.764 90.2124 162.4C87.1324 165.923 84.0332 169.619 80.9147 173.469C77.6999 177.434 74.6392 181.323 71.7324 185.154C73.7922 185.827 75.8327 186.501 77.8924 187.156C85.2652 179.032 92.6379 170.889 100.011 162.766C100.781 160.552 100.742 158.82 100.511 157.607C99.4524 151.678 92.1952 146.846 82.4354 145.807Z" fill="#6D6C6C"/>
<path opacity="0.23" d="M90.1742 162.362C90.8479 163.382 91.5024 164.421 92.1762 165.442C86.4397 172.352 80.7032 179.244 74.9667 186.155C73.9465 185.885 72.907 185.596 71.8867 185.327C75.5635 180.283 79.529 175.105 83.8217 169.888C85.9584 167.29 88.0759 164.787 90.1742 162.362Z" fill="#6D6C6C"/>
<path d="M71.0205 171.274C76.6992 172.314 82.3972 173.334 88.076 174.374C94.6402 188.696 95.3717 193.316 94.1397 194.105C93.2542 194.663 91.4062 193.277 89.3465 191.718C84.1875 187.81 81.3192 183.152 79.76 180.014C76.3335 179.552 72.907 179.071 69.4805 178.609C69.981 176.164 70.5007 173.719 71.0205 171.274Z" fill="#161616" stroke="#161616" stroke-width="2" stroke-miterlimit="10"/>
<path d="M59.3164 139.377C48.9599 142.418 42.6459 148.732 38.5842 152.89C33.0979 158.531 26.3604 165.441 28.3047 170.543C29.3057 173.141 32.3472 174.739 46.5152 177.203C57.2182 179.07 66.4967 180.071 73.7347 180.63C74.6394 177.319 75.5442 174.027 76.4297 170.716C69.1532 168.367 61.8959 166.038 54.6194 163.69C59.0854 162.746 63.7824 161.63 68.6719 160.263C72.3872 159.224 75.9291 158.146 79.2979 157.01C82.4164 150.715 83.0901 143.92 79.8369 140.07C75.2939 134.68 65.1107 137.664 59.3164 139.377Z" fill="#EC615B"/>
<path opacity="0.29" d="M82.3587 146.038C82.2625 147.943 81.9352 150.388 81.0497 153.083C80.5107 154.719 79.8947 156.144 79.2787 157.318C78.759 157.357 78.2392 157.414 77.7195 157.453C73.3305 158.897 68.6527 160.263 63.7055 161.534C60.51 162.362 57.3915 163.074 54.3692 163.728C61.665 166.019 68.9607 168.291 76.2565 170.581C76.1025 171.371 75.91 172.198 75.679 173.065C75.4095 174.066 75.1015 174.99 74.8127 175.837C64.745 173.353 54.6772 170.87 44.6095 168.387C44.1475 167.829 42.6267 165.807 42.8577 163.132C43.108 160.225 45.88 158.165 49.422 156.279C59.663 150.85 76.834 147.173 82.3587 146.038Z" fill="#6D6C6C"/>
<path opacity="0.24" d="M49.1909 164.132C51.0197 163.998 52.8677 163.863 54.6964 163.709C61.8767 166.096 69.0569 168.502 76.2372 170.889C75.9292 172.025 75.6212 173.18 75.3132 174.316C66.6122 170.909 57.8919 167.52 49.1909 164.132Z" fill="#6D6C6C"/>
<path d="M56.6023 95.7564C59.4513 94.0817 64.3986 91.6947 70.9821 91.0017C81.0691 89.9429 88.8076 93.5619 91.8683 95.1982C91.3101 102.763 90.4438 108.808 89.7508 112.966C88.9231 117.932 88.2493 120.685 87.9413 125.247C87.5563 130.965 88.0376 135.662 88.4803 138.742C85.1308 139.781 80.0681 140.917 73.8311 140.782C67.8251 140.647 62.9741 139.338 59.7208 138.203C60.5871 131.311 60.2983 125.844 59.8748 122.129C59.3935 117.99 58.739 115.969 57.9498 110.964C56.9295 104.496 56.66 99.2022 56.6023 95.7564Z" fill="white" stroke="#161616" stroke-width="2" stroke-miterlimit="10"/>
<path opacity="0.14" d="M77.431 93.2925C77.8352 94.7555 78.2972 96.7767 78.6052 99.2022C78.817 100.838 79.6832 108.25 76.9882 118.029C75.3327 124.054 73.581 130.426 67.8445 135.662C65.9965 137.356 64.2062 138.491 62.8972 139.204C65.804 139.954 69.5962 140.667 74.0815 140.705C79.9527 140.763 84.8037 139.704 88.1725 138.665C87.98 137.221 87.7297 135.046 87.6335 132.428C87.5565 130.137 87.5565 126.479 89.135 116.181C90.3862 108.076 91.2717 104.592 91.7144 97.258C91.7722 96.411 91.7915 95.6987 91.83 95.2175C90.4247 94.3897 88.596 93.485 86.3437 92.7535C84.2647 92.0797 82.3975 91.7332 80.8575 91.5792C79.741 92.1375 78.586 92.715 77.431 93.2925Z" fill="#6D6C6C"/>
<path opacity="0.17" d="M91.2714 98.3551C90.1934 104.457 88.7689 109.385 87.6524 112.812C84.3799 122.822 82.0892 129.559 75.9099 134.487C72.0792 137.548 68.0944 138.838 65.5342 139.454C68.1329 140.185 71.8097 140.898 76.2564 140.801C81.3769 140.686 85.5157 139.531 88.2299 138.549C87.8642 136.201 87.4407 132.678 87.5562 128.385C87.6909 122.822 88.5957 119.472 89.5967 113.37C90.1549 109.79 90.8672 104.669 91.2714 98.3551Z" fill="#6D6C6C"/>
<path d="M56.4867 95.6602C53.9843 97.3927 50.7695 100.126 47.959 104.188C41.6258 113.389 41.799 123.149 42.0493 126.749C43.2043 129.848 45.187 133.91 48.652 137.895C50.6733 140.224 53.6378 143.573 58.7005 145.729C60.3945 146.461 61.8768 146.865 62.9548 147.096C63.8788 146.268 64.7835 145.441 65.7075 144.613C62.743 141.148 59.7592 137.51 56.7755 133.756C54.4848 130.888 52.2903 128.039 50.1728 125.228C50.2498 122.86 50.7503 118.568 53.3298 114.082C54.7928 111.541 56.506 109.693 57.8728 108.442C57.4108 104.188 56.9487 99.9337 56.4867 95.6602Z" fill="white" stroke="#161616" stroke-width="2" stroke-miterlimit="10"/>
<path opacity="0.13" d="M56.8528 99.9529C51.3088 106.209 48.6715 112.138 47.3625 115.873C45.0718 122.341 45.553 125.729 45.8995 127.346C46.1883 128.616 46.8235 130.791 49.1528 134.102C51.174 136.971 55.4283 142.11 63.5325 146.345C64.2448 145.652 64.957 144.979 65.6693 144.286C63.3785 141.706 61.0685 138.992 58.7393 136.162C55.6785 132.447 52.8295 128.789 50.1923 125.209C50.2693 123.265 50.5965 120.55 51.7323 117.509C53.4455 112.947 56.1405 109.944 57.8153 108.346C57.4688 105.555 57.1608 102.763 56.8528 99.9529Z" fill="#6D6C6C"/>
<path opacity="0.16" d="M50.1729 125.459C50.5194 127.711 51.2316 130.58 52.7331 133.679C56.0441 140.416 61.2224 144.132 63.8596 145.749C64.3794 145.287 64.8799 144.844 65.3996 144.382C60.3176 138.068 55.2549 131.754 50.1729 125.459Z" fill="#6D6C6C"/>
<path d="M92.1568 95.3137C94.9673 97.027 98.5863 99.7027 101.724 103.687C108.847 112.716 108.635 122.302 108.365 125.844C107.056 128.886 104.843 132.87 100.954 136.797C98.6825 139.069 95.3523 142.361 89.6735 144.497C87.7678 145.21 86.093 145.614 84.8803 145.845C83.86 145.036 82.8205 144.228 81.8003 143.419C85.1113 140.012 88.48 136.451 91.8295 132.755C94.3898 129.925 96.8538 127.134 99.2408 124.381C99.1445 122.071 98.6055 117.855 95.6988 113.428C94.0433 110.925 92.1375 109.116 90.5975 107.884C91.1365 103.687 91.6563 99.5102 92.1568 95.3137Z" fill="white" stroke="#161616" stroke-width="2" stroke-miterlimit="10"/>
<path opacity="0.16" d="M92.0226 99.9915C94.4673 102.552 97.7976 106.652 100.396 112.369C101.628 115.083 103.63 119.492 103.669 123.65C103.804 136.297 85.9011 144.998 84.8616 145.498C83.8413 144.844 82.8403 144.209 81.8201 143.554C87.6143 137.202 93.3893 130.849 99.1836 124.497C99.0681 122.418 98.5868 118.548 96.2768 114.429C94.3711 111.041 92.0033 108.846 90.4441 107.634C90.9831 105.093 91.5028 102.552 92.0226 99.9915Z" fill="#6D6C6C"/>
<path opacity="0.12" d="M99.376 124.555C99.0873 126.229 98.606 128.058 97.8553 129.945C94.4673 138.492 87.6143 143.169 84.1493 145.171C83.3215 144.632 82.5131 144.093 81.6853 143.554C87.5758 137.221 93.4663 130.888 99.376 124.555Z" fill="#6D6C6C"/>
<path d="M96.5845 125.978H49.2488V155.951H96.5845V125.978Z" fill="white" stroke="#161616" stroke-width="2" stroke-miterlimit="10"/>
<path d="M72.2331 143.824C69.7306 144.132 68.5178 141.09 69.1723 139.069C69.8076 137.067 72.1753 136.124 74.1003 136.817C76.006 137.51 76.93 139.839 76.2563 141.706C75.5055 143.785 72.8876 144.632 70.9626 143.708C70.6353 143.554 70.3273 144.055 70.6738 144.209C72.3871 145.037 74.4853 144.729 75.852 143.381C77.1803 142.053 77.3728 139.955 76.545 138.318C74.6585 134.584 68.8258 135.777 68.4216 139.878C68.2098 142.072 69.7883 144.709 72.2331 144.421C72.5988 144.363 72.5988 143.785 72.2331 143.824Z" fill="#161616"/>
<path opacity="0.14" d="M67.0166 125.902C73.4268 128.135 77.7965 133.852 77.9313 139.993C78.1045 147.693 71.6366 154.931 62.8201 155.663C74.0428 155.759 85.2655 155.855 96.5075 155.951C96.469 145.903 96.4498 135.854 96.4113 125.825C86.613 125.825 76.8148 125.864 67.0166 125.902Z" fill="#6D6C6C"/>
<path opacity="0.26" d="M96.5074 125.806C96.3341 131.927 95.1214 136.701 94.1011 139.839C92.5996 144.401 91.5216 147.732 88.4224 150.677C84.2066 154.719 78.9514 155.47 76.6414 155.662C83.2056 155.72 89.7699 155.778 96.3341 155.855C96.3534 150.138 96.3918 144.421 96.4303 138.684C96.4303 134.391 96.4689 130.099 96.5074 125.806Z" fill="#6D6C6C"/>
<path d="M71.5209 80.2218C70.4621 81.5116 71.4824 83.0901 71.2899 87.3058C71.1936 89.4041 70.8471 91.0981 70.5776 92.2338C71.4824 92.6573 73.0801 93.2541 75.1399 93.3118C77.6809 93.3696 79.6059 92.5803 80.5491 92.1183C80.1256 91.2713 79.5674 89.9623 79.2209 88.2683C78.3546 83.9563 79.8946 81.9351 78.6241 80.3373C77.1419 78.4893 72.9454 78.4701 71.5209 80.2218Z" fill="white" stroke="#161616" stroke-width="2" stroke-miterlimit="10"/>
<path d="M64.8024 61.7032C63.5897 64.8217 64.0517 67.6322 64.3212 68.8449C64.2057 68.8642 61.9534 69.3454 61.3374 71.0779C60.7214 72.8297 61.9919 75.3129 64.6484 76.1214C65.6109 78.4699 67.9402 83.0129 72.8489 85.4962C73.6767 85.9004 74.4659 86.2277 75.2552 86.4587C75.9674 86.1892 76.9299 85.7657 78.0272 85.1304C81.4537 83.1477 83.3594 80.6837 83.8022 80.0869C84.6107 79.0089 85.7079 77.2764 86.4779 74.8894C86.9014 74.9664 87.6522 75.0049 88.3837 74.6392C90.0392 73.7922 90.8669 71.1549 89.7119 69.4417C88.7494 68.0172 86.8822 67.9594 86.6512 67.9594C86.9014 66.9584 87.6714 63.3587 85.7272 59.7974C83.4942 55.6972 78.7009 53.5412 74.1964 54.1572C67.5359 55.0234 64.9179 61.3952 64.8024 61.7032Z" fill="white" stroke="#161616" stroke-width="2" stroke-miterlimit="10"/>
<path d="M71.2706 85.323C72.4449 86.016 73.7346 87.094 75.1784 86.9785C76.3719 86.8822 77.7001 86.1892 78.6049 85.4577C78.8937 85.2267 78.4894 84.8225 78.2007 85.0535C77.3537 85.7272 75.9869 86.4395 74.8704 86.4202C73.6961 86.401 72.5026 85.4192 71.5401 84.8225C71.2514 84.63 70.9626 85.1305 71.2706 85.323Z" fill="#161616"/>
<path d="M71.1936 85.5732C72.2909 86.5165 73.5421 87.5752 75.0821 87.4982C76.5836 87.4212 77.9889 86.4202 78.9706 85.3422C79.2209 85.0727 78.8166 84.6685 78.5664 84.938C77.7194 85.862 76.5259 86.7667 75.2169 86.9015C73.7731 87.0362 72.6181 86.0545 71.5979 85.169C71.3284 84.9187 70.9241 85.323 71.1936 85.5732Z" fill="#161616"/>
<path d="M71.9251 85.6888C71.9251 85.6695 71.9251 85.6695 71.9251 85.6888C71.8096 85.5155 71.5978 85.477 71.4631 85.6118C71.4631 85.6118 71.4631 85.6118 71.4438 85.631C71.3283 85.7273 71.3283 85.939 71.4438 86.0353C73.5613 88.0565 77.4498 88.711 78.9706 85.6118C79.1246 85.2845 78.6433 84.9765 78.4701 85.323C77.1226 88.095 73.7153 87.4213 71.8673 85.631C71.8673 85.7658 71.8673 85.9005 71.8673 86.0353C71.8673 86.0353 71.8673 86.0353 71.8866 86.016C71.7326 85.9968 71.5786 85.9775 71.4246 85.9583V85.9775C71.6171 86.2855 72.1176 85.9968 71.9251 85.6888Z" fill="#161616"/>
<path d="M74.235 67.8825C73.9847 71.001 74.1195 74.1003 74.62 77.1803C74.6392 77.3343 74.8317 77.4305 74.9665 77.3728C75.7172 77.1225 76.2562 76.6798 76.6605 76.006C76.853 75.6788 76.3525 75.39 76.16 75.7173C75.8327 76.2755 75.4285 76.6028 74.8125 76.8145C74.928 76.8723 75.0435 76.9493 75.159 77.007C74.6585 73.9848 74.543 70.924 74.7932 67.8633C74.851 67.4975 74.2735 67.4975 74.235 67.8825Z" fill="#161616"/>
<path d="M70.8088 70.9432C70.8473 71.1164 71.136 72.1944 70.8088 72.3677C70.4815 72.5409 69.5575 71.8479 69.2688 70.9432C69.0378 70.1732 69.2303 69.2107 69.596 69.1337C69.981 69.0374 70.5778 70.0962 70.8088 70.9432Z" fill="#161616" stroke="#161616" stroke-miterlimit="10"/>
<path d="M80.7416 70.9432C80.7801 71.1164 81.0689 72.1944 80.7416 72.3677C80.4144 72.5409 79.4904 71.8479 79.2016 70.9432C78.9706 70.1732 79.1631 69.2107 79.5289 69.1337C79.9139 69.0374 80.5106 70.0962 80.7416 70.9432Z" fill="#161616" stroke="#161616" stroke-miterlimit="10"/>
<path d="M73.542 79.7212C75.8905 80.7222 78.0273 79.317 79.7598 77.7962C80.0485 77.546 79.6251 77.1417 79.3556 77.392C77.854 78.701 75.929 80.1062 73.85 79.2207C73.4843 79.086 73.1955 79.5865 73.542 79.7212Z" fill="#161616"/>
<path d="M80.318 74.004C80.6838 74.004 80.6838 73.4265 80.318 73.4265C79.9523 73.4265 79.9523 74.004 80.318 74.004Z" fill="#161616"/>
<path d="M82.4548 72.9261C82.474 72.9068 82.4933 72.8876 82.5125 72.8683C82.628 72.7528 82.628 72.5796 82.5125 72.4641C82.397 72.3486 82.2238 72.3486 82.1082 72.4641C82.089 72.4833 82.0697 72.5026 82.0505 72.5218C81.935 72.6373 81.935 72.8106 82.0505 72.9261C82.166 73.0416 82.3393 73.0416 82.4548 72.9261Z" fill="#161616"/>
<path d="M81.8195 74.3313C81.8388 74.3313 81.858 74.3313 81.8773 74.3313C82.0313 74.3313 82.166 74.1965 82.166 74.0425C82.166 73.8885 82.0313 73.7538 81.8773 73.7538C81.858 73.7538 81.8388 73.7538 81.8195 73.7538C81.6655 73.7538 81.5308 73.8885 81.5308 74.0425C81.5308 74.1965 81.6463 74.3313 81.8195 74.3313Z" fill="#161616"/>
<path d="M68.5369 67.4975C69.2684 66.8815 70.3464 66.8623 71.0779 67.459C71.3667 67.69 71.7709 67.2858 71.4822 67.0548C70.4812 66.2463 69.0952 66.2463 68.1134 67.0933C67.8439 67.3243 68.2674 67.7285 68.5369 67.4975Z" fill="#161616"/>
<path d="M77.9311 67.2857C78.7588 66.5542 79.9331 66.4194 80.9148 66.9392C81.2421 67.1124 81.5308 66.6119 81.2036 66.4387C79.9908 65.7842 78.5471 65.9574 77.5268 66.8814C77.2381 67.1317 77.6423 67.5359 77.9311 67.2857Z" fill="#161616"/>
<path d="M68.6913 73.9462C69.0571 73.9462 69.0571 73.3687 68.6913 73.3687C68.3256 73.3687 68.3256 73.9462 68.6913 73.9462Z" fill="#161616"/>
<path d="M70.7316 73.6766C71.0974 73.6766 71.0974 73.0991 70.7316 73.0991C70.3658 73.0991 70.3658 73.6766 70.7316 73.6766Z" fill="#161616"/>
<path d="M69.7113 74.1195C69.692 74.1387 69.6728 74.158 69.6535 74.1772C69.538 74.2927 69.538 74.466 69.6535 74.5815C69.769 74.697 69.9423 74.697 70.0578 74.5815C70.077 74.5622 70.0963 74.543 70.1155 74.5237C70.231 74.4082 70.231 74.235 70.1155 74.1195C70 74.004 69.8268 74.004 69.7113 74.1195Z" fill="#161616"/>
<path d="M67.9403 55.447C66.7853 56.1592 64.2636 57.7185 62.5503 60.914C60.8371 64.0902 60.8563 67.0932 60.9333 68.383C58.1228 73.4457 56.8523 77.9117 56.2363 80.9532C55.2353 85.785 55.7743 87.556 56.4673 88.7302C58.1613 91.6177 61.5686 92.33 62.3963 92.5033C66.6506 93.408 70.0386 91.2328 70.8086 90.7323C71.0203 90.097 71.2321 89.3077 71.3476 88.4222C71.5593 86.9015 71.4438 85.5925 71.2706 84.6492C70.3081 83.86 69.1916 82.8012 68.1136 81.4152C66.4773 79.2977 65.5533 77.2187 65.0336 75.7172C63.3396 75.544 62.0691 74.389 61.9536 73.0992C61.8381 71.8865 62.6851 70.3272 63.8016 70.3272C64.6293 70.3272 65.2261 71.1742 65.3416 71.3282C65.9768 70.9625 66.8623 70.3272 67.6516 69.3262C68.7873 67.8825 68.9798 66.5927 69.4996 65.2452C70.0001 63.9362 70.9626 62.1267 73.0416 60.2402C75.0436 60.9525 76.6413 61.6455 77.7386 62.1652C81.2613 63.8015 83.2633 64.764 84.8226 66.8622C85.6888 68.0172 86.1316 69.153 86.3626 69.8652C88.1528 68.4985 88.8843 68.8642 89.0383 68.9412C90.1741 69.5765 90.1356 73.0607 88.3646 74.0232C87.6908 74.389 86.9208 74.2927 86.4396 74.1772C85.8813 76.1215 84.6493 79.2977 81.8196 82.1082C80.8763 83.0515 79.9138 83.783 79.0476 84.3412C78.9706 85.0535 78.9321 86.0352 79.1246 87.1902C79.2978 88.249 79.6058 89.1152 79.8946 89.7312C84.5723 92.8112 90.3858 92.253 93.5428 88.942C96.3533 85.9775 96.3533 81.4922 95.2946 78.4315C94.3321 75.6402 92.4648 73.9655 91.5408 73.234C91.7911 72.156 93.1771 65.765 89.1538 59.8937C88.1143 58.373 85.2076 54.6962 79.9716 53.4257C74.4276 52.0782 69.8653 54.2727 67.9403 55.447Z" fill="#5222D0"/>
<path opacity="0.17" d="M80.1449 63.3588C82.3201 66.0923 82.8976 68.614 83.0901 69.923C83.8794 75.4285 80.6839 79.8945 79.0669 82.1853C77.7386 84.0525 76.3719 85.3808 75.3901 86.247C76.2371 88.5185 77.0649 90.7708 77.9119 93.0423C78.7781 92.7535 79.6444 92.4648 80.5106 92.176C80.1064 91.4638 79.6829 90.5783 79.3556 89.5003C78.7589 87.5753 78.7204 85.8813 78.7781 84.7263C79.8369 83.9755 81.0689 82.9553 82.2624 81.6078C84.6494 78.9128 85.8429 76.1408 86.4589 74.2735C86.8439 74.3505 87.6716 74.4468 88.4609 74.004C90.1164 73.0608 89.8469 70.7123 89.8276 70.5583C89.7699 70.0578 89.6544 69.2493 89.0769 68.922C88.4031 68.5563 87.2866 68.9028 86.4011 69.9423C86.1316 68.999 85.3616 66.8238 83.2826 65.0913C82.1276 64.1288 80.9534 63.6283 80.1449 63.3588Z" fill="#6D6C6C"/>
<path opacity="0.19" d="M74.5046 68.0557C74.3891 68.0365 74.0041 69.7112 72.8298 77.1032C73.5036 77.1032 74.1773 77.1032 74.8511 77.1032C74.7163 76.1215 74.5623 74.697 74.4853 72.9645C74.3891 70 74.6201 68.075 74.5046 68.0557Z" fill="#6D6C6C"/>
<path opacity="0.54" d="M91.4251 73.4264C91.0979 73.6189 92.3299 75.2744 92.1566 77.7384C92.0989 78.5084 91.9834 80.2602 90.5974 81.4344C90.5011 81.5114 88.4414 83.2054 86.4009 82.1274C85.1881 81.4922 84.4566 80.1447 84.4951 78.6817C83.9176 79.7597 82.9744 81.1842 81.4921 82.5702C80.5681 83.4364 79.6634 84.0717 78.8741 84.5529C78.8164 85.3999 78.8164 86.5549 79.1244 87.8639C79.2976 88.5762 79.5094 89.1922 79.7211 89.6927C80.3179 90.0777 81.2034 90.5974 82.3584 91.0017C83.0899 91.2519 87.1131 92.6572 91.0401 90.7129C91.7331 90.3664 93.2731 89.5772 94.3896 87.8832C94.5244 87.6714 95.0249 86.9207 95.3906 85.6502C96.6996 81.2997 94.7746 77.3727 94.6014 77.0454C93.5426 74.9087 91.8294 73.1954 91.4251 73.4264Z" fill="#341999"/>
<path opacity="0.35" d="M65.0146 75.7942C64.8413 75.8135 65.2263 77.392 64.8028 78.9512C64.4948 80.1062 63.5131 81.9927 61.8383 82.3777C60.0866 82.7627 57.9113 81.473 56.9103 79.0667C56.4483 80.1255 55.8323 81.8195 55.7361 83.9755C55.6783 85.3807 55.6013 86.8822 56.2943 88.3645C57.8536 91.6755 62.4351 92.9653 65.8423 92.6573C68.1138 92.4455 69.8271 91.56 70.7511 90.9632C70.9821 90.3087 71.2131 89.5195 71.3671 88.6147C71.6173 87.0555 71.5596 85.6887 71.4248 84.6877C69.9041 83.5905 68.8646 82.4547 68.2101 81.627C67.2861 80.4527 66.0348 78.8742 65.3996 76.6797C65.3033 76.4295 65.1301 75.775 65.0146 75.7942Z" fill="#341999"/>
</svg>
