<svg width="633" height="503" viewBox="0 0 633 503" fill="none" xmlns="http://www.w3.org/2000/svg">
<path d="M522.404 390.642C519.248 390.914 516.092 391.241 512.936 391.513C511.902 391.621 511.902 389.989 512.936 389.88C516.092 389.608 519.248 389.282 522.404 389.009C523.438 388.901 523.438 390.533 522.404 390.642Z" fill="#161616"/>
<path d="M564.577 393.254C556.741 393.254 548.905 393.254 541.069 393.254C538.947 393.254 538.947 389.989 541.069 389.989C548.905 389.989 556.741 389.989 564.577 389.989C566.645 389.989 566.645 393.254 564.577 393.254Z" fill="#161616"/>
<path d="M523.71 392.002C504.718 392.002 485.781 392.002 466.79 392.002C464.667 392.002 464.667 388.737 466.79 388.737C485.781 388.737 504.718 388.737 523.71 388.737C525.832 388.737 525.832 392.002 523.71 392.002Z" fill="#161616"/>
<path d="M471.034 392.546C461.457 391.512 453.676 398.478 448.343 405.661C443.282 412.409 439.092 420.027 432.453 425.414C425.542 431.019 416.781 432.706 408.129 433.413C397.409 434.284 386.634 434.556 375.86 434.556C363.453 434.556 351.1 434.012 338.748 433.032C336.68 432.869 336.625 429.604 338.748 429.767C360.569 431.509 382.553 431.781 404.428 430.42C414.006 429.822 424.018 428.679 431.474 422.04C438.004 416.272 441.976 408.327 447.418 401.688C453.186 394.614 461.512 388.248 471.143 389.336C473.048 389.499 473.102 392.764 471.034 392.546Z" fill="#161616"/>
<path d="M318.342 429.822C308.275 429.767 300.113 436.624 294.671 444.569C288.957 452.895 284.876 462.417 280.359 471.396C276.441 479.178 272.85 487.558 263.98 490.551C259.899 491.966 255.437 492.129 251.138 492.183C245.696 492.292 240.254 492.183 234.813 491.966C232.745 491.911 232.69 488.646 234.813 488.701C240.254 488.918 245.696 488.973 251.138 488.918C255.818 488.864 260.824 488.701 265.123 486.578C269.422 484.456 271.925 480.484 274.102 476.348C276.605 471.614 278.945 466.825 281.339 462.036C288.957 446.909 298.317 426.448 318.233 426.502C320.465 426.557 320.465 429.822 318.342 429.822Z" fill="#161616"/>
<path d="M217.508 490.986C198.353 490.986 179.144 490.986 159.99 490.986C157.867 490.986 157.867 487.721 159.99 487.721C179.144 487.721 198.353 487.721 217.508 487.721C219.576 487.721 219.576 490.986 217.508 490.986Z" fill="#161616"/>
<path d="M142.031 489.735C129.679 489.735 117.272 489.735 104.919 489.735C102.797 489.735 102.797 486.47 104.919 486.47C117.272 486.47 129.679 486.47 142.031 486.47C144.099 486.47 144.099 489.735 142.031 489.735Z" fill="#161616"/>
<path d="M117 502.795C79.8336 502.795 42.6126 502.795 5.44598 502.795C3.32373 502.795 3.32373 499.53 5.44598 499.53C42.6126 499.53 79.8336 499.53 117 499.53C119.068 499.53 119.068 502.795 117 502.795Z" fill="#161616"/>
<path d="M401 390.424C372.921 388.52 344.842 386.615 316.763 384.765C302.723 383.84 288.684 382.86 274.644 381.935C260.823 381.01 246.783 379.378 232.907 379.922C206.624 380.956 183.116 393.635 159.771 404.464C136.481 415.238 112.211 423.89 87.2878 430.094C59.1 437.168 30.1504 441.141 1.09188 442.066C0.0579668 442.12 0.0579668 440.488 1.09188 440.433C53.8761 438.746 106.334 426.775 154.492 405.062C176.912 394.941 199.005 382.371 223.765 379.051C237.26 377.255 250.864 378.67 264.36 379.541C278.399 380.466 292.439 381.446 306.478 382.371C337.985 384.493 369.493 386.615 401 388.737C402.034 388.846 402.034 390.479 401 390.424Z" fill="#E8E8E8"/>
<path d="M143.881 427.754C118.632 435.699 92.4572 440.542 66.0651 442.175C65.0312 442.229 65.0312 440.596 66.0651 440.542C92.3484 438.91 118.36 434.121 143.446 426.176C144.48 425.85 144.915 427.428 143.881 427.754Z" fill="#E8E8E8"/>
<path d="M387.831 286.978C363.126 286.652 339.019 280.666 314.532 278.598C289.228 276.421 264.632 280.883 239.872 285.726C190.734 295.249 142.031 306.677 93.7636 319.9C80.2683 323.6 66.8273 327.682 53.2776 331.328C40.272 334.81 27.1032 337.586 13.6079 337.803C12.574 337.803 12.574 336.171 13.6079 336.171C38.4763 335.79 62.474 326.92 86.1453 320.335C110.415 313.588 134.794 307.275 159.336 301.453C183.66 295.685 208.147 290.352 232.689 285.509C256.578 280.775 280.794 275.496 305.227 276.421C332.979 277.455 360.079 285.019 387.831 285.4C388.865 285.4 388.865 287.032 387.831 286.978Z" fill="#E8E8E8"/>
<path d="M327.754 110.723C272.467 104.519 224.417 138.965 174.68 156.814C161.022 161.711 147.037 165.411 132.616 167.044C131.582 167.153 131.582 165.52 132.616 165.411C186.761 159.426 231.437 123.783 284.003 112.029C298.369 108.818 313.171 107.458 327.809 109.145C328.788 109.199 328.788 110.831 327.754 110.723Z" fill="#E8E8E8"/>
<path d="M153.567 145.984C120.7 152.841 86.798 154.147 53.495 149.794C52.4611 149.685 52.4611 147.998 53.495 148.161C86.6347 152.514 120.373 151.263 153.132 144.406C154.166 144.189 154.601 145.767 153.567 145.984Z" fill="#E8E8E8"/>
<path d="M506.568 208.346C440.996 226.576 374.445 244.968 306.097 247.689C286.888 248.451 267.679 247.907 248.579 245.839C247.545 245.73 247.545 244.098 248.579 244.207C316.491 251.607 384.403 238.819 450.029 221.95C468.803 217.107 487.468 211.938 506.187 206.768C507.112 206.496 507.548 208.074 506.568 208.346Z" fill="#E8E8E8"/>
<path d="M544.387 134.992C542.265 134.992 542.265 131.727 544.387 131.727C546.509 131.727 546.509 134.992 544.387 134.992Z" fill="#161616"/>
<path d="M537.639 169.71C540.414 168.295 542.319 165.302 541.557 162.092C540.686 158.664 537.149 156.432 533.721 157.466C529.966 158.609 528.388 162.962 530.238 166.336C532.034 169.71 535.898 170.798 539.326 169.275C540.306 168.839 541.122 170.254 540.142 170.69C536.007 172.485 531.436 171.451 528.987 167.479C526.647 163.561 527.953 158.283 532.143 156.324C536.17 154.419 540.904 156.324 542.645 160.405C544.441 164.541 542.319 169.112 538.401 171.125C537.53 171.615 536.714 170.2 537.639 169.71Z" fill="#161616"/>
<path d="M539.708 161.602C538.456 162.418 537.15 163.235 535.899 164.051C535.028 164.649 534.212 163.235 535.082 162.636C536.334 161.82 537.64 161.004 538.892 160.187C539.762 159.643 540.579 161.058 539.708 161.602Z" fill="#161616"/>
<path d="M532.417 162.419C531.764 161.766 531.165 161.167 530.512 160.514C529.75 159.752 530.947 158.609 531.655 159.371C532.308 160.024 532.906 160.623 533.559 161.276C534.321 162.038 533.124 163.18 532.417 162.419Z" fill="#161616"/>
<path d="M542.102 166.935C542.701 167.479 543.299 168.023 543.898 168.622C544.66 169.329 543.517 170.472 542.755 169.765C542.157 169.22 541.558 168.676 540.959 168.078C540.143 167.37 541.34 166.173 542.102 166.935Z" fill="#161616"/>
<path d="M539.436 169.601C539.872 170.363 540.253 171.071 540.688 171.833C541.178 172.758 539.763 173.574 539.273 172.649C538.838 171.887 538.457 171.18 538.022 170.418C537.477 169.493 538.892 168.676 539.436 169.601Z" fill="#161616"/>
<path d="M547.217 163.507C546.401 163.942 545.585 164.051 544.714 163.888C544.279 163.833 544.061 163.289 544.17 162.908C544.279 162.418 544.714 162.255 545.149 162.364C545.585 162.418 546.02 162.364 546.401 162.146C546.782 161.929 547.271 162.038 547.544 162.418C547.761 162.745 547.652 163.344 547.217 163.507Z" fill="#161616"/>
<path d="M542.048 153.603C541.504 154.256 541.014 154.854 540.47 155.507C540.198 155.834 539.599 155.78 539.327 155.507C539.001 155.181 539.055 154.691 539.327 154.365C539.871 153.712 540.361 153.113 540.905 152.46C541.177 152.134 541.776 152.188 542.048 152.46C542.375 152.787 542.32 153.276 542.048 153.603Z" fill="#161616"/>
<path d="M534.157 156.324C533.722 155.616 533.341 154.855 532.905 154.147C532.361 153.222 533.776 152.406 534.32 153.331C534.756 154.038 535.136 154.8 535.572 155.508C536.062 156.378 534.701 157.194 534.157 156.324Z" fill="#161616"/>
<path d="M528.443 158.773C527.627 158.12 526.756 157.521 525.94 156.868C525.613 156.596 525.396 156.161 525.668 155.725C525.885 155.399 526.43 155.181 526.81 155.453C527.627 156.106 528.497 156.705 529.314 157.358C529.64 157.63 529.858 158.065 529.586 158.501C529.368 158.827 528.824 159.045 528.443 158.773Z" fill="#161616"/>
<path d="M527.736 165.085C526.92 165.52 526.049 165.955 525.233 166.391C524.308 166.88 523.491 165.466 524.416 164.976C525.233 164.541 526.103 164.105 526.92 163.67C527.845 163.18 528.661 164.595 527.736 165.085Z" fill="#161616"/>
<path d="M529.151 171.234C528.661 171.887 528.117 172.485 527.627 173.138C527.355 173.465 526.756 173.41 526.484 173.138C526.158 172.812 526.212 172.322 526.484 171.996C526.974 171.343 527.518 170.744 528.008 170.091C528.28 169.765 528.878 169.819 529.151 170.091C529.477 170.418 529.423 170.907 529.151 171.234Z" fill="#161616"/>
<path d="M512.609 261.402C518.05 257.92 511.139 249.267 506.242 253.893C504.446 255.58 504.664 258.409 506.187 260.205C508.146 262.6 511.575 262.382 514.023 260.858C514.894 260.314 515.71 261.674 514.84 262.273C511.684 264.286 507.276 264.232 504.827 261.13C502.705 258.464 502.868 254.383 505.698 252.26C512.5 247.091 520.499 258.246 513.425 262.817C512.5 263.416 511.684 262.001 512.609 261.402Z" fill="#161616"/>
<path d="M513.696 255.471C512.554 256.07 511.411 256.723 510.323 257.321C509.397 257.811 508.581 256.396 509.506 255.906C510.649 255.308 511.792 254.655 512.88 254.056C513.805 253.566 514.621 254.981 513.696 255.471Z" fill="#161616"/>
<path d="M506.568 256.451C506.187 255.525 505.425 254.818 504.554 254.383C503.629 253.893 504.445 252.478 505.37 252.968C506.676 253.621 507.601 254.709 508.146 256.015C508.309 256.396 507.982 256.886 507.601 256.995C507.112 257.158 506.785 256.886 506.568 256.451Z" fill="#161616"/>
<path d="M515.275 262.327C515.275 262.164 515.33 262.436 515.33 262.491C515.275 262.382 515.384 262.545 515.384 262.6C515.33 262.491 515.438 262.654 515.438 262.654C515.493 262.708 515.493 262.708 515.438 262.654C515.493 262.708 515.547 262.708 515.602 262.708C515.983 262.926 516.091 263.47 515.874 263.851C515.656 264.232 515.166 264.341 514.731 264.123C514.024 263.742 513.643 263.035 513.588 262.273C513.534 261.838 513.969 261.457 514.404 261.457C514.894 261.511 515.221 261.838 515.275 262.327Z" fill="#161616"/>
<path d="M511.085 262.708C511.085 263.361 511.085 263.96 511.085 264.613C511.085 265.647 509.452 265.647 509.452 264.613C509.452 263.96 509.452 263.361 509.452 262.708C509.452 261.674 511.085 261.62 511.085 262.708Z" fill="#161616"/>
<path d="M515.546 258.464C516.036 258.464 516.526 258.464 517.07 258.464C518.104 258.464 518.104 260.096 517.07 260.096C516.58 260.096 516.09 260.096 515.546 260.096C514.512 260.096 514.512 258.464 515.546 258.464Z" fill="#161616"/>
<path d="M512.172 251.934C512.281 251.281 512.444 250.682 512.553 250.029C512.662 249.594 513.152 249.322 513.533 249.485C513.968 249.594 514.186 250.029 514.077 250.465C513.968 251.118 513.805 251.716 513.696 252.369C513.587 252.804 513.097 253.077 512.716 252.913C512.335 252.804 512.118 252.369 512.172 251.934Z" fill="#161616"/>
<path d="M506.622 252.532C506.241 251.879 505.86 251.281 505.479 250.628C504.935 249.703 506.35 248.886 506.894 249.811C507.275 250.464 507.656 251.063 508.037 251.716C508.581 252.587 507.166 253.403 506.622 252.532Z" fill="#161616"/>
<path d="M504.282 256.722C503.793 256.722 503.303 256.722 502.759 256.722C501.725 256.722 501.725 255.09 502.759 255.09C503.249 255.09 503.738 255.09 504.282 255.09C505.316 255.09 505.316 256.722 504.282 256.722Z" fill="#161616"/>
<path d="M595.049 237.133C603.157 232.072 596.682 217.978 587.54 221.515C583.078 223.202 581.989 228.807 583.404 232.943C585.363 238.656 591.893 238.384 596.627 236.861C597.607 236.534 598.042 238.112 597.063 238.439C591.73 240.18 584.71 240.18 582.153 234.194C579.976 229.188 581.445 222.114 586.887 219.991C597.879 215.747 605.661 232.453 595.866 238.547C594.995 239.146 594.179 237.731 595.049 237.133Z" fill="#161616"/>
<path d="M596.03 224.399C594.071 226.086 592.112 227.773 590.098 229.46C589.282 230.113 588.139 228.97 588.955 228.317C590.914 226.63 592.873 224.943 594.887 223.256C595.649 222.603 596.846 223.746 596.03 224.399Z" fill="#161616"/>
<path d="M586.234 228.589C585.091 227.338 583.948 226.086 582.86 224.834C582.152 224.073 583.295 222.875 584.002 223.692C585.145 224.943 586.288 226.195 587.376 227.446C588.084 228.208 586.941 229.405 586.234 228.589Z" fill="#161616"/>
<path d="M600.98 229.46C602.123 229.786 603.157 230.385 603.973 231.201C604.681 231.963 603.538 233.106 602.83 232.344C602.177 231.691 601.47 231.255 600.599 230.983C599.511 230.766 599.946 229.188 600.98 229.46Z" fill="#161616"/>
<path d="M598.315 236.099C598.968 236.697 599.566 237.35 600.219 237.949C600.981 238.656 599.838 239.853 599.076 239.092C598.423 238.493 597.825 237.84 597.172 237.241C596.41 236.534 597.607 235.337 598.315 236.099Z" fill="#161616"/>
<path d="M592.546 238.819C592.383 239.799 592.22 240.833 592.111 241.812C592.056 242.247 591.512 242.465 591.131 242.356C590.642 242.247 590.478 241.812 590.587 241.377C590.75 240.397 590.914 239.363 591.023 238.384C591.077 237.949 591.621 237.731 592.002 237.84C592.437 237.949 592.655 238.384 592.546 238.819Z" fill="#161616"/>
<path d="M599.184 224.671C599.946 224.29 600.708 223.909 601.415 223.528C602.341 223.039 603.157 224.453 602.232 224.943C601.47 225.324 600.708 225.705 600.001 226.086C599.076 226.576 598.259 225.161 599.184 224.671Z" fill="#161616"/>
<path d="M592.764 221.025C593.091 220.1 593.2 219.175 593.145 218.25C593.091 217.216 594.723 217.216 594.778 218.25C594.887 219.338 594.723 220.427 594.342 221.461C594.016 222.44 592.438 222.005 592.764 221.025Z" fill="#161616"/>
<path d="M586.833 220.536C586.343 219.665 585.854 218.794 585.309 217.869C584.765 216.944 586.18 216.128 586.724 217.053C587.214 217.924 587.704 218.794 588.248 219.719C588.792 220.59 587.377 221.406 586.833 220.536Z" fill="#161616"/>
<path d="M583.404 225.814C582.316 225.868 581.227 225.596 580.357 224.943C579.976 224.671 579.812 224.236 580.084 223.8C580.302 223.474 580.846 223.256 581.227 223.528C581.88 224.018 582.588 224.236 583.458 224.181C584.438 224.127 584.438 225.759 583.404 225.814Z" fill="#161616"/>
<path d="M581.718 231.637C581.065 232.126 580.467 232.616 579.814 233.16C579.487 233.432 578.997 233.487 578.671 233.16C578.399 232.888 578.344 232.29 578.671 232.017C579.324 231.528 579.922 231.038 580.575 230.494C580.902 230.222 581.392 230.167 581.718 230.494C581.99 230.766 582.045 231.364 581.718 231.637Z" fill="#161616"/>
<path d="M584.547 237.895C584.057 239.037 583.077 239.962 581.989 240.452C581.608 240.615 581.118 240.561 580.846 240.18C580.629 239.853 580.737 239.255 581.118 239.037C582.043 238.656 582.696 238.003 583.132 237.078C583.295 236.697 583.894 236.589 584.274 236.806C584.655 236.969 584.71 237.459 584.547 237.895Z" fill="#161616"/>
<path d="M575.024 78.2359C582.805 73.8825 574.316 60.7681 566.807 66.2642C563.923 68.3864 563.27 72.3588 565.011 75.4062C567.025 78.9433 571.596 79.6507 574.969 77.6917C575.895 77.1475 576.711 78.5624 575.786 79.1065C571.759 81.4464 566.317 80.6302 563.76 76.5489C561.311 72.6309 562.236 67.1893 566.154 64.6317C575.514 58.537 585.363 74.3179 575.84 79.5963C574.915 80.1949 574.099 78.78 575.024 78.2359Z" fill="#161616"/>
<path d="M575.405 69.4204C573.5 70.3455 571.65 71.325 569.745 72.2501C568.82 72.7398 568.004 71.325 568.929 70.8352C570.834 69.9102 572.684 68.9307 574.588 68.0056C575.513 67.5702 576.33 68.9851 575.405 69.4204Z" fill="#161616"/>
<path d="M566.915 71.1073C565.881 70.2366 564.847 69.366 563.814 68.4953C562.997 67.7879 564.194 66.6452 564.956 67.3526C565.99 68.2232 567.024 69.0939 568.058 69.9646C568.874 70.6176 567.732 71.7603 566.915 71.1073Z" fill="#161616"/>
<path d="M580.303 75.5694C581.337 76.3312 582.37 77.0387 583.404 77.8005C584.275 78.3991 583.459 79.8139 582.588 79.2153C581.554 78.4535 580.52 77.7461 579.486 76.9842C578.616 76.3312 579.432 74.9164 580.303 75.5694Z" fill="#161616"/>
<path d="M575.296 78.0725C575.894 79.1064 576.438 80.1403 577.037 81.1742C577.581 82.0993 576.166 82.9155 575.622 81.9905C575.024 80.9565 574.479 79.9226 573.881 78.8887C573.391 77.9636 574.806 77.1474 575.296 78.0725Z" fill="#161616"/>
<path d="M580.303 70.6719C581.446 70.6175 582.534 70.4543 583.622 70.1822C584.656 69.9101 585.092 71.4882 584.058 71.7603C582.861 72.0868 581.609 72.3044 580.303 72.3044C579.269 72.3044 579.269 70.6719 580.303 70.6719Z" fill="#161616"/>
<path d="M576.384 65.4478C576.819 64.3594 577.635 63.5432 578.778 63.1623C579.758 62.8358 580.193 64.4139 579.214 64.7404C578.669 64.9036 578.18 65.3389 577.962 65.8831C577.799 66.3184 577.418 66.5905 576.982 66.4273C576.547 66.3729 576.221 65.8831 576.384 65.4478Z" fill="#161616"/>
<path d="M570.289 64.5773C570.017 63.5434 569.745 62.5095 569.473 61.4756C569.201 60.4416 570.779 60.0063 571.051 61.0402C571.323 62.0741 571.595 63.1081 571.868 64.142C572.14 65.1759 570.562 65.6112 570.289 64.5773Z" fill="#161616"/>
<path d="M570.834 80.2491C570.236 81.1197 569.637 82.0448 569.093 82.9155C568.494 83.7861 567.08 82.9699 567.678 82.0992C568.277 81.2286 568.875 80.3035 569.42 79.4328C569.964 78.5077 571.379 79.324 570.834 80.2491Z" fill="#161616"/>
<path d="M565.664 77.3652C564.902 77.8006 564.195 78.2359 563.433 78.6712C562.508 79.2154 561.691 77.8006 562.617 77.2564C563.378 76.8211 564.086 76.3857 564.848 75.9504C565.718 75.4062 566.535 76.8211 565.664 77.3652Z" fill="#161616"/>
<path d="M562.4 72.3044C561.638 72.1412 560.93 71.9779 560.168 71.8147C559.135 71.597 559.57 70.0189 560.604 70.2366C561.366 70.3999 562.073 70.5631 562.835 70.7264C563.869 70.944 563.433 72.5221 562.4 72.3044Z" fill="#161616"/>
<path d="M563.597 66.1553C563.542 65.5567 563.325 65.0126 562.889 64.5228C562.182 63.761 563.325 62.5638 564.032 63.3801C564.739 64.1419 565.12 65.1214 565.175 66.1553C565.229 66.5907 564.794 66.9716 564.359 66.9716C563.978 66.9716 563.651 66.5907 563.597 66.1553Z" fill="#161616"/>
<path d="M624.326 138.638C625.686 136.298 625.196 133.033 622.639 131.782C620.353 130.639 617.252 131.401 616.163 133.85C615.293 135.918 615.891 138.693 617.959 139.781C620.136 140.978 622.911 140.053 624.163 138.04C624.707 137.115 626.122 137.985 625.577 138.856C623.945 141.577 620.245 142.774 617.36 141.305C614.422 139.781 613.388 135.809 614.803 132.925C616.327 129.877 620.245 128.843 623.237 130.313C626.666 131.945 627.591 136.353 625.741 139.509C625.196 140.38 623.782 139.563 624.326 138.638Z" fill="#161616"/>
<path d="M625.413 134.176C624.053 134.992 622.638 135.809 621.278 136.679C620.353 137.223 619.536 135.809 620.462 135.264C621.822 134.448 623.237 133.632 624.597 132.761C625.468 132.217 626.284 133.632 625.413 134.176Z" fill="#161616"/>
<path d="M618.72 134.884C618.013 134.231 617.36 133.523 616.652 132.87C615.891 132.108 617.033 130.966 617.795 131.727C618.503 132.38 619.156 133.088 619.863 133.741C620.625 134.448 619.482 135.591 618.72 134.884Z" fill="#161616"/>
<path d="M624.108 140.815C624.271 141.468 624.489 142.175 624.652 142.828C624.924 143.862 623.346 144.297 623.074 143.264C622.911 142.611 622.693 141.903 622.53 141.25C622.258 140.216 623.836 139.781 624.108 140.815Z" fill="#161616"/>
<path d="M625.468 138.366C626.175 138.965 627.046 139.237 627.916 139.182C628.95 139.128 628.95 140.76 627.916 140.815C626.556 140.869 625.304 140.434 624.271 139.509C623.563 138.801 624.706 137.659 625.468 138.366Z" fill="#161616"/>
<path d="M627.21 134.557C627.7 134.394 628.244 134.231 628.734 134.067C629.169 133.904 629.604 134.231 629.713 134.612C629.822 135.047 629.55 135.482 629.169 135.591C628.679 135.754 628.135 135.918 627.645 136.081C627.21 136.244 626.775 135.918 626.666 135.537C626.557 135.156 626.829 134.72 627.21 134.557Z" fill="#161616"/>
<path d="M621.496 131.292C621.496 130.421 621.496 129.605 621.496 128.735C621.496 127.701 623.129 127.701 623.129 128.735C623.129 129.605 623.129 130.421 623.129 131.292C623.129 132.326 621.496 132.326 621.496 131.292Z" fill="#161616"/>
<path d="M617.469 131.51C617.306 131.074 616.98 130.693 616.49 130.53C616.054 130.421 615.782 129.986 615.946 129.551C616.054 129.115 616.544 128.843 616.925 129.007C617.959 129.333 618.721 130.095 619.047 131.129C619.156 131.564 618.884 131.999 618.503 132.108C618.013 132.163 617.578 131.945 617.469 131.51Z" fill="#161616"/>
<path d="M615.455 136.679C614.857 136.516 614.204 136.788 613.823 137.332C613.224 138.203 611.809 137.387 612.408 136.516C613.17 135.373 614.53 134.829 615.891 135.156C616.925 135.373 616.489 136.951 615.455 136.679Z" fill="#161616"/>
<path d="M616.979 139.781C617.414 141.033 616.652 142.393 615.401 142.774C614.966 142.937 614.53 142.611 614.421 142.23C614.313 141.795 614.585 141.359 614.966 141.25C615.401 141.087 615.51 140.597 615.401 140.271C615.02 139.183 616.598 138.747 616.979 139.781Z" fill="#161616"/>
<path d="M495.14 92.0577C495.793 89.2824 494.922 86.2895 492.201 85.0379C489.372 83.7319 486.27 85.4189 485.671 88.4662C484.583 94.1255 493.888 97.2817 495.303 91.2959C495.521 90.2619 497.099 90.6973 496.881 91.7312C494.977 99.8393 482.189 95.6492 484.093 87.8132C484.964 84.2217 488.556 82.0995 492.093 83.2422C496.065 84.4938 497.534 88.7383 496.664 92.493C496.446 93.527 494.868 93.0916 495.14 92.0577Z" fill="#161616"/>
<path d="M495.684 87.2146C494.433 87.9765 493.236 88.7927 491.984 89.5546C491.113 90.0987 490.297 88.6839 491.168 88.1397C492.419 87.3779 493.617 86.5616 494.868 85.7998C495.793 85.2556 496.609 86.6705 495.684 87.2146Z" fill="#161616"/>
<path d="M488.284 88.4663C487.686 87.5412 487.142 86.6162 486.543 85.6911C485.999 84.8204 487.414 83.9498 487.958 84.8748C488.556 85.7999 489.101 86.725 489.699 87.6501C490.243 88.5207 488.828 89.3914 488.284 88.4663Z" fill="#161616"/>
<path d="M494.868 94.7242C495.194 95.1595 495.521 95.5404 495.847 95.9757C496.119 96.3022 496.174 96.792 495.847 97.1185C495.575 97.3906 494.976 97.445 494.704 97.1185C494.378 96.6832 494.051 96.3022 493.725 95.8669C493.453 95.5404 493.398 95.0507 493.725 94.7242C493.997 94.3977 494.596 94.3432 494.868 94.7242Z" fill="#161616"/>
<path d="M496.663 92.9284C497.153 93.4726 497.806 93.8535 498.514 94.0168C499.547 94.2889 499.112 95.8669 498.078 95.5949C497.099 95.3772 496.174 94.833 495.521 94.0712C494.759 93.3094 495.956 92.1666 496.663 92.9284Z" fill="#161616"/>
<path d="M496.772 89.2281C497.317 89.2825 497.806 89.1737 498.296 89.0104C498.731 88.8472 499.167 89.1737 499.276 89.5546C499.384 89.9899 499.112 90.4253 498.731 90.5341C498.133 90.7518 497.425 90.8606 496.772 90.8062C496.337 90.7518 495.956 90.4253 495.956 89.9899C495.956 89.609 496.337 89.1737 496.772 89.2281Z" fill="#161616"/>
<path d="M493.018 84.7114C493.399 84.2216 493.725 83.623 493.943 83.0245C494.106 82.5891 494.487 82.317 494.923 82.4803C495.303 82.5891 495.63 83.0789 495.467 83.4598C495.14 84.3305 494.705 85.1467 494.106 85.9086C493.834 86.2351 493.236 86.1806 492.964 85.9086C492.691 85.5276 492.746 85.0923 493.018 84.7114Z" fill="#161616"/>
<path d="M488.066 83.4599C487.957 82.8069 487.902 82.1539 487.794 81.4464C487.739 81.0111 487.902 80.5758 488.338 80.4669C488.719 80.3581 489.263 80.5758 489.317 81.0111C489.426 81.6641 489.48 82.3171 489.589 83.0245C489.644 83.4599 489.48 83.8952 489.045 84.004C488.719 84.1129 488.174 83.8952 488.066 83.4599Z" fill="#161616"/>
<path d="M485.78 88.5749C484.964 88.6838 484.093 88.7926 483.277 88.9014C482.842 88.9558 482.461 88.4661 482.461 88.0852C482.461 87.5954 482.842 87.3233 483.277 87.2689C484.093 87.1601 484.964 87.0513 485.78 86.9424C486.216 86.888 486.596 87.3778 486.596 87.7587C486.596 88.2484 486.216 88.5205 485.78 88.5749Z" fill="#161616"/>
<path d="M486.542 93.5813C485.998 94.2343 485.399 94.9417 484.855 95.5947C484.583 95.9212 483.984 95.8668 483.712 95.5947C483.386 95.2682 483.44 94.7785 483.712 94.452C484.256 93.799 484.855 93.0916 485.399 92.4386C485.671 92.1121 486.27 92.1665 486.542 92.4386C486.868 92.7106 486.814 93.2004 486.542 93.5813Z" fill="#161616"/>
<path d="M489.59 95.758C489.373 97.0096 489.155 98.2611 488.937 99.5127C488.774 100.547 487.196 100.111 487.359 99.0774C487.577 97.8258 487.794 96.5742 488.012 95.3226C488.175 94.2887 489.753 94.7241 489.59 95.758Z" fill="#161616"/>
<path d="M468.096 198.769C469.946 197.245 471.198 195.014 471.034 192.565C470.817 189.681 468.042 187.232 465.103 187.668C461.784 188.157 460.314 192.184 460.586 195.177C460.967 199.204 465.375 201.054 468.531 198.388C469.348 197.735 470.49 198.878 469.674 199.531C466.736 201.979 462.328 201.925 460.042 198.605C457.648 195.177 459.008 189.191 462.437 186.906C465.484 184.892 469.728 186.198 471.633 189.191C473.919 192.728 472.34 197.354 469.293 199.857C468.477 200.619 467.334 199.476 468.096 198.769Z" fill="#161616"/>
<path d="M470.925 190.497C469.292 191.531 467.66 192.62 466.027 193.653C465.156 194.252 464.34 192.837 465.211 192.239C466.843 191.205 468.476 190.116 470.108 189.082C470.979 188.484 471.795 189.899 470.925 190.497Z" fill="#161616"/>
<path d="M462.925 192.674C462.163 191.477 461.347 190.28 460.585 189.083C459.987 188.212 461.402 187.396 462 188.266C462.762 189.463 463.578 190.661 464.34 191.858C464.884 192.728 463.469 193.545 462.925 192.674Z" fill="#161616"/>
<path d="M471.469 198.714C472.231 199.476 472.938 200.184 473.7 200.946C474.462 201.707 473.265 202.85 472.557 202.088C471.795 201.326 471.088 200.619 470.326 199.857C469.564 199.095 470.707 197.953 471.469 198.714Z" fill="#161616"/>
<path d="M468.367 200.945C468.585 202.034 468.802 203.176 469.074 204.265C469.292 205.299 467.714 205.734 467.496 204.7C467.279 203.612 467.061 202.469 466.789 201.381C466.571 200.347 468.149 199.911 468.367 200.945Z" fill="#161616"/>
<path d="M472.721 193.708C473.7 193.708 474.68 193.708 475.659 193.708C476.693 193.708 476.693 195.34 475.659 195.34C474.68 195.34 473.7 195.34 472.721 195.34C471.632 195.34 471.632 193.708 472.721 193.708Z" fill="#161616"/>
<path d="M469.727 185.763C470.271 185.437 470.489 184.838 470.435 184.239C470.38 183.804 470.816 183.423 471.251 183.423C471.741 183.423 472.013 183.804 472.067 184.239C472.176 185.437 471.577 186.525 470.598 187.178C469.673 187.776 468.857 186.362 469.727 185.763Z" fill="#161616"/>
<path d="M463.416 185.926C463.198 184.947 462.871 184.022 462.436 183.151C461.946 182.226 463.361 181.41 463.851 182.335C464.395 183.314 464.776 184.403 464.994 185.491C465.211 186.525 463.633 186.96 463.416 185.926Z" fill="#161616"/>
<path d="M460.314 190.225C459.443 190.062 458.627 190.171 457.811 190.498C456.831 190.878 456.396 189.3 457.376 188.92C458.464 188.484 459.607 188.43 460.749 188.647C461.783 188.811 461.348 190.389 460.314 190.225Z" fill="#161616"/>
<path d="M459.66 196.102C458.844 196.429 458.246 197.082 457.919 197.898C457.756 198.279 457.157 198.388 456.776 198.17C456.341 197.898 456.287 197.463 456.504 197.027C456.994 195.83 458.028 194.96 459.225 194.47C459.66 194.307 460.096 194.633 460.205 195.014C460.368 195.558 460.096 195.939 459.66 196.102Z" fill="#161616"/>
<path d="M460.64 200.075C460.803 201.653 460.368 203.231 459.497 204.591C458.953 205.462 457.538 204.646 458.082 203.775C458.79 202.632 459.116 201.435 458.953 200.075C458.899 198.986 460.531 199.041 460.64 200.075Z" fill="#161616"/>
<path d="M575.623 286.815C576.657 285.781 575.405 283.768 574.045 284.747C572.575 285.781 574.099 287.74 575.514 286.924C576.439 286.38 577.255 287.795 576.33 288.339C575.024 289.101 573.283 288.72 572.358 287.522C571.324 286.216 571.759 284.421 573.065 283.496C574.317 282.571 576.112 282.734 577.037 284.04C577.908 285.237 577.854 286.978 576.82 288.067C576.058 288.72 574.915 287.522 575.623 286.815Z" fill="#161616"/>
<path d="M576.819 283.604C577.364 283.441 577.908 283.223 578.452 283.06C578.887 282.897 579.323 283.223 579.431 283.604C579.54 284.04 579.268 284.475 578.887 284.584C578.343 284.747 577.799 284.965 577.255 285.128C576.819 285.291 576.384 284.965 576.275 284.584C576.112 284.148 576.384 283.713 576.819 283.604Z" fill="#161616"/>
<path d="M576.82 285.128C575.025 284.747 573.664 283.006 573.773 281.156C573.828 280.122 575.46 280.122 575.406 281.156C575.351 282.353 576.113 283.332 577.256 283.55C578.235 283.768 577.854 285.346 576.82 285.128Z" fill="#161616"/>
<path d="M571.923 285.781C571.216 285.618 570.508 285.4 569.801 285.237C568.767 284.965 569.202 283.387 570.236 283.659C570.943 283.822 571.651 284.04 572.358 284.203C573.392 284.475 572.957 286.053 571.923 285.781Z" fill="#161616"/>
<path d="M573.392 288.556C573.011 289.1 572.685 289.644 572.304 290.189C572.086 290.57 571.596 290.733 571.161 290.461C570.78 290.243 570.617 289.699 570.889 289.318C571.27 288.774 571.596 288.23 571.977 287.685C572.195 287.305 572.685 287.141 573.12 287.413C573.501 287.631 573.664 288.175 573.392 288.556Z" fill="#161616"/>
<path d="M575.297 285.781C576.44 286.597 577.256 287.685 577.8 288.991C577.963 289.427 577.637 289.862 577.256 289.971C576.766 290.08 576.44 289.808 576.276 289.427C575.895 288.556 575.297 287.74 574.535 287.196C574.154 286.924 573.991 286.488 574.263 286.053C574.372 285.726 574.916 285.563 575.297 285.781Z" fill="#161616"/>
<path d="M499.493 57.0677C494.215 62.6182 488.501 67.6246 482.352 72.1411C481.481 72.7397 480.665 71.3249 481.536 70.7263C487.576 66.2642 493.181 61.3122 498.35 55.8706C499.058 55.1632 500.201 56.3059 499.493 57.0677Z" fill="#161616"/>
<path d="M551.789 186.471C535.518 185.6 519.247 188.375 504.228 194.742C503.249 195.123 502.433 193.762 503.412 193.327C518.703 186.851 535.191 183.913 551.789 184.838C552.822 184.947 552.822 186.579 551.789 186.471Z" fill="#161616"/>
<path d="M474.516 269.837C468.204 266.136 461.946 262.436 455.633 258.681C454.708 258.137 455.525 256.722 456.45 257.267C462.762 260.967 469.02 264.667 475.332 268.422C476.257 268.966 475.441 270.381 474.516 269.837Z" fill="#161616"/>
<path d="M545.367 289.481C536.17 280.666 525.396 273.809 513.479 269.293C512.499 268.912 512.934 267.334 513.914 267.715C526.049 272.34 537.095 279.305 546.51 288.339C547.271 289.046 546.129 290.243 545.367 289.481Z" fill="#161616"/>
<path d="M524.634 241.976C518.322 240.996 512.009 240.017 505.642 238.983C504.609 238.819 505.044 237.241 506.078 237.405C512.39 238.384 518.702 239.364 525.069 240.397C526.103 240.561 525.668 242.139 524.634 241.976Z" fill="#161616"/>
<path d="M631.89 215.039C623.891 218.359 615.347 219.665 606.695 218.957C605.661 218.848 605.661 217.216 606.695 217.325C615.184 218.032 623.564 216.726 631.454 213.461C632.434 213.08 632.869 214.658 631.89 215.039Z" fill="#161616"/>
<path d="M631.998 106.859C618.176 109.199 605.225 115.076 594.451 124.055C593.635 124.708 592.492 123.565 593.308 122.912C604.3 113.716 617.469 107.621 631.617 105.281C632.597 105.118 633.032 106.696 631.998 106.859Z" fill="#161616"/>
<path d="M600.164 133.088C594.722 136.135 589.009 138.475 582.968 140.107C581.935 140.38 581.499 138.801 582.533 138.529C588.41 136.951 594.015 134.666 599.348 131.673C600.219 131.129 601.035 132.543 600.164 133.088Z" fill="#161616"/>
<path d="M572.14 46.13C561.692 51.2452 552.658 58.7003 545.693 68.0055C545.095 68.8218 543.68 68.0055 544.278 67.1893C551.407 57.6663 560.603 49.9392 571.269 44.7152C572.248 44.2798 573.065 45.6947 572.14 46.13Z" fill="#161616"/>
<path d="M527.301 94.2343C522.621 96.5198 517.941 98.8597 513.316 101.145C512.391 101.635 511.574 100.22 512.5 99.7304C517.179 97.4449 521.859 95.105 526.485 92.8195C527.41 92.3297 528.28 93.7445 527.301 94.2343Z" fill="#161616"/>
<path d="M227.466 451.371C223.984 458.064 220.501 464.812 217.018 471.505C221.426 473.79 227.793 477.055 235.683 480.81C246.186 485.816 251.247 487.884 250.974 489.789C250.648 491.911 243.737 492.401 238.295 492.782C234.105 493.054 225.997 493.435 200.258 488.32C194.708 487.231 192.041 486.578 190.572 484.238C188.014 480.157 191.062 474.334 194.653 466.335C197.537 459.914 201.455 450.663 205.482 438.746C212.774 442.882 220.12 447.126 227.466 451.371Z" fill="#191919"/>
<path d="M345.877 234.901C337.714 264.613 328.899 288.665 321.662 306.459C315.676 321.097 310.506 332.253 308.329 336.824C297.773 359.08 288.576 374.752 284.767 381.445C274.972 398.478 260.933 424.38 243.356 462.254C239.166 462.798 228.827 463.56 217.617 458.118C203.632 451.371 197.646 439.508 196.013 435.971C208.366 413.17 216.583 393.798 221.753 380.411C235.846 344.061 237.642 323.709 252.117 276.421C259.191 253.349 266.157 233.813 271.87 218.74C296.467 224.181 321.172 229.514 345.877 234.901Z" fill="white" stroke="#191919" stroke-width="1.08833" stroke-miterlimit="10"/>
<path opacity="0.09" d="M309.581 228.208C287.379 281.101 265.612 335.79 244.444 392.22C235.955 414.911 227.683 437.385 219.739 459.696C215.929 457.628 210.978 454.472 205.971 449.738C201.128 445.113 197.754 440.542 195.523 436.896C200.475 428.624 208.039 415.238 215.494 397.933C221.208 384.71 225.779 371.596 248.307 287.195C250.702 278.217 255.817 258.953 266.374 234.901C269.258 228.317 271.815 223.038 273.502 219.664C285.474 222.494 297.5 225.324 309.581 228.208Z" fill="#6C6D6D"/>
<path opacity="0.22" d="M283.407 222.004C274.102 245.893 265.014 270.979 256.308 297.099C237.915 352.604 223.821 405.497 213.046 454.908C210.489 453.33 207.496 451.207 204.503 448.269C200.15 444.024 197.266 439.671 195.47 436.406C205.265 418.721 212.013 403.647 216.366 393.145C232.8 353.638 242.323 313.969 247.764 291.44C248.635 287.849 249.125 285.672 250.159 281.917C255.709 261.729 260.879 253.893 267.735 232.452C268.606 229.677 270.021 225.215 271.544 219.61C275.517 220.426 279.435 221.188 283.407 222.004Z" fill="#6C6D6D"/>
<path d="M349.414 396.519C344.571 402.722 339.728 408.926 334.885 415.184C362.474 424.707 368.895 429.06 368.46 431.237C367.372 436.243 329.008 427.536 312.52 429.767C311.214 429.931 307.024 430.584 305.065 428.298C303.378 426.285 304.139 422.965 304.684 421.224C313.281 408.164 321.825 395.104 330.423 382.044C336.735 386.833 343.102 391.676 349.414 396.519Z" fill="#191919"/>
<path d="M265.721 236.153C262.13 245.676 251.083 278.108 267.245 300.528C268.823 302.759 273.557 308.854 294.018 320.172C314.424 331.437 333.089 338.348 347.618 342.647C343.21 350.156 337.714 358.482 330.858 367.08C325.471 373.827 320.138 379.704 315.077 384.765C325.579 393.853 336.136 402.94 346.639 412.028C356.379 407.62 372.541 398.75 386.853 381.881C396.103 370.998 407.041 358.046 406.932 341.177C406.823 325.505 397.137 315.057 379.18 295.739C366.99 282.625 347.128 261.729 313.118 247.907C294.181 240.18 277.257 237.296 265.721 236.153Z" fill="white" stroke="#191919" stroke-width="1.08833" stroke-miterlimit="10"/>
<path opacity="0.17" d="M303.431 244.37C301.255 249.213 298.751 256.886 299.622 266.028C300.765 278.163 307.404 287.523 318.613 298.678C329.66 309.67 349.522 326.703 381.247 341.939C364.922 360.55 348.597 379.106 332.272 397.716C326.722 393.689 321.117 389.608 315.566 385.581C320.736 380.14 326.123 373.991 331.51 366.971C337.986 358.591 343.373 350.537 347.835 343.082C331.728 337.804 318.559 332.362 308.764 327.9C308.764 327.9 296.847 322.512 281.828 313.098C275.135 308.908 270.836 305.807 267.026 300.583C262.51 294.379 260.986 288.502 260.17 285.4C254.892 264.885 264.523 241.377 266.646 236.425C272.74 236.643 280.086 237.459 288.303 239.473C294.017 240.833 299.132 242.574 303.431 244.37Z" fill="#6C6D6D"/>
<path opacity="0.22" d="M261.313 284.584C270.999 292.692 281.991 301.072 294.344 309.235C316.872 324.199 338.421 335.083 357.358 343.027C345.822 358.591 334.34 374.154 322.804 389.717C320.409 388.084 318.015 386.452 315.566 384.765C321.226 378.507 327.103 371.433 333.034 363.488C338.53 356.087 343.319 348.959 347.455 342.211C342.884 341.014 336.571 339.164 329.225 336.497C313.226 330.675 302.506 324.58 290.916 317.887C274.591 308.473 271.054 304.718 268.55 301.181C264.143 295.141 262.238 288.883 261.313 284.584Z" fill="#6C6D6D"/>
<path d="M292.984 103.866C301.038 100.547 310.506 115.838 311.377 117.253C314.587 122.586 315.349 126.449 318.342 136.788C325.688 162.092 329.497 174.88 336.735 181.519C343.21 187.45 350.013 187.722 351.808 187.668C359.427 187.613 365.685 182.335 377.928 171.724C388.213 162.799 389.301 160.079 395.233 157.847C398.28 156.705 407.096 153.331 414.007 159.915C418.414 164.105 421.081 171.833 419.884 173.792C418.36 176.295 410.143 170.363 410.089 170.581C410.034 170.69 412.428 171.669 414.66 174.336C415.748 175.642 417.652 178.471 417.217 179.451C416.401 181.355 409.109 172.594 402.579 175.859C398.117 178.09 397.899 183.967 392.73 186.253C389.682 187.613 386.798 186.852 384.948 186.144C382.445 191.368 378.255 198.878 371.725 205.68C367.861 209.761 354.094 223.692 334.939 221.624C314.696 219.393 302.344 200.673 298.534 194.905C296.358 191.586 280.305 166.445 282.699 133.686C283.08 128.408 284.658 107.349 292.984 103.866Z" fill="white" stroke="#191919" stroke-width="1.08833" stroke-miterlimit="10"/>
<path opacity="0.25" d="M293.908 103.866C296.955 105.226 293.146 120.518 296.248 140.488C299.186 159.698 306.914 172.649 310.396 178.526C315.076 186.471 321.225 196.81 331.728 202.088C345.822 209.217 361.602 204.21 372.159 194.851C375.315 192.075 377.982 184.784 385.002 179.124C388.049 176.676 390.552 175.37 393.436 173.9C400.51 170.309 406.877 167.044 413.353 169.873C416.454 171.234 419.23 173.791 419.066 174.281C418.903 174.771 415.312 173.138 412.101 171.615C416.4 177.274 417.216 179.015 416.999 179.451C416.781 179.886 415.475 178.743 412.428 177.22C409.163 175.587 406.823 174.499 404.211 175.424C402.85 175.914 401.925 176.73 401.327 177.22C399.15 179.179 398.769 180.974 396.592 183.206C395.232 184.566 394.035 185.219 393.436 185.545C392.13 186.253 389.3 187.45 385.328 186.471C382.607 191.967 369.928 216.4 347.672 220.862C336.244 223.147 327.157 219.229 323.565 217.597C303.921 208.673 294.017 187.45 291.405 181.573C283.406 163.343 278.018 134.884 286.235 114.368C288.194 109.417 291.786 102.941 293.908 103.866Z" fill="#6C6D6D"/>
<path opacity="0.29" d="M284.005 128.027C285.365 133.904 287.596 142.338 290.861 152.079C297.337 171.397 303.159 188.756 314.532 201.054C328.572 216.291 345.387 217.542 354.855 216.944C348.216 220.699 342.72 221.515 339.183 221.569C312.519 222.385 293.909 187.123 288.14 171.234C287.106 168.404 285.039 162.581 283.841 154.256C282.209 143.155 283.134 133.686 284.005 128.027Z" fill="#6C6D6D"/>
<path d="M335.538 114.749C344.245 124 346.367 134.339 349.741 150.828C354.856 175.642 352.353 196.102 350.013 214.386C348.054 229.677 345.17 242.084 342.993 250.41C340 252.75 322.478 265.973 298.154 262.436C276.387 259.226 263.926 244.805 261.096 241.323C260.171 236.153 258.865 228.535 257.341 219.284C248.689 165.629 243.792 138.693 250.322 125.959C254.131 118.504 262.565 107.458 283.679 99.5128C289.774 98.8598 318.016 96.1389 335.538 114.749Z" fill="#605DEC"/>
<path opacity="0.19" d="M333.634 112.899C316.384 119.266 307.841 128.68 303.814 134.231C281.503 164.867 295.216 210.251 311.269 235.5C317.744 245.676 324.819 252.968 329.988 257.648C325.199 259.933 312.956 264.939 297.338 262.599C276.333 259.389 264.307 245.077 261.532 241.595C259.301 219.61 255.873 202.36 252.989 190.443C250.485 179.995 249.343 170.581 247.003 151.753C246.186 145.114 245.207 136.516 249.506 127.537C251.955 122.422 255.165 119.103 257.56 116.654C261.151 113.008 268.388 106.805 280.197 102.995C285.747 101.635 295.27 100.111 306.915 102.07C319.703 104.193 328.845 109.58 333.634 112.899Z" fill="#6C6D6D"/>
<path opacity="0.18" d="M251.629 121.769C252.608 121.824 250.54 136.897 253.751 157.684C259.682 196.157 278.728 222.821 286.074 232.29C292.224 240.18 301.855 251.063 315.949 261.783C310.888 262.545 304.141 262.872 296.414 261.402C278.075 257.974 266.43 246.71 261.968 241.867C260.825 235.228 258.975 224.834 256.635 211.992C251.139 181.954 250.051 178.363 249.18 169.003C246.786 143.482 250.486 121.769 251.629 121.769Z" fill="#6C6D6D"/>
<path d="M259.354 114.913C269.475 111.593 281.284 126.83 282.372 128.245C286.399 133.523 287.379 137.387 291.133 147.671C300.33 172.866 305.064 185.6 314.152 192.184C322.26 198.116 330.749 198.333 333.034 198.333C342.557 198.279 350.393 193.001 365.684 182.444C378.581 173.574 379.887 170.853 387.288 168.622C391.097 167.479 402.089 164.16 410.741 170.69C416.237 174.88 419.611 182.553 418.087 184.512C416.183 187.015 405.898 181.138 405.844 181.301C405.789 181.41 408.782 182.335 411.557 185.001C412.918 186.307 415.312 189.083 414.768 190.116C413.734 192.021 404.592 183.314 396.43 186.525C390.879 188.756 390.553 194.579 384.077 196.864C380.268 198.225 376.622 197.463 374.336 196.755C371.18 201.925 365.956 209.434 357.794 216.182C352.951 220.209 335.701 234.14 311.812 232.072C286.453 229.895 271.054 211.23 266.265 205.462C263.49 202.143 243.41 177.111 246.457 144.57C246.947 139.291 248.906 118.341 259.354 114.913Z" fill="white" stroke="#191919" stroke-width="1.08833" stroke-miterlimit="10"/>
<path opacity="0.25" d="M260.441 114.858C264.251 116.219 259.462 131.401 263.325 151.317C267.026 170.418 276.658 183.314 281.065 189.137C286.942 197.027 294.615 207.312 307.784 212.591C325.415 219.665 345.168 214.658 358.391 205.408C362.309 202.632 365.629 195.395 374.444 189.736C378.253 187.287 381.355 186.035 385.001 184.566C393.871 180.974 401.816 177.764 409.924 180.594C413.842 181.954 417.27 184.512 417.107 184.947C416.944 185.437 412.427 183.804 408.4 182.28C413.788 187.94 414.821 189.681 414.549 190.116C414.223 190.552 412.645 189.409 408.836 187.885C404.754 186.253 401.816 185.165 398.551 186.09C396.864 186.579 395.667 187.396 394.959 187.885C392.184 189.79 391.749 191.64 389.028 193.817C387.341 195.177 385.817 195.83 385.056 196.157C383.423 196.864 379.832 198.061 374.88 197.082C371.451 202.578 355.616 226.848 327.755 231.31C313.443 233.595 302.125 229.677 297.608 228.045C273.012 219.175 260.605 198.061 257.394 192.184C247.436 174.009 240.634 145.712 250.918 125.306C253.313 120.409 257.829 113.933 260.441 114.858Z" fill="#6C6D6D"/>
<path opacity="0.29" d="M248.034 138.91C249.776 144.733 252.497 153.168 256.578 162.854C264.686 182.063 271.978 199.367 286.18 211.611C303.757 226.739 324.762 227.991 336.625 227.392C328.299 231.147 321.443 231.909 317.035 232.017C283.677 232.779 260.387 197.735 253.15 181.9C251.844 179.124 249.232 173.302 247.762 165.03C245.803 153.929 246.946 144.57 248.034 138.91Z" fill="#6C6D6D"/>
<path d="M413.3 105.989C423.911 137.659 424.238 164.16 423.095 180.322C420.211 222.821 403.342 254.165 393.275 272.395C386.255 285.128 379.289 295.25 374.011 302.324C372.215 302.487 370.365 302.596 368.569 302.759C368.025 295.794 367.155 286.271 365.631 275.116C364.543 267.008 359.972 234.793 347.075 193.273C340.49 171.996 331.022 146.094 317.363 117.579C323.295 115.893 329.281 114.26 335.212 112.573C339.62 130.259 350.34 140.217 356.38 138.802C362.148 137.442 366.937 125.035 364.869 109.09C368.569 108.492 372.324 107.893 376.024 107.295C382.772 123.239 392.295 132 397.301 130.313C401.818 128.789 403.777 118.396 402.417 106.098C406.008 106.043 409.654 105.989 413.3 105.989Z" fill="#161616" stroke="#161616" stroke-width="1.08833" stroke-miterlimit="10"/>
<path d="M416.728 105.825C422.605 121.66 429.788 147.454 428.264 179.397C427.611 192.783 424.292 231.745 398.444 271.469C389.683 284.965 380.541 295.032 373.684 301.834C373.14 294.869 372.269 285.346 370.746 274.19C369.657 266.082 365.086 233.868 352.189 192.348C345.605 171.071 336.137 145.168 322.478 116.654C327.648 114.858 332.763 113.063 337.932 111.267C343.047 129.823 354.965 139.672 361.495 137.931C367.535 136.299 372.052 123.728 369.984 108.22C373.575 107.839 377.167 107.458 380.813 107.077C387.451 122.912 397.246 131.238 402.416 129.496C406.987 127.918 409.055 117.96 407.803 106.315C410.796 106.097 413.789 105.988 416.728 105.825Z" fill="white" stroke="#161616" stroke-width="1.08833" stroke-miterlimit="10"/>
<path d="M402.2 177.111C401.275 171.779 397.085 167.371 391.752 166.337C383.698 164.813 381.249 174.118 381.848 180.431C381.957 181.465 380.324 181.465 380.215 180.431C379.508 173.792 382.174 163.997 390.446 164.541C397.03 164.976 402.635 170.255 403.778 176.73C403.995 177.71 402.417 178.145 402.2 177.111Z" fill="#4F4F4F"/>
<path d="M404.104 178.145C396.213 178.254 388.486 179.397 380.922 181.682C379.888 182.009 379.507 180.431 380.487 180.104C388.16 177.764 396.05 176.567 404.104 176.513C405.192 176.513 405.192 178.145 404.104 178.145Z" fill="#4F4F4F"/>
<path d="M405.628 177.547C407.533 183.587 408.349 189.736 408.186 196.048C408.131 197.082 406.499 197.082 406.553 196.048C406.771 189.899 405.9 183.859 404.104 177.982C403.724 177.002 405.302 176.567 405.628 177.547Z" fill="#4F4F4F"/>
<path d="M407.804 197.463C400.023 201.055 391.534 202.469 382.99 201.381C381.956 201.272 381.956 199.64 382.99 199.749C391.207 200.783 399.424 199.585 406.988 196.103C407.913 195.613 408.729 197.028 407.804 197.463Z" fill="#4F4F4F"/>
<path d="M381.412 181.573C381.412 187.831 381.902 194.035 382.99 200.238C383.153 201.272 381.575 201.707 381.412 200.673C380.324 194.361 379.78 187.994 379.78 181.573C379.78 180.539 381.412 180.539 381.412 181.573Z" fill="#4F4F4F"/>
<path d="M394.744 186.906C395.125 186.525 394.363 185.382 393.873 185.6C393.383 185.818 393.601 187.015 394.145 186.743C394.254 186.688 394.254 186.525 394.308 186.525C394.199 186.58 394.199 186.525 394.254 186.525C394.363 186.58 394.363 186.743 394.526 186.797C395.179 187.069 394.852 185.818 394.58 185.818C394.308 185.818 394.199 187.069 394.417 187.178C394.689 187.233 394.961 186.634 394.961 186.471C395.016 186.199 394.961 185.927 394.744 185.763C394.199 185.328 393.764 185.818 393.655 186.362C393.601 186.634 393.655 187.015 393.819 187.233C393.873 187.287 394.145 187.341 394.199 187.287C394.526 186.308 396.104 186.743 395.778 187.722C395.125 189.573 392.676 189.137 392.132 187.45C391.587 185.709 392.839 183.696 394.798 184.076C396.594 184.457 397.084 186.634 395.995 187.994C395.397 188.702 394.363 189.137 393.546 188.593C392.785 188.103 392.621 187.124 392.676 186.308C392.785 185.382 393.274 184.457 394.254 184.24C395.233 184.022 395.995 184.784 396.322 185.655C396.648 186.471 396.539 187.45 395.886 188.049C395.288 188.593 394.308 188.593 393.655 188.212C392.839 187.777 392.349 186.743 392.73 185.872C393.057 185.11 393.982 184.729 394.798 185.002C395.669 185.274 396.05 186.253 395.832 187.069C395.614 187.94 394.744 188.484 393.819 188.43C391.587 188.212 391.261 184.838 393.329 184.076C395.451 183.315 397.41 186.525 395.832 188.103C395.125 188.756 393.982 187.614 394.744 186.906Z" fill="#4F4F4F"/>
<path d="M395.179 187.233C395.506 189.083 395.887 190.933 396.213 192.783C396.431 193.817 394.853 194.253 394.635 193.219C394.309 191.369 393.928 189.518 393.601 187.668C393.438 186.634 395.016 186.199 395.179 187.233Z" fill="#4F4F4F"/>
<path d="M395.779 187.124C396.16 189.083 396.377 191.042 396.377 193.001C396.377 194.035 394.745 194.035 394.745 193.001C394.745 191.151 394.582 189.355 394.201 187.559C393.983 186.525 395.561 186.09 395.779 187.124Z" fill="#4F4F4F"/>
<path d="M394.309 187.124C394.853 189.029 395.452 190.879 395.996 192.783C396.268 193.817 394.745 194.198 394.418 193.219C393.874 191.314 393.275 189.464 392.731 187.559C392.459 186.525 394.037 186.09 394.309 187.124Z" fill="#4F4F4F"/>
<path d="M394.744 186.307C393.71 186.307 393.71 184.675 394.744 184.675C395.778 184.675 395.778 186.307 394.744 186.307Z" fill="#4F4F4F"/>
<path d="M372.977 110.342C373.848 117.743 372.759 125.034 369.875 131.891C369.658 132.381 368.95 131.945 369.168 131.456C371.998 124.762 373.031 117.525 372.161 110.287C372.106 109.798 372.923 109.798 372.977 110.342Z" fill="#4F4F4F"/>
<path d="M411.667 109.308C412.102 115.511 411.286 121.606 409.164 127.483C409.001 127.973 408.184 127.755 408.402 127.265C410.524 121.497 411.34 115.457 410.905 109.308C410.796 108.764 411.613 108.764 411.667 109.308Z" fill="#4F4F4F"/>
<path d="M334.777 115.403C332.709 116.6 330.587 117.634 328.356 118.504C327.866 118.722 327.649 117.906 328.138 117.742C330.261 116.872 332.328 115.892 334.342 114.75C334.832 114.423 335.267 115.13 334.777 115.403Z" fill="#4F4F4F"/>
<path d="M339.076 20.119C340.055 23.1663 341.035 26.2136 341.905 29.4242C345.66 42.4298 348.163 54.8912 349.85 66.482C347.129 66.5908 344.463 66.6452 341.742 66.7541C342.395 69.3116 344.572 78.6169 339.783 88.8472C335.321 98.4246 327.594 102.832 325.145 104.084C325.852 107.675 326.505 111.267 327.213 114.858C325.254 115.783 313.935 121.007 300.984 115.947C290.209 111.757 285.258 103.159 284.006 100.764C289.176 92.0578 290.59 84.3851 291.026 79.9773C291.787 72.4134 290.536 66.2099 289.448 60.6594C288.305 55.0001 286.836 50.4291 285.638 47.1641C281.938 37.0426 285.638 19.6836 296.739 12.0653C307.677 4.50139 325.961 7.05898 339.076 20.119Z" fill="white" stroke="#161616" stroke-width="1.08833" stroke-miterlimit="10"/>
<path d="M342.94 67.0261C341.525 67.0261 340.056 67.0261 338.641 67.0805C338.097 67.0805 338.097 66.2643 338.641 66.2643C340.056 66.2098 341.525 66.2098 342.94 66.2098C343.484 66.2098 343.484 67.0261 342.94 67.0261Z" fill="#161616"/>
<path d="M293.475 34.1583C299.569 34.8113 301.365 39.8176 310.344 49.5038C319.431 59.2988 325.145 65.4478 334.233 68.1687C340.11 69.91 342.722 68.8761 345.606 71.8146C350.612 76.8753 349.088 86.6159 347.238 91.7311C345.116 97.6625 341.198 101.58 337.933 104.791C334.831 107.893 331.893 110.015 329.771 111.376C331.675 107.403 331.675 106.206 331.294 105.934C330.369 105.281 327.648 109.906 323.676 109.961C322.533 109.961 320.411 109.58 315.024 103.213C311.378 98.8597 308.875 95.9212 306.807 91.459C302.453 81.8272 306.263 78.5078 303.215 65.4478C302.725 63.4344 299.188 48.0345 293.529 47.7624C291.461 47.6536 289.665 49.6126 288.849 51.0274C287.217 54.0203 287.979 58.2648 291.08 61.6387C290.155 61.2033 281.503 56.9044 280.36 48.1978C280.197 46.8373 279.544 41.7766 282.863 37.9674C286.781 33.5053 292.985 34.1038 293.475 34.1583Z" fill="#161616" stroke="#161616" stroke-width="1.08833" stroke-miterlimit="10"/>
<path d="M335.939 50.9496C334.808 51.1069 333.663 49.5934 333.381 47.5692C333.1 45.545 333.789 43.7765 334.92 43.6193C336.051 43.462 337.196 44.9755 337.478 46.9997C337.759 49.0239 337.07 50.7924 335.939 50.9496Z" fill="#161616"/>
<path d="M339.239 43.9534C336.573 42.7562 333.798 41.9944 330.968 41.5047C329.934 41.3414 330.369 39.7633 331.403 39.9266C334.396 40.4163 337.28 41.287 340.11 42.5386C341.035 42.9739 340.219 44.3887 339.239 43.9534Z" fill="#161616"/>
<path d="M341.579 25.7238C340.545 22.2956 338.423 16.7451 333.797 11.3034C332.165 9.39884 328.737 5.31758 323.839 2.97767C314.479 -1.53892 301.311 0.746583 292.658 9.07233C284.224 17.2348 281.231 30.186 284.986 42.1577C303.814 36.6616 322.696 31.2199 341.579 25.7238Z" fill="#605DEC"/>
<path d="M373.467 21.9147C344.354 29.8052 315.241 37.75 286.128 45.6404C283.081 46.4567 281.775 41.7224 284.822 40.9062C313.935 33.0157 343.048 25.0709 372.161 17.1805C375.209 16.3643 376.515 21.0985 373.467 21.9147Z" fill="#161616"/>
<path d="M312.52 0.855579C305.174 3.57641 300.277 10.4873 300.277 18.0512C300.277 24.6357 304.031 30.7847 309.963 34.0497C301.637 36.3897 293.366 38.6752 285.04 41.0151C284.278 38.8384 283.407 35.4646 283.407 31.3833C283.353 21.8604 287.924 15.1127 289.448 13.0449C291.08 10.8138 296.903 3.35875 306.861 1.39975C309.146 0.855579 311.16 0.801162 312.52 0.855579Z" fill="#321693"/>
</svg>
