<svg width="275" height="35" viewBox="0 0 275 35" fill="none" xmlns="http://www.w3.org/2000/svg">
<path d="M81.388 11.4024C80.6707 10.9031 79.7325 10.6535 78.5734 10.6535C77.8212 10.6564 77.077 10.807 76.3829 11.0968C75.6763 11.3796 75.0218 11.7781 74.4462 12.276C73.972 12.6703 73.5832 13.1572 73.3036 13.707C73.0362 12.8511 72.51 12.0993 71.7974 11.5551C70.9429 10.9405 69.9101 10.6237 68.858 10.6535C68.1671 10.6508 67.4828 10.7876 66.8461 11.0559C66.2218 11.318 65.6452 11.6815 65.1397 12.1318C64.7569 12.4702 64.4217 12.8589 64.1434 13.2874V11.6907C64.1443 11.5827 64.1239 11.4756 64.0832 11.3755C64.0426 11.2755 63.9826 11.1844 63.9067 11.1076C63.8288 11.0286 63.736 10.9659 63.6337 10.9231C63.5314 10.8803 63.4216 10.8582 63.3106 10.8582C63.1997 10.8582 63.0899 10.8803 62.9876 10.9231C62.8853 10.9659 62.7925 11.0286 62.7146 11.1076C62.6387 11.1844 62.5787 11.2755 62.5381 11.3755C62.4974 11.4756 62.477 11.5827 62.4779 11.6907V24.1152C62.4745 24.3296 62.5512 24.5376 62.6931 24.6984C62.7704 24.7823 62.8652 24.8482 62.9708 24.8913C63.0764 24.9345 63.1902 24.9538 63.3042 24.948C63.5228 24.941 63.7306 24.851 63.8853 24.6963C64.04 24.5417 64.1299 24.3339 64.1369 24.1152V16.2547C64.1288 15.5228 64.3459 14.8062 64.7588 14.2019C65.1775 13.5904 65.7398 13.0909 66.3963 12.7472C67.0569 12.3895 67.7969 12.2037 68.5481 12.2071C69.3981 12.2071 70.0738 12.3857 70.573 12.7472C71.0722 13.1104 71.4478 13.6182 71.6489 14.2019C71.88 14.8612 71.9929 15.5561 71.9824 16.2547V24.1045C71.9815 24.3224 72.0666 24.5319 72.2191 24.6876C72.297 24.7666 72.3898 24.8293 72.4921 24.8721C72.5944 24.9149 72.7043 24.937 72.8152 24.937C72.9261 24.937 73.0359 24.9149 73.1382 24.8721C73.2406 24.8293 73.3333 24.7666 73.4112 24.6876C73.5632 24.5317 73.6475 24.3222 73.6458 24.1045V16.3386C73.6399 15.5948 73.8655 14.8677 74.2913 14.2578C74.7255 13.626 75.3067 13.1091 75.9848 12.7516C76.6524 12.3886 77.4003 12.1984 78.1603 12.1985C79.0296 12.1985 79.7232 12.3829 80.2411 12.7516C80.7635 13.1276 81.1602 13.6526 81.3794 14.2578C81.6249 14.9237 81.7467 15.6289 81.7387 16.3386V24.1045C81.7378 24.3224 81.8229 24.5319 81.9754 24.6876C82.0533 24.7666 82.1461 24.8293 82.2484 24.8721C82.3507 24.9149 82.4605 24.937 82.5715 24.937C82.6824 24.937 82.7922 24.9149 82.8945 24.8721C82.9968 24.8293 83.0896 24.7666 83.1675 24.6876C83.3195 24.5317 83.4038 24.3222 83.4021 24.1045V16.2547C83.4242 15.287 83.2681 14.3234 82.9416 13.4122C82.6398 12.6 82.0979 11.899 81.388 11.4024Z" fill="#05477C"/>
<path d="M97.7371 12.1362C97.1514 11.5771 96.4581 11.143 95.6994 10.8602C94.9426 10.5758 94.1408 10.43 93.3324 10.4298C92.2196 10.43 91.1292 10.7416 90.1843 11.3293C89.1683 11.9585 88.3357 12.8438 87.77 13.8964C87.1474 15.0081 86.8361 16.353 86.8361 17.931C86.805 19.2642 87.1209 20.5826 87.7527 21.7569C88.3454 22.8315 89.2302 23.7163 90.3048 24.309C91.4616 24.9358 92.7615 25.251 94.0769 25.2235C95.0942 25.232 96.0966 24.9794 96.9883 24.4897C97.8109 24.0514 98.5444 23.4632 99.1509 22.7554C99.237 22.6849 99.3065 22.5962 99.3545 22.4958C99.4024 22.3954 99.4277 22.2857 99.4284 22.1744C99.4275 22.081 99.408 21.9888 99.371 21.9031C99.3341 21.8174 99.2804 21.7399 99.2133 21.6752C99.1482 21.6048 99.0688 21.5492 98.9805 21.5121C98.8922 21.475 98.7969 21.4572 98.7011 21.46C98.4836 21.4726 98.2773 21.5609 98.118 21.7096C97.8314 22.0679 97.5011 22.3889 97.1346 22.665C96.7181 22.9803 96.2549 23.2286 95.7618 23.4009C95.2082 23.5919 94.6258 23.6858 94.0403 23.6785C92.9831 23.7082 91.9389 23.4389 91.0278 22.9017C90.2039 22.3927 89.5401 21.6619 89.1127 20.7929C88.6656 19.8781 88.4379 18.8717 88.4478 17.8535H98.9292C99.0372 17.8546 99.1444 17.8342 99.2445 17.7935C99.3446 17.7529 99.4356 17.6929 99.5124 17.6168C99.5919 17.5453 99.6554 17.4577 99.6984 17.3597C99.7414 17.2618 99.7631 17.1558 99.762 17.0488C99.7636 16.0756 99.5651 15.1124 99.1788 14.2191C98.8368 13.4385 98.3472 12.7313 97.7371 12.1362ZM88.8889 15.2154C89.148 14.5433 89.5395 13.9301 90.0401 13.4122C90.4871 12.9568 91.0263 12.6025 91.6217 12.3729C92.1653 12.1585 92.7437 12.0454 93.3281 12.0394C94.0614 12.0382 94.7859 12.1991 95.4498 12.5106C96.129 12.8294 96.7227 13.3051 97.182 13.8985C97.6754 14.5403 97.9742 15.3104 98.0427 16.117V16.3322H88.5747C88.6428 15.9506 88.7481 15.5766 88.8889 15.2154Z" fill="#05477C"/>
<path d="M110.801 10.6384C110.496 10.4999 110.166 10.4266 109.831 10.4232C109.083 10.4108 108.344 10.5823 107.679 10.9225C107.051 11.2427 106.49 11.6811 106.028 12.2135C105.572 12.7393 105.203 13.3341 104.933 13.9759C104.907 14.0361 104.886 14.0985 104.862 14.1588V11.6906C104.863 11.5828 104.843 11.4757 104.803 11.3756C104.763 11.2756 104.703 11.1844 104.628 11.1075C104.55 11.0285 104.457 10.9658 104.355 10.923C104.252 10.8802 104.143 10.8581 104.032 10.8581C103.921 10.8581 103.811 10.8802 103.709 10.923C103.606 10.9658 103.513 11.0285 103.436 11.1075C103.36 11.1843 103.3 11.2754 103.259 11.3755C103.218 11.4755 103.198 11.5826 103.199 11.6906V24.1152C103.195 24.3296 103.272 24.5375 103.414 24.6983C103.491 24.7823 103.586 24.8481 103.692 24.8913C103.797 24.9344 103.911 24.9538 104.025 24.9479C104.243 24.9404 104.451 24.8502 104.605 24.6956C104.759 24.5409 104.849 24.3335 104.856 24.1152V17.2531C104.858 16.5933 104.985 15.9399 105.23 15.3272C105.474 14.699 105.816 14.1135 106.244 13.5928C106.638 13.101 107.117 12.6828 107.657 12.3577C108.126 12.0693 108.665 11.9131 109.215 11.9058C109.476 11.8953 109.736 11.9423 109.977 12.0435C110.145 12.1297 110.33 12.1775 110.519 12.1834C110.617 12.1847 110.714 12.1664 110.805 12.1294C110.895 12.0924 110.978 12.0376 111.046 11.9682C111.124 11.8805 111.183 11.7782 111.22 11.6673C111.256 11.5564 111.271 11.4392 111.262 11.3227C111.267 11.1747 111.225 11.0289 111.142 10.906C111.06 10.7831 110.94 10.6895 110.801 10.6384Z" fill="#05477C"/>
<path d="M114.654 10.5136C114.543 10.5105 114.432 10.5312 114.329 10.5743C114.227 10.6173 114.134 10.6817 114.058 10.7632C113.906 10.9191 113.822 11.1287 113.824 11.3464V24.1044C113.822 24.3221 113.906 24.5317 114.058 24.6876C114.134 24.7691 114.227 24.8335 114.329 24.8765C114.432 24.9195 114.543 24.9402 114.654 24.9372C114.873 24.9302 115.081 24.8402 115.235 24.6855C115.39 24.5308 115.48 24.3231 115.487 24.1044V11.3464C115.488 11.1284 115.403 10.9189 115.25 10.7632C115.174 10.6817 115.082 10.6173 114.979 10.5743C114.876 10.5312 114.766 10.5105 114.654 10.5136Z" fill="#05477C"/>
<path d="M114.683 6.3262C114.37 6.3087 114.061 6.40161 113.809 6.58872C113.701 6.68301 113.616 6.80098 113.561 6.93346C113.506 7.06594 113.482 7.20937 113.491 7.35261V7.63019C113.482 7.77061 113.503 7.9114 113.553 8.04289C113.603 8.17438 113.681 8.29346 113.781 8.39193C114.029 8.58598 114.341 8.68037 114.655 8.65661C114.96 8.67812 115.262 8.58359 115.501 8.39193C115.602 8.29391 115.681 8.17496 115.731 8.0434C115.782 7.91183 115.803 7.77081 115.793 7.63019V7.35261C115.803 7.21168 115.782 7.07038 115.731 6.93848C115.681 6.80658 115.602 6.68724 115.501 6.58872C115.271 6.40173 114.979 6.30803 114.683 6.3262Z" fill="#05477C"/>
<path d="M129.466 11.4024C128.383 10.767 127.15 10.432 125.895 10.432C124.639 10.432 123.407 10.767 122.324 11.4024C121.266 12.0442 120.396 12.9524 119.8 14.0362C119.189 15.2071 118.87 16.5081 118.87 17.8287C118.87 19.1493 119.189 20.4504 119.8 21.6213C120.391 22.7096 121.262 23.6199 122.324 24.2572C123.41 24.8832 124.641 25.2127 125.895 25.2127C127.148 25.2127 128.38 24.8832 129.466 24.2572C130.521 23.6161 131.386 22.7065 131.975 21.6213C132.585 20.4504 132.904 19.1493 132.904 17.8287C132.904 16.5081 132.585 15.2071 131.975 14.0362C131.381 12.9553 130.517 12.0476 129.466 11.4024ZM130.542 20.8316C130.103 21.6766 129.447 22.3895 128.642 22.8973C127.815 23.4134 126.857 23.6788 125.883 23.6612C124.918 23.6765 123.969 23.4111 123.152 22.8973C122.345 22.3872 121.685 21.6751 121.237 20.8316C120.753 19.9087 120.509 18.8784 120.529 17.8363C120.51 16.7887 120.754 15.7531 121.237 14.8237C121.682 13.9747 122.343 13.2578 123.152 12.7451C123.97 12.2323 124.918 11.967 125.883 11.9812C126.857 11.9647 127.815 12.23 128.642 12.7451C129.449 13.2555 130.106 13.9733 130.542 14.8237C131.017 15.7556 131.256 16.7902 131.237 17.8363C131.258 18.8765 131.021 19.9058 130.546 20.8316H130.542Z" fill="#05477C"/>
<path d="M145.925 11.1658C145.196 10.6766 144.221 10.432 142.998 10.432C142.32 10.4345 141.649 10.5614 141.016 10.8064C140.369 11.0508 139.766 11.3973 139.228 11.8328C138.744 12.2214 138.323 12.6831 137.98 13.2014V11.6908C137.981 11.5828 137.961 11.4757 137.92 11.3756C137.88 11.2756 137.82 11.1845 137.744 11.1077C137.666 11.0287 137.573 10.966 137.471 10.9232C137.368 10.8804 137.258 10.8583 137.148 10.8583C137.037 10.8583 136.927 10.8804 136.824 10.9232C136.722 10.966 136.629 11.0287 136.551 11.1077C136.476 11.1845 136.416 11.2756 136.375 11.3756C136.334 11.4757 136.314 11.5828 136.315 11.6908V24.1153C136.311 24.3297 136.388 24.5377 136.53 24.6985C136.607 24.7824 136.702 24.8483 136.808 24.8914C136.913 24.9346 137.027 24.9539 137.141 24.9481C137.36 24.9411 137.568 24.8511 137.722 24.6964C137.877 24.5418 137.967 24.334 137.974 24.1153V16.0332C137.971 15.3041 138.204 14.5936 138.639 14.0083C139.093 13.3899 139.687 12.8865 140.371 12.5386C141.068 12.1721 141.845 11.9815 142.633 11.9835C143.519 11.9835 144.236 12.1685 144.784 12.5386C145.319 12.8961 145.73 13.4092 145.964 14.0083C146.209 14.6548 146.331 15.3417 146.323 16.0332V24.1046C146.319 24.319 146.396 24.5269 146.538 24.6877C146.615 24.7717 146.71 24.8375 146.816 24.8807C146.921 24.9238 147.035 24.9432 147.149 24.9373C147.368 24.9303 147.576 24.8404 147.73 24.6857C147.885 24.531 147.975 24.3232 147.982 24.1046V15.9492C148 14.9997 147.842 14.055 147.517 13.1626C147.211 12.3451 146.654 11.6458 145.925 11.1658Z" fill="#05477C"/>
<path d="M169.528 11.1658C168.796 10.6766 167.821 10.432 166.601 10.432C165.923 10.4343 165.25 10.5612 164.617 10.8064C163.97 11.0508 163.367 11.3973 162.829 11.8328C162.345 12.2214 161.924 12.6831 161.581 13.2014V11.6908C161.582 11.5828 161.562 11.4757 161.521 11.3756C161.48 11.2756 161.42 11.1845 161.344 11.1077C161.267 11.0287 161.174 10.966 161.071 10.9232C160.969 10.8804 160.859 10.8583 160.748 10.8583C160.638 10.8583 160.528 10.8804 160.425 10.9232C160.323 10.966 160.23 11.0287 160.152 11.1077C160.077 11.1846 160.017 11.2757 159.977 11.3758C159.937 11.4759 159.917 11.5829 159.918 11.6908V24.1153C159.914 24.3297 159.991 24.5377 160.133 24.6985C160.21 24.7824 160.304 24.8482 160.41 24.8914C160.515 24.9345 160.628 24.9539 160.742 24.9481C160.961 24.9411 161.168 24.8511 161.323 24.6964C161.478 24.5418 161.568 24.334 161.575 24.1153V16.0332C161.572 15.3041 161.805 14.5936 162.24 14.0083C162.695 13.3893 163.289 12.8858 163.974 12.5386C164.671 12.1721 165.446 11.9815 166.233 11.9835C167.122 11.9835 167.836 12.1685 168.385 12.5386C168.92 12.8961 169.331 13.4092 169.564 14.0083C169.81 14.6548 169.932 15.3417 169.924 16.0332V24.1046C169.92 24.319 169.997 24.5269 170.139 24.6877C170.216 24.7716 170.31 24.8375 170.415 24.8806C170.521 24.9238 170.634 24.9431 170.748 24.9373C170.967 24.9303 171.174 24.8404 171.329 24.6857C171.484 24.531 171.574 24.3232 171.581 24.1046V15.9492C171.591 14.9984 171.427 14.0537 171.094 13.1626C170.795 12.349 170.247 11.6503 169.528 11.1658Z" fill="#05477C"/>
<path d="M185.903 12.1362C185.317 11.5771 184.624 11.143 183.865 10.8602C183.109 10.5758 182.307 10.43 181.498 10.4298C180.386 10.4302 179.295 10.7418 178.35 11.3293C177.335 11.9586 176.503 12.8439 175.938 13.8964C175.315 15.0081 175.004 16.353 175.004 17.931C174.976 19.2605 175.292 20.5746 175.921 21.7462C176.514 22.8203 177.399 23.705 178.473 24.2982C179.63 24.925 180.93 25.2402 182.245 25.2127C183.262 25.2217 184.265 24.969 185.156 24.479C185.982 24.0417 186.717 23.4534 187.325 22.7446C187.412 22.6741 187.481 22.5855 187.529 22.4851C187.577 22.3847 187.602 22.2749 187.603 22.1636C187.6 21.9754 187.523 21.7959 187.388 21.6644C187.322 21.594 187.243 21.5384 187.154 21.5013C187.065 21.4642 186.97 21.4464 186.874 21.4492C186.657 21.4618 186.451 21.5501 186.293 21.6988C186.005 22.0572 185.674 22.3782 185.307 22.6542C184.891 22.9699 184.428 23.2183 183.934 23.3901C183.381 23.5813 182.798 23.6752 182.213 23.6677C181.155 23.6972 180.111 23.4279 179.2 22.8909C178.377 22.3819 177.714 21.651 177.287 20.7822C176.839 19.8677 176.611 18.861 176.622 17.8428H187.106C187.214 17.844 187.321 17.8237 187.42 17.783C187.52 17.7424 187.611 17.6822 187.687 17.6061C187.767 17.5349 187.831 17.4473 187.874 17.3493C187.917 17.2513 187.938 17.1451 187.937 17.038C187.939 16.065 187.741 15.1018 187.356 14.2084C187.009 13.4308 186.516 12.7273 185.903 12.1362ZM177.057 15.2154C177.315 14.5429 177.707 13.9296 178.208 13.4122C178.655 12.9574 179.193 12.6031 179.788 12.3729C180.331 12.1585 180.91 12.0454 181.494 12.0394C182.227 12.038 182.952 12.1989 183.616 12.5106C184.295 12.8296 184.89 13.3053 185.35 13.8985C185.844 14.5403 186.142 15.3104 186.211 16.117V16.3322H176.743C176.809 15.9502 176.914 15.5759 177.057 15.2154Z" fill="#05477C"/>
<path d="M196.913 10.83H194.14V7.74002C194.141 7.6325 194.121 7.52581 194.08 7.4261C194.04 7.32639 193.981 7.23563 193.905 7.15903C193.827 7.08005 193.734 7.01733 193.632 6.97452C193.53 6.93171 193.42 6.90967 193.309 6.90967C193.198 6.90967 193.088 6.93171 192.986 6.97452C192.884 7.01733 192.791 7.08005 192.713 7.15903C192.637 7.23524 192.577 7.32588 192.536 7.42565C192.495 7.52542 192.475 7.6323 192.476 7.74002V10.83H190.451C190.241 10.8238 190.037 10.9012 189.883 11.0452C189.807 11.1157 189.746 11.2016 189.705 11.2973C189.664 11.393 189.644 11.4963 189.647 11.6004C189.647 11.7018 189.668 11.802 189.709 11.8949C189.75 11.9878 189.809 12.0714 189.883 12.1405C189.957 12.2166 190.045 12.2769 190.143 12.3176C190.241 12.3584 190.346 12.3786 190.451 12.3772H192.476V21.7504C192.476 22.5832 192.592 23.2201 192.823 23.6655C193.008 24.0599 193.314 24.3849 193.696 24.593C194.016 24.76 194.364 24.8637 194.723 24.8985C195.056 24.9265 195.306 24.9416 195.472 24.9416C195.841 24.9511 196.205 24.8596 196.526 24.6769C196.652 24.6197 196.759 24.5294 196.837 24.4156C196.915 24.3019 196.961 24.1691 196.969 24.0313C196.979 23.8462 196.916 23.6645 196.793 23.5257C196.739 23.4643 196.673 23.4153 196.599 23.3818C196.524 23.3484 196.444 23.3314 196.362 23.332C196.225 23.3303 196.089 23.3536 195.96 23.4009C195.831 23.4488 195.695 23.4721 195.558 23.4697C195.33 23.469 195.104 23.4267 194.891 23.3449C194.653 23.2473 194.461 23.0647 194.351 22.8328C194.189 22.467 194.115 22.0682 194.135 21.6687V12.3729H196.909C197.011 12.3766 197.113 12.3595 197.209 12.3225C197.304 12.2855 197.391 12.2294 197.464 12.1577C197.534 12.089 197.589 12.0069 197.626 11.9162C197.663 11.8256 197.681 11.7284 197.679 11.6305C197.686 11.4201 197.608 11.2159 197.464 11.0624C197.394 10.9872 197.308 10.9276 197.213 10.8876C197.119 10.8475 197.016 10.8279 196.913 10.83Z" fill="#05477C"/>
<path d="M218.714 10.4599C218.54 10.4435 218.365 10.4904 218.223 10.5919C218.08 10.6934 217.979 10.8429 217.937 11.0129L214.301 22.0194L210.836 13.778C210.772 13.6237 210.667 13.4899 210.533 13.3906C210.394 13.2956 210.229 13.2467 210.062 13.2508C209.892 13.2429 209.725 13.2901 209.585 13.3851C209.445 13.4801 209.34 13.618 209.285 13.778L205.988 22.0839L202.296 11.0043C202.251 10.8352 202.147 10.6877 202.003 10.589C201.868 10.4978 201.709 10.4498 201.547 10.4513C201.432 10.4458 201.318 10.4638 201.211 10.5041C201.103 10.5444 201.005 10.6063 200.923 10.6858C200.845 10.7639 200.784 10.857 200.743 10.9595C200.702 11.062 200.683 11.1717 200.686 11.2819C200.689 11.4068 200.718 11.5299 200.77 11.6434L205.151 24.4014C205.211 24.571 205.329 24.7137 205.485 24.8038C205.632 24.9003 205.808 24.9443 205.984 24.9286C206.147 24.925 206.305 24.8729 206.438 24.779C206.572 24.6851 206.674 24.5537 206.733 24.4014L209.986 15.8652L213.61 24.4014C213.672 24.5509 213.776 24.6796 213.908 24.7729C214.041 24.8662 214.197 24.9201 214.359 24.9286C214.53 24.9451 214.702 24.901 214.845 24.8038C214.997 24.7066 215.118 24.5667 215.191 24.4014L219.463 11.6434C219.486 11.5892 219.505 11.533 219.519 11.4755C219.535 11.4122 219.545 11.3473 219.547 11.2819C219.552 11.1669 219.531 11.0521 219.486 10.9465C219.44 10.8408 219.37 10.7472 219.282 10.6729C219.125 10.5353 218.923 10.4596 218.714 10.4599Z" fill="#05477C"/>
<path d="M232.386 11.4024C231.303 10.767 230.071 10.432 228.815 10.432C227.56 10.432 226.327 10.767 225.244 11.4024C224.187 12.0442 223.316 12.9524 222.72 14.0362C222.109 15.2071 221.791 16.5081 221.791 17.8287C221.791 19.1493 222.109 20.4504 222.72 21.6213C223.311 22.7096 224.183 23.6199 225.244 24.2572C226.33 24.8832 227.562 25.2127 228.815 25.2127C230.069 25.2127 231.3 24.8832 232.386 24.2572C233.442 23.6168 234.309 22.7071 234.897 21.6213C235.507 20.45 235.825 19.1491 235.825 17.8287C235.825 16.5084 235.507 15.2075 234.897 14.0362C234.303 12.955 233.438 12.0473 232.386 11.4024ZM233.462 20.8316C233.023 21.6761 232.367 22.389 231.562 22.8973C230.735 23.4134 229.776 23.6787 228.801 23.6612C227.836 23.6758 226.888 23.4105 226.071 22.8973C225.264 22.3871 224.605 21.675 224.158 20.8316C223.672 19.9091 223.429 18.8785 223.45 17.8363C223.429 16.7886 223.673 15.7527 224.158 14.8237C224.602 13.9749 225.261 13.258 226.071 12.7451C226.888 12.2329 227.836 11.9676 228.801 11.9812C229.776 11.9646 230.734 12.2299 231.562 12.7451C232.369 13.2561 233.025 13.9738 233.462 14.8237C233.937 15.7558 234.175 16.7904 234.155 17.8363C234.178 18.8761 233.942 19.9054 233.468 20.8316H233.462Z" fill="#05477C"/>
<path d="M246.835 10.6384C246.531 10.4994 246.2 10.4261 245.865 10.4232C245.118 10.4113 244.379 10.5827 243.713 10.9224C243.086 11.2438 242.526 11.682 242.063 12.2135C241.607 12.7398 241.238 13.3345 240.967 13.9758C240.942 14.0361 240.922 14.0985 240.899 14.1587V11.6906C240.899 11.5826 240.879 11.4755 240.838 11.3754C240.798 11.2753 240.738 11.1843 240.662 11.1075C240.584 11.0285 240.491 10.9658 240.389 10.9229C240.287 10.8801 240.177 10.8581 240.066 10.8581C239.955 10.8581 239.845 10.8801 239.743 10.9229C239.64 10.9658 239.548 11.0285 239.47 11.1075C239.394 11.1844 239.334 11.2755 239.294 11.3756C239.254 11.4757 239.234 11.5827 239.235 11.6906V24.1151C239.232 24.3295 239.309 24.5375 239.45 24.6983C239.527 24.7822 239.622 24.848 239.727 24.8912C239.832 24.9343 239.946 24.9537 240.059 24.9479C240.278 24.9409 240.486 24.8509 240.64 24.6962C240.795 24.5415 240.885 24.3338 240.892 24.1151V17.253C240.895 16.5932 241.022 15.9398 241.267 15.3272C241.51 14.6994 241.852 14.1141 242.278 13.5928C242.673 13.1008 243.153 12.6827 243.694 12.3577C244.16 12.0685 244.696 11.9109 245.245 11.9015C245.507 11.891 245.768 11.938 246.009 12.0392C246.177 12.1254 246.361 12.1731 246.549 12.1791C246.647 12.1806 246.744 12.1624 246.835 12.1254C246.925 12.0884 247.008 12.0335 247.076 11.9639C247.154 11.8765 247.213 11.7743 247.25 11.6633C247.287 11.5523 247.301 11.4349 247.292 11.3183C247.296 11.1716 247.254 11.0271 247.173 10.9052C247.091 10.7832 246.973 10.6899 246.835 10.6384Z" fill="#05477C"/>
<path d="M255.124 17.0444L260.842 12.1791C260.936 12.1002 261.013 12.0016 261.066 11.8901C261.118 11.7786 261.146 11.6569 261.147 11.5336C261.142 11.3188 261.052 11.1149 260.897 10.9655C260.829 10.8847 260.744 10.8194 260.648 10.7737C260.553 10.7281 260.448 10.7033 260.342 10.7008C260.231 10.7023 260.121 10.7279 260.02 10.7758C259.92 10.8237 259.831 10.8928 259.759 10.9784L251.746 17.8642V5.23526C251.747 5.1276 251.726 5.02086 251.685 4.92116C251.645 4.82146 251.585 4.73076 251.509 4.65427C251.431 4.57529 251.338 4.51257 251.236 4.46976C251.134 4.42695 251.024 4.40491 250.913 4.40491C250.802 4.40491 250.692 4.42695 250.59 4.46976C250.488 4.51257 250.395 4.57529 250.317 4.65427C250.241 4.73076 250.181 4.82146 250.141 4.92116C250.1 5.02086 250.08 5.1276 250.08 5.23526V24.0958C250.079 24.3138 250.164 24.5233 250.317 24.679C250.395 24.758 250.488 24.8207 250.59 24.8635C250.692 24.9063 250.802 24.9283 250.913 24.9283C251.024 24.9283 251.134 24.9063 251.236 24.8635C251.338 24.8207 251.431 24.758 251.509 24.679C251.662 24.5233 251.747 24.3138 251.746 24.0958V19.9213L253.837 18.1396L259.955 24.6316C260.026 24.7264 260.118 24.8033 260.223 24.8563C260.329 24.9093 260.446 24.937 260.564 24.9372C260.757 24.9207 260.941 24.8457 261.091 24.722C261.189 24.6541 261.268 24.5628 261.321 24.4564C261.375 24.3501 261.401 24.232 261.397 24.1131C261.399 23.8738 261.31 23.6427 261.147 23.4675L255.124 17.0444Z" fill="#05477C"/>
<path d="M273.829 19.5276C273.585 19.0744 273.244 18.6811 272.83 18.3764C272.386 18.0581 271.9 17.8019 271.386 17.6146C270.829 17.4068 270.26 17.2308 269.682 17.0874C269.037 16.9219 268.402 16.7179 267.782 16.4763C267.278 16.2917 266.816 16.0095 266.422 15.6457C266.074 15.2989 265.871 14.8327 265.854 14.3417C265.831 13.8363 265.999 13.3406 266.325 12.9538C266.648 12.598 267.053 12.3268 267.504 12.1641C267.987 11.9878 268.497 11.8989 269.011 11.9016C269.686 11.896 270.356 12.0278 270.98 12.2889C271.585 12.5451 272.126 12.9341 272.561 13.4272C272.621 13.4968 272.696 13.5522 272.78 13.5894C272.864 13.6266 272.955 13.6447 273.047 13.6424C273.232 13.6453 273.412 13.5862 273.56 13.4746C273.645 13.4059 273.713 13.3195 273.761 13.2213C273.809 13.1232 273.835 13.0157 273.837 12.9065C273.836 12.7998 273.814 12.6945 273.771 12.5968C273.728 12.4992 273.665 12.4113 273.588 12.3384C273.201 11.875 272.731 11.4888 272.202 11.2001C271.704 10.9316 271.172 10.7311 270.62 10.604C270.126 10.4899 269.621 10.43 269.114 10.4254C268.26 10.4107 267.413 10.581 266.631 10.9247C265.94 11.2244 265.342 11.7027 264.899 12.3104C264.468 12.9075 264.242 13.6274 264.253 14.3633C264.234 14.9546 264.379 15.5397 264.67 16.0546C264.949 16.52 265.322 16.9217 265.766 17.2338C266.248 17.5726 266.776 17.8435 267.332 18.0385C267.924 18.2537 268.533 18.4409 269.163 18.6066C269.733 18.7472 270.292 18.9232 270.84 19.1338C271.327 19.3104 271.768 19.5943 272.131 19.9644C272.454 20.3515 272.632 20.8401 272.632 21.3448C272.632 21.8494 272.454 22.338 272.131 22.7252C271.783 23.0943 271.349 23.371 270.868 23.53C270.373 23.7023 269.853 23.791 269.329 23.7925C268.446 23.8165 267.572 23.6111 266.792 23.1964C266.085 22.804 265.466 22.2709 264.974 21.6299C264.833 21.4758 264.641 21.3773 264.434 21.3523C264.341 21.3415 264.248 21.3506 264.16 21.3792C264.071 21.4078 263.99 21.4552 263.922 21.518C263.823 21.5651 263.739 21.6376 263.678 21.7279C263.616 21.8183 263.58 21.9234 263.573 22.0323C263.573 22.2651 263.649 22.4916 263.788 22.6778C264.437 23.525 265.292 24.1918 266.271 24.6145C267.189 24.9986 268.175 25.1961 269.17 25.1954C270.034 25.2066 270.892 25.0464 271.694 24.7242C272.409 24.4415 273.037 23.9728 273.51 23.3664C273.967 22.76 274.207 22.017 274.19 21.2576C274.213 20.6601 274.089 20.0661 273.829 19.5276Z" fill="#05477C"/>
<path d="M21.307 21.3137C20.8766 14.5807 26.4713 9.13014 32.5674 9.47873C38.4311 9.81011 43.2576 15.4306 42.5303 21.7957C42.5238 21.8523 42.5017 21.9061 42.4666 21.951C42.4315 21.996 42.3846 22.0303 42.3313 22.0503C42.2779 22.0704 42.22 22.0753 42.164 22.0645C42.108 22.0537 42.056 22.0277 42.0138 21.9893C39.3081 19.5161 35.8385 18.0417 32.1801 17.8105C26.2712 17.4705 22.2258 20.5713 21.307 21.3137Z" fill="#177ACB"/>
<path d="M21.3069 21.3136C25.1586 15.7749 32.9417 15.0067 37.4906 19.0671C41.8717 22.9791 42.1471 30.3835 37.6111 34.9087C37.571 34.9493 37.5204 34.9779 37.465 34.9913C37.4096 35.0048 37.3515 35.0026 37.2973 34.9849C37.243 34.9673 37.1948 34.9349 37.1579 34.8915C37.121 34.848 37.0968 34.7951 37.0882 34.7388C36.5094 31.1215 34.7142 27.8098 31.9992 25.3504C27.5859 21.3997 22.4968 21.305 21.3069 21.3136Z" fill="#EB6300"/>
<path d="M21.3073 21.3136C14.5635 21.5761 9.25718 15.8286 9.76286 9.74979C10.2449 3.89687 15.9902 -0.783307 22.3337 0.109693C22.3904 0.117272 22.4438 0.140482 22.488 0.176719C22.5322 0.212956 22.5654 0.260789 22.584 0.314856C22.6025 0.368922 22.6056 0.427085 22.593 0.482824C22.5803 0.538563 22.5524 0.589674 22.5123 0.63043C19.9751 3.27226 18.4139 6.69981 18.086 10.348C17.5911 16.2504 20.5864 20.3754 21.3073 21.3136Z" fill="#EB6300"/>
<path d="M21.3072 21.3136C15.8674 17.3199 15.3015 9.51741 19.4803 5.07608C23.5042 0.798286 30.9129 0.716517 35.3198 5.36657C35.3591 5.40792 35.3863 5.45935 35.3983 5.51518C35.4103 5.571 35.4066 5.62905 35.3877 5.68293C35.3688 5.7368 35.3354 5.78439 35.2911 5.82046C35.2468 5.85653 35.1935 5.87966 35.1369 5.88731C31.5057 6.37064 28.1482 8.07861 25.6194 10.7289C21.5547 15.0389 21.3287 20.1323 21.3072 21.3136Z" fill="#05477C"/>
<path d="M21.307 21.3136C21.705 28.051 16.063 33.4671 9.9777 33.0883C4.11617 32.7247 -0.680205 27.0762 0.0793831 20.7154C0.0855072 20.6586 0.107369 20.6045 0.142513 20.5594C0.177657 20.5142 0.224692 20.4798 0.278335 20.4599C0.331978 20.44 0.390104 20.4354 0.446186 20.4468C0.502268 20.4581 0.554085 20.4848 0.595817 20.5239C3.28714 23.0085 6.74541 24.5008 10.3994 24.7544C16.3191 25.131 20.3817 22.0517 21.307 21.3136Z" fill="#177ACB"/>
<path d="M21.3075 21.3135C17.4213 26.8308 9.63393 27.5538 5.10868 23.4653C0.751273 19.5297 0.518877 12.121 5.08071 7.62373C5.12143 7.5839 5.17234 7.55608 5.22785 7.5433C5.28335 7.53052 5.34131 7.53329 5.39534 7.5513C5.44938 7.56931 5.49741 7.60187 5.53414 7.6454C5.57088 7.68892 5.59491 7.74173 5.6036 7.79803C6.16137 11.4179 7.93674 14.7394 10.6367 17.2143C15.0285 21.193 20.1304 21.3157 21.3075 21.3135Z" fill="#05477C"/>
</svg>
