<svg width="1880" height="900" viewBox="0 0 1880 900" fill="none" xmlns="http://www.w3.org/2000/svg">
<rect width="1880" height="900" fill="white"/>
<path d="M1516.98 617.713C1469.65 617.713 1422.33 617.713 1375.01 617.713C1327.84 617.713 1280.68 617.713 1233.56 617.713C1206.9 617.713 1180.19 617.713 1153.54 617.713C1152.55 617.713 1152.55 616.165 1153.54 616.165C1200.86 616.165 1248.18 616.165 1295.5 616.165C1342.67 616.165 1389.84 616.165 1436.95 616.165C1463.61 616.165 1490.32 616.165 1516.98 616.165C1517.96 616.165 1517.96 617.713 1516.98 617.713Z" fill="#E8E8E8"/>
<path d="M1143.98 585.606C1144.39 600.473 1142.89 615.339 1139.48 629.844C1139.28 630.825 1137.78 630.412 1137.99 629.431C1141.34 615.081 1142.84 600.369 1142.38 585.606C1142.43 584.625 1143.98 584.625 1143.98 585.606Z" fill="#E8E8E8"/>
<path d="M1082.45 586.793C1081 600.524 1081.88 614.41 1085.03 627.831C1085.24 628.812 1083.79 629.225 1083.53 628.244C1080.33 614.668 1079.4 600.679 1080.9 586.793C1081 585.812 1082.55 585.812 1082.45 586.793Z" fill="#E8E8E8"/>
<path d="M1138.86 631.29C1120.99 635.832 1102.08 635.213 1084.57 629.431C1083.64 629.122 1084.05 627.625 1084.98 627.934C1102.29 633.613 1120.83 634.284 1138.45 629.793C1139.43 629.586 1139.84 631.083 1138.86 631.29Z" fill="#E8E8E8"/>
<path d="M1143.26 586.329C1123.16 590.613 1102.34 590.51 1082.29 586.071C1081.31 585.864 1081.73 584.367 1082.71 584.574C1102.49 588.961 1123.06 589.013 1142.84 584.832C1143.82 584.625 1144.24 586.122 1143.26 586.329Z" fill="#E8E8E8"/>
<path d="M1131.01 586.897C1133.7 580.857 1131.27 573.475 1129.26 567.539C1127.19 561.396 1124.24 555.563 1120.63 550.195C1121.04 550.247 1121.45 550.298 1121.87 550.35C1120.68 551.692 1119.39 552.621 1117.79 553.395C1117.17 553.653 1116.49 553.24 1116.65 552.518C1117.27 549.73 1118.35 546.994 1117.11 544.207C1116.24 542.245 1115 540.284 1113.96 538.426C1114.32 538.529 1114.69 538.632 1115.05 538.684C1113.96 539.355 1112.88 539.974 1111.79 540.645C1111.07 541.11 1110.45 540.232 1110.71 539.561C1111.79 537.187 1112.52 534.812 1111.02 532.438C1110.14 530.992 1109 529.702 1108.02 528.36C1105.85 525.469 1103.58 522.578 1101.31 519.739C1096.97 514.319 1092.47 509.054 1087.82 503.892C1088.24 503.84 1088.65 503.789 1089.06 503.737C1082.45 512.409 1078.27 522.785 1077.13 533.625C1076.56 538.839 1076.72 544.207 1077.65 549.369C1078.11 552.002 1078.78 554.583 1079.61 557.112C1079.76 557.628 1079.97 558.144 1080.12 558.609C1080.69 560.054 1081.62 560.674 1083.12 560.983C1084.15 561.19 1084.72 561.035 1085.6 561.706C1086.01 562.016 1086.12 562.532 1085.76 562.945C1084.62 564.132 1084.15 564.339 1084.57 565.939C1084.83 566.971 1085.45 568.055 1085.91 569.088C1086.84 571.153 1087.87 573.166 1088.96 575.127C1091.18 579.154 1093.71 582.973 1096.55 586.587C1097.17 587.361 1096.09 588.445 1095.47 587.671C1089.99 580.651 1085.65 572.959 1082.4 564.7C1082.29 564.442 1082.4 564.132 1082.6 563.926C1083.28 563.255 1083.95 562.532 1084.67 561.861C1084.72 562.274 1084.77 562.687 1084.83 563.1C1083.64 562.274 1082.29 562.842 1081.05 562.326C1080.07 561.964 1079.56 561.242 1079.14 560.312C1078.01 557.886 1077.28 555.099 1076.66 552.518C1075.37 546.84 1074.96 541.007 1075.37 535.225C1076.25 523.559 1080.54 512.254 1087.67 502.963C1087.93 502.601 1088.49 502.395 1088.91 502.808C1094.64 509.157 1100.17 515.713 1105.44 522.423C1107.82 525.417 1110.35 528.411 1112.41 531.663C1114.27 534.606 1113.4 537.393 1112.1 540.387C1111.74 540.026 1111.38 539.664 1111.02 539.303C1112.1 538.632 1113.19 538.013 1114.27 537.342C1114.63 537.135 1115.15 537.238 1115.36 537.6C1116.65 539.974 1118.66 542.607 1119.39 545.239C1120.01 547.562 1118.72 550.608 1118.2 552.879C1117.84 552.569 1117.42 552.311 1117.06 552.002C1118.56 551.331 1119.75 550.453 1120.83 549.214C1121.2 548.801 1121.82 548.956 1122.07 549.369C1126.1 555.357 1129.26 561.913 1131.43 568.83C1133.28 574.818 1135.09 581.631 1132.46 587.619C1131.94 588.548 1130.6 587.774 1131.01 586.897Z" fill="#E8E8E8"/>
<path d="M1088.96 515.609C1091.02 538.993 1107.04 557.731 1113.7 579.721C1114.01 580.702 1112.52 581.063 1112.21 580.134C1105.54 557.989 1089.47 539.2 1087.41 515.609C1087.3 514.577 1088.91 514.629 1088.96 515.609Z" fill="#E8E8E8"/>
<path d="M1108.49 528.05C1106.83 536.567 1104.92 544.981 1102.75 553.344C1102.49 554.324 1101 553.911 1101.25 552.931C1103.42 544.568 1105.33 536.103 1106.99 527.637C1107.14 526.656 1108.64 527.069 1108.49 528.05Z" fill="#E8E8E8"/>
<path d="M1091.03 533.522C1086.53 530.27 1082.66 526.398 1079.3 521.907C1078.68 521.133 1080.02 520.359 1080.64 521.133C1083.79 525.366 1087.51 529.082 1091.8 532.18C1092.58 532.799 1091.8 534.141 1091.03 533.522Z" fill="#E8E8E8"/>
<path d="M1095.83 511.428C1094.43 515.867 1093.61 521.288 1090.2 524.643C1089.47 525.365 1088.39 524.23 1089.11 523.559C1092.26 520.41 1093.09 515.093 1094.38 511.015C1094.64 510.086 1096.14 510.499 1095.83 511.428Z" fill="#E8E8E8"/>
<path d="M1134.11 586.483C1137.26 584.006 1139.17 580.547 1140.77 576.934C1142.58 572.701 1144.13 568.365 1145.53 563.977C1148.16 555.563 1150.07 546.891 1151.21 538.167C1153.53 519.894 1151.67 501.414 1153.9 483.089C1154.36 483.244 1154.88 483.347 1155.34 483.502C1149.56 496.51 1136.02 504.305 1124.76 512.048C1124.86 511.686 1124.97 511.325 1125.02 510.964C1126.57 513.183 1128.12 515.403 1129.67 517.623C1130.03 518.139 1129.56 518.81 1128.99 518.81C1126.98 518.81 1125.22 518.552 1123.31 517.881C1123.62 517.778 1123.88 517.623 1124.19 517.519C1122.28 520.462 1120.37 523.404 1118.46 526.346C1118.4 526.037 1118.35 525.727 1118.35 525.417C1119.28 526.295 1120.06 527.276 1120.83 528.36C1121.09 528.721 1120.83 529.444 1120.37 529.495C1116.13 530.115 1114.63 534.141 1113.55 537.754C1113.24 538.684 1111.74 538.322 1112.05 537.341C1113.34 533.264 1115.2 528.669 1119.95 527.998C1119.8 528.36 1119.64 528.773 1119.49 529.134C1118.82 528.102 1118.15 527.379 1117.27 526.553C1117.01 526.346 1116.96 525.882 1117.16 525.624C1119.08 522.681 1120.99 519.739 1122.9 516.797C1123.05 516.539 1123.42 516.332 1123.78 516.435C1125.53 517.003 1127.24 517.313 1129.05 517.261C1128.84 517.674 1128.58 518.036 1128.38 518.449C1126.83 516.229 1125.28 514.009 1123.73 511.79C1123.47 511.428 1123.67 510.964 1123.98 510.706C1135.04 503.118 1148.32 495.529 1154 482.728C1154.31 482.057 1155.55 482.366 1155.45 483.141C1153.17 502.137 1155.19 521.339 1152.5 540.284C1151.21 549.42 1149.09 558.402 1146.15 567.126C1143.77 574.198 1141.29 582.818 1135.25 587.619C1134.42 588.187 1133.33 587.103 1134.11 586.483Z" fill="#E8E8E8"/>
<path d="M1155.03 484.637C1150.85 496.2 1147.34 508.382 1141.7 519.378C1138.92 524.798 1135.87 530.114 1133.23 535.638C1130.39 541.626 1127.86 547.717 1125.28 553.756C1124.91 554.685 1123.57 553.86 1123.93 552.982C1126.36 547.201 1128.84 541.419 1131.48 535.741C1134.06 530.166 1137.06 524.849 1139.95 519.429C1145.73 508.383 1149.3 495.994 1153.59 484.276C1153.9 483.295 1155.4 483.708 1155.03 484.637Z" fill="#E8E8E8"/>
<path d="M1153.07 523.869C1147.49 524.54 1141.4 524.85 1137.16 529.031C1136.44 529.753 1135.35 528.618 1136.07 527.947C1140.62 523.507 1147.08 523.095 1153.07 522.372C1154.05 522.217 1154.05 523.766 1153.07 523.869Z" fill="#E8E8E8"/>
<path d="M1138.14 502.963C1139.07 506.318 1139.69 509.776 1139.95 513.287C1140.16 516.28 1140.52 519.791 1139.48 522.681C1139.17 523.611 1137.68 523.198 1137.99 522.268C1138.97 519.533 1138.61 516.126 1138.4 513.235C1138.14 509.88 1137.52 506.576 1136.64 503.324C1136.38 502.395 1137.88 501.982 1138.14 502.963Z" fill="#E8E8E8"/>
<path d="M1149.56 552.001C1145.53 552.105 1141.65 552.156 1137.73 553.24C1133.85 554.324 1130.03 555.46 1126.15 556.595C1125.17 556.854 1124.76 555.357 1125.74 555.098C1129.87 553.911 1133.96 552.621 1138.14 551.537C1141.91 550.556 1145.68 550.608 1149.56 550.504C1150.54 550.401 1150.54 551.95 1149.56 552.001Z" fill="#E8E8E8"/>
<path d="M1093.04 585.038C1089.58 584.573 1086.17 584.573 1082.71 585.038C1082.86 584.677 1083.02 584.264 1083.17 583.902C1083.48 584.367 1086.58 584.419 1087.2 584.47C1088.6 584.677 1090.04 584.883 1091.44 585.193C1091.64 585.244 1093.04 585.399 1093.09 585.554C1092.99 585.296 1090.92 585.348 1090.61 585.348C1089.11 585.348 1087.62 585.503 1086.12 585.606C1086.12 585.09 1086.12 584.573 1086.12 584.057C1087.41 584.006 1088.55 584.16 1089.84 584.522C1090.66 584.728 1090.51 586.019 1089.63 586.019C1087.62 586.019 1085.81 585.606 1083.84 585.09C1082.86 584.832 1083.28 583.335 1084.26 583.593C1086.01 584.057 1087.77 584.47 1089.63 584.47C1089.58 584.986 1089.47 585.503 1089.42 585.967C1088.34 585.657 1087.25 585.554 1086.12 585.554C1085.14 585.554 1085.14 584.057 1086.12 584.006C1088.39 583.902 1091.7 583.076 1093.76 584.367C1094.59 584.883 1095.78 586.225 1094.69 587.051C1094.23 587.413 1093.71 587.206 1093.14 587.154C1091.59 586.845 1090.09 586.483 1088.55 586.225C1086.74 585.916 1083.12 586.38 1081.88 584.677C1081.62 584.315 1081.88 583.593 1082.35 583.541C1085.96 583.025 1089.47 583.025 1093.09 583.489C1094.02 583.593 1094.02 585.141 1093.04 585.038Z" fill="#E8E8E8"/>
<path d="M1142.58 586.019C1141.86 585.813 1141.14 585.658 1140.41 585.606C1140.05 585.606 1139.74 585.554 1139.38 585.606C1139.23 585.606 1138.5 585.554 1138.45 585.606C1138.5 585.348 1138.61 585.09 1138.66 584.832C1138.66 584.883 1138.71 584.935 1138.71 584.935C1138.4 584.78 1138.09 584.574 1137.78 584.419C1137.83 584.419 1137.88 584.419 1137.88 584.419C1137.73 584.574 1137.52 584.78 1137.37 584.935C1137.37 584.883 1137.37 584.832 1137.42 584.832C1137.68 583.851 1139.12 584.264 1138.92 585.245C1138.92 585.296 1138.92 585.348 1138.86 585.348C1138.81 585.606 1138.55 585.813 1138.35 585.864C1138.3 585.864 1138.24 585.864 1138.24 585.864C1137.83 585.967 1137.47 585.761 1137.31 585.348C1137.31 585.296 1137.26 585.245 1137.26 585.245C1137.16 584.987 1137.26 584.677 1137.47 584.47C1138.04 583.903 1139.28 584.006 1140 584.006C1141.03 584.006 1142.12 584.212 1143.1 584.47C1143.93 584.78 1143.51 586.277 1142.58 586.019Z" fill="#E8E8E8"/>
<path d="M1141.4 596.395C1122.54 599.647 1102.96 601.195 1084.36 595.62C1083.43 595.31 1083.79 593.865 1084.77 594.123C1103.06 599.595 1122.38 598.098 1140.98 594.898C1141.96 594.743 1142.38 596.24 1141.4 596.395Z" fill="#E8E8E8"/>
<path d="M1076.46 617.61C1043.34 617.61 1010.17 617.61 977.059 617.61C976.077 617.61 976.077 616.062 977.059 616.062C1010.17 616.062 1043.34 616.062 1076.46 616.062C1077.49 616.062 1077.49 617.61 1076.46 617.61Z" fill="#E8E8E8"/>
<path d="M1101.51 650.802C1070.31 650.802 1039.05 650.802 1007.85 650.802C1006.87 650.802 1006.87 649.253 1007.85 649.253C1039.05 649.253 1070.31 649.253 1101.51 649.253C1102.49 649.253 1102.49 650.802 1101.51 650.802Z" fill="#E8E8E8"/>
<path d="M1087.3 650.647C1091.02 653.744 1094.74 656.79 1098.41 659.887C1099.19 660.507 1098.1 661.591 1097.33 660.971C1093.61 657.874 1089.89 654.828 1086.22 651.731C1085.45 651.112 1086.58 649.976 1087.3 650.647Z" fill="#E8E8E8"/>
<path d="M1097.95 661.539C1096.97 661.539 1096.97 659.99 1097.95 659.99C1098.93 659.99 1098.93 661.539 1097.95 661.539Z" fill="#E8E8E8"/>
<path d="M1082.19 659.99C1113.65 659.99 1145.11 659.99 1176.58 659.99C1177.56 659.99 1177.56 661.539 1176.58 661.539C1145.11 661.539 1113.65 661.539 1082.19 661.539C1081.21 661.539 1081.21 659.99 1082.19 659.99Z" fill="#E8E8E8"/>
<path d="M1176.73 675.992C1171.15 671.347 1165.42 666.907 1159.53 662.623C1158.75 662.055 1159.48 660.713 1160.3 661.281C1166.3 665.617 1172.13 670.159 1177.82 674.857C1178.59 675.528 1177.51 676.612 1176.73 675.992Z" fill="#E8E8E8"/>
<path d="M1647.06 647.808C1610.59 647.808 1574.11 647.808 1537.64 647.808C1527.31 647.808 1516.98 647.808 1506.64 647.808C1505.66 647.808 1505.66 646.259 1506.64 646.259C1543.12 646.259 1579.59 646.259 1616.06 646.259C1626.4 646.259 1636.73 646.259 1647.06 646.259C1648.04 646.259 1648.04 647.808 1647.06 647.808Z" fill="#E8E8E8"/>
<path d="M1628 661.281C1623.09 657.1 1618.13 652.918 1613.22 648.737C1612.45 648.066 1613.58 646.982 1614.31 647.653C1619.22 651.834 1624.17 656.016 1629.08 660.197C1629.86 660.816 1628.72 661.952 1628 661.281Z" fill="#E8E8E8"/>
<path d="M1645.77 662.778C1611.88 662.778 1577.99 662.778 1544.1 662.778C1543.12 662.778 1543.12 661.229 1544.1 661.229C1577.99 661.229 1611.88 661.229 1645.77 661.229C1646.75 661.229 1646.75 662.778 1645.77 662.778Z" fill="#E8E8E8"/>
<path d="M1555.93 662.468C1559.81 666.804 1563.78 671.037 1567.81 675.27C1568.48 675.993 1567.4 677.077 1566.73 676.354C1562.7 672.121 1558.77 667.888 1554.85 663.552C1554.12 662.829 1555.26 661.745 1555.93 662.468Z" fill="#E8E8E8"/>
<path d="M1582.38 677.748C1552.57 677.748 1522.81 677.748 1493.01 677.748C1492.02 677.748 1492.02 676.199 1493.01 676.199C1522.81 676.199 1552.57 676.199 1582.38 676.199C1583.36 676.199 1583.36 677.748 1582.38 677.748Z" fill="#E8E8E8"/>
<path d="M1603.51 621.843C1590.9 621.843 1578.3 621.843 1565.64 621.843C1564.66 621.843 1564.66 620.294 1565.64 620.294C1578.25 620.294 1590.85 620.294 1603.51 620.294C1604.49 620.294 1604.49 621.843 1603.51 621.843Z" fill="#E8E8E8"/>
<path d="M1556.08 626.902C1552.21 626.902 1548.28 626.902 1544.41 626.902C1543.43 626.902 1543.43 625.353 1544.41 625.353C1548.28 625.353 1552.21 625.353 1556.08 625.353C1557.12 625.353 1557.12 626.902 1556.08 626.902Z" fill="#E8E8E8"/>
<path d="M1584.14 350.89C1584.14 359.304 1584.14 367.77 1584.14 376.184C1584.14 377.165 1582.59 377.165 1582.59 376.184C1582.59 367.77 1582.59 359.304 1582.59 350.89C1582.59 349.91 1584.14 349.91 1584.14 350.89Z" fill="#E8E8E8"/>
<path d="M1610.12 377.423C1589.36 377.423 1568.59 377.423 1547.82 377.423C1546.84 377.423 1546.84 375.874 1547.82 375.874C1568.59 375.874 1589.36 375.874 1610.12 375.874C1611.11 375.874 1611.11 377.423 1610.12 377.423Z" fill="#E8E8E8"/>
<path d="M1566.62 378.146C1566.62 384.65 1566.62 391.103 1566.62 397.607C1566.62 398.587 1565.07 398.587 1565.07 397.607C1565.07 391.103 1565.07 384.65 1565.07 378.146C1565.07 377.114 1566.62 377.114 1566.62 378.146Z" fill="#E8E8E8"/>
<path d="M1583.83 400.291C1567.3 400.291 1550.71 400.291 1534.18 400.291C1533.2 400.291 1533.2 398.742 1534.18 398.742C1550.71 398.742 1567.3 398.742 1583.83 398.742C1584.86 398.742 1584.86 400.291 1583.83 400.291Z" fill="#E8E8E8"/>
<path d="M1166.92 332.772C1166.92 334.837 1166.92 336.85 1166.92 338.915C1166.92 339.896 1165.37 339.896 1165.37 338.915C1165.37 336.85 1165.37 334.837 1165.37 332.772C1165.37 331.791 1166.92 331.791 1166.92 332.772Z" fill="#E8E8E8"/>
<path d="M1165.68 334.011C1130.13 334.011 1094.59 334.011 1059.05 334.011C1058.07 334.011 1058.07 332.462 1059.05 332.462C1094.59 332.462 1130.13 332.462 1165.68 332.462C1166.66 332.462 1166.66 334.011 1165.68 334.011Z" fill="#E8E8E8"/>
<path d="M1164.75 339.689C1129.51 339.689 1094.28 339.689 1059.1 339.689C1058.12 339.689 1058.12 338.141 1059.1 338.141C1094.33 338.141 1129.57 338.141 1164.75 338.141C1165.73 338.141 1165.73 339.689 1164.75 339.689Z" fill="#E8E8E8"/>
<path d="M1059.3 332.772C1059.51 334.888 1059.41 337.005 1059.05 339.121C1058.89 340.102 1057.39 339.689 1057.55 338.708C1057.91 336.747 1057.96 334.734 1057.75 332.772C1057.65 331.791 1059.2 331.791 1059.3 332.772Z" fill="#E8E8E8"/>
<path d="M1158.39 332.824C1158.39 318.422 1158.39 304.02 1158.39 289.618C1158.39 288.637 1159.94 288.637 1159.94 289.618C1159.94 304.02 1159.94 318.422 1159.94 332.824C1159.94 333.856 1158.39 333.856 1158.39 332.824Z" fill="#E8E8E8"/>
<path d="M1158.39 289.876C1154 288.121 1149.35 288.379 1145.27 290.805C1144.39 291.321 1143.62 289.979 1144.49 289.463C1148.89 286.882 1154.1 286.469 1158.81 288.379C1159.74 288.74 1159.32 290.237 1158.39 289.876Z" fill="#E8E8E8"/>
<path d="M1145.53 290.444C1145.53 304.278 1145.53 318.164 1145.53 331.998C1145.53 332.978 1143.98 332.978 1143.98 331.998C1143.98 318.164 1143.98 304.278 1143.98 290.444C1143.98 289.463 1145.53 289.463 1145.53 290.444Z" fill="#E8E8E8"/>
<path d="M1143.77 302.007C1140.62 300.716 1137.31 300.923 1134.37 302.729C1133.49 303.245 1132.72 301.903 1133.59 301.387C1136.85 299.426 1140.67 299.064 1144.18 300.51C1145.11 300.871 1144.7 302.368 1143.77 302.007Z" fill="#E8E8E8"/>
<path d="M1134.68 302.678C1134.68 312.382 1134.68 322.035 1134.68 331.74C1134.68 332.72 1133.13 332.72 1133.13 331.74C1133.13 322.035 1133.13 312.382 1133.13 302.678C1133.13 301.697 1134.68 301.697 1134.68 302.678Z" fill="#E8E8E8"/>
<path d="M1158.19 301.748C1153.8 300.768 1149.46 301.077 1145.22 302.574C1144.29 302.884 1143.88 301.387 1144.81 301.077C1149.3 299.477 1153.95 299.271 1158.6 300.251C1159.53 300.458 1159.12 301.955 1158.19 301.748Z" fill="#E8E8E8"/>
<path d="M1144.86 319.66C1141.55 318.783 1138.24 318.68 1134.89 319.402C1133.9 319.609 1133.49 318.112 1134.47 317.905C1138.09 317.131 1141.65 317.183 1145.27 318.163C1146.2 318.421 1145.84 319.918 1144.86 319.66Z" fill="#E8E8E8"/>
<path d="M1115.15 332.307C1115.15 329.417 1115.15 326.526 1115.15 323.635C1115.15 322.654 1116.7 322.654 1116.7 323.635C1116.7 326.526 1116.7 329.417 1116.7 332.307C1116.7 333.288 1115.15 333.288 1115.15 332.307Z" fill="#E8E8E8"/>
<path d="M1115.92 324.1C1099.13 324.1 1082.4 324.1 1065.61 324.1C1064.62 324.1 1064.62 322.551 1065.61 322.551C1082.4 322.551 1099.13 322.551 1115.92 322.551C1116.96 322.551 1116.96 324.1 1115.92 324.1Z" fill="#E8E8E8"/>
<path d="M1065.09 324.926C1064.11 324.926 1064.11 323.377 1065.09 323.377C1066.12 323.377 1066.12 324.926 1065.09 324.926Z" fill="#E8E8E8"/>
<path d="M1065.87 324.151C1065.87 326.784 1065.87 329.417 1065.87 332.049C1065.87 333.03 1064.32 333.03 1064.32 332.049C1064.32 329.417 1064.32 326.784 1064.32 324.151C1064.32 323.171 1065.87 323.171 1065.87 324.151Z" fill="#E8E8E8"/>
<path d="M1105.39 323.068C1105.39 320.332 1105.39 317.647 1105.39 314.912C1105.39 313.931 1106.94 313.931 1106.94 314.912C1106.94 317.647 1106.94 320.332 1106.94 323.068C1106.94 324.048 1105.39 324.048 1105.39 323.068Z" fill="#E8E8E8"/>
<path d="M1106.16 315.428C1089.68 315.428 1073.2 315.428 1056.67 315.428C1055.69 315.428 1055.69 313.879 1056.67 313.879C1073.15 313.879 1089.63 313.879 1106.16 313.879C1107.14 313.879 1107.14 315.428 1106.16 315.428Z" fill="#E8E8E8"/>
<path d="M1057.19 314.654C1057.19 316.925 1057.19 319.196 1057.19 321.467C1057.19 322.448 1055.64 322.448 1055.64 321.467C1055.64 319.196 1055.64 316.925 1055.64 314.654C1055.64 313.621 1057.19 313.621 1057.19 314.654Z" fill="#E8E8E8"/>
<path d="M1066.18 324.358C1063.18 324.358 1060.18 324.358 1057.19 324.358C1056.21 324.358 1056.21 322.809 1057.19 322.809C1060.18 322.809 1063.18 322.809 1066.18 322.809C1067.21 322.809 1067.21 324.358 1066.18 324.358Z" fill="#E8E8E8"/>
<path d="M1057.29 321.519C1057.39 322.087 1057.39 322.603 1057.24 323.119C1057.13 323.532 1056.67 323.79 1056.31 323.635C1055.89 323.532 1055.64 323.068 1055.79 322.706C1055.84 322.448 1055.89 322.138 1055.84 321.932C1055.79 321.519 1055.95 321.054 1056.36 321.003C1056.72 320.899 1057.24 321.106 1057.29 321.519Z" fill="#E8E8E8"/>
<path d="M1094.38 315.015C1093.71 317.647 1093.56 320.331 1093.92 323.067C1094.02 324.048 1092.47 324.048 1092.37 323.067C1092.01 320.228 1092.21 317.389 1092.88 314.602C1093.14 313.673 1094.64 314.085 1094.38 315.015Z" fill="#E8E8E8"/>
<path d="M1082.71 323.997C1082.34 326.578 1082.55 329.107 1083.17 331.585C1083.43 332.565 1081.93 332.978 1081.67 331.998C1080.95 329.21 1080.79 326.423 1081.21 323.584C1081.31 322.603 1082.81 323.016 1082.71 323.997Z" fill="#E8E8E8"/>
<path d="M1092.83 386.818C1092.83 390.896 1092.83 394.922 1092.83 399C1092.83 399.981 1091.28 399.981 1091.28 399C1091.28 394.922 1091.28 390.896 1091.28 386.818C1091.28 385.786 1092.83 385.786 1092.83 386.818Z" fill="#E8E8E8"/>
<path d="M1104.82 399.207C1094.49 399.207 1084.15 399.207 1073.82 399.207C1072.84 399.207 1072.84 397.658 1073.82 397.658C1084.15 397.658 1094.49 397.658 1104.82 397.658C1105.8 397.658 1105.8 399.207 1104.82 399.207Z" fill="#E8E8E8"/>
<path d="M1122.44 225.557C1122.44 234.849 1122.44 244.192 1122.44 253.484C1122.44 254.464 1120.89 254.464 1120.89 253.484C1120.89 244.192 1120.89 234.849 1120.89 225.557C1120.89 224.577 1122.44 224.577 1122.44 225.557Z" fill="#E8E8E8"/>
<path d="M1120.47 225.506C1108.69 225.506 1096.97 225.506 1085.19 225.506C1084.2 225.506 1084.2 223.957 1085.19 223.957C1096.97 223.957 1108.69 223.957 1120.47 223.957C1121.45 223.957 1121.45 225.506 1120.47 225.506Z" fill="#E8E8E8"/>
<path d="M1085.14 225.299C1085.14 234.281 1085.14 243.263 1085.14 252.193C1085.14 253.174 1083.59 253.174 1083.59 252.193C1083.59 243.211 1083.59 234.23 1083.59 225.299C1083.59 224.319 1085.14 224.319 1085.14 225.299Z" fill="#E8E8E8"/>
<path d="M1121.87 254.362C1109.36 254.362 1096.86 254.362 1084.36 254.362C1083.38 254.362 1083.38 252.813 1084.36 252.813C1096.86 252.813 1109.36 252.813 1121.87 252.813C1122.85 252.813 1122.85 254.362 1121.87 254.362Z" fill="#E8E8E8"/>
<path d="M1118.97 228.758C1118.97 235.83 1118.97 242.85 1118.97 249.922C1118.97 250.903 1117.42 250.903 1117.42 249.922C1117.42 242.85 1117.42 235.83 1117.42 228.758C1117.42 227.777 1118.97 227.777 1118.97 228.758Z" fill="#E8E8E8"/>
<path d="M1117.84 229.377C1108.18 229.377 1098.47 229.377 1088.8 229.377C1087.82 229.377 1087.82 227.829 1088.8 227.829C1098.47 227.829 1108.18 227.829 1117.84 227.829C1118.82 227.829 1118.82 229.377 1117.84 229.377Z" fill="#E8E8E8"/>
<path d="M1089.37 228.758C1089.37 235.314 1089.37 241.818 1089.37 248.373C1089.37 249.354 1087.82 249.354 1087.82 248.373C1087.82 241.818 1087.82 235.314 1087.82 228.758C1087.82 227.777 1089.37 227.777 1089.37 228.758Z" fill="#E8E8E8"/>
<path d="M1117.84 250.696C1108.23 250.696 1098.62 250.696 1088.96 250.696C1087.98 250.696 1087.98 249.148 1088.96 249.148C1098.57 249.148 1108.18 249.148 1117.84 249.148C1118.82 249.148 1118.82 250.696 1117.84 250.696Z" fill="#E8E8E8"/>
<path d="M1099.55 241.405C1103.63 238.307 1097.53 231.855 1094.69 235.726C1092.06 239.237 1096.35 243.469 1100.01 241.508C1100.89 241.043 1101.67 242.385 1100.79 242.85C1098.41 244.14 1095.26 243.779 1093.56 241.559C1091.8 239.34 1092.01 235.83 1094.23 233.971C1096.55 232.061 1099.86 233.352 1101.46 235.52C1103.16 237.894 1102.65 240.992 1100.32 242.747C1099.5 243.315 1098.77 241.972 1099.55 241.405Z" fill="#E8E8E8"/>
<path d="M1104.46 249.045C1104.66 244.967 1099.65 243.418 1096.5 243.418C1092.63 243.418 1091.39 246.877 1089.79 249.819C1089.32 250.696 1087.98 249.922 1088.44 249.045C1089.53 247.083 1090.56 244.502 1092.37 243.057C1094.02 241.766 1096.09 241.818 1098.05 242.024C1101.67 242.437 1106.27 244.657 1106.01 249.045C1105.96 250.025 1104.41 250.025 1104.46 249.045Z" fill="#E8E8E8"/>
<path d="M1117.17 245.328C1116.03 243.212 1111.85 244.038 1110.3 244.863C1108.69 245.741 1107.76 247.186 1107.35 248.941C1107.14 249.922 1105.65 249.509 1105.85 248.528C1106.47 245.844 1108.33 243.728 1111.02 242.85C1113.29 242.128 1117.17 242.076 1118.46 244.502C1118.97 245.431 1117.63 246.206 1117.17 245.328Z" fill="#E8E8E8"/>
<path d="M1114.17 241.508C1115.87 241.456 1115.46 238.927 1114.74 238.05C1113.81 236.914 1111.95 236.759 1110.86 237.843C1109.98 238.669 1109.73 240.218 1110.45 241.198C1110.97 241.921 1111.74 242.076 1112.57 242.076C1112.88 242.076 1114.17 242.128 1114.38 241.869C1114.94 241.044 1116.29 241.818 1115.72 242.644C1115.1 243.573 1113.81 243.625 1112.77 243.625C1111.53 243.676 1110.35 243.366 1109.47 242.437C1107.82 240.631 1108.38 237.585 1110.35 236.243C1112.46 234.849 1115.41 235.623 1116.49 237.895C1117.42 239.908 1116.75 242.953 1114.17 243.005C1113.14 243.108 1113.14 241.56 1114.17 241.508Z" fill="#E8E8E8"/>
<path d="M1430.34 362.763C1427.91 364.724 1424.91 363.899 1422.64 361.989C1419.44 359.356 1417.84 354.865 1417.22 350.89C1415.61 340.773 1419.7 331.172 1421.3 321.364C1424.19 303.142 1416.23 283.63 1401.46 272.686C1394.28 267.318 1382.45 261.588 1385.24 250.593C1385.5 249.612 1386.99 250.025 1386.74 251.006C1384.1 261.485 1396.29 266.802 1402.96 271.86C1408.95 276.454 1413.81 282.391 1417.27 289.05C1420.68 295.502 1422.74 302.677 1423.31 309.956C1423.98 318.783 1421.66 326.99 1419.75 335.508C1418.61 340.67 1417.89 346.09 1418.87 351.355C1419.33 353.781 1420.16 356.156 1421.45 358.272C1422.9 360.543 1426.36 364.053 1429.25 361.73C1429.98 361.059 1431.11 362.143 1430.34 362.763Z" fill="#E8E8E8"/>
<path d="M1385.81 249.974C1391.64 250.232 1396.76 245.689 1396.45 239.701C1396.14 233.455 1388.75 227.674 1382.5 229.326C1376.92 230.823 1372.63 236.965 1374.03 242.695C1375.42 248.425 1381.88 249.664 1386.84 250.49C1387.82 250.645 1387.41 252.142 1386.43 251.987C1380.02 250.954 1372.58 248.683 1372.17 240.94C1371.86 234.643 1377.49 227.829 1383.95 227.571C1390.76 227.261 1397.64 232.836 1398 239.753C1398.31 246.567 1392.47 251.832 1385.81 251.574C1384.82 251.471 1384.82 249.922 1385.81 249.974Z" fill="#E8E8E8"/>
<path d="M1393.45 245.947C1390.97 239.701 1377.75 238.669 1376.2 246.102C1375.99 247.083 1374.49 246.67 1374.7 245.689C1376.61 236.604 1391.95 237.946 1394.95 245.534C1395.31 246.463 1393.81 246.825 1393.45 245.947Z" fill="#E8E8E8"/>
<path d="M1385.7 238.978C1386.79 238.204 1387.2 236.707 1386.48 235.572C1385.65 234.178 1383.89 234.023 1382.55 234.746C1381.52 235.313 1381.31 236.604 1381.93 237.585C1382.71 238.772 1384.36 238.927 1385.65 238.617C1386.63 238.411 1387.05 239.908 1386.06 240.114C1384 240.579 1381.52 240.114 1380.48 238.101C1379.55 236.294 1380.23 234.126 1382.09 233.249C1384.15 232.319 1386.63 232.732 1387.82 234.746C1389.01 236.656 1388.23 239.03 1386.48 240.269C1385.65 240.94 1384.88 239.598 1385.7 238.978Z" fill="#E8E8E8"/>
<path d="M1363.8 223.08C1358.37 208.729 1342.77 201.399 1328.25 200.419C1318.65 199.748 1309.04 201.245 1299.63 203.051C1290.75 204.806 1281.5 207.594 1272.41 207.284C1264.92 207.026 1257.22 203.929 1253.71 196.96C1253.24 196.083 1254.58 195.308 1255.05 196.186C1259.13 204.238 1268.53 206.303 1276.85 205.632C1286.56 204.858 1296.12 201.967 1305.68 200.367C1321.18 197.786 1337.71 197.425 1351.5 206.148C1357.75 210.123 1362.71 215.698 1365.35 222.667C1365.66 223.596 1364.16 224.009 1363.8 223.08Z" fill="#E8E8E8"/>
<path d="M1247.45 196.082C1233.82 196.082 1220.13 196.082 1206.49 196.082C1205.5 196.082 1205.5 194.534 1206.49 194.534C1220.13 194.534 1233.82 194.534 1247.45 194.534C1248.49 194.534 1248.49 196.082 1247.45 196.082Z" fill="#E8E8E8"/>
<path d="M1248.02 194.431C1250.45 192.056 1247.82 188.03 1245.91 186.223C1243.58 183.952 1240.38 183.074 1237.28 184.313C1237.02 184.416 1236.5 184.261 1236.4 183.952C1234.54 179.616 1230.15 176.467 1225.34 176.673C1220.33 176.88 1216.1 180.648 1214.86 185.397C1214.75 185.862 1214.13 186.12 1213.72 185.862C1211.45 184.468 1209.12 186.12 1208.19 188.236C1207.37 190.198 1207.57 192.417 1207.78 194.534C1207.88 195.515 1206.33 195.515 1206.23 194.534C1205.92 191.437 1205.71 187.772 1208.19 185.397C1209.95 183.745 1212.38 183.229 1214.44 184.52C1214.08 184.674 1213.67 184.829 1213.31 184.984C1214.7 179.822 1219.15 175.693 1224.57 175.176C1230.15 174.609 1235.52 178.067 1237.69 183.177C1237.38 183.074 1237.12 182.919 1236.81 182.816C1240.95 181.164 1245.29 182.919 1247.97 186.326C1249.99 188.856 1251.74 192.934 1249.01 195.566C1248.39 196.237 1247.3 195.153 1248.02 194.431Z" fill="#E8E8E8"/>
<path d="M1218.63 202.019C1212.27 201.296 1208.55 207.955 1207.57 213.323C1206.54 218.847 1207.52 224.37 1208.09 229.893C1208.97 238.204 1208.4 248.219 1200.49 253.071C1199.67 253.587 1198.84 252.245 1199.72 251.729C1210.52 245.121 1206.02 230.41 1205.61 220.292C1205.3 212.601 1208.35 199.334 1218.63 200.47C1219.61 200.573 1219.61 202.122 1218.63 202.019Z" fill="#E8E8E8"/>
<path d="M1191.92 244.347C1196.57 256.065 1201.17 267.782 1205.82 279.448C1206.18 280.378 1204.68 280.791 1204.32 279.861C1199.67 268.144 1195.07 256.426 1190.42 244.76C1190.06 243.831 1191.56 243.469 1191.92 244.347Z" fill="#E8E8E8"/>
<path d="M1191.2 245.328C1183.14 244.915 1175.13 245.121 1167.12 246.051C1167.38 245.741 1167.64 245.379 1167.84 245.07C1171.67 257.304 1174.77 269.692 1177.25 282.236C1177.45 283.217 1175.96 283.63 1175.75 282.649C1173.27 270.105 1170.12 257.717 1166.35 245.483C1166.19 244.966 1166.61 244.554 1167.07 244.502C1175.08 243.573 1183.09 243.366 1191.14 243.779C1192.18 243.831 1192.18 245.379 1191.2 245.328Z" fill="#E8E8E8"/>
<path d="M1205.45 280.945C1200.7 281.152 1196 281.41 1191.25 281.72C1186.65 281.978 1181.74 281.875 1177.4 283.63C1176.47 283.991 1176.06 282.494 1176.99 282.133C1181.12 280.429 1185.82 280.532 1190.21 280.274C1195.28 279.965 1200.34 279.707 1205.45 279.448C1206.44 279.345 1206.44 280.894 1205.45 280.945Z" fill="#E8E8E8"/>
<path d="M1190.47 250.49C1185.51 250.593 1180.55 250.954 1175.64 251.625C1174.66 251.78 1174.25 250.283 1175.23 250.128C1180.29 249.406 1185.36 248.993 1190.47 248.89C1191.51 248.89 1191.51 250.438 1190.47 250.49Z" fill="#E8E8E8"/>
<path d="M1191.97 254C1189.18 253.897 1186.39 253.948 1183.6 254.206C1182.62 254.31 1182.62 252.761 1183.6 252.658C1186.39 252.4 1189.18 252.296 1191.97 252.451C1192.95 252.503 1192.95 254.051 1191.97 254Z" fill="#E8E8E8"/>
<path d="M1195.38 260.969C1189.44 260.607 1183.81 260.091 1177.97 261.536C1176.99 261.794 1176.57 260.298 1177.56 260.039C1183.55 258.594 1189.28 259.059 1195.38 259.42C1196.41 259.472 1196.41 261.02 1195.38 260.969Z" fill="#E8E8E8"/>
<path d="M1195.12 265.511C1191.71 265.253 1188.3 265.253 1184.89 265.563C1183.91 265.666 1183.91 264.117 1184.89 264.014C1188.3 263.704 1191.71 263.704 1195.12 263.963C1196.1 264.066 1196.15 265.614 1195.12 265.511Z" fill="#E8E8E8"/>
<path d="M1197.81 271.499C1193.16 271.189 1188.61 271.344 1184.01 271.964C1183.03 272.118 1183.03 270.57 1184.01 270.415C1188.61 269.796 1193.21 269.641 1197.81 269.95C1198.79 270.002 1198.79 271.551 1197.81 271.499Z" fill="#E8E8E8"/>
<path d="M1454.88 202.225C1452.81 205.012 1449.81 206.148 1446.77 207.542C1443.15 209.194 1439.84 211.413 1437.16 214.356C1431.06 220.911 1429.05 229.738 1428.89 238.462C1428.53 254.826 1434.06 271.963 1426.62 287.449C1426.2 288.327 1424.86 287.553 1425.27 286.675C1433.08 270.363 1426.15 252.09 1427.5 234.952C1428.06 227.519 1430.18 220.24 1434.99 214.459C1437.26 211.723 1440.05 209.349 1443.15 207.593C1446.61 205.632 1451.11 204.754 1453.53 201.451C1454.1 200.676 1455.45 201.451 1454.88 202.225Z" fill="#E8E8E8"/>
<path d="M1472.55 180.39C1473.89 178.686 1473.79 177.499 1472.24 176.828C1471.56 176.467 1470.89 176.209 1470.12 176.054C1469.14 175.847 1468.05 175.796 1467.02 175.847C1463.92 176.002 1460.77 176.828 1460.92 180.596C1461.08 185.036 1461.9 189.423 1462.99 193.708C1464.12 198.095 1465.52 202.38 1467.02 206.664C1467.33 207.594 1467.59 208.678 1468.05 209.555C1468.98 211.155 1470.43 211.104 1471.98 211.104C1473.89 211.104 1476.32 211.362 1478.18 210.846C1480.24 210.278 1480.71 208.213 1478.69 206.871C1477.76 206.251 1476.47 206.148 1475.39 206.148C1473.99 206.148 1472.75 206.458 1471.56 205.529C1469.29 203.774 1468.93 199.025 1468.41 196.495C1467.64 192.83 1466.35 188.339 1466.6 184.623C1466.81 181.784 1469.6 181.68 1471.62 180.493C1472.49 179.977 1473.27 181.319 1472.39 181.835C1470.79 182.764 1468.46 182.868 1468.15 184.984C1467.79 187.462 1468.83 190.817 1469.29 193.295C1469.76 195.669 1470.27 198.044 1470.89 200.367C1471.36 202.122 1471.56 204.238 1473.89 204.703C1474.82 204.909 1475.96 204.6 1476.94 204.754C1479.42 205.116 1481.84 206.871 1481.48 209.658C1481.02 213.169 1476.83 212.549 1474.25 212.652C1471.05 212.756 1467.84 213.22 1466.4 209.813C1464.59 205.58 1463.3 200.935 1462.06 196.547C1460.77 192.004 1459.78 187.307 1459.42 182.61C1459.11 178.945 1458.96 176.002 1463.04 175.021C1466.6 174.144 1471.51 173.731 1474.3 176.622C1476.16 178.532 1475.7 182.3 1472.49 182.042C1471.56 181.835 1471.56 180.287 1472.55 180.39Z" fill="#E8E8E8"/>
<path d="M1478.8 185.913C1478.85 185.862 1478.9 185.81 1478.95 185.758C1479.16 185.552 1479.47 185.5 1479.73 185.552C1481.22 186.068 1481.79 188.494 1482.21 189.836C1482.93 192.314 1483.08 194.843 1482.72 197.424C1482.62 198.405 1481.07 198.405 1481.17 197.424C1481.38 195.618 1481.43 193.863 1481.12 192.056C1480.97 191.127 1479.37 187.513 1479.93 186.997C1479.21 187.72 1478.13 186.636 1478.8 185.913Z" fill="#E8E8E8"/>
<path d="M1484.02 180.235C1488.77 186.275 1491.82 193.553 1489.8 201.296C1489.54 202.277 1488.04 201.864 1488.3 200.883C1490.16 193.76 1487.27 186.894 1482.93 181.319C1482.31 180.545 1483.4 179.461 1484.02 180.235Z" fill="#E8E8E8"/>
<path d="M1490.52 173.266C1498.43 183.642 1502.15 196.753 1500.81 209.762C1500.7 210.742 1499.15 210.742 1499.26 209.762C1500.55 197.012 1496.98 184.261 1489.18 174.041C1488.61 173.266 1489.96 172.492 1490.52 173.266Z" fill="#E8E8E8"/>
<path d="M1501.53 226.022C1505.51 227.932 1509.23 230.564 1512.17 233.868C1515.17 237.275 1516.1 240.94 1516.56 245.379C1517.6 255.548 1521.37 266.698 1531.6 270.983C1532.53 271.344 1532.11 272.841 1531.18 272.48C1523.02 269.073 1518.27 261.33 1516.25 252.967C1515.06 247.96 1515.63 242.024 1513 237.533C1510.31 232.939 1505.46 229.583 1500.75 227.312C1499.82 226.951 1500.6 225.609 1501.53 226.022Z" fill="#E8E8E8"/>
<path d="M1553.45 298.393C1556.86 298.496 1560.73 297.051 1561.97 293.541C1563.42 289.411 1560.32 285.385 1557.01 283.268C1550.61 279.139 1541.98 277.539 1534.54 277.435C1530.77 277.384 1526.48 277.435 1523.17 279.449C1518.94 282.03 1518.21 286.882 1521.52 290.547C1526.53 296.122 1535.16 296.69 1542.08 297.206C1543.06 297.257 1543.06 298.806 1542.08 298.754C1535.16 298.238 1527.41 297.619 1521.83 292.973C1516.72 288.74 1516.35 281.72 1522.35 278.055C1528.55 274.287 1538 275.525 1544.72 276.971C1551.17 278.365 1560.01 280.894 1562.9 287.553C1565.9 294.367 1560.16 300.045 1553.34 299.838C1552.41 299.89 1552.41 298.341 1553.45 298.393Z" fill="#E8E8E8"/>
<path d="M1553.71 299.012C1555 301.077 1556.24 303.142 1557.53 305.155C1557.94 305.826 1557.12 306.549 1556.44 306.239C1553.29 304.536 1549.88 303.452 1546.68 301.955C1544.92 301.18 1543.22 300.251 1541.57 299.219C1541 298.857 1540.33 298.651 1540.17 297.928C1540.07 297.567 1540.27 297.051 1540.69 296.999C1540.74 296.999 1540.79 296.999 1540.84 296.947C1541.2 296.896 1541.72 297.051 1541.77 297.464C1541.77 297.515 1541.77 297.515 1541.77 297.567C1541.98 298.548 1540.48 298.961 1540.27 297.98C1540.27 297.928 1540.27 297.928 1540.27 297.877C1540.58 298.031 1540.89 298.238 1541.2 298.393C1541.15 298.393 1541.1 298.393 1541.05 298.444C1541.2 298.135 1541.41 297.825 1541.57 297.515C1541.72 298.031 1544.61 299.219 1545.23 299.58C1546.78 300.406 1548.39 301.077 1550.04 301.748C1552.47 302.729 1554.84 303.658 1557.12 304.897C1556.75 305.258 1556.39 305.62 1556.03 305.981C1554.74 303.916 1553.5 301.851 1552.21 299.838C1551.85 298.961 1553.19 298.186 1553.71 299.012Z" fill="#E8E8E8"/>
<path d="M1552 290.082C1552.05 289.979 1552.05 289.773 1551.9 289.773C1551.49 289.773 1551.95 290.289 1552 290.341C1552.26 290.495 1553.14 290.702 1553.09 290.186C1553.04 289.566 1551.85 288.895 1551.64 289.824C1551.59 290.082 1551.8 290.392 1552.05 290.444C1552.21 290.495 1552.31 290.495 1552.42 290.392C1552.47 290.341 1552.57 290.289 1552.47 290.289C1551.49 290.341 1551.49 288.792 1552.47 288.74C1553.5 288.637 1554.28 289.721 1554.02 290.702C1553.76 291.683 1552.62 292.199 1551.69 291.941C1550.76 291.683 1550.04 290.857 1550.04 289.876C1550.04 288.895 1550.81 288.069 1551.69 287.863C1553.6 287.398 1555.62 290.186 1553.97 291.579C1552.62 292.715 1549.94 291.683 1550.09 289.773C1550.19 288.74 1551.33 287.914 1552.36 288.276C1553.4 288.637 1553.81 289.928 1553.29 290.857C1552.88 291.734 1551.54 290.96 1552 290.082Z" fill="#E8E8E8"/>
<path d="M1540.59 288.689C1540.64 288.379 1540.79 287.966 1540.48 287.708C1540.33 287.553 1540.07 287.553 1539.86 287.553C1539.35 287.656 1539.45 288.224 1539.81 288.482C1540.02 288.637 1540.22 288.637 1540.38 288.43C1540.53 288.224 1540.48 288.172 1540.33 288.069C1540.22 288.017 1540.53 288.069 1540.28 288.017C1539.66 287.914 1540.69 288.637 1540.53 288.121C1540.84 289.102 1539.35 289.463 1539.04 288.534C1538.78 287.605 1539.66 286.675 1540.59 286.83C1541.67 287.037 1541.93 288.327 1541.26 289.102C1540.64 289.824 1539.5 289.669 1539.04 288.843C1538.57 288.017 1538.88 286.933 1539.81 286.624C1540.74 286.314 1541.77 286.882 1541.98 287.811C1542.24 288.843 1541.52 289.876 1540.48 290.134C1538.62 290.547 1537.07 288.017 1538.42 286.624C1539.09 285.953 1540.17 285.901 1541 286.262C1542.14 286.83 1542.19 288.017 1541.98 289.102C1541.93 290.082 1540.43 289.669 1540.59 288.689Z" fill="#E8E8E8"/>
<path d="M1529.12 285.23C1528.91 285.23 1528.7 285.282 1528.44 285.282V285.23C1528.39 285.178 1528.39 285.075 1528.34 285.023C1528.29 284.92 1528.13 284.817 1528.03 284.765C1527.77 284.662 1527.51 284.662 1527.36 284.92C1527.15 285.333 1527.51 286.108 1528.03 285.798C1528.34 285.591 1528.39 285.075 1527.93 285.178C1527.82 285.178 1527.77 285.23 1527.72 285.282C1527.72 285.282 1527.72 285.385 1527.72 285.282C1527.72 285.178 1527.72 285.333 1527.77 285.333C1527.93 285.436 1527.98 285.54 1528.13 285.436C1528.5 285.178 1529.01 285.385 1529.22 285.695C1529.43 286.108 1529.27 286.52 1528.96 286.779C1527.46 287.863 1525.45 285.695 1526.64 284.249C1527.72 282.959 1530.05 283.785 1529.94 285.488C1529.89 286.366 1529.22 287.14 1528.39 287.346C1527.57 287.553 1526.69 287.14 1526.22 286.417C1525.19 284.817 1526.64 282.597 1528.55 283.217C1529.43 283.527 1530.2 284.404 1530.1 285.385C1529.99 286.469 1528.44 287.037 1527.88 285.953C1527.36 285.127 1528.65 284.352 1529.12 285.23Z" fill="#E8E8E8"/>
<path d="M1497.91 240.217C1491.56 236.707 1486.03 232.061 1481.43 226.435C1480.81 225.66 1481.9 224.576 1482.52 225.351C1487.01 230.874 1492.44 235.417 1498.69 238.875C1499.57 239.34 1498.79 240.682 1497.91 240.217Z" fill="#E8E8E8"/>
<path d="M1420.62 241.559C1421.76 248.064 1422.23 254.619 1421.92 261.227C1421.86 262.207 1420.31 262.207 1420.37 261.227C1420.68 254.774 1420.26 248.322 1419.13 241.972C1418.97 240.992 1420.47 240.579 1420.62 241.559Z" fill="#E8E8E8"/>
<path d="M1428.53 392.445C1428.53 384.547 1424.81 377.062 1418.46 372.313C1417.68 371.745 1418.46 370.403 1419.23 370.971C1426.05 376.029 1430.03 383.927 1430.03 392.445C1430.08 393.425 1428.53 393.425 1428.53 392.445Z" fill="#E8E8E8"/>
<path d="M1342 600.885C1341.17 608.319 1339.88 616.474 1337.81 625.301C1335.02 637.226 1331.46 647.653 1327.89 656.428C1328.88 657.306 1331.82 659.629 1336.16 659.938C1338.9 660.145 1341.07 659.474 1342.31 659.009C1344.17 652.557 1345.98 645.846 1347.63 638.877C1351.04 624.527 1353.52 610.848 1355.33 598.098C1350.83 599.027 1346.39 599.956 1342 600.885Z" fill="#191919"/>
<path d="M1226.02 596.033C1226.69 603.415 1227.82 611.622 1229.74 620.45C1232.42 632.942 1235.99 643.782 1239.6 652.918C1239.09 653.383 1236.14 656.171 1231.59 655.964C1227.67 655.809 1225.14 653.486 1224.52 652.918C1223.33 646.672 1222.19 640.375 1221.06 634.077C1218.58 620.295 1216.35 606.719 1214.24 593.297C1218.16 594.175 1222.09 595.104 1226.02 596.033Z" fill="#191919"/>
<path d="M1318.39 575.437C1317.2 583.335 1315.81 591.491 1314.2 599.853C1311.88 611.984 1309.25 623.546 1306.46 634.49C1307.64 635.213 1310.02 636.4 1313.27 636.606C1316.01 636.761 1318.18 636.142 1319.42 635.677C1320.97 628.347 1322.47 620.914 1323.97 613.481C1326.71 599.698 1329.24 586.122 1331.67 572.701C1327.22 573.578 1322.83 574.508 1318.39 575.437Z" fill="#191919"/>
<path d="M1245.49 573.888C1246.89 581.683 1248.13 589.839 1249.21 598.304C1250.71 609.97 1251.74 621.12 1252.36 631.754C1251.49 632.322 1249.42 633.509 1246.47 633.664C1243.32 633.767 1241 632.528 1240.12 632.012C1240.64 625.921 1240.84 619.159 1240.53 611.932C1239.91 595.878 1236.97 582.044 1233.71 571.152C1237.64 572.03 1241.57 572.959 1245.49 573.888Z" fill="#191919"/>
<path d="M1153.69 401.168C1144.65 417.274 1151.62 435.082 1168.57 479.321C1176.73 500.588 1191.66 539.664 1212.74 595.362C1233.46 602.899 1267.76 612.19 1310.17 609.248C1334.82 607.544 1355.48 602.228 1371.14 596.756C1373.46 592.575 1381.52 576.934 1375.47 561.758C1372.12 553.344 1365.35 547.304 1350.99 540.18C1336.83 533.16 1311.88 523.301 1275.61 521.494C1289.82 450.826 1265.49 392.909 1227.62 379.539C1202.77 370.816 1166.14 379.023 1153.69 401.168Z" fill="white" stroke="#191919" stroke-width="3.27745" stroke-miterlimit="10"/>
<path d="M1157 407.001C1171.98 425.945 1175.39 451.394 1181.12 474.158C1187.27 498.523 1194.35 522.836 1204.94 545.704C1210.78 558.247 1217.65 570.326 1225.86 581.476C1226.43 582.302 1225.09 583.076 1224.52 582.25C1210.1 562.635 1199.93 540.387 1192.07 517.468C1184.12 494.135 1178.85 470.08 1172.65 446.284C1169.14 432.759 1164.64 419.235 1155.86 408.137C1155.29 407.311 1156.38 406.227 1157 407.001Z" fill="#191919"/>
<path d="M1370.83 585.554C1336.37 598.201 1298.81 601.918 1262.54 596.291C1252.16 594.691 1241.88 592.316 1231.8 589.219C1230.87 588.909 1231.24 587.412 1232.22 587.722C1267.35 598.562 1305.06 600.214 1341.02 592.574C1350.99 590.458 1360.86 587.567 1370.41 584.057C1371.34 583.696 1371.76 585.193 1370.83 585.554Z" fill="#191919"/>
<path d="M1249.52 544.981C1240.84 547.82 1233.46 553.55 1228.5 561.293C1227.98 562.119 1226.64 561.345 1227.15 560.519C1232.32 552.466 1240.02 546.478 1249.11 543.484C1250.09 543.175 1250.51 544.672 1249.52 544.981Z" fill="#191919"/>
<path d="M1404.92 611.829C1400.79 618.023 1396.65 624.269 1392.57 630.464C1419.02 654.209 1422.43 660.971 1420.47 662.623C1416.54 665.875 1388.39 651.421 1385.5 649.924C1375.01 644.556 1367.1 639.342 1361.83 635.626C1363.69 630.567 1366.17 624.889 1369.58 618.901C1374.08 611.003 1379.04 604.344 1383.74 598.924C1390.82 603.157 1397.89 607.493 1404.92 611.829Z" fill="#191919"/>
<path d="M1250.35 490.161C1248.49 494.187 1246.53 499.917 1246.22 506.834C1245.75 517.261 1249.16 525.572 1251.74 530.373C1253.14 532.179 1255.62 535.173 1259.29 538.425C1259.29 538.425 1267.6 545.755 1280.83 551.382C1294.31 557.163 1333.52 564.132 1386.79 565.474C1385.24 572.082 1382.45 580.186 1377.49 588.91C1374.75 593.71 1371.75 597.943 1368.81 601.608C1370.77 604.189 1376.35 610.745 1387.46 614.874C1398.15 618.849 1407.97 618.385 1411.84 618.075C1417.42 612.965 1423.16 606.873 1428.48 599.595C1444.13 578.07 1447.8 557.267 1448.47 543.897C1444.6 541.11 1438.91 537.29 1431.48 533.212C1415.98 524.695 1401.77 520.049 1390.09 516.59C1370 510.706 1350.78 506.628 1306.56 499.143C1292.71 496.82 1273.54 493.619 1250.35 490.161Z" fill="white" stroke="#191919" stroke-width="3.27745" stroke-miterlimit="10"/>
<path opacity="0.19" d="M1299.43 499.04C1300.93 508.899 1305.16 521.701 1318.28 529.65C1331.04 537.393 1341.74 534.244 1367.31 540.439C1385.7 544.878 1410.04 550.763 1416.8 563.823C1423.88 577.554 1410.5 596.911 1387.1 612.81C1385.13 612.552 1382.65 612.036 1380.02 611.003C1373.25 608.319 1369.95 603.931 1368.71 602.021C1371.7 598.408 1374.8 594.227 1377.64 589.426C1383.02 580.444 1385.91 572.082 1387.56 565.32C1360.18 564.184 1337.19 561.809 1319.73 559.538C1298.7 556.802 1284.14 554.066 1270.24 546.22C1258.61 539.665 1253.96 533.212 1252.31 530.734C1247.3 523.146 1246.89 516.229 1246.68 512.358C1246.16 502.911 1249.26 495.22 1251.85 490.368C1267.71 493.258 1283.57 496.149 1299.43 499.04Z" fill="#6C6D6D"/>
<path opacity="0.19" d="M1251.33 491.451C1252.36 501.053 1256.03 516.229 1270.65 528.205C1279.64 535.586 1289.3 538.89 1327.22 549.111C1343.96 553.602 1364.21 558.919 1387.25 564.7C1357.96 564.39 1334.14 561.964 1317.04 559.641C1299.32 557.215 1290.65 555.099 1281.66 551.227C1273.13 547.562 1255.93 540.129 1248.9 524.488C1242.13 509.312 1248.95 495.684 1251.33 491.451Z" fill="#6C6D6D"/>
<path opacity="0.22" d="M1387.1 565.474C1387.31 572.288 1387 580.083 1385.7 588.652C1384.46 597.117 1382.45 604.706 1380.28 611.313C1378.52 610.281 1376.51 608.887 1374.54 607.183C1372.17 605.119 1370.41 603.157 1369.12 601.453C1372.12 597.53 1375.16 592.988 1378.01 587.877C1382.6 579.618 1385.34 571.979 1387.1 565.474Z" fill="#6C6D6D"/>
<path d="M1389.47 641.459C1385.5 649.253 1381.57 657.048 1377.59 664.894C1403.01 694.731 1406.32 703.196 1404.4 705.261C1400.63 709.391 1373.56 691.169 1370.77 689.311C1360.7 682.548 1353.05 675.993 1347.99 671.347C1349.8 664.998 1352.17 657.874 1355.48 650.286C1359.77 640.375 1364.57 632.012 1369.07 625.147C1375.89 630.619 1382.71 636.039 1389.47 641.459Z" fill="#191919"/>
<path d="M1240.89 488.561C1239.09 493.671 1237.23 500.795 1236.92 509.519C1236.45 522.63 1239.76 533.057 1242.24 539.097C1243.58 541.368 1245.96 545.136 1249.47 549.266C1249.47 549.266 1257.43 558.506 1270.14 565.578C1283.1 572.804 1320.82 581.631 1371.96 583.283C1370.46 591.594 1367.83 601.763 1363.02 612.707C1360.39 618.746 1357.5 624.063 1354.65 628.657C1356.51 631.909 1361.89 640.117 1372.58 645.33C1382.86 650.337 1392.26 649.77 1396.04 649.305C1401.41 642.904 1406.94 635.213 1412 626.076C1427.08 599.027 1430.6 572.856 1431.22 556.08C1427.5 552.621 1422.02 547.769 1414.89 542.658C1399.96 531.973 1386.37 526.089 1375.11 521.752C1355.84 514.371 1337.3 509.26 1294.78 499.814C1281.66 496.872 1263.16 492.897 1240.89 488.561Z" fill="white" stroke="#191919" stroke-width="3.27745" stroke-miterlimit="10"/>
<path opacity="0.19" d="M1288.06 499.711C1289.51 512.099 1293.59 528.153 1306.19 538.167C1318.44 547.924 1328.77 543.949 1353.31 551.743C1370.98 557.318 1394.38 564.752 1400.89 581.167C1407.71 598.408 1394.85 622.772 1372.37 642.698C1370.46 642.388 1368.09 641.717 1365.55 640.426C1359.04 637.071 1355.89 631.548 1354.71 629.122C1357.6 624.579 1360.59 619.314 1363.33 613.274C1368.5 601.97 1371.29 591.491 1372.84 582.974C1346.49 581.528 1324.43 578.586 1307.59 575.747C1287.34 572.34 1273.39 568.881 1260.01 559.022C1248.85 550.763 1244.36 542.658 1242.81 539.561C1238 530.012 1237.59 521.339 1237.38 516.487C1236.92 504.615 1239.86 494.962 1242.34 488.87C1257.58 492.432 1272.82 496.046 1288.06 499.711Z" fill="#6C6D6D"/>
<path opacity="0.19" d="M1241.88 490.161C1242.86 502.188 1246.37 521.288 1260.42 536.361C1269.1 545.652 1278.35 549.782 1314.77 562.635C1330.89 568.314 1350.31 574.973 1372.48 582.251C1344.32 581.838 1321.38 578.844 1304.95 575.902C1287.91 572.856 1279.54 570.223 1270.96 565.371C1262.75 560.725 1246.27 551.434 1239.45 531.715C1232.99 512.616 1239.55 495.529 1241.88 490.161Z" fill="#6C6D6D"/>
<path opacity="0.22" d="M1372.32 583.232C1372.53 591.801 1372.22 601.609 1370.98 612.346C1369.74 623.031 1367.88 632.529 1365.76 640.788C1364.06 639.446 1362.14 637.743 1360.23 635.574C1357.96 632.994 1356.25 630.516 1355.01 628.399C1357.91 623.444 1360.85 617.766 1363.54 611.313C1367.98 600.989 1370.67 591.336 1372.32 583.232Z" fill="#6C6D6D"/>
<path d="M1392.42 408.344C1393.4 407.879 1395.36 407.002 1395.31 406.021C1395.21 404.421 1389.89 403.337 1385.91 403.388C1383.22 403.388 1378.26 403.956 1372.48 407.982C1377.9 409.686 1385.91 411.234 1392.42 408.344Z" fill="white" stroke="#191919" stroke-width="3.27745" stroke-miterlimit="10"/>
<path d="M1268.17 341.393C1277.99 340.102 1286.82 354.814 1287.65 356.156C1290.65 361.266 1291.01 364.673 1293.07 374.016C1298.09 396.781 1300.77 408.344 1308.21 415.312C1314.93 421.558 1322.78 423.055 1324.85 423.365C1333.68 424.759 1341.69 421.455 1357.29 414.796C1370.46 409.169 1372.07 407.105 1379.25 406.279C1382.91 405.866 1393.61 404.679 1400.69 411.544C1405.23 415.932 1407.25 422.952 1405.59 424.397C1403.48 426.256 1394.8 419.7 1394.69 419.855C1394.64 419.958 1397.28 421.197 1399.45 423.881C1400.53 425.172 1402.39 427.959 1401.72 428.682C1400.53 430.127 1393.25 421.352 1385.24 422.9C1379.76 423.933 1378.73 428.888 1372.38 429.817C1368.66 430.385 1365.4 429.25 1363.33 428.269C1359.72 432.192 1353.83 437.767 1345.3 442.309C1340.24 444.994 1322.37 454.234 1300.51 448.865C1277.32 443.187 1265.64 425.068 1261.97 419.39C1259.91 416.138 1244.72 391.877 1252.05 364.673C1253.35 360.285 1258.05 342.735 1268.17 341.393Z" fill="white" stroke="#191919" stroke-width="3.27745" stroke-miterlimit="10"/>
<path opacity="0.25" d="M1269.21 341.548C1272.56 343.303 1266.05 355.485 1266.88 372.932C1267.66 389.709 1274.84 402.098 1278.04 407.776C1282.38 415.364 1288.11 425.275 1299.53 431.728C1314.87 440.4 1333.89 439.109 1347.42 433.224C1351.45 431.469 1355.53 425.791 1364.42 422.333C1368.29 420.836 1371.34 420.216 1374.91 419.494C1383.64 417.79 1391.39 416.242 1398.57 419.855C1401.98 421.61 1404.82 424.294 1404.61 424.656C1404.4 425.017 1400.43 423.004 1396.91 421.094C1401.15 426.72 1401.82 428.321 1401.51 428.63C1401.15 428.94 1399.86 427.753 1396.55 425.894C1392.99 423.933 1390.4 422.539 1387.25 422.797C1385.65 422.952 1384.41 423.468 1383.69 423.778C1380.85 425.017 1380.18 426.462 1377.33 427.908C1375.58 428.785 1374.13 429.147 1373.36 429.301C1371.7 429.663 1368.29 430.127 1363.8 428.527C1359.87 432.657 1341.84 450.93 1315.44 450.569C1301.86 450.362 1291.88 445.304 1287.96 443.29C1266.42 432.089 1257.84 412.215 1255.67 406.743C1248.95 389.812 1246.58 364.725 1258.87 348.981C1261.82 345.161 1266.88 340.36 1269.21 341.548Z" fill="#6C6D6D"/>
<path d="M1404.66 424.397C1402.65 421.403 1400.01 419.029 1396.86 417.325C1396.19 416.964 1396.81 415.983 1397.43 416.345C1400.74 418.151 1403.53 420.681 1405.64 423.829C1406.11 424.449 1405.08 425.017 1404.66 424.397Z" fill="#191919"/>
<path d="M1404.04 417.739C1402.03 414.59 1398.77 412.938 1395.52 411.338C1394.85 411.028 1395.42 409.996 1396.09 410.357C1399.55 412.009 1402.96 413.815 1405.08 417.171C1405.44 417.79 1404.46 418.358 1404.04 417.739Z" fill="#191919"/>
<path opacity="0.29" d="M1254.38 360.131C1255.16 365.344 1256.55 372.881 1259.03 381.76C1263.89 399.31 1268.28 415.106 1279.75 427.65C1293.95 443.136 1313.22 447.368 1324.28 448.659C1316.06 450.569 1309.61 450.207 1305.53 449.64C1274.53 445.304 1257.79 412.009 1253.24 397.452C1252.47 394.871 1250.82 389.554 1250.61 382.276C1250.25 372.571 1252.62 364.777 1254.38 360.131Z" fill="#6C6D6D"/>
<path opacity="0.26" d="M1384.21 422.281C1381.26 423.726 1377.23 425.326 1372.27 426.256C1368.35 426.978 1364.83 427.133 1362.04 427.03C1369.12 430.798 1372.79 430.334 1374.85 429.095C1376.15 428.32 1377.59 426.772 1381.57 424.036C1382.66 423.262 1383.59 422.642 1384.21 422.281Z" fill="#6C6D6D"/>
<path d="M1488.67 507.144C1488.67 531.922 1488.67 556.751 1488.67 581.528C1488.67 584.522 1484.02 584.522 1484.02 581.528C1484.02 556.751 1484.02 531.922 1484.02 507.144C1484.02 504.202 1488.67 504.15 1488.67 507.144Z" fill="#161616"/>
<path d="M1404.15 506.163C1404.15 510.138 1404.15 514.112 1404.15 518.087C1404.15 521.081 1399.5 521.081 1399.5 518.087C1399.5 514.112 1399.5 510.138 1399.5 506.163C1399.5 503.169 1404.15 503.169 1404.15 506.163Z" fill="#161616"/>
<path d="M1552.83 504.098C1527.77 480.508 1502.72 456.866 1477.61 433.276C1437.05 433.998 1396.55 434.721 1356 435.444C1362.61 458.363 1369.22 481.231 1375.84 504.15C1434.83 504.098 1493.83 504.098 1552.83 504.098Z" fill="white" stroke="#191919" stroke-width="3.27745" stroke-miterlimit="10"/>
<path d="M1551.33 506.782C1506.02 506.782 1460.77 506.782 1415.46 506.782C1402.75 506.782 1390.09 506.782 1377.39 506.782C1374.39 506.782 1374.39 502.137 1377.39 502.137C1422.69 502.137 1467.95 502.137 1513.26 502.137C1525.96 502.137 1538.62 502.137 1551.33 502.137C1554.33 502.137 1554.33 506.782 1551.33 506.782Z" fill="#161616"/>
<path d="M1538.06 506.008C1538.06 557.37 1538.06 608.732 1538.06 660.042C1538.06 674.444 1538.06 688.794 1538.06 703.196C1538.06 706.19 1533.41 706.19 1533.41 703.196C1533.41 651.834 1533.41 600.473 1533.41 549.162C1533.41 534.76 1533.41 520.41 1533.41 506.008C1533.41 503.014 1538.06 503.014 1538.06 506.008Z" fill="#161616"/>
<path d="M1396.35 506.008C1396.35 557.37 1396.35 608.732 1396.35 660.042C1396.35 674.444 1396.35 688.794 1396.35 703.196C1396.35 706.19 1391.7 706.19 1391.7 703.196C1391.7 651.834 1391.7 600.473 1391.7 549.162C1391.7 534.76 1391.7 520.41 1391.7 506.008C1391.7 503.014 1396.35 503.014 1396.35 506.008Z" fill="#161616"/>
<path d="M1535.73 601.866C1499.26 601.866 1462.78 601.866 1426.31 601.866C1415.98 601.866 1405.64 601.866 1395.31 601.866C1392.32 601.866 1392.32 597.221 1395.31 597.221C1431.79 597.221 1468.26 597.221 1504.73 597.221C1515.06 597.221 1525.4 597.221 1535.73 597.221C1538.73 597.221 1538.73 601.866 1535.73 601.866Z" fill="#161616"/>
<path d="M1356.62 435.444C1362.51 458.415 1369.27 481.179 1377.02 503.582C1377.7 505.492 1374.7 506.266 1374.03 504.408C1366.28 481.953 1359.51 459.24 1353.62 436.27C1353.16 434.36 1356.1 433.534 1356.62 435.444Z" fill="#161616"/>
<path d="M1603.98 708.255C1576.54 708.255 1549.16 708.255 1521.73 708.255C1518.73 708.255 1518.73 703.609 1521.73 703.609C1549.16 703.609 1576.54 703.609 1603.98 703.609C1606.97 703.609 1606.97 708.255 1603.98 708.255Z" fill="#161616"/>
<path d="M1510.21 707.222C1503.91 707.222 1497.55 707.222 1491.25 707.222C1488.25 707.222 1488.25 702.577 1491.25 702.577C1497.55 702.577 1503.91 702.577 1510.21 702.577C1513.21 702.577 1513.21 707.222 1510.21 707.222Z" fill="#161616"/>
<path d="M1427.96 707.894C1403.27 707.894 1378.57 707.894 1353.83 707.894C1350.83 707.894 1350.83 703.248 1353.83 703.248C1378.52 703.248 1403.22 703.248 1427.96 703.248C1430.96 703.248 1430.96 707.894 1427.96 707.894Z" fill="#161616"/>
<path d="M1336.94 706.242C1332.54 706.242 1328.15 706.242 1323.71 706.242C1320.71 706.242 1320.71 701.596 1323.71 701.596C1328.1 701.596 1332.49 701.596 1336.94 701.596C1339.93 701.596 1339.93 706.242 1336.94 706.242Z" fill="#161616"/>
<path d="M1628.88 691.891C1618.18 691.891 1607.49 691.891 1596.85 691.891C1593.85 691.891 1593.85 687.246 1596.85 687.246C1607.54 687.246 1618.23 687.246 1628.88 687.246C1631.87 687.246 1631.87 691.891 1628.88 691.891Z" fill="#161616"/>
<path d="M1402.91 494.342C1434.78 493.516 1466.71 492.742 1498.59 491.916C1479.68 473.849 1460.82 455.731 1441.91 437.664C1420.11 438.8 1398.26 439.935 1376.46 441.071C1385.29 458.88 1394.07 476.585 1402.91 494.342Z" fill="white" stroke="#191919" stroke-width="3.27745" stroke-miterlimit="10"/>
<path d="M1443 437.302C1461.54 455.214 1480.09 473.178 1498.64 491.09C1499.46 462.39 1500.34 433.637 1501.17 404.937C1482.36 393.064 1463.56 381.192 1444.75 369.319C1444.24 391.98 1443.62 414.641 1443 437.302Z" fill="white" stroke="#191919" stroke-width="3.27745" stroke-miterlimit="10"/>
<path d="M1499.46 407.673C1497.96 433.224 1496.98 458.828 1496.47 484.431C1496.47 484.947 1495.69 484.947 1495.69 484.431C1496.21 458.828 1497.19 433.224 1498.69 407.673C1498.74 407.208 1499.51 407.208 1499.46 407.673Z" fill="#191919"/>
<path d="M1499.05 407.776C1481.74 396.523 1464.44 385.27 1447.13 374.016C1446.72 373.758 1447.08 373.087 1447.54 373.345C1464.85 384.599 1482.16 395.852 1499.46 407.105C1499.88 407.415 1499.51 408.086 1499.05 407.776Z" fill="#191919"/>
<path d="M1447.34 373.965C1447.39 394.561 1446.77 415.209 1445.42 435.754C1445.37 436.27 1444.6 436.27 1444.65 435.754C1445.94 415.157 1446.61 394.561 1446.56 373.965C1446.56 373.5 1447.34 373.5 1447.34 373.965Z" fill="#191919"/>
<path d="M1495.95 485.516C1479 469.152 1462.01 452.789 1445.06 436.477C1444.7 436.115 1445.27 435.599 1445.63 435.909C1462.58 452.272 1479.57 468.636 1496.52 484.948C1496.83 485.309 1496.31 485.877 1495.95 485.516Z" fill="#191919"/>
<path d="M1417.47 476.74C1414.32 471.733 1411.17 466.674 1408.12 461.564C1407.87 461.151 1408.54 460.738 1408.8 461.151C1411.84 466.261 1414.99 471.32 1418.15 476.327C1418.46 476.74 1417.78 477.153 1417.47 476.74Z" fill="#191919"/>
<path d="M1408.33 461.409C1404.25 461.564 1400.17 461.564 1396.09 461.357C1395.57 461.357 1395.57 460.583 1396.09 460.583C1400.17 460.738 1404.25 460.738 1408.33 460.634C1408.85 460.634 1408.85 461.409 1408.33 461.409Z" fill="#191919"/>
<path d="M1396.6 461.151C1398.93 466.209 1401.3 471.268 1403.68 476.327C1403.89 476.791 1403.22 477.153 1403.01 476.74C1400.63 471.681 1398.26 466.622 1395.93 461.564C1395.73 461.047 1396.4 460.686 1396.6 461.151Z" fill="#191919"/>
<path d="M1417.73 477.153C1413.19 477.824 1408.38 477.514 1403.79 477.308C1403.27 477.308 1403.27 476.533 1403.79 476.533C1408.28 476.74 1413.03 477.05 1417.53 476.43C1418.04 476.327 1418.25 477.101 1417.73 477.153Z" fill="#191919"/>
<path d="M1400.79 461.202C1402.85 466.364 1405.23 471.372 1407.92 476.224C1408.18 476.637 1407.5 477.05 1407.25 476.637C1404.56 471.681 1402.13 466.622 1400.01 461.409C1399.86 460.944 1400.58 460.738 1400.79 461.202Z" fill="#191919"/>
<path d="M1475.65 484.586C1464.28 470.546 1452.5 456.815 1440.36 443.394C1440.05 443.032 1440.57 442.464 1440.93 442.826C1453.07 456.195 1464.85 469.926 1476.22 484.018C1476.53 484.431 1475.96 484.947 1475.65 484.586Z" fill="#191919"/>
<path d="M1461.9 485.464C1451.73 471.268 1440.98 457.537 1429.72 444.219C1429.41 443.858 1429.92 443.29 1430.29 443.652C1441.6 457.021 1452.35 470.804 1462.58 485.051C1462.89 485.464 1462.21 485.877 1461.9 485.464Z" fill="#191919"/>
<path d="M1447.13 487.58C1438.29 472.817 1428.63 458.57 1418.2 444.891C1417.89 444.478 1418.56 444.116 1418.87 444.478C1429.31 458.157 1438.97 472.404 1447.8 487.167C1448.06 487.58 1447.39 487.993 1447.13 487.58Z" fill="#191919"/>
<path d="M1434.73 488.871C1426.05 472.714 1415.77 457.486 1403.99 443.445C1403.68 443.084 1404.2 442.516 1404.56 442.877C1416.39 456.969 1426.72 472.249 1435.45 488.458C1435.66 488.922 1434.99 489.335 1434.73 488.871Z" fill="#191919"/>
<path d="M1469.03 476.224C1455.81 474.83 1442.58 476.482 1429.41 478.237C1428.89 478.289 1428.94 477.514 1429.41 477.463C1442.53 475.708 1455.76 474.004 1469.03 475.45C1469.5 475.501 1469.5 476.275 1469.03 476.224Z" fill="#191919"/>
<path d="M1462.37 468.687C1449.87 468.223 1437.36 469.152 1425.07 471.526C1424.6 471.63 1424.4 470.855 1424.86 470.804C1437.21 468.429 1449.81 467.5 1462.37 467.964C1462.83 467.913 1462.83 468.687 1462.37 468.687Z" fill="#191919"/>
<path d="M1456.38 461.409C1444.34 460.635 1432.3 461.719 1420.58 464.609C1420.11 464.713 1419.9 463.99 1420.37 463.887C1432.15 460.944 1444.24 459.86 1456.38 460.635C1456.89 460.686 1456.89 461.461 1456.38 461.409Z" fill="#191919"/>
<path d="M1450.18 454.13C1438.6 454.182 1427.14 455.369 1415.82 457.692C1415.36 457.795 1415.15 457.021 1415.62 456.969C1426.98 454.646 1438.55 453.459 1450.18 453.408C1450.64 453.356 1450.64 454.13 1450.18 454.13Z" fill="#191919"/>
<path d="M1444.03 447.368C1433.03 447.575 1422.07 448.865 1411.38 451.291C1410.91 451.395 1410.71 450.672 1411.17 450.569C1421.97 448.143 1432.97 446.801 1444.03 446.646C1444.55 446.594 1444.55 447.368 1444.03 447.368Z" fill="#191919"/>
<path d="M1408.59 455.214C1413.65 462.648 1418.66 470.081 1423.73 477.514C1423.98 477.927 1423.31 478.34 1423.05 477.927C1417.99 470.494 1412.98 463.061 1407.92 455.627C1407.61 455.163 1408.28 454.801 1408.59 455.214Z" fill="#191919"/>
<path d="M1494.14 443.961C1487.68 441.226 1480.71 442.774 1473.89 442.671C1468.16 442.619 1462.68 441.019 1457.77 438.128C1457.36 437.87 1457.72 437.199 1458.18 437.457C1464.23 441.019 1470.64 442.155 1477.56 441.845C1483.34 441.587 1489.08 441.019 1494.55 443.342C1494.97 443.497 1494.61 444.168 1494.14 443.961Z" fill="#191919"/>
<path d="M1476.73 440.761C1465.68 434.515 1460.56 421.352 1449.04 415.828C1448.58 415.622 1448.99 414.951 1449.45 415.157C1461.03 420.732 1466.09 433.844 1477.14 440.09C1477.56 440.348 1477.2 441.019 1476.73 440.761Z" fill="#191919"/>
<path d="M1462.68 403.956C1464.59 402.459 1464.28 400.033 1463.19 398.123C1462.68 397.193 1461.9 396.213 1461.02 395.645C1459.42 394.612 1457.93 395.438 1456.69 396.522C1456.32 396.832 1455.76 396.316 1456.12 395.955C1458.7 393.787 1461.13 393.993 1463.25 396.78C1464.95 399.052 1465.83 402.459 1463.25 404.523C1462.83 404.833 1462.26 404.265 1462.68 403.956Z" fill="#191919"/>
<path d="M1303.56 366.221C1317.72 381.914 1321.54 399.155 1323.6 408.911C1327.38 426.978 1323.4 434.205 1323.14 468.532C1323.04 483.14 1323.66 494.961 1324.12 502.395C1320.92 504.872 1301.08 519.636 1274.58 514.783C1254.95 511.222 1243.12 498.936 1239.4 494.755C1238.52 489.851 1237.28 482.624 1235.83 473.849C1228.19 426.513 1224.41 402.51 1229.17 385.321C1232.01 374.894 1239.03 358.375 1258.98 341.289C1267.34 343.044 1287.44 348.413 1303.56 366.221Z" fill="#605DEC"/>
<path opacity="0.19" d="M1289.15 356.723C1284.24 371.383 1281.6 383.927 1280.05 393.115C1275.97 417.428 1269.82 453.872 1287.13 489.18C1292.66 500.433 1299.12 508.692 1303.66 513.803C1297.67 515.196 1285.79 517.106 1271.63 513.441C1254.79 509.105 1244.25 499.349 1239.91 494.91C1236.55 475.707 1233.87 459.24 1231.8 446.387C1228.24 423.778 1227.41 416.912 1227.77 407.259C1228.19 394.87 1228.75 381.862 1236.19 367.822C1243.32 354.4 1253.34 346.348 1259.49 342.218C1264.5 343.096 1271.58 344.954 1279.07 349.29C1283.21 351.768 1286.56 354.4 1289.15 356.723Z" fill="#605DEC"/>
<path opacity="0.18" d="M1230.46 381.346C1231.39 381.398 1229.43 395.696 1232.47 415.415C1238.1 451.91 1256.19 477.204 1263.16 486.186C1269 493.671 1278.14 503.995 1291.52 514.164C1286.72 514.887 1280.31 515.196 1272.98 513.803C1255.57 510.551 1244.51 499.865 1240.27 495.271C1239.19 488.973 1237.43 479.114 1235.21 466.932C1229.99 438.438 1228.96 435.031 1228.13 426.152C1225.86 401.942 1229.37 381.346 1230.46 381.346Z" fill="#605DEC"/>
<path d="M1394.59 419.7C1395.57 419.029 1397.53 417.79 1397.33 416.757C1396.91 415.106 1390.97 414.848 1386.68 415.57C1383.79 416.035 1378.52 417.532 1372.99 422.745C1379.19 423.623 1388.13 423.881 1394.59 419.7Z" fill="white" stroke="#191919" stroke-width="3.27745" stroke-miterlimit="10"/>
<path d="M1248.75 370.248C1259.13 367.202 1271.27 381.191 1272.36 382.534C1276.49 387.437 1277.47 390.948 1281.35 400.446C1290.75 423.675 1295.66 435.392 1304.96 441.483C1313.27 446.955 1322 447.162 1324.33 447.162C1334.09 447.11 1342.15 442.258 1357.86 432.553C1371.08 424.346 1372.43 421.868 1380.07 419.803C1383.95 418.771 1395.31 415.674 1404.15 421.713C1409.78 425.533 1413.24 432.656 1411.69 434.463C1409.73 436.786 1399.19 431.314 1399.14 431.521C1399.08 431.624 1402.18 432.502 1404.97 434.979C1406.37 436.167 1408.85 438.748 1408.28 439.677C1407.25 441.432 1397.84 433.379 1389.47 436.373C1383.79 438.386 1383.48 443.806 1376.82 445.923C1372.89 447.162 1369.17 446.491 1366.8 445.819C1363.59 450.62 1358.17 457.486 1349.8 463.732C1344.79 467.448 1327.12 480.25 1302.58 478.34C1276.54 476.327 1260.73 459.137 1255.83 453.821C1252.98 450.775 1232.37 427.701 1235.52 397.658C1235.99 392.754 1238 373.448 1248.75 370.248Z" fill="white" stroke="#191919" stroke-width="3.27745" stroke-miterlimit="10"/>
<path opacity="0.25" d="M1249.88 370.248C1253.81 371.539 1248.9 385.528 1252.88 403.853C1256.65 421.455 1266.57 433.328 1271.06 438.748C1277.11 446.026 1285.01 455.524 1298.5 460.376C1316.58 466.881 1336.88 462.286 1350.47 453.769C1354.5 451.188 1357.91 444.529 1366.95 439.315C1370.88 437.044 1374.03 435.909 1377.8 434.515C1386.89 431.211 1395.05 428.217 1403.37 430.85C1407.35 432.089 1410.91 434.463 1410.71 434.876C1410.5 435.341 1405.9 433.844 1401.77 432.45C1407.3 437.664 1408.33 439.264 1408.07 439.677C1407.76 440.09 1406.11 439.006 1402.23 437.664C1398 436.167 1395.05 435.186 1391.64 436.012C1389.94 436.425 1388.7 437.199 1387.92 437.664C1385.08 439.419 1384.62 441.122 1381.83 443.135C1380.12 444.374 1378.57 444.994 1377.75 445.303C1376.04 445.974 1372.43 447.058 1367.31 446.129C1363.8 451.188 1347.52 473.591 1318.96 477.721C1304.23 479.837 1292.61 476.224 1288.01 474.727C1262.8 466.571 1250.04 447.058 1246.73 441.638C1236.5 424.914 1229.53 398.794 1240.07 380.004C1242.55 375.307 1247.2 369.371 1249.88 370.248Z" fill="#6C6D6D"/>
<path d="M1410.76 434.618C1408.02 431.779 1404.82 429.714 1401.1 428.475C1400.37 428.217 1400.68 427.133 1401.41 427.34C1405.28 428.682 1408.74 430.85 1411.59 433.792C1412.1 434.36 1411.28 435.186 1410.76 434.618Z" fill="#191919"/>
<path d="M1408.9 427.701C1406.16 424.655 1402.34 423.468 1398.52 422.384C1397.79 422.177 1398.1 421.042 1398.83 421.248C1402.8 422.435 1406.83 423.726 1409.67 426.875C1410.24 427.443 1409.42 428.217 1408.9 427.701Z" fill="#191919"/>
<path opacity="0.29" d="M1237.12 392.445C1238.88 397.813 1241.72 405.556 1245.91 414.538C1254.22 432.243 1261.71 448.194 1276.33 459.499C1294.36 473.436 1315.96 474.623 1328.1 474.055C1319.58 477.514 1312.5 478.237 1308 478.34C1273.8 479.063 1249.83 446.697 1242.39 432.14C1241.1 429.559 1238.42 424.191 1236.87 416.551C1234.85 406.279 1236.04 397.658 1237.12 392.445Z" fill="#6C6D6D"/>
<path opacity="0.26" d="M1388.23 435.857C1385.34 437.87 1381.26 440.244 1376.04 442.103C1371.91 443.548 1368.14 444.271 1365.14 444.632C1373.46 447.368 1377.33 446.284 1379.35 444.632C1380.59 443.6 1381.88 441.69 1385.75 438.128C1386.74 437.147 1387.61 436.373 1388.23 435.857Z" fill="#6C6D6D"/>
<path d="M1328.82 266.131C1329.39 269.434 1329.96 272.738 1330.43 276.197C1332.44 290.237 1333.27 303.504 1333.32 315.841C1330.48 315.531 1327.69 315.221 1324.85 314.963C1325.16 317.699 1326.03 327.713 1319.63 337.624C1313.58 346.967 1304.9 350.374 1302.22 351.304C1302.53 356.362 1302.79 361.369 1303.1 366.428C1297.52 361.473 1289.92 355.64 1280.26 350.426C1272.87 346.451 1265.9 343.715 1259.96 341.857C1266.62 333.598 1269.15 325.803 1270.24 321.312C1272.1 313.569 1271.74 306.91 1271.38 301.026C1271.01 294.986 1270.14 289.979 1269.36 286.469C1266.93 275.422 1273.29 257.923 1285.94 251.626C1298.45 245.38 1317.1 250.645 1328.82 266.131Z" fill="white" stroke="#161616" stroke-width="3.27745" stroke-miterlimit="10"/>
<path d="M1326.03 315.324C1324.59 315.118 1323.09 314.963 1321.64 314.808C1321.12 314.756 1321.12 313.982 1321.64 314.034C1323.19 314.189 1324.69 314.395 1326.24 314.601C1326.7 314.601 1326.5 315.376 1326.03 315.324Z" fill="#161616"/>
<path d="M1279.44 274.132C1285.69 275.732 1286.82 281.152 1294.73 292.457C1302.73 303.916 1307.8 311.091 1316.84 315.273C1322.68 317.957 1325.57 317.234 1328.15 320.693C1332.6 326.681 1329.6 336.54 1326.96 341.599C1323.92 347.432 1319.27 350.942 1315.44 353.833C1311.78 356.569 1308.42 358.375 1306.04 359.459C1308.57 355.588 1308.73 354.401 1308.42 354.039C1307.59 353.213 1304.08 357.653 1299.94 357.085C1298.76 356.93 1296.64 356.259 1291.94 348.877C1288.73 343.87 1286.56 340.412 1285.12 335.456C1281.97 324.822 1286.41 321.932 1285.12 307.943C1284.91 305.826 1283.46 289.256 1277.58 288.172C1275.46 287.759 1273.29 289.514 1272.25 290.856C1270.08 293.696 1270.34 298.238 1273.03 302.161C1272.15 301.542 1263.73 295.864 1263.83 286.624C1263.83 285.178 1263.88 279.861 1267.91 276.403C1272.51 272.48 1278.92 274.028 1279.44 274.132Z" fill="#161616" stroke="#161616" stroke-width="3.27745" stroke-miterlimit="10"/>
<path d="M1321.07 297.619C1319.88 297.619 1318.9 295.885 1318.9 293.747C1318.9 291.609 1319.88 289.876 1321.07 289.876C1322.27 289.876 1323.24 291.609 1323.24 293.747C1323.24 295.885 1322.27 297.619 1321.07 297.619Z" fill="#161616"/>
<path d="M1337.61 299.425C1336.41 299.425 1335.44 297.692 1335.44 295.554C1335.44 293.416 1336.41 291.682 1337.61 291.682C1338.81 291.682 1339.78 293.416 1339.78 295.554C1339.78 297.692 1338.81 299.425 1337.61 299.425Z" fill="#161616"/>
<path d="M1340.86 289.205C1339.47 287.605 1337.3 287.45 1335.75 288.998C1335.02 289.721 1333.94 288.585 1334.66 287.914C1336.78 285.85 1340.03 285.901 1342 288.121C1342.57 288.895 1341.48 289.979 1340.86 289.205Z" fill="#161616"/>
<path d="M1323.92 286.52C1322.11 285.023 1319.73 285.23 1318.18 286.933C1317.51 287.656 1316.42 286.572 1317.1 285.849C1319.27 283.526 1322.62 283.423 1325.05 285.436C1325.78 286.056 1324.69 287.14 1323.92 286.52Z" fill="#161616"/>
<path d="M1330.58 272.273C1330.01 268.557 1328.57 262.466 1324.59 256.168C1323.19 253.948 1320.2 249.251 1315.44 246.05C1306.35 240.011 1292.35 240.476 1282.17 247.909C1272.2 255.187 1267.24 268.195 1269.41 281.1C1289.82 278.21 1310.17 275.267 1330.58 272.273Z" fill="#87BFC1"/>
<path d="M1363.95 272.738C1332.59 276.764 1301.18 280.791 1269.83 284.765C1266.88 285.127 1266.88 280.481 1269.83 280.12C1301.18 276.093 1332.59 272.067 1363.95 268.092C1366.9 267.679 1366.9 272.325 1363.95 272.738Z" fill="#161616"/>
<path d="M1304.03 242.282C1295.97 244.037 1289.87 250.541 1288.84 258.336C1287.91 265.15 1290.9 272.067 1296.59 276.299C1287.65 277.487 1278.66 278.726 1269.72 279.913C1269.26 277.538 1268.84 273.925 1269.41 269.692C1270.75 259.781 1276.49 253.432 1278.35 251.522C1280.36 249.457 1287.49 242.54 1298.08 241.921C1300.51 241.817 1302.58 242.024 1304.03 242.282Z" fill="#447C7E"/>
</svg>
