<svg width="757" height="629" viewBox="0 0 757 629" fill="none" xmlns="http://www.w3.org/2000/svg">
<g clip-path="url(#clip0)">
<rect width="756.766" height="629" fill="white"/>
<path d="M521.526 462.413C478.207 462.413 434.889 462.413 391.57 462.413C348.393 462.413 305.217 462.413 262.087 462.413C237.685 462.413 213.236 462.413 188.834 462.413C187.935 462.413 187.935 460.995 188.834 460.995C232.152 460.995 275.471 460.995 318.789 460.995C361.966 460.995 405.143 460.995 448.272 460.995C472.674 460.995 497.123 460.995 521.526 460.995C522.424 460.995 522.424 462.413 521.526 462.413Z" fill="#E8E8E8"/>
<path d="M180.085 433.022C180.463 446.631 179.092 460.239 175.97 473.517C175.781 474.415 174.41 474.037 174.599 473.139C177.673 460.003 179.044 446.536 178.619 433.022C178.666 432.124 180.085 432.124 180.085 433.022Z" fill="#E8E8E8"/>
<path d="M123.76 434.109C122.436 446.678 123.24 459.389 126.125 471.674C126.314 472.572 124.99 472.95 124.753 472.052C121.821 459.625 120.97 446.819 122.341 434.109C122.436 433.211 123.855 433.211 123.76 434.109Z" fill="#E8E8E8"/>
<path d="M175.403 474.84C159.04 478.999 141.732 478.431 125.7 473.139C124.849 472.856 125.227 471.485 126.078 471.769C141.921 476.967 158.898 477.581 175.024 473.47C175.923 473.281 176.301 474.651 175.403 474.84Z" fill="#E8E8E8"/>
<path d="M179.424 433.683C161.027 437.605 141.969 437.511 123.62 433.447C122.722 433.258 123.1 431.888 123.999 432.077C142.111 436.093 160.933 436.141 179.045 432.313C179.944 432.124 180.322 433.494 179.424 433.683Z" fill="#E8E8E8"/>
<path d="M168.216 434.203C170.675 428.675 168.452 421.918 166.608 416.484C164.716 410.861 162.02 405.521 158.71 400.607C159.088 400.654 159.467 400.701 159.845 400.749C158.757 401.977 157.575 402.828 156.109 403.536C155.542 403.773 154.927 403.395 155.069 402.733C155.636 400.182 156.629 397.677 155.494 395.126C154.69 393.33 153.555 391.534 152.61 389.833C152.941 389.928 153.272 390.022 153.603 390.07C152.61 390.684 151.616 391.251 150.623 391.865C149.961 392.29 149.394 391.487 149.63 390.873C150.623 388.699 151.285 386.526 149.914 384.352C149.11 383.029 148.07 381.848 147.171 380.619C145.185 377.973 143.104 375.327 141.023 372.728C137.051 367.766 132.937 362.947 128.68 358.221C129.059 358.174 129.437 358.127 129.815 358.08C123.762 366.018 119.932 375.516 118.891 385.439C118.371 390.211 118.513 395.126 119.364 399.851C119.79 402.261 120.404 404.623 121.161 406.939C121.303 407.411 121.492 407.884 121.634 408.309C122.154 409.632 123.005 410.199 124.377 410.483C125.323 410.672 125.843 410.53 126.647 411.144C127.025 411.428 127.12 411.9 126.789 412.278C125.748 413.365 125.323 413.554 125.701 415.019C125.938 415.964 126.505 416.956 126.931 417.901C127.782 419.791 128.728 421.634 129.721 423.43C131.754 427.115 134.072 430.612 136.673 433.92C137.24 434.629 136.247 435.621 135.679 434.912C130.667 428.486 126.694 421.445 123.715 413.885C123.62 413.649 123.715 413.365 123.904 413.176C124.519 412.562 125.134 411.9 125.796 411.286C125.843 411.664 125.89 412.042 125.938 412.42C124.85 411.664 123.62 412.184 122.485 411.711C121.587 411.38 121.114 410.719 120.736 409.868C119.695 407.647 119.033 405.096 118.466 402.733C117.283 397.535 116.905 392.196 117.283 386.904C118.087 376.225 122.012 365.876 128.539 357.371C128.775 357.04 129.295 356.851 129.673 357.229C134.923 363.041 139.983 369.042 144.807 375.185C146.982 377.926 149.299 380.666 151.191 383.643C152.893 386.337 152.089 388.888 150.907 391.629C150.576 391.298 150.245 390.967 149.914 390.637C150.907 390.022 151.9 389.455 152.893 388.841C153.224 388.652 153.697 388.746 153.886 389.077C155.069 391.251 156.913 393.661 157.575 396.071C158.143 398.197 156.96 400.985 156.487 403.064C156.156 402.78 155.778 402.544 155.447 402.261C156.818 401.646 157.906 400.843 158.899 399.709C159.23 399.331 159.798 399.473 160.034 399.851C163.723 405.332 166.608 411.333 168.594 417.665C170.296 423.146 171.952 429.384 169.54 434.865C169.067 435.715 167.837 435.007 168.216 434.203Z" fill="#E8E8E8"/>
<path d="M129.72 368.947C131.611 390.353 146.272 407.505 152.372 427.635C152.656 428.533 151.284 428.864 151.001 428.013C144.9 407.742 130.193 390.542 128.301 368.947C128.207 368.002 129.673 368.049 129.72 368.947Z" fill="#E8E8E8"/>
<path d="M147.596 380.335C146.083 388.132 144.333 395.834 142.347 403.489C142.11 404.387 140.739 404.009 140.975 403.111C142.961 395.456 144.711 387.707 146.224 379.957C146.366 379.06 147.738 379.438 147.596 380.335Z" fill="#E8E8E8"/>
<path d="M131.612 385.344C127.498 382.367 123.951 378.823 120.877 374.712C120.31 374.003 121.539 373.295 122.107 374.003C124.991 377.878 128.396 381.28 132.321 384.116C133.031 384.683 132.321 385.911 131.612 385.344Z" fill="#E8E8E8"/>
<path d="M136.009 365.12C134.732 369.184 133.976 374.145 130.854 377.217C130.192 377.878 129.199 376.839 129.861 376.224C132.746 373.342 133.503 368.475 134.685 364.742C134.922 363.891 136.293 364.269 136.009 365.12Z" fill="#E8E8E8"/>
<path d="M171.051 433.825C173.936 431.557 175.686 428.391 177.152 425.083C178.807 421.209 180.226 417.24 181.503 413.223C183.914 405.521 185.664 397.583 186.705 389.597C188.833 372.87 187.13 355.953 189.164 339.179C189.589 339.32 190.062 339.415 190.488 339.557C185.191 351.464 172.801 358.599 162.492 365.687C162.586 365.356 162.681 365.026 162.728 364.695C164.147 366.727 165.565 368.759 166.984 370.79C167.315 371.263 166.89 371.877 166.369 371.877C164.525 371.877 162.917 371.641 161.167 371.027C161.451 370.932 161.688 370.79 161.971 370.696C160.222 373.389 158.472 376.083 156.722 378.776C156.675 378.493 156.627 378.209 156.627 377.926C157.479 378.729 158.188 379.627 158.897 380.619C159.134 380.95 158.897 381.611 158.472 381.659C154.594 382.226 153.222 385.911 152.229 389.219C151.946 390.069 150.574 389.739 150.858 388.841C152.04 385.108 153.743 380.902 158.093 380.288C157.952 380.619 157.81 380.997 157.668 381.328C157.053 380.383 156.438 379.721 155.634 378.965C155.398 378.776 155.351 378.351 155.54 378.115C157.29 375.421 159.039 372.728 160.789 370.034C160.931 369.798 161.262 369.609 161.593 369.704C163.201 370.223 164.762 370.507 166.417 370.46C166.228 370.838 165.991 371.168 165.802 371.546C164.383 369.515 162.964 367.483 161.546 365.451C161.309 365.12 161.498 364.695 161.782 364.459C171.902 357.512 184.056 350.566 189.258 338.848C189.542 338.233 190.677 338.517 190.582 339.226C188.502 356.615 190.346 374.193 187.887 391.534C186.705 399.898 184.766 408.12 182.07 416.106C179.895 422.579 177.625 430.47 172.092 434.865C171.335 435.385 170.342 434.392 171.051 433.825Z" fill="#E8E8E8"/>
<path d="M190.205 340.596C186.375 351.18 183.159 362.332 178.004 372.397C175.45 377.358 172.66 382.225 170.248 387.281C167.647 392.762 165.33 398.338 162.966 403.867C162.634 404.717 161.405 403.961 161.736 403.158C163.959 397.866 166.229 392.573 168.64 387.376C171.005 382.272 173.748 377.405 176.396 372.444C181.693 362.332 184.956 350.991 188.881 340.265C189.165 339.367 190.536 339.745 190.205 340.596Z" fill="#E8E8E8"/>
<path d="M188.408 376.508C183.301 377.122 177.721 377.406 173.843 381.233C173.181 381.895 172.188 380.855 172.85 380.241C177.011 376.177 182.923 375.799 188.408 375.138C189.307 374.996 189.307 376.414 188.408 376.508Z" fill="#E8E8E8"/>
<path d="M174.742 357.371C175.593 360.442 176.16 363.608 176.397 366.821C176.586 369.562 176.917 372.775 175.971 375.421C175.688 376.272 174.316 375.894 174.6 375.043C175.498 372.539 175.167 369.42 174.978 366.774C174.742 363.702 174.174 360.678 173.37 357.701C173.134 356.851 174.505 356.473 174.742 357.371Z" fill="#E8E8E8"/>
<path d="M185.192 402.26C181.504 402.355 177.957 402.402 174.363 403.394C170.816 404.387 167.316 405.426 163.769 406.466C162.871 406.702 162.493 405.332 163.391 405.096C167.174 404.009 170.91 402.827 174.741 401.835C178.193 400.937 181.645 400.985 185.192 400.89C186.091 400.796 186.091 402.213 185.192 402.26Z" fill="#E8E8E8"/>
<path d="M133.456 432.502C130.287 432.077 127.166 432.077 123.998 432.502C124.14 432.171 124.282 431.793 124.423 431.462C124.707 431.888 127.545 431.935 128.112 431.982C129.389 432.171 130.713 432.36 131.99 432.644C132.179 432.691 133.456 432.833 133.503 432.974C133.409 432.738 131.517 432.785 131.233 432.785C129.862 432.785 128.49 432.927 127.119 433.022C127.119 432.549 127.119 432.077 127.119 431.604C128.301 431.557 129.342 431.699 130.524 432.029C131.281 432.218 131.139 433.4 130.335 433.4C128.49 433.4 126.835 433.022 125.038 432.549C124.14 432.313 124.518 430.943 125.417 431.179C127.024 431.604 128.632 431.982 130.335 431.982C130.288 432.455 130.193 432.927 130.146 433.352C129.153 433.069 128.159 432.974 127.119 432.974C126.221 432.974 126.221 431.604 127.119 431.557C129.2 431.462 132.226 430.706 134.118 431.888C134.875 432.36 135.962 433.589 134.969 434.345C134.544 434.676 134.071 434.487 133.551 434.439C132.132 434.156 130.76 433.825 129.342 433.589C127.687 433.305 124.376 433.73 123.241 432.171C123.005 431.84 123.241 431.179 123.667 431.132C126.977 430.659 130.193 430.659 133.503 431.084C134.355 431.179 134.355 432.596 133.456 432.502Z" fill="#E8E8E8"/>
<path d="M178.808 433.4C178.146 433.211 177.484 433.069 176.822 433.022C176.491 433.022 176.208 432.975 175.876 433.022C175.735 433.022 175.073 432.975 175.025 433.022C175.073 432.786 175.167 432.549 175.214 432.313C175.214 432.36 175.262 432.408 175.262 432.408C174.978 432.266 174.694 432.077 174.41 431.935C174.458 431.935 174.505 431.935 174.505 431.935C174.363 432.077 174.174 432.266 174.032 432.408C174.032 432.36 174.032 432.313 174.079 432.313C174.316 431.415 175.64 431.793 175.451 432.691C175.451 432.738 175.451 432.786 175.404 432.786C175.356 433.022 175.12 433.211 174.931 433.258C174.883 433.258 174.836 433.258 174.836 433.258C174.458 433.353 174.127 433.164 173.985 432.786C173.985 432.738 173.938 432.691 173.938 432.691C173.843 432.455 173.938 432.171 174.127 431.982C174.647 431.463 175.782 431.557 176.444 431.557C177.39 431.557 178.383 431.746 179.281 431.982C180.038 432.266 179.66 433.636 178.808 433.4Z" fill="#E8E8E8"/>
<path d="M177.721 442.898C160.46 445.875 142.537 447.292 125.512 442.189C124.661 441.905 124.992 440.582 125.89 440.819C142.631 445.827 160.318 444.457 177.343 441.527C178.241 441.386 178.62 442.756 177.721 442.898Z" fill="#E8E8E8"/>
<path d="M118.276 462.318C87.9622 462.318 57.6014 462.318 27.2878 462.318C26.3893 462.318 26.3893 460.901 27.2878 460.901C57.6014 460.901 87.9622 460.901 118.276 460.901C119.222 460.901 119.222 462.318 118.276 462.318Z" fill="#E8E8E8"/>
<path d="M141.211 492.702C112.647 492.702 84.0361 492.702 55.4724 492.702C54.5739 492.702 54.5739 491.284 55.4724 491.284C84.0361 491.284 112.647 491.284 141.211 491.284C142.109 491.284 142.109 492.702 141.211 492.702Z" fill="#E8E8E8"/>
<path d="M128.207 492.56C131.612 495.395 135.017 498.183 138.374 501.018C139.084 501.585 138.091 502.578 137.381 502.011C133.976 499.175 130.571 496.388 127.214 493.552C126.504 492.985 127.545 491.946 128.207 492.56Z" fill="#E8E8E8"/>
<path d="M137.949 502.53C137.051 502.53 137.051 501.113 137.949 501.113C138.848 501.113 138.848 502.53 137.949 502.53Z" fill="#E8E8E8"/>
<path d="M123.524 501.113C152.325 501.113 181.125 501.113 209.925 501.113C210.824 501.113 210.824 502.53 209.925 502.53C181.125 502.53 152.325 502.53 123.524 502.53C122.626 502.53 122.626 501.113 123.524 501.113Z" fill="#E8E8E8"/>
<path d="M210.068 515.761C204.961 511.508 199.711 507.444 194.32 503.522C193.611 503.003 194.273 501.774 195.029 502.294C200.515 506.263 205.859 510.421 211.061 514.721C211.77 515.336 210.777 516.328 210.068 515.761Z" fill="#E8E8E8"/>
<path d="M640.604 489.961C607.217 489.961 573.829 489.961 540.442 489.961C530.984 489.961 521.525 489.961 512.067 489.961C511.169 489.961 511.169 488.544 512.067 488.544C545.455 488.544 578.842 488.544 612.229 488.544C621.688 488.544 631.146 488.544 640.604 488.544C641.503 488.544 641.503 489.961 640.604 489.961Z" fill="#E8E8E8"/>
<path d="M623.154 502.294C618.661 498.467 614.121 494.639 609.628 490.812C608.919 490.198 609.959 489.205 610.622 489.82C615.114 493.647 619.654 497.475 624.147 501.302C624.856 501.869 623.816 502.909 623.154 502.294Z" fill="#E8E8E8"/>
<path d="M639.422 503.664C608.399 503.664 577.376 503.664 546.353 503.664C545.454 503.664 545.454 502.247 546.353 502.247C577.376 502.247 608.399 502.247 639.422 502.247C640.32 502.247 640.32 503.664 639.422 503.664Z" fill="#E8E8E8"/>
<path d="M557.184 503.381C560.731 507.35 564.372 511.225 568.061 515.1C568.676 515.761 567.682 516.753 567.068 516.092C563.379 512.217 559.785 508.342 556.191 504.373C555.529 503.712 556.569 502.719 557.184 503.381Z" fill="#E8E8E8"/>
<path d="M581.396 517.368C554.109 517.368 526.869 517.368 499.582 517.368C498.684 517.368 498.684 515.95 499.582 515.95C526.869 515.95 554.109 515.95 581.396 515.95C582.294 515.95 582.294 517.368 581.396 517.368Z" fill="#E8E8E8"/>
<path d="M600.737 466.193C589.198 466.193 577.659 466.193 566.073 466.193C565.174 466.193 565.174 464.775 566.073 464.775C577.612 464.775 589.151 464.775 600.737 464.775C601.635 464.775 601.635 466.193 600.737 466.193Z" fill="#E8E8E8"/>
<path d="M557.324 470.824C553.778 470.824 550.183 470.824 546.637 470.824C545.738 470.824 545.738 469.406 546.637 469.406C550.183 469.406 553.778 469.406 557.324 469.406C558.27 469.406 558.27 470.824 557.324 470.824Z" fill="#E8E8E8"/>
<path d="M583.004 218.165C583.004 225.867 583.004 233.616 583.004 241.318C583.004 242.216 581.585 242.216 581.585 241.318C581.585 233.616 581.585 225.867 581.585 218.165C581.585 217.267 583.004 217.267 583.004 218.165Z" fill="#E8E8E8"/>
<path d="M606.792 242.452C587.781 242.452 568.77 242.452 549.759 242.452C548.86 242.452 548.86 241.035 549.759 241.035C568.77 241.035 587.781 241.035 606.792 241.035C607.69 241.035 607.69 242.452 606.792 242.452Z" fill="#E8E8E8"/>
<path d="M566.971 243.114C566.971 249.068 566.971 254.975 566.971 260.928C566.971 261.826 565.553 261.826 565.553 260.928C565.553 254.975 565.553 249.068 565.553 243.114C565.553 242.169 566.971 242.169 566.971 243.114Z" fill="#E8E8E8"/>
<path d="M582.72 263.385C567.587 263.385 552.407 263.385 537.274 263.385C536.375 263.385 536.375 261.968 537.274 261.968C552.407 261.968 567.587 261.968 582.72 261.968C583.666 261.968 583.666 263.385 582.72 263.385Z" fill="#E8E8E8"/>
<path d="M201.083 201.579C201.083 203.469 201.083 205.312 201.083 207.202C201.083 208.1 199.664 208.1 199.664 207.202C199.664 205.312 199.664 203.469 199.664 201.579C199.664 200.681 201.083 200.681 201.083 201.579Z" fill="#E8E8E8"/>
<path d="M199.948 202.713C167.412 202.713 134.876 202.713 102.34 202.713C101.441 202.713 101.441 201.296 102.34 201.296C134.876 201.296 167.412 201.296 199.948 201.296C200.847 201.296 200.847 202.713 199.948 202.713Z" fill="#E8E8E8"/>
<path d="M199.097 207.911C166.844 207.911 134.592 207.911 102.387 207.911C101.488 207.911 101.488 206.494 102.387 206.494C134.639 206.494 166.892 206.494 199.097 206.494C199.995 206.494 199.995 207.911 199.097 207.911Z" fill="#E8E8E8"/>
<path d="M102.575 201.579C102.764 203.516 102.67 205.454 102.339 207.391C102.197 208.289 100.825 207.911 100.967 207.013C101.298 205.218 101.346 203.375 101.156 201.579C101.062 200.681 102.481 200.681 102.575 201.579Z" fill="#E8E8E8"/>
<path d="M193.278 201.627C193.278 188.443 193.278 175.26 193.278 162.076C193.278 161.178 194.697 161.178 194.697 162.076C194.697 175.26 194.697 188.443 194.697 201.627C194.697 202.572 193.278 202.572 193.278 201.627Z" fill="#E8E8E8"/>
<path d="M193.279 162.312C189.26 160.706 185.003 160.942 181.267 163.163C180.464 163.635 179.754 162.407 180.558 161.934C184.578 159.572 189.354 159.194 193.658 160.942C194.509 161.273 194.13 162.643 193.279 162.312Z" fill="#E8E8E8"/>
<path d="M181.503 162.832C181.503 175.496 181.503 188.207 181.503 200.87C181.503 201.768 180.085 201.768 180.085 200.87C180.085 188.207 180.085 175.496 180.085 162.832C180.085 161.934 181.503 161.934 181.503 162.832Z" fill="#E8E8E8"/>
<path d="M179.896 173.417C177.011 172.235 173.984 172.424 171.289 174.078C170.485 174.551 169.775 173.322 170.579 172.85C173.559 171.054 177.058 170.723 180.274 172.046C181.125 172.377 180.747 173.747 179.896 173.417Z" fill="#E8E8E8"/>
<path d="M171.573 174.031C171.573 182.914 171.573 191.751 171.573 200.634C171.573 201.532 170.154 201.532 170.154 200.634C170.154 191.751 170.154 182.914 170.154 174.031C170.154 173.133 171.573 173.133 171.573 174.031Z" fill="#E8E8E8"/>
<path d="M193.091 173.18C189.071 172.282 185.099 172.566 181.221 173.936C180.37 174.22 179.991 172.85 180.843 172.566C184.957 171.101 189.213 170.912 193.469 171.81C194.321 171.999 193.942 173.369 193.091 173.18Z" fill="#E8E8E8"/>
<path d="M180.889 189.577C177.862 188.774 174.836 188.679 171.762 189.341C170.863 189.53 170.485 188.159 171.383 187.97C174.694 187.261 177.957 187.309 181.267 188.207C182.118 188.443 181.787 189.813 180.889 189.577Z" fill="#E8E8E8"/>
<path d="M153.696 201.154C153.696 198.508 153.696 195.861 153.696 193.215C153.696 192.317 155.115 192.317 155.115 193.215C155.115 195.861 155.115 198.508 155.115 201.154C155.115 202.052 153.696 202.052 153.696 201.154Z" fill="#E8E8E8"/>
<path d="M154.405 193.641C139.036 193.641 123.713 193.641 108.344 193.641C107.445 193.641 107.445 192.223 108.344 192.223C123.713 192.223 139.036 192.223 154.405 192.223C155.351 192.223 155.351 193.641 154.405 193.641Z" fill="#E8E8E8"/>
<path d="M107.872 194.397C106.973 194.397 106.973 192.979 107.872 192.979C108.818 192.979 108.818 194.397 107.872 194.397Z" fill="#E8E8E8"/>
<path d="M108.581 193.688C108.581 196.098 108.581 198.508 108.581 200.917C108.581 201.815 107.163 201.815 107.163 200.917C107.163 198.508 107.163 196.098 107.163 193.688C107.163 192.79 108.581 192.79 108.581 193.688Z" fill="#E8E8E8"/>
<path d="M144.76 192.696C144.76 190.191 144.76 187.734 144.76 185.23C144.76 184.332 146.178 184.332 146.178 185.23C146.178 187.734 146.178 190.191 146.178 192.696C146.178 193.594 144.76 193.594 144.76 192.696Z" fill="#E8E8E8"/>
<path d="M145.467 185.702C130.381 185.702 115.295 185.702 100.162 185.702C99.2634 185.702 99.2634 184.285 100.162 184.285C115.248 184.285 130.334 184.285 145.467 184.285C146.365 184.285 146.365 185.702 145.467 185.702Z" fill="#E8E8E8"/>
<path d="M100.636 184.994C100.636 187.073 100.636 189.152 100.636 191.231C100.636 192.129 99.2176 192.129 99.2176 191.231C99.2176 189.152 99.2176 187.073 99.2176 184.994C99.2176 184.049 100.636 184.049 100.636 184.994Z" fill="#E8E8E8"/>
<path d="M108.865 193.877C106.122 193.877 103.379 193.877 100.636 193.877C99.7379 193.877 99.7379 192.459 100.636 192.459C103.379 192.459 106.122 192.459 108.865 192.459C109.811 192.459 109.811 193.877 108.865 193.877Z" fill="#E8E8E8"/>
<path d="M100.731 191.278C100.825 191.798 100.825 192.27 100.684 192.743C100.589 193.121 100.163 193.357 99.8324 193.215C99.454 193.121 99.2176 192.696 99.3595 192.365C99.4067 192.129 99.454 191.845 99.4067 191.656C99.3594 191.278 99.5013 190.853 99.8796 190.806C100.211 190.711 100.684 190.9 100.731 191.278Z" fill="#E8E8E8"/>
<path d="M134.686 185.324C134.071 187.734 133.929 190.191 134.26 192.696C134.355 193.593 132.936 193.593 132.841 192.696C132.51 190.097 132.7 187.498 133.314 184.946C133.551 184.096 134.922 184.474 134.686 185.324Z" fill="#E8E8E8"/>
<path d="M123.997 193.546C123.665 195.909 123.855 198.224 124.422 200.492C124.659 201.39 123.287 201.768 123.051 200.87C122.389 198.319 122.247 195.767 122.625 193.168C122.72 192.27 124.091 192.648 123.997 193.546Z" fill="#E8E8E8"/>
<path d="M133.268 251.052C133.268 254.785 133.268 258.471 133.268 262.204C133.268 263.102 131.849 263.102 131.849 262.204C131.849 258.471 131.849 254.785 131.849 251.052C131.849 250.107 133.268 250.107 133.268 251.052Z" fill="#E8E8E8"/>
<path d="M144.239 262.393C134.781 262.393 125.323 262.393 115.864 262.393C114.966 262.393 114.966 260.976 115.864 260.976C125.323 260.976 134.781 260.976 144.239 260.976C145.138 260.976 145.138 262.393 144.239 262.393Z" fill="#E8E8E8"/>
<path d="M160.365 103.436C160.365 111.941 160.365 120.494 160.365 128.999C160.365 129.897 158.946 129.897 158.946 128.999C158.946 120.494 158.946 111.941 158.946 103.436C158.946 102.538 160.365 102.538 160.365 103.436Z" fill="#E8E8E8"/>
<path d="M158.567 103.388C147.785 103.388 137.049 103.388 126.267 103.388C125.369 103.388 125.369 101.971 126.267 101.971C137.049 101.971 147.785 101.971 158.567 101.971C159.465 101.971 159.465 103.388 158.567 103.388Z" fill="#E8E8E8"/>
<path d="M126.22 103.199C126.22 111.421 126.22 119.643 126.22 127.818C126.22 128.716 124.802 128.716 124.802 127.818C124.802 119.596 124.802 111.374 124.802 103.199C124.802 102.301 126.22 102.301 126.22 103.199Z" fill="#E8E8E8"/>
<path d="M159.844 129.803C148.4 129.803 136.955 129.803 125.511 129.803C124.613 129.803 124.613 128.385 125.511 128.385C136.955 128.385 148.4 128.385 159.844 128.385C160.743 128.385 160.743 129.803 159.844 129.803Z" fill="#E8E8E8"/>
<path d="M157.195 106.365C157.195 112.839 157.195 119.265 157.195 125.739C157.195 126.637 155.776 126.637 155.776 125.739C155.776 119.265 155.776 112.839 155.776 106.365C155.776 105.468 157.195 105.468 157.195 106.365Z" fill="#E8E8E8"/>
<path d="M156.156 106.932C147.313 106.932 138.422 106.932 129.579 106.932C128.68 106.932 128.68 105.515 129.579 105.515C138.422 105.515 147.313 105.515 156.156 105.515C157.055 105.515 157.055 106.932 156.156 106.932Z" fill="#E8E8E8"/>
<path d="M130.098 106.365C130.098 112.366 130.098 118.32 130.098 124.321C130.098 125.219 128.68 125.219 128.68 124.321C128.68 118.32 128.68 112.366 128.68 106.365C128.68 105.468 130.098 105.468 130.098 106.365Z" fill="#E8E8E8"/>
<path d="M156.156 126.448C147.36 126.448 138.564 126.448 129.721 126.448C128.822 126.448 128.822 125.03 129.721 125.03C138.517 125.03 147.313 125.03 156.156 125.03C157.055 125.03 157.055 126.448 156.156 126.448Z" fill="#E8E8E8"/>
<path d="M139.414 117.942C143.15 115.107 137.57 109.2 134.969 112.744C132.557 115.957 136.482 119.832 139.84 118.037C140.644 117.611 141.353 118.84 140.549 119.265C138.374 120.446 135.489 120.116 133.929 118.084C132.321 116.052 132.51 112.839 134.543 111.138C136.671 109.389 139.698 110.571 141.164 112.555C142.725 114.729 142.252 117.564 140.124 119.171C139.367 119.69 138.705 118.462 139.414 117.942Z" fill="#E8E8E8"/>
<path d="M143.908 124.936C144.097 121.203 139.51 119.785 136.625 119.785C133.078 119.785 131.943 122.951 130.477 125.644C130.051 126.448 128.822 125.739 129.247 124.936C130.241 123.14 131.186 120.777 132.842 119.454C134.355 118.273 136.246 118.32 138.044 118.509C141.354 118.887 145.563 120.919 145.326 124.936C145.279 125.833 143.86 125.833 143.908 124.936Z" fill="#E8E8E8"/>
<path d="M155.542 121.533C154.501 119.596 150.671 120.352 149.252 121.108C147.786 121.912 146.935 123.235 146.556 124.841C146.367 125.739 144.996 125.361 145.185 124.463C145.752 122.006 147.455 120.069 149.914 119.265C151.995 118.604 155.542 118.557 156.724 120.777C157.197 121.628 155.967 122.337 155.542 121.533Z" fill="#E8E8E8"/>
<path d="M152.798 118.037C154.359 117.989 153.981 115.674 153.318 114.871C152.467 113.831 150.765 113.69 149.772 114.682C148.968 115.438 148.731 116.855 149.393 117.753C149.866 118.415 150.576 118.557 151.332 118.557C151.616 118.557 152.798 118.604 152.987 118.368C153.508 117.611 154.737 118.32 154.217 119.076C153.65 119.927 152.467 119.974 151.521 119.974C150.387 120.021 149.299 119.738 148.495 118.887C146.982 117.233 147.502 114.446 149.299 113.217C151.238 111.941 153.933 112.65 154.926 114.729C155.778 116.572 155.163 119.36 152.798 119.407C151.853 119.502 151.853 118.084 152.798 118.037Z" fill="#E8E8E8"/>
<path d="M442.217 229.033C439.994 230.828 437.252 230.072 435.171 228.324C432.239 225.914 430.773 221.803 430.205 218.165C428.739 208.903 432.475 200.114 433.941 191.136C436.589 174.456 429.307 156.595 415.781 146.577C409.208 141.663 398.378 136.418 400.932 126.353C401.169 125.455 402.54 125.833 402.304 126.731C399.892 136.323 411.052 141.19 417.153 145.821C422.639 150.027 427.084 155.461 430.252 161.556C433.374 167.463 435.265 174.031 435.786 180.694C436.4 188.774 434.272 196.287 432.522 204.084C431.482 208.809 430.82 213.77 431.718 218.59C432.144 220.811 432.901 222.985 434.083 224.922C435.407 227.001 438.576 230.214 441.224 228.088C441.886 227.474 442.926 228.466 442.217 229.033Z" fill="#E8E8E8"/>
<path d="M401.452 125.786C406.796 126.022 411.478 121.864 411.194 116.383C410.91 110.665 404.148 105.373 398.425 106.885C393.318 108.256 389.393 113.879 390.67 119.124C391.947 124.369 397.858 125.503 402.398 126.259C403.296 126.4 402.918 127.771 402.02 127.629C396.156 126.684 389.346 124.605 388.967 117.517C388.684 111.752 393.838 105.515 399.75 105.279C405.992 104.995 412.282 110.098 412.613 116.43C412.896 122.668 407.553 127.487 401.452 127.251C400.554 127.157 400.554 125.739 401.452 125.786Z" fill="#E8E8E8"/>
<path d="M408.451 122.1C406.181 116.383 394.074 115.438 392.656 122.242C392.466 123.14 391.095 122.762 391.284 121.864C393.034 113.548 407.079 114.776 409.822 121.722C410.153 122.573 408.782 122.904 408.451 122.1Z" fill="#E8E8E8"/>
<path d="M401.358 115.721C402.351 115.012 402.729 113.642 402.067 112.603C401.31 111.327 399.702 111.185 398.473 111.846C397.527 112.366 397.338 113.548 397.905 114.445C398.615 115.532 400.128 115.674 401.31 115.39C402.209 115.201 402.587 116.572 401.689 116.761C399.797 117.186 397.527 116.761 396.581 114.918C395.73 113.264 396.345 111.279 398.047 110.476C399.939 109.626 402.209 110.004 403.297 111.846C404.384 113.595 403.675 115.768 402.067 116.903C401.31 117.517 400.601 116.288 401.358 115.721Z" fill="#E8E8E8"/>
<path d="M381.306 101.168C376.34 88.0314 362.059 81.3216 348.77 80.4238C339.974 79.8095 331.178 81.1798 322.571 82.8337C314.437 84.4403 305.972 86.9919 297.648 86.7084C290.791 86.4721 283.745 83.637 280.529 77.2579C280.103 76.4546 281.333 75.7458 281.759 76.5491C285.495 83.9205 294.102 85.8106 301.715 85.1963C310.606 84.4875 319.355 81.8414 328.104 80.3766C342.291 78.0139 357.424 77.6832 370.051 85.6688C375.773 89.3073 380.313 94.4105 382.725 100.79C383.008 101.64 381.637 102.018 381.306 101.168Z" fill="#E8E8E8"/>
<path d="M274.806 76.4546C262.321 76.4546 249.789 76.4546 237.305 76.4546C236.406 76.4546 236.406 75.037 237.305 75.037C249.789 75.037 262.321 75.037 274.806 75.037C275.752 75.037 275.752 76.4546 274.806 76.4546Z" fill="#E8E8E8"/>
<path d="M275.328 74.9424C277.55 72.7688 275.138 69.0831 273.389 67.4293C271.261 65.3502 268.329 64.5469 265.491 65.6809C265.255 65.7754 264.782 65.6337 264.687 65.3502C262.985 61.381 258.965 58.4985 254.567 58.6876C249.98 58.8766 246.102 62.326 244.967 66.6732C244.872 67.0985 244.305 67.3348 243.927 67.0985C241.846 65.8227 239.718 67.3348 238.866 69.2721C238.11 71.0677 238.299 73.0996 238.488 75.0369C238.583 75.9347 237.164 75.9347 237.069 75.0369C236.786 72.2018 236.596 68.8469 238.866 66.6732C240.474 65.1612 242.697 64.6886 244.589 65.8699C244.258 66.0117 243.879 66.1535 243.548 66.2952C244.825 61.57 248.892 57.7898 253.858 57.3172C258.965 56.7975 263.883 59.9634 265.869 64.6414C265.586 64.5469 265.349 64.4051 265.066 64.3106C268.849 62.7985 272.821 64.4051 275.28 67.5238C277.125 69.8392 278.733 73.5721 276.226 75.982C275.659 76.5963 274.666 75.604 275.328 74.9424Z" fill="#E8E8E8"/>
<path d="M248.419 81.8885C242.602 81.227 239.197 87.3226 238.298 92.2368C237.352 97.2929 238.251 102.349 238.771 107.405C239.575 115.013 239.055 124.18 231.819 128.621C231.063 129.094 230.306 127.865 231.11 127.393C240.994 121.344 236.879 107.877 236.501 98.6159C236.217 91.5753 239.008 79.4314 248.419 80.471C249.317 80.5655 249.317 81.9831 248.419 81.8885Z" fill="#E8E8E8"/>
<path d="M223.969 120.636C228.225 131.362 232.434 142.088 236.69 152.767C237.021 153.618 235.65 153.996 235.319 153.145C231.062 142.419 226.854 131.693 222.597 121.014C222.266 120.163 223.638 119.832 223.969 120.636Z" fill="#E8E8E8"/>
<path d="M223.308 121.534C215.93 121.156 208.6 121.345 201.27 122.195C201.507 121.912 201.743 121.581 201.932 121.297C205.432 132.496 208.269 143.837 210.539 155.319C210.728 156.217 209.357 156.595 209.168 155.697C206.898 144.215 204.013 132.874 200.561 121.675C200.419 121.203 200.797 120.825 201.223 120.777C208.553 119.927 215.883 119.738 223.261 120.116C224.206 120.163 224.206 121.581 223.308 121.534Z" fill="#E8E8E8"/>
<path d="M236.359 154.138C232.008 154.327 227.705 154.563 223.354 154.846C219.145 155.083 214.653 154.988 210.68 156.595C209.829 156.926 209.451 155.555 210.302 155.224C214.085 153.665 218.389 153.76 222.408 153.523C227.043 153.24 231.677 153.004 236.359 152.767C237.258 152.673 237.258 154.09 236.359 154.138Z" fill="#E8E8E8"/>
<path d="M222.645 126.259C218.105 126.353 213.565 126.684 209.072 127.298C208.174 127.44 207.796 126.07 208.694 125.928C213.329 125.266 217.963 124.888 222.645 124.794C223.591 124.794 223.591 126.211 222.645 126.259Z" fill="#E8E8E8"/>
<path d="M224.015 129.472C221.462 129.377 218.908 129.425 216.354 129.661C215.456 129.755 215.456 128.338 216.354 128.243C218.908 128.007 221.462 127.912 224.015 128.054C224.914 128.101 224.914 129.519 224.015 129.472Z" fill="#E8E8E8"/>
<path d="M227.137 135.851C221.699 135.52 216.544 135.048 211.2 136.371C210.302 136.607 209.923 135.237 210.822 135C216.308 133.677 221.557 134.103 227.137 134.433C228.083 134.481 228.083 135.898 227.137 135.851Z" fill="#E8E8E8"/>
<path d="M226.901 140.009C223.78 139.773 220.659 139.773 217.537 140.056C216.639 140.151 216.639 138.733 217.537 138.639C220.659 138.355 223.78 138.355 226.901 138.592C227.8 138.686 227.847 140.104 226.901 140.009Z" fill="#E8E8E8"/>
<path d="M229.36 145.49C225.104 145.207 220.942 145.349 216.733 145.916C215.835 146.057 215.835 144.64 216.733 144.498C220.942 143.931 225.151 143.789 229.36 144.073C230.259 144.12 230.259 145.538 229.36 145.49Z" fill="#E8E8E8"/>
<path d="M464.68 82.0774C462.788 84.6291 460.045 85.6686 457.255 86.9445C453.945 88.4565 450.918 90.4884 448.459 93.1818C442.879 99.1829 441.034 107.263 440.893 115.249C440.562 130.228 445.622 145.916 438.812 160.091C438.433 160.895 437.204 160.186 437.582 159.383C444.723 144.451 438.386 127.723 439.616 112.036C440.136 105.231 442.075 98.5686 446.473 93.2763C448.554 90.7719 451.107 88.5983 453.945 86.9917C457.113 85.1961 461.228 84.3928 463.45 81.3687C463.971 80.6599 465.2 81.3687 464.68 82.0774Z" fill="#E8E8E8"/>
<path d="M480.853 62.0898C482.083 60.5304 481.988 59.4436 480.569 58.8293C479.955 58.4986 479.34 58.2623 478.63 58.1205C477.732 57.9315 476.739 57.8843 475.793 57.9315C472.955 58.0733 470.071 58.8293 470.213 62.2788C470.354 66.3425 471.111 70.359 472.104 74.2809C473.145 78.2974 474.422 82.2193 475.793 86.1413C476.077 86.9918 476.313 87.9841 476.739 88.7874C477.59 90.2523 478.914 90.205 480.333 90.205C482.083 90.205 484.305 90.4413 486.008 89.9688C487.899 89.449 488.325 87.5589 486.481 86.3303C485.629 85.7633 484.447 85.6688 483.454 85.6688C482.177 85.6688 481.042 85.9523 479.955 85.1017C477.874 83.4952 477.543 79.1479 477.07 76.8326C476.36 73.4776 475.178 69.3667 475.415 65.9645C475.604 63.3656 478.158 63.2711 480.002 62.1843C480.806 61.7117 481.515 62.9403 480.711 63.4128C479.245 64.2634 477.117 64.3579 476.833 66.2952C476.502 68.5634 477.448 71.6348 477.874 73.9029C478.299 76.0765 478.772 78.2501 479.34 80.3765C479.765 81.9831 479.955 83.9204 482.083 84.3457C482.934 84.5347 483.974 84.2512 484.873 84.393C487.143 84.7237 489.365 86.3303 489.034 88.8819C488.609 92.0951 484.778 91.5281 482.414 91.6226C479.482 91.7171 476.55 92.1424 475.225 89.0237C473.57 85.149 472.388 80.8963 471.253 76.8798C470.071 72.7216 469.172 68.4216 468.841 64.1216C468.557 60.7667 468.416 58.0733 472.152 57.1755C475.415 56.3722 479.907 55.9942 482.461 58.6403C484.163 60.3887 483.738 63.8381 480.806 63.6018C479.955 63.4128 479.955 61.9953 480.853 62.0898Z" fill="#E8E8E8"/>
<path d="M486.576 67.1457C486.623 67.0985 486.67 67.0512 486.718 67.004C486.907 66.815 487.19 66.7677 487.427 66.815C488.798 67.2875 489.319 69.5083 489.697 70.7369C490.359 73.005 490.501 75.3204 490.17 77.683C490.075 78.5808 488.656 78.5808 488.751 77.683C488.94 76.0292 488.988 74.4226 488.704 72.7688C488.562 71.9182 487.096 68.6106 487.616 68.138C486.954 68.7996 485.961 67.8073 486.576 67.1457Z" fill="#E8E8E8"/>
<path d="M491.352 61.9481C495.703 67.4766 498.493 74.1392 496.649 81.2271C496.413 82.1249 495.041 81.7469 495.278 80.8491C496.98 74.3282 494.332 68.0436 490.359 62.9404C489.792 62.2316 490.785 61.2393 491.352 61.9481Z" fill="#E8E8E8"/>
<path d="M497.311 55.5689C504.547 65.0667 507.952 77.0688 506.722 88.9765C506.628 89.8743 505.209 89.8743 505.303 88.9765C506.486 77.3051 503.223 65.6337 496.082 56.2777C495.561 55.5689 496.791 54.8602 497.311 55.5689Z" fill="#E8E8E8"/>
<path d="M507.385 103.861C511.026 105.609 514.431 108.019 517.127 111.043C519.87 114.162 520.721 117.517 521.146 121.581C522.092 130.889 525.544 141.096 534.908 145.018C535.759 145.349 535.381 146.719 534.53 146.388C527.058 143.269 522.707 136.182 520.863 128.527C519.775 123.943 520.295 118.509 517.883 114.398C515.424 110.193 510.979 107.121 506.675 105.042C505.824 104.711 506.534 103.483 507.385 103.861Z" fill="#E8E8E8"/>
<path d="M554.911 170.109C558.032 170.204 561.579 168.88 562.714 165.667C564.038 161.887 561.201 158.201 558.174 156.264C552.31 152.484 544.412 151.019 537.602 150.925C534.15 150.877 530.225 150.925 527.198 152.767C523.321 155.13 522.659 159.572 525.685 162.927C530.272 168.03 538.17 168.55 544.507 169.022C545.405 169.069 545.405 170.487 544.507 170.44C538.17 169.967 531.076 169.4 525.969 165.148C521.287 161.273 520.956 154.846 526.442 151.492C532.117 148.042 540.771 149.176 546.919 150.499C552.83 151.775 560.917 154.09 563.565 160.186C566.308 166.423 561.059 171.621 554.816 171.432C553.965 171.479 553.965 170.062 554.911 170.109Z" fill="#E8E8E8"/>
<path d="M555.147 170.676C556.33 172.566 557.465 174.456 558.647 176.299C559.025 176.913 558.269 177.575 557.654 177.291C554.769 175.732 551.648 174.74 548.716 173.369C547.108 172.661 545.547 171.81 544.034 170.865C543.514 170.534 542.899 170.345 542.757 169.684C542.663 169.353 542.852 168.88 543.23 168.833C543.278 168.833 543.325 168.833 543.372 168.786C543.703 168.739 544.176 168.88 544.223 169.258C544.223 169.306 544.223 169.306 544.223 169.353C544.412 170.251 543.041 170.629 542.852 169.731C542.852 169.684 542.852 169.684 542.852 169.636C543.136 169.778 543.419 169.967 543.703 170.109C543.656 170.109 543.609 170.109 543.561 170.156C543.703 169.873 543.892 169.589 544.034 169.306C544.176 169.778 546.824 170.865 547.392 171.196C548.811 171.952 550.277 172.566 551.79 173.18C554.013 174.078 556.188 174.929 558.269 176.063C557.938 176.393 557.607 176.724 557.276 177.055C556.093 175.165 554.958 173.275 553.776 171.432C553.445 170.629 554.675 169.92 555.147 170.676Z" fill="#E8E8E8"/>
<path d="M553.588 162.502C553.635 162.407 553.635 162.218 553.493 162.218C553.115 162.218 553.54 162.691 553.588 162.738C553.824 162.88 554.628 163.069 554.581 162.596C554.533 162.029 553.446 161.415 553.257 162.265C553.209 162.502 553.398 162.785 553.635 162.832C553.777 162.88 553.871 162.88 553.966 162.785C554.013 162.738 554.108 162.691 554.013 162.691C553.115 162.738 553.115 161.32 554.013 161.273C554.959 161.179 555.668 162.171 555.432 163.069C555.195 163.966 554.155 164.439 553.304 164.203C552.453 163.966 551.791 163.21 551.791 162.313C551.791 161.415 552.5 160.659 553.304 160.47C555.054 160.044 556.898 162.596 555.385 163.872C554.155 164.911 551.696 163.966 551.838 162.218C551.932 161.273 552.973 160.517 553.919 160.848C554.864 161.179 555.243 162.36 554.77 163.21C554.392 164.014 553.162 163.305 553.588 162.502Z" fill="#E8E8E8"/>
<path d="M543.137 161.226C543.184 160.942 543.326 160.564 543.042 160.328C542.9 160.186 542.664 160.186 542.475 160.186C542.002 160.281 542.096 160.8 542.427 161.037C542.617 161.178 542.806 161.178 542.948 160.989C543.089 160.8 543.042 160.753 542.9 160.659C542.806 160.611 543.089 160.659 542.853 160.611C542.285 160.517 543.231 161.178 543.089 160.706C543.373 161.604 542.002 161.934 541.718 161.084C541.482 160.233 542.286 159.383 543.137 159.524C544.13 159.714 544.366 160.895 543.751 161.604C543.184 162.265 542.144 162.123 541.718 161.367C541.292 160.611 541.576 159.619 542.427 159.335C543.279 159.052 544.224 159.572 544.414 160.422C544.65 161.367 543.988 162.312 543.042 162.549C541.34 162.927 539.921 160.611 541.151 159.335C541.765 158.721 542.758 158.674 543.515 159.005C544.555 159.524 544.603 160.611 544.414 161.604C544.366 162.501 542.995 162.123 543.137 161.226Z" fill="#E8E8E8"/>
<path d="M532.637 158.06C532.448 158.06 532.259 158.107 532.022 158.107V158.06C531.975 158.012 531.975 157.918 531.928 157.871C531.88 157.776 531.739 157.682 531.644 157.634C531.408 157.54 531.171 157.54 531.029 157.776C530.84 158.154 531.171 158.863 531.644 158.58C531.928 158.391 531.975 157.918 531.549 158.012C531.455 158.012 531.408 158.06 531.36 158.107C531.36 158.107 531.36 158.201 531.36 158.107C531.36 158.012 531.36 158.154 531.408 158.154C531.549 158.249 531.597 158.343 531.739 158.249C532.07 158.012 532.543 158.201 532.732 158.485C532.921 158.863 532.779 159.241 532.495 159.477C531.124 160.47 529.279 158.485 530.367 157.162C531.36 155.981 533.488 156.737 533.394 158.296C533.347 159.099 532.732 159.808 531.975 159.997C531.218 160.186 530.414 159.808 529.989 159.147C529.043 157.682 530.367 155.65 532.117 156.217C532.921 156.5 533.63 157.304 533.536 158.201C533.441 159.194 532.022 159.714 531.502 158.721C531.029 157.965 532.212 157.256 532.637 158.06Z" fill="#E8E8E8"/>
<path d="M504.074 116.855C498.257 113.642 493.197 109.389 488.988 104.239C488.421 103.53 489.414 102.538 489.981 103.247C494.096 108.303 499.061 112.461 504.783 115.627C505.587 116.052 504.878 117.281 504.074 116.855Z" fill="#E8E8E8"/>
<path d="M433.325 118.084C434.365 124.038 434.791 130.039 434.507 136.087C434.46 136.985 433.041 136.985 433.088 136.087C433.372 130.18 432.994 124.274 431.953 118.462C431.811 117.564 433.183 117.186 433.325 118.084Z" fill="#E8E8E8"/>
<path d="M440.561 256.203C440.561 248.974 437.156 242.122 431.339 237.775C430.63 237.255 431.339 236.026 432.049 236.546C438.291 241.177 441.932 248.407 441.932 256.203C441.98 257.101 440.561 257.101 440.561 256.203Z" fill="#E8E8E8"/>
<path d="M361.351 447.008C360.594 453.813 359.412 461.279 357.521 469.359C354.967 480.274 351.704 489.819 348.441 497.852C349.339 498.655 352.035 500.782 356.007 501.065C358.514 501.254 360.5 500.64 361.635 500.215C363.337 494.308 364.992 488.165 366.506 481.786C369.627 468.65 371.897 456.128 373.552 444.457C369.438 445.307 365.371 446.158 361.351 447.008Z" fill="#191919"/>
<path d="M255.182 442.567C255.796 449.324 256.837 456.837 258.587 464.917C261.046 476.353 264.309 486.276 267.619 494.639C267.146 495.065 264.451 497.616 260.289 497.427C256.695 497.285 254.378 495.159 253.81 494.639C252.722 488.922 251.682 483.157 250.642 477.392C248.372 464.776 246.338 452.348 244.399 440.062C247.993 440.866 251.587 441.716 255.182 442.567Z" fill="#191919"/>
<path d="M339.74 423.713C338.652 430.943 337.375 438.409 335.909 446.063C333.781 457.168 331.37 467.752 328.816 477.77C329.904 478.431 332.079 479.518 335.058 479.707C337.565 479.849 339.551 479.282 340.686 478.857C342.105 472.147 343.476 465.343 344.847 458.538C347.354 445.922 349.671 433.494 351.894 421.209C347.827 422.012 343.807 422.863 339.74 423.713Z" fill="#191919"/>
<path d="M273.011 422.295C274.287 429.431 275.422 436.896 276.416 444.646C277.787 455.325 278.733 465.531 279.3 475.266C278.496 475.785 276.605 476.872 273.909 477.014C271.024 477.108 268.896 475.974 268.092 475.502C268.565 469.926 268.754 463.736 268.471 457.121C267.903 442.425 265.208 429.761 262.228 419.791C265.822 420.594 269.417 421.445 273.011 422.295Z" fill="#191919"/>
<path d="M188.975 264.189C180.699 278.931 187.084 295.233 202.595 335.729C210.067 355.197 223.734 390.967 243.029 441.953C261.993 448.851 293.394 457.357 332.22 454.664C354.777 453.104 373.694 448.237 388.023 443.228C390.151 439.401 397.528 425.083 391.995 411.191C388.922 403.489 382.726 397.96 369.579 391.44C356.622 385.013 333.78 375.988 300.582 374.334C313.587 309.646 291.313 256.628 256.649 244.39C233.902 236.404 200.373 243.917 188.975 264.189Z" fill="white" stroke="#191919" stroke-width="3.00016" stroke-miterlimit="10"/>
<path d="M192.002 269.528C205.716 286.87 208.837 310.165 214.087 331.004C219.714 353.307 226.193 375.563 235.888 396.496C241.232 407.978 247.521 419.035 255.041 429.242C255.561 429.998 254.331 430.706 253.811 429.95C240.617 411.994 231.301 391.629 224.112 370.648C216.83 349.29 212.006 327.271 206.331 305.487C203.115 293.107 199.001 280.727 190.961 270.568C190.441 269.812 191.434 268.819 192.002 269.528Z" fill="#191919"/>
<path d="M387.74 432.974C356.197 444.551 321.817 447.953 288.618 442.803C279.113 441.338 269.702 439.164 260.48 436.329C259.629 436.046 259.96 434.675 260.859 434.959C293.016 444.882 327.539 446.394 360.453 439.401C369.58 437.463 378.613 434.817 387.362 431.604C388.213 431.273 388.591 432.644 387.74 432.974Z" fill="#191919"/>
<path d="M276.701 395.834C268.756 398.433 261.993 403.678 257.454 410.766C256.981 411.522 255.751 410.813 256.224 410.057C260.953 402.686 267.999 397.205 276.323 394.464C277.221 394.18 277.599 395.551 276.701 395.834Z" fill="#191919"/>
<path d="M418.95 457.026C415.167 462.697 411.383 468.414 407.648 474.084C431.86 495.821 434.982 502.011 433.185 503.523C429.591 506.5 403.817 493.269 401.169 491.899C391.569 486.984 384.333 482.212 379.509 478.81C381.212 474.179 383.482 468.981 386.603 463.5C390.717 456.27 395.257 450.175 399.561 445.213C406.04 449.088 412.518 453.057 418.95 457.026Z" fill="#191919"/>
<path d="M277.456 345.652C275.753 349.338 273.956 354.583 273.673 360.915C273.247 370.46 276.368 378.067 278.733 382.462C280.01 384.116 282.279 386.856 285.637 389.833C285.637 389.833 293.251 396.543 305.357 401.693C317.7 406.986 353.594 413.365 402.351 414.593C400.932 420.642 398.379 428.06 393.839 436.046C391.332 440.441 388.589 444.315 385.894 447.67C387.691 450.033 392.798 456.034 402.966 459.814C412.755 463.452 421.74 463.027 425.287 462.744C430.395 458.066 435.644 452.49 440.515 445.827C454.844 426.123 458.202 407.08 458.817 394.842C455.27 392.29 450.068 388.794 443.258 385.061C429.071 377.264 416.066 373.011 405.378 369.845C386.982 364.458 369.389 360.726 328.908 353.874C316.234 351.748 298.689 348.818 277.456 345.652Z" fill="white" stroke="#191919" stroke-width="3.00016" stroke-miterlimit="10"/>
<path opacity="0.19" d="M322.382 353.78C323.753 362.805 327.631 374.524 339.643 381.8C351.324 388.888 361.113 386.006 384.522 391.676C401.358 395.74 423.632 401.127 429.827 413.082C436.306 425.651 424.057 443.37 402.635 457.924C400.838 457.688 398.568 457.215 396.156 456.27C389.961 453.813 386.934 449.797 385.799 448.048C388.542 444.741 391.379 440.913 393.98 436.519C398.899 428.297 401.547 420.642 403.06 414.452C377.996 413.412 356.952 411.239 340.967 409.16C321.72 406.655 308.384 404.151 295.663 396.968C285.022 390.967 280.766 385.061 279.253 382.793C274.665 375.847 274.287 369.515 274.098 365.971C273.625 357.324 276.462 350.283 278.827 345.841C293.345 348.487 307.864 351.134 322.382 353.78Z" fill="#6C6D6D"/>
<path opacity="0.19" d="M278.355 346.833C279.301 355.622 282.658 369.514 296.042 380.477C304.27 387.234 313.114 390.258 347.825 399.614C363.148 403.725 381.686 408.592 402.777 413.885C375.963 413.601 354.162 411.38 338.509 409.254C322.288 407.033 314.343 405.096 306.115 401.552C298.312 398.197 282.564 391.392 276.132 377.075C269.937 363.183 276.179 350.708 278.355 346.833Z" fill="#6C6D6D"/>
<path opacity="0.22" d="M402.636 414.594C402.825 420.831 402.541 427.966 401.359 435.81C400.224 443.559 398.38 450.505 396.393 456.554C394.786 455.609 392.941 454.333 391.144 452.774C388.969 450.883 387.361 449.088 386.179 447.529C388.921 443.937 391.712 439.779 394.313 435.101C398.522 427.541 401.028 420.547 402.636 414.594Z" fill="#6C6D6D"/>
<path d="M404.811 484.149C401.169 491.284 397.575 498.419 393.934 505.602C417.201 532.914 420.228 540.663 418.478 542.553C415.026 546.334 390.245 529.653 387.691 527.952C378.47 521.762 371.471 515.761 366.836 511.508C368.491 505.696 370.667 499.175 373.693 492.229C377.618 483.157 382.017 475.502 386.131 469.217C392.373 474.226 398.616 479.188 404.811 484.149Z" fill="#191919"/>
<path d="M268.802 344.187C267.147 348.865 265.444 355.386 265.16 363.372C264.735 375.374 267.761 384.919 270.031 390.448C271.261 392.527 273.436 395.976 276.652 399.756C276.652 399.756 283.935 408.214 295.568 414.688C307.438 421.303 341.961 429.384 388.779 430.896C387.407 438.503 384.996 447.812 380.597 457.83C378.186 463.358 375.537 468.225 372.936 472.431C374.639 475.407 379.557 482.921 389.346 487.693C398.757 492.277 407.364 491.757 410.816 491.332C415.735 485.472 420.795 478.432 425.429 470.068C439.238 445.308 442.454 421.351 443.021 405.994C439.617 402.828 434.604 398.386 428.078 393.708C414.41 383.927 401.973 378.54 391.664 374.571C374.024 367.814 357.047 363.136 318.126 354.488C306.114 351.795 289.184 348.157 268.802 344.187Z" fill="white" stroke="#191919" stroke-width="3.00016" stroke-miterlimit="10"/>
<path opacity="0.19" d="M311.978 354.394C313.302 365.734 317.038 380.43 328.577 389.597C339.785 398.528 349.243 394.889 371.706 402.024C387.88 407.128 409.302 413.932 415.261 428.958C421.504 444.741 409.728 467.044 389.157 485.283C387.407 485 385.231 484.385 382.914 483.204C376.956 480.133 374.071 475.077 372.983 472.856C375.631 468.698 378.374 463.878 380.881 458.349C385.61 448.001 388.163 438.409 389.582 430.612C365.464 429.289 345.271 426.596 329.854 423.997C311.316 420.878 298.547 417.712 286.299 408.687C276.084 401.126 271.97 393.708 270.551 390.873C266.153 382.131 265.775 374.193 265.585 369.751C265.16 358.883 267.855 350.047 270.125 344.471C284.076 347.731 298.027 351.039 311.978 354.394Z" fill="#6C6D6D"/>
<path opacity="0.19" d="M269.7 345.652C270.598 356.662 273.814 374.145 286.677 387.943C294.622 396.448 303.087 400.229 336.427 411.995C351.182 417.192 368.964 423.288 389.251 429.951C363.478 429.572 342.481 426.832 327.442 424.138C311.836 421.351 304.175 418.941 296.325 414.499C288.805 410.246 273.72 401.741 267.477 383.69C261.566 366.207 267.572 350.566 269.7 345.652Z" fill="#6C6D6D"/>
<path opacity="0.22" d="M389.109 430.849C389.298 438.693 389.014 447.671 387.879 457.499C386.745 467.28 385.042 475.975 383.103 483.535C381.542 482.307 379.793 480.747 378.043 478.763C375.962 476.4 374.402 474.132 373.267 472.195C375.915 467.658 378.61 462.461 381.07 456.554C385.137 447.104 387.596 438.267 389.109 430.849Z" fill="#6C6D6D"/>
<path d="M407.507 270.757C408.405 270.332 410.202 269.529 410.155 268.631C410.061 267.166 405.19 266.174 401.548 266.221C399.089 266.221 394.549 266.741 389.253 270.426C394.218 271.986 401.548 273.403 407.507 270.757Z" fill="white" stroke="#191919" stroke-width="3.00016" stroke-miterlimit="10"/>
<path d="M293.772 209.47C302.758 208.289 310.844 221.756 311.601 222.985C314.344 227.663 314.675 230.781 316.566 239.334C321.154 260.172 323.613 270.757 330.423 277.136C336.571 282.854 343.759 284.224 345.65 284.507C353.737 285.783 361.067 282.759 375.349 276.663C387.408 271.513 388.874 269.623 395.448 268.867C398.805 268.489 408.595 267.402 415.074 273.687C419.235 277.703 421.079 284.129 419.566 285.452C417.627 287.154 409.682 281.152 409.588 281.294C409.54 281.389 411.952 282.523 413.939 284.98C414.932 286.161 416.634 288.713 416.019 289.374C414.932 290.697 408.264 282.665 400.934 284.082C395.921 285.027 394.975 289.563 389.158 290.414C385.753 290.934 382.774 289.894 380.882 288.996C377.572 292.588 372.181 297.691 364.378 301.849C359.743 304.306 343.38 312.764 323.376 307.85C302.143 302.652 291.455 286.067 288.097 280.869C286.206 277.892 272.302 255.683 279.017 230.781C280.2 226.765 284.503 210.699 293.772 209.47Z" fill="white" stroke="#191919" stroke-width="3.00016" stroke-miterlimit="10"/>
<path opacity="0.25" d="M294.717 209.612C297.791 211.219 291.832 222.37 292.589 238.342C293.298 253.699 299.872 265.039 302.804 270.237C306.776 277.183 312.026 286.256 322.477 292.162C336.522 300.101 353.925 298.919 366.316 293.533C370.004 291.926 373.74 286.728 381.874 283.562C385.421 282.192 388.211 281.625 391.475 280.964C399.467 279.404 406.56 277.987 413.134 281.294C416.255 282.901 418.856 285.358 418.667 285.689C418.478 286.02 414.836 284.177 411.62 282.428C415.498 287.579 416.113 289.044 415.829 289.327C415.498 289.611 414.316 288.524 411.289 286.823C408.026 285.027 405.662 283.751 402.777 283.988C401.311 284.129 400.176 284.602 399.514 284.885C396.913 286.02 396.298 287.343 393.697 288.666C392.089 289.469 390.765 289.8 390.056 289.941C388.542 290.272 385.421 290.698 381.307 289.233C377.713 293.013 361.208 309.74 337.043 309.41C324.605 309.221 315.478 304.59 311.884 302.747C292.163 292.493 284.313 274.301 282.327 269.292C276.179 253.793 274.004 230.829 285.259 216.417C287.955 212.92 292.589 208.525 294.717 209.612Z" fill="#6C6D6D"/>
<path d="M418.714 285.452C416.87 282.712 414.458 280.538 411.574 278.979C410.959 278.648 411.526 277.75 412.094 278.081C415.12 279.735 417.674 282.05 419.613 284.933C420.039 285.5 419.093 286.019 418.714 285.452Z" fill="#191919"/>
<path d="M418.147 279.357C416.303 276.475 413.323 274.963 410.344 273.498C409.729 273.214 410.25 272.269 410.864 272.6C414.033 274.112 417.154 275.766 419.093 278.837C419.424 279.404 418.525 279.924 418.147 279.357Z" fill="#191919"/>
<path opacity="0.29" d="M281.147 226.623C281.856 231.396 283.133 238.295 285.403 246.422C289.848 262.488 293.868 276.947 304.367 288.429C317.372 302.605 335.011 306.48 345.131 307.661C337.612 309.41 331.701 309.079 327.965 308.559C299.59 304.59 284.268 274.112 280.106 260.787C279.397 258.424 277.884 253.557 277.695 246.894C277.364 238.011 279.539 230.876 281.147 226.623Z" fill="#6C6D6D"/>
<path opacity="0.26" d="M399.988 283.515C397.292 284.838 393.603 286.303 389.063 287.154C385.469 287.815 382.253 287.957 379.7 287.862C386.179 291.312 389.536 290.887 391.428 289.752C392.61 289.044 393.934 287.626 397.576 285.122C398.569 284.413 399.42 283.846 399.988 283.515Z" fill="#6C6D6D"/>
<path d="M495.609 361.198C495.609 383.879 495.609 406.608 495.609 429.289C495.609 432.03 491.353 432.03 491.353 429.289C491.353 406.608 491.353 383.879 491.353 361.198C491.353 358.505 495.609 358.458 495.609 361.198Z" fill="#161616"/>
<path d="M418.241 360.3C418.241 363.939 418.241 367.577 418.241 371.216C418.241 373.956 413.985 373.956 413.985 371.216C413.985 367.577 413.985 363.939 413.985 360.3C413.985 357.56 418.241 357.56 418.241 360.3Z" fill="#161616"/>
<path d="M554.344 358.41C531.408 336.816 508.472 315.174 485.489 293.58C448.365 294.241 411.289 294.903 374.166 295.564C380.219 316.544 386.272 337.477 392.326 358.457C446.332 358.41 500.338 358.41 554.344 358.41Z" fill="white" stroke="#191919" stroke-width="3.00016" stroke-miterlimit="10"/>
<path d="M552.973 360.867C511.499 360.867 470.072 360.867 428.597 360.867C416.964 360.867 405.378 360.867 393.744 360.867C391.001 360.867 391.001 356.615 393.744 356.615C435.218 356.615 476.645 356.615 518.119 356.615C529.753 356.615 541.339 356.615 552.973 356.615C555.716 356.615 555.716 360.867 552.973 360.867Z" fill="#161616"/>
<path d="M540.821 360.159C540.821 407.175 540.821 454.191 540.821 501.16C540.821 514.344 540.821 527.48 540.821 540.663C540.821 543.404 536.565 543.404 536.565 540.663C536.565 493.647 536.565 446.631 536.565 399.662C536.565 386.478 536.565 373.342 536.565 360.159C536.565 357.418 540.821 357.418 540.821 360.159Z" fill="#161616"/>
<path d="M411.102 360.159C411.102 407.175 411.102 454.191 411.102 501.16C411.102 514.344 411.102 527.48 411.102 540.663C411.102 543.404 406.846 543.404 406.846 540.663C406.846 493.647 406.846 446.631 406.846 399.662C406.846 386.478 406.846 373.342 406.846 360.159C406.846 357.418 411.102 357.418 411.102 360.159Z" fill="#161616"/>
<path d="M538.692 447.906C505.304 447.906 471.917 447.906 438.529 447.906C429.071 447.906 419.613 447.906 410.155 447.906C407.412 447.906 407.412 443.654 410.155 443.654C443.542 443.654 476.93 443.654 510.317 443.654C519.775 443.654 529.233 443.654 538.692 443.654C541.434 443.654 541.434 447.906 538.692 447.906Z" fill="#161616"/>
<path d="M374.734 295.564C380.125 316.592 386.32 337.43 393.414 357.938C394.029 359.686 391.286 360.395 390.671 358.694C383.577 338.139 377.382 317.348 371.991 296.32C371.565 294.572 374.261 293.816 374.734 295.564Z" fill="#161616"/>
<path d="M601.163 545.294C576.052 545.294 550.987 545.294 525.876 545.294C523.133 545.294 523.133 541.041 525.876 541.041C550.987 541.041 576.052 541.041 601.163 541.041C603.906 541.041 603.906 545.294 601.163 545.294Z" fill="#161616"/>
<path d="M515.331 544.349C509.561 544.349 503.744 544.349 497.975 544.349C495.232 544.349 495.232 540.096 497.975 540.096C503.744 540.096 509.561 540.096 515.331 540.096C518.074 540.096 518.074 544.349 515.331 544.349Z" fill="#161616"/>
<path d="M440.042 544.963C417.437 544.963 394.832 544.963 372.18 544.963C369.437 544.963 369.437 540.711 372.18 540.711C394.785 540.711 417.39 540.711 440.042 540.711C442.785 540.711 442.785 544.963 440.042 544.963Z" fill="#161616"/>
<path d="M356.716 543.451C352.697 543.451 348.677 543.451 344.61 543.451C341.867 543.451 341.867 539.198 344.61 539.198C348.63 539.198 352.649 539.198 356.716 539.198C359.459 539.198 359.459 543.451 356.716 543.451Z" fill="#161616"/>
<path d="M623.957 530.315C614.168 530.315 604.379 530.315 594.637 530.315C591.894 530.315 591.894 526.062 594.637 526.062C604.426 526.062 614.215 526.062 623.957 526.062C626.7 526.062 626.7 530.315 623.957 530.315Z" fill="#161616"/>
<path d="M417.107 349.48C446.286 348.724 475.512 348.015 504.69 347.259C487.382 330.72 470.12 314.135 452.812 297.596C432.855 298.636 412.851 299.676 392.894 300.715C400.981 317.017 409.021 333.225 417.107 349.48Z" fill="white" stroke="#191919" stroke-width="3.00016" stroke-miterlimit="10"/>
<path d="M453.804 297.266C470.781 313.662 487.759 330.106 504.736 346.503C505.493 320.23 506.297 293.911 507.054 267.638C489.84 256.77 472.626 245.902 455.412 235.034C454.939 255.778 454.372 276.522 453.804 297.266Z" fill="white" stroke="#191919" stroke-width="3.00016" stroke-miterlimit="10"/>
<path d="M505.493 270.143C504.121 293.533 503.223 316.97 502.75 340.407C502.75 340.88 502.04 340.88 502.04 340.407C502.513 316.97 503.412 293.533 504.783 270.143C504.83 269.717 505.54 269.717 505.493 270.143Z" fill="#191919"/>
<path d="M505.115 270.237C489.272 259.936 473.43 249.635 457.587 239.334C457.209 239.098 457.54 238.484 457.966 238.72C473.808 249.021 489.651 259.322 505.493 269.623C505.871 269.906 505.54 270.521 505.115 270.237Z" fill="#191919"/>
<path d="M457.777 239.287C457.824 258.141 457.256 277.042 456.027 295.848C455.98 296.321 455.27 296.321 455.317 295.848C456.5 276.994 457.114 258.141 457.067 239.287C457.067 238.862 457.777 238.862 457.777 239.287Z" fill="#191919"/>
<path d="M502.277 341.4C486.766 326.421 471.207 311.442 455.695 296.51C455.364 296.179 455.885 295.707 456.216 295.99C471.727 310.969 487.286 325.948 502.797 340.88C503.081 341.211 502.608 341.73 502.277 341.4Z" fill="#191919"/>
<path d="M430.442 333.367C427.557 328.783 424.672 324.152 421.882 319.474C421.646 319.096 422.26 318.718 422.497 319.096C425.287 323.774 428.172 328.405 431.056 332.989C431.34 333.367 430.725 333.745 430.442 333.367Z" fill="#191919"/>
<path d="M422.072 319.332C418.336 319.474 414.6 319.474 410.864 319.285C410.391 319.285 410.391 318.576 410.864 318.576C414.6 318.718 418.336 318.718 422.072 318.624C422.545 318.624 422.545 319.332 422.072 319.332Z" fill="#191919"/>
<path d="M411.337 319.096C413.465 323.727 415.64 328.358 417.815 332.989C418.005 333.414 417.39 333.745 417.201 333.367C415.025 328.736 412.85 324.105 410.722 319.474C410.533 319.002 411.147 318.671 411.337 319.096Z" fill="#191919"/>
<path d="M430.679 333.745C426.518 334.359 422.12 334.075 417.911 333.886C417.438 333.886 417.438 333.178 417.911 333.178C422.025 333.367 426.376 333.65 430.49 333.083C430.963 332.989 431.152 333.697 430.679 333.745Z" fill="#191919"/>
<path d="M415.167 319.144C417.059 323.869 419.234 328.452 421.693 332.894C421.93 333.272 421.315 333.65 421.078 333.272C418.619 328.736 416.397 324.105 414.458 319.333C414.316 318.907 414.978 318.718 415.167 319.144Z" fill="#191919"/>
<path d="M483.693 340.549C473.289 327.696 462.507 315.127 451.393 302.841C451.11 302.511 451.583 301.991 451.914 302.322C463.027 314.56 473.809 327.129 484.213 340.029C484.497 340.407 483.977 340.88 483.693 340.549Z" fill="#191919"/>
<path d="M471.112 341.352C461.796 328.358 451.959 315.789 441.65 303.597C441.366 303.267 441.839 302.747 442.17 303.078C452.527 315.316 462.363 327.932 471.727 340.974C472.01 341.352 471.396 341.73 471.112 341.352Z" fill="#191919"/>
<path d="M457.588 343.29C449.501 329.775 440.657 316.734 431.105 304.212C430.821 303.834 431.436 303.503 431.719 303.834C441.272 316.356 450.116 329.397 458.202 342.912C458.439 343.29 457.824 343.668 457.588 343.29Z" fill="#191919"/>
<path d="M446.237 344.471C438.292 329.681 428.881 315.741 418.099 302.889C417.815 302.558 418.288 302.038 418.619 302.369C429.449 315.269 438.907 329.255 446.899 344.093C447.088 344.518 446.474 344.896 446.237 344.471Z" fill="#191919"/>
<path d="M477.638 332.894C465.532 331.618 453.425 333.13 441.366 334.737C440.893 334.784 440.941 334.075 441.366 334.028C453.378 332.422 465.485 330.862 477.638 332.185C478.064 332.233 478.064 332.941 477.638 332.894Z" fill="#191919"/>
<path d="M471.538 325.995C460.093 325.57 448.649 326.42 437.393 328.594C436.968 328.689 436.779 327.98 437.204 327.932C448.507 325.759 460.046 324.908 471.538 325.334C471.963 325.286 471.963 325.995 471.538 325.995Z" fill="#191919"/>
<path d="M466.053 319.333C455.034 318.624 444.015 319.616 433.28 322.262C432.855 322.357 432.666 321.695 433.091 321.601C443.874 318.907 454.94 317.915 466.053 318.624C466.526 318.671 466.526 319.38 466.053 319.333Z" fill="#191919"/>
<path d="M460.377 312.67C449.784 312.717 439.286 313.804 428.929 315.93C428.503 316.025 428.314 315.316 428.74 315.269C439.144 313.142 449.737 312.055 460.377 312.008C460.803 311.961 460.803 312.67 460.377 312.67Z" fill="#191919"/>
<path d="M454.75 306.48C444.677 306.669 434.652 307.85 424.862 310.071C424.437 310.166 424.248 309.504 424.673 309.41C434.557 307.189 444.63 305.96 454.75 305.819C455.223 305.771 455.223 306.48 454.75 306.48Z" fill="#191919"/>
<path d="M422.308 313.662C426.943 320.466 431.53 327.271 436.164 334.075C436.401 334.453 435.786 334.831 435.55 334.453C430.915 327.649 426.328 320.844 421.693 314.04C421.41 313.615 422.025 313.284 422.308 313.662Z" fill="#191919"/>
<path d="M500.622 303.361C494.711 300.857 488.327 302.275 482.084 302.18C476.835 302.133 471.822 300.668 467.33 298.022C466.951 297.786 467.282 297.171 467.708 297.408C473.241 300.668 479.105 301.708 485.442 301.424C490.739 301.188 495.988 300.668 501.001 302.794C501.379 302.936 501.048 303.55 500.622 303.361Z" fill="#191919"/>
<path d="M484.686 300.432C474.565 294.714 469.883 282.665 459.338 277.609C458.912 277.42 459.29 276.805 459.716 276.994C470.309 282.098 474.944 294.1 485.064 299.817C485.442 300.054 485.111 300.668 484.686 300.432Z" fill="#191919"/>
<path d="M471.821 266.74C473.571 265.37 473.287 263.149 472.294 261.401C471.821 260.55 471.112 259.652 470.308 259.133C468.842 258.188 467.47 258.944 466.335 259.936C466.004 260.219 465.484 259.747 465.815 259.416C468.18 257.432 470.402 257.621 472.341 260.172C473.902 262.251 474.706 265.37 472.341 267.26C471.963 267.544 471.443 267.024 471.821 266.74Z" fill="#191919"/>
<path d="M326.165 232.199C339.123 246.563 342.622 262.346 344.514 271.276C347.966 287.815 344.325 294.43 344.088 325.853C343.994 339.226 344.561 350.046 344.987 356.851C342.055 359.119 323.895 372.633 299.635 368.191C281.664 364.931 270.835 353.685 267.43 349.857C266.626 345.368 265.491 338.753 264.167 330.72C257.168 287.39 253.715 265.417 258.066 249.682C260.667 240.137 267.099 225.016 285.353 209.376C293.014 210.982 311.41 215.897 326.165 232.199Z" fill="#605DEC"/>
<path opacity="0.19" d="M312.971 223.504C308.478 236.924 306.066 248.406 304.648 256.817C300.912 279.073 295.284 312.433 311.127 344.754C316.187 355.055 322.098 362.616 326.26 367.294C320.774 368.569 309.897 370.318 296.939 366.963C281.522 362.994 271.875 354.063 267.903 349.999C264.829 332.421 262.37 317.348 260.478 305.582C257.215 284.885 256.458 278.601 256.789 269.764C257.168 258.424 257.688 246.516 264.498 233.663C271.024 221.378 280.198 214.006 285.826 210.226C290.413 211.029 296.892 212.731 303.749 216.7C307.532 218.968 310.606 221.378 312.971 223.504Z" fill="#605DEC"/>
<path opacity="0.18" d="M259.249 246.044C260.1 246.091 258.303 259.18 261.093 277.23C266.248 310.638 282.799 333.791 289.184 342.013C294.528 348.865 302.898 358.316 315.147 367.624C310.749 368.286 304.884 368.569 298.169 367.293C282.232 364.317 272.112 354.535 268.234 350.33C267.241 344.565 265.633 335.54 263.599 324.388C258.823 298.305 257.877 295.186 257.12 287.059C255.04 264.897 258.255 246.044 259.249 246.044Z" fill="#605DEC"/>
<path d="M409.492 281.152C410.391 280.538 412.188 279.404 411.999 278.459C411.62 276.947 406.182 276.711 402.257 277.372C399.608 277.797 394.785 279.168 389.725 283.94C395.399 284.744 403.581 284.98 409.492 281.152Z" fill="white" stroke="#191919" stroke-width="3.00016" stroke-miterlimit="10"/>
<path d="M275.991 235.884C285.496 233.097 296.61 245.902 297.603 247.131C301.386 251.62 302.285 254.833 305.831 263.527C314.438 284.791 318.931 295.517 327.443 301.093C335.057 306.102 343.049 306.291 345.177 306.291C354.115 306.243 361.493 301.802 375.869 292.918C387.976 285.405 389.205 283.137 396.204 281.247C399.751 280.302 410.155 277.467 418.242 282.995C423.397 286.492 426.565 293.013 425.146 294.667C423.349 296.793 413.702 291.784 413.655 291.973C413.607 292.068 416.445 292.871 418.998 295.139C420.275 296.226 422.545 298.589 422.025 299.439C421.079 301.046 412.472 293.674 404.811 296.415C399.609 298.258 399.325 303.219 393.225 305.157C389.631 306.291 386.226 305.676 384.051 305.062C381.118 309.457 376.153 315.741 368.492 321.459C363.905 324.861 347.731 336.58 325.268 334.831C301.433 332.988 286.962 317.253 282.47 312.386C279.869 309.598 261 288.476 263.884 260.976C264.31 256.487 266.154 238.814 275.991 235.884Z" fill="white" stroke="#191919" stroke-width="3.00016" stroke-miterlimit="10"/>
<path opacity="0.25" d="M277.03 235.884C280.624 237.066 276.132 249.871 279.773 266.646C283.225 282.759 292.305 293.627 296.42 298.589C301.953 305.251 309.188 313.946 321.531 318.387C338.083 324.341 356.668 320.136 369.106 312.339C372.795 309.976 375.916 303.881 384.192 299.108C387.786 297.029 390.671 295.99 394.123 294.714C402.446 291.69 409.918 288.949 417.532 291.359C421.173 292.493 424.436 294.667 424.247 295.045C424.058 295.47 419.849 294.1 416.066 292.824C421.126 297.596 422.072 299.061 421.835 299.439C421.552 299.817 420.038 298.825 416.491 297.596C412.614 296.226 409.918 295.328 406.797 296.084C405.236 296.462 404.101 297.171 403.392 297.596C400.791 299.203 400.365 300.762 397.811 302.605C396.251 303.739 394.832 304.306 394.075 304.59C392.515 305.204 389.205 306.196 384.523 305.346C381.307 309.976 366.41 330.484 340.258 334.264C326.78 336.202 316.14 332.894 311.931 331.524C288.853 324.058 277.172 306.196 274.146 301.235C264.782 285.925 258.398 262.015 268.045 244.815C270.315 240.515 274.571 235.081 277.03 235.884Z" fill="#6C6D6D"/>
<path d="M424.294 294.808C421.788 292.21 418.856 290.32 415.451 289.185C414.789 288.949 415.073 287.957 415.735 288.146C419.282 289.374 422.45 291.359 425.051 294.052C425.524 294.572 424.767 295.328 424.294 294.808Z" fill="#191919"/>
<path d="M422.593 288.476C420.087 285.688 416.587 284.602 413.088 283.609C412.426 283.42 412.709 282.381 413.371 282.57C417.013 283.657 420.701 284.838 423.302 287.72C423.823 288.24 423.066 288.949 422.593 288.476Z" fill="#191919"/>
<path opacity="0.29" d="M265.35 256.203C266.958 261.117 269.559 268.205 273.389 276.427C281.003 292.635 287.86 307.236 301.244 317.584C317.748 330.342 337.516 331.429 348.629 330.909C340.826 334.075 334.347 334.737 330.233 334.831C298.926 335.493 276.983 305.865 270.173 292.54C268.991 290.178 266.532 285.263 265.113 278.27C263.269 268.867 264.357 260.976 265.35 256.203Z" fill="#6C6D6D"/>
<path opacity="0.26" d="M403.676 295.942C401.027 297.785 397.291 299.959 392.515 301.66C388.732 302.983 385.279 303.644 382.537 303.975C390.15 306.479 393.697 305.487 395.542 303.975C396.677 303.03 397.859 301.282 401.406 298.021C402.304 297.124 403.108 296.415 403.676 295.942Z" fill="#6C6D6D"/>
<path d="M349.292 140.576C349.812 143.6 350.332 146.624 350.758 149.79C352.602 162.643 353.359 174.787 353.406 186.08C350.805 185.797 348.252 185.513 345.651 185.277C345.934 187.781 346.738 196.948 340.874 206.021C335.341 214.574 327.396 217.692 324.937 218.543C325.221 223.173 325.457 227.757 325.741 232.388C320.634 227.851 313.682 222.512 304.838 217.739C298.076 214.101 291.692 211.597 286.253 209.896C292.354 202.335 294.671 195.2 295.664 191.089C297.367 184.001 297.035 177.906 296.704 172.519C296.373 166.99 295.569 162.407 294.86 159.194C292.637 149.082 298.454 133.063 310.04 127.298C321.485 121.581 338.557 126.4 349.292 140.576Z" fill="white" stroke="#161616" stroke-width="3.00016" stroke-miterlimit="10"/>
<path d="M346.736 185.607C345.412 185.418 344.041 185.277 342.717 185.135C342.244 185.088 342.244 184.379 342.717 184.426C344.136 184.568 345.507 184.757 346.926 184.946C347.351 184.946 347.162 185.655 346.736 185.607Z" fill="#161616"/>
<path d="M304.081 147.9C309.804 149.365 310.844 154.326 318.08 164.675C325.41 175.165 330.044 181.733 338.32 185.56C343.664 188.017 346.312 187.356 348.677 190.522C352.744 196.003 350.001 205.028 347.589 209.659C344.799 214.999 340.543 218.212 337.043 220.858C333.686 223.362 330.612 225.016 328.436 226.008C330.754 222.464 330.895 221.378 330.612 221.047C329.855 220.291 326.639 224.355 322.856 223.835C321.768 223.693 319.829 223.079 315.526 216.322C312.594 211.738 310.608 208.572 309.283 204.036C306.399 194.302 310.466 191.656 309.283 178.85C309.094 176.913 307.77 161.745 302.379 160.753C300.44 160.375 298.454 161.981 297.508 163.21C295.522 165.809 295.758 169.967 298.217 173.558C297.413 172.991 289.705 167.793 289.8 159.335C289.8 158.012 289.847 153.145 293.536 149.979C297.744 146.388 303.609 147.805 304.081 147.9Z" fill="#161616" stroke="#161616" stroke-width="3.00016" stroke-miterlimit="10"/>
<path d="M342.198 169.4C341.101 169.4 340.211 167.813 340.211 165.856C340.211 163.899 341.101 162.312 342.198 162.312C343.295 162.312 344.184 163.899 344.184 165.856C344.184 167.813 343.295 169.4 342.198 169.4Z" fill="#161616"/>
<path d="M357.332 171.054C356.235 171.054 355.345 169.467 355.345 167.51C355.345 165.553 356.235 163.966 357.332 163.966C358.429 163.966 359.318 165.553 359.318 167.51C359.318 169.467 358.429 171.054 357.332 171.054Z" fill="#161616"/>
<path d="M360.31 161.698C359.033 160.233 357.047 160.091 355.628 161.509C354.966 162.171 353.973 161.131 354.635 160.517C356.574 158.627 359.554 158.674 361.351 160.706C361.871 161.414 360.878 162.407 360.31 161.698Z" fill="#161616"/>
<path d="M344.799 159.241C343.143 157.87 340.968 158.059 339.549 159.619C338.934 160.28 337.941 159.288 338.556 158.627C340.542 156.5 343.616 156.406 345.839 158.248C346.501 158.816 345.508 159.808 344.799 159.241Z" fill="#161616"/>
<path d="M350.9 146.199C350.379 142.797 349.055 137.221 345.414 131.456C344.137 129.424 341.394 125.124 337.043 122.195C328.72 116.666 315.904 117.091 306.588 123.896C297.461 130.558 292.921 142.466 294.907 154.279C313.587 151.633 332.22 148.94 350.9 146.199Z" fill="#87BFC1"/>
<path d="M381.449 146.624C352.744 150.31 323.991 153.996 295.285 157.634C292.59 157.965 292.59 153.712 295.285 153.382C323.991 149.696 352.744 146.01 381.449 142.372C384.145 141.994 384.145 146.246 381.449 146.624Z" fill="#161616"/>
<path d="M326.591 118.745C319.214 120.352 313.634 126.305 312.688 133.441C311.836 139.678 314.579 146.01 319.781 149.884C311.6 150.971 303.371 152.105 295.19 153.192C294.764 151.019 294.386 147.711 294.906 143.836C296.136 134.764 301.385 128.952 303.088 127.203C304.932 125.313 311.458 118.981 321.153 118.414C323.375 118.32 325.267 118.509 326.591 118.745Z" fill="#447C7E"/>
</g>
<defs>
<clipPath id="clip0">
<rect width="756.766" height="629" fill="white"/>
</clipPath>
</defs>
</svg>
