<svg width="152" height="112" viewBox="0 0 152 112" fill="none" xmlns="http://www.w3.org/2000/svg">
<path fill-rule="evenodd" clip-rule="evenodd" d="M38.0214 5.3049C39.5443 6.8282 40.3997 8.89397 40.3997 11.0479C40.3997 13.2019 39.5443 15.2676 38.0214 16.7909C32.7407 22.0711 28.5518 28.3397 25.6939 35.2389C22.836 42.138 21.365 49.5325 21.365 57.0002C21.365 64.4678 22.836 71.8623 25.6939 78.7615C28.5518 85.6606 32.7407 91.9292 38.0214 97.2094C38.7972 97.9587 39.4161 98.8551 39.8418 99.8461C40.2675 100.837 40.4916 101.903 40.501 102.982C40.5104 104.06 40.3048 105.13 39.8964 106.128C39.488 107.126 38.8848 108.033 38.1221 108.796C37.3594 109.559 36.4524 110.162 35.4541 110.57C34.4558 110.979 33.3862 111.184 32.3076 111.175C31.229 111.166 30.1631 110.942 29.1721 110.516C28.181 110.09 27.2847 109.471 26.5354 108.695C19.7466 101.907 14.3615 93.8474 10.6874 84.9775C7.01333 76.1076 5.12231 66.6009 5.12231 57.0002C5.12231 47.3995 7.01333 37.8927 10.6874 29.0229C14.3615 20.153 19.7466 12.0936 26.5354 5.3049C28.0587 3.78206 30.1244 2.92657 32.2784 2.92657C34.4323 2.92657 36.4981 3.78206 38.0214 5.3049V5.3049ZM118.44 5.3049C119.963 3.78206 122.029 2.92657 124.183 2.92657C126.337 2.92657 128.403 3.78206 129.926 5.3049C136.715 12.0936 142.1 20.153 145.774 29.0229C149.448 37.8927 151.339 47.3995 151.339 57.0002C151.339 66.6009 149.448 76.1076 145.774 84.9775C142.1 93.8474 136.715 101.907 129.926 108.695C129.177 109.471 128.28 110.09 127.289 110.516C126.298 110.942 125.232 111.166 124.154 111.175C123.075 111.184 122.005 110.979 121.007 110.57C120.009 110.162 119.102 109.559 118.339 108.796C117.576 108.033 116.973 107.126 116.565 106.128C116.156 105.13 115.951 104.06 115.96 102.982C115.97 101.903 116.194 100.837 116.619 99.8461C117.045 98.8551 117.664 97.9587 118.44 97.2094C123.721 91.9292 127.909 85.6606 130.767 78.7615C133.625 71.8623 135.096 64.4678 135.096 57.0002C135.096 49.5325 133.625 42.138 130.767 35.2389C127.909 28.3397 123.721 22.0711 118.44 16.7909C116.917 15.2676 116.062 13.2019 116.062 11.0479C116.062 8.89397 116.917 6.8282 118.44 5.3049V5.3049ZM61.0016 28.277C62.5244 29.8003 63.3799 31.866 63.3799 34.02C63.3799 36.1739 62.5244 38.2397 61.0016 39.763C58.7383 42.0259 56.9429 44.7126 55.7179 47.6695C54.493 50.6263 53.8625 53.7955 53.8625 56.9961C53.8625 60.1967 54.493 63.3659 55.7179 66.3228C56.9429 69.2796 58.7383 71.9663 61.0016 74.2292C61.7558 74.9839 62.3539 75.8798 62.7619 76.8657C63.1698 77.8516 63.3796 78.9081 63.3792 79.9751C63.3789 81.0421 63.1683 82.0985 62.7597 83.0841C62.351 84.0697 61.7522 84.9651 60.9975 85.7193C60.2428 86.4735 59.3469 87.0716 58.3611 87.4796C57.3752 87.8876 56.3186 88.0973 55.2516 88.097C54.1847 88.0966 53.1283 87.8861 52.1427 87.4774C51.1571 87.0687 50.2616 86.47 49.5074 85.7152C41.8932 78.0987 37.6158 67.7699 37.6158 57.0002C37.6158 46.2304 41.8932 35.9016 49.5074 28.2851C50.2619 27.5298 51.1577 26.9307 52.1439 26.5219C53.13 26.1131 54.187 25.9027 55.2545 25.9027C56.322 25.9027 57.379 26.1131 58.3652 26.5219C59.3513 26.9307 60.2472 27.5298 61.0016 28.2851V28.277ZM95.4597 28.277C96.2141 27.5217 97.11 26.9226 98.0961 26.5138C99.0822 26.105 100.139 25.8946 101.207 25.8946C102.274 25.8946 103.331 26.105 104.317 26.5138C105.304 26.9226 106.199 27.5217 106.954 28.277C110.726 32.0486 113.719 36.5265 115.761 41.4549C117.803 46.3832 118.854 51.6656 118.854 57.0002C118.854 62.3348 117.803 67.6171 115.761 72.5455C113.719 77.4739 110.726 81.9517 106.954 85.7234C105.43 87.2476 103.362 88.1039 101.207 88.1039C99.0512 88.1039 96.9839 87.2476 95.4597 85.7234C93.9355 84.1992 93.0792 82.1319 93.0792 79.9763C93.0792 77.8207 93.9355 75.7534 95.4597 74.2292C100.028 69.6593 102.595 63.462 102.595 57.0002C102.595 50.5383 100.028 44.341 95.4597 39.7711C94.7044 39.0167 94.1053 38.1208 93.6965 37.1347C93.2877 36.1486 93.0773 35.0915 93.0773 34.024C93.0773 32.9565 93.2877 31.8995 93.6965 30.9134C94.1053 29.9273 94.7044 29.0314 95.4597 28.277V28.277ZM78.2306 48.8771C80.385 48.8771 82.4511 49.7329 83.9745 51.2563C85.4979 52.7797 86.3537 54.8458 86.3537 57.0002V57.0814C86.3537 59.2358 85.4979 61.3019 83.9745 62.8253C82.4511 64.3487 80.385 65.2045 78.2306 65.2045C76.0763 65.2045 74.0101 64.3487 72.4868 62.8253C70.9634 61.3019 70.1076 59.2358 70.1076 57.0814V57.0002C70.1076 54.8458 70.9634 52.7797 72.4868 51.2563C74.0101 49.7329 76.0763 48.8771 78.2306 48.8771V48.8771Z" fill="#605DEC"/>
<path fill-rule="evenodd" clip-rule="evenodd" d="M32.8991 2.37833C34.4219 3.90163 35.2774 5.96739 35.2774 8.12134C35.2774 10.2753 34.4219 12.3411 32.8991 13.8644C27.6184 19.1445 23.4295 25.4131 20.5716 32.3123C17.7136 39.2114 16.2427 46.6059 16.2427 54.0736C16.2427 61.5412 17.7136 68.9358 20.5716 75.8349C23.4295 82.734 27.6184 89.0027 32.8991 94.2828C33.6749 95.0322 34.2938 95.9285 34.7195 96.9195C35.1452 97.9106 35.3693 98.9765 35.3787 100.055C35.388 101.134 35.1825 102.203 34.7741 103.202C34.3656 104.2 33.7625 105.107 32.9998 105.87C32.2371 106.632 31.3301 107.235 30.3318 107.644C29.3335 108.052 28.2639 108.258 27.1853 108.248C26.1067 108.239 25.0408 108.015 24.0498 107.589C23.0587 107.164 22.1624 106.545 21.4131 105.769C14.6243 98.9802 9.23914 90.9208 5.56508 82.0509C1.89102 73.181 0 63.6743 0 54.0736C0 44.4729 1.89102 34.9662 5.56508 26.0963C9.23914 17.2264 14.6243 9.16702 21.4131 2.37833C22.9364 0.855484 25.0021 0 27.1561 0C29.31 0 31.3758 0.855484 32.8991 2.37833V2.37833ZM113.318 2.37833C114.841 0.855484 116.907 0 119.061 0C121.215 0 123.28 0.855484 124.804 2.37833C131.592 9.16702 136.978 17.2264 140.652 26.0963C144.326 34.9662 146.217 44.4729 146.217 54.0736C146.217 63.6743 144.326 73.181 140.652 82.0509C136.978 90.9208 131.592 98.9802 124.804 105.769C124.054 106.545 123.158 107.164 122.167 107.589C121.176 108.015 120.11 108.239 119.031 108.248C117.953 108.258 116.883 108.052 115.885 107.644C114.887 107.235 113.98 106.632 113.217 105.87C112.454 105.107 111.851 104.2 111.443 103.202C111.034 102.203 110.829 101.134 110.838 100.055C110.847 98.9765 111.071 97.9106 111.497 96.9195C111.923 95.9285 112.542 95.0322 113.318 94.2828C118.598 89.0027 122.787 82.734 125.645 75.8349C128.503 68.9358 129.974 61.5412 129.974 54.0736C129.974 46.6059 128.503 39.2114 125.645 32.3123C122.787 25.4131 118.598 19.1445 113.318 13.8644C111.795 12.3411 110.939 10.2753 110.939 8.12134C110.939 5.96739 111.795 3.90163 113.318 2.37833V2.37833ZM55.8793 25.3504C57.4021 26.8737 58.2576 28.9395 58.2576 31.0934C58.2576 33.2474 57.4021 35.3131 55.8793 36.8364C53.6159 39.0994 51.8206 41.786 50.5956 44.7429C49.3707 47.6998 48.7402 50.869 48.7402 54.0695C48.7402 57.2701 49.3707 60.4393 50.5956 63.3962C51.8206 66.3531 53.6159 69.0397 55.8793 71.3026C56.6335 72.0574 57.2316 72.9532 57.6396 73.9391C58.0475 74.925 58.2573 75.9816 58.2569 77.0485C58.2565 78.1155 58.046 79.1719 57.6374 80.1575C57.2287 81.1431 56.6299 82.0385 55.8752 82.7927C55.1205 83.5469 54.2246 84.1451 53.2387 84.553C52.2529 84.961 51.1963 85.1708 50.1293 85.1704C49.0624 85.17 48.0059 84.9595 47.0203 84.5508C46.0348 84.1422 45.1393 83.5434 44.3851 82.7887C36.7709 75.1722 32.4935 64.8433 32.4935 54.0736C32.4935 43.3038 36.7709 32.975 44.3851 25.3585C45.1395 24.6033 46.0354 24.0041 47.0215 23.5953C48.0077 23.1865 49.0647 22.9761 50.1322 22.9761C51.1997 22.9761 52.2567 23.1865 53.2429 23.5953C54.229 24.0041 55.1249 24.6033 55.8793 25.3585V25.3504ZM90.3374 25.3504C91.0918 24.5951 91.9877 23.996 92.9738 23.5872C93.9599 23.1784 95.0169 22.968 96.0844 22.968C97.1519 22.968 98.209 23.1784 99.1951 23.5872C100.181 23.996 101.077 24.5951 101.832 25.3504C105.604 29.122 108.597 33.5999 110.639 38.5283C112.68 43.4567 113.731 48.739 113.731 54.0736C113.731 59.4082 112.68 64.6905 110.639 69.6189C108.597 74.5473 105.604 79.0252 101.832 82.7968C100.307 84.321 98.24 85.1773 96.0844 85.1773C93.9289 85.1773 91.8616 84.321 90.3374 82.7968C88.8132 81.2726 87.9569 79.2053 87.9569 77.0497C87.9569 74.8941 88.8132 72.8269 90.3374 71.3026C94.9059 66.7327 97.4723 60.5354 97.4723 54.0736C97.4723 47.6117 94.9059 41.4145 90.3374 36.8445C89.5821 36.0901 88.983 35.1942 88.5742 34.2081C88.1654 33.222 87.955 32.165 87.955 31.0975C87.955 30.03 88.1654 28.9729 88.5742 27.9868C88.983 27.0007 89.5821 26.1048 90.3374 25.3504V25.3504ZM73.1083 45.9505C75.2627 45.9505 77.3288 46.8063 78.8522 48.3297C80.3756 49.8531 81.2314 51.9192 81.2314 54.0736V54.1548C81.2314 56.3092 80.3756 58.3753 78.8522 59.8987C77.3288 61.4221 75.2627 62.2779 73.1083 62.2779C70.9539 62.2779 68.8878 61.4221 67.3644 59.8987C65.8411 58.3753 64.9852 56.3092 64.9852 54.1548V54.0736C64.9852 51.9192 65.8411 49.8531 67.3644 48.3297C68.8878 46.8063 70.9539 45.9505 73.1083 45.9505V45.9505Z" fill="#333333"/>
</svg>
