<svg width="829" height="359" viewBox="0 0 829 359" fill="none" xmlns="http://www.w3.org/2000/svg">
<g clip-path="url(#clip0)">
<rect width="829" height="359" fill="#F1F2F6"/>
<path d="M-227.191 110.216C-228.943 80.0923 -204.039 55.1759 -173.914 56.9133L-30.1565 65.2043C-4.92817 66.6593 15.3331 86.5528 17.25 111.75L28.3187 257.249C30.6623 288.055 5.0191 313.714 -25.7888 311.39L-172.314 300.336C-197.515 298.435 -217.423 278.182 -218.89 252.952L-227.191 110.216Z" fill="#605DEC" fill-opacity="0.5"/>
<path d="M-227.88 179.637C-244.453 154.421 -235.335 120.393 -208.374 106.842L-80.2802 42.4579C-57.7003 31.1086 -30.2069 38.2143 -15.9538 59.0832L66.5615 179.9C83.9862 205.412 74.5972 240.453 46.7505 253.835L-85.118 317.208C-107.896 328.154 -135.259 320.561 -149.139 299.442L-227.88 179.637Z" fill="#605DEC" fill-opacity="0.5"/>
<path d="M755.047 129.096C753.353 96.045 780.869 68.915 813.892 71.0759L887.409 75.8866C915.075 77.697 937.126 99.712 938.98 127.375L945.628 226.514C947.895 260.328 919.494 288.209 885.728 285.319L810.562 278.885C783.029 276.528 761.46 254.21 760.045 226.611L755.047 129.096Z" fill="#605DEC" fill-opacity="0.5"/>
<path d="M760.932 187.49C744.46 159.03 755.051 119.747 783.586 103.46L852.187 64.3047C876.098 50.6575 904.54 58.0664 918.715 81.6345L966.64 161.318C983.961 190.118 973.015 230.56 943.545 246.642L872.816 285.241C848.74 298.38 820.508 290.423 806.729 266.617L760.932 187.49Z" fill="#605DEC" fill-opacity="0.5"/>
</g>
<defs>
<clipPath id="clip0">
<rect width="829" height="359" fill="white"/>
</clipPath>
</defs>
</svg>
