<svg width="1880" height="900" viewBox="0 0 1880 900" fill="none" xmlns="http://www.w3.org/2000/svg">
<g clip-path="url(#clip0)">
<path d="M1880 0H0V900H1880V0Z" fill="white"/>
<path d="M142.893 484.301C162.395 541.542 126.448 592.882 65.9934 594.131L-51.6648 596.562C-102.294 597.608 -152.924 562.701 -170.128 514.889L-210.547 402.558C-231.58 344.104 -194.569 291.234 -132.452 291.003L-11.9689 290.553C38.8436 290.364 88.9653 326.01 105.299 373.952L142.893 484.301Z" fill="#605DEC" fill-opacity="0.5"/>
<g filter="url(#filter0_f)">
<path d="M109.648 412.057C152.533 454.259 145.739 520.122 95.122 552.868L20.1309 601.383C-22.2517 628.802 -81.158 623.248 -117.641 588.393L-222.11 488.589C-266.735 445.955 -259.514 378.131 -206.885 345.595L-128.678 297.246C-85.8443 270.765 -27.3523 277.24 8.39549 312.418L109.648 412.057Z" fill="#605DEC" fill-opacity="0.5"/>
</g>
</g>
<defs>
<filter id="filter0_f" x="-285.452" y="247" width="457.355" height="405.757" filterUnits="userSpaceOnUse" color-interpolation-filters="sRGB">
<feFlood flood-opacity="0" result="BackgroundImageFix"/>
<feBlend mode="normal" in="SourceGraphic" in2="BackgroundImageFix" result="shape"/>
<feGaussianBlur stdDeviation="17" result="effect1_foregroundBlur"/>
</filter>
<clipPath id="clip0">
<rect width="1880" height="900" fill="white"/>
</clipPath>
</defs>
</svg>
