<svg width="44" height="91" viewBox="0 0 44 91" fill="none" xmlns="http://www.w3.org/2000/svg">
<path d="M13.1858 2C13.0507 6.72796 12.9156 11.4559 12.7805 16.2289C18.7693 16.6342 24.7129 16.9944 30.7017 17.3996C30.7017 12.5366 30.7017 7.67357 30.7017 2.81053C24.848 2.54036 19.0394 2.27017 13.1858 2Z" fill="white" stroke="#161616" stroke-width="2" stroke-miterlimit="10"/>
<path d="M20.9756 54.5478C21.7861 59.771 22.1463 64.0937 22.3264 67.2007C22.9118 77.5121 22.4615 79.8986 21.561 81.7898C19.3546 86.4277 15.3471 88.3639 15.7073 88.9943C15.9775 89.3996 17.9587 88.9493 26.7842 84.3114C26.2439 74.045 25.7486 63.8236 25.2082 53.5571C23.8124 53.9174 22.4165 54.2326 20.9756 54.5478Z" fill="white" stroke="#161616" stroke-width="2" stroke-miterlimit="10"/>
<path d="M9.31348 21.4521C16.9683 21.4972 24.623 21.5872 32.2778 21.6323C31.4223 31.8987 30.6118 42.1201 29.7562 52.3865C23.0921 51.8462 16.3829 51.3509 9.71871 50.8105C9.5386 41.0394 9.40353 31.2683 9.31348 21.4521Z" fill="white" stroke="#161616" stroke-width="2" stroke-miterlimit="10"/>
<path d="M12.4201 54.1875C14.8516 60.0862 15.6622 65.1744 15.9323 68.5966C16.3376 73.6397 16.6077 77.5121 14.1762 80.0787C13.2756 81.0694 11.7897 82.0149 8.90791 83.9512C6.3413 85.6622 5.12554 86.2926 5.21559 86.4727C5.35068 86.7429 7.82725 86.2026 18.634 82.3752C19.3545 78.7279 19.9398 74.045 19.8047 68.5515C19.6246 62.6979 18.679 57.6997 17.6434 53.9624C15.9323 54.0525 14.1762 54.0975 12.4201 54.1875Z" fill="white" stroke="#161616" stroke-width="2" stroke-miterlimit="10"/>
<path d="M16.3375 89.3996C17.6884 88.2739 18.9492 87.0581 20.165 85.7523C21.5608 84.2213 23.6321 81.8799 25.7935 83.9062C25.8385 83.5459 25.8835 83.1857 25.9285 82.8255C22.7315 84.4015 19.5796 85.9774 16.3826 87.5084C15.7522 87.8236 16.0674 88.7692 16.7428 88.7692C19.7597 88.8142 21.6509 83.5459 24.7578 84.5366C25.5683 84.8067 25.9286 83.5009 25.118 83.2307C23.7672 82.8255 22.7315 83.1857 21.6058 83.9962C20.3 84.9418 18.4539 87.4183 16.7878 87.4183C16.9229 87.8236 17.0129 88.2739 17.148 88.6791C20.345 87.1031 23.497 85.5272 26.694 83.9962C27.0993 83.8161 27.1443 83.2307 26.8291 82.9155C25.6133 81.7898 23.452 81.3846 21.921 82.105C20.7953 82.6003 20.0749 83.9062 19.2644 84.7617C18.0486 86.0675 16.7878 87.2382 15.437 88.409C14.7165 88.9943 15.6621 89.985 16.3375 89.3996Z" fill="#161616"/>
<path d="M21.876 82.3754C23.2269 82.4204 24.5327 82.6906 25.7935 83.2309C26.559 83.5911 27.2794 82.4204 26.4689 82.0602C24.983 81.3848 23.497 81.0245 21.876 80.9795C21.0205 81.0245 21.0205 82.3754 21.876 82.3754Z" fill="#161616"/>
<path d="M14.4914 80.7994C15.527 81.0695 16.4276 81.6099 17.148 82.4204C17.7334 83.0508 18.679 82.1052 18.0936 81.4748C17.1931 80.5292 16.0674 79.8538 14.8066 79.5386C14.0411 79.2684 13.6809 80.5742 14.4914 80.7994Z" fill="#161616"/>
<path d="M7.1969 86.2479C8.59277 85.2122 10.0337 84.2666 11.5196 83.3661C12.195 82.9608 12.9155 82.4205 13.6359 82.1953C14.7616 81.7901 15.437 82.0603 16.4727 82.5105C16.4727 82.1053 16.4727 81.7451 16.4727 81.3398C15.0318 81.9702 13.4108 81.9252 11.9249 82.5556C10.484 83.1409 9.13311 84.5818 7.64718 84.852C7.82729 85.2572 8.00741 85.6625 8.18752 86.0678C10.8442 84.7619 13.816 84.5368 16.4727 83.231C17.2382 82.8257 16.5627 81.7 15.7973 82.0603C13.1406 83.3661 10.1688 83.5912 7.5121 84.897C6.79165 85.2573 7.33199 86.2479 8.05245 86.1128C9.67346 85.8426 10.9793 84.3567 12.5102 83.7713C14.0412 83.186 15.7072 83.1409 17.1932 82.5105C17.6434 82.3304 17.6434 81.5199 17.1932 81.3398C15.4821 80.5743 14.7166 80.124 13.0055 81.0246C10.7541 82.1953 8.63781 83.5912 6.61154 85.0771C5.80103 85.5724 6.47645 86.7432 7.1969 86.2479Z" fill="#161616"/>
<path d="M14.8967 61.0769C16.0224 60.6717 17.1481 60.7167 18.1838 61.2571C18.9492 61.6623 19.6247 60.4916 18.8592 60.0863C17.5083 59.3659 15.9774 59.2308 14.5365 59.7711C13.7259 60.0863 14.0862 61.3921 14.8967 61.0769Z" fill="#161616"/>
<path d="M16.0225 65.58C16.9681 65.4899 17.8687 65.7151 18.5891 66.3455C19.2646 66.8858 20.2102 65.9402 19.5347 65.3999C18.5441 64.5894 17.3283 64.1391 16.0225 64.2291C15.167 64.2742 15.167 65.625 16.0225 65.58Z" fill="#161616"/>
<path d="M16.5178 71.2084C17.3733 71.1183 18.1838 71.4335 18.6791 72.154C19.1294 72.8744 20.3001 72.199 19.8498 71.4786C19.1744 70.3529 17.8686 69.6774 16.5628 69.8575C16.2026 69.9026 15.8874 70.1277 15.8874 70.533C15.8423 70.8482 16.1575 71.2534 16.5178 71.2084Z" fill="#161616"/>
<path d="M22.3266 60.7616C23.1371 60.3113 24.1728 60.3563 24.9383 60.9867C25.6137 61.5271 26.5593 60.5815 25.8838 60.0411C24.6681 59.0505 23.0471 58.8254 21.6512 59.5909C20.8857 60.0411 21.5611 61.2119 22.3266 60.7616Z" fill="#161616"/>
<path d="M23.0921 69.2722C23.8125 68.957 24.623 69.092 25.2084 69.6324C25.8387 70.2177 26.8294 69.2722 26.1539 68.6868C25.1183 67.7412 23.6774 67.5161 22.3716 68.1465C21.6061 68.4617 22.3266 69.6324 23.0921 69.2722Z" fill="#161616"/>
<path d="M23.272 76.4768C23.9925 76.0265 24.8931 76.0265 25.5685 76.5668C26.2439 77.1072 27.1895 76.1615 26.5141 75.6212C25.3884 74.6756 23.8123 74.5405 22.5966 75.351C21.8761 75.8013 22.5516 76.9721 23.272 76.4768Z" fill="#161616"/>
<path d="M33.3584 21.5874C32.4579 31.9439 31.5573 42.3004 30.6567 52.6568" stroke="#161616" stroke-width="3" stroke-miterlimit="10"/>
<path d="M9.5835 51.2158C17.1032 51.7562 24.6229 52.2515 32.1426 52.7918" stroke="#161616" stroke-width="3" stroke-miterlimit="10"/>
<path d="M32.1874 2.40527C32.0073 7.53849 31.7822 12.6267 31.6021 17.7599" stroke="#161616" stroke-width="3" stroke-miterlimit="10"/>
<path d="M33.133 27.666C37.3207 26.9006 41.7785 30.1876 42.0937 34.5103C42.5439 39.9137 36.3751 40.8593 32.3226 40.2739C31.467 40.1388 31.1068 41.4447 31.9623 41.5797C36.9154 42.3002 43.8948 40.9043 43.4445 34.5103C43.0843 29.242 37.816 25.4146 32.7729 26.3602C31.9173 26.4953 32.2775 27.8011 33.133 27.666Z" fill="#161616"/>
<path d="M32.1426 42.6607C33.8987 43.0209 35.2946 44.2817 35.7899 45.9927C36.015 46.8483 37.3209 46.488 37.0957 45.6325C36.5103 43.4712 34.7543 41.7601 32.5479 41.3548C31.6473 41.2197 31.2871 42.4805 32.1426 42.6607Z" fill="#161616"/>
<path d="M31.4671 42.2105C32.5477 43.7865 33.043 45.5425 32.8629 47.4788C32.8179 48.3343 34.1687 48.3343 34.2138 47.4788C34.3488 45.3624 33.8085 43.2912 32.5928 41.5351C32.1425 40.8146 30.9717 41.49 31.4671 42.2105Z" fill="#161616"/>
<path d="M9.26823 27.0357C6.29637 25.1445 0.847987 30.5929 0.172564 33.2496C-1.17828 38.653 5.75605 38.0226 8.63785 39.8237C9.35831 40.274 10.0337 39.1032 9.31328 38.653C7.24198 37.3471 4.18005 37.8424 2.37893 36.2214C0.172548 34.2402 2.19882 31.8537 3.72977 30.4578C4.54028 29.7374 7.28699 27.3509 8.59281 28.1614C9.31326 28.7017 10.0337 27.531 9.26823 27.0357Z" fill="#161616"/>
<path d="M8.5479 39.1932C7.37717 39.6435 6.2965 40.3189 5.39593 41.2645C4.72051 41.985 3.86496 43.1107 4.54039 44.1013C5.0357 44.8217 6.20644 44.1463 5.71113 43.4259C5.39594 42.9756 6.56666 41.985 6.88186 41.7148C7.46722 41.1745 8.14265 40.7692 8.90812 40.499C9.71863 40.1838 9.40344 38.878 8.5479 39.1932Z" fill="#161616"/>
<path d="M8.00737 40.1391C7.15184 41.4899 6.88168 43.0209 7.19687 44.5518C7.37698 45.4074 8.68281 45.0471 8.5027 44.1916C8.23253 42.9758 8.5027 41.8501 9.17812 40.8145C9.67343 40.094 8.50268 39.4186 8.00737 40.1391Z" fill="#161616"/>
<path d="M12.2852 26.1802C12.0601 29.4673 12.1051 32.7994 12.3303 36.0864C12.4203 36.942 13.7712 36.942 13.6811 36.0864C13.4109 32.7994 13.4109 29.4673 13.6361 26.1802C13.7261 25.3247 12.3753 25.3247 12.2852 26.1802Z" fill="#161616"/>
<path d="M13.2759 26.5404C18.0489 26.8106 22.7769 26.9907 27.5498 27.0808C27.3247 26.8556 27.0996 26.6305 26.8744 26.4053C26.7393 29.7825 26.6042 33.2046 26.4241 36.5817C26.3791 37.4373 27.73 37.4373 27.775 36.5817C27.9101 33.2046 28.0451 29.7825 28.2253 26.4053C28.2253 26.0451 27.9101 25.7299 27.5498 25.7299C22.7769 25.6399 18.0489 25.4597 13.2759 25.1896C12.4204 25.1445 12.4204 26.4954 13.2759 26.5404Z" fill="#161616"/>
<path d="M12.7355 36.6716C14.7168 37.212 16.9232 37.0769 18.9044 37.212C21.3359 37.3471 23.8125 37.5272 26.244 37.6623C27.0995 37.7073 27.0995 36.3564 26.244 36.3114C24.0827 36.1763 21.9213 36.0413 19.7599 35.9062C17.5986 35.7711 15.1671 35.9062 13.0507 35.3658C12.2853 35.1407 11.925 36.4465 12.7355 36.6716Z" fill="#161616"/>
<path d="M14.2664 43.6509C15.0769 45.407 16.833 43.8761 18.1838 44.5064C18.8142 44.7766 18.6791 45.1819 19.5347 45.2269C20.5253 45.2719 22.9568 43.2907 23.4521 45.1369C23.5872 45.6322 24.2176 45.7672 24.5778 45.452C25.0281 45.3169 25.5234 45.1819 25.9737 45.0918C26.514 45.7672 27.5047 44.7766 26.9193 44.1462C25.8836 42.9305 24.5778 43.6059 23.5872 44.5064C23.9474 44.5965 24.3527 44.6866 24.7129 44.8217C24.3076 43.2457 22.6416 42.21 21.0656 42.9305C20.3001 43.2907 20.2101 43.9661 19.0394 43.5158C18.8142 43.4258 18.7241 43.0655 18.499 42.9755C18.0037 42.7954 15.3921 43.0656 15.3921 43.0205C15.0769 42.165 13.9061 42.8404 14.2664 43.6509Z" fill="#161616"/>
<path d="M16.653 8.21375C16.7431 7.71844 17.3284 7.58336 17.7337 7.76347C18.3191 7.98861 18.6342 8.66402 18.9044 9.15933C19.2646 9.92481 20.4354 9.24939 20.0751 8.48391C19.5798 7.49329 18.8143 6.45765 17.5986 6.32256C16.608 6.23251 15.5723 6.81787 15.3922 7.80849C15.1671 8.70905 16.4729 9.06929 16.653 8.21375Z" fill="#161616"/>
<path d="M24.9382 8.84444C25.0282 8.39416 25.4335 8.12399 25.8838 8.3041C26.4241 8.48421 26.6492 9.15964 26.7393 9.65495C26.8744 10.5105 28.1802 10.1503 28.0451 9.29473C27.865 8.21405 27.1445 7.08835 25.9738 6.90824C24.9381 6.77315 23.8125 7.40355 23.6323 8.48422C23.4973 9.33976 24.8031 9.69998 24.9382 8.84444Z" fill="#161616"/>
<path d="M17.3282 11.0507C18.8591 13.7524 22.5064 14.1577 24.4877 11.7261C25.028 11.0507 24.0824 10.1051 23.5421 10.7805C22.1012 12.5366 19.6246 12.4016 18.4989 10.3753C18.0936 9.60982 16.9229 10.2852 17.3282 11.0507Z" fill="#161616"/>
</svg>
