<svg width="46" height="46" viewBox="0 0 46 46" fill="none" xmlns="http://www.w3.org/2000/svg">
<path fill-rule="evenodd" clip-rule="evenodd" d="M26.8921 5.74208C27.1683 6.22038 27.7799 6.38425 28.2582 6.10811L33.4994 3.08209C34.166 2.69719 34.9994 3.17832 34.9994 3.94812V10.0006C34.9994 10.5529 35.4471 11.0006 35.9994 11.0006H42.0517C42.8215 11.0006 43.3026 11.8339 42.9177 12.5006L39.8916 17.742C39.6154 18.2203 39.7793 18.8319 40.2576 19.1081L45.4991 22.1342C46.1658 22.5191 46.1658 23.4814 45.4991 23.8663L40.2579 26.8923C39.7796 27.1684 39.6157 27.78 39.8919 28.2583L42.9178 33.4994C43.3027 34.166 42.8216 34.9994 42.0518 34.9994H35.9994C35.4471 34.9994 34.9994 35.4471 34.9994 35.9994V42.0525C34.9994 42.8223 34.166 43.3034 33.4994 42.9185L28.2578 39.8923C27.7795 39.6162 27.1679 39.78 26.8918 40.2583L23.8655 45.4999C23.4806 46.1666 22.5184 46.1666 22.1335 45.4999L19.1072 40.2583C18.8311 39.78 18.2195 39.6162 17.7412 39.8923L12.4997 42.9185C11.8331 43.3034 10.9997 42.8222 10.9997 42.0524V35.9994C10.9997 35.4471 10.552 34.9994 9.99973 34.9994H3.94739C3.17759 34.9994 2.69646 34.166 3.08136 33.4994L6.10725 28.2584C6.38339 27.7801 6.21951 27.1685 5.74122 26.8924L0.5 23.8663C-0.166667 23.4814 -0.166667 22.5192 0.5 22.1343L5.74147 19.1081C6.21976 18.832 6.38364 18.2204 6.10749 17.7421L3.0813 12.5006C2.6964 11.8339 3.17753 11.0006 3.94733 11.0006H9.99973C10.552 11.0006 10.9997 10.5529 10.9997 10.0006V3.94806C10.9997 3.17826 11.8331 2.69713 12.4997 3.08203L17.741 6.10809C18.2193 6.38424 18.8309 6.22036 19.107 5.74207L22.1336 0.5C22.5185 -0.166666 23.4807 -0.166667 23.8656 0.5L26.8921 5.74208Z" fill="white"/>
<path d="M19.752 29.698L18.276 28.834L25.692 16L27.15 16.864L19.752 29.698ZM18.204 24.082C17.196 24.082 16.41 23.734 15.846 23.038C15.282 22.342 15 21.394 15 20.194C15 18.994 15.282 18.052 15.846 17.368C16.41 16.672 17.196 16.324 18.204 16.324C19.212 16.324 19.998 16.672 20.562 17.368C21.126 18.052 21.408 18.994 21.408 20.194C21.408 21.394 21.126 22.342 20.562 23.038C19.998 23.734 19.212 24.082 18.204 24.082ZM18.204 22.57C18.636 22.57 18.972 22.378 19.212 21.994C19.452 21.598 19.572 20.998 19.572 20.194C19.572 19.39 19.452 18.796 19.212 18.412C18.972 18.028 18.636 17.836 18.204 17.836C17.772 17.836 17.436 18.028 17.196 18.412C16.956 18.784 16.836 19.378 16.836 20.194C16.836 21.01 16.956 21.61 17.196 21.994C17.436 22.378 17.772 22.57 18.204 22.57ZM27.24 29.374C26.232 29.374 25.446 29.026 24.882 28.33C24.318 27.634 24.036 26.686 24.036 25.486C24.036 24.286 24.318 23.344 24.882 22.66C25.446 21.964 26.232 21.616 27.24 21.616C28.248 21.616 29.034 21.964 29.598 22.66C30.162 23.344 30.444 24.286 30.444 25.486C30.444 26.686 30.162 27.634 29.598 28.33C29.034 29.026 28.248 29.374 27.24 29.374ZM27.24 27.862C27.672 27.862 28.008 27.67 28.248 27.286C28.488 26.89 28.608 26.29 28.608 25.486C28.608 24.682 28.488 24.088 28.248 23.704C28.008 23.32 27.672 23.128 27.24 23.128C26.808 23.128 26.472 23.32 26.232 23.704C25.992 24.076 25.872 24.67 25.872 25.486C25.872 26.302 25.992 26.902 26.232 27.286C26.472 27.67 26.808 27.862 27.24 27.862Z" fill="black"/>
</svg>
