<svg width="442" height="771" viewBox="0 0 442 771" fill="none" xmlns="http://www.w3.org/2000/svg">
<path d="M411.494 513.037C422.167 572.767 377.618 628.161 316.989 630.55L234.309 633.806C184.782 635.757 141.299 601.134 132.108 552.428L72.3177 235.609C60.7509 174.319 107.501 117.511 169.872 117.067L256.204 116.454C304.914 116.108 346.787 150.909 355.356 198.861L411.494 513.037Z" fill="#605DEC" fill-opacity="0.5"/>
<path d="M389.275 358.711C416.878 410.503 409.177 495.59 372.827 540.427L277.57 657.926C247.221 695.361 207.09 691.462 183.671 648.803L54.7492 413.968C26.0059 361.611 34.1989 273.929 71.9975 229.375L171.272 112.358C201.839 76.3278 241.497 81.4395 264.371 124.357L389.275 358.711Z" fill="#605DEC" fill-opacity="0.5"/>
</svg>
