<svg width="139" height="139" viewBox="0 0 139 139" fill="none" xmlns="http://www.w3.org/2000/svg">
<path d="M71.0004 3.30762C57.6122 3.30762 44.5245 7.2777 33.3926 14.7158C22.2607 22.154 13.5844 32.726 8.46091 45.0952C3.33744 57.4643 1.9969 71.075 4.60882 84.206C7.22075 97.3371 13.6678 109.399 23.1348 118.866C32.6017 128.333 44.6633 134.78 57.7943 137.392C70.9253 140.003 84.536 138.663 96.9052 133.539C109.274 128.416 119.846 119.74 127.285 108.608C134.723 97.4758 138.693 84.3882 138.693 70.9999C138.693 62.1104 136.942 53.308 133.54 45.0952C130.138 36.8824 125.152 29.42 118.866 23.1342C112.58 16.8484 105.118 11.8622 96.9052 8.46039C88.6924 5.05853 79.8899 3.30762 71.0004 3.30762V3.30762ZM71.0004 125.154C60.2898 125.154 49.8197 121.978 40.9142 116.027C32.0086 110.077 25.0676 101.619 20.9688 91.7237C16.87 81.8284 15.7976 70.9398 17.8871 60.435C19.9767 49.9302 25.1343 40.2809 32.7079 32.7074C40.2814 25.1338 49.9307 19.9762 60.4355 17.8866C70.9404 15.7971 81.8289 16.8695 91.7242 20.9683C101.62 25.0671 110.077 32.0081 116.028 40.9137C121.978 49.8192 125.154 60.2893 125.154 70.9999C125.154 85.3624 119.449 99.1367 109.293 109.292C99.1372 119.448 85.3629 125.154 71.0004 125.154V125.154Z" fill="#605DEC"/>
<path d="M98.0776 64.2307H77.7699V43.923C77.7699 42.1277 77.0567 40.4059 75.7872 39.1364C74.5178 37.8669 72.796 37.1537 71.0007 37.1537C69.2054 37.1537 67.4836 37.8669 66.2141 39.1364C64.9446 40.4059 64.2314 42.1277 64.2314 43.923V70.9999C64.2314 72.7952 64.9446 74.517 66.2141 75.7865C67.4836 77.056 69.2054 77.7691 71.0007 77.7691H98.0776C99.8729 77.7691 101.595 77.056 102.864 75.7865C104.134 74.517 104.847 72.7952 104.847 70.9999C104.847 69.2046 104.134 67.4828 102.864 66.2133C101.595 64.9439 99.8729 64.2307 98.0776 64.2307Z" fill="#605DEC"/>
<path d="M68.0004 0.307617C54.6122 0.307617 41.5245 4.2777 30.3926 11.7158C19.2607 19.154 10.5844 29.726 5.46091 42.0952C0.337435 54.4643 -1.0031 68.075 1.60882 81.206C4.22075 94.3371 10.6678 106.399 20.1348 115.866C29.6017 125.333 41.6633 131.78 54.7943 134.392C67.9253 137.003 81.536 135.663 93.9052 130.539C106.274 125.416 116.846 116.74 124.285 105.608C131.723 94.4758 135.693 81.3882 135.693 67.9999C135.693 59.1104 133.942 50.308 130.54 42.0952C127.138 33.8824 122.152 26.42 115.866 20.1342C109.58 13.8484 102.118 8.86224 93.9052 5.46039C85.6924 2.05853 76.8899 0.307617 68.0004 0.307617V0.307617ZM68.0004 122.154C57.2898 122.154 46.8197 118.978 37.9142 113.027C29.0086 107.077 22.0676 98.619 17.9688 88.7237C13.87 78.8284 12.7976 67.9398 14.8871 57.435C16.9767 46.9302 22.1343 37.2809 29.7079 29.7074C37.2814 22.1338 46.9307 16.9762 57.4355 14.8866C67.9404 12.7971 78.8289 13.8695 88.7242 17.9683C98.6195 22.0671 107.077 29.0081 113.028 37.9137C118.978 46.8192 122.154 57.2893 122.154 67.9999C122.154 82.3624 116.449 96.1367 106.293 106.292C96.1372 116.448 82.3629 122.154 68.0004 122.154V122.154Z" fill="#333333"/>
<path d="M95.0776 61.2307H74.7699V40.923C74.7699 39.1277 74.0567 37.4059 72.7872 36.1364C71.5178 34.8669 69.796 34.1537 68.0007 34.1537C66.2054 34.1537 64.4836 34.8669 63.2141 36.1364C61.9446 37.4059 61.2314 39.1277 61.2314 40.923V67.9999C61.2314 69.7952 61.9446 71.517 63.2141 72.7865C64.4836 74.056 66.2054 74.7691 68.0007 74.7691H95.0776C96.8729 74.7691 98.5947 74.056 99.8642 72.7865C101.134 71.517 101.847 69.7952 101.847 67.9999C101.847 66.2046 101.134 64.4828 99.8642 63.2133C98.5947 61.9439 96.8729 61.2307 95.0776 61.2307Z" fill="#333333"/>
</svg>
