<svg width="101" height="159" viewBox="0 0 101 159" fill="none" xmlns="http://www.w3.org/2000/svg">
<path d="M97.0717 90.8793C96.0907 88.5449 94.9262 86.292 93.589 84.1417V45.1931C93.5945 39.7499 92.5226 34.3594 90.4352 29.3324C88.3477 24.3053 85.2859 19.7412 81.4263 15.9029C77.5896 12.0434 73.025 8.98359 67.9972 6.90079C62.9694 4.818 57.5783 3.75363 52.1362 3.76934C46.6909 3.7563 41.2969 4.8218 36.2655 6.90435C31.2341 8.9869 26.665 12.0453 22.8218 15.9029C18.964 19.741 15.9053 24.3058 13.8227 29.3333C11.74 34.3608 10.6746 39.7513 10.6882 45.1931V50.87H27.2877V45.1931C27.2877 38.5862 29.8598 32.3281 34.5776 27.6345C36.8787 25.3228 39.6153 23.4903 42.6292 22.2432C45.6431 20.9961 48.8744 20.359 52.1362 20.3689C58.7182 20.3804 65.0277 22.9989 69.6837 27.6513C74.3397 32.3037 76.9631 38.6111 76.9798 45.1931V67.8764C69.4358 63.3794 60.8122 61.0155 52.0296 61.037C45.6096 61.0241 39.2505 62.2813 33.3183 64.7361C27.3862 67.1909 21.9982 70.7949 17.4646 75.3406C12.9207 79.8752 9.31816 85.2635 6.86424 91.1955C4.41031 97.1275 3.15342 103.486 3.16586 109.906C3.15524 116.32 4.41309 122.673 6.86704 128.599C9.32098 134.525 12.9226 139.908 17.4646 144.437C21.999 148.983 27.3854 152.591 33.3157 155.053C39.2459 157.515 45.6035 158.784 52.0246 158.786C58.4457 158.788 64.8042 157.524 70.7361 155.066C76.6681 152.608 82.0571 149.004 86.5946 144.461C91.1382 139.927 94.7405 134.54 97.1944 128.608C99.6484 122.677 100.905 116.319 100.893 109.901C100.893 103.313 99.6098 96.905 97.062 90.8745L97.0717 90.8793ZM52.0393 142.17C34.2531 142.17 19.7751 127.692 19.7751 109.906C19.7751 92.1193 34.2531 77.6414 52.0393 77.6414C60.5943 77.6478 68.7971 81.0491 74.8465 87.0984C80.8958 93.1478 84.2971 101.351 84.3035 109.906C84.292 118.459 80.889 126.659 74.8408 132.707C68.7926 138.755 60.5928 142.158 52.0393 142.17ZM65.8924 110.056C65.8924 128.292 38.5156 128.292 38.5156 110.056C38.5156 91.79 65.8924 91.79 65.8924 110.056Z" fill="#605DEC"/>
<path d="M94.0717 87.8793C93.0907 85.5449 91.9262 83.292 90.589 81.1417V42.1931C90.5945 36.7499 89.5226 31.3594 87.4352 26.3324C85.3477 21.3053 82.2859 16.7412 78.4263 12.9029C74.5896 9.04339 70.025 5.98359 64.9972 3.90079C59.9694 1.818 54.5783 0.753626 49.1362 0.769336C43.6909 0.7563 38.2969 1.8218 33.2655 3.90435C28.2341 5.9869 23.665 9.04526 19.8218 12.9029C15.964 16.741 12.9053 21.3058 10.8227 26.3333C8.73999 31.3608 7.67464 36.7513 7.68821 42.1931V47.87H24.2877V42.1931C24.2877 35.5862 26.8598 29.3281 31.5776 24.6345C33.8787 22.3228 36.6153 20.4903 39.6292 19.2432C42.6431 17.9961 45.8744 17.359 49.1362 17.3689C55.7182 17.3804 62.0277 19.9989 66.6837 24.6513C71.3397 29.3037 73.9631 35.6111 73.9798 42.1931V64.8764C66.4358 60.3794 57.8122 58.0155 49.0296 58.037C42.6096 58.0241 36.2505 59.2813 30.3183 61.7361C24.3862 64.1909 18.9982 67.7949 14.4646 72.3406C9.9207 76.8752 6.31816 82.2635 3.86424 88.1955C1.41031 94.1275 0.153421 100.486 0.165863 106.906C0.155237 113.32 1.41309 119.673 3.86704 125.599C6.32098 131.525 9.92259 136.908 14.4646 141.437C18.999 145.983 24.3854 149.591 30.3157 152.053C36.2459 154.515 42.6035 155.784 49.0246 155.786C55.4457 155.788 61.8042 154.524 67.7361 152.066C73.6681 149.608 79.0571 146.004 83.5946 141.461C88.1382 136.927 91.7405 131.54 94.1944 125.608C96.6484 119.677 97.9054 113.319 97.8934 106.901C97.8934 100.313 96.6098 93.905 94.062 87.8745L94.0717 87.8793ZM49.0393 139.17C31.2531 139.17 16.7751 124.692 16.7751 106.906C16.7751 89.1193 31.2531 74.6414 49.0393 74.6414C57.5943 74.6478 65.7971 78.0491 71.8465 84.0984C77.8958 90.1478 81.2971 98.3506 81.3035 106.906C81.292 115.459 77.889 123.659 71.8408 129.707C65.7926 135.755 57.5928 139.158 49.0393 139.17ZM62.8924 107.056C62.8924 125.292 35.5156 125.292 35.5156 107.056C35.5156 88.79 62.8924 88.79 62.8924 107.056Z" fill="#333333"/>
</svg>
